<?xml version="1.0" encoding="UTF-8" standalone="no"?><!DOCTYPE svg PUBLIC "-//W3C//DTD SVG 1.1//EN" "http://www.w3.org/Graphics/SVG/1.1/DTD/svg11.dtd"><svg width="100%" height="100%" viewBox="0 0 100 201" version="1.1" xmlns="http://www.w3.org/2000/svg" xmlns:xlink="http://www.w3.org/1999/xlink" xml:space="preserve" style="fill-rule:evenodd;clip-rule:evenodd;"><g id="T.-.-Lund.-.-podium"><rect x="0.432" y="34.219" width="99.057" height="57.749" style="fill:#faaf6d;"/><rect x="21.929" y="91.967" width="56.062" height="108.332" style="fill:#e19658;"/><ellipse cx="82.982" cy="47.564" rx="6.272" ry="2.475" style="stroke:#000;stroke-width:1.24px;"/><ellipse cx="82.982" cy="45.748" rx="6.272" ry="2.475" style="stroke:#000;stroke-width:1.24px;"/><rect x="76.71" y="45.748" width="12.544" height="1.419" style="stroke:#000;stroke-width:1.24px;"/><path d="M83.507,46.458c0,-22.298 4.665,-22.62 -6.797,-37.027" style="fill:none;stroke:#000;stroke-width:1.24px;"/><path d="M77.73,6.121c0.98,1.181 0.771,2.967 -0.466,3.995c-1.234,1.024 -3.028,0.899 -4.009,-0.282l-3.789,-4.566c-0.981,-1.18 -0.773,-2.969 0.464,-3.992c1.235,-1.026 3.031,-0.901 4.009,0.279l3.791,4.566Z" style="fill-rule:nonzero;"/><path d="M77.792,7.739l-2.96,2.456l1.351,1.629l2.961,-2.456l-1.352,-1.629Z"/><path d="M76.947,9.733c0.817,-0.678 1.801,-0.841 2.197,-0.365c0.395,0.476 0.052,1.413 -0.765,2.091c-0.817,0.678 -1.801,0.841 -2.196,0.365c-0.395,-0.477 -0.053,-1.414 0.764,-2.091Z"/><rect x="27.785" y="44.585" width="28.953" height="37.018" style="fill:#fff;"/><path d="M32.435,51.278l17.525,0" style="fill:none;stroke:#000;stroke-width:1.24px;"/><path d="M32.435,53.582l15.564,0" style="fill:none;stroke:#000;stroke-width:1.24px;"/><path d="M32.435,55.884l17.525,0" style="fill:none;stroke:#000;stroke-width:1.24px;"/><path d="M32.435,58.187l14.225,0" style="fill:none;stroke:#000;stroke-width:1.24px;"/><path d="M32.435,60.491l17.525,0" style="fill:none;stroke:#000;stroke-width:1.24px;"/></g></svg>