<?xml version="1.0" encoding="UTF-8" standalone="no"?><!DOCTYPE svg PUBLIC "-//W3C//DTD SVG 1.1//EN" "http://www.w3.org/Graphics/SVG/1.1/DTD/svg11.dtd"><svg width="100%" height="100%" viewBox="0 0 63 23" version="1.1" xmlns="http://www.w3.org/2000/svg" xmlns:xlink="http://www.w3.org/1999/xlink" xml:space="preserve" style="fill-rule:evenodd;clip-rule:evenodd;stroke-linecap:square;"><g id="T.-.-Lund.-.-BBa_K2266000"><path id="line2d_8" d="M2.447,11.6l57.702,0" style="fill:none;stroke:#000;stroke-width:1px;"/><path d="M12.684,6.016l0,11.168l29.782,0l0,3.723l7.445,-9.307l-7.445,-9.307l0,3.723l-29.782,0Z" style="fill:#5392ff;fill-rule:nonzero;stroke:#000;stroke-width:1px;stroke-linecap:butt;"/><g id="text_8"><path id="DejaVuSans.-Oblique.-47" d="M24.448,12.733l0.152,-0.763l-0.648,0l0.06,-0.325l1.035,0l-0.252,1.284c-0.173,0.095 -0.362,0.168 -0.567,0.22c-0.204,0.051 -0.409,0.077 -0.616,0.077c-0.366,0 -0.652,-0.101 -0.859,-0.304c-0.206,-0.204 -0.309,-0.486 -0.309,-0.849c0,-0.3 0.063,-0.586 0.188,-0.858c0.126,-0.271 0.3,-0.498 0.521,-0.679c0.139,-0.113 0.291,-0.197 0.457,-0.253c0.165,-0.055 0.349,-0.083 0.55,-0.083c0.183,0 0.358,0.023 0.525,0.07c0.167,0.046 0.327,0.115 0.48,0.208l-0.08,0.42c-0.118,-0.123 -0.255,-0.216 -0.413,-0.281c-0.157,-0.064 -0.325,-0.097 -0.504,-0.097c-0.207,0 -0.389,0.04 -0.546,0.119c-0.158,0.079 -0.299,0.201 -0.422,0.366c-0.106,0.141 -0.189,0.306 -0.25,0.497c-0.06,0.191 -0.09,0.385 -0.09,0.583c0,0.272 0.069,0.477 0.208,0.615c0.14,0.137 0.348,0.205 0.624,0.205c0.138,0 0.271,-0.014 0.4,-0.043c0.129,-0.03 0.247,-0.073 0.356,-0.129Z" style="fill-rule:nonzero;"/><path id="DejaVuSans.-Oblique.-46" d="M26.039,10.253l1.672,0l-0.064,0.332l-1.28,0l-0.167,0.86l1.156,0l-0.065,0.332l-1.156,0l-0.271,1.392l-0.393,0l0.568,-2.916Z" style="fill-rule:nonzero;"/><path id="DejaVuSans.-Oblique.-50" d="M28.34,10.253l0.913,0c0.265,0 0.467,0.062 0.606,0.185c0.14,0.124 0.21,0.305 0.21,0.544c0,0.32 -0.103,0.569 -0.309,0.748c-0.206,0.178 -0.495,0.267 -0.867,0.267l-0.496,0l-0.229,1.172l-0.396,0l0.568,-2.916Zm0.333,0.324l-0.212,1.096l0.497,0c0.223,0 0.395,-0.057 0.515,-0.172c0.12,-0.115 0.18,-0.279 0.18,-0.492c0,-0.137 -0.041,-0.243 -0.122,-0.318c-0.082,-0.076 -0.196,-0.114 -0.343,-0.114l-0.515,0Z" style="fill-rule:nonzero;"/><path id="DejaVuSans.-Oblique.-31" d="M30.337,12.837l0.644,0l0.436,-2.244l-0.729,0.14l0.069,-0.34l0.724,-0.14l0.396,0l-0.504,2.584l0.643,0l-0.063,0.332l-1.681,0l0.065,-0.332Z" style="fill-rule:nonzero;"/><path id="DejaVuSans.-Oblique.-2d" d="M32.866,11.913l1.052,0l-0.06,0.32l-1.057,0l0.065,-0.32Z" style="fill-rule:nonzero;"/><path id="DejaVuSans.-Oblique.-39" d="M34.24,13.105l0.073,-0.36c0.075,0.05 0.161,0.088 0.257,0.114c0.097,0.026 0.201,0.039 0.311,0.039c0.27,0 0.487,-0.085 0.651,-0.256c0.165,-0.171 0.288,-0.436 0.369,-0.797c-0.097,0.111 -0.208,0.195 -0.336,0.253c-0.126,0.058 -0.262,0.087 -0.408,0.087c-0.237,0 -0.426,-0.069 -0.566,-0.206c-0.14,-0.137 -0.21,-0.322 -0.21,-0.554c0,-0.19 0.035,-0.367 0.104,-0.53c0.069,-0.164 0.17,-0.307 0.304,-0.429c0.091,-0.086 0.197,-0.151 0.316,-0.197c0.12,-0.046 0.248,-0.069 0.384,-0.069c0.269,0 0.482,0.086 0.638,0.257c0.157,0.171 0.235,0.405 0.235,0.7c0,0.275 -0.037,0.541 -0.109,0.798c-0.072,0.256 -0.172,0.478 -0.299,0.665c-0.136,0.198 -0.299,0.349 -0.489,0.452c-0.19,0.103 -0.401,0.154 -0.633,0.154c-0.1,0 -0.2,-0.01 -0.3,-0.031c-0.099,-0.02 -0.197,-0.05 -0.292,-0.09Zm0.532,-1.772c0,0.165 0.043,0.297 0.128,0.394c0.087,0.097 0.203,0.145 0.349,0.145c0.201,0 0.37,-0.077 0.507,-0.232c0.137,-0.155 0.205,-0.348 0.205,-0.578c0,-0.172 -0.042,-0.306 -0.127,-0.404c-0.084,-0.097 -0.201,-0.145 -0.349,-0.145c-0.202,0 -0.371,0.079 -0.508,0.237c-0.137,0.158 -0.205,0.352 -0.205,0.583Z" style="fill-rule:nonzero;"/></g></g></svg>