<?xml version="1.0" encoding="UTF-8" standalone="no"?><!DOCTYPE svg PUBLIC "-//W3C//DTD SVG 1.1//EN" "http://www.w3.org/Graphics/SVG/1.1/DTD/svg11.dtd"><svg width="100%" height="100%" viewBox="0 0 200 200" version="1.1" xmlns="http://www.w3.org/2000/svg" xmlns:xlink="http://www.w3.org/1999/xlink" xml:space="preserve" style="fill-rule:evenodd;clip-rule:evenodd;stroke-linejoin:round;stroke-miterlimit:1.41421;"><rect id="Artboard1" x="0" y="0" width="200" height="200" style="fill:none;"/><clipPath id="_clip1"><rect id="Artboard11" x="0" y="0" width="200" height="200"/></clipPath><g clip-path="url(#_clip1)"><path d="M40.642,35.588c0,0 81.163,-4.796 104.889,0c18.947,3.829 41.958,16.933 50.349,28.771c8.146,11.491 2.048,33.566 0,42.257c-1.206,5.118 -7.103,10.765 -12.288,9.89c-7,-1.181 -25.155,-9.351 -30.408,-13.271c-7.304,-5.451 -8.88,-0.057 -7.653,3.381c1.866,5.228 17.104,18.806 19.543,24.28c1.34,3.006 0.031,9.898 -3.169,9.13c-11.543,-2.768 -25.671,-19.994 -31.846,-23.52c-8.809,-5.03 -13.069,0.092 -9.243,6.471c3.201,5.336 19.057,21.923 17.896,28.291c-0.657,3.605 -14.235,6.96 -17.896,7.095c-23.348,0.861 -72.594,-15.92 -103.292,-58.835c-5.144,-7.191 0,-38.254 0,-38.254l36.974,8.73l-13.856,-34.416Z" style="fill:#785ef0;"/></g></svg>