<svg id="Layer_1" data-name="Layer 1" xmlns="http://www.w3.org/2000/svg" viewBox="0 0 841.69758 595.28"><defs><style>.cls-1{fill:#fff;}</style></defs><title>Networks white</title><polygon class="cls-1" points="579.136 156.716 578.213 156.716 578.213 109.684 554.331 85.249 308.879 85.249 234.393 9.036 235.045 8.369 309.261 84.305 554.713 84.305 579.136 109.293 579.136 156.716"/><path class="cls-1" d="M581.10244,156.59138a2.42821,2.42821,0,1,1-2.4276-2.4838A2.45654,2.45654,0,0,1,581.10244,156.59138Z"/><path class="cls-1" d="M236.5329,7.04539a2.38917,2.38917,0,0,0-3.4331,0,2.52513,2.52513,0,0,0,0,3.51271,2.38911,2.38911,0,0,0,3.4331,0A2.52511,2.52511,0,0,0,236.5329,7.04539Z"/><path class="cls-1" d="M236.76119,6.8119a2.864,2.864,0,0,1,0,3.97976,2.7098,2.7098,0,0,1-3.88968,0,2.86408,2.86408,0,0,1,0-3.97988,2.70972,2.70972,0,0,1,3.88968.0001C237.83345,7.909,235.68883,5.71468,236.76119,6.8119Zm-3.43311,3.51263a2.07315,2.07315,0,0,0,2.97653,0,2.19113,2.19113,0,0,0,0-3.04554,2.07312,2.07312,0,0,0-2.97653,0,2.19118,2.19118,0,0,0,0,3.04556C234.14892,11.16437,232.50726,9.48467,233.32808,10.32453Z"/><polygon class="cls-1" points="638.176 156.716 637.254 156.716 637.254 138.832 652.259 123.48 652.259 51.193 691.358 11.187 692.01 11.854 653.181 51.584 653.181 123.871 638.176 139.223 638.176 156.716"/><path class="cls-1" d="M640.14275,156.59138a2.4282,2.4282,0,1,1-2.42761-2.4838A2.45654,2.45654,0,0,1,640.14275,156.59138Z"/><path class="cls-1" d="M693.30391,13.376a2.52511,2.52511,0,0,0,0-3.51269,2.3891,2.3891,0,0,0-3.43311,0,2.52489,2.52489,0,0,0,0,3.51265A2.38913,2.38913,0,0,0,693.30391,13.376Z"/><path class="cls-1" d="M693.5321,13.60954a2.70968,2.70968,0,0,1-3.88958,0,2.8639,2.8639,0,0,1,0-3.9798,2.70974,2.70974,0,0,1,3.88968,0,2.864,2.864,0,0,1-.0001,3.97983C692.45984,14.70666,694.60446,12.51236,693.5321,13.60954Zm-3.433-3.51267a2.1911,2.1911,0,0,0,0,3.0455,2.07315,2.07315,0,0,0,2.97653,0,2.19115,2.19115,0,0,0,0-3.04554,2.07312,2.07312,0,0,0-2.97653,0C689.27827,10.93669,690.91992,9.257,690.09909,10.09687Z"/><polygon class="cls-1" points="760.924 187.675 702.855 187.675 702.855 186.731 760.542 186.731 776.513 170.389 827.335 170.389 827.335 171.333 776.895 171.333 760.924 187.675"/><path class="cls-1" d="M702.977,189.68634a2.4845,2.4845,0,1,1,2.42752-2.48389A2.45643,2.45643,0,0,1,702.977,189.68634Z"/><path class="cls-1" d="M827.19766,173.34488a2.4845,2.4845,0,1,0-2.42753-2.48389A2.45642,2.45642,0,0,0,827.19766,173.34488Z"/><path class="cls-1" d="M827.19766,173.6752a2.8149,2.8149,0,1,1,2.75044-2.81421,2.78616,2.78616,0,0,1-2.75044,2.81421Zm0-4.96769a2.15409,2.15409,0,1,0,2.10478,2.15348,2.1316,2.1316,0,0,0-2.10478-2.15348Z"/><polygon class="cls-1" points="739.294 238.648 702.855 238.648 702.855 237.705 738.912 237.705 793.114 182.246 824.307 182.246 824.307 183.189 793.496 183.189 739.294 238.648"/><path class="cls-1" d="M702.977,240.66054a2.4845,2.4845,0,1,1,2.42752-2.48389A2.45643,2.45643,0,0,1,702.977,240.66054Z"/><path class="cls-1" d="M824.16948,185.20158a2.4845,2.4845,0,1,0-2.42752-2.4838A2.4564,2.4564,0,0,0,824.16948,185.20158Z"/><path class="cls-1" d="M824.16948,185.5319a2.8149,2.8149,0,1,1,2.75045-2.81412,2.78615,2.78615,0,0,1-2.75045,2.81412Zm0-4.96769a2.15409,2.15409,0,1,0,2.10478,2.15357,2.13168,2.13168,0,0,0-2.10478-2.15357Z"/><polygon class="cls-1" points="746.053 298.701 702.855 298.701 702.855 297.758 745.131 297.758 745.131 277.54 824.307 277.54 824.307 278.484 746.053 278.484 746.053 298.701"/><path class="cls-1" d="M702.977,300.71327a2.48454,2.48454,0,1,1,2.42752-2.48389A2.45649,2.45649,0,0,1,702.977,300.71327Z"/><path class="cls-1" d="M824.16948,280.49559a2.48445,2.48445,0,1,0-2.42752-2.4838A2.45635,2.45635,0,0,0,824.16948,280.49559Z"/><path class="cls-1" d="M824.16948,280.826a2.8149,2.8149,0,1,1,2.75045-2.81421,2.78617,2.78617,0,0,1-2.75045,2.81421Zm0-4.96769a2.15409,2.15409,0,1,0,2.10478,2.15348,2.1316,2.1316,0,0,0-2.10478-2.15348Z"/><rect class="cls-1" x="702.85535" y="357.19678" width="118.85654" height="0.94376"/><path class="cls-1" d="M702.977,360.15284a2.4845,2.4845,0,1,1,2.42752-2.48389A2.45649,2.45649,0,0,1,702.977,360.15284Z"/><path class="cls-1" d="M821.574,360.15284a2.4845,2.4845,0,1,0-2.42761-2.48389A2.45646,2.45646,0,0,0,821.574,360.15284Z"/><path class="cls-1" d="M821.574,360.48306a2.81485,2.81485,0,1,1,2.75036-2.81411,2.78616,2.78616,0,0,1-2.75036,2.81411Zm0-4.96759a2.15409,2.15409,0,1,0,2.10469,2.15348,2.13155,2.13155,0,0,0-2.10469-2.15348Z"/><polygon class="cls-1" points="779.23 583.848 778.308 583.848 778.308 482.836 706.037 408.889 702.86 408.923 702.851 407.979 706.415 407.942 779.23 482.445 779.23 583.848"/><path class="cls-1" d="M703.00165,410.93338a2.48448,2.48448,0,1,1,2.4026-2.50909A2.4551,2.4551,0,0,1,703.00165,410.93338Z"/><ellipse class="cls-1" cx="778.76869" cy="583.70691" rx="2.42752" ry="2.4838"/><path class="cls-1" d="M776.01833,583.70691a2.75113,2.75113,0,1,1,2.75036,2.81411,2.78614,2.78614,0,0,1-2.75036-2.81411Zm4.85514,0a2.10529,2.10529,0,1,0-2.10478,2.15357,2.13171,2.13171,0,0,0,2.10478-2.15357Z"/><polygon class="cls-1" points="676.947 581.611 676.024 581.611 676.024 513.678 654.716 491.877 654.716 460.935 638.483 444.325 639.135 443.658 655.638 460.544 655.638 491.486 676.947 513.287 676.947 581.611"/><path class="cls-1" d="M637.1785,445.83631a2.52494,2.52494,0,0,1,0-3.51269,2.389,2.389,0,0,1,3.4331,0,2.525,2.525,0,0,1-.00009,3.51269A2.38907,2.38907,0,0,1,637.1785,445.83631Z"/><path class="cls-1" d="M674.0576,581.47019a2.42821,2.42821,0,1,0,2.42761-2.4838A2.45634,2.45634,0,0,0,674.0576,581.47019Z"/><path class="cls-1" d="M673.73476,581.47019a2.75113,2.75113,0,1,1,2.75045,2.81421,2.78616,2.78616,0,0,1-2.75045-2.81421Zm4.85516,0a2.1053,2.1053,0,1,0-2.10471,2.15357,2.13161,2.13161,0,0,0,2.10471-2.15357Z"/><polygon class="cls-1" points="670.964 583.848 670.041 583.848 670.041 522.115 653.707 505.403 598.221 505.403 578.213 484.931 578.213 410.835 579.136 410.835 579.136 484.54 598.603 504.459 654.089 504.459 670.964 521.724 670.964 583.848"/><path class="cls-1" d="M576.2473,410.95886a2.42821,2.42821,0,1,1,2.42754,2.4838A2.4564,2.4564,0,0,1,576.2473,410.95886Z"/><path class="cls-1" d="M668.07485,583.70691a2.42821,2.42821,0,1,0,2.42752-2.4838A2.45638,2.45638,0,0,0,668.07485,583.70691Z"/><path class="cls-1" d="M667.752,583.70691a2.75112,2.75112,0,1,1,2.75035,2.81411,2.78608,2.78608,0,0,1-2.75035-2.81411Zm4.85513,0a2.10529,2.10529,0,1,0-2.10478,2.15357,2.1317,2.1317,0,0,0,2.10478-2.15357Z"/><polygon class="cls-1" points="266.275 517.619 24.787 517.619 24.787 516.675 265.894 516.675 324.269 456.946 515.765 456.946 515.765 410.835 516.687 410.835 516.687 457.89 324.651 457.89 266.275 517.619"/><path class="cls-1" d="M513.79832,410.95886a2.42821,2.42821,0,1,1,2.42753,2.4838A2.45634,2.45634,0,0,1,513.79832,410.95886Z"/><path class="cls-1" d="M24.92412,514.66331a2.4845,2.4845,0,1,0,2.42761,2.4839A2.45641,2.45641,0,0,0,24.92412,514.66331Z"/><path class="cls-1" d="M24.92412,514.333a2.8149,2.8149,0,1,1-2.75036,2.81421,2.78617,2.78617,0,0,1,2.75036-2.81421Zm0,4.96769a2.1541,2.1541,0,1,0-2.10469-2.15348,2.13162,2.13162,0,0,0,2.10469,2.15348Z"/><polygon class="cls-1" points="196.153 435.221 32.932 435.221 32.932 434.278 195.771 434.278 244.173 384.755 327.781 384.755 350.445 407.943 455.329 407.943 455.329 408.887 350.063 408.887 327.399 385.699 244.554 385.699 196.153 435.221"/><ellipse class="cls-1" cx="455.20831" cy="408.4157" rx="2.42752" ry="2.4838"/><path class="cls-1" d="M33.0696,432.26593a2.48445,2.48445,0,1,0,2.42753,2.4838A2.45642,2.45642,0,0,0,33.0696,432.26593Z"/><path class="cls-1" d="M33.0696,431.93562a2.81485,2.81485,0,1,1-2.75038,2.81411,2.78614,2.78614,0,0,1,2.75038-2.81411Zm0,4.96769a2.1541,2.1541,0,1,0-2.10474-2.15358,2.13165,2.13165,0,0,0,2.10474,2.15358Z"/><polygon class="cls-1" points="454.494 354.425 398.483 354.425 384.461 340.078 385.113 339.411 398.865 353.482 454.494 353.482 454.494 354.425"/><path class="cls-1" d="M454.37273,351.46993a2.4845,2.4845,0,1,1-2.42762,2.48389A2.45647,2.45647,0,0,1,454.37273,351.46993Z"/><ellipse class="cls-1" cx="384.88432" cy="339.84418" rx="2.42757" ry="2.48385"/><path class="cls-1" d="M386.82916,337.85425a2.864,2.864,0,0,1,0,3.97985,2.70979,2.70979,0,0,1-3.88968,0,2.86406,2.86406,0,0,1,0-3.97985,2.70979,2.70979,0,0,1,3.88968,0C387.90143,338.95138,385.7568,336.75712,386.82916,337.85425Zm-3.4331,3.51269a2.07314,2.07314,0,0,0,2.97653,0,2.19114,2.19114,0,0,0,0-3.04553,2.07314,2.07314,0,0,0-2.97653,0,2.19114,2.19114,0,0,0,0,3.04553C384.21689,342.20679,382.57524,340.52708,383.39606,341.36694Z"/><polygon class="cls-1" points="455.329 294.086 355.138 294.086 316.528 255.141 164.617 255.141 164.617 254.197 316.906 254.197 355.517 293.142 455.329 293.142 455.329 294.086"/><path class="cls-1" d="M455.20831,291.12992a2.4845,2.4845,0,1,1-2.42752,2.48379A2.45638,2.45638,0,0,1,455.20831,291.12992Z"/><path class="cls-1" d="M164.75431,252.18522a2.48445,2.48445,0,1,0,2.42753,2.4838A2.4564,2.4564,0,0,0,164.75431,252.18522Z"/><path class="cls-1" d="M164.75431,251.8549a2.81485,2.81485,0,1,1-2.75044,2.81412,2.78614,2.78614,0,0,1,2.75044-2.81412Zm0,4.9676a2.154,2.154,0,1,0-2.10478-2.15348,2.1316,2.1316,0,0,0,2.10478,2.15348Z"/><polygon class="cls-1" points="517.865 153.766 331.51 153.766 297.759 119.233 102.985 119.233 36.46 51.167 37.112 50.499 103.367 118.289 298.141 118.289 331.892 152.823 517.865 152.823 517.865 153.766"/><path class="cls-1" d="M517.74362,150.81073a2.4845,2.4845,0,1,1-2.42752,2.48389A2.45648,2.45648,0,0,1,517.74362,150.81073Z"/><ellipse class="cls-1" cx="36.88349" cy="50.93229" rx="2.42757" ry="2.48384"/><path class="cls-1" d="M38.82832,48.94237a2.864,2.864,0,0,1,0,3.97985,2.70973,2.70973,0,0,1-3.88962,0,2.864,2.864,0,0,1,0-3.97985,2.70976,2.70976,0,0,1,3.88966,0C39.90058,50.03949,37.756,47.84524,38.82832,48.94237Zm-3.43309,3.51269a2.07312,2.07312,0,0,0,2.97651,0,2.19115,2.19115,0,0,0,0-3.04553,2.07314,2.07314,0,0,0-2.97654,0,2.19112,2.19112,0,0,0,0,3.04553C36.216,53.29491,34.57439,51.6152,35.39523,52.45506Z"/><polygon class="cls-1" points="454.494 187.675 439.807 187.675 413.237 160.488 323.817 160.488 291.989 127.922 92.576 127.922 24.295 58.058 24.947 57.39 92.958 126.978 292.371 126.978 324.199 159.545 413.619 159.545 440.189 186.731 454.494 186.731 454.494 187.675"/><path class="cls-1" d="M454.37273,184.71865a2.4845,2.4845,0,1,1-2.42762,2.4838A2.45639,2.45639,0,0,1,454.37273,184.71865Z"/><path class="cls-1" d="M26.43479,56.06712a2.389,2.389,0,0,0-3.4331,0,2.52494,2.52494,0,0,0,0,3.51269,2.389,2.389,0,0,0,3.433-.00009A2.52491,2.52491,0,0,0,26.43479,56.06712Z"/><path class="cls-1" d="M26.663,55.83354a2.86393,2.86393,0,0,1,0,3.97976,2.70968,2.70968,0,0,1-3.88959,0,2.86386,2.86386,0,0,1,0-3.97976,2.70961,2.70961,0,0,1,3.88959,0C27.73526,56.93067,25.59072,54.73632,26.663,55.83354ZM23.23,59.34623a2.07322,2.07322,0,0,0,2.97653-.00009,2.19119,2.19119,0,0,0,0-3.04543,2.07313,2.07313,0,0,0-2.97653-.0001,2.19125,2.19125,0,0,0,0,3.04562C24.05072,60.186,22.40916,58.50628,23.23,59.34623Z"/><polygon class="cls-1" points="100.425 274.305 2.613 274.305 2.613 273.361 100.043 273.361 155.025 217.105 370.356 217.105 390.267 237.478 454.494 237.478 454.494 238.421 389.885 238.421 369.974 218.048 155.407 218.048 100.425 274.305"/><path class="cls-1" d="M454.37273,235.4654a2.4845,2.4845,0,1,1-2.42762,2.4838A2.45639,2.45639,0,0,1,454.37273,235.4654Z"/><path class="cls-1" d="M2.75045,271.34891a2.4845,2.4845,0,0,0,0,4.96769,2.4845,2.4845,0,0,0,0-4.96769Z"/><path class="cls-1" d="M2.75045,271.01859a2.81491,2.81491,0,0,1,0,5.62833,2.8149,2.8149,0,0,1,0-5.62833Zm0,4.96769a2.15409,2.15409,0,0,0,0-4.30705,2.15409,2.15409,0,0,0,0,4.30705Z"/><polygon class="cls-1" points="480.567 142.175 335.856 142.175 310.589 116.322 311.241 115.655 336.238 141.232 480.567 141.232 480.567 142.175"/><ellipse class="cls-1" cx="311.00087" cy="116.07663" rx="2.42757" ry="2.48385"/><path class="cls-1" d="M480.42953,144.187a2.4845,2.4845,0,1,0-2.42752-2.4838A2.4564,2.4564,0,0,0,480.42953,144.187Z"/><path class="cls-1" d="M480.42953,144.51733a2.8149,2.8149,0,1,1,2.75045-2.81411,2.78614,2.78614,0,0,1-2.75045,2.81411Zm0-4.96769a2.15409,2.15409,0,1,0,2.10478,2.15358,2.13169,2.13169,0,0,0-2.10478-2.15358Z"/><polygon class="cls-1" points="454.187 177.124 444.875 177.124 431.202 163.134 431.855 162.467 445.257 176.181 454.187 176.181 454.187 177.124"/><path class="cls-1" d="M429.89781,164.645a2.52494,2.52494,0,0,1,0-3.51269,2.3891,2.3891,0,0,1,3.4331.00009,2.525,2.525,0,0,1,0,3.5126A2.389,2.389,0,0,1,429.89781,164.645Z"/><path class="cls-1" d="M454.0498,179.13648a2.4845,2.4845,0,1,0-2.42752-2.48389A2.45649,2.45649,0,0,0,454.0498,179.13648Z"/><path class="cls-1" d="M454.0498,179.4668a2.8149,2.8149,0,1,1,2.75045-2.81421,2.78616,2.78616,0,0,1-2.75045,2.81421Zm0-4.96769a2.15409,2.15409,0,1,0,2.10478,2.15348,2.1316,2.1316,0,0,0-2.10478-2.15348Z"/><polygon class="cls-1" points="563.361 115.415 548.008 99.707 195.938 99.707 138.806 41.251 139.458 40.583 196.32 98.763 548.39 98.763 564.013 114.748 563.361 115.415"/><path class="cls-1" d="M137.50164,42.76137a2.52512,2.52512,0,0,1,0-3.51268,2.389,2.389,0,0,1,3.43311,0,2.52481,2.52481,0,0,1,0,3.51259A2.38911,2.38911,0,0,1,137.50164,42.76137Z"/><path class="cls-1" d="M561.87274,116.7383a2.38919,2.38919,0,0,0,3.43311,0,2.52513,2.52513,0,0,0,0-3.51268,2.389,2.389,0,0,0-3.43311,0A2.52508,2.52508,0,0,0,561.87274,116.7383Z"/><path class="cls-1" d="M561.64444,116.97179a2.864,2.864,0,0,1,0-3.97976,2.7097,2.7097,0,0,1,3.88959,0,2.864,2.864,0,0,1,.00009,3.97986,2.70972,2.70972,0,0,1-3.88968-.0001C560.57219,115.87467,562.7168,118.069,561.64444,116.97179Zm3.4331-3.51259a2.07311,2.07311,0,0,0-2.97652,0,2.19111,2.19111,0,0,0,0,3.04552,2.07311,2.07311,0,0,0,2.97652,0,2.19111,2.19111,0,0,0,0-3.04552C564.25672,112.61934,565.89837,114.29905,565.07754,113.4592Z"/><polygon class="cls-1" points="503.757 139.11 493.371 128.484 344.849 128.484 344.849 127.54 493.753 127.54 504.409 138.443 503.757 139.11"/><path class="cls-1" d="M344.97105,130.49555a2.4845,2.4845,0,1,1,2.42753-2.4838A2.45639,2.45639,0,0,1,344.97105,130.49555Z"/><path class="cls-1" d="M502.2693,140.43338a2.38914,2.38914,0,0,0,3.4332,0,2.525,2.525,0,0,0-.0001-3.51269,2.38907,2.38907,0,0,0-3.433,0A2.525,2.525,0,0,0,502.2693,140.43338Z"/><path class="cls-1" d="M502.0411,140.667a2.8641,2.8641,0,0,1,0-3.97986,2.7097,2.7097,0,0,1,3.88959,0,2.86386,2.86386,0,0,1,0,3.97986,2.7097,2.7097,0,0,1-3.88959,0C500.96885,139.56984,503.11338,141.76409,502.0411,140.667Zm3.4331-3.51269a2.07311,2.07311,0,0,0-2.97652,0,2.19119,2.19119,0,0,0-.00009,3.04552,2.07322,2.07322,0,0,0,2.97661,0,2.19128,2.19128,0,0,0,0-3.04552C504.65338,136.31442,506.29494,137.99413,505.4742,137.15428Z"/><polygon class="cls-1" points="555.015 128.986 537.261 110.821 338.418 110.821 338.418 109.877 537.643 109.877 555.667 128.319 555.015 128.986"/><path class="cls-1" d="M556.97166,126.80827a2.5251,2.5251,0,0,1,0,3.51268,2.38917,2.38917,0,0,1-3.4331,0,2.52492,2.52492,0,0,1,0-3.51268A2.389,2.389,0,0,1,556.97166,126.80827Z"/><path class="cls-1" d="M338.55617,107.86485a2.4845,2.4845,0,1,0,2.42753,2.4838A2.45638,2.45638,0,0,0,338.55617,107.86485Z"/><path class="cls-1" d="M338.55617,107.53453a2.8149,2.8149,0,1,1-2.75045,2.81412,2.78615,2.78615,0,0,1,2.75045-2.81412Zm0,4.96769a2.15409,2.15409,0,1,0-2.10469-2.15357,2.13163,2.13163,0,0,0,2.10469,2.15357Z"/><rect class="cls-1" x="514.2942" y="129.84926" width="24.00441" height="0.94376"/><path class="cls-1" d="M514.41577,132.80475a2.4845,2.4845,0,1,1,2.42752-2.4838A2.4564,2.4564,0,0,1,514.41577,132.80475Z"/><path class="cls-1" d="M538.16145,132.80475a2.4845,2.4845,0,1,0-2.42752-2.4838A2.4564,2.4564,0,0,0,538.16145,132.80475Z"/><path class="cls-1" d="M538.16145,133.13507a2.8149,2.8149,0,1,1,2.75045-2.81412,2.78615,2.78615,0,0,1-2.75045,2.81412Zm0-4.96769a2.15409,2.15409,0,1,0,2.10478,2.15357,2.13162,2.13162,0,0,0-2.10478-2.15357Z"/><polygon class="cls-1" points="94.759 257.373 94.107 256.706 175.017 173.92 252.045 173.92 287.046 138.107 287.698 138.774 252.427 174.864 175.399 174.864 94.759 257.373"/><path class="cls-1" d="M285.5699,136.77215a2.389,2.389,0,0,1,3.4331,0,2.52494,2.52494,0,0,1,0,3.51269,2.389,2.389,0,0,1-3.433-.0001A2.5249,2.5249,0,0,1,285.5699,136.77215Z"/><path class="cls-1" d="M92.81367,255.18384a2.52494,2.52494,0,0,0,0,3.51269,2.38919,2.38919,0,0,0,3.4331,0,2.525,2.525,0,0,0-.00009-3.51269A2.38909,2.38909,0,0,0,92.81367,255.18384Z"/><path class="cls-1" d="M92.58538,254.95026a2.70968,2.70968,0,0,1,3.88959,0,2.864,2.864,0,0,1,0,3.97985,2.70968,2.70968,0,0,1-3.88959,0,2.864,2.864,0,0,1,0-3.97985Zm3.4331,3.51269a2.19121,2.19121,0,0,0-.00009-3.04553,2.073,2.073,0,0,0-2.97643,0,2.19112,2.19112,0,0,0-.00009,3.04553,2.07324,2.07324,0,0,0,2.97661,0C96.83922,257.62309,95.19766,259.3028,96.01848,258.463Z"/><polygon class="cls-1" points="297.25 89.008 203.466 89.008 144.733 28.914 13.094 28.914 13.094 27.97 145.115 27.97 203.848 88.065 297.25 88.065 297.25 89.008"/><path class="cls-1" d="M297.129,86.05267a2.4845,2.4845,0,1,1-2.42752,2.48389A2.45649,2.45649,0,0,1,297.129,86.05267Z"/><path class="cls-1" d="M13.23128,25.9583a2.48451,2.48451,0,1,0,2.42752,2.48382A2.45643,2.45643,0,0,0,13.23128,25.9583Z"/><path class="cls-1" d="M13.23128,25.628a2.81491,2.81491,0,1,1-2.75045,2.81414A2.78617,2.78617,0,0,1,13.23128,25.628Zm0,4.96771a2.1541,2.1541,0,1,0-2.10478-2.15357,2.13162,2.13162,0,0,0,2.10478,2.15357Z"/><polygon class="cls-1" points="592.813 156.402 591.89 156.402 591.89 108.147 559.075 74.572 435.229 74.572 435.229 73.628 559.457 73.628 592.813 107.757 592.813 156.402"/><path class="cls-1" d="M435.34991,76.58361a2.4845,2.4845,0,1,1,2.42753-2.4838A2.45646,2.45646,0,0,1,435.34991,76.58361Z"/><path class="cls-1" d="M589.92363,156.26106a2.4282,2.4282,0,1,0,2.42752-2.4838A2.45646,2.45646,0,0,0,589.92363,156.26106Z"/><path class="cls-1" d="M589.60079,156.26106a2.75113,2.75113,0,1,1,2.75036,2.81421,2.78615,2.78615,0,0,1-2.75036-2.81421Zm4.85514,0a2.10529,2.10529,0,1,0-2.10478,2.15357,2.13161,2.13161,0,0,0,2.10478-2.15357Z"/><polygon class="cls-1" points="626.261 156.716 625.338 156.716 625.338 127.817 640.242 112.566 640.242 15.153 641.165 15.153 641.165 112.957 626.261 128.207 626.261 156.716"/><path class="cls-1" d="M628.22679,156.59138a2.42821,2.42821,0,1,1-2.42761-2.4838A2.45655,2.45655,0,0,1,628.22679,156.59138Z"/><path class="cls-1" d="M643.13145,15.29373a2.4282,2.4282,0,1,0-2.42752,2.4838A2.4564,2.4564,0,0,0,643.13145,15.29373Z"/><path class="cls-1" d="M643.45429,15.29373a2.75112,2.75112,0,1,1-2.75036-2.81417,2.78614,2.78614,0,0,1,2.75036,2.81417Zm-4.85505,0a2.10524,2.10524,0,1,0,2.10469-2.15354,2.13157,2.13157,0,0,0-2.10469,2.15354Z"/><polygon class="cls-1" points="414.46 69.956 317.923 69.956 317.923 69.012 414.078 69.012 423.269 59.608 583.853 59.608 598.489 44.634 598.489 2.673 599.411 2.673 599.411 45.024 584.235 60.552 423.651 60.552 414.46 69.956"/><path class="cls-1" d="M318.04389,71.968a2.4845,2.4845,0,1,1,2.42762-2.48389A2.45646,2.45646,0,0,1,318.04389,71.968Z"/><path class="cls-1" d="M601.37711,2.81421a2.4282,2.4282,0,1,0-4.85512,0,2.4282,2.4282,0,1,0,4.85512,0Z"/><path class="cls-1" d="M601.69994,2.81421a2.75112,2.75112,0,1,1-5.50079,0,2.75112,2.75112,0,1,1,5.50079,0Zm-4.85512,0a2.10528,2.10528,0,1,0,4.20946,0,2.10528,2.10528,0,1,0-4.20946,0Z"/><polygon class="cls-1" points="406.6 60.135 337.221 60.135 305.909 28.097 306.561 27.43 337.603 59.191 406.6 59.191 406.6 60.135"/><path class="cls-1" d="M304.604,29.60738a2.52494,2.52494,0,0,1,0-3.51269,2.38909,2.38909,0,0,1,3.4331,0,2.525,2.525,0,0,1-.00009,3.51267A2.38909,2.38909,0,0,1,304.604,29.60738Z"/><path class="cls-1" d="M406.46232,62.14685a2.48445,2.48445,0,1,0-2.42752-2.4838A2.45646,2.45646,0,0,0,406.46232,62.14685Z"/><path class="cls-1" d="M406.46232,62.47717a2.81485,2.81485,0,1,1,2.75045-2.81412,2.78614,2.78614,0,0,1-2.75045,2.81412Zm0-4.9676a2.154,2.154,0,1,0,2.10478,2.15348,2.13155,2.13155,0,0,0-2.10478-2.15348Z"/><polygon class="cls-1" points="436.999 209.611 168.185 209.611 168.185 208.667 436.617 208.667 449.938 195.037 450.59 195.704 436.999 209.611"/><ellipse class="cls-1" cx="450.17838" cy="195.45812" rx="2.42757" ry="2.48385"/><path class="cls-1" d="M168.32273,206.65493a2.48445,2.48445,0,1,0,2.42752,2.4838A2.45641,2.45641,0,0,0,168.32273,206.65493Z"/><path class="cls-1" d="M168.32273,206.32462a2.81485,2.81485,0,1,1-2.75045,2.81411,2.78607,2.78607,0,0,1,2.75045-2.81411Zm0,4.96759a2.15409,2.15409,0,1,0-2.10478-2.15348,2.1316,2.1316,0,0,0,2.10478,2.15348Z"/><polygon class="cls-1" points="399.717 231.993 387.584 219.579 388.236 218.911 400.369 231.325 399.717 231.993"/><ellipse class="cls-1" cx="387.99588" cy="219.3328" rx="2.42757" ry="2.48385"/><path class="cls-1" d="M398.22906,233.31589a2.38919,2.38919,0,0,0,3.4331,0,2.525,2.525,0,0,0-.00009-3.51269,2.389,2.389,0,0,0-3.433,0A2.52492,2.52492,0,0,0,398.22906,233.31589Z"/><path class="cls-1" d="M398.00077,233.54947a2.864,2.864,0,0,1,0-3.97985,2.70968,2.70968,0,0,1,3.88959,0,2.86387,2.86387,0,0,1,0,3.97985,2.7097,2.7097,0,0,1-3.88959,0Zm3.4331-3.51269a2.07311,2.07311,0,0,0-2.97652,0,2.19111,2.19111,0,0,0,0,3.04552,2.07311,2.07311,0,0,0,2.97652,0,2.19111,2.19111,0,0,0,0-3.04552Z"/><polygon class="cls-1" points="413.704 229.854 400.667 216.516 401.32 215.848 414.356 229.187 413.704 229.854"/><path class="cls-1" d="M399.36294,218.02616a2.525,2.525,0,0,1-.00009-3.51269,2.3893,2.3893,0,0,1,3.43319,0,2.525,2.525,0,0,1-.00009,3.51269A2.38893,2.38893,0,0,1,399.36294,218.02616Z"/><path class="cls-1" d="M412.216,231.17722a2.38911,2.38911,0,0,0,3.4331.0001,2.52511,2.52511,0,0,0,0-3.51269,2.389,2.389,0,0,0-3.4331,0A2.52481,2.52481,0,0,0,412.216,231.17722Z"/><path class="cls-1" d="M411.98775,231.4108a2.86392,2.86392,0,0,1,0-3.97975,2.70969,2.70969,0,0,1,3.8896,0,2.864,2.864,0,0,1,.00008,3.97985,2.70972,2.70972,0,0,1-3.88968-.0001C410.91548,230.31368,413.06,232.508,411.98775,231.4108Zm3.4331-3.51259a2.07311,2.07311,0,0,0-2.97652,0,2.19112,2.19112,0,0,0,0,3.04553,2.07313,2.07313,0,0,0,2.97652,0,2.1911,2.1911,0,0,0,0-3.04553C414.6,227.05835,416.24169,228.73807,415.42085,227.89821Z"/><polygon class="cls-1" points="428.997 229.565 417.182 217.475 417.834 216.808 429.65 228.897 428.997 229.565"/><path class="cls-1" d="M415.87743,218.98615a2.52494,2.52494,0,0,1,0-3.51269,2.3892,2.3892,0,0,1,3.43311,0,2.525,2.525,0,0,1-.00009,3.51269A2.389,2.389,0,0,1,415.87743,218.98615Z"/><path class="cls-1" d="M427.5093,230.88768a2.389,2.389,0,0,0,3.43311,0,2.52513,2.52513,0,0,0,0-3.51269,2.38913,2.38913,0,0,0-3.43311.00009A2.52482,2.52482,0,0,0,427.5093,230.88768Z"/><path class="cls-1" d="M427.281,231.12126a2.864,2.864,0,0,1,0-3.97976,2.70968,2.70968,0,0,1,3.88959,0,2.86385,2.86385,0,0,1,.00009,3.97976,2.70972,2.70972,0,0,1-3.88968,0C426.20875,230.02413,428.35328,232.21848,427.281,231.12126Zm3.43311-3.51269a2.07313,2.07313,0,0,0-2.97653.00009,2.191,2.191,0,0,0,0,3.04543,2.073,2.073,0,0,0,2.97653,0,2.19113,2.19113,0,0,0,0-3.04552Z"/><path class="cls-1" d="M233.904,219.3328a2.38919,2.38919,0,0,0,3.4331,0,2.52511,2.52511,0,0,0,0-3.51269,2.389,2.389,0,0,0-3.4331,0A2.52494,2.52494,0,0,0,233.904,219.3328Z"/><path class="cls-1" d="M233.67573,219.56629a2.86393,2.86393,0,0,1,0-3.97976,2.70968,2.70968,0,0,1,3.88959,0,2.864,2.864,0,0,1,.0001,3.97985,2.70974,2.70974,0,0,1-3.88969-.00009C232.60346,218.46925,234.748,220.6635,233.67573,219.56629Zm3.43311-3.5126a2.07312,2.07312,0,0,0-2.97653,0,2.19121,2.19121,0,0,0-.00009,3.04553,2.07325,2.07325,0,0,0,2.97662,0,2.19114,2.19114,0,0,0,0-3.04553C236.288,215.21383,237.92966,216.89355,237.10884,216.05369Z"/><polygon class="cls-1" points="421.764 200.389 174.398 200.389 174.398 199.445 421.382 199.445 428.088 192.584 428.74 193.251 421.764 200.389"/><path class="cls-1" d="M426.61118,191.24941a2.389,2.389,0,0,1,3.4331,0,2.52492,2.52492,0,0,1,0,3.51268,2.38917,2.38917,0,0,1-3.4331,0A2.525,2.525,0,0,1,426.61118,191.24941Z"/><path class="cls-1" d="M174.535,197.43285a2.4845,2.4845,0,1,0,2.42752,2.48389A2.45647,2.45647,0,0,0,174.535,197.43285Z"/><path class="cls-1" d="M174.535,197.10263a2.81485,2.81485,0,1,1-2.75045,2.81411,2.78607,2.78607,0,0,1,2.75045-2.81411Zm0,4.96759a2.15409,2.15409,0,1,0-2.10479-2.15348,2.13153,2.13153,0,0,0,2.10479,2.15348Z"/><polygon class="cls-1" points="413.92 190.653 397.31 173.657 286.041 173.657 286.041 172.714 397.692 172.714 414.573 189.986 413.92 190.653"/><path class="cls-1" d="M415.87735,188.47549a2.525,2.525,0,0,1,.00008,3.51269,2.389,2.389,0,0,1-3.4331,0,2.52481,2.52481,0,0,1,0-3.51259A2.389,2.389,0,0,1,415.87735,188.47549Z"/><path class="cls-1" d="M286.17839,170.70168a2.4845,2.4845,0,1,0,2.42762,2.4838A2.45638,2.45638,0,0,0,286.17839,170.70168Z"/><path class="cls-1" d="M286.17839,170.37137a2.8149,2.8149,0,1,1-2.75034,2.81411,2.78608,2.78608,0,0,1,2.75034-2.81411Zm0,4.96769a2.1541,2.1541,0,1,0-2.10468-2.15358,2.13171,2.13171,0,0,0,2.10468,2.15358Z"/><polygon class="cls-1" points="352.365 397.386 268.294 311.366 186.274 311.366 155.973 280.363 37.552 280.363 37.552 279.42 156.355 279.42 186.656 310.422 268.676 310.422 353.017 396.719 352.365 397.386"/><path class="cls-1" d="M354.32169,395.20829a2.52494,2.52494,0,0,1,0,3.51269,2.389,2.389,0,0,1-3.4331,0,2.525,2.525,0,0,1,0-3.5126A2.38911,2.38911,0,0,1,354.32169,395.20829Z"/><path class="cls-1" d="M37.68907,277.40787a2.4845,2.4845,0,1,0,2.42754,2.4839A2.45644,2.45644,0,0,0,37.68907,277.40787Z"/><path class="cls-1" d="M37.68907,277.07756a2.8149,2.8149,0,1,1-2.75041,2.81421,2.78615,2.78615,0,0,1,2.75041-2.81421Zm0,4.96769a2.1541,2.1541,0,1,0-2.10474-2.15348,2.13157,2.13157,0,0,0,2.10474,2.15348Z"/><polygon class="cls-1" points="361.34 396.361 360.417 396.361 360.417 309.912 313.633 262.043 132.251 262.043 132.251 261.099 314.015 261.099 361.34 309.521 361.34 396.361"/><ellipse class="cls-1" cx="360.87862" cy="396.23718" rx="2.42752" ry="2.4838"/><path class="cls-1" d="M132.389,259.087a2.4845,2.4845,0,1,0,2.42752,2.4839A2.45641,2.45641,0,0,0,132.389,259.087Z"/><path class="cls-1" d="M132.389,258.75665a2.8149,2.8149,0,1,1-2.75035,2.81421,2.78609,2.78609,0,0,1,2.75035-2.81421Zm0,4.96769a2.1541,2.1541,0,1,0-2.10469-2.15348,2.1316,2.1316,0,0,0,2.10469,2.15348Z"/><polygon class="cls-1" points="352.16 382.866 351.238 382.866 351.238 318.856 305.898 272.465 150.174 272.465 150.174 271.522 306.28 271.522 352.16 318.466 352.16 382.866"/><path class="cls-1" d="M354.12651,382.74259a2.4282,2.4282,0,1,1-2.42761-2.4838A2.45639,2.45639,0,0,1,354.12651,382.74259Z"/><path class="cls-1" d="M150.31121,269.50989a2.4845,2.4845,0,1,0,2.42752,2.4838A2.4564,2.4564,0,0,0,150.31121,269.50989Z"/><path class="cls-1" d="M150.31121,269.17957a2.81485,2.81485,0,1,1-2.75045,2.81412,2.78614,2.78614,0,0,1,2.75045-2.81412Zm0,4.96769a2.15409,2.15409,0,1,0-2.10478-2.15357,2.13162,2.13162,0,0,0,2.10478,2.15357Z"/><polygon class="cls-1" points="358.922 282.44 320.664 243.296 152.796 243.296 152.796 242.352 321.046 242.352 359.574 281.773 358.922 282.44"/><path class="cls-1" d="M360.87862,280.26248a2.52511,2.52511,0,0,1,0,3.51269,2.38911,2.38911,0,0,1-3.4331-.0001,2.525,2.525,0,0,1,0-3.51259A2.389,2.389,0,0,1,360.87862,280.26248Z"/><path class="cls-1" d="M152.934,240.34032a2.48445,2.48445,0,1,0,2.42752,2.4838A2.4564,2.4564,0,0,0,152.934,240.34032Z"/><path class="cls-1" d="M152.934,240.00991a2.8149,2.8149,0,1,1-2.75045,2.81421,2.78616,2.78616,0,0,1,2.75045-2.81421Zm0,4.96769a2.15409,2.15409,0,1,0-2.10478-2.15348,2.1316,2.1316,0,0,0,2.10478,2.15348Z"/><polygon class="cls-1" points="384.106 286.277 334.753 235.78 230.154 235.78 230.154 234.836 335.135 234.836 384.758 285.609 384.106 286.277"/><path class="cls-1" d="M230.27528,237.79188a2.4845,2.4845,0,1,1,2.42761-2.4839A2.45647,2.45647,0,0,1,230.27528,237.79188Z"/><ellipse class="cls-1" cx="384.33449" cy="285.84371" rx="2.42757" ry="2.48385"/><path class="cls-1" d="M382.38965,287.83363a2.864,2.864,0,0,1,0-3.97985,2.7098,2.7098,0,0,1,3.88968,0,2.864,2.864,0,0,1,0,3.97985,2.70979,2.70979,0,0,1-3.88968,0C381.31738,286.73641,383.462,288.93076,382.38965,287.83363Zm3.4331-3.51269a2.07313,2.07313,0,0,0-2.97652,0,2.19112,2.19112,0,0,0,0,3.04553,2.07311,2.07311,0,0,0,2.97652,0,2.19112,2.19112,0,0,0,0-3.04553Z"/><polygon class="cls-1" points="618.562 134.811 605.333 134.811 605.333 133.868 617.64 133.868 617.64 121.323 632.144 106.482 632.144 56.792 633.066 56.792 633.066 106.873 618.562 121.713 618.562 134.811"/><path class="cls-1" d="M605.45432,136.8232a2.4845,2.4845,0,1,1,2.4276-2.48389A2.45647,2.45647,0,0,1,605.45432,136.8232Z"/><path class="cls-1" d="M635.03249,56.93293a2.42821,2.42821,0,1,0-2.42762,2.4838A2.45649,2.45649,0,0,0,635.03249,56.93293Z"/><path class="cls-1" d="M635.35532,56.93293a2.75112,2.75112,0,1,1-2.75045-2.81421,2.78616,2.78616,0,0,1,2.75045,2.81421Zm-4.85514,0a2.10529,2.10529,0,1,0,2.10469-2.15357,2.1316,2.1316,0,0,0-2.10469,2.15357Z"/><polygon class="cls-1" points="609.438 122.383 608.516 122.383 608.516 110.153 621.437 96.932 621.437 37.416 622.36 37.416 622.36 97.323 609.438 110.544 609.438 122.383"/><path class="cls-1" d="M611.40468,122.25885a2.4282,2.4282,0,1,1-2.42752-2.4838A2.4564,2.4564,0,0,1,611.40468,122.25885Z"/><path class="cls-1" d="M624.32624,37.55623A2.42821,2.42821,0,1,0,621.8987,40.04,2.45639,2.45639,0,0,0,624.32624,37.55623Z"/><path class="cls-1" d="M624.64907,37.55623a2.75108,2.75108,0,1,1-2.75037-2.81411,2.78615,2.78615,0,0,1,2.75037,2.81411Zm-4.85506,0a2.10525,2.10525,0,1,0,2.10469-2.15348,2.13155,2.13155,0,0,0-2.10469,2.15348Z"/><rect class="cls-1" x="667.93004" y="148.20603" width="128.44794" height="0.94376"/><path class="cls-1" d="M668.05124,151.16162a2.4845,2.4845,0,1,1,2.42752-2.48389A2.45649,2.45649,0,0,1,668.05124,151.16162Z"/><path class="cls-1" d="M796.24071,151.16162a2.4845,2.4845,0,1,0-2.42753-2.48389A2.45649,2.45649,0,0,0,796.24071,151.16162Z"/><path class="cls-1" d="M796.24071,151.49194a2.8149,2.8149,0,1,1,2.75037-2.81421,2.78616,2.78616,0,0,1-2.75037,2.81421Zm0-4.96769a2.15409,2.15409,0,1,0,2.1047,2.15348,2.13154,2.13154,0,0,0-2.1047-2.15348Z"/><rect class="cls-1" x="667.58506" y="157.43954" width="128.44875" height="0.94376"/><path class="cls-1" d="M667.70682,160.39522a2.48445,2.48445,0,1,1,2.42743-2.4838A2.45641,2.45641,0,0,1,667.70682,160.39522Z"/><path class="cls-1" d="M795.89629,160.39522a2.48445,2.48445,0,1,0-2.42762-2.4838A2.45639,2.45639,0,0,0,795.89629,160.39522Z"/><path class="cls-1" d="M795.89629,160.72553a2.81485,2.81485,0,1,1,2.75035-2.81411,2.78615,2.78615,0,0,1-2.75035,2.81411Zm0-4.96759a2.15409,2.15409,0,1,0,2.10469,2.15348,2.13152,2.13152,0,0,0-2.10469-2.15348Z"/><rect class="cls-1" x="667.58506" y="136.30026" width="128.44875" height="0.94376"/><path class="cls-1" d="M667.70682,139.25594a2.4845,2.4845,0,1,1,2.42743-2.48379A2.4564,2.4564,0,0,1,667.70682,139.25594Z"/><path class="cls-1" d="M795.89629,139.25594a2.4845,2.4845,0,1,0-2.42762-2.48379A2.45638,2.45638,0,0,0,795.89629,139.25594Z"/><path class="cls-1" d="M795.89629,139.58626a2.8149,2.8149,0,1,1,2.75035-2.81411,2.78616,2.78616,0,0,1-2.75035,2.81411Zm0-4.96769a2.1541,2.1541,0,1,0,2.10469,2.15358,2.13161,2.13161,0,0,0-2.10469-2.15358Z"/><polygon class="cls-1" points="687.547 128.484 667.585 128.484 667.585 127.54 687.165 127.54 700.682 113.71 819.009 113.71 819.009 114.654 701.064 114.654 687.547 128.484"/><path class="cls-1" d="M667.70682,130.49555a2.4845,2.4845,0,1,1,2.42743-2.4838A2.45641,2.45641,0,0,1,667.70682,130.49555Z"/><path class="cls-1" d="M818.87151,116.666a2.4845,2.4845,0,1,0-2.42762-2.48389A2.45641,2.45641,0,0,0,818.87151,116.666Z"/><path class="cls-1" d="M818.87151,116.99624a2.81485,2.81485,0,1,1,2.75045-2.81412,2.786,2.786,0,0,1-2.75045,2.81412Zm0-4.9676a2.154,2.154,0,1,0,2.10469,2.15348,2.13154,2.13154,0,0,0-2.10469-2.15348Z"/><rect class="cls-1" x="702.85535" y="170.38911" width="57.47044" height="0.94376"/><path class="cls-1" d="M702.977,173.34488a2.4845,2.4845,0,1,1,2.42752-2.48389A2.45643,2.45643,0,0,1,702.977,173.34488Z"/><path class="cls-1" d="M760.188,173.34488a2.4845,2.4845,0,1,0-2.42752-2.48389A2.45648,2.45648,0,0,0,760.188,173.34488Z"/><path class="cls-1" d="M760.188,173.6752a2.8149,2.8149,0,1,1,2.75035-2.81421,2.78624,2.78624,0,0,1-2.75035,2.81421Zm0-4.96769a2.1541,2.1541,0,1,0,2.10469,2.15348,2.13154,2.13154,0,0,0-2.10469-2.15348Z"/><polygon class="cls-1" points="736.014 226.981 709.501 199.853 710.153 199.186 736.014 225.646 764.059 196.953 764.711 197.62 736.014 226.981"/><path class="cls-1" d="M708.197,201.36382a2.52494,2.52494,0,0,1,0-3.51269,2.389,2.389,0,0,1,3.4331,0,2.5249,2.5249,0,0,1-.00009,3.51259A2.389,2.389,0,0,1,708.197,201.36382Z"/><path class="cls-1" d="M766.00349,199.1421a2.52476,2.52476,0,0,0,0-3.51269,2.38909,2.38909,0,0,0-3.433,0,2.525,2.525,0,0,0,0,3.51269A2.38891,2.38891,0,0,0,766.00349,199.1421Z"/><path class="cls-1" d="M766.2318,199.37568a2.7097,2.7097,0,0,1-3.88961,0,2.86392,2.86392,0,0,1,0-3.97975,2.70963,2.70963,0,0,1,3.88961-.0001,2.86391,2.86391,0,0,1,0,3.97985C765.1596,200.47281,767.30414,198.27856,766.2318,199.37568Zm-3.433-3.51268a2.19111,2.19111,0,0,0,0,3.04552,2.07311,2.07311,0,0,0,2.97652,0,2.19107,2.19107,0,0,0,0-3.04552,2.07311,2.07311,0,0,0-2.97652,0Z"/><polygon class="cls-1" points="756.521 264.717 702.855 264.717 702.855 263.773 756.139 263.773 793.695 225.347 824.307 225.347 824.307 226.291 794.077 226.291 756.521 264.717"/><path class="cls-1" d="M702.977,266.729a2.4845,2.4845,0,1,1,2.42752-2.4838A2.45641,2.45641,0,0,1,702.977,266.729Z"/><path class="cls-1" d="M824.16948,228.30252a2.48445,2.48445,0,1,0-2.42752-2.4838A2.4564,2.4564,0,0,0,824.16948,228.30252Z"/><path class="cls-1" d="M824.16948,228.63293a2.8149,2.8149,0,1,1,2.75045-2.81421,2.78617,2.78617,0,0,1-2.75045,2.81421Zm0-4.96769a2.15409,2.15409,0,1,0,2.10478,2.15348,2.1316,2.1316,0,0,0-2.10478-2.15348Z"/><polygon class="cls-1" points="766.423 272.151 702.855 272.151 702.855 271.207 766.041 271.207 801.129 235.305 824.307 235.305 824.307 236.248 801.511 236.248 766.423 272.151"/><path class="cls-1" d="M702.977,274.16274a2.48445,2.48445,0,1,1,2.42752-2.4838A2.4564,2.4564,0,0,1,702.977,274.16274Z"/><path class="cls-1" d="M824.16948,238.26055a2.4845,2.4845,0,1,0-2.42752-2.4838A2.4564,2.4564,0,0,0,824.16948,238.26055Z"/><path class="cls-1" d="M824.16948,238.59087a2.8149,2.8149,0,1,1,2.75045-2.81412,2.78615,2.78615,0,0,1-2.75045,2.81412Zm0-4.96769a2.15409,2.15409,0,1,0,2.10478,2.15357,2.13168,2.13168,0,0,0-2.10478-2.15357Z"/><polygon class="cls-1" points="753.754 247.729 702.855 247.729 702.855 246.786 753.372 246.786 790.927 208.359 821.54 208.359 821.54 209.303 791.309 209.303 753.754 247.729"/><path class="cls-1" d="M702.977,249.74125a2.4845,2.4845,0,1,1,2.42752-2.4838A2.45641,2.45641,0,0,1,702.977,249.74125Z"/><path class="cls-1" d="M821.40234,211.31477a2.48445,2.48445,0,1,0-2.42753-2.4838A2.4564,2.4564,0,0,0,821.40234,211.31477Z"/><path class="cls-1" d="M821.40234,211.64518a2.8149,2.8149,0,1,1,2.75045-2.81421,2.78616,2.78616,0,0,1-2.75045,2.81421Zm0-4.96769a2.15409,2.15409,0,1,0,2.10478,2.15348,2.1316,2.1316,0,0,0-2.10478-2.15348Z"/><polygon class="cls-1" points="839.085 438.795 757.859 438.795 715.749 395.709 701.438 395.709 701.438 394.765 716.131 394.765 758.241 437.852 839.085 437.852 839.085 438.795"/><path class="cls-1" d="M701.55968,397.72106a2.4845,2.4845,0,1,1,2.42761-2.48389A2.45646,2.45646,0,0,1,701.55968,397.72106Z"/><path class="cls-1" d="M838.94722,440.80728a2.4845,2.4845,0,1,0-2.42752-2.48389A2.45649,2.45649,0,0,0,838.94722,440.80728Z"/><path class="cls-1" d="M838.94722,441.1376a2.81491,2.81491,0,1,1,2.75036-2.81421,2.78624,2.78624,0,0,1-2.75036,2.81421Zm0-4.96769a2.15409,2.15409,0,1,0,2.10469,2.15348,2.13156,2.13156,0,0,0-2.10469-2.15348Z"/><polygon class="cls-1" points="830.003 420.425 771.296 420.425 734.342 382.615 703.621 382.615 703.621 381.671 734.724 381.671 771.678 419.482 830.003 419.482 830.003 420.425"/><path class="cls-1" d="M703.74222,384.62681a2.4845,2.4845,0,1,1,2.42752-2.4838A2.45645,2.45645,0,0,1,703.74222,384.62681Z"/><path class="cls-1" d="M829.86555,422.43729a2.4845,2.4845,0,1,0-2.42761-2.48389A2.4564,2.4564,0,0,0,829.86555,422.43729Z"/><path class="cls-1" d="M829.86555,422.76761a2.8149,2.8149,0,1,1,2.75036-2.81421,2.7861,2.7861,0,0,1-2.75036,2.81421Zm0-4.96769a2.1541,2.1541,0,1,0,2.10469,2.15348,2.13155,2.13155,0,0,0-2.10469-2.15348Z"/><polygon class="cls-1" points="824.307 403.512 777.399 403.512 744.333 369.68 702.855 369.68 702.855 368.736 744.715 368.736 777.781 402.568 824.307 402.568 824.307 403.512"/><path class="cls-1" d="M702.977,371.6913a2.4845,2.4845,0,1,1,2.42752-2.48389A2.45643,2.45643,0,0,1,702.977,371.6913Z"/><path class="cls-1" d="M824.16948,405.52372a2.4845,2.4845,0,1,0-2.42752-2.48389A2.45642,2.45642,0,0,0,824.16948,405.52372Z"/><path class="cls-1" d="M824.16948,405.854a2.8149,2.8149,0,1,1,2.75045-2.81421,2.78617,2.78617,0,0,1-2.75045,2.81421Zm0-4.96769a2.15409,2.15409,0,1,0,2.10478,2.15348,2.1316,2.1316,0,0,0-2.10478-2.15348Z"/><polygon class="cls-1" points="797.275 592.607 796.353 592.607 796.353 476.999 774.053 454.182 774.705 453.515 797.275 476.609 797.275 592.607"/><path class="cls-1" d="M772.74794,455.69251a2.525,2.525,0,0,1-.00009-3.51269,2.38921,2.38921,0,0,1,3.43319.0001,2.5249,2.5249,0,0,1-.00009,3.51259A2.38891,2.38891,0,0,1,772.74794,455.69251Z"/><path class="cls-1" d="M794.38681,592.46579a2.42816,2.42816,0,1,0,2.42752-2.4838A2.45641,2.45641,0,0,0,794.38681,592.46579Z"/><path class="cls-1" d="M794.064,592.46579a2.75113,2.75113,0,1,1,2.75035,2.81421,2.78613,2.78613,0,0,1-2.75035-2.81421Zm4.85515,0a2.10529,2.10529,0,1,0-2.1048,2.15358,2.13163,2.13163,0,0,0,2.1048-2.15358Z"/><polygon class="cls-1" points="715.442 583.848 714.519 583.848 714.519 549.989 735.38 528.646 735.38 469.157 678.029 410.477 678.682 409.81 736.302 468.766 736.302 529.036 715.442 550.38 715.442 583.848"/><ellipse class="cls-1" cx="678.44158" cy="410.23136" rx="2.42755" ry="2.4838"/><path class="cls-1" d="M712.55326,583.70691a2.42821,2.42821,0,1,0,2.42762-2.4838A2.45647,2.45647,0,0,0,712.55326,583.70691Z"/><path class="cls-1" d="M712.23043,583.70691a2.75112,2.75112,0,1,1,2.75045,2.81411,2.78616,2.78616,0,0,1-2.75045-2.81411Zm4.85513,0a2.10529,2.10529,0,1,0-2.10468,2.15357,2.13168,2.13168,0,0,0,2.10468-2.15357Z"/><polygon class="cls-1" points="738.431 342.126 737.779 341.459 749.766 329.194 834.998 329.194 834.998 330.137 750.148 330.137 738.431 342.126"/><path class="cls-1" d="M739.90712,343.461a2.3892,2.3892,0,0,1-3.43311,0,2.52494,2.52494,0,0,1,0-3.51269,2.389,2.389,0,0,1,3.433,0A2.525,2.525,0,0,1,739.90712,343.461Z"/><path class="cls-1" d="M834.86043,332.1492a2.4845,2.4845,0,1,0-2.4275-2.48389A2.45648,2.45648,0,0,0,834.86043,332.1492Z"/><path class="cls-1" d="M834.86043,332.47951a2.8149,2.8149,0,1,1,2.75045-2.8142,2.78614,2.78614,0,0,1-2.75045,2.8142Zm0-4.96768a2.15409,2.15409,0,1,0,2.10478,2.15348,2.13159,2.13159,0,0,0-2.10478-2.15348Z"/><polygon class="cls-1" points="739.171 323.542 738.519 322.875 758.71 302.216 819.559 302.216 819.559 303.16 759.092 303.16 739.171 323.542"/><path class="cls-1" d="M740.64742,324.87646a2.389,2.389,0,0,1-3.433.00009,2.52494,2.52494,0,0,1,0-3.51269,2.38893,2.38893,0,0,1,3.433,0A2.52482,2.52482,0,0,1,740.64742,324.87646Z"/><path class="cls-1" d="M819.42162,305.17152a2.4845,2.4845,0,1,0-2.42751-2.48389A2.45655,2.45655,0,0,0,819.42162,305.17152Z"/><path class="cls-1" d="M819.42162,305.50184a2.81491,2.81491,0,1,1,2.75035-2.81421,2.78624,2.78624,0,0,1-2.75035,2.81421Zm0-4.96769a2.15409,2.15409,0,1,0,2.10469,2.15348,2.13152,2.13152,0,0,0-2.10469-2.15348Z"/><polygon class="cls-1" points="267.199 561.477 266.277 561.477 266.277 532.631 277.534 521.113 528.015 521.113 563.791 484.507 563.791 461.206 564.713 461.206 564.713 484.898 528.396 522.057 277.916 522.057 267.199 533.022 267.199 561.477"/><path class="cls-1" d="M561.82467,461.33a2.42821,2.42821,0,1,1,2.42753,2.4838A2.45641,2.45641,0,0,1,561.82467,461.33Z"/><path class="cls-1" d="M264.31059,561.33687a2.4282,2.4282,0,1,0,2.42752-2.4838A2.4564,2.4564,0,0,0,264.31059,561.33687Z"/><path class="cls-1" d="M263.98775,561.33687a2.75108,2.75108,0,1,1,2.75036,2.81421,2.78613,2.78613,0,0,1-2.75036-2.81421Zm4.85505,0a2.10524,2.10524,0,1,0-2.10469,2.15358,2.13161,2.13161,0,0,0,2.10469-2.15358Z"/><polygon class="cls-1" points="485.81 513.698 307.583 513.698 307.583 512.754 485.428 512.754 540.499 456.406 541.151 457.074 485.81 513.698"/><ellipse class="cls-1" cx="540.73964" cy="456.82739" rx="2.42752" ry="2.48383"/><path class="cls-1" d="M307.7206,510.74188a2.4845,2.4845,0,1,0,2.42753,2.4838A2.45638,2.45638,0,0,0,307.7206,510.74188Z"/><path class="cls-1" d="M307.7206,510.41156a2.81485,2.81485,0,1,1-2.75035,2.81412,2.78614,2.78614,0,0,1,2.75035-2.81412Zm0,4.9676a2.154,2.154,0,1,0-2.10468-2.15348,2.13155,2.13155,0,0,0,2.10468,2.15348Z"/><polygon class="cls-1" points="512.331 510.154 511.678 509.487 550.036 470.241 550.688 470.908 512.331 510.154"/><path class="cls-1" d="M548.5589,468.90587a2.38891,2.38891,0,0,1,3.433,0,2.52494,2.52494,0,0,1,0,3.51269,2.38909,2.38909,0,0,1-3.433,0A2.525,2.525,0,0,1,548.5589,468.90587Z"/><ellipse class="cls-1" cx="512.10151" cy="509.72106" rx="2.42755" ry="2.4838"/><path class="cls-1" d="M510.15668,507.73118a2.70979,2.70979,0,0,1,3.88968,0,2.864,2.864,0,0,1,0,3.97976,2.70972,2.70972,0,0,1-3.88968,0,2.86391,2.86391,0,0,1,0-3.97976C511.22894,506.63405,509.0844,508.8283,510.15668,507.73118Zm3.43311,3.51269a2.19116,2.19116,0,0,0,0-3.04553,2.07314,2.07314,0,0,0-2.97653,0,2.1911,2.1911,0,0,0,0,3.04553,2.0733,2.0733,0,0,0,2.97653,0C514.4106,510.404,512.769,512.08363,513.58979,511.24387Z"/><polygon class="cls-1" points="472.856 501.76 313.94 501.76 313.94 500.816 472.474 500.816 502.356 470.241 503.008 470.908 472.856 501.76"/><path class="cls-1" d="M500.88,468.90587a2.389,2.389,0,0,1,3.4331,0,2.52494,2.52494,0,0,1,0,3.51269,2.38919,2.38919,0,0,1-3.4331,0A2.52511,2.52511,0,0,1,500.88,468.90587Z"/><path class="cls-1" d="M314.07784,498.80336a2.4845,2.4845,0,1,0,2.42752,2.4838A2.45641,2.45641,0,0,0,314.07784,498.80336Z"/><path class="cls-1" d="M314.07784,498.473a2.8149,2.8149,0,1,1-2.75045,2.81412,2.78613,2.78613,0,0,1,2.75045-2.81412Zm0,4.96769a2.15409,2.15409,0,1,0-2.10478-2.15357,2.13162,2.13162,0,0,0,2.10478,2.15357Z"/><polygon class="cls-1" points="454.494 395.709 377.787 395.709 377.787 364.959 378.71 364.959 378.71 394.765 454.494 394.765 454.494 395.709"/><path class="cls-1" d="M454.37273,392.75337a2.4845,2.4845,0,1,1-2.42762,2.4838A2.45639,2.45639,0,0,1,454.37273,392.75337Z"/><path class="cls-1" d="M380.67587,365.1a2.42821,2.42821,0,1,0-2.42752,2.4838A2.45647,2.45647,0,0,0,380.67587,365.1Z"/><path class="cls-1" d="M380.9987,365.1a2.75112,2.75112,0,1,1-2.75035-2.81412A2.78613,2.78613,0,0,1,380.9987,365.1Zm-4.85514,0a2.10529,2.10529,0,1,0,2.10479-2.15358A2.13164,2.13164,0,0,0,376.14356,365.1Z"/><polygon class="cls-1" points="271.049 488.591 270.397 487.924 315.426 441.852 487.684 441.852 487.684 442.795 315.807 442.795 271.049 488.591"/><path class="cls-1" d="M487.56221,439.83973a2.4845,2.4845,0,1,1-2.42752,2.48389A2.45648,2.45648,0,0,1,487.56221,439.83973Z"/><path class="cls-1" d="M269.10355,486.40193a2.52513,2.52513,0,0,0,0,3.51269,2.389,2.389,0,0,0,3.43311,0,2.52482,2.52482,0,0,0,0-3.5126A2.38913,2.38913,0,0,0,269.10355,486.40193Z"/><path class="cls-1" d="M268.87536,486.16835a2.70976,2.70976,0,0,1,3.88959.00009,2.864,2.864,0,0,1,0,3.97976,2.70972,2.70972,0,0,1-3.88968,0,2.864,2.864,0,0,1,.00009-3.97985C269.94753,485.07131,267.803,487.26557,268.87536,486.16835Zm3.433,3.51268a2.19113,2.19113,0,0,0,0-3.04552,2.07312,2.07312,0,0,0-2.97653,0,2.19125,2.19125,0,0,0,0,3.04562,2.07321,2.07321,0,0,0,2.97653-.0001C273.12919,488.84127,271.48754,490.52089,272.30837,489.681Z"/><polygon class="cls-1" points="277.579 459.167 276.927 458.499 304.413 430.376 464.363 430.376 464.363 431.32 304.795 431.32 277.579 459.167"/><path class="cls-1" d="M464.24193,428.36422a2.4845,2.4845,0,1,1-2.42752,2.4838A2.45647,2.45647,0,0,1,464.24193,428.36422Z"/><path class="cls-1" d="M275.63393,456.97707a2.52479,2.52479,0,0,0,0,3.51259,2.389,2.389,0,0,0,3.4331,0,2.52491,2.52491,0,0,0-.0001-3.51259A2.3889,2.3889,0,0,0,275.63393,456.97707Z"/><path class="cls-1" d="M275.40563,456.74349a2.70968,2.70968,0,0,1,3.88959,0,2.86382,2.86382,0,0,1,0,3.97975,2.7096,2.7096,0,0,1-3.88959,0,2.86384,2.86384,0,0,1,0-3.97975C276.4779,455.64636,274.33327,457.84061,275.40563,456.74349Zm3.4331,3.51259a2.19117,2.19117,0,0,0,0-3.04543,2.07319,2.07319,0,0,0-2.97652-.00009,2.19111,2.19111,0,0,0-.00009,3.04552,2.07314,2.07314,0,0,0,2.97661,0C279.65947,459.41623,278.01791,461.096,278.83873,460.25608Z"/><polygon class="cls-1" points="276.297 433.621 275.645 432.954 288.812 419.482 445.674 419.482 445.674 420.425 289.194 420.425 276.297 433.621"/><path class="cls-1" d="M445.55292,417.4696a2.4845,2.4845,0,1,1-2.42751,2.4838A2.45639,2.45639,0,0,1,445.55292,417.4696Z"/><path class="cls-1" d="M274.3519,431.43155a2.525,2.525,0,0,0-.00008,3.51269,2.38911,2.38911,0,0,0,3.43318,0,2.525,2.525,0,0,0-.00008-3.51269A2.3891,2.3891,0,0,0,274.3519,431.43155Z"/><path class="cls-1" d="M274.12361,431.198a2.7096,2.7096,0,0,1,3.88959.00009,2.86391,2.86391,0,0,1,0,3.97976,2.70968,2.70968,0,0,1-3.88959,0,2.864,2.864,0,0,1,0-3.97985Zm3.43311,3.51269a2.19121,2.19121,0,0,0-.0001-3.04553,2.073,2.073,0,0,0-2.97643,0,2.191,2.191,0,0,0-.00009,3.04553,2.07325,2.07325,0,0,0,2.97662,0C278.37745,433.8708,276.7358,435.55051,277.55672,434.71066Z"/><polygon class="cls-1" points="208.319 457.331 21.876 457.331 21.876 456.387 207.937 456.387 260.536 402.568 320.071 402.568 320.071 403.512 260.918 403.512 208.319 457.331"/><path class="cls-1" d="M319.95,400.556a2.4845,2.4845,0,1,1-2.42752,2.4838A2.45641,2.45641,0,0,1,319.95,400.556Z"/><path class="cls-1" d="M22.01318,454.37464a2.4845,2.4845,0,1,0,2.42752,2.48389A2.45649,2.45649,0,0,0,22.01318,454.37464Z"/><path class="cls-1" d="M22.01318,454.04442a2.81485,2.81485,0,1,1-2.75045,2.81411,2.78613,2.78613,0,0,1,2.75045-2.81411Zm0,4.96759a2.15409,2.15409,0,1,0-2.10478-2.15348,2.13155,2.13155,0,0,0,2.10478,2.15348Z"/><polygon class="cls-1" points="340.587 357.235 283.308 298.629 193.407 298.629 193.407 297.685 283.689 297.685 341.239 356.568 340.587 357.235"/><path class="cls-1" d="M342.54345,355.05793a2.525,2.525,0,0,1,0,3.51269,2.389,2.389,0,0,1-3.43311,0,2.525,2.525,0,0,1,0-3.51259A2.38912,2.38912,0,0,1,342.54345,355.05793Z"/><ellipse class="cls-1" cx="193.54459" cy="298.15709" rx="2.42752" ry="2.48389"/><path class="cls-1" d="M193.54459,295.343a2.81485,2.81485,0,1,1-2.75045,2.81412,2.78614,2.78614,0,0,1,2.75045-2.81412Zm0,4.9676a2.154,2.154,0,1,0-2.10478-2.15348,2.13154,2.13154,0,0,0,2.10478,2.15348Z"/><polygon class="cls-1" points="337.193 328.948 293.504 284.247 193.1 284.247 193.1 283.303 293.886 283.303 337.845 328.281 337.193 328.948"/><path class="cls-1" d="M193.22176,286.259a2.4845,2.4845,0,1,1,2.42752-2.48379A2.45646,2.45646,0,0,1,193.22176,286.259Z"/><path class="cls-1" d="M335.70472,330.27111a2.389,2.389,0,0,0,3.4331,0,2.52494,2.52494,0,0,0,0-3.51269,2.38909,2.38909,0,0,0-3.433,0A2.525,2.525,0,0,0,335.70472,330.27111Z"/><path class="cls-1" d="M335.47643,330.50469a2.86385,2.86385,0,0,1,.00009-3.97976,2.70952,2.70952,0,0,1,3.88959,0,2.86393,2.86393,0,0,1,0,3.97976,2.7098,2.7098,0,0,1-3.88968,0C334.40416,329.40756,336.54879,331.60181,335.47643,330.50469Zm3.4331-3.51269a2.07328,2.07328,0,0,0-2.97652,0,2.19112,2.19112,0,0,0,0,3.04553,2.07313,2.07313,0,0,0,2.97652,0,2.19112,2.19112,0,0,0,0-3.04553C338.08871,326.15224,339.73036,327.83186,338.90953,326.992Z"/><ellipse class="cls-1" cx="270.52264" cy="199.91674" rx="2.42757" ry="2.48385"/><path class="cls-1" d="M268.5778,201.90658a2.86393,2.86393,0,0,1,.00009-3.97976,2.70968,2.70968,0,0,1,3.88959,0,2.864,2.864,0,0,1,0,3.97985,2.70971,2.70971,0,0,1-3.88968-.00009Zm3.4331-3.5126a2.07313,2.07313,0,0,0-2.97652,0,2.19112,2.19112,0,0,0,0,3.04553,2.07313,2.07313,0,0,0,2.97652,0,2.19112,2.19112,0,0,0,0-3.04553C271.19016,197.55413,272.83173,199.23384,272.0109,198.394Z"/><path class="cls-1" d="M253.81454,210.89508a2.38919,2.38919,0,0,0,3.4331,0,2.52511,2.52511,0,0,0,0-3.51269,2.389,2.389,0,0,0-3.4331,0A2.52492,2.52492,0,0,0,253.81454,210.89508Z"/><path class="cls-1" d="M253.58625,211.12856a2.86392,2.86392,0,0,1,0-3.97975,2.70967,2.70967,0,0,1,3.88958,0,2.864,2.864,0,0,1,.0001,3.97985,2.70972,2.70972,0,0,1-3.88968-.0001C252.514,210.03153,254.65851,212.22578,253.58625,211.12856Zm3.4331-3.51259a2.07311,2.07311,0,0,0-2.97652,0,2.19112,2.19112,0,0,0,0,3.04553,2.07313,2.07313,0,0,0,2.97652,0,2.19112,2.19112,0,0,0,0-3.04553Z"/><ellipse class="cls-1" cx="253.10356" cy="271.99369" rx="2.42757" ry="2.48385"/><path class="cls-1" d="M251.15882,273.98362a2.864,2.864,0,0,1,0-3.97986,2.70968,2.70968,0,0,1,3.88958,0,2.864,2.864,0,0,1,0,3.97986,2.70968,2.70968,0,0,1-3.88958,0C250.08646,272.88649,252.23108,275.08074,251.15882,273.98362Zm3.433-3.51269a2.07312,2.07312,0,0,0-2.97653,0,2.1913,2.1913,0,0,0,0,3.04552,2.07323,2.07323,0,0,0,2.97662,0,2.19112,2.19112,0,0,0-.00009-3.04552C253.77109,269.63107,255.41275,271.31078,254.59183,270.47093Z"/><path class="cls-1" d="M258.991,312.93643a2.389,2.389,0,0,0,3.4331,0,2.52511,2.52511,0,0,0,0-3.51269,2.38911,2.38911,0,0,0-3.4331.0001A2.52481,2.52481,0,0,0,258.991,312.93643Z"/><path class="cls-1" d="M258.76274,313.17a2.86393,2.86393,0,0,1,0-3.97976,2.7097,2.7097,0,0,1,3.88959,0,2.86385,2.86385,0,0,1,.00009,3.97976,2.70963,2.70963,0,0,1-3.88968,0C257.69047,312.07289,259.835,314.26723,258.76274,313.17Zm3.4331-3.51269a2.0732,2.0732,0,0,0-2.97652.0001,2.19108,2.19108,0,0,0-.00009,3.04543,2.07315,2.07315,0,0,0,2.97661,0,2.1911,2.1911,0,0,0,0-3.04553C261.375,308.81756,263.01668,310.49727,262.19584,309.65732Z"/></svg>