<?xml version="1.0" encoding="UTF-8" standalone="no"?><!DOCTYPE svg PUBLIC "-//W3C//DTD SVG 1.1//EN" "http://www.w3.org/Graphics/SVG/1.1/DTD/svg11.dtd"><svg width="100%" height="100%" viewBox="0 0 360 360" version="1.1" xmlns="http://www.w3.org/2000/svg" xmlns:xlink="http://www.w3.org/1999/xlink" xml:space="preserve" style="fill-rule:evenodd;clip-rule:evenodd;stroke-linejoin:round;stroke-miterlimit:1.41421;"><rect id="T.-.-Lund.-.-DescriptionEcoli" x="0" y="0" width="360" height="360" style="fill:none;"/><clipPath id="_clip1"><rect x="0" y="0" width="360" height="360"/></clipPath><g clip-path="url(#_clip1)"><rect x="0" y="0" width="360" height="360" style="fill:url(#_Radial2);"/><g><path d="M198.862,135.65l-64.044,62.514l25.82,26.452l64.044,-62.514l-25.82,-26.452Z" style="fill:#80b541;"/><circle cx="211.896" cy="148.665" r="18.549" style="fill:#80b541;"/><circle cx="148.247" cy="211.143" r="18.549" style="fill:#80b541;"/><path d="M138.561,195.257c0.862,0.864 0.86,2.264 -0.004,3.125c-0.865,0.862 -2.264,0.86 -3.126,-0.005l-10.546,-10.576c-0.862,-0.864 -0.86,-2.263 0.005,-3.125c0.864,-0.862 2.263,-0.86 3.125,0.004l10.546,10.577Z" style="fill:#80b541;fill-rule:nonzero;"/><path d="M147.153,186.634c0.861,0.865 0.859,2.264 -0.005,3.125c-0.864,0.862 -2.263,0.86 -3.125,-0.004l-10.546,-10.577c-0.862,-0.864 -0.86,-2.263 0.004,-3.125c0.864,-0.862 2.264,-0.86 3.125,0.004l10.547,10.577Z" style="fill:#80b541;fill-rule:nonzero;"/><path d="M155.76,178.182c0.862,0.864 0.86,2.263 -0.004,3.125c-0.864,0.861 -2.263,0.859 -3.125,-0.005l-10.546,-10.576c-0.862,-0.865 -0.86,-2.264 0.004,-3.126c0.865,-0.861 2.264,-0.859 3.125,0.005l10.546,10.577Z" style="fill:#80b541;fill-rule:nonzero;"/><path d="M164.368,169.784c0.862,0.864 0.86,2.263 -0.004,3.125c-0.864,0.861 -2.263,0.859 -3.125,-0.005l-10.547,-10.577c-0.861,-0.864 -0.859,-2.263 0.005,-3.125c0.864,-0.861 2.263,-0.859 3.125,0.005l10.546,10.577Z" style="fill:#80b541;fill-rule:nonzero;"/><path d="M173.165,161.25c0.861,0.864 0.859,2.264 -0.005,3.126c-0.864,0.861 -2.263,0.859 -3.125,-0.005l-10.546,-10.577c-0.862,-0.864 -0.86,-2.264 0.004,-3.125c0.864,-0.862 2.264,-0.86 3.125,0.005l10.547,10.576Z" style="fill:#80b541;fill-rule:nonzero;"/><path d="M181.605,152.99c0.862,0.864 0.86,2.264 -0.004,3.125c-0.864,0.861 -2.264,0.86 -3.125,-0.005l-10.546,-10.576c-0.862,-0.864 -0.86,-2.264 0.004,-3.126c0.864,-0.861 2.264,-0.859 3.125,0.005l10.546,10.577Z" style="fill:#80b541;fill-rule:nonzero;"/><path d="M190.34,144.362c0.861,0.864 0.859,2.263 -0.005,3.125c-0.864,0.861 -2.263,0.86 -3.125,-0.005l-10.547,-10.576c-0.861,-0.865 -0.859,-2.263 0.005,-3.125c0.864,-0.862 2.264,-0.86 3.125,0.004l10.547,10.577Z" style="fill:#80b541;fill-rule:nonzero;"/><path d="M199.222,135.868c0.862,0.864 0.859,2.264 -0.005,3.126c-0.864,0.861 -2.263,0.859 -3.125,-0.005l-10.546,-10.577c-0.861,-0.864 -0.859,-2.264 0.005,-3.125c0.864,-0.862 2.264,-0.86 3.125,0.004l10.546,10.577Z" style="fill:#80b541;fill-rule:nonzero;"/><path d="M174.466,231.026c0.862,0.865 0.86,2.264 -0.004,3.126c-0.865,0.861 -2.264,0.859 -3.125,-0.005l-10.547,-10.577c-0.862,-0.864 -0.86,-2.263 0.004,-3.125c0.865,-0.862 2.264,-0.859 3.126,0.005l10.546,10.576Z" style="fill:#80b541;fill-rule:nonzero;"/><path d="M183.058,222.403c0.861,0.865 0.859,2.264 -0.005,3.126c-0.864,0.861 -2.263,0.859 -3.126,-0.005l-10.546,-10.577c-0.861,-0.864 -0.859,-2.263 0.005,-3.125c0.864,-0.861 2.263,-0.859 3.125,0.005l10.547,10.576Z" style="fill:#80b541;fill-rule:nonzero;"/><path d="M191.666,213.951c0.861,0.865 0.859,2.264 -0.005,3.126c-0.864,0.861 -2.263,0.859 -3.126,-0.005l-10.546,-10.577c-0.861,-0.864 -0.859,-2.263 0.005,-3.125c0.864,-0.862 2.263,-0.859 3.125,0.005l10.547,10.576Z" style="fill:#80b541;fill-rule:nonzero;"/><path d="M200.274,205.553c0.861,0.864 0.859,2.264 -0.005,3.126c-0.864,0.861 -2.263,0.859 -3.125,-0.005l-10.546,-10.577c-0.862,-0.864 -0.86,-2.263 0.004,-3.125c0.864,-0.861 2.264,-0.859 3.125,0.005l10.547,10.576Z" style="fill:#80b541;fill-rule:nonzero;"/><path d="M209.07,197.02c0.861,0.864 0.859,2.264 -0.004,3.125c-0.865,0.862 -2.264,0.86 -3.126,-0.005l-10.546,-10.576c-0.861,-0.864 -0.86,-2.264 0.004,-3.125c0.864,-0.862 2.264,-0.86 3.126,0.004l10.546,10.577Z" style="fill:#80b541;fill-rule:nonzero;"/><path d="M217.511,188.759c0.861,0.865 0.859,2.264 -0.005,3.126c-0.864,0.861 -2.263,0.859 -3.125,-0.005l-10.546,-10.577c-0.862,-0.864 -0.86,-2.263 0.004,-3.125c0.864,-0.862 2.264,-0.86 3.125,0.004l10.547,10.577Z" style="fill:#80b541;fill-rule:nonzero;"/><path d="M226.244,180.131c0.862,0.865 0.86,2.264 -0.004,3.126c-0.864,0.861 -2.263,0.859 -3.126,-0.005l-10.546,-10.577c-0.861,-0.864 -0.859,-2.263 0.005,-3.125c0.864,-0.862 2.263,-0.86 3.125,0.005l10.546,10.576Z" style="fill:#80b541;fill-rule:nonzero;"/><path d="M235.128,171.638c0.861,0.864 0.859,2.263 -0.005,3.125c-0.864,0.861 -2.263,0.859 -3.126,-0.005l-10.546,-10.577c-0.861,-0.864 -0.859,-2.263 0.004,-3.125c0.865,-0.862 2.264,-0.859 3.126,0.005l10.547,10.577Z" style="fill:#80b541;fill-rule:nonzero;"/><path d="M129.691,209.255c1.218,0.053 2.165,1.083 2.113,2.302c-0.053,1.22 -1.084,2.165 -2.303,2.113l-14.922,-0.639c-1.22,-0.052 -2.166,-1.084 -2.114,-2.302c0.052,-1.22 1.083,-2.166 2.303,-2.114l14.923,0.64Z" style="fill:#80b541;fill-rule:nonzero;"/><path d="M133.853,223.04c0.835,-0.891 2.233,-0.936 3.124,-0.101c0.889,0.835 0.934,2.233 0.1,3.124l-10.217,10.895c-0.835,0.89 -2.233,0.935 -3.124,0.1c-0.89,-0.834 -0.935,-2.233 -0.1,-3.123l10.217,-10.895Z" style="fill:#80b541;fill-rule:nonzero;"/><path d="M146.314,229.997c-0.018,-1.22 0.956,-2.224 2.176,-2.243c1.22,-0.018 2.224,0.956 2.243,2.176l0.227,14.935c0.019,1.22 -0.955,2.224 -2.176,2.244c-1.22,0.018 -2.224,-0.956 -2.243,-2.177l-0.227,-14.935Z" style="fill:#80b541;fill-rule:nonzero;"/><path d="M209.683,130.119c0.053,1.219 1.083,2.165 2.303,2.113c1.219,-0.053 2.165,-1.084 2.113,-2.303l-0.64,-14.922c-0.052,-1.22 -1.083,-2.166 -2.302,-2.114c-1.219,0.053 -2.166,1.084 -2.113,2.303l0.639,14.923Z" style="fill:#80b541;fill-rule:nonzero;"/><path d="M223.468,134.281c-0.89,0.835 -0.935,2.233 -0.1,3.124c0.835,0.889 2.233,0.934 3.123,0.1l10.895,-10.217c0.891,-0.835 0.936,-2.233 0.101,-3.124c-0.835,-0.89 -2.233,-0.935 -3.124,-0.1l-10.895,10.217Z" style="fill:#80b541;fill-rule:nonzero;"/><path d="M230.425,146.742c-1.22,-0.018 -2.224,0.956 -2.243,2.176c-0.018,1.22 0.957,2.225 2.177,2.243l14.935,0.228c1.219,0.018 2.224,-0.956 2.243,-2.176c0.018,-1.221 -0.956,-2.225 -2.176,-2.244l-14.936,-0.227Z" style="fill:#80b541;fill-rule:nonzero;"/></g></g><defs><radialGradient id="_Radial2" cx="0" cy="0" r="1" gradientUnits="userSpaceOnUse" gradientTransform="matrix(57.3009,168.537,-244,180,180,180)"><stop offset="0" style="stop-color:#96cc77;stop-opacity:0.756863"/><stop offset="0.38" style="stop-color:#b3da9d;stop-opacity:0.54902"/><stop offset="0.81" style="stop-color:#fff;stop-opacity:0"/><stop offset="1" style="stop-color:#fff;stop-opacity:0"/></radialGradient></defs></svg>