<?xml version="1.0" encoding="UTF-8" standalone="no"?><!DOCTYPE svg PUBLIC "-//W3C//DTD SVG 1.1//EN" "http://www.w3.org/Graphics/SVG/1.1/DTD/svg11.dtd"><svg width="100%" height="100%" viewBox="0 0 360 432" version="1.1" xmlns="http://www.w3.org/2000/svg" xmlns:xlink="http://www.w3.org/1999/xlink" xml:space="preserve" style="fill-rule:evenodd;clip-rule:evenodd;stroke-linejoin:round;stroke-miterlimit:1.41421;"><rect id="T.-.-Lund.-.-DescriptionSources" x="0" y="0" width="360" height="432" style="fill:none;"/><path d="M52.446,151.146l-10.149,71.645l-20.002,0c0.035,-0.278 8.135,-157.911 22.437,-172.922c-0.034,0.093 -0.898,5.714 0,8.554c1.304,4.332 10.023,21.023 10.14,21.239l-2.426,71.484Z" style="fill:#3151b7;"/><path d="M158.53,53.367l-0.379,-3.052c12.075,17.253 21.814,172.198 21.849,172.476l-20.001,0l-10.969,-71.186l-1.818,-72.108c0.728,-1.252 1.79,-3.419 2.908,-5.611c3.357,-6.354 8.084,-15.166 8.41,-20.519Z" style="fill:#3151b7;"/><path d="M43.774,51.383c0.017,-0.075 0.041,-0.144 0.062,-0.216c-0.027,0.073 -0.049,0.144 -0.061,0.211c-0.001,0.002 -0.001,0.003 -0.001,0.005Z" style="fill:#3b96d2;fill-rule:nonzero;"/><path d="M102.249,37.869c-0.486,0 -0.971,-0.016 -1.452,-0.041c0.461,0.018 0.941,0.033 1.452,0.041Z" style="fill:#63a8dc;fill-rule:nonzero;"/><g><path d="M74.633,285.778c0,0 9.716,-16.799 11.259,-23.198c1.544,-6.4 5.721,-23.72 5.721,-23.72c0,0 0.484,20.194 -6.166,34.685c-6.65,14.492 -10.814,12.233 -10.814,12.233l0,0Z" style="fill:#aa231f;fill-rule:nonzero;"/><path d="M58.871,230.064c0,0 -8.26,-9.41 -8.97,-13.06c-0.711,-3.65 2.988,-24.839 2.988,-24.839l5.982,37.899Z" style="fill:#aa231f;fill-rule:nonzero;"/><path d="M99.951,208.733c-0.568,2.432 -8.233,9.792 -7.778,7.612c0.454,-2.179 5.315,-25.618 6.336,-28.603c1.02,-2.986 2.008,18.559 1.442,20.991Z" style="fill:#aa231f;fill-rule:nonzero;"/><path d="M70.186,204.442c-0.714,1.325 -4.936,0.525 -4.936,0.525l3.126,-17.534c0,0 2.523,15.685 1.81,17.009Z" style="fill:#aa231f;fill-rule:nonzero;"/><path d="M82.203,231.345c0.255,5.647 -7.61,17.538 -7.61,17.538c0,0 2.177,-34.524 3.416,-33.932c1.239,0.592 3.94,10.748 4.194,16.394l0,0Z" style="fill:#aa231f;fill-rule:nonzero;"/><path d="M133.04,241.041c1.069,3.83 -10.315,8.572 -11.262,0c-0.947,-8.573 0,-41.098 0,-41.098c0,0 10.193,37.269 11.262,41.098Z" style="fill:#aa231f;fill-rule:nonzero;"/><path d="M147.6,231.791c0,0 -5.084,1.805 -6.369,0c-1.285,-1.803 -1.633,-16.046 0,-15.125c1.633,0.92 6.369,15.125 6.369,15.125Z" style="fill:#aa231f;fill-rule:nonzero;"/><path d="M167.509,258.984c-2.761,-1.274 -14.751,-21.118 -14.751,-21.118c0,0 4.041,-0.594 5.9,3.175c1.859,3.768 11.611,19.216 8.851,17.943Z" style="fill:#aa231f;fill-rule:nonzero;"/><path d="M134.473,262.636c0,0 11.944,15.296 17.3,19.121c5.358,3.828 19.855,14.183 19.855,14.183c0,0 -18.907,-7.108 -29.857,-18.698c-10.95,-11.589 -7.298,-14.606 -7.298,-14.606l0,0Z" style="fill:#aa231f;fill-rule:nonzero;"/><path d="M56.128,259.07c0,0 -4.646,18.843 -4.345,25.418c0.302,6.577 1.117,24.374 1.117,24.374c0,0 -6.094,-19.259 -3.747,-35.029c2.347,-15.77 6.975,-14.763 6.975,-14.763Z" style="fill:#aa231f;fill-rule:nonzero;"/></g><path d="M96.135,39.828c0.12,0.005 12.36,-1.131 19.495,-3.495c7.449,-2.467 9.805,-6.165 9.901,-6.167c4.643,-0.073 29.564,14.967 32.843,20.492c0.054,0.093 0.097,0.202 0.138,0.311c-0.046,-0.032 0.186,1.427 0.127,2.398c0.096,4.945 -4.453,14.561 -8.277,21.093c-0.977,2.086 -1.935,3.78 -2.762,5.121l3.904,108.283l-5.162,-16.7l0.34,21.211l-9.225,-20.477l-3.15,23.627l-4.95,-36.677l-3.826,28.351l-4.95,-17.101l-1.575,8.326l-3.376,-4.275l-2.699,12.375l-4.01,-23.964l-4.316,35.431l-1.806,-10.533l-4.269,-24.898l-5.85,16.539l-3.601,-15.526l-5.4,30.152l-4.5,-25.652l-6.22,12.203l-4.806,-17.716l-5.85,34.09l-1.35,-27.902l-3.375,18.676l-2.883,-24.864l-2.324,26.308l0,-37.697c-0.849,-20.599 1.031,-46.987 2.101,-71.446c-0.216,-0.402 -0.537,-1.549 -0.537,-1.549c-0.001,-0.001 -0.003,-0.004 -0.004,-0.005c-2.435,-4.484 -7.266,-12.878 -9.382,-19.569c-0.844,-2.805 -1.093,-5.489 -0.775,-7.218c0.017,-0.076 0.041,-0.145 0.061,-0.217c1.534,-4.181 26.308,-18.238 32.563,-20.469c1.332,-0.476 15.528,8.669 19.737,9.13Z" style="fill:#3c6df0;"/><path d="M158.253,50.498l-0.095,-0.127l-0.007,-0.056l0.102,0.183Z" style="fill:#9a1e1c;"/><path d="M43.791,51.321l-0.016,0.058l0,-0.001l0.016,-0.057Z" style="fill:#3b96d2;"/><g><path d="M74.633,285.778c0,0 9.716,-16.799 11.259,-23.198c1.544,-6.4 5.721,-23.72 5.721,-23.72c0,0 0.484,20.194 -6.166,34.685c-6.65,14.492 -10.814,12.233 -10.814,12.233l0,0Z" style="fill:#3c6df0;fill-rule:nonzero;"/><path d="M58.871,230.064c0,0 -8.26,-9.41 -8.97,-13.06c-0.711,-3.65 2.988,-24.839 2.988,-24.839l5.982,37.899Z" style="fill:#3c6df0;fill-rule:nonzero;"/><path d="M99.951,208.733c-0.568,2.432 -8.233,9.792 -7.778,7.612c0.454,-2.179 5.315,-25.618 6.336,-28.603c1.02,-2.986 2.008,18.559 1.442,20.991Z" style="fill:#3c6df0;fill-rule:nonzero;"/><path d="M70.186,204.442c-0.714,1.325 -4.936,0.525 -4.936,0.525l3.126,-17.534c0,0 2.523,15.685 1.81,17.009Z" style="fill:#3c6df0;fill-rule:nonzero;"/><path d="M82.203,231.345c0.255,5.647 -7.61,17.538 -7.61,17.538c0,0 2.177,-34.524 3.416,-33.932c1.239,0.592 3.94,10.748 4.194,16.394l0,0Z" style="fill:#3c6df0;fill-rule:nonzero;"/><path d="M133.04,241.041c1.069,3.83 -10.315,8.572 -11.262,0c-0.947,-8.573 0,-41.098 0,-41.098c0,0 10.193,37.269 11.262,41.098Z" style="fill:#3c6df0;fill-rule:nonzero;"/><path d="M147.6,231.791c0,0 -5.084,1.805 -6.369,0c-1.285,-1.803 -1.633,-16.046 0,-15.125c1.633,0.92 6.369,15.125 6.369,15.125Z" style="fill:#3c6df0;fill-rule:nonzero;"/><path d="M167.509,258.984c-2.761,-1.274 -14.751,-21.118 -14.751,-21.118c0,0 4.041,-0.594 5.9,3.175c1.859,3.768 11.611,19.216 8.851,17.943Z" style="fill:#3c6df0;fill-rule:nonzero;"/><path d="M134.473,262.636c0,0 11.944,15.296 17.3,19.121c5.358,3.828 19.855,14.183 19.855,14.183c0,0 -18.907,-7.108 -29.857,-18.698c-10.95,-11.589 -7.298,-14.606 -7.298,-14.606l0,0Z" style="fill:#3c6df0;fill-rule:nonzero;"/><path d="M56.128,259.07c0,0 -4.646,18.843 -4.345,25.418c0.302,6.577 1.117,24.374 1.117,24.374c0,0 -6.094,-19.259 -3.747,-35.029c2.347,-15.77 6.975,-14.763 6.975,-14.763Z" style="fill:#3c6df0;fill-rule:nonzero;"/></g><path d="M158.374,50.658l0.117,0.266l-0.213,-0.381l0.096,0.115Z" style="fill:#aa231f;"/><path d="M43.791,51.321l0.045,-0.154c-0.021,0.072 -0.045,0.141 -0.062,0.216l0.001,-0.004l0.016,-0.058Z" style="fill:#aa231f;"/><g><path d="M265.441,284.059l-55.249,-12.633l53.228,-19.911l55.641,19.843l-53.62,12.701Z" style="fill:#00a78f;fill-rule:nonzero;"/><path d="M310.521,398.869l-45.08,14.32l0,-129.13l53.62,-12.701l-8.54,127.511Z" style="fill:#9ad6ca;fill-rule:nonzero;"/><path d="M219.054,398.914l46.387,14.275l0,-129.13l-55.249,-12.633l8.862,127.488Z" style="fill:#5bc3b2;fill-rule:nonzero;"/><path d="M313.192,358.988l-37.844,12.084l0,-47.979l41.121,-13.04l-3.277,48.935Z" style="fill:#fdcfae;fill-rule:nonzero;"/><path d="M265.441,284.059l-55.249,-12.633l55.645,-18.82l53.224,18.752l-53.62,12.701Z" style="fill:none;"/><ellipse cx="265.31" cy="246.5" rx="26.086" ry="5.027" style="fill:#949394;"/><path d="M323.963,225.846l-13.988,5.355l0,-5.901l13.988,-4.809l0,5.355Z" style="fill:#595859;fill-rule:nonzero;"/><path d="M322.578,224.992l-10.916,4.176l0,-2.515l10.916,-3.796l0,2.135Z" style="fill:#474647;fill-rule:nonzero;"/><path d="M293.571,268.547c0,3.99 -14.283,7.224 -31.903,7.224c-17.62,0 -30.964,-3.234 -30.964,-7.224c0,-3.989 13.345,-7.223 30.964,-7.223c17.62,0 31.903,3.234 31.903,7.223Z" style="fill:#028673;fill-rule:nonzero;"/><path d="M239.224,246.557c-0.783,2.392 -4.954,16.725 -5.443,19.355c-0.434,2.331 4.685,4.204 11.912,5.401l2.872,-21.406c-4.613,-0.86 -8.444,-2.006 -9.341,-3.35Z" style="fill:#d8d8d8;fill-rule:nonzero;"/><path d="M265.376,251.614c-4.002,0 -11.023,-0.628 -16.812,-1.707l-2.872,21.406c5.677,0.94 12.655,1.463 19.268,1.463c4.534,0 9.248,-0.362 13.621,-0.931l-3.233,-20.957c-3.889,0.462 -7.611,0.726 -9.972,0.726Z" style="fill:#787678;fill-rule:nonzero;"/><path d="M281.162,250.05l6.01,20.322c0.847,-0.184 1.649,-0.375 2.412,-0.568l-6.181,-20.17c-0.724,0.145 -1.471,0.284 -2.241,0.416Z" style="fill:#595859;fill-rule:nonzero;"/><path d="M288.036,248.466l6.339,19.83c0.518,-0.21 0.961,-0.418 1.335,-0.623l-5.977,-19.873c-0.474,0.229 -1.043,0.452 -1.697,0.666Z" style="fill:#eaeaea;fill-rule:nonzero;"/><path d="M296.998,266.398c0,-2.62 -5.334,-18.607 -5.772,-19.93c-0.071,0.464 -0.614,0.909 -1.493,1.332l5.977,19.874c0.821,-0.45 1.288,-0.883 1.288,-1.276Z" style="fill:#fff;fill-rule:nonzero;"/><path d="M284.617,249.376l6.932,19.889c1.091,-0.321 2.031,-0.646 2.826,-0.969l-6.339,-19.83c-0.981,0.322 -2.14,0.626 -3.419,0.91Z" style="fill:#787678;fill-rule:nonzero;"/><path d="M283.404,249.633l6.18,20.17c0.696,-0.176 1.349,-0.356 1.966,-0.538l-6.932,-19.889c-0.396,0.088 -0.798,0.173 -1.214,0.257Z" style="fill:#d8d8d8;fill-rule:nonzero;"/><path d="M275.348,250.888l3.234,20.957c3.097,-0.404 6.02,-0.913 8.591,-1.473l-6.011,-20.322c-1.881,0.324 -3.867,0.606 -5.814,0.838Z" style="fill:#d8d8d8;fill-rule:nonzero;"/><path d="M263.42,251.515l-7.632,-0.545l-6.767,-0.978l8.715,-5.896l15.519,0l-9.835,7.419Z" style="fill:#787678;fill-rule:nonzero;"/><path d="M273.255,234.662c0,3.113 0,9.434 0,9.434c-0.655,1.093 -5.581,2.404 -7.76,2.404c-2.4,0 -6.292,-1.415 -7.759,-2.404c0,0 0,-6.557 0,-9.434l0,-13.37c0,-6.538 3.474,-11.839 7.759,-11.839c4.287,0 7.76,5.301 7.76,11.839l0,13.37Z" style="fill:#949394;fill-rule:nonzero;"/><path d="M309.975,225.3l-54.643,-15.847l10.505,-4.917l58.126,15.955l-13.988,4.809Z" style="fill:#949394;fill-rule:nonzero;"/><path d="M273.255,218.378l-15.519,0l0,8.725c0,0 2.502,0.994 6.391,1.229c3.515,0.213 9.128,-1.229 9.128,-1.229l0,-8.725l0,0Z" style="fill:#787678;fill-rule:nonzero;"/><path d="M309.975,231.201l-54.643,-10.874l0,-10.874l54.643,15.847l0,5.901Z" style="fill:#595859;fill-rule:nonzero;"/></g><path d="M71.779,32.769l4.619,-2.071c1.332,-0.476 2.005,-0.622 2.61,-0.479c0.4,0.019 9.798,4.961 12.991,5.978c2.319,0.702 4.589,1.17 8.798,1.631c0.245,0.01 1.099,0.019 1.922,0.026c0.062,-0.003 0.123,-0.006 0.184,-0.008c7.595,-0.24 22.439,-7.677 22.628,-7.68c0.964,-0.015 4.771,1.507 7.052,2.603c-0.973,0.677 -17.597,10.879 -31.438,10.73c-14.05,-0.151 -28.891,-10.35 -29.366,-10.73Z" style="fill:#3151b7;"/></svg>