<?xml version="1.0" encoding="UTF-8" standalone="no"?><!DOCTYPE svg PUBLIC "-//W3C//DTD SVG 1.1//EN" "http://www.w3.org/Graphics/SVG/1.1/DTD/svg11.dtd"><svg width="100%" height="100%" viewBox="0 0 82 82" version="1.1" xmlns="http://www.w3.org/2000/svg" xmlns:xlink="http://www.w3.org/1999/xlink" xml:space="preserve" style="fill-rule:evenodd;clip-rule:evenodd;stroke-linejoin:round;stroke-miterlimit:1.5;"><g id="T.-.-Lund.-.-HP.-.-ProactiveSolutions"><path d="M81.6,40.8c0,22.533 -18.267,40.8 -40.801,40.8c-22.532,0 -40.799,-18.267 -40.799,-40.8c0,-22.533 18.267,-40.8 40.799,-40.8c22.534,0 40.801,18.267 40.801,40.8" style="fill:#a5ddea;fill-rule:nonzero;"/><g><path d="M73.187,37.135c0,-0.081 -0.066,-0.146 -0.147,-0.146l-1.271,0c-0.081,0 -0.147,0.065 -0.147,0.146l0,0.294c0,0.081 0.066,0.146 0.147,0.146l1.271,0c0.081,0 0.147,-0.065 0.147,-0.146l0,-0.294Z" style="fill:#555a5a;"/><path d="M57.149,39.14l-0.866,0c-0.159,0 -0.288,0.129 -0.288,0.289l0,2.16c0,0.16 0.129,0.289 0.288,0.289l0.866,0l0,-2.738Z" style="fill:#ff806c;"/><path d="M71.622,43.638l-3.014,0l0,1.268l2.38,0c0.35,0 0.634,-0.284 0.634,-0.634l0,-0.634Z" style="fill:#e3ecec;"/><circle cx="73.187" cy="40.509" r="3.129" style="fill:#ff806c;"/><path d="M72.404,37.38l0,6.258l0.783,0c1.564,-2.345 1.57,-4.432 0,-6.258l-0.783,0Z" style="fill:#555a5a;"/><path d="M58.323,33.468c0,-0.432 -0.351,-0.782 -0.783,-0.782c-0.431,0 -0.782,0.35 -0.782,0.782l0,14.082c0,0.432 0.351,0.782 0.782,0.782c0.432,0 0.783,-0.35 0.783,-0.782l0,-14.082Z" style="fill:#555a5a;"/><path d="M58.323,47.159c0,0 4.049,-2.186 6.258,-2.738c2.347,-0.587 7.823,-0.783 7.823,-0.783c1.658,-2.21 1.576,-4.292 0,-6.258c0,0 -5.476,-0.196 -7.823,-0.783c-2.209,-0.552 -6.258,-2.738 -6.258,-2.738l0,13.3Z" style="fill:#e3ecec;"/><path d="M68.608,44.693c0,1.447 0.033,1.841 -1.266,2.953l0.844,1.055c1.521,-0.727 2.138,-2.312 2.109,-4.008l-1.687,0Z" style="fill:#e3ecec;"/><path d="M67.342,47.646l0.844,1.055l-0.322,0.213l-0.833,-1.057l0.311,-0.211Z" style="fill:#555a5a;"/></g><g><path d="M49.947,30.464c0,-1.027 -0.833,-1.861 -1.861,-1.861l-14.573,0c-1.027,0 -1.861,0.834 -1.861,1.861l0,20.672c0,1.027 0.834,1.861 1.861,1.861l14.573,0c1.028,0 1.861,-0.834 1.861,-1.861l0,-20.672Z" style="fill:#d0dada;"/><clipPath id="_clip1"><path d="M49.947,30.464c0,-1.027 -0.833,-1.861 -1.861,-1.861l-14.573,0c-1.027,0 -1.861,0.834 -1.861,1.861l0,20.672c0,1.027 0.834,1.861 1.861,1.861l14.573,0c1.028,0 1.861,-0.834 1.861,-1.861l0,-20.672Z"/></clipPath><g clip-path="url(#_clip1)"><rect x="31.652" y="52.387" width="18.295" height="0.61" style="fill:#b8c1c1;"/><rect x="31.652" y="32.872" width="18.295" height="0.61" style="fill:#b8c1c1;"/></g><circle cx="40.8" cy="42.934" r="6.708" style="fill:#b8c1c1;"/><circle cx="40.8" cy="42.325" r="6.098" style="fill:#95c4f3;"/><clipPath id="_clip2"><circle cx="40.8" cy="42.325" r="6.098"/></clipPath><g clip-path="url(#_clip2)"><path d="M34.701,42.325c0,0 2.625,-1.575 6.099,-0.915c3.473,0.66 2.596,1.147 6.098,0.915c3.502,-0.233 -0.915,5.488 -0.915,5.488c0,0 -12.775,6.832 -11.282,-5.488Z" style="fill:#56acf2;"/></g><circle cx="40.8" cy="42.325" r="6.098" style="fill:none;stroke:#535a5a;stroke-width:1.22px;"/><path d="M42.934,30.28c0,-0.252 -0.205,-0.457 -0.457,-0.457l-3.354,0c-0.253,0 -0.458,0.205 -0.458,0.457l0,0.915c0,0.252 0.205,0.457 0.458,0.457l3.354,0c0.252,0 0.457,-0.205 0.457,-0.457l0,-0.915Z" style="fill:#8ee9d4;"/><circle cx="47.813" cy="30.738" r="0.915" style="fill:#e3ecec;"/><circle cx="45.374" cy="30.738" r="0.915" style="fill:#e3ecec;"/></g><g><path d="M16.267,31.346c-0.059,-0.001 -0.114,-0.003 -0.167,-0.004c-0.486,-0.02 -0.744,-0.084 -1.006,-0.187c-0.367,-0.114 -0.694,-0.26 -0.951,-0.391c-0.015,-0.005 -0.029,-0.01 -0.045,-0.016c-0.162,-0.057 -0.249,-0.126 -0.319,-0.181c-0.068,-0.038 -0.121,-0.069 -0.157,-0.089c-0.069,-0.016 -0.16,-0.007 -0.312,0.048c-0.716,0.255 -3.549,1.863 -3.725,2.341c-0.002,0.009 -0.005,0.016 -0.007,0.025c-0.036,0.198 0.013,0.484 0.11,0.805c0.242,0.765 0.773,1.746 1.052,2.259l0,0c0.033,0.061 0.063,0.115 0.087,0.161l-0.228,7.924l-0.038,0.265l-0.114,5.355l5.82,0l0,-18.315Z" style="fill:#18496e;fill-rule:nonzero;"/><path d="M22.716,33.119c0.007,-0.111 -0.001,-0.209 -0.03,-0.286c0.006,0.004 0.011,0.008 0.016,0.012c-0.005,-0.013 -0.01,-0.025 -0.016,-0.036c-0.375,-0.632 -3.214,-2.325 -3.745,-2.316c-0.021,0 -0.045,0.002 -0.071,0.006c-0.639,0.324 -1.66,0.817 -2.529,0.845c-0.024,0 -0.05,0.002 -0.075,0.002l0,18.315l5.456,0l-0.268,-13.544c0.076,-0.141 0.194,-0.355 0.326,-0.607c0.381,-0.745 0.868,-1.823 0.936,-2.391" style="fill:#1c354d;fill-rule:nonzero;"/><rect x="16.267" y="49.661" width="5.416" height="1.51" style="fill:#117cc1;fill-rule:nonzero;"/><rect x="10.447" y="49.661" width="5.82" height="1.51" style="fill:#3896d2;fill-rule:nonzero;"/><path d="M22.872,52.498l2.288,0c-0.004,-0.032 -0.382,-18.173 -2.458,-19.653c0.025,0.066 0.028,0.159 0.015,0.273c-0.038,0.613 -0.552,1.665 -0.936,2.391c-0.128,0.251 -0.244,0.465 -0.327,0.608l0.163,8.239l1.255,8.142Z" style="fill:#117cc1;fill-rule:nonzero;"/><path d="M22.716,33.119c0.014,-0.115 0.011,-0.209 -0.014,-0.274c-0.005,-0.004 -0.01,-0.008 -0.016,-0.012c0.029,0.077 0.037,0.175 0.03,0.286" style="fill:#3896d2;fill-rule:nonzero;"/><path d="M21.454,36.117c0.083,-0.143 0.199,-0.357 0.327,-0.608c-0.133,0.253 -0.251,0.466 -0.327,0.608" style="fill:#3896d2;fill-rule:nonzero;"/><path d="M10.74,35.956c-0.22,-0.34 -0.799,-1.418 -1.052,-2.259c-0.103,-0.325 -0.153,-0.611 -0.11,-0.805c0,0 0,-0.001 0,-0.001c0.002,-0.008 0.004,-0.015 0.007,-0.024c0.003,-0.011 0.006,-0.023 0.01,-0.034c-2.09,1.401 -2.47,19.633 -2.473,19.665l2.287,0l1.152,-8.192l0.179,-8.35l0,0" style="fill:#3896d2;fill-rule:nonzero;"/><path d="M9.578,32.892c0.002,-0.009 0.005,-0.017 0.007,-0.025c-0.003,0.008 -0.006,0.016 -0.007,0.025l0,0" style="fill:#3896d2;fill-rule:nonzero;"/><path d="M9.688,33.697c0.253,0.841 0.832,1.919 1.052,2.259c-0.278,-0.513 -0.81,-1.493 -1.052,-2.259" style="fill:#3896d2;fill-rule:nonzero;"/><path d="M10.827,36.117c-0.024,-0.046 -0.054,-0.1 -0.087,-0.16l-0.179,8.349l0.038,-0.265l0.228,-7.924Z" style="fill:#3896d2;fill-rule:nonzero;"/><path d="M16.341,31.343c0.642,-0.047 1.981,-0.774 2.529,-0.844c0.019,-0.009 0.037,-0.019 0.055,-0.028l0,-1.369c0,0.014 -0.291,0.076 -0.31,0.081c-0.465,0.121 -1.534,0.533 -2.349,0.533l0,1.63c0.025,0 0.05,-0.002 0.075,-0.003" style="fill:#117cc1;fill-rule:nonzero;"/><path d="M14.143,30.764c0.451,0.161 0.704,0.293 0.951,0.39c0.312,0.097 0.653,0.17 1.007,0.188c0.054,0.002 0.11,0.004 0.165,0.004l0,-1.63c-0.936,0 -1.986,-0.437 -2.658,-0.614l0,1.369c0.004,0.002 0.009,0.005 0.014,0.007c0.059,0.014 0.103,0.048 0.156,0.089c0.096,0.054 0.219,0.123 0.365,0.197" style="fill:#62a9dc;fill-rule:nonzero;"/><path d="M13.622,30.478c0.037,0.02 0.089,0.051 0.157,0.089c-0.054,-0.041 -0.098,-0.074 -0.157,-0.089" style="fill:#62a9dc;fill-rule:nonzero;"/><path d="M15.094,31.155c-0.247,-0.098 -0.5,-0.23 -0.951,-0.391c0.257,0.13 0.583,0.277 0.951,0.391" style="fill:#62a9dc;fill-rule:nonzero;"/><path d="M16.267,31.346c-0.056,0 -0.111,-0.002 -0.167,-0.004c0.053,0.001 0.108,0.003 0.167,0.004" style="fill:#62a9dc;fill-rule:nonzero;"/><path d="M18.87,30.499c-0.548,0.07 -1.886,0.797 -2.529,0.844c0.869,-0.027 1.89,-0.52 2.529,-0.844" style="fill:#117cc1;fill-rule:nonzero;"/></g></g></svg>