<?xml version="1.0" encoding="UTF-8" standalone="no"?><!DOCTYPE svg PUBLIC "-//W3C//DTD SVG 1.1//EN" "http://www.w3.org/Graphics/SVG/1.1/DTD/svg11.dtd"><svg width="100%" height="100%" viewBox="0 0 620 201" version="1.1" xmlns="http://www.w3.org/2000/svg" xmlns:xlink="http://www.w3.org/1999/xlink" xml:space="preserve" style="fill-rule:evenodd;clip-rule:evenodd;stroke-linejoin:round;stroke-miterlimit:1.41421;"><g><path d="M130.205,111c5.51,0 9.984,-4.473 9.984,-9.984l0,-0.032c0,-5.511 -4.474,-9.984 -9.984,-9.984l-120.221,0c-5.511,0 -9.984,4.473 -9.984,9.984l0,0.032c0,5.511 4.473,9.984 9.984,9.984l120.221,0Z" style="fill:#343334;"/><path d="M610.016,111c5.511,0 9.984,-4.473 9.984,-9.984l0,-0.032c0,-5.511 -4.473,-9.984 -9.984,-9.984l-120.032,0c-5.511,0 -9.984,4.473 -9.984,9.984l0,0.032c0,5.511 4.473,9.984 9.984,9.984l120.032,0Z" style="fill:#343334;"/><path d="M260,1l0,30l-40,0c-11.038,0 -20,8.962 -20,20c0,11.038 8.962,20 20,20l40,0l0,60l-40,0c-11.038,0 -20,8.962 -20,20c0,11.038 8.962,20 20,20l40,0l0,30l-40,0c-55.192,0 -100,-44.808 -100,-100c0,-55.191 44.808,-99.999 100,-100l40,0Zm140,199.962l-40,0l0,-30l-40,0c-11.038,0 -20,-8.961 -20,-20c0,-11.038 8.962,-20 20,-20l40,0l0,-60l-40,0c-11.038,0 -20,-8.961 -20,-20c0,-11.038 8.962,-20 20,-20l40,0l0,-30l40,0c55.192,0 100,44.809 100,100c0,55.159 -44.755,99.946 -100,100Z" style="fill:url(#_Radial1);"/></g><defs><radialGradient id="_Radial1" cx="0" cy="0" r="1" gradientUnits="userSpaceOnUse" gradientTransform="matrix(187.246,0.0309791,-0.0309791,187.246,292.754,100.969)"><stop offset="0" style="stop-color:#cae2f9;stop-opacity:1"/><stop offset="1" style="stop-color:#63a8dc;stop-opacity:1"/></radialGradient></defs></svg>