<svg id="Layer_1" data-name="Layer 1" xmlns="http://www.w3.org/2000/svg" viewBox="0 0 500 500"><defs><style>.cls-1{fill:#fff;}.cls-2,.cls-3{fill:#f26c5a;}.cls-3{font-size:16px;font-family:SourceSansPro-SemiBold, Source Sans Pro;font-weight:700;}.cls-4{letter-spacing:-0.04em;}.cls-5{letter-spacing:-0.01em;}.cls-6{letter-spacing:-0.01em;}.cls-7{letter-spacing:0em;}.cls-8{letter-spacing:-0.01em;}.cls-9{letter-spacing:-0.01em;}.cls-10{letter-spacing:0em;}.cls-11{fill:#039968;}.cls-11,.cls-12,.cls-13,.cls-14,.cls-16{fill-rule:evenodd;}.cls-12{fill:#156736;}.cls-13{fill:#98cb99;}.cls-14,.cls-15{fill:#066736;}.cls-16,.cls-17{fill:#010101;}.cls-18{fill:#046ba9;}.cls-19{fill:#fecd06;}.cls-20{fill:#ee302f;}.cls-21{fill:#213064;}.cls-22{fill:#c62032;}.cls-23{fill:#233d7b;}</style></defs><title>minicompetition</title><polygon class="cls-1" points="183.67 330.48 183.67 349.44 123.34 370.39 63 349.44 63 330.48 123.34 351.24 183.67 330.48"/><polygon class="cls-2" points="123.33 226.37 63 205.61 63 323.09 123.33 344.04 183.67 323.09 183.67 205.61 123.33 226.37"/><polygon class="cls-1" points="63 88.11 63 111.46 63 205.59 123.33 226.54 183.67 205.59 183.67 111.46 183.67 88.11 63 88.11"/><rect class="cls-1" x="63" y="76.61" width="120.67" height="5.75"/><text class="cls-3" transform="translate(72.01 133.96)">90 <tspan class="cls-4" x="19.62" y="0">P</tspan><tspan x="28.32" y="0">artici</tspan><tspan class="cls-5" x="64.09" y="0">p</tspan><tspan x="72.93" y="0">an</tspan><tspan class="cls-6" x="90.14" y="0">t</tspan><tspan x="95.76" y="0">s</tspan><tspan x="12.22" y="19.2">4 Countries</tspan></text><polygon class="cls-1" points="310.34 330.48 310.34 349.44 250 370.39 189.67 349.44 189.67 330.48 250 351.24 310.34 330.48"/><polygon class="cls-2" points="250 226.37 189.67 205.61 189.67 323.09 250 344.04 310.33 323.09 310.33 205.61 250 226.37"/><polygon class="cls-1" points="189.67 88.11 189.67 111.46 189.67 205.59 250 226.54 310.33 205.59 310.33 111.46 310.33 88.11 189.67 88.11"/><rect class="cls-1" x="189.67" y="76.61" width="120.67" height="5.75"/><text class="cls-3" transform="translate(235.37 133.96)">Mini<tspan x="-20.1" y="19.2">Jambo</tspan><tspan class="cls-6" x="27.34" y="19.2">r</tspan><tspan x="33.14" y="19.2">ee</tspan></text><polygon class="cls-1" points="437 330.48 437 349.44 376.67 370.39 316.34 349.44 316.34 330.48 376.67 351.24 437 330.48"/><polygon class="cls-1" points="183.67 330.48 183.67 349.44 123.34 370.39 63 349.44 63 330.48 123.34 351.24 183.67 330.48"/><polygon class="cls-1" points="310.34 330.48 310.34 349.44 250 370.39 189.67 349.44 189.67 330.48 250 351.24 310.34 330.48"/><polygon class="cls-1" points="437 330.48 437 349.44 376.67 370.39 316.34 349.44 316.34 330.48 376.67 351.24 437 330.48"/><polygon class="cls-1" points="183.67 356.81 183.67 375.77 123.34 396.72 63 375.77 63 356.81 123.34 377.57 183.67 356.81"/><polygon class="cls-1" points="310.34 356.81 310.34 375.77 250 396.72 189.67 375.77 189.67 356.81 250 377.57 310.34 356.81"/><polygon class="cls-1" points="437 356.81 437 375.77 376.67 396.72 316.34 375.77 316.34 356.81 376.67 377.57 437 356.81"/><polygon class="cls-1" points="183.67 356.81 183.67 375.77 123.34 396.72 63 375.77 63 356.81 123.34 377.57 183.67 356.81"/><polygon class="cls-1" points="310.34 356.81 310.34 375.77 250 396.72 189.67 375.77 189.67 356.81 250 377.57 310.34 356.81"/><polygon class="cls-1" points="437 356.81 437 375.77 376.67 396.72 316.34 375.77 316.34 356.81 376.67 377.57 437 356.81"/><polygon class="cls-1" points="183.67 383.48 183.67 402.44 123.34 423.39 63 402.44 63 383.48 123.34 404.24 183.67 383.48"/><polygon class="cls-1" points="310.34 383.48 310.34 402.44 250 423.39 189.67 402.44 189.67 383.48 250 404.24 310.34 383.48"/><polygon class="cls-1" points="437 383.48 437 402.44 376.67 423.39 316.34 402.44 316.34 383.48 376.67 404.24 437 383.48"/><polygon class="cls-1" points="183.67 383.48 183.67 402.44 123.34 423.39 63 402.44 63 383.48 123.34 404.24 183.67 383.48"/><polygon class="cls-1" points="310.34 383.48 310.34 402.44 250 423.39 189.67 402.44 189.67 383.48 250 404.24 310.34 383.48"/><polygon class="cls-1" points="437 383.48 437 402.44 376.67 423.39 316.34 402.44 316.34 383.48 376.67 404.24 437 383.48"/><polygon class="cls-2" points="376.67 226.37 316.33 205.61 316.33 323.09 376.67 344.04 437 323.09 437 205.61 376.67 226.37"/><polygon class="cls-1" points="316.33 88.11 316.33 111.46 316.33 205.59 376.67 226.54 437 205.59 437 111.46 437 88.11 316.33 88.11"/><rect class="cls-1" x="316.33" y="76.61" width="120.67" height="5.75"/><text class="cls-3" transform="translate(338.48 123.96)">Worksho<tspan class="cls-7" x="60.51" y="0">p</tspan><tspan x="69.47" y="0">s</tspan><tspan x="33.07" y="19.2">&amp;</tspan><tspan class="cls-8" x="8.86" y="38.4">L</tspan><tspan x="16.68" y="38.4">e</tspan><tspan class="cls-6" x="24.79" y="38.4">c</tspan><tspan x="32.02" y="38.4">tu</tspan><tspan class="cls-9" x="46.7" y="38.4">r</tspan><tspan class="cls-10" x="52.5" y="38.4">es</tspan></text><path class="cls-1" d="M348.26,244a8.25,8.25,0,1,0,8.25,8.25A8.26,8.26,0,0,0,348.26,244Zm0,14.06a5.81,5.81,0,1,1,5.81-5.81A5.82,5.82,0,0,1,348.26,258.06Z"/><path class="cls-1" d="M356.51,270.05v3.19h0l-2.44,1v-4.15a5.81,5.81,0,1,0-11.62,0v23.23H340V270.05a8.25,8.25,0,1,1,16.5,0Z"/><path class="cls-1" d="M355,278.78l1.47-.57v15.07h-2.44V278.94A2.16,2.16,0,0,0,355,278.78Z"/><path class="cls-1" d="M348.26,311.31a8.25,8.25,0,1,1,8.25-8.25A8.26,8.26,0,0,1,348.26,311.31Zm0-14.06a5.81,5.81,0,1,0,5.81,5.81A5.82,5.82,0,0,0,348.26,297.25Z"/><path class="cls-1" d="M361.08,318.94h-2.66c-1.35-2.23-5.45-3.89-10.16-3.89s-8.81,1.66-10.16,3.89h-2.66c1.18-3.65,6.39-6.33,12.82-6.33S359.9,315.29,361.08,318.94Z"/><path class="cls-1" d="M376.67,311.31a8.25,8.25,0,1,1,8.25-8.25A8.26,8.26,0,0,1,376.67,311.31Zm0-14.06a5.81,5.81,0,1,0,5.81,5.81A5.82,5.82,0,0,0,376.67,297.25Z"/><path class="cls-1" d="M389.49,318.94h-2.66c-1.35-2.23-5.45-3.89-10.16-3.89s-8.81,1.66-10.16,3.89h-2.66c1.18-3.65,6.39-6.33,12.82-6.33S388.31,315.29,389.49,318.94Z"/><path class="cls-1" d="M405.08,311.31a8.25,8.25,0,1,1,8.25-8.25A8.26,8.26,0,0,1,405.08,311.31Zm0-14.06a5.81,5.81,0,1,0,5.81,5.81A5.82,5.82,0,0,0,405.08,297.25Z"/><path class="cls-1" d="M417.89,318.94h-2.66c-1.34-2.23-5.45-3.89-10.15-3.89s-8.81,1.66-10.16,3.89h-2.66c1.18-3.65,6.39-6.33,12.82-6.33S416.72,315.29,417.89,318.94Z"/><path class="cls-1" d="M347,236.21v4.48h2.44v-2h57.88V282H361.08v2.44h48.71V236.21Z"/><path class="cls-1" d="M356.51,278.21l-1.47.57a2.33,2.33,0,0,1-1.76,0,2.51,2.51,0,0,1-.79-.56l-2.38-2h0a4.22,4.22,0,0,0,.26,1.95,4.15,4.15,0,0,0,.91,1.38h0a4.13,4.13,0,0,0,1.27.86,4,4,0,0,0,1.51.34h.12a4,4,0,0,0,1.45-.26l.06,0a4.47,4.47,0,0,0,.81-.43,4.12,4.12,0,0,0,1.69-2.49Z"/><path class="cls-1" d="M368.27,274.21a4.06,4.06,0,0,1-2.26,2.18l-9.5,3.75-.81.32a4.47,4.47,0,0,0,.81-.43,4.12,4.12,0,0,0,1.69-2.49l4-1.57,3.16-1.24a2.34,2.34,0,0,0,1.27-1.24,2.27,2.27,0,0,0,0-1.77,2.32,2.32,0,0,0-3-1.3l-3.15,1.24-4,1.58h0l-2.44,1-.72.28-.07,0-.66-1.67.13,0,1.32-.52,2.44-1,6.49-2.56a4.11,4.11,0,0,1,5.27,5.46Z"/><path class="cls-1" d="M358.2,277.54a4.08,4.08,0,0,1-2.5,2.91l-.06,0h0l-.66-1.67.07,0Z"/><polygon class="cls-1" points="352.49 278.2 351.33 279.57 351.29 279.53 351.28 279.52 344.41 273.71 345.57 272.34 350.11 276.18 352.49 278.2"/><rect class="cls-1" x="361.53" y="260.89" width="17.82" height="2.09" transform="translate(-57.8 411.75) rotate(-54.55)"/><path class="cls-1" d="M236.35,318.53H205.67V291.22h30.68Zm-29-1.69h27.3V292.91h-27.3Z"/><path class="cls-1" d="M265.34,318.53H234.66V280.81h30.68Zm-29-1.69h27.3V282.5h-27.3Z"/><path class="cls-1" d="M294.33,318.53H263.65v-21.4h30.68Zm-29-1.69h27.3v-18h-27.3Z"/><path class="cls-1" d="M216.9,310V308.9c.74-.72,1.41-1.38,2-2a21.76,21.76,0,0,0,1.54-1.69,8,8,0,0,0,1-1.45,2.83,2.83,0,0,0,.34-1.29,1.89,1.89,0,0,0-.46-1.35,1.65,1.65,0,0,0-1.31-.5,2,2,0,0,0-1.14.35,5.13,5.13,0,0,0-1,.85l-1.08-1.08a6.46,6.46,0,0,1,1.53-1.23,4.32,4.32,0,0,1,3.3-.19,2.87,2.87,0,0,1,1.75,1.7,3.68,3.68,0,0,1,.24,1.35,3.64,3.64,0,0,1-.31,1.45,8.28,8.28,0,0,1-.84,1.48,17.89,17.89,0,0,1-1.24,1.55c-.48.53-1,1.08-1.51,1.64l.91-.08c.33,0,.62,0,.88,0h2.64V310Z"/><path class="cls-1" d="M247.48,306.07v-1.59h2.4v-7.06h-2V296.2a9.12,9.12,0,0,0,1.4-.36,6.78,6.78,0,0,0,1.09-.51h1.45v9.15H254v1.59Z"/><path class="cls-1" d="M278.48,313.73a5,5,0,0,1-2.2-.44,4.74,4.74,0,0,1-1.45-1.08l.93-1.25a5,5,0,0,0,1.11.83,2.85,2.85,0,0,0,1.44.35,2.23,2.23,0,0,0,1.43-.43,1.44,1.44,0,0,0,.55-1.19,1.7,1.7,0,0,0-.16-.76,1.26,1.26,0,0,0-.51-.57,2.93,2.93,0,0,0-1-.37,8.06,8.06,0,0,0-1.52-.12v-1.42a6,6,0,0,0,1.32-.13,2.51,2.51,0,0,0,.87-.35,1.52,1.52,0,0,0,.47-.55,1.82,1.82,0,0,0,.14-.7,1.33,1.33,0,0,0-.42-1.05,1.7,1.7,0,0,0-1.17-.38,2.33,2.33,0,0,0-1.15.28,4.77,4.77,0,0,0-1,.73l-1-1.2a6.61,6.61,0,0,1,1.47-1,4.19,4.19,0,0,1,1.75-.37,4.88,4.88,0,0,1,1.42.19,3,3,0,0,1,1.1.55,2.57,2.57,0,0,1,.71.89,2.79,2.79,0,0,1,.25,1.21,2.34,2.34,0,0,1-.5,1.52,3.33,3.33,0,0,1-1.37.95V308a3.27,3.27,0,0,1,1.59.93,2.45,2.45,0,0,1,.64,1.74,2.79,2.79,0,0,1-.3,1.32,2.92,2.92,0,0,1-.81,1,3.77,3.77,0,0,1-1.2.61A5,5,0,0,1,278.48,313.73Z"/><path class="cls-11" d="M244.72,264.73a11.76,11.76,0,0,0,2,2,1.31,1.31,0,0,0-.3.36l-1.57,2.7a1.38,1.38,0,0,0,.5,1.89l.75.44a1.39,1.39,0,0,0,1.9-.51l1.57-2.7a1.4,1.4,0,0,0,.17-.47,12.37,12.37,0,0,0,2.16.61,1.31,1.31,0,0,0-.12.56v3.12a1.39,1.39,0,0,0,1.38,1.39h.88a1.39,1.39,0,0,0,1.39-1.39v-3.12a1.27,1.27,0,0,0-.07-.44,11.89,11.89,0,0,0,2.67-.62,1.37,1.37,0,0,0,.16.44l1.56,2.71a1.38,1.38,0,0,0,1.9.51l.77-.44a1.38,1.38,0,0,0,.51-1.89l-1.57-2.71a1.31,1.31,0,0,0-.2-.28,11.52,11.52,0,0,0,2.12-2,1.33,1.33,0,0,0,.46.42l2.71,1.57a1.41,1.41,0,0,0,1.91-.51l.43-.76a1.39,1.39,0,0,0-.5-1.9l-2.72-1.55a1.24,1.24,0,0,0-.52-.18,12,12,0,0,0,.78-2.62,1.4,1.4,0,0,0,.47.08h3.13a1.4,1.4,0,0,0,1.4-1.39v-.87a1.39,1.39,0,0,0-1.4-1.38h-3.13a1.21,1.21,0,0,0-.38.06,12.48,12.48,0,0,0-.69-2.77,1.12,1.12,0,0,0,.38-.15l2.71-1.56a1.36,1.36,0,0,0,.51-1.88l-.44-.75a1.38,1.38,0,0,0-1.89-.5l-2.71,1.56a1.33,1.33,0,0,0-.3.23,11.59,11.59,0,0,0-2.07-2.07,1.38,1.38,0,0,0,.4-.43l1.56-2.69a1.36,1.36,0,0,0-.5-1.88l-.76-.43a1.41,1.41,0,0,0-1.89.51l-1.56,2.69a1.37,1.37,0,0,0-.19.58,12.18,12.18,0,0,0-3.15-.76,1.34,1.34,0,0,0,.12-.56v-3.09a1.37,1.37,0,0,0-1.37-1.37h-.88a1.37,1.37,0,0,0-1.38,1.37V245a1.41,1.41,0,0,0,.18.68,12.15,12.15,0,0,0-2.38.69,1.63,1.63,0,0,0-.14-.34L248,243.39a1.37,1.37,0,0,0-1.89-.49l-.75.43a1.37,1.37,0,0,0-.51,1.87l1.54,2.67a1.06,1.06,0,0,0,.26.33,11.16,11.16,0,0,0-2.05,2.13,1.49,1.49,0,0,0-.5-.5l-2.68-1.53a1.38,1.38,0,0,0-1.88.5l-.44.76a1.37,1.37,0,0,0,.49,1.87l2.68,1.54a1.41,1.41,0,0,0,.77.18,12.16,12.16,0,0,0-.75,3.08,1.28,1.28,0,0,0-.48-.09h-3.1a1.39,1.39,0,0,0-1.39,1.38v.87a1.37,1.37,0,0,0,1.37,1.37h3.11a1.38,1.38,0,0,0,.64-.16,11.71,11.71,0,0,0,.62,2.15,1.42,1.42,0,0,0-.51.18l-2.69,1.55a1.37,1.37,0,0,0-.52,1.88l.43.76a1.38,1.38,0,0,0,1.88.51l2.71-1.56A1.35,1.35,0,0,0,244.72,264.73Zm3.24-3.68a7,7,0,1,1,9.58,2.55A7,7,0,0,1,248,261.05Z"/><path class="cls-12" d="M232.82,252.47a48.79,48.79,0,0,1,4.41-12.26,7.26,7.26,0,0,1,4.57-3.87c2.4-.47,5.75.94,6.06,1.08s3.11,1.14,4.28,3,1.07,4.26-.19,7.26-3,5.62-3.57,6.92c-.41,1-.68,2.52-.52,6s-.09,6.23-1.31,7.94c-1.09,1.53-3.21,2.76-6.9,2.69s-5.38-1.7-6.38-3.38C232.1,265.84,230.86,260.55,232.82,252.47Z"/><path class="cls-13" d="M234.43,252.3c1.89-7.34,3.39-10,3.91-10.91.66-1.23,1.63-3,3.63-3.39s4.8.74,5.06.86,2.75.95,3.74,2.56.62,3.77-.49,6.39c-1.18,2.77-2.71,5-3.18,6.18a12.17,12.17,0,0,0-.66,5.4c.14,3,0,6.47-1,8-.91,1.34-2.53,2.41-5.64,2.35a5.69,5.69,0,0,1-5.36-3C233.45,265,232.6,259.37,234.43,252.3Z"/><path class="cls-14" d="M241.94,245.68a3.94,3.94,0,0,0,.32.76l-.12.06-.72.53a.4.4,0,0,0-.07.56l.15.2a.41.41,0,0,0,.56.08l.72-.54.1-.1a3.73,3.73,0,0,0,.5.39.67.67,0,0,0-.09.14l-.35.82a.41.41,0,0,0,.22.52l.23.1a.4.4,0,0,0,.53-.21l.35-.82,0-.12a4,4,0,0,0,.77.13.57.57,0,0,0,0,.13l.12.89a.39.39,0,0,0,.44.34l.25,0a.39.39,0,0,0,.35-.44l-.11-.88,0-.1a4.13,4.13,0,0,0,.79-.29.33.33,0,0,0,.07.16l.55.71a.4.4,0,0,0,.56.08l.2-.15a.38.38,0,0,0,.07-.55l-.54-.72a.58.58,0,0,0-.12-.1,3,3,0,0,0,.5-.61.36.36,0,0,0,.12.08l.83.35a.4.4,0,0,0,.52-.21l.1-.23a.4.4,0,0,0-.21-.52l-.84-.35a.35.35,0,0,0-.11,0,3.12,3.12,0,0,0,.13-.81h.12l.89-.11a.4.4,0,0,0,.35-.45l0-.24a.41.41,0,0,0-.45-.35l-.89.11a.35.35,0,0,0-.11,0,3.36,3.36,0,0,0-.32-.78.3.3,0,0,0,.15-.07l.72-.54a.39.39,0,0,0,.08-.55l-.16-.2a.4.4,0,0,0-.56-.08l-.71.54a.49.49,0,0,0-.12.13,3.49,3.49,0,0,0-.75-.56.3.3,0,0,0,.09-.13l.35-.82a.39.39,0,0,0-.21-.52l-.24-.1a.4.4,0,0,0-.52.21l-.35.82a.35.35,0,0,0,0,.2,3.36,3.36,0,0,0-.71-.08.21.21,0,0,0,0-.11l-.11-.88a.4.4,0,0,0-.45-.35l-.25,0a.39.39,0,0,0-.35.44l.12.89a.2.2,0,0,0,0,.11,3.09,3.09,0,0,0-.79.34.36.36,0,0,0-.08-.19l-.54-.71a.4.4,0,0,0-.56-.08l-.2.15a.4.4,0,0,0-.08.56l.55.71a.34.34,0,0,0,.18.13,3.6,3.6,0,0,0-.54.74.36.36,0,0,0-.12-.08l-.83-.35a.4.4,0,0,0-.52.21l-.1.23a.4.4,0,0,0,.21.52l.83.35a.42.42,0,0,0,.19,0,3.39,3.39,0,0,0-.07.64.42.42,0,0,0-.16,0l-.89.11a.39.39,0,0,0-.35.44l0,.25a.4.4,0,0,0,.45.34l.9-.11A.33.33,0,0,0,241.94,245.68Z"/><path class="cls-11" d="M243.22,245.06a2,2,0,0,1,1.75-2.23,2,2,0,0,1,2.27,1.75,2,2,0,0,1-1.75,2.23A2,2,0,0,1,243.22,245.06Z"/><path class="cls-14" d="M237.09,249.37a1.83,1.83,0,0,1,1.36-2.24,1.88,1.88,0,0,1,2.27,1.39,1.84,1.84,0,0,1-1.4,2.21A1.89,1.89,0,0,1,237.09,249.37Z"/><path class="cls-14" d="M240.7,248.26l.49-.12a.22.22,0,0,1,.26.17l0,.13a.22.22,0,0,1-.16.26l-.49.11a.21.21,0,0,1-.26-.16l0-.13A.22.22,0,0,1,240.7,248.26Z"/><path class="cls-14" d="M236.49,249.22l.47-.12a.23.23,0,0,1,.26.16l0,.14a.2.2,0,0,1-.16.25l-.46.11a.23.23,0,0,1-.26-.16l0-.13A.2.2,0,0,1,236.49,249.22Z"/><path class="cls-14" d="M239.55,250.72l.11.46a.21.21,0,0,1-.16.25l-.14,0a.22.22,0,0,1-.25-.16l-.12-.46a.22.22,0,0,1,.17-.25l.13,0A.21.21,0,0,1,239.55,250.72Z"/><path class="cls-14" d="M238.59,246.55l.11.48a.21.21,0,0,1-.16.26l-.13,0a.24.24,0,0,1-.27-.17l-.12-.48a.24.24,0,0,1,.17-.27l.13,0A.23.23,0,0,1,238.59,246.55Z"/><path class="cls-14" d="M236.62,248.07l.47.14a.21.21,0,0,1,.15.27l0,.13a.21.21,0,0,1-.26.14l-.47-.14a.21.21,0,0,1-.15-.27l0-.13A.22.22,0,0,1,236.62,248.07Z"/><path class="cls-14" d="M237.37,247l.34.35a.22.22,0,0,1,0,.31l-.09.1a.22.22,0,0,1-.31,0l-.34-.36a.2.2,0,0,1,0-.3l.1-.1A.22.22,0,0,1,237.37,247Z"/><path class="cls-14" d="M240.4,250.17l.33.35a.21.21,0,0,1,0,.3l-.1.09a.22.22,0,0,1-.31,0l-.33-.35a.21.21,0,0,1,0-.29l.1-.1A.24.24,0,0,1,240.4,250.17Z"/><path class="cls-14" d="M237.72,250.45l-.35.32a.22.22,0,0,1-.3,0l-.09-.1a.21.21,0,0,1,0-.29l.35-.33a.22.22,0,0,1,.3,0l.1.1A.21.21,0,0,1,237.72,250.45Z"/><path class="cls-14" d="M240.88,247.48l-.36.34a.24.24,0,0,1-.32,0l-.09-.11a.21.21,0,0,1,0-.3l.36-.35a.24.24,0,0,1,.32,0l.09.1A.22.22,0,0,1,240.88,247.48Z"/><path class="cls-14" d="M240.8,249.27l.47.14a.22.22,0,0,1,.15.27l0,.13a.22.22,0,0,1-.27.14l-.46-.14a.22.22,0,0,1-.15-.27l0-.13A.22.22,0,0,1,240.8,249.27Z"/><rect class="cls-15" x="238.99" y="246.53" width="0.94" height="0.58" rx="0.22" ry="0.22" transform="translate(-66.62 403.59) rotate(-72.99)"/><path class="cls-14" d="M238.56,250.81l-.14.45a.21.21,0,0,1-.26.14l-.13,0a.22.22,0,0,1-.15-.26l.14-.45a.2.2,0,0,1,.26-.14l.13,0A.21.21,0,0,1,238.56,250.81Z"/><path class="cls-11" d="M237.81,249.22a1.09,1.09,0,0,1,.81-1.31,1.11,1.11,0,0,1,1.33.81,1.07,1.07,0,0,1-.82,1.3A1.1,1.1,0,0,1,237.81,249.22Z"/><path class="cls-16" d="M227.07,255.22a1.27,1.27,0,0,0,.25.27.08.08,0,0,0,0,0l-.2.33a.17.17,0,0,0,0,.23l.1.06a.18.18,0,0,0,.24,0l.2-.32s0,0,0-.06a1.22,1.22,0,0,0,.27.09.19.19,0,0,0,0,.07v.39a.17.17,0,0,0,.17.18h.12a.16.16,0,0,0,.18-.16v-.39a.13.13,0,0,0,0-.06,2.25,2.25,0,0,0,.36-.06.14.14,0,0,0,0,.06l.2.35a.18.18,0,0,0,.24.08l.11,0a.17.17,0,0,0,.07-.24l-.2-.35a.05.05,0,0,0,0,0,1.37,1.37,0,0,0,.29-.24l.06.06.36.21a.19.19,0,0,0,.26,0l.07-.1a.18.18,0,0,0-.07-.25l-.36-.21-.07,0a1,1,0,0,0,.12-.33h.5a.17.17,0,0,0,.19-.17v-.12a.18.18,0,0,0-.19-.18h-.48a1.55,1.55,0,0,0-.08-.36l0,0,.38-.2a.19.19,0,0,0,.08-.25l-.06-.1a.19.19,0,0,0-.26-.07l-.38.2,0,0a1.42,1.42,0,0,0-.28-.27l.06-.06.22-.36a.17.17,0,0,0-.06-.25l-.1-.05a.2.2,0,0,0-.26.07l-.22.34,0,.08a1.43,1.43,0,0,0-.42-.1.11.11,0,0,0,0-.07v-.41a.18.18,0,0,0-.18-.18h-.11a.19.19,0,0,0-.19.18v.4a.24.24,0,0,0,0,.09,1.81,1.81,0,0,0-.31.09s0,0,0-.05l-.2-.34a.17.17,0,0,0-.24-.07l-.1.06a.18.18,0,0,0-.06.24l.18.34,0,0a1.72,1.72,0,0,0-.27.27s0,0-.06-.07l-.34-.19a.16.16,0,0,0-.23.05l-.06.1a.18.18,0,0,0,.06.24l.33.2a.16.16,0,0,0,.1,0,1.26,1.26,0,0,0-.1.38h-.45a.18.18,0,0,0-.18.17v.1a.17.17,0,0,0,.17.18l.38,0,.08,0a2.76,2.76,0,0,0,.08.27l-.07,0-.34.18a.16.16,0,0,0-.06.23l.05.09a.16.16,0,0,0,.23.07l.34-.17Zm.42-.44a.86.86,0,0,1,.36-1.19.92.92,0,0,1,1.25.35.88.88,0,0,1-.38,1.22A.93.93,0,0,1,227.49,254.78Z"/><rect class="cls-17" x="226.68" y="257.09" width="3.24" height="5.47"/><polygon class="cls-16" points="250.12 252.55 258.54 252.55 258.54 254.7 253.3 254.7 253.29 256.3 258.12 256.29 258.12 258.34 253.3 258.34 253.3 260.23 258.63 260.31 258.63 262.52 250.12 262.52 250.12 252.55"/><polygon class="cls-16" points="262.42 262.52 262.42 252.55 266.58 252.55 268.11 258.72 269.74 252.55 273.85 252.55 273.85 262.52 271.28 262.52 271.29 254.73 269.29 262.52 266.96 262.52 265.03 255.03 265.01 262.52 262.42 262.52"/><path class="cls-16" d="M242,255.79l3-.6a3.52,3.52,0,0,0-1.65-2.27,8,8,0,0,0-4.83-.43c-1,.26-2.89.66-3.56,3.88a5.18,5.18,0,0,0,1.79,5.45c1.09.68,2.7,1.1,5.31.73a4.19,4.19,0,0,0,1-.3c1.13-.49,2.05-1.37,2.05-1.75v-3.63h-4.83v2.06h2.1v.89a3.33,3.33,0,0,1-2.29.66,2.21,2.21,0,0,1-2.11-2.05c-.11-.95,0-3,1-3.48a2.39,2.39,0,0,1,2.46,0A1.42,1.42,0,0,1,242,255.79Z"/><path class="cls-16" d="M245.08,261.1v-1l-2.8,1.28,1.09.75s.57-.27.9-.46A7.05,7.05,0,0,0,245.08,261.1Z"/><path class="cls-18" d="M119.47,256a20.59,20.59,0,0,1-.39,4,19.73,19.73,0,0,1-19.33,15.77A19.53,19.53,0,0,1,91.87,274a19.72,19.72,0,0,1,0-36.15,19.53,19.53,0,0,1,7.88-1.64A19.73,19.73,0,0,1,119.08,252,20.48,20.48,0,0,1,119.47,256Z"/><path class="cls-18" d="M119.47,256a20.59,20.59,0,0,1-.39,4,19.73,19.73,0,0,1-19.33,15.77A19.53,19.53,0,0,1,91.87,274a19.72,19.72,0,0,1,0-36.15,19.53,19.53,0,0,1,7.88-1.64A19.73,19.73,0,0,1,119.08,252,20.48,20.48,0,0,1,119.47,256Z"/><path class="cls-19" d="M99.75,236.25v39.43A19.53,19.53,0,0,1,91.87,274V237.89A19.53,19.53,0,0,1,99.75,236.25Z"/><path class="cls-19" d="M119.47,256a20.59,20.59,0,0,1-.39,4H80.43a20.15,20.15,0,0,1,0-7.89h38.65A20.48,20.48,0,0,1,119.47,256Z"/><path class="cls-20" d="M166.63,256a20.1,20.1,0,0,1-.15,2.47,19.71,19.71,0,0,1-19.57,17.25h-2.46v-.15a19.35,19.35,0,0,1-4.93-1.29,18.76,18.76,0,0,1-2.47-1.2,19.72,19.72,0,0,1-9.7-14.61,20.33,20.33,0,0,1,0-4.93,18.12,18.12,0,0,1,.47-2.46,19.75,19.75,0,0,1,9.23-12.15,20.17,20.17,0,0,1,2.47-1.21,19.75,19.75,0,0,1,4.93-1.28v-.15h2.46A19.72,19.72,0,0,1,166,251a18.12,18.12,0,0,1,.47,2.46A20.06,20.06,0,0,1,166.63,256Z"/><path class="cls-1" d="M146.91,236.25v39.43h-2.46v-.15a19.35,19.35,0,0,1-4.93-1.29,18.76,18.76,0,0,1-2.47-1.2V238.89a20.17,20.17,0,0,1,2.47-1.21,19.75,19.75,0,0,1,4.93-1.28v-.15Z"/><path class="cls-1" d="M166.63,256a20.1,20.1,0,0,1-.15,2.47,19.79,19.79,0,0,1-.47,2.46H127.82a19.79,19.79,0,0,1-.47-2.46,20.33,20.33,0,0,1,0-4.93,18.12,18.12,0,0,1,.47-2.46H166a18.12,18.12,0,0,1,.47,2.46A20.06,20.06,0,0,1,166.63,256Z"/><path class="cls-21" d="M144.45,236.4v39.13a19.35,19.35,0,0,1-4.93-1.29V237.68A19.75,19.75,0,0,1,144.45,236.4Z"/><path class="cls-21" d="M166.63,256a20.1,20.1,0,0,1-.15,2.47H127.35a20.33,20.33,0,0,1,0-4.93h39.13A20.06,20.06,0,0,1,166.63,256Z"/><path class="cls-22" d="M119.47,303.08a20.13,20.13,0,0,1-.2,2.82,19.72,19.72,0,0,1-39,0,20,20,0,0,1,0-5.64,19.72,19.72,0,0,1,39,0A20.13,20.13,0,0,1,119.47,303.08Z"/><path class="cls-1" d="M99.75,283.36V322.8a19.7,19.7,0,0,1-5.63-.82v-37.8A19.7,19.7,0,0,1,99.75,283.36Z"/><path class="cls-1" d="M119.47,303.08a20.13,20.13,0,0,1-.2,2.82h-39a20,20,0,0,1,0-5.64h39A20.13,20.13,0,0,1,119.47,303.08Z"/><path class="cls-1" d="M166.63,303.08a19.69,19.69,0,0,1-19.72,19.72,19.72,19.72,0,0,1-19-14.34,19.72,19.72,0,0,1,8.22-21.91,19.72,19.72,0,0,1,29.73,11.15A19.91,19.91,0,0,1,166.63,303.08Z"/><path class="cls-23" d="M166.63,303.08a19.91,19.91,0,0,1-.74,5.38H127.94a19.93,19.93,0,0,1,0-10.76h37.95A19.91,19.91,0,0,1,166.63,303.08Z"/><path class="cls-23" d="M146.91,283.36V322.8a19.59,19.59,0,0,1-10.75-3.19V286.55A19.68,19.68,0,0,1,146.91,283.36Z"/></svg>