<?xml version="1.0" encoding="UTF-8" standalone="no"?><!DOCTYPE svg PUBLIC "-//W3C//DTD SVG 1.1//EN" "http://www.w3.org/Graphics/SVG/1.1/DTD/svg11.dtd"><svg width="100%" height="100%" viewBox="0 0 360 181" version="1.1" xmlns="http://www.w3.org/2000/svg" xmlns:xlink="http://www.w3.org/1999/xlink" xml:space="preserve" style="fill-rule:evenodd;clip-rule:evenodd;"><rect id="T.-.-Lund.-.-DescriptionMolecule" x="0" y="0" width="360" height="181" style="fill:none;"/><circle cx="170.02" cy="90.665" r="9.98" style="fill:#fed500;fill-opacity:0.8;"/><path d="M142.371,115.105l-14.811,-14.46l42.803,-10.735l-27.992,25.195Z" style="fill:#c8daf4;fill-rule:nonzero;"/><ellipse cx="90.72" cy="128.1" rx="54.575" ry="40.168" style="fill:#c8daf4;"/><g><path d="M74.891,134.631l-11.15,6.595l-11.286,-6.36l-0.135,-12.954l11.15,-6.594l11.285,6.359l0.136,12.954Z" style="fill:none;stroke:#000;stroke-width:1px;"/><path d="M74.755,121.677l8.985,-6.572" style="fill:none;stroke:#000;stroke-width:1px;"/><path d="M74.891,134.631l9.12,6.382" style="fill:none;stroke:#000;stroke-width:1px;"/><path d="M83.74,115.105l9.12,6.383" style="fill:none;stroke:#000;stroke-width:1px;"/><path d="M84.011,141.013l8.985,-6.572" style="fill:none;stroke:#000;stroke-width:1px;"/><path d="M92.86,121.488l8.984,-6.572" style="fill:none;stroke:#000;stroke-width:1px;"/><path d="M101.844,114.916l9.121,6.382" style="fill:none;stroke:#000;stroke-width:1px;"/><path d="M92.911,134.442l9.12,6.382" style="fill:none;stroke:#000;stroke-width:1px;"/><path d="M102.031,140.824l8.984,-6.572" style="fill:none;stroke:#000;stroke-width:1px;"/><path d="M110.88,121.298l8.984,-6.571" style="fill:none;stroke:#000;stroke-width:1px;"/><path d="M119.864,114.727l9.12,6.382" style="fill:none;stroke:#000;stroke-width:1px;"/><path d="M111.015,134.252l9.12,6.382" style="fill:none;stroke:#000;stroke-width:1px;"/><path d="M120.135,140.634l8.985,-6.572" style="fill:none;stroke:#000;stroke-width:1px;"/><path d="M55.01,121.884l0.135,12.954" style="fill:none;stroke:#000;stroke-width:1px;"/><path d="M62.595,117.427l10.524,5.93" style="fill:none;stroke:#000;stroke-width:1px;"/><path d="M73.219,132.818l-10.398,6.15" style="fill:none;stroke:#000;stroke-width:1px;"/><path d="M82.555,115.971l-0.124,-11.868" style="fill:none;stroke:#000;stroke-width:1px;"/><path d="M84.942,115.947l-0.125,-11.87" style="fill:none;stroke:#000;stroke-width:1px;"/><path d="M82.935,152.178l-0.124,-11.87" style="fill:none;stroke:#000;stroke-width:1px;"/><path d="M85.322,152.153l-0.125,-11.87" style="fill:none;stroke:#000;stroke-width:1px;"/><circle cx="83.603" cy="102.066" r="2.522" style="fill:none;stroke:#000;stroke-width:1px;"/><circle cx="84.149" cy="154.133" r="2.522" style="fill:none;stroke:#000;stroke-width:1px;"/></g><circle cx="214.48" cy="106.431" r="8" style="fill:#f87eac;fill-opacity:0.8;"/><path d="M214.48,106.8l30.082,-37.736l14.17,18.083l-44.252,19.653Z" style="fill:#c8daf4;fill-rule:nonzero;"/><ellipse cx="284.484" cy="58.963" rx="44.878" ry="38.82" style="fill:#c8daf4;"/><g><path d="M274.372,74.5l-10.398,6.003l-10.397,-6.003l0,-12.006l10.397,-6.004l10.398,6.004l0,12.006Z" style="fill:none;stroke:#000;stroke-width:1px;"/><path d="M295.166,74.5l-10.397,6.003l-10.397,-6.003l0,-12.006l10.397,-6.004l10.397,6.004l0,12.006Z" style="fill:none;stroke:#000;stroke-width:1px;"/><path d="M315.962,74.5l-10.398,6.003l-10.398,-6.003l0,-12.006l10.398,-6.004l10.398,6.004l0,12.006Z" style="fill:none;stroke:#000;stroke-width:1px;"/><path d="M284.769,56.49l0,-11.088" style="fill:none;stroke:#000;stroke-width:1px;"/><g transform="matrix(0.17675,0,0,0.17675,277.832,43.4981)"><text x="0px" y="0px" style="font-family:'LucidaGrande', 'Lucida Grande', sans-serif;font-weight:500;font-size:103.442px;fill:none;">cl</text><text x="0px" y="0px" style="font-family:'LucidaGrande', 'Lucida Grande', sans-serif;font-weight:500;font-size:103.442px;">cl</text></g></g></svg>