<?xml version="1.0" encoding="UTF-8" standalone="no"?><!DOCTYPE svg PUBLIC "-//W3C//DTD SVG 1.1//EN" "http://www.w3.org/Graphics/SVG/1.1/DTD/svg11.dtd"><svg width="100%" height="100%" viewBox="0 0 128 64" version="1.1" xmlns="http://www.w3.org/2000/svg" xmlns:xlink="http://www.w3.org/1999/xlink" xml:space="preserve" style="fill-rule:evenodd;clip-rule:evenodd;stroke-linejoin:round;stroke-miterlimit:1.41421;"><rect id="logo.-web" x="0" y="0" width="128" height="64" style="fill:none;"/><clipPath id="_clip1"><rect x="0" y="0" width="128" height="64"/></clipPath><g clip-path="url(#_clip1)"><path d="M89.119,45.496c0.272,0 0.513,0.1 0.722,0.3c0.209,0.2 0.314,0.445 0.314,0.736l0,8.834c0,1.945 -0.7,3.472 -2.1,4.581c-1.199,0.982 -2.644,1.472 -4.335,1.472c-1.709,0 -3.154,-0.49 -4.335,-1.472c-1.382,-1.127 -2.072,-2.654 -2.072,-4.581l0,-8.834c0,-0.273 0.1,-0.513 0.3,-0.722c0.2,-0.209 0.436,-0.314 0.708,-0.314c0.273,0 0.514,0.1 0.723,0.3c0.209,0.2 0.314,0.445 0.314,0.736l0,8.889c0,1.327 0.454,2.363 1.363,3.108c0.836,0.691 1.836,1.036 2.999,1.036c1.182,0 2.191,-0.345 3.027,-1.036c0.909,-0.763 1.363,-1.799 1.363,-3.108l0,-8.889c0,-0.273 0.1,-0.513 0.3,-0.722c0.2,-0.209 0.436,-0.314 0.709,-0.314Zm-72.896,14.015c1.4,0 2.709,-0.327 3.926,-0.982l0,-4.035l-3.708,0c-0.254,0 -0.468,-0.091 -0.64,-0.273c-0.173,-0.182 -0.26,-0.4 -0.26,-0.654c0,-0.255 0.091,-0.473 0.273,-0.655c0.182,-0.181 0.391,-0.272 0.627,-0.272l4.417,0c0.291,0 0.541,0.104 0.75,0.313c0.209,0.209 0.314,0.468 0.314,0.777l0,5.045c0,0.327 -0.078,0.613 -0.232,0.858c-0.155,0.246 -0.359,0.423 -0.614,0.532c-1.672,0.836 -3.371,1.254 -5.098,1.254c-2.345,0 -4.236,-0.745 -5.672,-2.235c-1.436,-1.491 -2.163,-3.409 -2.181,-5.754c0,-2.363 0.754,-4.317 2.263,-5.862c1.436,-1.454 3.272,-2.181 5.508,-2.181c1.272,0 2.345,0.154 3.217,0.464c0.873,0.309 1.654,0.69 2.345,1.145c0.291,0.163 0.436,0.4 0.436,0.709c0,0.309 -0.077,0.554 -0.231,0.736c-0.155,0.182 -0.35,0.272 -0.587,0.272c-0.236,0 -0.427,-0.036 -0.572,-0.109c-1.436,-0.836 -2.899,-1.254 -4.39,-1.254c-1.727,0 -3.145,0.527 -4.253,1.582c-1.146,1.108 -1.709,2.608 -1.691,4.498c0,1.764 0.527,3.209 1.582,4.336c1.108,1.163 2.599,1.745 4.471,1.745Zm90.237,1.799l-0.273,0c-0.49,0 -0.881,-0.2 -1.172,-0.6l-8.643,-12.487l0,12.078c0,0.273 -0.1,0.509 -0.3,0.709c-0.2,0.2 -0.446,0.3 -0.737,0.3c-0.272,0 -0.509,-0.1 -0.708,-0.3c-0.2,-0.2 -0.3,-0.436 -0.3,-0.709l0,-13.333c0,-0.399 0.14,-0.745 0.422,-1.036c0.282,-0.291 0.632,-0.436 1.05,-0.436l0.273,0c0.472,0 0.89,0.227 1.254,0.682l8.589,12.406l0,-12.052c0,-0.273 0.1,-0.513 0.3,-0.722c0.2,-0.209 0.436,-0.314 0.709,-0.314c0.272,0 0.508,0.1 0.708,0.3c0.2,0.2 0.3,0.445 0.3,0.736l0,13.333c0,0.4 -0.145,0.741 -0.436,1.023c-0.291,0.281 -0.636,0.422 -1.036,0.422Zm-50.81,-15.814c0.418,0 0.768,0.145 1.05,0.436c0.281,0.291 0.422,0.637 0.422,1.036l0,13.333c0,0.273 -0.1,0.509 -0.3,0.709c-0.2,0.2 -0.436,0.3 -0.709,0.3c-0.272,0 -0.509,-0.1 -0.709,-0.3c-0.2,-0.2 -0.3,-0.436 -0.3,-0.709l0,-12.678l-5.18,12.76c-0.109,0.273 -0.291,0.496 -0.545,0.668c-0.255,0.173 -0.546,0.259 -0.873,0.259c-0.327,0 -0.618,-0.081 -0.872,-0.245c-0.255,-0.164 -0.446,-0.391 -0.573,-0.682l-5.153,-12.76l0,12.678c0,0.273 -0.1,0.509 -0.3,0.709c-0.2,0.2 -0.446,0.3 -0.736,0.3c-0.273,0 -0.509,-0.1 -0.709,-0.3c-0.2,-0.2 -0.3,-0.436 -0.3,-0.709l0,-13.333c0,-0.399 0.141,-0.745 0.422,-1.036c0.282,-0.291 0.632,-0.436 1.05,-0.436l0.736,0c0.291,0 0.559,0.091 0.805,0.273c0.245,0.181 0.431,0.4 0.559,0.654l5.071,12.652l5.072,-12.652c0.109,-0.254 0.286,-0.473 0.531,-0.654c0.246,-0.182 0.523,-0.273 0.832,-0.273l0.709,0Zm-52.624,5.235c0,-0.309 0.1,-0.559 0.3,-0.75c0.2,-0.191 0.446,-0.286 0.736,-0.286c0.291,0 0.528,0.095 0.709,0.286c0.182,0.191 0.273,0.441 0.273,0.75l0,9.57c0,0.273 -0.091,0.509 -0.273,0.709c-0.181,0.2 -0.418,0.3 -0.709,0.3c-0.29,0 -0.536,-0.1 -0.736,-0.3c-0.2,-0.2 -0.3,-0.436 -0.3,-0.709l0,-9.57Zm114.722,10.47l-4.499,0c-0.272,0 -0.509,-0.1 -0.709,-0.3c-0.2,-0.2 -0.3,-0.436 -0.3,-0.709l0,-13.551c0,-0.272 0.1,-0.513 0.3,-0.722c0.2,-0.209 0.437,-0.314 0.709,-0.314l4.499,0c2.49,0 4.472,0.836 5.944,2.509c0.654,0.727 1.141,1.554 1.459,2.481c0.318,0.927 0.477,1.863 0.477,2.808c0,0.945 -0.159,1.882 -0.477,2.809c-0.318,0.927 -0.805,1.754 -1.459,2.481c-1.472,1.672 -3.454,2.508 -5.944,2.508Zm-43.816,0l-7.935,0c-0.4,0 -0.736,-0.136 -1.009,-0.409c-0.272,-0.272 -0.409,-0.609 -0.409,-1.009l0,-13.251c0,-0.273 0.1,-0.513 0.3,-0.722c0.2,-0.209 0.437,-0.314 0.709,-0.314c0.273,0 0.514,0.1 0.723,0.3c0.209,0.2 0.313,0.445 0.313,0.736l0,12.652l7.308,0c0.291,0 0.531,0.095 0.722,0.286c0.191,0.191 0.286,0.432 0.286,0.722c0,0.273 -0.095,0.509 -0.286,0.709c-0.191,0.2 -0.431,0.3 -0.722,0.3Zm-38.323,0l-8.97,0c-0.273,0 -0.509,-0.1 -0.709,-0.3c-0.2,-0.2 -0.3,-0.436 -0.3,-0.709l0,-13.551c0,-0.272 0.1,-0.513 0.3,-0.722c0.2,-0.209 0.436,-0.314 0.709,-0.314l8.97,0c0.255,0 0.477,0.096 0.668,0.286c0.191,0.191 0.287,0.414 0.287,0.668c0,0.255 -0.096,0.478 -0.287,0.668c-0.191,0.191 -0.413,0.287 -0.668,0.287l-7.934,0l0,4.935l7.116,0c0.255,0 0.477,0.091 0.668,0.273c0.191,0.181 0.287,0.409 0.287,0.681c0,0.255 -0.091,0.477 -0.273,0.668c-0.182,0.191 -0.409,0.286 -0.682,0.286l-7.116,0l0,4.936l7.934,0c0.255,0 0.477,0.095 0.668,0.286c0.191,0.191 0.287,0.423 0.287,0.695c0,0.255 -0.096,0.473 -0.287,0.655c-0.191,0.181 -0.413,0.272 -0.668,0.272Zm81.894,-13.687l-3.218,0l0,11.779l3.218,0c1.854,0 3.344,-0.546 4.471,-1.636c1.109,-1.091 1.664,-2.509 1.664,-4.254c0,-1.745 -0.555,-3.163 -1.664,-4.253c-1.127,-1.091 -2.617,-1.636 -4.471,-1.636Zm-113.386,-0.028l-0.136,0c-0.327,0 -0.596,-0.109 -0.805,-0.327c-0.209,-0.218 -0.313,-0.491 -0.313,-0.818l0,-0.082c0,-0.327 0.109,-0.599 0.327,-0.817c0.218,-0.219 0.482,-0.328 0.791,-0.328l0.136,0c0.327,0 0.6,0.109 0.818,0.328c0.218,0.218 0.327,0.49 0.327,0.817l0,0.082c0,0.327 -0.109,0.6 -0.327,0.818c-0.218,0.218 -0.491,0.327 -0.818,0.327Zm77.834,-30.07c1.006,-1.869 2.025,-3.732 3.132,-5.543c0.482,-0.79 0.982,-1.569 1.511,-2.328c0.484,-0.695 0.993,-1.374 1.542,-2.02c0.644,-0.756 1.346,-1.471 2.146,-2.063c1.38,-1.021 2.971,-1.74 4.619,-2.205c1.308,-0.369 2.659,-0.581 4.015,-0.651c1.419,-0.073 2.847,0.01 4.247,0.255c1.528,0.268 3.028,0.73 4.419,1.421c0.492,0.245 0.97,0.519 1.428,0.823c0.252,0.166 0.498,0.342 0.735,0.528c0.434,0.34 0.841,0.715 1.231,1.105c0.477,0.477 0.931,0.978 1.37,1.491c0.526,0.615 1.031,1.247 1.523,1.888c0.539,0.703 1.062,1.419 1.575,2.141c1.256,1.771 2.45,3.585 3.611,5.419c0.688,-1.134 1.365,-2.274 2.034,-3.418c0.931,-1.593 1.847,-3.196 2.747,-4.806c0.649,-1.16 1.29,-2.324 1.919,-3.494l0.034,-0.063l0.292,-0.356l0.405,-0.216c0.455,-0.045 0.461,-0.044 0.897,0.089l0.356,0.291l0.216,0.406l0.045,0.457c-0.045,0.147 -0.085,0.295 -0.134,0.44c-0.007,0.024 -0.023,0.044 -0.035,0.066c-0.034,0.063 -0.068,0.127 -0.102,0.19c-0.055,0.103 -0.111,0.205 -0.166,0.308c-0.169,0.312 -0.339,0.624 -0.51,0.936c-0.541,0.986 -1.087,1.969 -1.639,2.949c-0.91,1.615 -1.835,3.221 -2.776,4.818c-0.719,1.22 -1.447,2.434 -2.188,3.64c0.853,1.389 1.689,2.788 2.513,4.194c0.913,1.558 1.811,3.125 2.695,4.7c0.736,1.31 1.462,2.625 2.173,3.948l0.035,0.066c0.133,0.437 0.134,0.443 0.089,0.897l-0.216,0.406l-0.356,0.291l-0.439,0.134c-0.455,-0.045 -0.461,-0.046 -0.863,-0.261l-0.292,-0.356c-0.173,-0.322 -0.347,-0.644 -0.522,-0.965c-0.204,-0.374 -0.409,-0.748 -0.615,-1.122c-1.42,-2.571 -2.874,-5.123 -4.372,-7.65c-0.405,-0.683 -0.813,-1.365 -1.225,-2.044c-0.718,1.134 -1.45,2.26 -2.199,3.373c-0.873,1.297 -1.771,2.578 -2.712,3.825c-0.763,1.011 -1.554,2.002 -2.406,2.939c-0.352,0.388 -0.715,0.766 -1.095,1.126c-0.313,0.297 -0.637,0.581 -0.979,0.844c-0.523,0.401 -1.082,0.757 -1.662,1.07c-1.006,0.543 -2.077,0.96 -3.178,1.265c-0.967,0.268 -1.958,0.45 -2.956,0.553c-0.762,0.079 -1.529,0.111 -2.295,0.098c-0.574,-0.009 -1.148,-0.045 -1.719,-0.106c-1.712,-0.185 -3.407,-0.601 -4.987,-1.291c-0.65,-0.284 -1.28,-0.615 -1.878,-0.996c-0.291,-0.185 -0.576,-0.383 -0.85,-0.593c-0.416,-0.32 -0.805,-0.673 -1.173,-1.047c-0.37,-0.374 -0.719,-0.769 -1.053,-1.175c-0.358,-0.435 -0.699,-0.884 -1.029,-1.342c-0.772,-1.074 -1.48,-2.194 -2.158,-3.33c-0.788,-1.319 -1.535,-2.663 -2.268,-4.013c-0.17,-0.313 -0.339,-0.626 -0.507,-0.94c-0.675,1.253 -1.355,2.503 -2.064,3.737c-0.572,0.997 -1.161,1.984 -1.785,2.949c-0.57,0.882 -1.167,1.747 -1.817,2.572c-0.556,0.704 -1.15,1.382 -1.811,1.989c-0.204,0.187 -0.414,0.367 -0.631,0.538c-0.463,0.363 -0.957,0.688 -1.468,0.979c-0.897,0.512 -1.852,0.92 -2.835,1.234c-1.682,0.537 -3.448,0.805 -5.211,0.835c-0.957,0.017 -1.916,-0.038 -2.864,-0.165c-0.885,-0.119 -1.763,-0.301 -2.62,-0.552c-1.195,-0.35 -2.353,-0.833 -3.424,-1.47c-0.555,-0.331 -1.089,-0.702 -1.582,-1.121c-0.699,-0.597 -1.323,-1.279 -1.902,-1.991c-0.682,-0.837 -1.304,-1.723 -1.895,-2.626c-0.677,-1.036 -1.313,-2.098 -1.929,-3.171c-0.709,-1.234 -1.389,-2.484 -2.064,-3.737c-1.006,1.869 -2.025,3.733 -3.132,5.544c-0.482,0.79 -0.982,1.569 -1.511,2.328c-0.484,0.695 -0.993,1.374 -1.542,2.02c-0.644,0.756 -1.346,1.471 -2.146,2.063c-1.38,1.021 -2.971,1.74 -4.619,2.205c-1.308,0.369 -2.659,0.581 -4.015,0.651c-1.419,0.073 -2.847,-0.01 -4.247,-0.255c-1.528,-0.268 -3.028,-0.73 -4.419,-1.421c-0.492,-0.245 -0.97,-0.519 -1.428,-0.822c-0.252,-0.167 -0.498,-0.343 -0.735,-0.529c-0.434,-0.34 -0.841,-0.715 -1.231,-1.105c-0.477,-0.477 -0.931,-0.978 -1.37,-1.491c-0.493,-0.577 -0.968,-1.169 -1.432,-1.77c-0.571,-0.741 -1.124,-1.496 -1.666,-2.259c-1.208,-1.704 -2.359,-3.448 -3.479,-5.211c-0.044,-0.069 -0.088,-0.139 -0.132,-0.208c-0.688,1.134 -1.365,2.274 -2.034,3.418c-0.931,1.593 -1.847,3.196 -2.747,4.806c-0.649,1.16 -1.29,2.323 -1.919,3.494l-0.034,0.063c-0.29,0.353 -0.294,0.357 -0.697,0.572l-0.458,0.045l-0.439,-0.134l-0.356,-0.291l-0.216,-0.406l-0.045,-0.457c0.045,-0.147 0.085,-0.295 0.134,-0.44c0.007,-0.024 0.023,-0.044 0.035,-0.066c0.034,-0.063 0.068,-0.127 0.102,-0.19c0.175,-0.325 0.351,-0.649 0.527,-0.972c0.433,-0.791 0.869,-1.58 1.309,-2.367c1.332,-2.381 2.694,-4.745 4.094,-7.085c0.446,-0.745 0.895,-1.488 1.349,-2.227c-0.853,-1.389 -1.689,-2.788 -2.513,-4.194c-0.913,-1.558 -1.811,-3.125 -2.695,-4.7c-0.736,-1.31 -1.462,-2.625 -2.173,-3.948l-0.035,-0.066c-0.133,-0.437 -0.134,-0.443 -0.089,-0.897l0.216,-0.406l0.356,-0.291l0.439,-0.134c0.153,0.015 0.311,0.001 0.458,0.045c0.146,0.044 0.287,0.119 0.405,0.216c0.119,0.098 0.198,0.235 0.292,0.356c0.015,0.019 0.023,0.042 0.034,0.063c0.033,0.062 0.067,0.125 0.1,0.187c0.129,0.238 0.258,0.477 0.388,0.715c0.204,0.374 0.409,0.748 0.615,1.122c1.42,2.571 2.874,5.123 4.372,7.65c0.405,0.683 0.813,1.365 1.225,2.044c0.353,-0.557 0.708,-1.111 1.068,-1.664c1.085,-1.667 2.202,-3.314 3.382,-4.916c0.446,-0.605 0.902,-1.204 1.371,-1.791c0.401,-0.502 0.811,-0.997 1.237,-1.478c0.356,-0.402 0.722,-0.796 1.105,-1.173c0.315,-0.311 0.642,-0.612 0.985,-0.892c0.307,-0.252 0.63,-0.484 0.962,-0.701c1.016,-0.665 2.125,-1.182 3.275,-1.568c1.386,-0.466 2.834,-0.744 4.292,-0.856c0.382,-0.03 0.765,-0.047 1.148,-0.054c0.137,-0.002 0.274,-0.003 0.411,-0.003c0.356,0.002 0.711,0.013 1.067,0.034c1.78,0.107 3.554,0.459 5.222,1.095c0.812,0.31 1.599,0.689 2.341,1.142c0.362,0.221 0.714,0.46 1.05,0.718c0.416,0.319 0.805,0.673 1.173,1.047c0.397,0.402 0.771,0.827 1.127,1.266c0.411,0.504 0.799,1.026 1.173,1.558c0.4,0.57 0.782,1.151 1.154,1.74c0.93,1.475 1.791,2.992 2.63,4.52c0.314,0.571 0.623,1.142 0.932,1.715c0.719,-1.336 1.445,-2.669 2.205,-3.983c0.615,-1.064 1.252,-2.117 1.931,-3.143c0.591,-0.892 1.215,-1.765 1.9,-2.588c0.581,-0.698 1.208,-1.365 1.912,-1.942c0.326,-0.267 0.67,-0.513 1.024,-0.741c0.662,-0.428 1.364,-0.793 2.089,-1.101c0.813,-0.345 1.656,-0.617 2.514,-0.825c1.058,-0.256 2.14,-0.413 3.226,-0.478c0.355,-0.021 0.711,-0.032 1.067,-0.034c0.055,0 0.109,0 0.164,0c0.356,0.002 0.712,0.013 1.067,0.034c1.807,0.108 3.607,0.469 5.297,1.124c0.786,0.304 1.548,0.673 2.267,1.113c0.362,0.221 0.713,0.46 1.05,0.718c0.416,0.319 0.805,0.673 1.173,1.047c0.397,0.402 0.77,0.827 1.127,1.266c0.41,0.504 0.799,1.026 1.172,1.558c0.4,0.57 0.783,1.151 1.154,1.74c0.931,1.474 1.792,2.992 2.631,4.52c0.313,0.571 0.623,1.142 0.931,1.715Zm-16.773,-12.438l0,29.874c1.099,-0.077 2.191,-0.262 3.249,-0.566c0.966,-0.278 1.906,-0.657 2.78,-1.156c0.2,-0.114 0.398,-0.235 0.59,-0.362l0,-25.707c-0.157,-0.104 -0.317,-0.203 -0.478,-0.298c-0.846,-0.496 -1.756,-0.877 -2.693,-1.161c-1.12,-0.34 -2.28,-0.543 -3.448,-0.624Zm35.902,0l0,29.873c0.562,-0.039 1.121,-0.107 1.676,-0.204c1.219,-0.214 2.418,-0.569 3.54,-1.095c0.484,-0.228 0.956,-0.488 1.403,-0.784l0,-25.706c-0.032,-0.022 -0.065,-0.043 -0.097,-0.064c-0.419,-0.27 -0.856,-0.509 -1.306,-0.721c-1.25,-0.587 -2.597,-0.961 -3.961,-1.163c-0.416,-0.061 -0.835,-0.107 -1.255,-0.136Zm-38.258,-0.001c-1.122,0.078 -2.237,0.27 -3.315,0.586c-0.964,0.282 -1.9,0.664 -2.77,1.168c-0.181,0.105 -0.36,0.215 -0.534,0.33l0,25.707c0.175,0.116 0.353,0.225 0.534,0.33c0.83,0.48 1.721,0.851 2.637,1.129c1.12,0.339 2.28,0.543 3.448,0.624l0,-29.874Zm-35.902,0.001c-0.42,0.029 -0.839,0.075 -1.255,0.136c-1.321,0.195 -2.624,0.552 -3.84,1.107c-0.455,0.208 -0.896,0.443 -1.319,0.709c-0.069,0.043 -0.137,0.087 -0.205,0.132l0,25.705c0.015,0.01 0.03,0.02 0.044,0.029c0.434,0.284 0.89,0.535 1.359,0.756c1.25,0.587 2.597,0.961 3.961,1.163c0.416,0.061 0.835,0.107 1.255,0.136l0,-29.873Zm2.356,0l0,29.873c1.076,-0.075 2.145,-0.253 3.183,-0.546c1.21,-0.342 2.387,-0.842 3.437,-1.538l0,-25.705c-1.05,-0.696 -2.227,-1.196 -3.437,-1.538c-1.038,-0.293 -2.107,-0.471 -3.183,-0.546Zm69.448,0c-1.076,0.075 -2.145,0.253 -3.183,0.546c-1.21,0.342 -2.387,0.842 -3.437,1.538l0,25.706c0.283,0.187 0.576,0.36 0.875,0.519c0.772,0.412 1.59,0.734 2.429,0.979c1.079,0.316 2.194,0.507 3.316,0.585l0,-29.873Zm-80.779,4.213c-0.198,0.219 -0.392,0.441 -0.583,0.666c-0.531,0.626 -1.041,1.271 -1.537,1.925c-0.491,0.647 -0.97,1.304 -1.438,1.968c-1.282,1.818 -2.502,3.679 -3.687,5.561c-0.127,0.201 -0.253,0.402 -0.379,0.604c0.368,0.588 0.738,1.174 1.113,1.758c1.039,1.62 2.106,3.224 3.226,4.79c0.465,0.651 0.94,1.295 1.428,1.929c0.439,0.569 0.889,1.13 1.356,1.676c0.165,0.192 0.331,0.382 0.501,0.57l0,-21.447Zm92.11,0l0,21.447c0.715,-0.792 1.385,-1.626 2.032,-2.475c0.848,-1.112 1.657,-2.253 2.445,-3.408c0.95,-1.394 1.869,-2.809 2.768,-4.237c0.127,-0.201 0.253,-0.402 0.379,-0.604c-0.307,-0.491 -0.617,-0.982 -0.929,-1.47c-1.097,-1.719 -2.224,-3.42 -3.41,-5.078c-0.493,-0.69 -0.996,-1.372 -1.516,-2.041c-0.411,-0.531 -0.832,-1.054 -1.268,-1.564c-0.165,-0.192 -0.332,-0.383 -0.501,-0.57Zm-56.208,0.079c-0.095,0.115 -0.189,0.231 -0.281,0.348c-0.605,0.767 -1.159,1.572 -1.689,2.391c-0.601,0.931 -1.169,1.883 -1.721,2.844c-0.766,1.334 -1.499,2.688 -2.227,4.043c-0.182,0.339 -0.363,0.679 -0.544,1.018c0.181,0.34 0.362,0.679 0.544,1.019c0.232,0.432 0.464,0.864 0.698,1.295c0.633,1.163 1.274,2.321 1.944,3.463c0.568,0.967 1.155,1.923 1.783,2.851c0.469,0.693 0.96,1.372 1.493,2.017l0,-21.289Zm20.306,0l0,21.289c0.073,-0.087 0.144,-0.176 0.215,-0.264c0.63,-0.792 1.206,-1.626 1.755,-2.475c0.652,-1.009 1.265,-2.043 1.859,-3.086c0.717,-1.256 1.405,-2.528 2.089,-3.801c0.182,-0.339 0.363,-0.679 0.544,-1.018c-0.181,-0.34 -0.362,-0.679 -0.544,-1.019c-0.186,-0.346 -0.372,-0.692 -0.559,-1.037c-0.677,-1.25 -1.363,-2.495 -2.083,-3.721c-0.547,-0.932 -1.113,-1.853 -1.715,-2.75c-0.489,-0.728 -1.002,-1.442 -1.561,-2.118Zm15.595,0c-0.027,0.033 -0.055,0.066 -0.082,0.1c-0.475,0.584 -0.918,1.194 -1.342,1.817c-0.502,0.737 -0.977,1.491 -1.437,2.255c-1.076,1.785 -2.07,3.618 -3.057,5.454c-0.181,0.339 -0.363,0.679 -0.544,1.018c0.181,0.34 0.363,0.679 0.544,1.019c0.186,0.346 0.372,0.692 0.559,1.037c0.932,1.719 1.879,3.431 2.91,5.092c0.436,0.702 0.886,1.394 1.363,2.068c0.346,0.488 0.705,0.968 1.086,1.429l0,-21.289Zm-51.496,0l0,21.289c0.027,-0.033 0.055,-0.066 0.082,-0.1c0.475,-0.584 0.918,-1.194 1.342,-1.817c0.502,-0.737 0.977,-1.491 1.438,-2.255c1.075,-1.785 2.069,-3.618 3.056,-5.454c0.181,-0.34 0.363,-0.679 0.544,-1.019c-0.181,-0.339 -0.363,-0.678 -0.544,-1.018c-0.987,-1.836 -1.981,-3.669 -3.056,-5.454c-0.461,-0.764 -0.936,-1.518 -1.438,-2.255c-0.443,-0.651 -0.908,-1.289 -1.408,-1.898l-0.016,-0.019Z" style="fill:#fff;"/></g></svg>