<?xml version="1.0" encoding="utf-8"?>
<!-- Generator: Adobe Illustrator 14.0.0, SVG Export Plug-In  -->
<!DOCTYPE svg PUBLIC "-//W3C//DTD SVG 1.1//EN" "http://www.w3.org/Graphics/SVG/1.1/DTD/svg11.dtd" [
	<!ENTITY ns_flows "http://ns.adobe.com/Flows/1.0/">
]>
<svg version="1.1"
	 xmlns="http://www.w3.org/2000/svg" xmlns:xlink="http://www.w3.org/1999/xlink" xmlns:a="http://ns.adobe.com/AdobeSVGViewerExtensions/3.0/"
	 x="0px" y="0px" width="400px" height="400px" viewBox="-18.114 -27.96 400 400" enable-background="new -18.114 -27.96 400 400"
	 xml:space="preserve">
<defs>
</defs>
<path fill="#136739" d="M200.316,45.474l-6.424,36.191l18.092,3.212l6.428-36.192L200.316,45.474z M211.061,59.579l1.334,0.235
	l-0.234,1.335l-1.336-0.235L211.061,59.579z M210.566,62.379l1.334,0.236l-0.234,1.335l-1.336-0.236L210.566,62.379z M206.588,58.79
	l1.336,0.235l-0.236,1.335l-1.334-0.235L206.588,58.79z M206.096,61.59l1.334,0.235l-0.236,1.335l-1.334-0.236L206.096,61.59z
	 M202.119,58.001l1.334,0.235l-0.236,1.335l-1.334-0.235L202.119,58.001z M201.625,60.802l1.334,0.235l-0.236,1.335l-1.334-0.235
	L201.625,60.802z M199.76,79.175l-1.334-0.235l0.234-1.335l1.336,0.235L199.76,79.175z M200.254,76.375l-1.334-0.235l0.234-1.335
	l1.334,0.235L200.254,76.375z M200.748,73.574l-1.334-0.235l0.234-1.335l1.334,0.235L200.748,73.574z M201.242,70.774l-1.336-0.236
	l0.236-1.335l1.334,0.236L201.242,70.774z M201.736,67.974l-1.334-0.236l0.234-1.335l1.336,0.236L201.736,67.974z M202.23,65.173
	l-1.336-0.235l0.236-1.335l1.336,0.235L202.23,65.173z M203.713,56.771l-1.336-0.235l0.236-1.335l1.334,0.235L203.713,56.771z
	 M204.207,53.971l-1.336-0.236l0.236-1.335l1.334,0.236L204.207,53.971z M204.701,51.17l-1.336-0.235l0.236-1.335l1.334,0.235
	L204.701,51.17z M204.23,79.964l-1.334-0.235l0.234-1.335l1.336,0.235L204.23,79.964z M204.725,77.164l-1.334-0.236l0.234-1.335
	l1.336,0.236L204.725,77.164z M205.219,74.363l-1.334-0.235l0.234-1.335l1.336,0.235L205.219,74.363z M205.713,71.563l-1.334-0.235
	l0.234-1.335l1.336,0.236L205.713,71.563z M206.209,68.762l-1.336-0.235l0.236-1.335l1.334,0.236L206.209,68.762z M206.701,65.961
	l-1.334-0.235l0.236-1.335l1.334,0.235L206.701,65.961z M208.184,57.56l-1.336-0.235l0.236-1.335l1.334,0.235L208.184,57.56z
	 M208.678,54.76l-1.336-0.236l0.236-1.335l1.334,0.236L208.678,54.76z M209.172,51.959l-1.336-0.235l0.236-1.335l1.334,0.235
	L209.172,51.959z M208.701,80.752l-1.334-0.235l0.234-1.334l1.336,0.235L208.701,80.752z M209.195,77.952l-1.334-0.236l0.234-1.334
	l1.336,0.235L209.195,77.952z M209.689,75.151l-1.334-0.235l0.234-1.335l1.336,0.235L209.689,75.151z M210.184,72.351l-1.334-0.235
	l0.234-1.335l1.336,0.235L210.184,72.351z M210.678,69.551l-1.334-0.235l0.236-1.335l1.334,0.235L210.678,69.551z M211.172,66.75
	l-1.334-0.235l0.234-1.335l1.336,0.235L211.172,66.75z M212.654,58.349l-1.334-0.235l0.234-1.335l1.336,0.235L212.654,58.349z
	 M213.148,55.548l-1.334-0.235l0.234-1.335l1.334,0.236L213.148,55.548z M213.643,52.748l-1.336-0.235l0.236-1.335l1.334,0.235
	L213.643,52.748z"/>
<polygon fill="#97CA40" points="263.428,40.265 261.135,39.077 231.063,92.378 239.625,96.77 "/>
<circle fill="#97CA40" cx="263.424" cy="37.417" r="3.303"/>
<polygon fill="#97CA40" points="263.424,37.419 255.455,31.251 235.732,37.427 "/>
<polygon fill="#97CA40" points="264.02,36.547 272.941,31.858 275.512,11.354 "/>
<polygon fill="#97CA40" points="265.43,36.334 265.156,46.408 281.781,58.681 "/>
<path fill="#97CA40" d="M281.363,141.656c-0.105-0.995,1.285-4.539,0.125-7.212c-1.828-4.208-5.178-3.896-5.521-4.425
	c-0.361-0.554-0.404-0.681-1.051-1.74l-2.631,1.143l6.6,15.022l2.887-1.103C281.83,143.315,281.402,142.01,281.363,141.656z
	 M277.289,132.134c0.541-0.03,1.455-0.24,1.902,0.792c0.4,0.917-0.256,1.525-0.719,1.931
	C278.471,134.853,277.289,132.134,277.289,132.134z M278.877,135.788c0.541-0.03,1.449-0.254,1.902,0.792
	c0.418,0.96-0.256,1.525-0.719,1.931C280.059,138.507,278.877,135.788,278.877,135.788z"/>
<circle fill="#FFFFFF" stroke="#97CA40" cx="274.386" cy="133.999" r="1.364"/>
<circle fill="#FFFFFF" stroke="#97CA40" cx="277.236" cy="140.485" r="1.393"/>
<polygon fill="#136739" points="233.027,57.388 231.721,56.886 218.719,87.424 223.598,89.275 "/>
<circle fill="#136739" cx="232.854" cy="55.853" r="1.791"/>
<polygon fill="#136739" points="232.854,55.854 228.188,53.008 217.93,57.524 "/>
<polygon fill="#136739" points="233.123,55.348 237.65,52.284 237.803,41.077 "/>
<polygon fill="#136739" points="233.869,55.15 234.328,60.594 244.027,66.21 "/>
<polygon fill="#136739" points="291.549,137.406 297.396,135.413 281.221,147.869 280.271,145.981 "/>
<polygon fill="#136739" points="291.959,137.509 291.697,136.659 314.91,129.586 315.172,130.436 "/>
<polygon fill="#136739" points="291.863,137.533 289.592,127.842 290.238,127.765 292.492,137.386 "/>
<polygon opacity="0.26" fill="#97CA40" points="292.279,136.482 290.238,127.765 309.504,122.858 314.91,129.586 "/>
<path fill="#97CA40" d="M293.27,134.411c-0.098,0.023-0.197-0.037-0.221-0.136l0,0c-0.023-0.098,0.037-0.196,0.135-0.22l3.664-0.879
	c0.098-0.023,0.197,0.037,0.221,0.136l0,0c0.023,0.098-0.037,0.196-0.135,0.221L293.27,134.411z"/>
<path fill="#97CA40" d="M298.605,133.1c-0.098,0.023-0.197-0.037-0.221-0.136l0,0c-0.023-0.097,0.037-0.196,0.137-0.22l3.662-0.879
	c0.1-0.023,0.197,0.036,0.223,0.136l0,0c0.021,0.098-0.039,0.196-0.137,0.219L298.605,133.1z"/>
<path fill="#97CA40" d="M303.914,131.804c-0.098,0.023-0.197-0.037-0.221-0.136l0,0c-0.023-0.098,0.037-0.196,0.135-0.22l3.664-0.88
	c0.1-0.023,0.197,0.037,0.221,0.136l0,0c0.023,0.098-0.037,0.196-0.137,0.22L303.914,131.804z"/>
<path fill="#97CA40" d="M309.201,130.195c-0.096,0.023-0.197-0.037-0.219-0.136l0,0c-0.023-0.098,0.035-0.196,0.135-0.221
	l3.664-0.878c0.098-0.024,0.197,0.036,0.221,0.135l0,0c0.023,0.098-0.037,0.196-0.137,0.22L309.201,130.195z"/>
<path fill="#97CA40" d="M293.277,133.027c-0.082,0.02-0.168-0.045-0.191-0.143l0,0c-0.023-0.099,0.023-0.193,0.105-0.214
	l3.064-0.735c0.082-0.02,0.168,0.044,0.191,0.143l0,0c0.023,0.099-0.023,0.193-0.107,0.213L293.277,133.027z"/>
<path fill="#97CA40" d="M298.51,131.608c-0.082,0.018-0.168-0.046-0.191-0.144l0,0c-0.023-0.099,0.023-0.193,0.105-0.214
	l3.063-0.736c0.084-0.02,0.17,0.044,0.193,0.144l0,0c0.023,0.098-0.023,0.193-0.107,0.212L298.51,131.608z"/>
<path fill="#97CA40" d="M303.877,130.332c-0.082,0.019-0.168-0.045-0.191-0.143l0,0c-0.023-0.099,0.023-0.193,0.105-0.214
	l3.064-0.736c0.082-0.019,0.168,0.044,0.193,0.144l0,0c0.021,0.098-0.025,0.194-0.109,0.213L303.877,130.332z"/>
<path fill="#97CA40" d="M309.201,128.799c-0.082,0.02-0.168-0.044-0.191-0.142l0,0c-0.025-0.098,0.021-0.194,0.104-0.215
	l3.055-0.766c0.084-0.02,0.17,0.043,0.195,0.142l0,0c0.023,0.098-0.023,0.194-0.105,0.214L309.201,128.799z"/>
<path fill="#97CA40" d="M292.969,131.578c-0.082,0.019-0.168-0.045-0.191-0.144l0,0c-0.023-0.098,0.021-0.193,0.105-0.213
	l3.063-0.735c0.084-0.02,0.17,0.043,0.193,0.144l0,0c0.023,0.098-0.023,0.193-0.107,0.211L292.969,131.578z"/>
<path fill="#97CA40" d="M298.102,130.208c-0.082,0.019-0.168-0.044-0.191-0.144l0,0c-0.023-0.098,0.021-0.193,0.105-0.213
	l3.064-0.735c0.08-0.02,0.168,0.044,0.191,0.144l0,0c0.023,0.098-0.023,0.193-0.107,0.212L298.102,130.208z"/>
<path fill="#97CA40" d="M303.131,128.846c-0.084,0.019-0.168-0.045-0.191-0.145l0,0c-0.023-0.098,0.021-0.193,0.105-0.212
	l3.063-0.736c0.082-0.019,0.168,0.044,0.193,0.144l0,0c0.021,0.098-0.023,0.194-0.107,0.212L303.131,128.846z"/>
<path fill="#97CA40" d="M308.207,127.548c-0.082,0.019-0.168-0.045-0.191-0.143l0,0c-0.021-0.099,0.023-0.193,0.107-0.213
	l3.063-0.735c0.082-0.02,0.17,0.044,0.193,0.144l0,0c0.023,0.098-0.025,0.194-0.107,0.212L308.207,127.548z"/>
<path fill="#97CA40" d="M292.85,129.596c-0.07,0.017-0.141-0.037-0.16-0.119l0,0c-0.02-0.082,0.02-0.161,0.088-0.178l2.553-0.613
	c0.068-0.016,0.139,0.037,0.158,0.12l0,0c0.02,0.082-0.02,0.161-0.088,0.177L292.85,129.596z"/>
<path fill="#97CA40" d="M297.873,128.539c-0.068,0.016-0.141-0.037-0.16-0.119l0,0c-0.02-0.082,0.02-0.162,0.09-0.178l2.549-0.614
	c0.068-0.016,0.141,0.037,0.16,0.12l0,0c0.02,0.082-0.02,0.161-0.09,0.176L297.873,128.539z"/>
<path fill="#97CA40" d="M302.668,127.339c-0.068,0.015-0.141-0.038-0.16-0.12l0,0c-0.02-0.082,0.02-0.161,0.09-0.178l2.551-0.613
	c0.066-0.018,0.139,0.036,0.16,0.12l0,0c0.018,0.081-0.02,0.161-0.09,0.176L302.668,127.339z"/>
<path fill="#97CA40" d="M307.643,125.838c-0.068,0.015-0.141-0.039-0.16-0.121l0,0c-0.02-0.082,0.02-0.161,0.088-0.178l2.553-0.612
	c0.068-0.017,0.141,0.037,0.16,0.121l0,0c0.02,0.081-0.02,0.161-0.09,0.176L307.643,125.838z"/>
<path fill="#97CA40" d="M307.289,124.545c-0.055,0.011-0.111-0.03-0.127-0.096l0,0c-0.016-0.065,0.016-0.129,0.07-0.142l2.035-0.49
	c0.055-0.013,0.111,0.03,0.127,0.097l0,0c0.016,0.064-0.016,0.128-0.07,0.141L307.289,124.545z"/>
<path fill="#97CA40" d="M302.254,126.153c-0.053,0.012-0.109-0.029-0.127-0.096l0,0c-0.014-0.064,0.018-0.128,0.072-0.142
	l2.035-0.488c0.053-0.014,0.111,0.029,0.127,0.095l0,0c0.014,0.064-0.016,0.127-0.072,0.141L302.254,126.153z"/>
<path fill="#97CA40" d="M297.748,127.066c-0.055,0.011-0.113-0.03-0.127-0.096l0,0c-0.018-0.065,0.014-0.129,0.07-0.142l2.033-0.489
	c0.055-0.013,0.113,0.03,0.129,0.096l0,0c0.014,0.064-0.016,0.128-0.072,0.141L297.748,127.066z"/>
<path fill="#97CA40" d="M292.758,128.19c-0.055,0.012-0.111-0.029-0.127-0.096l0,0c-0.016-0.064,0.016-0.127,0.07-0.142l2.035-0.488
	c0.053-0.014,0.111,0.029,0.127,0.095l0,0c0.016,0.064-0.016,0.128-0.07,0.141L292.758,128.19z"/>
<polygon fill="#97CA40" points="315.412,149.005 282.98,154.973 283.307,156.747 310.225,151.794 310.418,152.841 283.5,157.795 
	283.838,159.639 309.096,154.991 309.289,156.039 284.031,160.687 284.453,162.977 307.027,158.822 307.221,159.871 
	284.646,164.024 284.891,165.352 308.846,160.944 "/>
<path fill="#97CA40" d="M333.926,183.233c0.051,1.635,0.469,3.199,0.164,4.789c-0.119,0.627-1.266,0.936-1.438,1.532
	c-0.188,0.649,0.213,1.177-0.035,1.784c-0.248,0.609-1.297,1.502-1.604,2.063c-0.689,1.266-0.373,2.5-1.326,3.463
	c-1.709,1.728-2.314,1.586-4.697,2.01c-0.988,0.176-1.469,2.962-3.744,3.968c-1.602,0.708-3.826-0.071-4.764-0.408
	c-1.299-0.465-3.17,2.041-6.676,1.005c-2.324-0.687-2.621-2.504-3.4-3.881c-0.26-0.457-2.078-0.73-2.543-1.918
	c-0.424-1.081-0.049-2.563-0.389-3.146c-0.643-1.103-1.109-1.834-1.602-4.709c-0.633-3.711,3.967-5.969,3.725-7.33
	c-0.662-3.725-4.773-4.945-5.064-8.768c-0.32-4.175,2.969-4.963,3.51-5.957c0.479-0.876,0.055-2.549,1.139-3.589
	c0.986-0.946,3.607-0.491,3.947-1.125c0.309-0.573,0.127-2.139,4.066-2.84c3.877-0.69,3.422,3.507,4.238,3.362
	c1.531-0.272,2.432-1.079,4.982-0.517c1.729,0.38,1.68,2.257,2.82,2.93c2.066,1.219,3.197-0.108,6.082,3.418
	c1.697,2.075,2.047,5.161,2.045,7.432c0,1.016,0.615,2.303,0.801,3.343C334.355,181.226,333.895,182.239,333.926,183.233z"/>
<path fill="#136739" d="M300.441,184.319c0.951,0.059,2.918-0.041,3.656,0.713c0.703,0.717,3.219,1.467,1.195,8.206
	c2.539-1.837,0.945-4.796,1.418-7.192c2.377,0.953,3.465,0.501,4.568,6.422c0.455-1.458,0.404-3.484,0.225-4.777
	c2.998-0.982,4.682,1.104,7.004,3.545c-0.266-2.349-1.379-2.529-2.367-3.566c2.303-0.595,3.016-1.271,4.521-1.906
	c-2.707,0.371-6.973,1.029-10.926-0.236c-2.07-0.662-3.225-1.535-3.32-4.166c3.037-0.034,4.105,3.955,7.93,3.834
	c-1.744-0.843-3.516-3.264-5.271-4.896c1.02-0.819,3.617-1.726,6.74-1.327c0.834,0.105,3.107,2.279,4.09,2.533
	c-1.184-1.676-2.25-2.506-4.102-3.342c1.609-1.107,1.658-2.101,2.486-3.15c-1.273,0.514-2.188,1.863-3.143,2.496
	c-0.539,0.402-2.25,0.096-3.254,0.081c0.02-1.16,0.035-2.319,0.059-3.479c-1.285,2.734-2.602,5.195-7.27,6.111
	c0.781-2.785,0.402-4.438-0.156-5.976c-0.021,0.3,0.434,7.03-8.834,6.481c-4.994-0.297-7.047-2.01-8.529-2.697l0.133,7.901
	c2.533-1.163,4.877-1.702,7.486-1.688C296.137,184.249,299.17,184.243,300.441,184.319z"/>
<path fill="#97CA40" d="M170.303,23.475V83.1h25.027V23.475H170.303z M188.502,28.09h1.857v1.857h-1.857V28.09z M188.502,32.107
	h1.857v1.857h-1.857V32.107z M188.51,50.143v-1.857h1.857v1.857H188.51z M190.367,52.303v1.857h-1.857v-1.857H190.367z
	 M188.502,64.465h1.857v1.857h-1.857V64.465z M181.877,28.09h1.857v1.857h-1.857V28.09z M181.877,32.107h1.857v1.857h-1.857V32.107z
	 M181.885,50.143v-1.857h1.857v1.857H181.885z M183.742,52.303v1.857h-1.857v-1.857H183.742z M181.877,64.465h1.857v1.857h-1.857
	V64.465z M175.252,28.09h1.857v1.857h-1.857V28.09z M175.252,32.107h1.857v1.857h-1.857V32.107z M175.26,50.143v-1.857h1.857v1.857
	H175.26z M177.118,52.303v1.857h-1.857v-1.857H177.118z M175.25,64.465h1.857v1.857h-1.857V64.465z M175.25,68.482h1.857v1.857
	h-1.857V68.482z M177.125,78.484h-1.857v-1.857h1.857V78.484z M177.125,74.467h-1.857v-1.857h1.857V74.467z M177.125,62.195h-1.857
	v-1.857h1.857V62.195z M177.125,58.178h-1.857V56.32h1.857V58.178z M177.135,46.016h-1.857v-1.857h1.857V46.016z M177.135,41.998
	h-1.857v-1.857h1.857V41.998z M177.135,37.982h-1.857v-1.857h1.857V37.982z M181.877,68.482h1.857v1.857h-1.857V68.482z
	 M183.752,78.484h-1.857v-1.857h1.857V78.484z M183.752,74.467h-1.857v-1.857h1.857V74.467z M183.752,62.195h-1.857v-1.857h1.857
	V62.195z M183.752,58.178h-1.857V56.32h1.857V58.178z M183.76,46.016h-1.857v-1.857h1.857V46.016z M183.76,41.998h-1.857v-1.857
	h1.857V41.998z M183.76,37.982h-1.857v-1.857h1.857V37.982z M188.502,68.482h1.857v1.857h-1.857V68.482z M190.377,78.484h-1.857
	v-1.857h1.857V78.484z M190.377,74.467h-1.857v-1.857h1.857V74.467z M190.377,62.195h-1.857v-1.857h1.857V62.195z M190.377,58.178
	h-1.857V56.32h1.857V58.178z M190.385,46.016h-1.857v-1.857h1.857V46.016z M190.385,41.998h-1.857v-1.857h1.857V41.998z
	 M190.385,37.982h-1.857v-1.857h1.857V37.982z"/>
<rect x="174.788" y="17.364" fill="#85C441" width="14.859" height="6.11"/>
<rect x="178.726" y="10.024" fill="#85C441" width="7.698" height="7.34"/>
<rect x="181.053" fill="#85C441" width="2.865" height="10.024"/>
<path fill="#97CA40" d="M263.453,88.923l12.85-15.242l-9.117-7.686l-27.498,32.621l9.115,7.686l15.813,13.328l14.648-17.377
	L263.453,88.923z M248.08,100.085l-2.734-2.305l2.883-3.417l2.734,2.305L248.08,100.085z M254.445,92.537l-2.736-2.304l2.883-3.418
	l2.734,2.304L254.445,92.537z M261.049,84.703l-2.736-2.306l2.883-3.418l2.734,2.306L261.049,84.703z M267.412,77.153l-2.734-2.305
	l2.883-3.418l2.734,2.305L267.412,77.153z M255.629,106.451l-2.734-2.305l2.883-3.418l2.734,2.305L255.629,106.451z M261.994,98.9
	l-2.734-2.305l2.881-3.417l2.734,2.305L261.994,98.9z M263.18,112.815l-2.734-2.306l2.881-3.417l2.734,2.305L263.18,112.815z
	 M269.543,105.265l-2.734-2.306l2.883-3.417l2.734,2.305L269.543,105.265z"/>
<path fill="#136739" d="M294.498,95.105l-32.148,22.868l8.191,11.517l32.15-22.868L294.498,95.105z M297.967,105.25l0.605,0.854
	l-1,0.712l-0.605-0.853L297.967,105.25z M295.801,106.792l0.607,0.853l-1.002,0.713l-0.607-0.854L295.801,106.792z M286.078,113.711
	L287.08,113l0.607,0.855l-1,0.711L286.078,113.711z M285.521,115.395l-1.002,0.712l-0.607-0.855l1.002-0.712L285.521,115.395z
	 M278.355,119.202l0.605,0.853l-1.002,0.712l-0.605-0.854L278.355,119.202z M295.797,102.201l0.609,0.854l-1.002,0.712l-0.607-0.855
	L295.797,102.201z M293.633,103.742l0.607,0.855l-1.004,0.713l-0.607-0.855L293.633,103.742z M283.91,110.663l1-0.712l0.607,0.855
	l-1,0.712L283.91,110.663z M283.354,112.346l-1.002,0.712l-0.607-0.855l1-0.712L283.354,112.346z M276.184,116.152l0.609,0.854
	l-1,0.712l-0.609-0.855L276.184,116.152z M293.631,99.153l0.607,0.855l-1.002,0.712l-0.607-0.855L293.631,99.153z M291.465,100.694
	l0.607,0.854l-1.004,0.713l-0.607-0.855L291.465,100.694z M281.742,107.614l1-0.712l0.609,0.855l-1.002,0.712L281.742,107.614z
	 M281.186,109.297l-1.002,0.713l-0.609-0.855l1.002-0.712L281.186,109.297z M274.018,113.104l0.607,0.854l-1.002,0.712l-0.607-0.854
	L274.018,113.104z M271.852,114.645l0.605,0.854l-1,0.712l-0.607-0.854L271.852,114.645z M267.07,119.343l-0.607-0.854l1.002-0.713
	l0.607,0.854L267.07,119.343z M269.238,117.801l-0.607-0.854l0.998-0.711l0.607,0.854L269.238,117.801z M275.854,113.095
	l-0.607-0.854l1.002-0.712l0.607,0.854L275.854,113.095z M278.02,111.554l-0.607-0.854l1-0.711l0.607,0.853L278.02,111.554z
	 M284.58,106.895l-0.607-0.854l1.002-0.713l0.607,0.855L284.58,106.895z M286.748,105.353l-0.607-0.855l1-0.71l0.605,0.854
	L286.748,105.353z M288.91,103.814l-0.607-0.855l1.002-0.713l0.609,0.854L288.91,103.814z M274.02,117.693l0.607,0.854l-1.002,0.712
	l-0.605-0.855L274.02,117.693z M269.238,122.392l-0.607-0.855l1.004-0.712l0.607,0.855L269.238,122.392z M271.406,120.851
	l-0.607-0.855l1-0.71l0.607,0.854L271.406,120.851z M278.023,116.144l-0.609-0.855l1.002-0.711l0.607,0.854L278.023,116.144z
	 M280.189,114.604l-0.609-0.854l1.002-0.713l0.607,0.855L280.189,114.604z M286.748,109.942l-0.607-0.855l1.002-0.713l0.609,0.855
	L286.748,109.942z M288.916,108.4l-0.607-0.855l0.998-0.71l0.609,0.854L288.916,108.4z M291.078,106.862l-0.607-0.855l1.002-0.712
	l0.607,0.854L291.078,106.862z M276.188,120.742l0.607,0.853l-1,0.712l-0.609-0.853L276.188,120.742z M271.408,125.441l-0.609-0.854
	l1.004-0.712l0.607,0.854L271.408,125.441z M273.574,123.899l-0.607-0.854l1-0.71l0.609,0.854L273.574,123.899z M280.191,119.193
	l-0.607-0.854l1.002-0.712l0.605,0.854L280.191,119.193z M282.357,117.652l-0.607-0.854l1.002-0.712l0.605,0.854L282.357,117.652z
	 M288.918,112.992l-0.609-0.855l1.004-0.713l0.607,0.854L288.918,112.992z M291.084,111.45l-0.607-0.855l1-0.71l0.607,0.854
	L291.084,111.45z M293.248,109.911l-0.607-0.854l1.004-0.714l0.605,0.855L293.248,109.911z"/>
<rect x="295.85" y="97.394" transform="matrix(0.5796 0.8149 -0.8149 0.5796 207.1373 -202.7083)" fill="#136739" width="8.39" height="4.041"/>
<rect x="301.614" y="94.573" transform="matrix(0.5795 0.815 -0.815 0.5795 206.8029 -206.7913)" fill="#136739" width="4.348" height="4.858"/>
<rect x="307.632" y="90.315" transform="matrix(0.5797 0.8149 -0.8149 0.5797 205.9434 -211.9777)" fill="#136739" width="1.617" height="6.632"/>
<polygon fill="#136739" points="309.377,142.135 319.555,134.538 279.867,148.092 281.889,151.703 "/>
<polygon fill="#136739" points="309.689,141.341 310.795,142.69 349.801,111.63 348.695,110.28 "/>
<polygon fill="#136739" points="309.537,141.476 327.656,161.099 328.678,160.112 310.518,140.586 "/>
<polygon opacity="0.26" fill="#97CA40" points="311.162,140.763 328.066,158.965 356.707,133.629 349.189,110.482 "/>
<path fill="#97CA40" d="M315.652,141.668c-0.158,0.133-0.182,0.362-0.051,0.513l0,0c0.133,0.151,0.365,0.162,0.523,0.029
	l5.941-4.953c0.158-0.131,0.186-0.359,0.051-0.511l0,0c-0.129-0.148-0.363-0.161-0.523-0.026L315.652,141.668z"/>
<path fill="#97CA40" d="M324.008,134.851c-0.156,0.133-0.18,0.362-0.051,0.513l0,0c0.133,0.15,0.365,0.161,0.525,0.029l5.939-4.953
	c0.158-0.131,0.186-0.359,0.053-0.511l0,0c-0.131-0.148-0.365-0.162-0.525-0.027L324.008,134.851z"/>
<path fill="#97CA40" d="M333.078,127.509c-0.158,0.133-0.182,0.362-0.051,0.513l0,0c0.133,0.15,0.365,0.161,0.525,0.029l5.939-4.953
	c0.158-0.131,0.186-0.359,0.053-0.511l0,0c-0.131-0.148-0.365-0.162-0.525-0.027L333.078,127.509z"/>
<path fill="#97CA40" d="M341.316,120.747c-0.156,0.134-0.182,0.362-0.051,0.513l0,0c0.133,0.15,0.365,0.161,0.525,0.029l5.939-4.953
	c0.158-0.131,0.186-0.359,0.051-0.511l0,0c-0.129-0.148-0.361-0.162-0.523-0.026L341.316,120.747z"/>
<path fill="#97CA40" d="M317.656,143.602c-0.15,0.126-0.172,0.343-0.049,0.486l0,0c0.127,0.143,0.348,0.153,0.498,0.027l5.645-4.704
	c0.15-0.125,0.174-0.341,0.049-0.485l0,0c-0.125-0.141-0.346-0.154-0.5-0.026L317.656,143.602z"/>
<path fill="#97CA40" d="M325.488,137.035c-0.15,0.126-0.172,0.343-0.049,0.486l0,0c0.125,0.143,0.348,0.153,0.498,0.027l5.643-4.704
	c0.15-0.125,0.176-0.342,0.051-0.486l0,0c-0.123-0.141-0.346-0.152-0.498-0.025L325.488,137.035z"/>
<path fill="#97CA40" d="M334.51,130.074c-0.148,0.126-0.172,0.344-0.047,0.486l0,0c0.125,0.143,0.346,0.154,0.498,0.028l5.643-4.704
	c0.15-0.125,0.176-0.342,0.049-0.485l0,0c-0.123-0.141-0.346-0.153-0.498-0.025L334.51,130.074z"/>
<path fill="#97CA40" d="M342.666,123.192c-0.15,0.126-0.172,0.343-0.049,0.487l0,0c0.127,0.142,0.348,0.153,0.498,0.026l5.645-4.703
	c0.148-0.125,0.174-0.342,0.047-0.486l0,0c-0.123-0.14-0.344-0.153-0.498-0.025L342.666,123.192z"/>
<path fill="#97CA40" d="M319.393,145.794c-0.148,0.125-0.17,0.34-0.047,0.481l0,0c0.123,0.141,0.342,0.151,0.49,0.027l5.576-4.648
	c0.146-0.122,0.172-0.336,0.047-0.479l0,0c-0.123-0.139-0.34-0.151-0.492-0.024L319.393,145.794z"/>
<path fill="#97CA40" d="M327.283,139.017c-0.148,0.125-0.172,0.34-0.047,0.481l0,0c0.123,0.141,0.342,0.152,0.492,0.027l5.574-4.647
	c0.146-0.122,0.172-0.336,0.047-0.479l0,0c-0.121-0.139-0.34-0.152-0.492-0.024L327.283,139.017z"/>
<path fill="#97CA40" d="M335.793,132.126c-0.146,0.125-0.17,0.34-0.045,0.481l0,0c0.123,0.141,0.342,0.15,0.49,0.027l5.574-4.647
	c0.148-0.124,0.174-0.336,0.049-0.479l0,0c-0.123-0.139-0.342-0.151-0.492-0.024L335.793,132.126z"/>
<path fill="#97CA40" d="M343.525,125.781c-0.148,0.125-0.172,0.339-0.049,0.481l0,0c0.125,0.141,0.342,0.151,0.492,0.027
	l5.574-4.647c0.148-0.123,0.174-0.337,0.049-0.479l0,0c-0.123-0.138-0.342-0.151-0.492-0.024L343.525,125.781z"/>
<path fill="#97CA40" d="M321.365,147.629c-0.145,0.122-0.166,0.33-0.049,0.469l0,0c0.121,0.137,0.334,0.146,0.48,0.025l5.428-4.525
	c0.145-0.119,0.168-0.328,0.047-0.467l0,0c-0.119-0.136-0.332-0.148-0.479-0.024L321.365,147.629z"/>
<path fill="#97CA40" d="M329.047,141.029c-0.143,0.122-0.164,0.331-0.045,0.468l0,0c0.121,0.138,0.332,0.146,0.48,0.026l5.426-4.525
	c0.145-0.119,0.17-0.328,0.047-0.467l0,0c-0.117-0.135-0.33-0.147-0.479-0.024L329.047,141.029z"/>
<path fill="#97CA40" d="M337.336,134.319c-0.145,0.121-0.166,0.331-0.045,0.469l0,0c0.119,0.137,0.332,0.147,0.479,0.025
	l5.428-4.525c0.145-0.121,0.17-0.328,0.047-0.466l0,0c-0.119-0.135-0.332-0.148-0.479-0.024L337.336,134.319z"/>
<path fill="#97CA40" d="M344.863,128.139c-0.143,0.122-0.164,0.331-0.045,0.469l0,0c0.119,0.138,0.332,0.148,0.479,0.027l5.43-4.527
	c0.145-0.119,0.168-0.327,0.045-0.466l0,0c-0.117-0.134-0.332-0.146-0.479-0.023L344.863,128.139z"/>
<path fill="#97CA40" d="M323.236,149.297c-0.143,0.118-0.162,0.322-0.047,0.457l0,0c0.117,0.133,0.324,0.143,0.465,0.024
	l5.287-4.405c0.141-0.117,0.164-0.32,0.045-0.454l0,0c-0.115-0.133-0.324-0.145-0.467-0.024L323.236,149.297z"/>
<path fill="#97CA40" d="M330.715,142.871c-0.139,0.12-0.16,0.321-0.045,0.457l0,0c0.117,0.134,0.326,0.143,0.469,0.026l5.283-4.408
	c0.141-0.116,0.164-0.32,0.045-0.454l0,0c-0.113-0.133-0.322-0.143-0.465-0.024L330.715,142.871z"/>
<path fill="#97CA40" d="M338.785,136.338c-0.141,0.116-0.162,0.322-0.045,0.456l0,0c0.117,0.134,0.324,0.144,0.467,0.025
	l5.285-4.406c0.141-0.116,0.166-0.32,0.047-0.454l0,0c-0.117-0.131-0.322-0.144-0.467-0.023L338.785,136.338z"/>
<path fill="#97CA40" d="M346.115,130.32c-0.141,0.119-0.162,0.322-0.045,0.457l0,0c0.117,0.134,0.324,0.144,0.465,0.026l5.287-4.407
	c0.143-0.116,0.166-0.319,0.045-0.454l0,0c-0.115-0.132-0.324-0.143-0.465-0.023L346.115,130.32z"/>
<path fill="#97CA40" d="M324.963,150.723c-0.135,0.112-0.156,0.306-0.045,0.434l0,0c0.111,0.127,0.309,0.136,0.441,0.023
	l5.023-4.186c0.133-0.111,0.156-0.304,0.043-0.432l0,0c-0.109-0.126-0.309-0.137-0.443-0.023L324.963,150.723z"/>
<path fill="#97CA40" d="M332.326,144.607c-0.133,0.113-0.152,0.305-0.043,0.434l0,0c0.111,0.127,0.309,0.135,0.443,0.024
	l5.021-4.187c0.133-0.11,0.156-0.304,0.041-0.431l0,0c-0.107-0.126-0.303-0.136-0.441-0.022L332.326,144.607z"/>
<path fill="#97CA40" d="M340.25,138.165c-0.133,0.111-0.152,0.307-0.043,0.434l0,0c0.113,0.126,0.309,0.136,0.443,0.024l5.023-4.187
	c0.133-0.111,0.156-0.304,0.043-0.432l0,0c-0.111-0.125-0.307-0.137-0.443-0.023L340.25,138.165z"/>
<path fill="#97CA40" d="M347.215,132.447c-0.133,0.113-0.152,0.307-0.041,0.434l0,0c0.109,0.127,0.307,0.136,0.441,0.024
	l5.023-4.188c0.133-0.11,0.156-0.303,0.043-0.43l0,0c-0.111-0.126-0.309-0.137-0.443-0.022L347.215,132.447z"/>
<path fill="#97CA40" d="M326.76,152.485c-0.131,0.109-0.152,0.297-0.045,0.422l0,0c0.109,0.123,0.301,0.132,0.432,0.022l4.889-4.073
	c0.129-0.109,0.152-0.296,0.041-0.42l0,0c-0.105-0.124-0.299-0.133-0.432-0.023L326.76,152.485z"/>
<path fill="#97CA40" d="M334.01,146.403c-0.131,0.11-0.148,0.298-0.041,0.422l0,0c0.107,0.125,0.299,0.131,0.432,0.024l4.887-4.076
	c0.129-0.106,0.152-0.296,0.041-0.42l0,0c-0.105-0.122-0.299-0.132-0.432-0.02L334.01,146.403z"/>
<path fill="#97CA40" d="M341.953,140.114c-0.129,0.108-0.148,0.299-0.043,0.422l0,0c0.109,0.123,0.301,0.132,0.432,0.024
	l4.889-4.076c0.131-0.108,0.152-0.295,0.043-0.419l0,0c-0.107-0.121-0.299-0.133-0.434-0.021L341.953,140.114z"/>
<path fill="#97CA40" d="M348.471,134.674c-0.131,0.109-0.15,0.297-0.041,0.421l0,0c0.107,0.124,0.299,0.133,0.428,0.023l4.889-4.076
	c0.131-0.106,0.152-0.294,0.043-0.418l0,0c-0.107-0.123-0.299-0.133-0.43-0.021L348.471,134.674z"/>
<path fill="#97CA40" d="M328.453,154.175c-0.127,0.107-0.146,0.29-0.041,0.413l0,0c0.104,0.119,0.293,0.128,0.42,0.021l4.76-3.967
	c0.125-0.107,0.148-0.288,0.041-0.409l0,0c-0.104-0.121-0.291-0.129-0.42-0.023L328.453,154.175z"/>
<path fill="#97CA40" d="M335.516,148.252c-0.127,0.107-0.146,0.29-0.039,0.411l0,0c0.104,0.123,0.291,0.127,0.42,0.023l4.758-3.969
	c0.127-0.104,0.148-0.289,0.041-0.41l0,0c-0.102-0.119-0.289-0.128-0.418-0.02L335.516,148.252z"/>
<path fill="#97CA40" d="M343.252,142.125c-0.127,0.106-0.145,0.292-0.041,0.411l0,0c0.105,0.12,0.293,0.129,0.42,0.024l4.762-3.97
	c0.127-0.105,0.148-0.288,0.041-0.409l0,0c-0.104-0.118-0.291-0.129-0.42-0.021L343.252,142.125z"/>
<path fill="#97CA40" d="M349.6,136.827c-0.127,0.107-0.145,0.291-0.039,0.412l0,0c0.105,0.121,0.289,0.129,0.418,0.022l4.76-3.97
	c0.129-0.103,0.148-0.286,0.043-0.407l0,0c-0.105-0.121-0.293-0.129-0.42-0.021L349.6,136.827z"/>
<path fill="#136739" d="M343.762,214.284L286.518,200.2l-5.881,23.901l57.244,14.084L343.762,214.284z M335.053,230.577
	l-0.438,1.767l-1.781-0.437l0.438-1.77L335.053,230.577z M331.195,229.627l-0.432,1.77l-1.787-0.439l0.438-1.772L331.195,229.627z
	 M313.879,225.372l1.785,0.439l-0.438,1.773l-1.783-0.438L313.879,225.372z M311.367,226.635l-1.781-0.438l0.436-1.772l1.783,0.438
	L311.367,226.635z M300.131,221.986l-0.436,1.767l-1.783-0.438l0.438-1.771L300.131,221.986z M336.611,224.245l-0.438,1.775
	l-1.783-0.439l0.438-1.774L336.611,224.245z M332.754,223.299l-0.438,1.774l-1.785-0.439l0.438-1.776L332.754,223.299z
	 M315.436,219.044l1.783,0.439l-0.438,1.774L315,220.818L315.436,219.044z M312.926,220.31l-1.783-0.438l0.438-1.775l1.783,0.439
	L312.926,220.31z M301.688,215.652l-0.436,1.776l-1.781-0.437l0.436-1.775L301.688,215.652z M338.168,217.924l-0.438,1.771
	l-1.783-0.438l0.436-1.775L338.168,217.924z M334.309,216.976l-0.436,1.771l-1.785-0.441l0.438-1.771L334.309,216.976z
	 M316.992,212.721l1.785,0.437l-0.438,1.774l-1.783-0.439L316.992,212.721z M314.484,213.982l-1.785-0.439l0.436-1.773l1.785,0.439
	L314.484,213.982z M303.246,209.328l-0.436,1.771l-1.785-0.438l0.438-1.77L303.246,209.328z M299.389,208.381l-0.438,1.768
	l-1.781-0.437l0.436-1.769L299.389,208.381z M289.344,207.807l0.438-1.771l1.783,0.439l-0.434,1.771L289.344,207.807z
	 M293.205,208.755l0.436-1.771l1.779,0.438l-0.436,1.771L293.205,208.755z M304.984,211.654l0.436-1.774l1.783,0.438l-0.436,1.774
	L304.984,211.654z M308.842,212.603l0.436-1.771l1.781,0.437l-0.434,1.771L308.842,212.603z M320.514,215.484l0.436-1.773
	l1.787,0.438l-0.438,1.773L320.514,215.484z M324.375,216.436l0.436-1.776l1.779,0.438l-0.438,1.773L324.375,216.436z
	 M328.225,217.381l0.438-1.773l1.785,0.438l-0.438,1.777L328.225,217.381z M297.832,214.705l-0.436,1.776l-1.783-0.441l0.438-1.771
	L297.832,214.705z M287.787,214.133l0.439-1.774l1.783,0.441l-0.438,1.771L287.787,214.133z M291.646,215.084l0.438-1.774
	l1.781,0.439l-0.439,1.771L291.646,215.084z M303.428,217.982l0.438-1.776l1.781,0.441l-0.436,1.771L303.428,217.982z
	 M307.285,218.932l0.436-1.773l1.783,0.438l-0.438,1.773L307.285,218.932z M318.957,221.809l0.438-1.774l1.785,0.441l-0.436,1.772
	L318.957,221.809z M322.82,222.76l0.434-1.774l1.779,0.438l-0.434,1.772L322.82,222.76z M326.668,223.706l0.438-1.772l1.785,0.438
	l-0.438,1.772L326.668,223.706z M296.275,221.034l-0.436,1.771l-1.783-0.438l0.436-1.771L296.275,221.034z M286.23,220.462
	l0.438-1.775l1.783,0.443l-0.436,1.771L286.23,220.462z M290.088,221.407l0.438-1.771l1.779,0.438l-0.434,1.776L290.088,221.407z
	 M301.869,224.31l0.438-1.771l1.781,0.438l-0.438,1.77L301.869,224.31z M305.727,225.257l0.436-1.771l1.785,0.439l-0.438,1.771
	L305.727,225.257z M317.402,228.139l0.436-1.776l1.785,0.44l-0.438,1.774L317.402,228.139z M321.26,229.087l0.438-1.773l1.779,0.438
	l-0.436,1.775L321.26,229.087z M325.111,230.035l0.438-1.775l1.787,0.442l-0.438,1.772L325.111,230.035z"/>
<rect x="336.59" y="223.363" transform="matrix(-0.239 0.971 -0.971 -0.239 645.9142 -53.4329)" fill="#136739" width="14.61" height="6.038"/>
<rect x="346.48" y="224.685" transform="matrix(-0.2388 0.9711 -0.9711 -0.2388 655.6287 -57.287)" fill="#136739" width="7.573" height="7.259"/>
<rect x="357.214" y="225.325" transform="matrix(-0.2399 0.9708 -0.9708 -0.2399 668.2184 -62.6172)" fill="#136739" width="2.817" height="9.91"/>
<polygon fill="#136739" points="339.709,252.421 281.457,223.771 279.889,226.956 328.238,250.736 327.314,252.618 278.965,228.839 
	277.332,232.149 322.699,254.465 321.773,256.347 276.408,234.031 274.385,238.146 314.932,258.088 314.006,259.97 273.459,240.027 
	272.285,242.411 315.314,263.577 "/>
<path fill="#97CA40" d="M300.867,265.611l-29.494-21.938l-10.967,14.744l29.492,21.938L300.867,265.611z M283.445,268.909
	l-0.807,1.089l-1.088-0.809l0.807-1.088L283.445,268.909z M281.164,267.214l-0.809,1.089l-1.09-0.808l0.809-1.089L281.164,267.214z
	 M286.152,265.263l-0.809,1.089l-1.088-0.808l0.809-1.089L286.152,265.263z M283.867,263.568l-0.807,1.089l-1.088-0.809l0.809-1.088
	L283.867,263.568z M288.857,261.618l-0.809,1.088l-1.088-0.808l0.807-1.09L288.857,261.618z M286.574,259.923l-0.809,1.089
	l-1.088-0.809l0.809-1.089L286.574,259.923z M270.977,250.036l0.807-1.089l1.09,0.809l-0.809,1.088L270.977,250.036z M273.26,251.73
	l0.807-1.088l1.09,0.808l-0.809,1.088L273.26,251.73z M275.543,253.425l0.807-1.088l1.09,0.807l-0.809,1.089L275.543,253.425z
	 M277.826,255.119l0.809-1.088l1.088,0.808l-0.807,1.089L277.826,255.119z M280.109,256.815l0.809-1.089l1.088,0.808l-0.809,1.089
	L280.109,256.815z M282.393,258.51l0.809-1.089l1.088,0.809l-0.807,1.088L282.393,258.51z M289.244,263.594l0.809-1.089l1.088,0.808
	l-0.809,1.089L289.244,263.594z M291.527,265.288l0.809-1.089l1.088,0.809l-0.807,1.088L291.527,265.288z M293.813,266.983
	l0.807-1.089l1.088,0.808l-0.807,1.088L293.813,266.983z M268.27,253.682l0.809-1.089l1.088,0.808l-0.807,1.089L268.27,253.682z
	 M270.555,255.377l0.807-1.089l1.09,0.808l-0.809,1.088L270.555,255.377z M272.838,257.071l0.807-1.089l1.09,0.809l-0.809,1.088
	L272.838,257.071z M275.121,258.766l0.807-1.088l1.09,0.808l-0.809,1.089L275.121,258.766z M277.402,260.461l0.811-1.089
	l1.088,0.809l-0.809,1.089L277.402,260.461z M279.688,262.154l0.809-1.087l1.088,0.808l-0.807,1.089L279.688,262.154z
	 M286.539,267.239l0.807-1.089l1.09,0.808l-0.809,1.089L286.539,267.239z M288.822,268.934l0.809-1.089l1.088,0.809l-0.809,1.088
	L288.822,268.934z M291.105,270.629l0.809-1.089l1.088,0.808l-0.807,1.089L291.105,270.629z M265.564,257.327l0.809-1.087
	l1.088,0.806l-0.807,1.09L265.564,257.327z M267.848,259.022l0.809-1.089l1.088,0.808l-0.807,1.089L267.848,259.022z
	 M270.133,260.717l0.807-1.089l1.09,0.809l-0.809,1.088L270.133,260.717z M272.416,262.412l0.807-1.089l1.09,0.808l-0.809,1.088
	L272.416,262.412z M274.699,264.106l0.807-1.089l1.088,0.809l-0.807,1.089L274.699,264.106z M276.982,265.801l0.809-1.088
	l1.088,0.808l-0.809,1.089L276.982,265.801z M283.834,270.886l0.807-1.089l1.09,0.808l-0.809,1.089L283.834,270.886z
	 M286.117,272.579l0.807-1.088l1.09,0.808l-0.809,1.088L286.117,272.579z M288.4,274.274l0.809-1.089l1.088,0.808l-0.809,1.089
	L288.4,274.274z"/>
<path fill="#136739" d="M254.484,289.095l11.111,16.551l9.9-6.646l-23.783-35.422l-9.9,6.647l-17.168,11.527l12.67,18.87
	L254.484,289.095z M247.988,271.241l2.969-1.993l2.49,3.711l-2.969,1.994L247.988,271.241z M253.492,279.438l2.967-1.993
	l2.492,3.713l-2.967,1.992L253.492,279.438z M259.203,287.945l2.969-1.994l2.492,3.713l-2.969,1.993L259.203,287.945z
	 M264.707,296.144l2.969-1.993l2.492,3.711l-2.969,1.994L264.707,296.144z M239.789,276.745l2.971-1.994l2.49,3.713l-2.969,1.994
	L239.789,276.745z M245.293,284.943l2.971-1.993l2.49,3.71l-2.969,1.994L245.293,284.943z M231.592,282.25l2.971-1.994l2.49,3.712
	l-2.971,1.994L231.592,282.25z M237.096,290.447l2.969-1.993l2.494,3.711l-2.971,1.994L237.096,290.447z"/>
<polygon fill="#97CA40" points="292.994,301.522 294.6,299.814 258.215,257.636 251.148,265.158 "/>
<path fill="#97CA40" d="M293.377,304.488c-1.168-1.175-1.199-3.107-0.074-4.321c1.127-1.216,2.984-1.25,4.152-0.076
	c1.166,1.172,1.199,3.109,0.072,4.323C296.4,305.626,294.543,305.662,293.377,304.488z"/>
<polygon fill="#97CA40" points="295.414,302.289 302.73,296.906 302.078,279.579 "/>
<polygon fill="#97CA40" points="296.002,303.053 297.668,312.219 314.43,320.044 "/>
<polygon fill="#97CA40" points="295.816,304.358 288.709,299.232 272.873,308.547 "/>
<path fill="#136739" d="M181.864,303.425c2.716,0.483,11.039,6.896,19.013,5.871c12.559-1.61,14.301-10.724,15.969-11.229
	c1.75-0.533,2.115-0.547,5.42-1.447l-1.006-7.848l-44.878,5.943l0.703,8.497C177.108,303.385,180.897,303.256,181.864,303.425z
	 M210.227,299.946c-0.334,1.458-0.482,4.037-3.559,4.434c-2.74,0.352-3.844-1.852-4.566-3.39
	C202.113,300.99,210.227,299.946,210.227,299.946z M199.324,301.345c-0.334,1.455-0.439,4.033-3.561,4.436
	c-2.867,0.369-3.844-1.854-4.564-3.392C191.211,302.389,199.324,301.345,199.324,301.345z"/>
<path fill="#FFFFFF" stroke="#136739" stroke-width="2" d="M203.781,291.301c-0.264-2.064,1.191-3.949,3.256-4.213
	c2.061-0.268,3.947,1.19,4.211,3.254c0.264,2.059-1.193,3.944-3.254,4.209C205.936,294.817,204.045,293.359,203.781,291.301z"/>
<path fill="#FFFFFF" stroke="#136739" stroke-width="2" d="M184.324,293.88c-0.27-2.107,1.217-4.033,3.324-4.303
	c2.105-0.272,4.031,1.215,4.303,3.321c0.27,2.104-1.217,4.03-3.326,4.3C186.523,297.469,184.596,295.981,184.324,293.88z"/>
<polygon fill="#97CA40" points="234.861,316.653 236.428,316.006 223.609,280.56 216.717,283.408 "/>
<path fill="#97CA40" d="M234.291,318.588c-0.463-1.026,0.057-2.231,1.16-2.694c1.104-0.465,2.371-0.011,2.832,1.016
	c0.461,1.025-0.061,2.234-1.162,2.697C236.02,320.068,234.75,319.613,234.291,318.588z"/>
<polygon fill="#97CA40" points="236.285,317.748 242.746,316.29 247.158,305.39 "/>
<polygon fill="#97CA40" points="236.469,318.371 235.029,324.477 244.186,333.617 "/>
<polygon fill="#97CA40" points="235.979,319.132 232.602,314.137 219.273,315.847 "/>
<path fill="#97CA40" d="M164.666,342.035c-1.866-0.085-3.684,0.25-5.467-0.233c-0.703-0.188-0.954-1.511-1.618-1.757
	c-0.722-0.27-1.358,0.136-2.029-0.196c-0.671-0.333-1.595-1.597-2.207-1.991c-1.38-0.891-2.813-0.639-3.826-1.8
	c-1.817-2.083-1.602-2.755-1.875-5.481c-0.113-1.133-3.243-1.919-4.188-4.576c-0.665-1.872,0.418-4.316,0.884-5.346
	c0.644-1.427-2.044-3.759-0.556-7.63c0.986-2.563,3.082-2.741,4.718-3.5c0.543-0.253,1.015-2.283,2.408-2.705
	c1.269-0.384,2.922,0.168,3.617-0.165c1.312-0.63,2.186-1.093,5.502-1.396c4.281-0.392,6.446,5.002,8.018,4.848
	c4.299-0.424,6.051-4.96,10.428-4.956c4.782,0.005,5.389,3.787,6.473,4.486c0.957,0.616,2.898,0.283,3.986,1.6
	c0.992,1.196,0.242,4.116,0.934,4.557c0.625,0.398,2.426,0.331,2.877,4.841c0.443,4.439-4.295,3.56-4.203,4.494
	c0.176,1.755,1.016,2.842,0.15,5.673c-0.586,1.92-2.719,1.701-3.586,2.929c-1.569,2.229-0.158,3.622-4.428,6.574
	c-2.511,1.735-6.055,1.86-8.641,1.659c-1.156-0.089-2.676,0.494-3.876,0.611C166.914,342.696,165.801,342.086,164.666,342.035z"/>
<path fill="#136739" d="M166.379,304.116c-0.15,1.071-0.211,3.301-1.134,4.069c-0.877,0.731-1.953,3.506-9.448,0.633
	c1.868,3.028,5.377,1.487,8.064,2.229c-1.294,2.601-0.875,3.87-7.714,4.6c1.62,0.642,3.932,0.761,5.42,0.671
	c0.854,3.472-1.669,5.193-4.653,7.602c2.698-0.096,3.001-1.337,4.269-2.361c0.475,2.653,1.182,3.516,1.772,5.272
	c-0.185-3.089-0.558-7.965,1.231-12.319c0.936-2.281,2.032-3.508,5.035-3.387c-0.228,3.434-4.864,4.291-5.063,8.622
	c1.113-1.896,4.025-3.686,6.038-5.527c0.843,1.224,1.646,4.236,0.917,7.73c-0.194,0.933-2.869,3.31-3.245,4.398
	c2.012-1.191,3.051-2.323,4.166-4.341c1.119,1.913,2.246,2.056,3.368,3.083c-0.473-1.484-1.929-2.633-2.565-3.769
	c-0.411-0.645,0.088-2.55,0.194-3.683c1.319,0.124,2.637,0.243,3.956,0.37c-3-1.689-5.686-3.394-6.317-8.745
	c3.103,1.126,5.018,0.842,6.817,0.348c-0.34-0.052-8.042-0.127-6.602-10.547c0.778-5.615,2.909-7.783,3.822-9.398l-9.008-0.54
	c1.102,2.962,1.509,5.657,1.263,8.603C166.838,299.261,166.577,302.688,166.379,304.116z"/>
<path fill="#136739" d="M134.927,330.16l19.387-44.43l-19.057-8.316l-19.387,44.432L134.927,330.16z M122.568,320.672l-1.408-0.615
	l0.601-1.384l1.411,0.617L122.568,320.672z M123.875,317.679l-1.412-0.612l0.605-1.387l1.413,0.617L123.875,317.679z
	 M129.735,304.236l-0.604,1.388l-1.415-0.619l0.604-1.384L129.735,304.236z M129.024,302.01l0.604-1.381l1.413,0.616l-0.603,1.383
	L129.024,302.01z M134.394,293.567l-1.408-0.614l0.603-1.385l1.412,0.616L134.394,293.567z M127.616,322.875l-1.415-0.618
	l0.604-1.384l1.415,0.619L127.616,322.875z M128.92,319.881l-1.415-0.617l0.605-1.386l1.417,0.62L128.92,319.881z M134.781,306.439
	l-0.605,1.385l-1.415-0.618l0.605-1.384L134.781,306.439z M134.067,304.211l0.604-1.383l1.416,0.618l-0.604,1.383L134.067,304.211z
	 M139.445,295.769l-1.417-0.616l0.602-1.383l1.416,0.618L139.445,295.769z M132.656,325.076l-1.412-0.616l0.604-1.384l1.416,0.616
	L132.656,325.076z M133.962,322.08l-1.412-0.614l0.606-1.387l1.412,0.62L133.962,322.08z M139.823,308.64l-0.603,1.386l-1.415-0.617
	l0.604-1.386L139.823,308.64z M139.111,306.415l0.605-1.385l1.415,0.615l-0.605,1.385L139.111,306.415z M144.487,297.971
	l-1.413-0.614l0.604-1.387l1.411,0.618L144.487,297.971z M145.792,294.978l-1.409-0.617l0.602-1.383l1.411,0.616L145.792,294.978z
	 M147.619,286.901l1.412,0.617l-0.605,1.384l-1.411-0.616L147.619,286.901z M146.313,289.897l1.412,0.616l-0.603,1.382l-1.412-0.617
	L146.313,289.897z M142.321,299.038l1.415,0.62l-0.603,1.383l-1.416-0.616L142.321,299.038z M141.016,302.035l1.413,0.616
	l-0.602,1.383l-1.412-0.616L141.016,302.035z M137.054,311.093l1.415,0.616l-0.604,1.387l-1.415-0.617L137.054,311.093z
	 M135.746,314.089l1.417,0.615l-0.603,1.383l-1.414-0.616L135.746,314.089z M134.443,317.077l1.414,0.618l-0.603,1.384l-1.417-0.616
	L134.443,317.077z M140.75,292.777l-1.417-0.617l0.607-1.385l1.412,0.619L140.75,292.777z M142.575,284.7l1.414,0.619l-0.606,1.385
	l-1.412-0.619L142.575,284.7z M141.267,287.693l1.414,0.619l-0.604,1.382l-1.412-0.617L141.267,287.693z M137.276,296.838
	l1.417,0.619l-0.607,1.383l-1.412-0.616L137.276,296.838z M135.97,299.832l1.415,0.617l-0.604,1.384l-1.414-0.618L135.97,299.832z
	 M132.011,308.892l1.415,0.619l-0.606,1.383l-1.414-0.615L132.011,308.892z M130.703,311.89l1.416,0.615l-0.604,1.381l-1.414-0.615
	L130.703,311.89z M129.4,314.877l1.413,0.619l-0.604,1.384l-1.413-0.618L129.4,314.877z M135.703,290.576l-1.412-0.616l0.603-1.386
	l1.414,0.616L135.703,290.576z M137.528,282.498l1.416,0.617l-0.608,1.386l-1.412-0.618L137.528,282.498z M136.225,285.492
	l1.411,0.619l-0.603,1.38l-1.417-0.614L136.225,285.492z M132.232,294.637l1.412,0.616l-0.603,1.385l-1.411-0.617L132.232,294.637z
	 M130.926,297.63l1.414,0.617l-0.605,1.384l-1.411-0.616L130.926,297.63z M126.964,306.69l1.417,0.618l-0.606,1.385l-1.415-0.617
	L126.964,306.69z M125.659,309.685l1.414,0.618l-0.603,1.383l-1.417-0.617L125.659,309.685z M124.354,312.677l1.417,0.617
	l-0.608,1.385l-1.414-0.617L124.354,312.677z"/>
<rect x="118.694" y="325.996" transform="matrix(-0.9165 -0.4001 0.4001 -0.9165 107.8709 679.4767)" fill="#136739" width="12.34" height="4.965"/>
<rect x="119.204" y="330.385" transform="matrix(-0.9166 -0.3999 0.3999 -0.9166 101.295 687.8733)" fill="#136739" width="6.396" height="5.97"/>
<rect x="118.458" y="335.793" transform="matrix(-0.9164 -0.4002 0.4002 -0.9164 93.2694 699.2158)" fill="#136739" width="2.379" height="8.151"/>
<path fill="#97CA40" d="M116.782,309.241l18.801-30.558l-14.111-8.687l-18.802,30.557L116.782,309.241z M112.909,293.091
	l-1.042-0.639l0.692-1.127l1.042,0.64L112.909,293.091z M114.361,290.727l-1.042-0.639l0.692-1.13l1.042,0.641L114.361,290.727z
	 M116.398,295.233l-1.042-0.639l0.692-1.128l1.042,0.639L116.398,295.233z M117.851,292.866l-1.042-0.638l0.693-1.128l1.042,0.64
	L117.851,292.866z M119.886,297.375l-1.041-0.641l0.692-1.126l1.043,0.638L119.886,297.375z M121.339,295.01l-1.042-0.641
	l0.693-1.125l1.042,0.639L121.339,295.01z M129.702,279.049l1.042,0.639l-0.693,1.13l-1.041-0.641L129.702,279.049z M128.25,281.416
	l1.042,0.639l-0.692,1.128l-1.041-0.64L128.25,281.416z M126.798,283.78l1.042,0.639l-0.691,1.128l-1.042-0.64L126.798,283.78z
	 M125.346,286.145l1.042,0.641l-0.692,1.128l-1.042-0.64L125.346,286.145z M123.893,288.51l1.042,0.64l-0.692,1.128l-1.042-0.64
	L123.893,288.51z M122.441,290.877l1.042,0.64l-0.693,1.127l-1.041-0.64L122.441,290.877z M118.084,297.974l1.042,0.639
	l-0.693,1.128l-1.042-0.639L118.084,297.974z M116.633,300.338l1.042,0.64l-0.693,1.128l-1.041-0.639L116.633,300.338z
	 M115.18,302.705l1.042,0.639l-0.692,1.127l-1.041-0.638L115.18,302.705z M126.213,276.908l1.042,0.639l-0.692,1.128l-1.042-0.64
	L126.213,276.908z M124.76,279.273l1.042,0.639l-0.692,1.128l-1.041-0.641L124.76,279.273z M123.309,281.639l1.042,0.639
	l-0.693,1.128l-1.041-0.641L123.309,281.639z M121.857,284.004l1.041,0.639l-0.692,1.129l-1.042-0.64L121.857,284.004z
	 M120.404,286.368l1.042,0.641l-0.693,1.127l-1.042-0.639L120.404,286.368z M118.953,288.735l1.041,0.639l-0.692,1.127l-1.042-0.638
	L118.953,288.735z M114.596,295.832l1.042,0.64l-0.692,1.127l-1.042-0.64L114.596,295.832z M113.144,298.197l1.042,0.64
	l-0.693,1.127l-1.041-0.64L113.144,298.197z M111.691,300.563l1.042,0.64l-0.692,1.128l-1.042-0.64L111.691,300.563z
	 M122.725,274.765l1.04,0.64l-0.69,1.128l-1.042-0.639L122.725,274.765z M121.271,277.131l1.042,0.64l-0.692,1.127l-1.042-0.639
	L121.271,277.131z M119.819,279.497l1.042,0.639l-0.693,1.129l-1.042-0.64L119.819,279.497z M118.367,281.862l1.042,0.64
	l-0.692,1.127l-1.042-0.64L118.367,281.862z M116.915,284.228l1.042,0.64l-0.693,1.126l-1.042-0.639L116.915,284.228z
	 M115.463,286.593l1.041,0.64l-0.692,1.128l-1.042-0.64L115.463,286.593z M111.106,293.689l1.042,0.64l-0.692,1.128l-1.042-0.641
	L111.106,293.689z M109.655,296.056l1.042,0.639l-0.692,1.13l-1.042-0.642L109.655,296.056z M108.202,298.421l1.042,0.639
	l-0.692,1.129l-1.042-0.641L108.202,298.421z"/>
<g>
	<defs>
		<polygon id="SVGID_3_" points="83.595,281.692 100.446,296.357 122.376,271.194 106.579,255.432 		"/>
	</defs>
	<clipPath id="SVGID_4_">
		<use xlink:href="#SVGID_3_"  overflow="visible"/>
	</clipPath>
	<g clip-path="url(#SVGID_4_)">
		<path fill="#136739" d="M115.07,279.436l34.506-38.927l-15.764-15.663l-34.505,38.929L115.07,279.436z M106.277,265.029
			l-1.165-1.158l1.074-1.212l1.166,1.16L106.277,265.029z M108.603,262.406l-1.168-1.155l1.077-1.216l1.169,1.164L108.603,262.406z
			 M119.038,250.628l-1.078,1.22l-1.168-1.168l1.077-1.211L119.038,250.628z M119.118,248.057l1.074-1.209l1.169,1.161l-1.074,1.212
			L119.118,248.057z M127.326,241.283l-1.164-1.159l1.074-1.209l1.168,1.155L127.326,241.283z M110.454,269.178l-1.17-1.162
			l1.074-1.212l1.169,1.163L110.454,269.178z M112.777,266.555l-1.17-1.163l1.077-1.215l1.169,1.168L112.777,266.555z
			 M123.21,254.777l-1.074,1.212l-1.172-1.163l1.077-1.212L123.21,254.777z M123.29,252.202l1.074-1.214l1.17,1.166l-1.074,1.211
			L123.29,252.202z M131.506,245.43l-1.174-1.162l1.075-1.21l1.168,1.164L131.506,245.43z M114.622,273.323l-1.169-1.161
			l1.075-1.211l1.172,1.16L114.622,273.323z M116.948,270.698l-1.169-1.158l1.08-1.217l1.166,1.166L116.948,270.698z
			 M127.38,258.922l-1.074,1.213l-1.169-1.163l1.075-1.214L127.38,258.922z M127.461,256.349l1.076-1.212l1.171,1.161l-1.075,1.214
			L127.461,256.349z M135.677,249.574l-1.171-1.157l1.075-1.215l1.166,1.163L135.677,249.574z M137.998,246.954l-1.164-1.161
			l1.074-1.214l1.166,1.162L137.998,246.954z M142.61,239.25l1.167,1.161l-1.076,1.215l-1.168-1.161L142.61,239.25z
			 M140.282,241.875l1.168,1.161l-1.072,1.211l-1.168-1.16L140.282,241.875z M133.181,249.885l1.17,1.167l-1.074,1.207l-1.172-1.161
			L133.181,249.885z M130.855,252.511l1.17,1.161l-1.071,1.212l-1.17-1.161L130.855,252.511z M123.813,260.444l1.171,1.158
			l-1.077,1.216l-1.17-1.163L123.813,260.444z M121.485,263.067l1.172,1.161l-1.072,1.21l-1.17-1.158L121.485,263.067z
			 M119.166,265.687l1.168,1.162l-1.072,1.213l-1.175-1.161L119.166,265.687z M133.828,242.809l-1.173-1.162l1.079-1.213
			l1.167,1.163L133.828,242.809z M138.435,235.104l1.169,1.165l-1.077,1.213l-1.167-1.165L138.435,235.104z M136.109,237.728
			l1.168,1.164l-1.074,1.211l-1.166-1.162L136.109,237.728z M129.007,245.739l1.172,1.165l-1.077,1.208l-1.167-1.157
			L129.007,245.739z M126.683,248.361l1.17,1.164l-1.076,1.212l-1.169-1.16L126.683,248.361z M119.641,256.3l1.171,1.163
			l-1.078,1.208l-1.169-1.159L119.641,256.3z M117.312,258.926l1.173,1.161l-1.075,1.209l-1.17-1.162L117.312,258.926z
			 M114.994,261.54l1.167,1.165l-1.076,1.214l-1.167-1.163L114.994,261.54z M129.653,238.663l-1.168-1.159l1.075-1.218l1.169,1.162
			L129.653,238.663z M134.261,230.957l1.171,1.164l-1.081,1.213l-1.167-1.163L134.261,230.957z M131.939,233.581l1.167,1.165
			l-1.071,1.208l-1.173-1.16L131.939,233.581z M124.834,241.595l1.168,1.158l-1.075,1.212l-1.167-1.157L124.834,241.595z
			 M122.512,244.216l1.168,1.163l-1.076,1.21l-1.167-1.158L122.512,244.216z M115.466,252.15l1.172,1.166l-1.079,1.211l-1.169-1.162
			L115.466,252.15z M113.143,254.774l1.169,1.163l-1.074,1.212l-1.172-1.163L113.143,254.774z M110.818,257.395l1.173,1.165
			l-1.078,1.212l-1.17-1.16L110.818,257.395z"/>
		<polygon fill="#136739" points="102.89,267.332 112.23,276.645 108.507,280.836 99.162,271.522 		"/>
		<polygon fill="#136739" points="101.199,273.53 106.017,278.383 100.766,284.242 95.949,279.393 		"/>
		<polygon fill="#136739" points="97.498,280.991 99.298,282.785 92.986,289.875 91.188,288.076 		"/>
	</g>
</g>
<polygon fill="#136739" points="81.414,256.027 75.986,262.63 99.99,247.747 98.008,245.599 "/>
<polygon fill="#136739" points="81.347,256.608 80.374,255.857 59.915,282.47 60.889,283.225 "/>
<polygon fill="#136739" points="81.425,256.499 69.982,248.839 69.567,249.636 80.928,257.24 "/>
<polygon opacity="0.26" fill="#97CA40" points="79.86,256.524 69.567,249.636 53.835,272.196 59.915,282.47 "/>
<path fill="#97CA40" d="M76.698,256.798c0.076-0.114,0.048-0.273-0.07-0.352l0,0c-0.115-0.078-0.271-0.047-0.352,0.068l-2.92,4.314
	c-0.079,0.117-0.048,0.273,0.067,0.353l0,0c0.117,0.077,0.273,0.049,0.353-0.067L76.698,256.798z"/>
<path fill="#97CA40" d="M72.401,263.07c0.077-0.117,0.049-0.273-0.068-0.352l0,0c-0.115-0.079-0.273-0.048-0.352,0.066l-2.921,4.316
	c-0.079,0.117-0.049,0.271,0.068,0.353l0,0c0.115,0.078,0.273,0.048,0.351-0.068L72.401,263.07z"/>
<path fill="#97CA40" d="M68.14,269.312c0.078-0.114,0.047-0.272-0.07-0.353l0,0c-0.115-0.076-0.27-0.046-0.348,0.068l-2.924,4.314
	c-0.079,0.119-0.049,0.276,0.069,0.356l0,0c0.116,0.074,0.271,0.045,0.35-0.072L68.14,269.312z"/>
<path fill="#97CA40" d="M63.483,275.376c0.076-0.114,0.047-0.272-0.069-0.351l0,0c-0.115-0.078-0.272-0.049-0.352,0.066
	l-2.922,4.318c-0.078,0.114-0.049,0.272,0.067,0.35l0,0c0.116,0.079,0.273,0.049,0.352-0.066L63.483,275.376z"/>
<path fill="#97CA40" d="M74.901,256.135c0.065-0.097,0.023-0.238-0.091-0.316l0,0c-0.118-0.08-0.262-0.065-0.33,0.03l-2.443,3.61
	c-0.065,0.095-0.024,0.24,0.091,0.317l0,0c0.119,0.079,0.262,0.065,0.329-0.033L74.901,256.135z"/>
<path fill="#97CA40" d="M70.518,262.219c0.063-0.098,0.023-0.241-0.093-0.317l0,0c-0.116-0.077-0.26-0.063-0.329,0.033l-2.443,3.607
	c-0.067,0.098-0.025,0.24,0.093,0.318l0,0c0.115,0.079,0.261,0.064,0.326-0.033L70.518,262.219z"/>
<path fill="#97CA40" d="M66.25,268.549c0.065-0.099,0.024-0.241-0.091-0.318l0,0c-0.117-0.079-0.263-0.063-0.329,0.032l-2.443,3.609
	c-0.065,0.096-0.027,0.241,0.09,0.321l0,0c0.116,0.073,0.264,0.062,0.328-0.038L66.25,268.549z"/>
<path fill="#97CA40" d="M61.674,274.697c0.065-0.098,0.025-0.24-0.089-0.319l0,0c-0.114-0.077-0.263-0.067-0.33,0.03l-2.478,3.585
	c-0.065,0.097-0.027,0.239,0.088,0.319l0,0c0.114,0.079,0.263,0.063,0.329-0.032L61.674,274.697z"/>
<path fill="#97CA40" d="M73.174,255.027c0.066-0.096,0.024-0.24-0.093-0.315l0,0c-0.114-0.077-0.261-0.067-0.328,0.033l-2.442,3.606
	c-0.066,0.099-0.028,0.24,0.09,0.32l0,0c0.114,0.077,0.262,0.063,0.327-0.037L73.174,255.027z"/>
<path fill="#97CA40" d="M68.903,261.009c0.063-0.098,0.023-0.241-0.094-0.318l0,0c-0.115-0.078-0.262-0.064-0.328,0.034
	l-2.445,3.608c-0.064,0.096-0.022,0.238,0.095,0.316l0,0c0.115,0.079,0.262,0.066,0.326-0.033L68.903,261.009z"/>
<path fill="#97CA40" d="M64.692,266.858c0.063-0.099,0.022-0.239-0.093-0.317l0,0c-0.117-0.079-0.262-0.067-0.328,0.032
	l-2.445,3.607c-0.065,0.096-0.023,0.239,0.092,0.319l0,0c0.117,0.076,0.264,0.064,0.327-0.037L64.692,266.858z"/>
<path fill="#97CA40" d="M60.539,272.8c0.065-0.097,0.023-0.24-0.091-0.316l0,0c-0.117-0.077-0.262-0.064-0.328,0.034l-2.445,3.608
	c-0.064,0.097-0.024,0.239,0.093,0.319l0,0c0.115,0.079,0.263,0.063,0.326-0.037L60.539,272.8z"/>
<path fill="#97CA40" d="M70.668,253.911c0.054-0.083,0.021-0.201-0.076-0.268l0,0c-0.098-0.063-0.219-0.051-0.275,0.029
	l-2.035,3.006c-0.053,0.081-0.019,0.198,0.077,0.265l0,0c0.097,0.064,0.218,0.055,0.273-0.028L70.668,253.911z"/>
<path fill="#97CA40" d="M66.853,259.9c0.055-0.081,0.021-0.2-0.077-0.265l0,0c-0.096-0.065-0.217-0.054-0.272,0.029l-2.037,3.001
	c-0.054,0.083-0.02,0.2,0.079,0.268l0,0c0.095,0.064,0.216,0.052,0.271-0.03L66.853,259.9z"/>
<path fill="#97CA40" d="M62.965,265.524c0.052-0.081,0.02-0.2-0.078-0.265l0,0c-0.096-0.064-0.216-0.053-0.272,0.028l-2.037,3.006
	c-0.056,0.078-0.019,0.199,0.079,0.266l0,0c0.095,0.064,0.217,0.054,0.271-0.029L62.965,265.524z"/>
<path fill="#97CA40" d="M58.6,271.236c0.052-0.081,0.019-0.201-0.078-0.267l0,0c-0.097-0.064-0.219-0.052-0.273,0.029l-2.037,3.007
	c-0.053,0.08-0.021,0.198,0.079,0.264l0,0c0.095,0.066,0.219,0.054,0.272-0.03L58.6,271.236z"/>
<path fill="#97CA40" d="M57.099,270.15c0.04-0.066,0.013-0.159-0.063-0.213l0,0c-0.078-0.052-0.174-0.042-0.218,0.022l-1.624,2.397
	c-0.044,0.063-0.016,0.16,0.063,0.211l0,0c0.076,0.052,0.173,0.044,0.216-0.023L57.099,270.15z"/>
<path fill="#97CA40" d="M61.631,264.414c0.041-0.065,0.015-0.158-0.062-0.212l0,0c-0.078-0.053-0.174-0.042-0.218,0.023
	l-1.624,2.397c-0.045,0.062-0.018,0.157,0.061,0.211l0,0c0.078,0.049,0.173,0.041,0.217-0.024L61.631,264.414z"/>
<path fill="#97CA40" d="M65.007,259.021c0.041-0.067,0.015-0.161-0.063-0.211l0,0c-0.075-0.054-0.174-0.045-0.216,0.021
	l-1.625,2.396c-0.043,0.063-0.016,0.159,0.063,0.212l0,0c0.077,0.051,0.173,0.042,0.217-0.022L65.007,259.021z"/>
<path fill="#97CA40" d="M68.892,253.107c0.041-0.066,0.016-0.159-0.062-0.211l0,0c-0.076-0.053-0.174-0.043-0.219,0.022
	l-1.623,2.396c-0.043,0.063-0.016,0.158,0.062,0.212l0,0c0.077,0.05,0.175,0.041,0.217-0.024L68.892,253.107z"/>
<polygon fill="#136739" points="83.743,273.065 72.761,279.444 100.803,248.26 103.331,251.538 "/>
<polygon fill="#136739" points="82.89,273.041 83.698,274.587 39.821,298.276 39.014,296.728 "/>
<polygon fill="#136739" points="83.074,272.953 94.012,297.321 92.705,297.872 81.872,273.507 "/>
<polygon opacity="0.26" fill="#97CA40" points="81.78,274.169 91.889,296.859 57.346,313.261 39.006,297.262 "/>
<path fill="#97CA40" d="M80.851,278.655c0.185-0.095,0.404-0.026,0.491,0.154l0,0c0.087,0.181,0.006,0.398-0.179,0.492l-6.887,3.521
	c-0.183,0.094-0.403,0.028-0.489-0.154l0,0c-0.086-0.177-0.006-0.396,0.181-0.492L80.851,278.655z"/>
<path fill="#97CA40" d="M71.301,283.664c0.185-0.091,0.405-0.023,0.493,0.155l0,0c0.086,0.18,0.004,0.397-0.18,0.494l-6.887,3.52
	c-0.182,0.095-0.403,0.03-0.49-0.153l0,0c-0.085-0.177-0.005-0.397,0.182-0.492L71.301,283.664z"/>
<path fill="#97CA40" d="M60.989,289.126c0.185-0.093,0.404-0.024,0.493,0.155l0,0c0.086,0.18,0.004,0.397-0.179,0.493l-6.887,3.521
	c-0.182,0.094-0.403,0.029-0.49-0.153l0,0c-0.085-0.177-0.005-0.398,0.182-0.493L60.989,289.126z"/>
<path fill="#97CA40" d="M51.537,294.05c0.184-0.093,0.403-0.025,0.491,0.155l0,0c0.086,0.181,0.005,0.398-0.18,0.492l-6.885,3.521
	c-0.184,0.095-0.403,0.029-0.49-0.153l0,0c-0.086-0.178-0.007-0.396,0.181-0.492L51.537,294.05z"/>
<path fill="#97CA40" d="M81.843,281.256c0.174-0.089,0.382-0.023,0.466,0.146l0,0c0.082,0.172,0.005,0.379-0.17,0.469l-6.542,3.345
	c-0.174,0.09-0.382,0.028-0.465-0.145l0,0c-0.081-0.172-0.006-0.38,0.172-0.47L81.843,281.256z"/>
<path fill="#97CA40" d="M72.73,285.883c0.174-0.088,0.383-0.024,0.466,0.146l0,0c0.082,0.17,0.005,0.379-0.17,0.469l-6.541,3.344
	c-0.174,0.09-0.384,0.028-0.467-0.145l0,0c-0.081-0.168-0.004-0.378,0.173-0.468L72.73,285.883z"/>
<path fill="#97CA40" d="M62.787,291.45c0.174-0.088,0.385-0.024,0.466,0.146l0,0c0.083,0.171,0.006,0.377-0.169,0.47l-6.542,3.343
	c-0.173,0.091-0.384,0.028-0.464-0.146l0,0c-0.081-0.168-0.007-0.378,0.172-0.468L62.787,291.45z"/>
<path fill="#97CA40" d="M53.256,296.25c0.174-0.089,0.383-0.023,0.467,0.146l0,0c0.082,0.172,0.004,0.379-0.171,0.469l-6.54,3.346
	c-0.175,0.087-0.384,0.025-0.467-0.147l0,0c-0.08-0.168-0.005-0.377,0.173-0.468L53.256,296.25z"/>
<path fill="#97CA40" d="M83.178,283.714c0.173-0.087,0.38-0.024,0.462,0.146l0,0c0.081,0.169,0.004,0.372-0.168,0.462l-6.463,3.304
	c-0.17,0.088-0.376,0.027-0.459-0.144l0,0c-0.08-0.168-0.006-0.373,0.171-0.463L83.178,283.714z"/>
<path fill="#97CA40" d="M73.848,288.311c0.173-0.086,0.379-0.022,0.46,0.147l0,0c0.082,0.169,0.006,0.373-0.168,0.462l-6.462,3.304
	c-0.17,0.087-0.378,0.025-0.459-0.146l0,0c-0.08-0.167-0.006-0.372,0.171-0.461L73.848,288.311z"/>
<path fill="#97CA40" d="M64.17,293.435c0.173-0.087,0.379-0.023,0.461,0.146l0,0c0.081,0.17,0.004,0.374-0.168,0.463l-6.462,3.304
	c-0.172,0.088-0.377,0.027-0.46-0.145l0,0c-0.08-0.166-0.005-0.373,0.17-0.462L64.17,293.435z"/>
<path fill="#97CA40" d="M55.3,298.055c0.173-0.086,0.38-0.022,0.461,0.146l0,0c0.082,0.17,0.005,0.373-0.169,0.462l-6.461,3.305
	c-0.171,0.088-0.379,0.027-0.46-0.146l0,0c-0.079-0.166-0.005-0.372,0.172-0.461L55.3,298.055z"/>
<path fill="#97CA40" d="M84.093,286.248c0.168-0.086,0.369-0.023,0.45,0.14l0,0c0.079,0.165,0.003,0.364-0.165,0.452l-6.292,3.216
	c-0.166,0.087-0.368,0.025-0.447-0.14l0,0c-0.079-0.163-0.006-0.364,0.166-0.449L84.093,286.248z"/>
<path fill="#97CA40" d="M75.006,290.723c0.169-0.083,0.37-0.021,0.448,0.144l0,0c0.081,0.165,0.004,0.363-0.164,0.451l-6.292,3.216
	c-0.166,0.087-0.368,0.027-0.448-0.14l0,0c-0.079-0.162-0.005-0.363,0.166-0.451L75.006,290.723z"/>
<path fill="#97CA40" d="M65.583,295.714c0.167-0.084,0.369-0.022,0.449,0.143l0,0c0.078,0.164,0.004,0.363-0.165,0.45l-6.292,3.216
	c-0.168,0.087-0.369,0.028-0.449-0.139l0,0c-0.077-0.162-0.006-0.363,0.167-0.449L65.583,295.714z"/>
<path fill="#97CA40" d="M56.943,300.213c0.169-0.084,0.37-0.021,0.45,0.142l0,0c0.079,0.165,0.005,0.364-0.164,0.45l-6.294,3.218
	c-0.166,0.086-0.367,0.027-0.446-0.141l0,0c-0.077-0.161-0.004-0.362,0.166-0.448L56.943,300.213z"/>
<path fill="#97CA40" d="M84.893,288.624c0.164-0.085,0.359-0.023,0.438,0.136l0,0c0.077,0.16,0.004,0.354-0.16,0.437l-6.126,3.135
	c-0.162,0.083-0.358,0.026-0.435-0.137l0,0c-0.078-0.158-0.007-0.355,0.161-0.438L84.893,288.624z"/>
<path fill="#97CA40" d="M76.045,292.981c0.165-0.082,0.359-0.021,0.438,0.137l0,0c0.078,0.161,0.004,0.355-0.159,0.441l-6.127,3.129
	c-0.164,0.084-0.359,0.026-0.436-0.136l0,0c-0.077-0.157-0.005-0.353,0.16-0.438L76.045,292.981z"/>
<path fill="#97CA40" d="M66.871,297.84c0.161-0.084,0.359-0.022,0.436,0.138l0,0c0.077,0.16,0.004,0.354-0.16,0.438l-6.127,3.134
	c-0.163,0.082-0.359,0.025-0.437-0.137l0,0c-0.074-0.158-0.005-0.354,0.162-0.438L66.871,297.84z"/>
<path fill="#97CA40" d="M58.458,302.221c0.165-0.085,0.36-0.023,0.438,0.138l0,0c0.079,0.159,0.006,0.354-0.159,0.438l-6.127,3.133
	c-0.164,0.085-0.359,0.028-0.436-0.136l0,0c-0.076-0.158-0.005-0.354,0.161-0.437L58.458,302.221z"/>
<path fill="#97CA40" d="M85.526,290.771c0.156-0.079,0.342-0.023,0.416,0.129l0,0c0.073,0.152,0.004,0.337-0.151,0.416l-5.821,2.978
	c-0.154,0.078-0.34,0.024-0.414-0.13l0,0c-0.073-0.15-0.005-0.336,0.153-0.416L85.526,290.771z"/>
<path fill="#97CA40" d="M77.01,295.143c0.156-0.077,0.341-0.02,0.417,0.132l0,0c0.074,0.152,0.003,0.336-0.152,0.418l-5.822,2.975
	c-0.154,0.08-0.341,0.024-0.413-0.131l0,0c-0.074-0.148-0.006-0.332,0.154-0.415L77.01,295.143z"/>
<path fill="#97CA40" d="M67.976,299.904c0.154-0.079,0.341-0.02,0.415,0.131l0,0c0.073,0.152,0.004,0.337-0.152,0.416l-5.821,2.978
	c-0.155,0.08-0.341,0.025-0.415-0.129l0,0c-0.07-0.151-0.005-0.336,0.154-0.418L67.976,299.904z"/>
<path fill="#97CA40" d="M59.983,304.066c0.155-0.078,0.342-0.021,0.416,0.133l0,0c0.074,0.15,0.005,0.335-0.151,0.414l-5.823,2.978
	c-0.153,0.08-0.34,0.025-0.412-0.129l0,0c-0.074-0.151-0.005-0.338,0.153-0.415L59.983,304.066z"/>
<path fill="#97CA40" d="M86.441,293.115c0.152-0.078,0.333-0.022,0.406,0.125l0,0c0.07,0.147,0.003,0.328-0.149,0.406l-5.665,2.896
	c-0.152,0.076-0.333,0.023-0.403-0.125l0,0c-0.071-0.146-0.004-0.329,0.148-0.407L86.441,293.115z"/>
<path fill="#97CA40" d="M78.002,297.397c0.151-0.077,0.332-0.021,0.404,0.127l0,0c0.073,0.147,0.003,0.327-0.147,0.406l-5.666,2.896
	c-0.15,0.077-0.333,0.024-0.402-0.126l0,0c-0.072-0.145-0.005-0.327,0.15-0.405L78.002,297.397z"/>
<path fill="#97CA40" d="M69.1,302.235c0.15-0.076,0.334-0.021,0.405,0.126l0,0c0.07,0.148,0.003,0.328-0.147,0.406l-5.668,2.896
	c-0.149,0.077-0.331,0.025-0.403-0.125l0,0c-0.069-0.146-0.004-0.327,0.15-0.407L69.1,302.235z"/>
<path fill="#97CA40" d="M61.539,306.096c0.152-0.078,0.333-0.022,0.403,0.126l0,0c0.072,0.149,0.005,0.327-0.146,0.404l-5.667,2.896
	c-0.149,0.079-0.33,0.024-0.402-0.125l0,0c-0.071-0.146-0.004-0.328,0.15-0.404L61.539,306.096z"/>
<path fill="#97CA40" d="M87.331,295.337c0.148-0.075,0.324-0.021,0.395,0.123l0,0c0.069,0.143,0.004,0.319-0.145,0.394l-5.516,2.822
	c-0.148,0.073-0.324,0.023-0.393-0.122l0,0c-0.07-0.144-0.005-0.319,0.144-0.396L87.331,295.337z"/>
<path fill="#97CA40" d="M79.112,299.507c0.148-0.074,0.324-0.02,0.394,0.125l0,0c0.072,0.146,0.002,0.318-0.144,0.396l-5.518,2.82
	c-0.146,0.075-0.324,0.022-0.394-0.124l0,0c-0.069-0.141-0.004-0.317,0.146-0.394L79.112,299.507z"/>
<path fill="#97CA40" d="M70.441,304.219c0.146-0.074,0.324-0.019,0.393,0.125l0,0c0.07,0.145,0.004,0.318-0.142,0.396l-5.52,2.822
	c-0.146,0.074-0.323,0.021-0.394-0.124l0,0c-0.066-0.142-0.004-0.318,0.146-0.396L70.441,304.219z"/>
<path fill="#97CA40" d="M63.076,307.979c0.148-0.075,0.324-0.02,0.393,0.126l0,0c0.07,0.145,0.005,0.316-0.143,0.392l-5.52,2.821
	c-0.144,0.078-0.321,0.024-0.391-0.121l0,0c-0.07-0.143-0.003-0.32,0.145-0.395L63.076,307.979z"/>
<polygon fill="#97CA40" points="34.522,258.086 35.698,260.385 91.147,234.485 86.73,225.934 "/>
<path fill="#97CA40" d="M31.347,257.476c1.621-0.843,3.613-0.213,4.455,1.405c0.842,1.621,0.213,3.612-1.406,4.454
	c-1.618,0.841-3.613,0.212-4.454-1.406C29.101,260.311,29.73,258.316,31.347,257.476z"/>
<polygon fill="#97CA40" points="32.872,260.405 35.773,270.056 55.412,276.49 "/>
<polygon fill="#97CA40" points="31.881,260.768 21.895,259.399 7.888,274.592 "/>
<polygon fill="#97CA40" points="30.61,260.122 36.686,252.081 30.288,232.434 "/>
<path fill="#97CA40" d="M13.059,162.729c0.211-2.279-0.111-4.509,0.599-6.677c0.277-0.854,1.961-1.127,2.309-1.931
	c0.38-0.875-0.097-1.663,0.361-2.473c0.457-0.812,2.104-1.907,2.636-2.645c1.203-1.665,0.964-3.423,2.486-4.627
	c2.732-2.165,3.567-1.885,7.025-2.146c1.438-0.109,2.604-3.912,6.012-4.997c2.4-0.763,5.426,0.626,6.7,1.223
	c1.765,0.824,4.859-2.399,9.665-0.477c3.181,1.273,3.289,3.84,4.156,5.86c0.289,0.671,2.826,1.301,3.281,3.014
	c0.415,1.561-0.375,3.567,0.008,4.424c0.721,1.622,1.257,2.702,1.456,6.764c0.256,5.241-6.674,7.745-6.567,9.671
	c0.295,5.265,5.925,7.527,5.677,12.879c-0.273,5.844-5.083,6.485-6.026,7.791c-0.831,1.152-0.519,3.532-2.242,4.829
	c-1.565,1.181-5.211,0.183-5.805,1.02c-0.538,0.753-0.553,2.954-6.273,3.386c-5.629,0.425-4.254-5.344-5.439-5.254
	c-2.226,0.167-3.645,1.162-7.171,0.029c-2.392-0.767-1.997-3.367-3.499-4.46c-2.728-1.976-4.565-0.287-8.053-5.584
	c-2.051-3.115-2.012-7.454-1.614-10.608c0.177-1.411-0.475-3.284-0.556-4.753C12.098,165.458,12.931,164.114,13.059,162.729z"/>
<path fill="#136739" d="M60.84,165.832c-1.344-0.213-4.156-0.346-5.075-1.496c-0.875-1.092-4.318-2.48-0.272-11.563
	c-3.929,2.201-2.178,6.532-3.265,9.796c-3.211-1.651-4.838-1.174-5.377-9.551c-0.9,1.961-1.18,4.785-1.149,6.607
	c-4.431,0.95-6.464-2.18-9.339-5.892c-0.029,3.301,1.521,3.705,2.744,5.281c-3.375,0.509-4.504,1.351-6.756,2.026
	c3.911-0.144,10.088-0.47,15.486,1.833c2.829,1.204,4.316,2.576,3.996,6.244c-4.322-0.371-5.147-6.059-10.604-6.417
	c2.333,1.41,4.428,5.019,6.642,7.526c-1.592,0.999-5.44,1.9-9.812,0.917c-1.167-0.262-4.019-3.596-5.372-4.083
	c1.391,2.49,2.763,3.791,5.247,5.208c-2.478,1.316-2.72,2.689-4.08,4.034c1.901-0.54,3.432-2.288,4.901-3.034
	c0.836-0.486,3.214,0.175,4.639,0.334c-0.23,1.609-0.455,3.217-0.688,4.826c2.3-3.62,4.602-6.859,11.394-7.49
	c-1.594,3.764-1.342,6.111-0.818,8.326c0.084-0.416,0.608-9.829,13.684-7.789c7.046,1.099,9.665,3.763,11.653,4.923l1.184-10.998
	c-3.8,1.268-7.227,1.694-10.931,1.314C66.944,166.522,62.631,166.111,60.84,165.832z"/>
<polygon fill="#136739" points="51.777,227.671 52.227,228.997 84.022,219.473 82.325,214.537 "/>
<circle fill="#136739" cx="50.708" cy="228.786" r="1.791"/>
<polygon fill="#136739" points="50.709,228.785 51.504,234.192 62.323,238.509 "/>
<polygon fill="#136739" points="50.148,228.901 44.897,227.379 36.183,234.427 "/>
<polygon fill="#136739" points="49.518,228.455 53.411,224.621 52.662,213.021 "/>
<path fill="#97CA40" d="M24.925,223.602l58.217-10.311l-3.688-20.821l-58.216,10.31L24.925,223.602z M26.75,207.66l-0.273-1.544
	l1.814-0.322l0.273,1.544L26.75,207.66z M30.672,206.965l-0.273-1.545l1.813-0.32l0.274,1.546L30.672,206.965z M48.281,203.841
	l-1.813,0.32l-0.273-1.546l1.813-0.318L48.281,203.841z M50.116,201.922l1.813-0.32l0.274,1.545l-1.813,0.321L50.116,201.922z
	 M62.266,201.371l-0.274-1.545l1.814-0.321l0.273,1.544L62.266,201.371z M27.726,213.172l-0.272-1.543l1.813-0.322l0.274,1.544
	L27.726,213.172z M31.648,212.476l-0.272-1.545l1.813-0.318l0.272,1.543L31.648,212.476z M49.257,209.354l-1.813,0.318l-0.274-1.544
	l1.813-0.319L49.257,209.354z M51.092,207.434l1.813-0.32l0.275,1.546l-1.814,0.319L51.092,207.434z M63.241,206.882l-0.272-1.544
	l1.814-0.322l0.274,1.545L63.241,206.882z M28.702,218.684l-0.273-1.546l1.814-0.321l0.272,1.544L28.702,218.684z M32.625,217.988
	l-0.274-1.545l1.813-0.32l0.274,1.546L32.625,217.988z M50.233,214.866l-1.814,0.318l-0.273-1.545l1.813-0.32L50.233,214.866z
	 M52.068,212.946l1.814-0.321l0.273,1.546l-1.813,0.318L52.068,212.946z M64.218,212.395l-0.274-1.543l1.814-0.322l0.274,1.544
	L64.218,212.395z M68.141,211.701l-0.274-1.545l1.814-0.319l0.273,1.544L68.141,211.701z M77.63,208.411l0.274,1.546l-1.815,0.32
	l-0.273-1.545L77.63,208.411z M73.708,209.108l0.274,1.545l-1.814,0.32l-0.273-1.545L73.708,209.108z M61.726,211.229L62,212.774
	l-1.814,0.32l-0.273-1.544L61.726,211.229z M57.803,211.924l0.274,1.545l-1.813,0.32l-0.273-1.544L57.803,211.924z M45.927,214.019
	l0.274,1.545l-1.813,0.322l-0.273-1.546L45.927,214.019z M42.004,214.713l0.274,1.546l-1.814,0.322l-0.273-1.548L42.004,214.713z
	 M38.084,215.407l0.273,1.545l-1.814,0.322l-0.273-1.545L38.084,215.407z M67.164,206.187l-0.273-1.544l1.813-0.32l0.273,1.544
	L67.164,206.187z M76.655,202.898l0.273,1.546l-1.813,0.321l-0.274-1.546L76.655,202.898z M72.731,203.594l0.274,1.545l-1.813,0.322
	l-0.274-1.548L72.731,203.594z M60.75,205.714l0.274,1.545l-1.813,0.323l-0.274-1.545L60.75,205.714z M56.827,206.41l0.273,1.546
	l-1.813,0.32l-0.274-1.544L56.827,206.41z M44.951,208.507l0.274,1.545l-1.813,0.32l-0.274-1.544L44.951,208.507z M41.028,209.201
	l0.274,1.546l-1.814,0.321l-0.273-1.546L41.028,209.201z M37.108,209.894l0.273,1.548l-1.814,0.319l-0.274-1.544L37.108,209.894z
	 M66.188,200.677l-0.273-1.545l1.814-0.319l0.273,1.543L66.188,200.677z M75.678,197.386l0.274,1.545l-1.814,0.322l-0.273-1.547
	L75.678,197.386z M71.755,198.083l0.273,1.545l-1.813,0.32l-0.273-1.547L71.755,198.083z M59.774,200.204l0.273,1.544l-1.814,0.322
	l-0.273-1.544L59.774,200.204z M55.851,200.897l0.275,1.545l-1.814,0.322l-0.273-1.544L55.851,200.897z M43.975,202.993l0.273,1.547
	l-1.813,0.322l-0.273-1.546L43.975,202.993z M40.052,203.688l0.273,1.547l-1.813,0.322l-0.273-1.547L40.052,203.688z
	 M36.132,204.385l0.273,1.545l-1.813,0.32l-0.274-1.544L36.132,204.385z"/>
<rect x="13.91" y="211.187" transform="matrix(-0.1744 -0.9847 0.9847 -0.1744 -187.2251 271.4549)" fill="#85C441" width="12.554" height="6.058"/>
<rect x="10.316" y="211.442" transform="matrix(-0.1745 -0.9847 0.9847 -0.1745 -195.8475 265.9659)" fill="#85C441" width="6.504" height="7.278"/>
<rect x="3.894" y="211.687" transform="matrix(-0.1743 -0.9847 0.9847 -0.1743 -207.3482 259.4399)" fill="#85C441" width="2.421" height="9.94"/>
<g>
	<defs>
		<polygon id="SVGID_2_" points="58.015,127.37 51.058,148.598 82.768,159.015 91.146,138.332 		"/>
	</defs>
	<clipPath id="SVGID_5_">
		<use xlink:href="#SVGID_2_"  overflow="visible"/>
	</clipPath>
	<g clip-path="url(#SVGID_5_)">
		<path fill="#97CA40" d="M72.334,155.489l49.282,16.65l8.299-20.614l-49.283-16.649L72.334,155.489z M82.187,141.786l0.615-1.523
			l1.534,0.518l-0.616,1.525L82.187,141.786z M85.508,142.909l0.61-1.526l1.539,0.52l-0.618,1.53L85.508,142.909z M100.417,147.941
			l-1.543-0.519l0.622-1.531l1.534,0.521L100.417,147.941z M102.817,147.015l1.531,0.519l-0.615,1.528l-1.534-0.518L102.817,147.015
			z M112.25,151.943l0.615-1.523l1.532,0.519l-0.61,1.525L112.25,151.943z M79.99,147.247l0.615-1.53l1.534,0.519l-0.617,1.529
			L79.99,147.247z M83.31,148.367l0.617-1.53l1.538,0.52l-0.622,1.532L83.31,148.367z M98.217,153.398l-1.535-0.518l0.616-1.532
			l1.536,0.521L98.217,153.398z M100.621,152.471l1.536,0.518l-0.619,1.531l-1.533-0.518L100.621,152.471z M110.055,157.406
			l0.614-1.533l1.533,0.52l-0.618,1.529L110.055,157.406z M77.792,152.699l0.615-1.529l1.533,0.52l-0.613,1.53L77.792,152.699z
			 M81.114,153.821l0.612-1.527l1.541,0.521l-0.621,1.528L81.114,153.821z M96.021,158.853l-1.536-0.518l0.617-1.529l1.537,0.519
			L96.021,158.853z M98.423,157.926l1.535,0.521l-0.614,1.53l-1.537-0.518L98.423,157.926z M107.859,162.86l0.611-1.529l1.537,0.518
			l-0.618,1.526L107.859,162.86z M111.175,163.979l0.617-1.524l1.536,0.517l-0.617,1.526L111.175,163.979z M120.067,165.233
			l-0.616,1.526l-1.538-0.519l0.615-1.527L120.067,165.233z M116.743,164.108l-0.616,1.528l-1.532-0.516l0.614-1.528
			L116.743,164.108z M106.603,160.682l-0.62,1.532l-1.53-0.52l0.614-1.531L106.603,160.682z M103.278,159.561l-0.615,1.529
			l-1.533-0.516l0.615-1.53L103.278,159.561z M93.231,156.158l-0.612,1.529l-1.539-0.52l0.617-1.53L93.231,156.158z M89.909,155.034
			l-0.614,1.531l-1.532-0.517l0.612-1.529L89.909,155.034z M86.594,153.916l-0.616,1.528l-1.535-0.516l0.613-1.534L86.594,153.916z
			 M113.373,158.526l0.615-1.533l1.537,0.522l-0.618,1.527L113.373,158.526z M122.263,159.774l-0.619,1.53l-1.536-0.52l0.62-1.528
			L122.263,159.774z M118.941,158.651l-0.618,1.529l-1.533-0.519l0.617-1.526L118.941,158.651z M108.798,155.224l-0.618,1.533
			l-1.532-0.522l0.613-1.525L108.798,155.224z M105.479,154.103l-0.617,1.531l-1.535-0.521l0.614-1.528L105.479,154.103z
			 M95.426,150.703l-0.616,1.531l-1.532-0.524l0.613-1.528L95.426,150.703z M92.102,149.578l-0.613,1.533l-1.532-0.52l0.616-1.53
			L92.102,149.578z M88.792,148.459l-0.619,1.528l-1.537-0.519l0.617-1.528L88.792,148.459z M115.569,153.067l0.614-1.527
			l1.54,0.517l-0.616,1.529L115.569,153.067z M124.46,154.316l-0.617,1.531l-1.538-0.523l0.618-1.528L124.46,154.316z
			 M121.14,153.197l-0.62,1.528l-1.53-0.518l0.613-1.532L121.14,153.197z M110.994,149.769l-0.613,1.527l-1.534-0.519l0.613-1.525
			L110.994,149.769z M107.676,148.648l-0.617,1.528l-1.533-0.521l0.613-1.526L107.676,148.648z M97.625,145.243l-0.618,1.534
			l-1.535-0.524l0.616-1.528L97.625,145.243z M94.305,144.123l-0.617,1.53l-1.534-0.519l0.616-1.532L94.305,144.123z M90.987,143
			l-0.617,1.533l-1.536-0.521l0.614-1.53L90.987,143z"/>
		<polygon fill="#97CA40" points="78.748,139.561 73.801,151.788 68.492,149.987 73.438,137.756 		"/>
		<polygon fill="#97CA40" points="72.38,140.414 69.783,146.739 62.343,144.181 64.938,137.857 		"/>
		<polygon fill="#97CA40" points="64.067,139.906 63.115,142.262 54.128,139.204 55.086,136.848 		"/>
	</g>
</g>
<path fill="#136739" d="M32.35,102.536l57.582,36.201l11.555-18.417L55.491,91.462L32.35,102.536z M52.266,96.438l0.855-1.36
	l1.554,0.974l-0.856,1.363L52.266,96.438z M55.63,98.551l0.852-1.365l1.559,0.978l-0.857,1.365L55.63,98.551z M70.738,108.023
	l-1.557-0.978l0.858-1.367l1.555,0.976L70.738,108.023z M73.406,107.792l1.553,0.975l-0.856,1.366l-1.555-0.976L73.406,107.792z
	 M82.729,115.549l0.855-1.36l1.555,0.975l-0.857,1.363L82.729,115.549z M49.204,101.317l0.859-1.368l1.555,0.977l-0.858,1.367
	L49.204,101.317z M52.569,103.426l0.859-1.367l1.557,0.978l-0.86,1.369L52.569,103.426z M67.678,112.898l-1.556-0.977l0.858-1.367
	l1.554,0.976L67.678,112.898z M70.346,112.665l1.555,0.976l-0.859,1.367l-1.555-0.976L70.346,112.665z M79.67,120.431l0.857-1.37
	l1.555,0.974l-0.858,1.368L79.67,120.431z M46.146,106.188l0.858-1.365l1.556,0.976l-0.857,1.369L46.146,106.188z M49.514,108.299
	l0.855-1.365l1.557,0.979l-0.858,1.364L49.514,108.299z M64.621,117.771l-1.557-0.975l0.857-1.367l1.556,0.977L64.621,117.771z
	 M67.284,117.54l1.557,0.977l-0.854,1.368l-1.557-0.978L67.284,117.54z M76.609,125.303l0.856-1.365l1.558,0.976l-0.857,1.363
	L76.609,125.303z M79.974,127.413l0.858-1.361l1.553,0.973l-0.854,1.363L79.974,127.413z M89.219,131.291l-0.858,1.364l-1.556-0.977
	l0.855-1.365L89.219,131.291z M85.851,129.179l-0.856,1.365l-1.553-0.974l0.856-1.365L85.851,129.179z M75.575,122.731l-0.858,1.368
	l-1.555-0.976l0.856-1.368L75.575,122.731z M72.208,120.621l-0.856,1.365l-1.555-0.973l0.855-1.365L72.208,120.621z M62.029,114.224
	l-0.855,1.367l-1.559-0.977l0.856-1.367L62.029,114.224z M58.662,112.11l-0.856,1.369l-1.553-0.975l0.858-1.366L58.662,112.11z
	 M55.303,110.005l-0.857,1.366l-1.558-0.976l0.858-1.37L55.303,110.005z M83.033,122.54l0.858-1.369l1.554,0.978l-0.858,1.364
	L83.033,122.54z M92.276,126.416l-0.859,1.367l-1.556-0.979l0.859-1.364L92.276,126.416z M88.912,124.302l-0.859,1.367l-1.553-0.976
	l0.858-1.363L88.912,124.302z M78.634,117.854l-0.86,1.369l-1.554-0.979l0.856-1.365L78.634,117.854z M75.269,115.743l-0.857,1.367
	l-1.557-0.976l0.86-1.366L75.269,115.743z M65.087,109.352l-0.859,1.366l-1.556-0.979l0.856-1.365L65.087,109.352z M61.718,107.237
	l-0.855,1.367l-1.552-0.975l0.855-1.365L61.718,107.237z M58.36,105.131l-0.858,1.365l-1.557-0.977l0.859-1.364L58.36,105.131z
	 M86.092,117.663l0.856-1.364l1.556,0.975l-0.856,1.365L86.092,117.663z M95.336,121.539l-0.858,1.368l-1.555-0.979l0.857-1.365
	L95.336,121.539z M91.97,119.431l-0.857,1.363l-1.551-0.973l0.854-1.37L91.97,119.431z M81.693,112.98l-0.857,1.364l-1.554-0.975
	l0.856-1.363L81.693,112.98z M78.328,110.871l-0.856,1.364l-1.557-0.977l0.858-1.363L78.328,110.871z M68.145,104.473l-0.858,1.37
	l-1.557-0.979l0.859-1.367L68.145,104.473z M64.78,102.362l-0.858,1.367l-1.552-0.974l0.856-1.369L64.78,102.362z M61.419,100.253
	l-0.858,1.369l-1.558-0.98l0.858-1.366L61.419,100.253z"/>
<polygon fill="#136739" points="151.049,4.534 170.07,81.863 165.865,82.892 150.076,18.709 147.592,19.313 163.38,83.499 
	159.009,84.57 144.192,24.345 141.707,24.952 156.525,85.176 151.093,86.505 137.854,32.678 135.368,33.285 148.608,87.11 
	145.461,87.881 131.408,30.76 "/>
<g>
	<defs>
		
			<rect id="SVGID_1_" x="122.676" y="48.714" transform="matrix(-0.9302 0.367 -0.367 -0.9302 279.3434 93.0563)" width="16.302" height="48.734"/>
	</defs>
	<clipPath id="SVGID_6_">
		<use xlink:href="#SVGID_1_"  overflow="visible"/>
	</clipPath>
	<g clip-path="url(#SVGID_6_)">
		<path fill="#97CA40" d="M118.669,64.165l16.805,42.988l15.088-5.897l-21.095-53.833L118.669,64.165z M123.325,63.939l-1.116,0.437
			l-0.567-1.452l1.114-0.437L123.325,63.939z M124.557,67.084l-1.118,0.437l-0.569-1.456l1.118-0.434L124.557,67.084z
			 M128.382,80.185l-0.569-1.451l1.119-0.439l0.571,1.455L128.382,80.185z M130.162,81.441l0.569,1.453l-1.12,0.438l-0.568-1.453
			L130.162,81.441z M134.457,92.41l-1.119,0.439l-0.567-1.454l1.115-0.437L134.457,92.41z M127.321,62.377l-1.119,0.438
			l-0.569-1.454l1.122-0.439L127.321,62.377z M128.552,65.523l-1.122,0.44l-0.568-1.456l1.119-0.439L128.552,65.523z
			 M132.376,78.625l-0.569-1.452l1.122-0.439l0.568,1.454L132.376,78.625z M134.156,79.878l0.569,1.453l-1.121,0.439l-0.567-1.454
			L134.156,79.878z M138.451,90.849l-1.121,0.438l-0.568-1.453l1.122-0.437L138.451,90.849z M131.316,60.817l-1.123,0.438
			l-0.567-1.454l1.119-0.439L131.316,60.817z M132.546,63.961l-1.12,0.439l-0.571-1.455l1.118-0.437L132.546,63.961z M136.37,77.064
			l-0.568-1.454l1.12-0.437l0.567,1.455L136.37,77.064z M138.15,78.318l0.569,1.455l-1.119,0.437l-0.569-1.456L138.15,78.318z
			 M142.443,89.287l-1.116,0.439l-0.568-1.456l1.119-0.437L142.443,89.287z M143.672,92.433l-1.117,0.436l-0.565-1.451l1.116-0.44
			L143.672,92.433z M144.468,97.795l1.119-0.438l0.567,1.455l-1.116,0.439L144.468,97.795z M143.24,94.652l1.119-0.436l0.566,1.452
			l-1.118,0.436L143.24,94.652z M139.485,85.045l1.12-0.436l0.567,1.452l-1.12,0.438L139.485,85.045z M138.258,81.901l1.118-0.436
			l0.565,1.452l-1.118,0.436L138.258,81.901z M134.527,72.381l1.119-0.436l0.57,1.457l-1.119,0.436L134.527,72.381z M133.3,69.241
			l1.119-0.439l0.568,1.452l-1.122,0.437L133.3,69.241z M132.07,66.095l1.122-0.438l0.568,1.456l-1.12,0.437L132.07,66.095z
			 M139.68,93.993l-1.119,0.438l-0.569-1.453l1.121-0.438L139.68,93.993z M140.476,99.359l1.117-0.44l0.571,1.454l-1.12,0.44
			L140.476,99.359z M139.246,96.216l1.118-0.44l0.569,1.45l-1.122,0.44L139.246,96.216z M135.489,86.606l1.119-0.438l0.57,1.453
			l-1.121,0.44L135.489,86.606z M134.26,83.464l1.12-0.439l0.568,1.454l-1.12,0.438L134.26,83.464z M130.535,73.942l1.119-0.437
			l0.57,1.455l-1.119,0.439L130.535,73.942z M129.308,70.799l1.117-0.435l0.568,1.45l-1.121,0.436L129.308,70.799z M128.078,67.657
			l1.119-0.438l0.569,1.455l-1.12,0.438L128.078,67.657z M135.686,95.556l-1.118,0.437L134,94.539l1.117-0.438L135.686,95.556z
			 M136.479,100.919l1.118-0.438l0.572,1.455l-1.12,0.439L136.479,100.919z M135.248,97.775l1.123-0.435l0.566,1.45l-1.116,0.439
			L135.248,97.775z M131.497,88.17l1.117-0.438l0.568,1.454l-1.118,0.437L131.497,88.17z M130.267,85.026l1.118-0.44l0.569,1.456
			l-1.117,0.437L130.267,85.026z M126.538,75.504l1.122-0.438l0.569,1.454l-1.122,0.439L126.538,75.504z M125.31,72.36l1.121-0.435
			l0.568,1.451l-1.12,0.438L125.31,72.36z M124.082,69.217l1.118-0.439l0.573,1.457l-1.122,0.438L124.082,69.217z"/>
	</g>
</g>
<polygon fill="#136739" points="91.408,89.616 87.989,84.309 115.759,107.983 114.303,109.365 "/>
<polygon fill="#136739" points="91.408,89.616 90.621,90.119 77.901,66.977 78.688,66.474 "/>
<polygon fill="#136739" points="91.456,89.712 82.308,94.69 82.074,94.016 91.155,89.073 "/>
<polygon opacity="0.26" fill="#97CA40" points="90.302,89.539 82.074,94.016 72.481,74.556 77.901,66.977 "/>
<path fill="#97CA40" d="M87.988,89.015c0.047,0.098,0.011,0.221-0.083,0.272l0,0c-0.092,0.051-0.205,0.013-0.253-0.087l-1.77-3.714
	c-0.047-0.1-0.012-0.222,0.082-0.274l0,0c0.092-0.05,0.205-0.011,0.254,0.089L87.988,89.015z"/>
<path fill="#97CA40" d="M85.379,83.612c0.047,0.1,0.011,0.222-0.083,0.273l0,0c-0.092,0.051-0.205,0.011-0.253-0.089l-1.771-3.714
	c-0.047-0.1-0.011-0.222,0.082-0.274l0,0c0.093-0.05,0.205-0.01,0.252,0.09L85.379,83.612z"/>
<path fill="#97CA40" d="M82.793,78.236c0.047,0.099,0.01,0.221-0.083,0.273l0,0c-0.093,0.05-0.205,0.011-0.252-0.088l-1.771-3.715
	c-0.047-0.101-0.011-0.223,0.082-0.274l0,0c0.093-0.049,0.205-0.011,0.253,0.09L82.793,78.236z"/>
<path fill="#97CA40" d="M79.898,72.963c0.046,0.098,0.011,0.222-0.083,0.272l0,0c-0.092,0.051-0.205,0.012-0.254-0.088l-1.769-3.715
	c-0.048-0.099-0.012-0.222,0.082-0.273l0,0c0.092-0.051,0.206-0.011,0.253,0.089L79.898,72.963z"/>
<path fill="#97CA40" d="M86.602,89.368c0.039,0.083-0.005,0.192-0.097,0.243l0,0c-0.094,0.051-0.199,0.026-0.24-0.058l-1.481-3.107
	c-0.039-0.083,0.004-0.193,0.097-0.244l0,0c0.093-0.051,0.2-0.024,0.24,0.06L86.602,89.368z"/>
<path fill="#97CA40" d="M83.91,84.106c0.039,0.083-0.005,0.192-0.097,0.243l0,0c-0.093,0.05-0.198,0.026-0.24-0.058l-1.48-3.105
	c-0.04-0.083,0.003-0.193,0.097-0.244l0,0c0.092-0.051,0.199-0.025,0.238,0.059L83.91,84.106z"/>
<path fill="#97CA40" d="M81.328,78.66c0.039,0.084-0.003,0.193-0.096,0.243l0,0c-0.093,0.051-0.199,0.025-0.24-0.057l-1.481-3.106
	c-0.039-0.083,0.003-0.193,0.097-0.246l0,0c0.092-0.049,0.2-0.024,0.239,0.061L81.328,78.66z"/>
<path fill="#97CA40" d="M78.5,73.329c0.04,0.083-0.003,0.193-0.095,0.244l0,0c-0.092,0.052-0.2,0.027-0.24-0.055l-1.509-3.09
	c-0.04-0.084,0.001-0.194,0.095-0.246l0,0c0.092-0.051,0.2-0.026,0.239,0.058L78.5,73.329z"/>
<path fill="#97CA40" d="M85.226,90.079c0.039,0.084-0.005,0.193-0.098,0.244l0,0c-0.092,0.05-0.199,0.026-0.239-0.059l-1.48-3.104
	c-0.04-0.084,0.003-0.194,0.097-0.245l0,0c0.092-0.05,0.199-0.025,0.237,0.061L85.226,90.079z"/>
<path fill="#97CA40" d="M82.608,84.911c0.039,0.083-0.004,0.193-0.098,0.244l0,0c-0.092,0.051-0.199,0.026-0.239-0.059l-1.48-3.106
	c-0.039-0.083,0.003-0.192,0.097-0.244l0,0c0.092-0.051,0.199-0.025,0.238,0.06L82.608,84.911z"/>
<path fill="#97CA40" d="M80.023,79.853c0.039,0.084-0.005,0.192-0.098,0.243l0,0c-0.092,0.051-0.199,0.026-0.238-0.058l-1.481-3.106
	c-0.039-0.083,0.004-0.192,0.097-0.245l0,0c0.093-0.05,0.2-0.025,0.238,0.06L80.023,79.853z"/>
<path fill="#97CA40" d="M77.49,74.726c0.039,0.083-0.004,0.192-0.097,0.243l0,0c-0.093,0.051-0.199,0.025-0.239-0.058l-1.48-3.106
	c-0.04-0.083,0.003-0.193,0.097-0.245l0,0c0.093-0.051,0.2-0.024,0.238,0.06L77.49,74.726z"/>
<path fill="#97CA40" d="M83.272,90.726c0.033,0.07-0.003,0.161-0.081,0.204l0,0c-0.077,0.042-0.166,0.02-0.2-0.049l-1.233-2.587
	c-0.032-0.069,0.003-0.159,0.082-0.203l0,0c0.078-0.042,0.166-0.021,0.199,0.05L83.272,90.726z"/>
<path fill="#97CA40" d="M80.993,85.594c0.033,0.069-0.002,0.161-0.08,0.203l0,0c-0.078,0.042-0.167,0.021-0.2-0.05l-1.234-2.584
	c-0.033-0.069,0.002-0.161,0.082-0.204l0,0c0.077-0.043,0.166-0.021,0.198,0.05L80.993,85.594z"/>
<path fill="#97CA40" d="M78.627,80.745c0.031,0.069-0.004,0.161-0.081,0.203l0,0c-0.078,0.042-0.166,0.021-0.2-0.049l-1.233-2.586
	c-0.034-0.067,0.003-0.16,0.082-0.204l0,0c0.076-0.041,0.166-0.021,0.198,0.051L78.627,80.745z"/>
<path fill="#97CA40" d="M75.916,75.78c0.032,0.071-0.004,0.163-0.082,0.205l0,0c-0.078,0.042-0.166,0.02-0.2-0.049l-1.233-2.588
	c-0.033-0.069,0.003-0.16,0.082-0.203l0,0c0.076-0.042,0.166-0.021,0.198,0.051L75.916,75.78z"/>
<path fill="#97CA40" d="M74.708,76.5c0.025,0.056-0.003,0.126-0.065,0.162l0,0c-0.062,0.034-0.133,0.017-0.159-0.04L73.5,74.56
	c-0.026-0.056,0.002-0.129,0.065-0.163l0,0c0.062-0.033,0.132-0.017,0.158,0.04L74.708,76.5z"/>
<path fill="#97CA40" d="M77.541,81.5c0.024,0.055-0.002,0.126-0.065,0.162l0,0c-0.061,0.033-0.132,0.016-0.159-0.04l-0.983-2.063
	c-0.027-0.054,0.001-0.127,0.064-0.163l0,0c0.061-0.032,0.132-0.016,0.158,0.042L77.541,81.5z"/>
<path fill="#97CA40" d="M79.55,86.113c0.024,0.056-0.003,0.129-0.065,0.163l0,0c-0.062,0.034-0.132,0.019-0.159-0.039l-0.983-2.063
	c-0.027-0.054,0.002-0.128,0.064-0.163l0,0c0.061-0.033,0.132-0.018,0.158,0.04L79.55,86.113z"/>
<path fill="#97CA40" d="M81.887,91.192c0.025,0.056-0.002,0.128-0.065,0.162l0,0c-0.061,0.034-0.131,0.017-0.159-0.039l-0.983-2.063
	c-0.027-0.054,0.002-0.127,0.064-0.163l0,0c0.061-0.033,0.132-0.017,0.158,0.04L81.887,91.192z"/>
<polygon fill="#136739" points="93.188,76.415 85.779,69.701 113.961,109.688 116.468,107.311 "/>
<polygon fill="#136739" points="93.188,76.415 94.059,75.244 61.414,49.52 60.542,50.693 "/>
<polygon fill="#136739" points="93.326,76.513 105.587,57.805 104.593,57.167 92.418,75.887 "/>
<polygon opacity="0.26" fill="#97CA40" points="92.434,75.325 103.79,57.895 77.782,39.509 60.609,50.248 "/>
<path fill="#97CA40" d="M92.285,71.475c0.139,0.104,0.328,0.077,0.423-0.06l0,0c0.096-0.138,0.059-0.33-0.079-0.434l-5.15-3.875
	c-0.137-0.103-0.326-0.08-0.421,0.061l0,0c-0.093,0.135-0.059,0.329,0.082,0.434L92.285,71.475z"/>
<path fill="#97CA40" d="M85.16,65.997c0.138,0.102,0.328,0.076,0.423-0.061l0,0c0.095-0.137,0.058-0.329-0.08-0.434l-5.151-3.873
	c-0.136-0.104-0.325-0.081-0.421,0.059l0,0c-0.094,0.135-0.059,0.33,0.081,0.434L85.16,65.997z"/>
<path fill="#97CA40" d="M77.474,60.04c0.138,0.103,0.327,0.077,0.422-0.06l0,0c0.096-0.138,0.059-0.331-0.079-0.435l-5.151-3.874
	c-0.137-0.103-0.325-0.08-0.421,0.06l0,0c-0.094,0.136-0.06,0.33,0.081,0.435L77.474,60.04z"/>
<path fill="#97CA40" d="M70.416,54.647c0.138,0.101,0.327,0.076,0.423-0.061l0,0c0.095-0.139,0.058-0.33-0.08-0.435l-5.15-3.873
	c-0.137-0.104-0.325-0.08-0.421,0.06l0,0c-0.094,0.136-0.059,0.328,0.081,0.433L70.416,54.647z"/>
<path fill="#97CA40" d="M93.451,69.454c0.13,0.098,0.31,0.072,0.401-0.057l0,0c0.09-0.131,0.056-0.314-0.075-0.413l-4.892-3.68
	c-0.13-0.098-0.309-0.075-0.4,0.056l0,0c-0.089,0.131-0.056,0.313,0.077,0.413L93.451,69.454z"/>
<path fill="#97CA40" d="M86.63,64.354c0.131,0.097,0.31,0.072,0.401-0.057l0,0c0.091-0.131,0.056-0.313-0.075-0.412l-4.891-3.681
	c-0.131-0.098-0.31-0.075-0.401,0.056l0,0c-0.09,0.129-0.056,0.313,0.077,0.413L86.63,64.354z"/>
<path fill="#97CA40" d="M79.259,58.36c0.131,0.097,0.311,0.073,0.401-0.057l0,0c0.091-0.131,0.056-0.314-0.075-0.413l-4.893-3.68
	c-0.13-0.098-0.31-0.076-0.4,0.058l0,0c-0.089,0.128-0.056,0.312,0.078,0.411L79.259,58.36z"/>
<path fill="#97CA40" d="M72.121,53.058c0.131,0.098,0.31,0.074,0.402-0.057l0,0c0.09-0.131,0.055-0.313-0.076-0.412l-4.892-3.68
	c-0.13-0.097-0.31-0.074-0.401,0.058l0,0c-0.089,0.128-0.056,0.312,0.078,0.412L72.121,53.058z"/>
<path fill="#97CA40" d="M94.877,67.598c0.13,0.096,0.307,0.072,0.397-0.057l0,0c0.088-0.129,0.054-0.309-0.074-0.406L90.366,63.5
	c-0.127-0.096-0.305-0.075-0.395,0.056l0,0c-0.088,0.128-0.056,0.309,0.076,0.408L94.877,67.598z"/>
<path fill="#97CA40" d="M87.875,62.494c0.13,0.096,0.307,0.073,0.396-0.058l0,0c0.089-0.128,0.055-0.309-0.075-0.407l-4.833-3.634
	c-0.126-0.097-0.305-0.075-0.395,0.057l0,0c-0.088,0.126-0.056,0.308,0.076,0.406L87.875,62.494z"/>
<path fill="#97CA40" d="M80.662,56.903c0.129,0.096,0.306,0.072,0.396-0.058l0,0c0.089-0.13,0.054-0.31-0.075-0.407l-4.833-3.635
	c-0.128-0.096-0.305-0.074-0.396,0.056l0,0c-0.087,0.127-0.055,0.309,0.077,0.407L80.662,56.903z"/>
<path fill="#97CA40" d="M74.039,51.842c0.129,0.097,0.307,0.073,0.396-0.056l0,0c0.09-0.129,0.055-0.309-0.075-0.407l-4.833-3.635
	c-0.129-0.097-0.306-0.076-0.396,0.056l0,0c-0.087,0.127-0.055,0.309,0.078,0.407L74.039,51.842z"/>
<path fill="#97CA40" d="M95.969,65.622c0.126,0.094,0.298,0.07,0.387-0.054l0,0c0.086-0.126,0.053-0.301-0.074-0.397l-4.706-3.539
	c-0.124-0.094-0.296-0.073-0.385,0.055l0,0c-0.086,0.124-0.055,0.301,0.074,0.396L95.969,65.622z"/>
<path fill="#97CA40" d="M89.151,60.652c0.127,0.093,0.299,0.069,0.386-0.057l0,0c0.087-0.125,0.053-0.3-0.073-0.397l-4.707-3.539
	c-0.124-0.094-0.297-0.073-0.384,0.055l0,0c-0.085,0.124-0.054,0.3,0.074,0.397L89.151,60.652z"/>
<path fill="#97CA40" d="M82.126,55.208c0.125,0.093,0.298,0.069,0.386-0.057l0,0c0.086-0.125,0.053-0.3-0.073-0.396l-4.707-3.539
	c-0.125-0.094-0.297-0.074-0.385,0.053l0,0c-0.085,0.125-0.054,0.301,0.074,0.397L82.126,55.208z"/>
<path fill="#97CA40" d="M75.676,50.28c0.125,0.093,0.298,0.07,0.386-0.055l0,0c0.087-0.125,0.054-0.302-0.072-0.396l-4.708-3.541
	c-0.124-0.094-0.296-0.073-0.384,0.055l0,0c-0.085,0.123-0.053,0.301,0.074,0.396L75.676,50.28z"/>
<path fill="#97CA40" d="M96.947,63.762c0.123,0.092,0.291,0.068,0.377-0.053l0,0c0.084-0.122,0.052-0.294-0.071-0.384l-4.583-3.448
	c-0.121-0.092-0.29-0.07-0.375,0.053l0,0c-0.084,0.121-0.053,0.294,0.072,0.386L96.947,63.762z"/>
<path fill="#97CA40" d="M90.308,58.922c0.125,0.09,0.29,0.067,0.377-0.054l0,0c0.085-0.122,0.051-0.294-0.07-0.388l-4.583-3.444
	c-0.121-0.092-0.29-0.071-0.375,0.053l0,0c-0.084,0.12-0.052,0.292,0.072,0.385L90.308,58.922z"/>
<path fill="#97CA40" d="M83.469,53.623c0.121,0.091,0.291,0.067,0.375-0.055l0,0c0.084-0.123,0.052-0.293-0.071-0.386l-4.583-3.446
	c-0.121-0.092-0.29-0.071-0.375,0.052l0,0c-0.083,0.121-0.053,0.292,0.073,0.386L83.469,53.623z"/>
<path fill="#97CA40" d="M77.188,48.824c0.123,0.091,0.291,0.068,0.376-0.054l0,0c0.086-0.122,0.053-0.292-0.07-0.385l-4.583-3.447
	c-0.122-0.093-0.289-0.072-0.374,0.053l0,0c-0.083,0.12-0.052,0.293,0.072,0.384L77.188,48.824z"/>
<path fill="#97CA40" d="M97.757,62.067c0.117,0.087,0.276,0.066,0.358-0.05l0,0c0.08-0.116,0.048-0.279-0.068-0.366l-4.353-3.275
	c-0.115-0.086-0.275-0.067-0.356,0.051l0,0c-0.081,0.114-0.05,0.279,0.068,0.366L97.757,62.067z"/>
<path fill="#97CA40" d="M91.392,57.261c0.117,0.086,0.276,0.064,0.358-0.052l0,0c0.081-0.115,0.048-0.278-0.067-0.367l-4.354-3.273
	c-0.115-0.088-0.276-0.069-0.355,0.051l0,0c-0.081,0.113-0.05,0.275,0.068,0.366L91.392,57.261z"/>
<path fill="#97CA40" d="M84.653,52.062c0.116,0.086,0.277,0.063,0.358-0.051l0,0c0.079-0.117,0.049-0.279-0.068-0.367l-4.354-3.275
	c-0.116-0.087-0.275-0.069-0.356,0.05l0,0c-0.079,0.116-0.05,0.278,0.068,0.367L84.653,52.062z"/>
<path fill="#97CA40" d="M78.686,47.502c0.117,0.086,0.277,0.064,0.358-0.052l0,0c0.081-0.116,0.05-0.277-0.067-0.366l-4.354-3.275
	c-0.116-0.087-0.275-0.068-0.355,0.05l0,0c-0.08,0.116-0.05,0.28,0.069,0.366L78.686,47.502z"/>
<path fill="#97CA40" d="M98.826,60.249c0.114,0.085,0.269,0.065,0.348-0.048l0,0c0.078-0.113,0.048-0.272-0.066-0.357l-4.237-3.188
	c-0.113-0.084-0.269-0.065-0.346,0.049l0,0c-0.079,0.112-0.049,0.272,0.066,0.357L98.826,60.249z"/>
<path fill="#97CA40" d="M92.509,55.529c0.114,0.084,0.27,0.062,0.348-0.05l0,0c0.08-0.113,0.047-0.271-0.065-0.358l-4.238-3.186
	c-0.111-0.085-0.269-0.066-0.346,0.05l0,0c-0.079,0.109-0.048,0.269,0.067,0.356L92.509,55.529z"/>
<path fill="#97CA40" d="M85.89,50.283c0.112,0.084,0.27,0.063,0.348-0.049l0,0c0.078-0.114,0.047-0.271-0.065-0.358l-4.239-3.188
	c-0.112-0.084-0.267-0.065-0.345,0.049l0,0c-0.077,0.112-0.049,0.271,0.067,0.358L85.89,50.283z"/>
<path fill="#97CA40" d="M80.234,46.034c0.114,0.085,0.27,0.065,0.348-0.049l0,0c0.079-0.113,0.048-0.271-0.065-0.354l-4.238-3.188
	c-0.111-0.085-0.267-0.066-0.345,0.048l0,0c-0.079,0.112-0.048,0.271,0.066,0.356L80.234,46.034z"/>
<path fill="#97CA40" d="M99.855,58.528c0.111,0.083,0.262,0.062,0.34-0.047l0,0c0.075-0.109,0.046-0.265-0.065-0.348l-4.126-3.104
	c-0.111-0.082-0.261-0.064-0.337,0.047l0,0c-0.077,0.11-0.047,0.264,0.063,0.349L99.855,58.528z"/>
<path fill="#97CA40" d="M93.704,53.931c0.111,0.081,0.261,0.061,0.338-0.05l0,0c0.078-0.111,0.046-0.264-0.063-0.348l-4.127-3.103
	c-0.109-0.083-0.262-0.064-0.338,0.048l0,0c-0.076,0.107-0.046,0.262,0.066,0.346L93.704,53.931z"/>
<path fill="#97CA40" d="M87.256,48.822c0.11,0.082,0.263,0.06,0.339-0.049l0,0c0.076-0.11,0.046-0.264-0.063-0.347l-4.129-3.105
	c-0.109-0.082-0.261-0.063-0.338,0.048l0,0c-0.074,0.108-0.047,0.264,0.065,0.348L87.256,48.822z"/>
<path fill="#97CA40" d="M81.747,44.684c0.111,0.083,0.262,0.061,0.339-0.05l0,0c0.077-0.109,0.047-0.262-0.063-0.345l-4.128-3.104
	c-0.108-0.084-0.259-0.064-0.336,0.046l0,0c-0.077,0.11-0.047,0.266,0.065,0.347L81.747,44.684z"/>
<path fill="#97CA40" d="M119.868,89.875c-2.166,0.779-11.007-0.511-16.269,3.597c-8.28,6.467-5.449,13.996-6.416,15.073
	c-1.013,1.127-1.27,1.293-3.238,3.349l4.241,5.432l29.518-23.253l-4.314-6.043C123.296,87.911,120.638,89.595,119.868,89.875z
	 M101.087,104.365c-0.412-1.227-1.465-3.213,0.566-4.798c1.804-1.412,3.588-0.23,4.792,0.612
	C106.439,100.185,101.087,104.365,101.087,104.365z M108.279,98.748c-0.412-1.225-1.493-3.192,0.567-4.799
	c1.888-1.478,3.587-0.231,4.793,0.615C113.631,94.569,108.279,98.748,108.279,98.748z"/>
<ellipse transform="matrix(0.7879 -0.6158 0.6158 0.7879 -45.037 89.3018)" fill="#FFFFFF" stroke="#97CA40" stroke-width="2" cx="107.125" cy="110.033" rx="3.125" ry="3.277"/>
<ellipse transform="matrix(0.7881 -0.6155 0.6155 0.7881 -36.1492 94.9678)" fill="#FFFFFF" stroke="#97CA40" stroke-width="2" cx="119.868" cy="99.991" rx="3.19" ry="3.348"/>
<radialGradient id="SVGID_7_" cx="183.376" cy="184.8467" r="106.1865" gradientUnits="userSpaceOnUse">
	<stop  offset="0.6424" style="stop-color:#8DC63F;stop-opacity:0"/>
	<stop  offset="0.7515" style="stop-color:#80B541;stop-opacity:0"/>
	<stop  offset="0.8326" style="stop-color:#85B841;stop-opacity:0.3738"/>
	<stop  offset="0.9231" style="stop-color:#91C240;stop-opacity:0.7912"/>
	<stop  offset="0.9576" style="stop-color:#97CA40;stop-opacity:0.95"/>
</radialGradient>
<circle fill="url(#SVGID_7_)" cx="183.376" cy="184.848" r="106.186"/>
<path fill="#97CA40" d="M143.643,195.485c4.993,7.602,6.624,12.584,4.293,15.643c-2.167,2.846-10.983-4.336-16.885-11.256
	c-5.532-6.486-5.914-13.449-2.479-15.547C133.062,181.581,139.065,188.517,143.643,195.485z"/>
<path fill="#97CA40" d="M213.737,191.896c2.164,1.992,4.755,6.91,5.833,11.668c1.751,7.723-4.609,29.783-12,34.166
	c-5.961,3.535-18.002,5.811-19.166-2.166c-1.167-8,19-32.334-5-33.834c-21.625-1.352,0.5,29.666,0.333,35.834
	c-0.194,7.166-16.578,12.625-25.667-8.5c-3.729-8.668,4.667-14.703,5.167-20.5c0.545-6.318-3.065-16.707,2.269-21.5
	c5.564-5,6.799-1.857,10.564-3.197c1.883-0.67,6.573-1.779,8.667-2.137c2.215-0.379,5.768,3.166,8.167,3.166
	C200.352,184.896,208.823,187.376,213.737,191.896z"/>
<path fill="#97CA40" d="M159.669,156.851c4.799,12.379,10.018,15.664,5.546,19.098c-4.157,3.191-11.961-9.729-18.328-21.482
	c-5.968-11.018-7.11-21.291-1.336-22.988C153.099,129.257,155.272,145.501,159.669,156.851z"/>
<path fill="#97CA40" d="M179.858,148.77c1.633,15.92,5.089,22.006,0.368,23.984c-5.822,2.44-9.506-25.687-10.064-28.21
	c-0.408-1.849-10.207-26.709-0.096-29.739C179.116,112.092,178.365,134.176,179.858,148.77z"/>
<path fill="#97CA40" d="M208.224,154.083c-3.225,15.675-2.385,19.841-6.964,22.799c-5.303,3.424-1.806-21.461-1.622-24.039
	c0.136-1.889-1.812-30.811,6.392-29.953C213.81,123.704,209.518,147.792,208.224,154.083z"/>
<path fill="#97CA40" d="M225.155,168.266c-3.673,10.567-3.471,13.585-6.921,15.087c-3.995,1.742-0.072-15.088,0.291-16.869
	c0.267-1.305,4.002-24.61,7.961-20.31C231.308,151.412,226.629,164.024,225.155,168.266z"/>
</svg>
