<?xml version="1.0" encoding="UTF-8" standalone="no"?><!DOCTYPE svg PUBLIC "-//W3C//DTD SVG 1.1//EN" "http://www.w3.org/Graphics/SVG/1.1/DTD/svg11.dtd"><svg width="100%" height="100%" viewBox="0 0 82 82" version="1.1" xmlns="http://www.w3.org/2000/svg" xmlns:xlink="http://www.w3.org/1999/xlink" xml:space="preserve" style="fill-rule:evenodd;clip-rule:evenodd;stroke-linecap:round;stroke-linejoin:round;stroke-miterlimit:1.5;"><g id="T.-.-Lund.-.-HP.-.-Standardized"><path d="M81.6,40.8c0,22.533 -18.267,40.8 -40.801,40.8c-22.533,0 -40.799,-18.267 -40.799,-40.8c0,-22.533 18.266,-40.8 40.799,-40.8c22.534,0 40.801,18.267 40.801,40.8" style="fill:#dcd4f7;fill-rule:nonzero;"/><g id="Testing"><path d="M75.36,30.231c0,-1.055 -0.857,-1.911 -1.912,-1.911l-16.145,0c-1.055,0 -1.911,0.856 -1.911,1.911l0,21.138c0,1.055 0.856,1.911 1.911,1.911l16.145,0c1.055,0 1.912,-0.856 1.912,-1.911l0,-21.138Z" style="fill:#fff;"/><path d="M73.498,28.321l0.049,0.001l0.048,0.004l0.049,0.004l0.048,0.005l0.047,0.007l0.047,0.008l0.047,0.009l0.047,0.01l0.046,0.011l0.045,0.013l0.045,0.013l0.045,0.015l0.044,0.015l0.044,0.017l0.043,0.017l0.043,0.019l0.042,0.02l0.041,0.02l0.041,0.022l0.04,0.022l0.04,0.024l0.039,0.024l0.039,0.026l0.037,0.026l0.038,0.027l0.036,0.028l0.036,0.029l0.035,0.029l0.034,0.031l0.034,0.031l0.033,0.032l0.032,0.033l0.031,0.034l0.03,0.034l0.03,0.035l0.029,0.036l0.028,0.036l0.027,0.037l0.026,0.038l0.025,0.039l0.025,0.039l0.023,0.039l0.023,0.041l0.021,0.041l0.021,0.041l0.02,0.042l0.018,0.043l0.018,0.043l0.017,0.044l0.015,0.044l0.015,0.044l0.013,0.045l0.012,0.046l0.012,0.046l0.01,0.046l0.009,0.047l0.008,0.048l0.006,0.047l0.006,0.048l0.004,0.048l0.003,0.049l0.002,0.049l0.001,0.049l0,21.138l-0.001,0.049l-0.002,0.049l-0.003,0.049l-0.004,0.048l-0.006,0.048l-0.006,0.047l-0.008,0.048l-0.009,0.047l-0.01,0.046l-0.012,0.046l-0.012,0.046l-0.013,0.045l-0.015,0.044l-0.015,0.044l-0.017,0.044l-0.018,0.043l-0.018,0.043l-0.02,0.042l-0.021,0.041l-0.021,0.041l-0.023,0.041l-0.023,0.039l-0.025,0.039l-0.025,0.039l-0.026,0.038l-0.027,0.037l-0.028,0.036l-0.029,0.036l-0.03,0.035l-0.03,0.034l-0.031,0.034l-0.032,0.033l-0.033,0.032l-0.034,0.031l-0.034,0.031l-0.035,0.029l-0.036,0.029l-0.036,0.028l-0.038,0.027l-0.037,0.026l-0.039,0.026l-0.039,0.024l-0.04,0.024l-0.04,0.022l-0.041,0.022l-0.041,0.02l-0.042,0.02l-0.043,0.019l-0.043,0.017l-0.044,0.017l-0.044,0.015l-0.045,0.015l-0.045,0.013l-0.045,0.013l-0.046,0.011l-0.047,0.01l-0.047,0.009l-0.047,0.008l-0.047,0.007l-0.048,0.005l-0.049,0.004l-0.048,0.004l-0.049,0.001l-0.05,0.001l-16.145,0l-0.049,-0.001l-0.049,-0.001l-0.049,-0.004l-0.048,-0.004l-0.048,-0.005l-0.048,-0.007l-0.047,-0.008l-0.047,-0.009l-0.046,-0.01l-0.046,-0.011l-0.046,-0.013l-0.045,-0.013l-0.045,-0.015l-0.044,-0.015l-0.043,-0.017l-0.044,-0.017l-0.042,-0.019l-0.042,-0.02l-0.042,-0.02l-0.041,-0.022l-0.04,-0.022l-0.04,-0.024l-0.039,-0.024l-0.038,-0.026l-0.038,-0.026l-0.037,-0.027l-0.037,-0.028l-0.035,-0.029l-0.035,-0.029l-0.035,-0.031l-0.033,-0.031l-0.033,-0.032l-0.032,-0.033l-0.032,-0.034l-0.03,-0.034l-0.03,-0.035l-0.028,-0.036l-0.028,-0.036l-0.027,-0.037l-0.027,-0.038l-0.025,-0.039l-0.024,-0.039l-0.024,-0.039l-0.022,-0.041l-0.022,-0.041l-0.021,-0.041l-0.019,-0.042l-0.019,-0.043l-0.018,-0.043l-0.016,-0.044l-0.016,-0.044l-0.014,-0.044l-0.014,-0.045l-0.012,-0.046l-0.011,-0.046l-0.01,-0.046l-0.009,-0.047l-0.008,-0.048l-0.007,-0.047l-0.005,-0.048l-0.005,-0.048l-0.003,-0.049l-0.002,-0.049l0,-0.049l0,-21.138l0,-0.049l0.002,-0.049l0.003,-0.049l0.005,-0.048l0.005,-0.048l0.007,-0.047l0.008,-0.048l0.009,-0.047l0.01,-0.046l0.011,-0.046l0.012,-0.046l0.014,-0.045l0.014,-0.044l0.016,-0.044l0.016,-0.044l0.018,-0.043l0.019,-0.043l0.019,-0.042l0.021,-0.041l0.022,-0.041l0.022,-0.041l0.024,-0.039l0.024,-0.039l0.025,-0.039l0.027,-0.038l0.027,-0.037l0.028,-0.036l0.028,-0.036l0.03,-0.035l0.03,-0.034l0.032,-0.034l0.032,-0.033l0.033,-0.032l0.033,-0.031l0.035,-0.031l0.035,-0.029l0.035,-0.029l0.037,-0.028l0.037,-0.027l0.038,-0.026l0.038,-0.026l0.039,-0.024l0.04,-0.024l0.04,-0.022l0.041,-0.022l0.042,-0.02l0.042,-0.02l0.042,-0.019l0.044,-0.017l0.043,-0.017l0.044,-0.015l0.045,-0.015l0.045,-0.013l0.046,-0.013l0.046,-0.011l0.046,-0.01l0.047,-0.009l0.047,-0.008l0.048,-0.007l0.048,-0.005l0.048,-0.004l0.049,-0.004l0.049,-0.001l0.049,-0.001l16.145,0l0.05,0.001Zm-16.185,1.497l-0.021,0l-0.011,0l-0.011,0.001l-0.011,0.001l-0.01,0.001l-0.01,0.002l-0.011,0.001l-0.009,0.002l-0.01,0.002l-0.01,0.003l-0.009,0.002l-0.01,0.003l-0.01,0.003l-0.008,0.003l-0.009,0.004l-0.01,0.004l-0.009,0.004l-0.009,0.004l-0.009,0.004l-0.008,0.005l-0.009,0.004l-0.009,0.006l-0.009,0.005l-0.008,0.006l-0.008,0.005l-0.008,0.006l-0.008,0.006l-0.008,0.007l-0.008,0.006l-0.007,0.007l-0.008,0.007l-0.007,0.007l-0.008,0.008l-0.006,0.007l-0.007,0.007l-0.007,0.009l-0.006,0.007l-0.006,0.007l-0.006,0.01l-0.006,0.008l-0.005,0.007l-0.005,0.009l-0.006,0.01l-0.005,0.009l-0.004,0.007l-0.004,0.009l-0.005,0.01l-0.004,0.008l-0.003,0.01l-0.004,0.009l-0.003,0.01l-0.003,0.008l-0.003,0.009l-0.003,0.01l-0.002,0.01l-0.002,0.01l-0.002,0.01l-0.002,0.01l-0.001,0.009l-0.001,0.012l-0.001,0.011l-0.001,0.009l0,0.012l-0.001,0.021l0,21.118l0.001,0.021l0,0.012l0.001,0.009l0.001,0.011l0.001,0.012l0.001,0.009l0.002,0.01l0.002,0.01l0.002,0.01l0.002,0.01l0.003,0.01l0.003,0.009l0.003,0.008l0.003,0.01l0.004,0.009l0.003,0.01l0.004,0.009l0.005,0.009l0.004,0.009l0.004,0.007l0.005,0.009l0.006,0.01l0.005,0.009l0.005,0.007l0.006,0.008l0.006,0.009l0.006,0.008l0.006,0.007l0.007,0.009l0.007,0.007l0.007,0.007l0.007,0.008l0.007,0.007l0.008,0.007l0.007,0.007l0.008,0.006l0.008,0.007l0.008,0.006l0.008,0.006l0.008,0.005l0.008,0.006l0.009,0.005l0.009,0.005l0.009,0.005l0.009,0.005l0.008,0.004l0.009,0.004l0.009,0.004l0.01,0.004l0.009,0.004l0.008,0.003l0.01,0.003l0.01,0.003l0.009,0.002l0.01,0.003l0.01,0.002l0.01,0.002l0.01,0.001l0.01,0.002l0.01,0.001l0.011,0.001l0.011,0.001l0.011,0l0.021,0l16.126,0l0.021,0l0.011,0l0.01,-0.001l0.011,-0.001l0.01,-0.001l0.011,-0.002l0.01,-0.001l0.01,-0.002l0.009,-0.002l0.01,-0.003l0.01,-0.002l0.009,-0.003l0.009,-0.003l0.01,-0.003l0.009,-0.004l0.009,-0.004l0.009,-0.003l0.009,-0.005l0.009,-0.004l0.009,-0.005l0.008,-0.005l0.009,-0.005l0.008,-0.005l0.009,-0.006l0.008,-0.005l0.009,-0.006l0.008,-0.006l0.007,-0.006l0.008,-0.007l0.008,-0.007l0.008,-0.008l0.007,-0.006l0.006,-0.007l0.007,-0.008l0.008,-0.008l0.006,-0.007l0.006,-0.008l0.007,-0.008l0.005,-0.008l0.006,-0.009l0.006,-0.008l0.005,-0.008l0.005,-0.009l0.005,-0.009l0.005,-0.009l0.004,-0.008l0.004,-0.009l0.004,-0.01l0.004,-0.009l0.003,-0.008l0.003,-0.009l0.004,-0.01l0.003,-0.011l0.002,-0.009l0.002,-0.008l0.003,-0.011l0.002,-0.01l0.001,-0.01l0.002,-0.01l0.001,-0.01l0.001,-0.012l0,-0.011l0.001,-0.01l0,-0.021l0,-21.118l0,-0.021l-0.001,-0.01l0,-0.011l-0.001,-0.012l-0.001,-0.01l-0.002,-0.01l-0.001,-0.01l-0.002,-0.01l-0.003,-0.011l-0.002,-0.008l-0.002,-0.009l-0.003,-0.011l-0.004,-0.01l-0.003,-0.009l-0.003,-0.008l-0.004,-0.009l-0.004,-0.01l-0.004,-0.009l-0.004,-0.008l-0.005,-0.009l-0.005,-0.009l-0.005,-0.009l-0.005,-0.008l-0.006,-0.008l-0.006,-0.009l-0.006,-0.008l-0.006,-0.008l-0.006,-0.008l-0.006,-0.007l-0.008,-0.008l-0.007,-0.008l-0.006,-0.007l-0.007,-0.006l-0.008,-0.008l-0.008,-0.007l-0.008,-0.007l-0.007,-0.006l-0.008,-0.006l-0.009,-0.006l-0.008,-0.005l-0.009,-0.006l-0.008,-0.005l-0.009,-0.006l-0.008,-0.004l-0.009,-0.005l-0.009,-0.004l-0.009,-0.005l-0.009,-0.003l-0.009,-0.004l-0.009,-0.004l-0.01,-0.003l-0.008,-0.003l-0.01,-0.003l-0.01,-0.002l-0.01,-0.003l-0.009,-0.002l-0.01,-0.002l-0.01,-0.001l-0.011,-0.002l-0.01,-0.001l-0.011,-0.001l-0.01,-0.001l-0.012,0l-0.02,0l-16.126,0Z" style="fill:#707878;"/><g><path d="M62.88,39.677c0,-0.62 -0.504,-1.123 -1.124,-1.123l-2.246,0c-0.62,0 -1.123,0.503 -1.123,1.123l0,2.246c0,0.62 0.503,1.123 1.123,1.123l2.246,0c0.62,0 1.124,-0.503 1.124,-1.123l0,-2.246Z" style="fill:#fff;"/><path d="M61.785,38.554l0.029,0.001l0.029,0.002l0.028,0.002l0.028,0.004l0.028,0.004l0.028,0.004l0.028,0.005l0.027,0.006l0.027,0.007l0.027,0.007l0.026,0.008l0.027,0.009l0.025,0.009l0.026,0.01l0.025,0.01l0.026,0.011l0.024,0.011l0.025,0.013l0.024,0.012l0.023,0.014l0.024,0.013l0.023,0.015l0.022,0.015l0.022,0.015l0.022,0.016l0.022,0.016l0.021,0.017l0.02,0.018l0.021,0.018l0.019,0.018l0.02,0.019l0.018,0.019l0.019,0.02l0.018,0.02l0.017,0.021l0.017,0.021l0.016,0.021l0.016,0.022l0.016,0.022l0.015,0.023l0.014,0.023l0.014,0.023l0.013,0.024l0.013,0.024l0.012,0.024l0.011,0.025l0.011,0.025l0.011,0.025l0.009,0.026l0.01,0.026l0.008,0.026l0.008,0.026l0.007,0.027l0.007,0.027l0.006,0.028l0.005,0.027l0.005,0.028l0.004,0.028l0.003,0.028l0.002,0.028l0.002,0.029l0.001,0.029l0.001,0.029l0,2.246l-0.001,0.029l-0.001,0.029l-0.002,0.029l-0.002,0.028l-0.003,0.028l-0.004,0.028l-0.005,0.028l-0.005,0.027l-0.006,0.028l-0.007,0.027l-0.007,0.027l-0.008,0.026l-0.008,0.026l-0.01,0.026l-0.009,0.026l-0.011,0.025l-0.011,0.025l-0.011,0.025l-0.012,0.024l-0.013,0.024l-0.013,0.024l-0.014,0.023l-0.014,0.023l-0.015,0.023l-0.016,0.022l-0.016,0.022l-0.016,0.021l-0.017,0.021l-0.017,0.021l-0.018,0.02l-0.019,0.02l-0.018,0.019l-0.02,0.019l-0.019,0.018l-0.021,0.018l-0.02,0.018l-0.021,0.017l-0.022,0.016l-0.022,0.016l-0.022,0.015l-0.022,0.015l-0.023,0.015l-0.024,0.013l-0.023,0.014l-0.024,0.012l-0.025,0.013l-0.024,0.011l-0.026,0.011l-0.025,0.01l-0.026,0.01l-0.025,0.009l-0.027,0.009l-0.026,0.008l-0.027,0.007l-0.027,0.007l-0.027,0.006l-0.028,0.005l-0.028,0.004l-0.028,0.004l-0.028,0.004l-0.028,0.002l-0.029,0.002l-0.029,0.001l-0.029,0l-2.246,0l-0.029,0l-0.029,-0.001l-0.028,-0.002l-0.029,-0.002l-0.028,-0.004l-0.028,-0.004l-0.028,-0.004l-0.027,-0.005l-0.027,-0.006l-0.027,-0.007l-0.027,-0.007l-0.027,-0.008l-0.026,-0.009l-0.026,-0.009l-0.026,-0.01l-0.025,-0.01l-0.025,-0.011l-0.025,-0.011l-0.024,-0.013l-0.024,-0.012l-0.024,-0.014l-0.023,-0.013l-0.023,-0.015l-0.023,-0.015l-0.022,-0.015l-0.022,-0.016l-0.021,-0.016l-0.021,-0.017l-0.021,-0.018l-0.02,-0.018l-0.02,-0.018l-0.019,-0.019l-0.019,-0.019l-0.018,-0.02l-0.018,-0.02l-0.018,-0.021l-0.016,-0.021l-0.017,-0.021l-0.016,-0.022l-0.015,-0.022l-0.015,-0.023l-0.014,-0.023l-0.014,-0.023l-0.013,-0.024l-0.013,-0.024l-0.012,-0.024l-0.012,-0.025l-0.011,-0.025l-0.01,-0.025l-0.01,-0.026l-0.009,-0.026l-0.009,-0.026l-0.007,-0.026l-0.008,-0.027l-0.006,-0.027l-0.006,-0.028l-0.006,-0.027l-0.004,-0.028l-0.004,-0.028l-0.003,-0.028l-0.003,-0.028l-0.002,-0.029l-0.001,-0.029l0,-0.029l0,-2.246l0,-0.029l0.001,-0.029l0.002,-0.029l0.003,-0.028l0.003,-0.028l0.004,-0.028l0.004,-0.028l0.006,-0.027l0.006,-0.028l0.006,-0.027l0.008,-0.027l0.007,-0.026l0.009,-0.026l0.009,-0.026l0.01,-0.026l0.01,-0.025l0.011,-0.025l0.012,-0.025l0.012,-0.024l0.013,-0.024l0.013,-0.024l0.014,-0.023l0.014,-0.023l0.015,-0.023l0.015,-0.022l0.016,-0.022l0.017,-0.021l0.016,-0.021l0.018,-0.021l0.018,-0.02l0.018,-0.02l0.019,-0.019l0.019,-0.019l0.02,-0.018l0.02,-0.018l0.021,-0.018l0.021,-0.017l0.021,-0.016l0.022,-0.016l0.022,-0.015l0.023,-0.015l0.023,-0.015l0.023,-0.013l0.024,-0.014l0.024,-0.012l0.024,-0.013l0.025,-0.011l0.025,-0.011l0.025,-0.01l0.026,-0.01l0.026,-0.009l0.026,-0.009l0.027,-0.008l0.027,-0.007l0.027,-0.007l0.027,-0.006l0.027,-0.005l0.028,-0.004l0.028,-0.004l0.028,-0.004l0.029,-0.002l0.028,-0.002l0.029,-0.001l0.029,0l2.246,0l0.029,0Zm-2.269,0.998l-0.01,0l-0.003,0l-0.004,0l-0.003,0.001l-0.003,0l-0.003,0.001l-0.003,0l-0.003,0.001l-0.003,0l-0.003,0.001l-0.002,0.001l-0.003,0l-0.003,0.001l-0.003,0.001l-0.002,0.001l-0.003,0.001l-0.003,0.002l-0.002,0.001l-0.003,0.001l-0.002,0.001l-0.003,0.002l-0.003,0.002l-0.002,0.001l-0.003,0.002l-0.002,0.002l-0.002,0.001l-0.003,0.002l-0.003,0.002l-0.002,0.002l-0.002,0.002l-0.003,0.003l-0.002,0.002l-0.002,0.002l-0.002,0.002l-0.002,0.003l-0.002,0.002l-0.003,0.003l-0.001,0.002l-0.002,0.003l-0.002,0.003l-0.001,0.001l-0.002,0.003l-0.002,0.003l-0.001,0.002l-0.002,0.003l-0.001,0.002l-0.001,0.003l-0.001,0.003l-0.002,0.003l-0.001,0.003l0,0.001l-0.001,0.003l-0.001,0.004l-0.001,0.002l-0.001,0.004l0,0.002l-0.001,0.003l0,0.002l-0.001,0.004l0,0.004l0,0.002l0,0.004l-0.001,0.003l0,0.01l0,2.234l0,0.01l0.001,0.003l0,0.004l0,0.002l0,0.004l0.001,0.004l0,0.002l0.001,0.003l0,0.002l0.001,0.004l0.001,0.002l0.001,0.004l0.001,0.003l0.001,0.004l0.002,0.003l0.001,0.003l0.001,0.003l0.001,0.002l0.002,0.003l0.001,0.002l0.002,0.003l0.002,0.003l0.001,0.001l0.002,0.003l0.002,0.003l0.001,0.002l0.003,0.003l0.002,0.002l0.001,0.002l0.003,0.003l0.002,0.002l0.002,0.002l0.003,0.003l0.002,0.002l0.003,0.002l0.002,0.002l0.002,0.002l0.003,0.001l0.002,0.002l0.003,0.002l0.002,0.001l0.003,0.002l0.003,0.001l0.002,0.002l0.003,0.001l0.002,0.001l0.003,0.002l0.003,0.001l0.002,0.001l0.003,0.001l0.003,0.001l0.003,0l0.003,0.001l0.002,0.001l0.003,0l0.003,0.001l0.003,0l0.003,0.001l0.003,0l0.003,0.001l0.004,0l0.004,0l0.01,0l2.233,0l0.01,0l0.004,0l0.003,0l0.003,-0.001l0.003,0l0.003,-0.001l0.003,0l0.004,-0.001l0.002,0l0.003,-0.001l0.003,-0.001l0.002,0l0.003,-0.001l0.003,-0.001l0.003,-0.001l0.002,-0.001l0.003,-0.002l0.003,-0.001l0.002,-0.001l0.003,-0.002l0.002,-0.001l0.003,-0.001l0.003,-0.002l0.002,-0.002l0.003,-0.002l0.002,-0.001l0.003,-0.002l0.002,-0.002l0.002,-0.002l0.003,-0.003l0.002,-0.002l0.002,-0.001l0.003,-0.003l0.002,-0.003l0.001,-0.001l0.003,-0.003l0.002,-0.003l0.002,-0.002l0.002,-0.003l0.001,-0.002l0.002,-0.003l0.002,-0.002l0.001,-0.002l0.002,-0.003l0.001,-0.003l0.002,-0.003l0.001,-0.002l0.001,-0.003l0.001,-0.002l0.001,-0.003l0.001,-0.003l0.001,-0.002l0.001,-0.004l0,-0.002l0.001,-0.003l0.001,-0.003l0,-0.003l0.001,-0.003l0,-0.003l0,-0.003l0.001,-0.004l0,-0.003l0,-0.003l0,-0.011l0,-2.232l0,-0.011l0,-0.003l0,-0.003l-0.001,-0.004l0,-0.003l0,-0.003l-0.001,-0.003l0,-0.003l-0.001,-0.003l-0.001,-0.003l0,-0.002l-0.001,-0.004l-0.001,-0.002l-0.001,-0.003l-0.001,-0.003l-0.001,-0.002l-0.001,-0.003l-0.001,-0.002l-0.002,-0.003l-0.001,-0.003l-0.002,-0.003l-0.001,-0.002l-0.002,-0.002l-0.002,-0.003l-0.001,-0.002l-0.002,-0.003l-0.002,-0.002l-0.002,-0.002l-0.003,-0.004l-0.001,-0.002l-0.002,-0.002l-0.003,-0.003l-0.002,-0.001l-0.002,-0.002l-0.003,-0.003l-0.002,-0.002l-0.002,-0.002l-0.003,-0.002l-0.002,-0.001l-0.003,-0.002l-0.002,-0.002l-0.003,-0.002l-0.003,-0.001l-0.002,-0.002l-0.003,-0.001l-0.002,-0.001l-0.003,-0.001l-0.003,-0.002l-0.002,-0.001l-0.003,-0.001l-0.003,-0.001l-0.003,-0.001l-0.002,0l-0.003,-0.001l-0.003,-0.001l-0.003,0l-0.003,-0.001l-0.003,0l-0.003,-0.001l-0.003,0l-0.003,-0.001l-0.003,0l-0.004,0l-0.01,0l-2.234,0Z" style="fill:#9fa7a7;"/><path d="M64.377,39.552l4.243,0" style="fill:none;stroke:#6f7878;stroke-width:1px;"/><path d="M64.252,41.299l7.738,0" style="fill:none;stroke:#9fa7a7;stroke-width:0.87px;"/></g><g><path d="M62.88,45.168c0,-0.62 -0.504,-1.123 -1.124,-1.123l-2.246,0c-0.62,0 -1.123,0.503 -1.123,1.123l0,2.246c0,0.62 0.503,1.124 1.123,1.124l2.246,0c0.62,0 1.124,-0.504 1.124,-1.124l0,-2.246Z" style="fill:#fff;"/><path d="M61.785,44.045l0.029,0.001l0.029,0.002l0.028,0.003l0.028,0.003l0.028,0.004l0.028,0.004l0.028,0.006l0.027,0.006l0.027,0.006l0.027,0.007l0.026,0.008l0.027,0.009l0.025,0.009l0.026,0.01l0.025,0.01l0.026,0.011l0.024,0.012l0.025,0.012l0.024,0.012l0.023,0.014l0.024,0.014l0.023,0.014l0.022,0.015l0.022,0.015l0.022,0.016l0.022,0.016l0.021,0.017l0.02,0.018l0.021,0.018l0.019,0.018l0.02,0.019l0.018,0.019l0.019,0.02l0.018,0.02l0.017,0.021l0.017,0.021l0.016,0.021l0.016,0.022l0.016,0.022l0.015,0.023l0.014,0.023l0.014,0.023l0.013,0.024l0.013,0.024l0.012,0.024l0.011,0.025l0.011,0.025l0.011,0.025l0.009,0.026l0.01,0.026l0.008,0.026l0.008,0.027l0.007,0.026l0.007,0.027l0.006,0.028l0.005,0.027l0.005,0.028l0.004,0.028l0.003,0.028l0.002,0.029l0.002,0.028l0.001,0.029l0.001,0.029l0,2.246l-0.001,0.029l-0.001,0.029l-0.002,0.029l-0.002,0.028l-0.003,0.028l-0.004,0.028l-0.005,0.028l-0.005,0.028l-0.006,0.027l-0.007,0.027l-0.007,0.027l-0.008,0.026l-0.008,0.026l-0.01,0.026l-0.009,0.026l-0.011,0.025l-0.011,0.025l-0.011,0.025l-0.012,0.025l-0.013,0.024l-0.013,0.023l-0.014,0.024l-0.014,0.023l-0.015,0.022l-0.016,0.022l-0.016,0.022l-0.016,0.022l-0.017,0.021l-0.017,0.02l-0.018,0.02l-0.019,0.02l-0.018,0.019l-0.02,0.019l-0.019,0.019l-0.021,0.018l-0.02,0.017l-0.021,0.017l-0.022,0.016l-0.022,0.016l-0.022,0.016l-0.022,0.015l-0.023,0.014l-0.024,0.014l-0.023,0.013l-0.024,0.013l-0.025,0.012l-0.024,0.011l-0.026,0.011l-0.025,0.011l-0.026,0.009l-0.025,0.01l-0.027,0.008l-0.026,0.008l-0.027,0.007l-0.027,0.007l-0.027,0.006l-0.028,0.005l-0.028,0.005l-0.028,0.004l-0.028,0.003l-0.028,0.002l-0.029,0.002l-0.029,0.001l-0.029,0.001l-2.246,0l-0.029,-0.001l-0.029,-0.001l-0.028,-0.002l-0.029,-0.002l-0.028,-0.003l-0.028,-0.004l-0.028,-0.005l-0.027,-0.005l-0.027,-0.006l-0.027,-0.007l-0.027,-0.007l-0.027,-0.008l-0.026,-0.008l-0.026,-0.01l-0.026,-0.009l-0.025,-0.011l-0.025,-0.011l-0.025,-0.011l-0.024,-0.012l-0.024,-0.013l-0.024,-0.013l-0.023,-0.014l-0.023,-0.014l-0.023,-0.015l-0.022,-0.016l-0.022,-0.016l-0.021,-0.016l-0.021,-0.017l-0.021,-0.017l-0.02,-0.018l-0.02,-0.019l-0.019,-0.019l-0.019,-0.019l-0.018,-0.02l-0.018,-0.02l-0.018,-0.02l-0.016,-0.021l-0.017,-0.022l-0.016,-0.022l-0.015,-0.022l-0.015,-0.022l-0.014,-0.023l-0.014,-0.024l-0.013,-0.023l-0.013,-0.024l-0.012,-0.025l-0.012,-0.025l-0.011,-0.025l-0.01,-0.025l-0.01,-0.026l-0.009,-0.026l-0.009,-0.026l-0.007,-0.026l-0.008,-0.027l-0.006,-0.027l-0.006,-0.027l-0.006,-0.028l-0.004,-0.028l-0.004,-0.028l-0.003,-0.028l-0.003,-0.028l-0.002,-0.029l-0.001,-0.029l0,-0.029l0,-2.246l0,-0.029l0.001,-0.029l0.002,-0.028l0.003,-0.029l0.003,-0.028l0.004,-0.028l0.004,-0.028l0.006,-0.027l0.006,-0.028l0.006,-0.027l0.008,-0.026l0.007,-0.027l0.009,-0.026l0.009,-0.026l0.01,-0.026l0.01,-0.025l0.011,-0.025l0.012,-0.025l0.012,-0.024l0.013,-0.024l0.013,-0.024l0.014,-0.023l0.014,-0.023l0.015,-0.023l0.015,-0.022l0.016,-0.022l0.017,-0.021l0.016,-0.021l0.018,-0.021l0.018,-0.02l0.018,-0.02l0.019,-0.019l0.019,-0.019l0.02,-0.018l0.02,-0.018l0.021,-0.018l0.021,-0.017l0.021,-0.016l0.022,-0.016l0.022,-0.015l0.023,-0.015l0.023,-0.014l0.023,-0.014l0.024,-0.014l0.024,-0.012l0.024,-0.012l0.025,-0.012l0.025,-0.011l0.025,-0.01l0.026,-0.01l0.026,-0.009l0.026,-0.009l0.027,-0.008l0.027,-0.007l0.027,-0.006l0.027,-0.006l0.027,-0.006l0.028,-0.004l0.028,-0.004l0.028,-0.003l0.029,-0.003l0.028,-0.002l0.029,-0.001l0.029,0l2.246,0l0.029,0Zm-2.269,0.998l-0.01,0l-0.003,0l-0.003,0.001l-0.004,0l-0.003,0l-0.003,0.001l-0.003,0l-0.003,0.001l-0.003,0l-0.002,0.001l-0.003,0.001l-0.003,0.001l-0.003,0.001l-0.003,0.001l-0.002,0l-0.002,0.002l-0.004,0.001l-0.002,0.001l-0.003,0.001l-0.002,0.002l-0.003,0.001l-0.003,0.002l-0.002,0.001l-0.003,0.002l-0.002,0.002l-0.003,0.002l-0.002,0.002l-0.003,0.002l-0.002,0.001l-0.002,0.002l-0.003,0.003l-0.002,0.002l-0.002,0.002l-0.002,0.003l-0.002,0.002l-0.002,0.002l-0.003,0.003l-0.001,0.002l-0.002,0.003l-0.002,0.003l-0.001,0.001l-0.002,0.003l-0.002,0.003l-0.001,0.002l-0.002,0.003l-0.001,0.003l-0.001,0.002l-0.001,0.003l-0.002,0.003l-0.001,0.003l0,0.002l-0.001,0.003l-0.001,0.003l-0.001,0.003l-0.001,0.003l0,0.002l-0.001,0.003l0,0.002l-0.001,0.004l0,0.004l0,0.002l0,0.004l-0.001,0.003l0,0.01l0,2.235l0,0.009l0.001,0.003l0,0.004l0,0.003l0,0.004l0.001,0.003l0,0.002l0.001,0.003l0,0.003l0.001,0.003l0.001,0.002l0.001,0.004l0.001,0.003l0.001,0.004l0.002,0.003l0.001,0.003l0.001,0.003l0.001,0.002l0.002,0.003l0.001,0.002l0.002,0.003l0.002,0.003l0.001,0.002l0.002,0.002l0.002,0.003l0.002,0.003l0.002,0.002l0.001,0.002l0.003,0.003l0.002,0.003l0.002,0.001l0.002,0.003l0.003,0.002l0.002,0.002l0.002,0.002l0.003,0.002l0.002,0.002l0.003,0.002l0.002,0.001l0.003,0.002l0.002,0.001l0.003,0.002l0.003,0.002l0.002,0.001l0.003,0.001l0.003,0.002l0.003,0.001l0.002,0.001l0.002,0.001l0.004,0.001l0.002,0.001l0.003,0l0.002,0.001l0.003,0.001l0.003,0.001l0.003,0l0.003,0.001l0.003,0l0.003,0l0.004,0.001l0.003,0l0.003,0l0.01,0l2.234,0l0.01,0l0.003,0l0.004,0l0.003,-0.001l0.004,0l0.003,0l0.002,-0.001l0.003,0l0.003,-0.001l0.003,-0.001l0.003,0l0.002,-0.001l0.003,-0.001l0.003,-0.001l0.003,-0.001l0.002,-0.001l0.002,-0.001l0.004,-0.002l0.002,-0.001l0.003,-0.001l0.002,-0.002l0.003,-0.001l0.003,-0.002l0.002,-0.002l0.003,-0.001l0.002,-0.002l0.003,-0.002l0.002,-0.002l0.002,-0.002l0.003,-0.002l0.002,-0.002l0.002,-0.002l0.003,-0.003l0.002,-0.002l0.002,-0.002l0.002,-0.003l0.002,-0.002l0.002,-0.003l0.002,-0.003l0.001,-0.002l0.002,-0.003l0.002,-0.002l0.001,-0.002l0.002,-0.003l0.001,-0.003l0.002,-0.003l0.001,-0.002l0.001,-0.003l0.001,-0.002l0.001,-0.003l0.001,-0.003l0.001,-0.002l0.001,-0.004l0,-0.002l0.001,-0.002l0.001,-0.004l0,-0.003l0.001,-0.003l0,-0.002l0,-0.003l0.001,-0.005l0,-0.003l0,-0.003l0,-0.01l0,-2.233l0,-0.011l0,-0.003l0,-0.003l-0.001,-0.004l0,-0.003l0,-0.003l-0.001,-0.003l0,-0.003l-0.001,-0.003l-0.001,-0.002l0,-0.003l-0.001,-0.003l-0.001,-0.002l-0.001,-0.004l-0.001,-0.002l-0.001,-0.003l-0.001,-0.002l-0.001,-0.003l-0.002,-0.003l-0.001,-0.003l-0.002,-0.003l-0.001,-0.002l-0.002,-0.002l-0.002,-0.003l-0.001,-0.002l-0.002,-0.003l-0.002,-0.002l-0.002,-0.002l-0.003,-0.004l-0.001,-0.001l-0.002,-0.003l-0.003,-0.002l-0.001,-0.002l-0.003,-0.002l-0.003,-0.003l-0.002,-0.001l-0.002,-0.002l-0.003,-0.002l-0.002,-0.002l-0.003,-0.002l-0.002,-0.002l-0.003,-0.001l-0.003,-0.002l-0.002,-0.001l-0.003,-0.002l-0.002,-0.001l-0.003,-0.001l-0.003,-0.001l-0.002,-0.001l-0.003,-0.001l-0.003,-0.001l-0.002,-0.001l-0.004,-0.001l-0.002,-0.001l-0.003,-0.001l-0.003,0l-0.003,-0.001l-0.002,0l-0.003,-0.001l-0.004,0l-0.003,0l-0.004,-0.001l-0.003,0l-0.01,0l-2.234,0Z" style="fill:#9fa7a7;"/><path d="M64.377,45.043l4.243,0" style="fill:none;stroke:#6f7878;stroke-width:1px;"/><path d="M64.252,46.79l7.738,0" style="fill:none;stroke:#9fa7a7;stroke-width:0.87px;"/></g><g><path d="M62.88,34.186c0,-0.62 -0.504,-1.124 -1.124,-1.124l-2.246,0c-0.62,0 -1.123,0.504 -1.123,1.124l0,2.246c0,0.62 0.503,1.123 1.123,1.123l2.246,0c0.62,0 1.124,-0.503 1.124,-1.123l0,-2.246Z" style="fill:#fff;"/><path d="M61.785,33.063l0.029,0.001l0.029,0.002l0.028,0.002l0.028,0.003l0.028,0.004l0.028,0.005l0.028,0.005l0.027,0.006l0.027,0.007l0.027,0.007l0.026,0.008l0.027,0.008l0.025,0.01l0.026,0.009l0.025,0.011l0.026,0.011l0.024,0.011l0.025,0.012l0.024,0.013l0.023,0.013l0.024,0.014l0.023,0.014l0.022,0.015l0.022,0.016l0.022,0.016l0.022,0.016l0.021,0.017l0.02,0.017l0.021,0.018l0.019,0.019l0.02,0.019l0.018,0.019l0.019,0.02l0.018,0.02l0.017,0.02l0.017,0.021l0.016,0.022l0.016,0.022l0.016,0.022l0.015,0.022l0.014,0.023l0.014,0.024l0.013,0.023l0.013,0.024l0.012,0.025l0.011,0.025l0.011,0.025l0.011,0.025l0.009,0.026l0.01,0.026l0.008,0.026l0.008,0.026l0.007,0.027l0.007,0.027l0.006,0.027l0.005,0.028l0.005,0.028l0.004,0.028l0.003,0.028l0.002,0.028l0.002,0.029l0.001,0.029l0.001,0.029l0,2.246l-0.001,0.029l-0.001,0.029l-0.002,0.028l-0.002,0.029l-0.003,0.028l-0.004,0.028l-0.005,0.028l-0.005,0.027l-0.006,0.028l-0.007,0.027l-0.007,0.026l-0.008,0.027l-0.008,0.026l-0.01,0.026l-0.009,0.026l-0.011,0.025l-0.011,0.025l-0.011,0.025l-0.012,0.024l-0.013,0.024l-0.013,0.024l-0.014,0.023l-0.014,0.023l-0.015,0.023l-0.016,0.022l-0.016,0.022l-0.016,0.021l-0.017,0.021l-0.017,0.021l-0.018,0.02l-0.019,0.02l-0.018,0.019l-0.02,0.019l-0.019,0.018l-0.021,0.018l-0.02,0.018l-0.021,0.017l-0.022,0.016l-0.022,0.016l-0.022,0.015l-0.022,0.015l-0.023,0.014l-0.024,0.014l-0.023,0.014l-0.024,0.012l-0.025,0.012l-0.024,0.012l-0.026,0.011l-0.025,0.01l-0.026,0.01l-0.025,0.009l-0.027,0.009l-0.026,0.008l-0.027,0.007l-0.027,0.006l-0.027,0.006l-0.028,0.006l-0.028,0.004l-0.028,0.004l-0.028,0.003l-0.028,0.003l-0.029,0.002l-0.029,0.001l-0.029,0l-2.246,0l-0.029,0l-0.029,-0.001l-0.028,-0.002l-0.029,-0.003l-0.028,-0.003l-0.028,-0.004l-0.028,-0.004l-0.027,-0.006l-0.027,-0.006l-0.027,-0.006l-0.027,-0.007l-0.027,-0.008l-0.026,-0.009l-0.026,-0.009l-0.026,-0.01l-0.025,-0.01l-0.025,-0.011l-0.025,-0.012l-0.024,-0.012l-0.024,-0.012l-0.024,-0.014l-0.023,-0.014l-0.023,-0.014l-0.023,-0.015l-0.022,-0.015l-0.022,-0.016l-0.021,-0.016l-0.021,-0.017l-0.021,-0.018l-0.02,-0.018l-0.02,-0.018l-0.019,-0.019l-0.019,-0.019l-0.018,-0.02l-0.018,-0.02l-0.018,-0.021l-0.016,-0.021l-0.017,-0.021l-0.016,-0.022l-0.015,-0.022l-0.015,-0.023l-0.014,-0.023l-0.014,-0.023l-0.013,-0.024l-0.013,-0.024l-0.012,-0.024l-0.012,-0.025l-0.011,-0.025l-0.01,-0.025l-0.01,-0.026l-0.009,-0.026l-0.009,-0.026l-0.007,-0.027l-0.008,-0.026l-0.006,-0.027l-0.006,-0.028l-0.006,-0.027l-0.004,-0.028l-0.004,-0.028l-0.003,-0.028l-0.003,-0.029l-0.002,-0.028l-0.001,-0.029l0,-0.029l0,-2.246l0,-0.029l0.001,-0.029l0.002,-0.029l0.003,-0.028l0.003,-0.028l0.004,-0.028l0.004,-0.028l0.006,-0.028l0.006,-0.027l0.006,-0.027l0.008,-0.027l0.007,-0.026l0.009,-0.026l0.009,-0.026l0.01,-0.026l0.01,-0.025l0.011,-0.025l0.012,-0.025l0.012,-0.025l0.013,-0.024l0.013,-0.023l0.014,-0.024l0.014,-0.023l0.015,-0.022l0.015,-0.022l0.016,-0.022l0.017,-0.022l0.016,-0.021l0.018,-0.02l0.018,-0.02l0.018,-0.02l0.019,-0.019l0.019,-0.019l0.02,-0.019l0.02,-0.018l0.021,-0.017l0.021,-0.017l0.021,-0.016l0.022,-0.016l0.022,-0.016l0.023,-0.015l0.023,-0.014l0.023,-0.014l0.024,-0.013l0.024,-0.013l0.024,-0.012l0.025,-0.011l0.025,-0.011l0.025,-0.011l0.026,-0.009l0.026,-0.01l0.026,-0.008l0.027,-0.008l0.027,-0.007l0.027,-0.007l0.027,-0.006l0.027,-0.005l0.028,-0.005l0.028,-0.004l0.028,-0.003l0.029,-0.002l0.028,-0.002l0.029,-0.001l0.029,-0.001l2.246,0l0.029,0.001Zm-2.269,0.998l-0.01,0l-0.003,0l-0.003,0l-0.004,0.001l-0.003,0l-0.003,0l-0.003,0.001l-0.003,0l-0.003,0.001l-0.002,0.001l-0.003,0l-0.003,0.001l-0.003,0.001l-0.002,0.001l-0.003,0.001l-0.003,0.001l-0.003,0.001l-0.002,0.002l-0.003,0.001l-0.002,0.001l-0.003,0.002l-0.003,0.001l-0.002,0.002l-0.003,0.002l-0.002,0.001l-0.003,0.002l-0.002,0.002l-0.003,0.002l-0.002,0.002l-0.002,0.002l-0.003,0.002l-0.002,0.003l-0.002,0.002l-0.002,0.002l-0.003,0.003l-0.001,0.002l-0.003,0.002l-0.001,0.003l-0.002,0.002l-0.002,0.003l-0.001,0.002l-0.002,0.003l-0.002,0.003l-0.001,0.002l-0.002,0.003l-0.001,0.002l-0.001,0.002l-0.001,0.004l-0.002,0.003l-0.001,0.002l0,0.002l-0.001,0.003l-0.001,0.004l-0.001,0.002l-0.001,0.003l0,0.003l-0.001,0.003l0,0.002l-0.001,0.003l0,0.004l0,0.003l0,0.004l-0.001,0.003l0,0.009l0,2.235l0,0.01l0.001,0.003l0,0.004l0,0.002l0,0.004l0.001,0.004l0,0.002l0.001,0.003l0,0.002l0.001,0.003l0.001,0.003l0.001,0.003l0.001,0.003l0.001,0.005l0.002,0.003l0.001,0.003l0.001,0.003l0.001,0.002l0.002,0.002l0.001,0.003l0.002,0.003l0.002,0.003l0.001,0.001l0.002,0.003l0.002,0.003l0.002,0.002l0.002,0.003l0.001,0.002l0.003,0.002l0.002,0.003l0.002,0.002l0.002,0.002l0.003,0.003l0.002,0.001l0.002,0.002l0.003,0.002l0.002,0.002l0.003,0.002l0.002,0.002l0.003,0.002l0.002,0.001l0.003,0.002l0.003,0.001l0.002,0.002l0.003,0.001l0.003,0.001l0.003,0.002l0.002,0l0.002,0.001l0.003,0.001l0.003,0.001l0.003,0.001l0.003,0.001l0.002,0.001l0.003,0l0.003,0.001l0.003,0l0.003,0.001l0.003,0l0.004,0l0.003,0.001l0.003,0l0.01,0l2.234,0l0.01,0l0.003,0l0.004,-0.001l0.003,0l0.004,0l0.003,-0.001l0.002,0l0.003,-0.001l0.003,0l0.003,-0.001l0.002,-0.001l0.004,-0.001l0.002,-0.001l0.003,-0.001l0.003,-0.001l0.002,0l0.002,-0.002l0.004,-0.001l0.002,-0.001l0.003,-0.002l0.002,-0.001l0.003,-0.002l0.003,-0.001l0.002,-0.002l0.003,-0.002l0.002,-0.002l0.003,-0.002l0.002,-0.002l0.002,-0.001l0.003,-0.003l0.002,-0.002l0.002,-0.002l0.003,-0.002l0.002,-0.003l0.002,-0.002l0.002,-0.003l0.002,-0.002l0.002,-0.002l0.002,-0.003l0.001,-0.002l0.002,-0.003l0.002,-0.002l0.001,-0.002l0.002,-0.004l0.001,-0.002l0.002,-0.003l0.001,-0.003l0.001,-0.002l0.001,-0.002l0.001,-0.003l0.001,-0.004l0.001,-0.002l0.001,-0.003l0,-0.003l0.001,-0.002l0.001,-0.003l0,-0.003l0.001,-0.003l0,-0.003l0,-0.003l0.001,-0.004l0,-0.003l0,-0.003l0,-0.011l0,-2.233l0,-0.01l0,-0.003l0,-0.003l-0.001,-0.005l0,-0.003l0,-0.002l-0.001,-0.003l0,-0.003l-0.001,-0.004l-0.001,-0.002l0,-0.002l-0.001,-0.004l-0.001,-0.002l-0.001,-0.003l-0.001,-0.003l-0.001,-0.002l-0.001,-0.003l-0.001,-0.002l-0.002,-0.003l-0.001,-0.003l-0.002,-0.003l-0.001,-0.002l-0.002,-0.002l-0.002,-0.003l-0.001,-0.003l-0.002,-0.002l-0.002,-0.003l-0.002,-0.002l-0.002,-0.003l-0.002,-0.002l-0.002,-0.002l-0.003,-0.003l-0.002,-0.002l-0.002,-0.002l-0.003,-0.002l-0.002,-0.002l-0.002,-0.002l-0.003,-0.002l-0.002,-0.002l-0.003,-0.001l-0.002,-0.002l-0.003,-0.002l-0.003,-0.001l-0.002,-0.002l-0.002,-0.001l-0.003,-0.001l-0.003,-0.002l-0.003,-0.001l-0.002,-0.001l-0.003,-0.001l-0.003,-0.001l-0.002,-0.001l-0.003,-0.001l-0.003,0l-0.002,-0.001l-0.004,-0.001l-0.003,0l-0.003,-0.001l-0.002,0l-0.004,0l-0.003,-0.001l-0.003,0l-0.004,0l-0.01,0l-2.234,0Z" style="fill:#9fa7a7;"/><path d="M64.377,34.061l4.243,0" style="fill:none;stroke:#6f7878;stroke-width:1px;"/><path d="M64.252,35.808l7.738,0" style="fill:none;stroke:#9fa7a7;stroke-width:0.87px;"/></g><path d="M59.884,34.81l0.999,0.998l2.496,-2.496" style="fill:none;stroke:#ff5c49;stroke-width:0.87px;"/></g><path d="M18.475,30.762c-1.32,-0.263 -2.679,-0.263 -3.999,0l-0.191,2.699c-0.503,0.15 -0.989,0.351 -1.451,0.601l-2.043,-1.774c-1.119,0.748 -2.08,1.708 -2.827,2.828l1.773,2.043c-0.249,0.462 -0.451,0.948 -0.601,1.451l-2.699,0.191c-0.263,1.32 -0.263,2.678 0,3.998l2.699,0.191c0.15,0.503 0.352,0.989 0.601,1.451l-1.773,2.043c0.747,1.12 1.708,2.08 2.827,2.828l2.043,-1.774c0.462,0.25 0.948,0.451 1.451,0.601l0.191,2.699c1.32,0.263 2.679,0.263 3.999,0l0.19,-2.699c0.503,-0.15 0.99,-0.351 1.451,-0.601l2.044,1.774c1.119,-0.748 2.08,-1.708 2.827,-2.828l-1.774,-2.043c0.25,-0.462 0.451,-0.948 0.601,-1.451l2.7,-0.191c0.263,-1.32 0.263,-2.678 0,-3.998l-2.7,-0.191c-0.15,-0.503 -0.351,-0.989 -0.601,-1.451l1.774,-2.043c-0.747,-1.12 -1.708,-2.08 -2.827,-2.828l-2.044,1.774c-0.461,-0.25 -0.948,-0.451 -1.451,-0.601l-0.19,-2.699Zm-2,6.403c2.006,0 3.635,1.629 3.635,3.635c0,2.006 -1.629,3.635 -3.635,3.635c-2.006,0 -3.634,-1.629 -3.634,-3.635c0,-2.006 1.628,-3.635 3.634,-3.635Z" style="fill:#8c9696;"/><clipPath id="_clip1"><path d="M18.475,30.762c-1.32,-0.263 -2.679,-0.263 -3.999,0l-0.191,2.699c-0.503,0.15 -0.989,0.351 -1.451,0.601l-2.043,-1.774c-1.119,0.748 -2.08,1.708 -2.827,2.828l1.773,2.043c-0.249,0.462 -0.451,0.948 -0.601,1.451l-2.699,0.191c-0.263,1.32 -0.263,2.678 0,3.998l2.699,0.191c0.15,0.503 0.352,0.989 0.601,1.451l-1.773,2.043c0.747,1.12 1.708,2.08 2.827,2.828l2.043,-1.774c0.462,0.25 0.948,0.451 1.451,0.601l0.191,2.699c1.32,0.263 2.679,0.263 3.999,0l0.19,-2.699c0.503,-0.15 0.99,-0.351 1.451,-0.601l2.044,1.774c1.119,-0.748 2.08,-1.708 2.827,-2.828l-1.774,-2.043c0.25,-0.462 0.451,-0.948 0.601,-1.451l2.7,-0.191c0.263,-1.32 0.263,-2.678 0,-3.998l-2.7,-0.191c-0.15,-0.503 -0.351,-0.989 -0.601,-1.451l1.774,-2.043c-0.747,-1.12 -1.708,-2.08 -2.827,-2.828l-2.044,1.774c-0.461,-0.25 -0.948,-0.451 -1.451,-0.601l-0.19,-2.699Zm-2,6.403c2.006,0 3.635,1.629 3.635,3.635c0,2.006 -1.629,3.635 -3.635,3.635c-2.006,0 -3.634,-1.629 -3.634,-3.635c0,-2.006 1.628,-3.635 3.634,-3.635Z"/></clipPath><g clip-path="url(#_clip1)"><rect x="16.475" y="28.32" width="12.311" height="24.96" style="fill:#707878;"/></g><path d="M31.524,44.522l0,-7.444l13.031,0l0,-3.718l7.44,7.44l-7.44,7.44l0,-3.718l-13.031,0Z" style="fill:#00aa5e;"/><clipPath id="_clip2"><path d="M31.524,44.522l0,-7.444l13.031,0l0,-3.718l7.44,7.44l-7.44,7.44l0,-3.718l-13.031,0Z"/></clipPath><g clip-path="url(#_clip2)"><rect x="30.641" y="32.4" width="22.603" height="8.4" style="fill:#34bc6e;"/></g></g></svg>