<?xml version="1.0" encoding="UTF-8" standalone="no"?><!DOCTYPE svg PUBLIC "-//W3C//DTD SVG 1.1//EN" "http://www.w3.org/Graphics/SVG/1.1/DTD/svg11.dtd"><svg width="100%" height="100%" viewBox="0 0 103 25" version="1.1" xmlns="http://www.w3.org/2000/svg" xmlns:xlink="http://www.w3.org/1999/xlink" xml:space="preserve" style="fill-rule:evenodd;clip-rule:evenodd;"><g id="T.-.-Lund.-.-BBa_K2266002"><path d="M23.853,2.232l3.722,1.861l-3.722,1.862l0,-3.723Z" style="fill-rule:nonzero;stroke:#000;stroke-width:1px;"/><path id="patch_7" d="M40.605,13.4c0,-1.234 -0.491,-2.418 -1.363,-3.29c-0.873,-0.873 -2.057,-1.363 -3.291,-1.363c-1.233,0 -2.418,0.49 -3.29,1.363c-0.873,0.872 -1.363,2.056 -1.363,3.29l9.307,0Z" style="fill:#b2b2b2;fill-rule:nonzero;stroke:#000;stroke-width:1px;"/><path id="line2d_5" d="M13.615,13.4l0,-9.307" style="fill:none;stroke:#000;stroke-width:1px;stroke-linecap:square;"/><path id="line2d_6" d="M13.615,4.093l12.099,0" style="fill:none;stroke:#000;stroke-width:1px;stroke-linecap:square;"/><path id="line2d_7" d="M2.447,13.4l97.721,0" style="fill:none;stroke:#000;stroke-width:1px;stroke-linecap:square;"/><path d="M52.703,7.816l0,11.168l29.782,0l0,3.723l7.445,-9.307l-7.445,-9.307l0,3.723l-29.782,0Z" style="fill:#5392ff;fill-rule:nonzero;stroke:#000;stroke-width:1px;"/><g id="text_5"><path id="DejaVuSans.-42" d="M7.667,16.864l0,0.802l0.475,0c0.159,0 0.277,-0.033 0.353,-0.099c0.077,-0.066 0.116,-0.167 0.116,-0.303c0,-0.137 -0.039,-0.237 -0.116,-0.302c-0.076,-0.065 -0.194,-0.098 -0.353,-0.098l-0.475,0Zm0,-0.899l0,0.659l0.438,0c0.145,0 0.252,-0.027 0.323,-0.081c0.071,-0.055 0.106,-0.137 0.106,-0.249c0,-0.11 -0.035,-0.192 -0.106,-0.247c-0.071,-0.055 -0.178,-0.082 -0.323,-0.082l-0.438,0Zm-0.296,-0.243l0.756,0c0.226,0 0.4,0.046 0.522,0.14c0.122,0.094 0.183,0.227 0.183,0.4c0,0.134 -0.031,0.241 -0.094,0.32c-0.062,0.079 -0.154,0.128 -0.276,0.147c0.146,0.032 0.259,0.097 0.34,0.196c0.08,0.099 0.121,0.223 0.121,0.372c0,0.195 -0.067,0.346 -0.199,0.452c-0.133,0.107 -0.322,0.16 -0.568,0.16l-0.785,0l0,-2.187Z" style="fill-rule:nonzero;"/><path id="DejaVuSans.-62" d="M10.596,17.09c0,-0.198 -0.041,-0.354 -0.123,-0.467c-0.081,-0.112 -0.193,-0.169 -0.336,-0.169c-0.143,0 -0.255,0.057 -0.336,0.169c-0.082,0.113 -0.123,0.269 -0.123,0.467c0,0.198 0.041,0.353 0.123,0.466c0.081,0.113 0.193,0.17 0.336,0.17c0.143,0 0.255,-0.057 0.336,-0.17c0.082,-0.113 0.123,-0.268 0.123,-0.466Zm-0.918,-0.573c0.057,-0.097 0.129,-0.17 0.215,-0.217c0.086,-0.047 0.19,-0.071 0.31,-0.071c0.199,0 0.361,0.079 0.485,0.237c0.125,0.158 0.187,0.366 0.187,0.624c0,0.258 -0.062,0.466 -0.187,0.624c-0.124,0.158 -0.286,0.237 -0.485,0.237c-0.12,0 -0.224,-0.023 -0.31,-0.071c-0.086,-0.047 -0.158,-0.12 -0.215,-0.217l0,0.246l-0.271,0l0,-2.28l0.271,0l0,0.888Z" style="fill-rule:nonzero;"/><path id="DejaVuSans.-61" d="M12.068,17.084c-0.218,0 -0.369,0.025 -0.453,0.075c-0.084,0.049 -0.126,0.134 -0.126,0.255c0,0.095 0.031,0.171 0.094,0.228c0.064,0.056 0.149,0.084 0.257,0.084c0.15,0 0.27,-0.053 0.36,-0.159c0.091,-0.106 0.136,-0.247 0.136,-0.423l0,-0.06l-0.268,0Zm0.537,-0.111l0,0.936l-0.269,0l0,-0.249c-0.062,0.099 -0.139,0.173 -0.23,0.22c-0.092,0.048 -0.205,0.071 -0.337,0.071c-0.168,0 -0.302,-0.047 -0.401,-0.141c-0.099,-0.094 -0.149,-0.221 -0.149,-0.379c0,-0.184 0.062,-0.323 0.185,-0.417c0.124,-0.094 0.308,-0.141 0.553,-0.141l0.379,0l0,-0.026c0,-0.124 -0.041,-0.22 -0.123,-0.288c-0.081,-0.068 -0.196,-0.102 -0.343,-0.102c-0.094,0 -0.185,0.011 -0.274,0.034c-0.089,0.022 -0.174,0.056 -0.256,0.101l0,-0.249c0.098,-0.038 0.194,-0.067 0.287,-0.086c0.092,-0.019 0.183,-0.028 0.27,-0.028c0.238,0 0.415,0.061 0.533,0.184c0.117,0.123 0.175,0.31 0.175,0.56Z" style="fill-rule:nonzero;"/><path id="DejaVuSans.-5f" d="M14.407,18.407l0,0.209l-1.559,0l0,-0.209l1.559,0Z" style="fill-rule:nonzero;"/><path id="DejaVuSans.-4a" d="M14.672,15.722l0.296,0l0,2.034c0,0.264 -0.05,0.456 -0.15,0.575c-0.1,0.119 -0.261,0.178 -0.483,0.178l-0.113,0l0,-0.249l0.093,0c0.13,0 0.223,-0.036 0.276,-0.11c0.054,-0.073 0.081,-0.204 0.081,-0.394l0,-2.034Z" style="fill-rule:nonzero;"/><path id="DejaVuSans.-32" d="M15.838,17.66l1.033,0l0,0.249l-1.389,0l0,-0.249c0.112,-0.116 0.265,-0.272 0.459,-0.468c0.194,-0.196 0.316,-0.322 0.366,-0.379c0.094,-0.106 0.161,-0.196 0.198,-0.27c0.038,-0.074 0.057,-0.146 0.057,-0.218c0,-0.116 -0.041,-0.211 -0.123,-0.284c-0.081,-0.073 -0.187,-0.11 -0.318,-0.11c-0.093,0 -0.191,0.016 -0.294,0.048c-0.103,0.033 -0.213,0.082 -0.33,0.147l0,-0.299c0.119,-0.048 0.23,-0.084 0.333,-0.108c0.104,-0.025 0.199,-0.037 0.285,-0.037c0.227,0 0.407,0.057 0.542,0.17c0.135,0.114 0.202,0.265 0.202,0.454c0,0.09 -0.017,0.175 -0.051,0.256c-0.033,0.08 -0.094,0.175 -0.183,0.285c-0.025,0.028 -0.102,0.11 -0.233,0.245c-0.131,0.136 -0.316,0.325 -0.554,0.568Z" style="fill-rule:nonzero;"/><path id="DejaVuSans.-33" d="M18.388,16.729c0.142,0.031 0.252,0.094 0.332,0.19c0.079,0.095 0.119,0.214 0.119,0.354c0,0.216 -0.074,0.383 -0.222,0.501c-0.149,0.118 -0.36,0.177 -0.633,0.177c-0.092,0 -0.186,-0.009 -0.283,-0.027c-0.097,-0.018 -0.198,-0.045 -0.301,-0.081l0,-0.286c0.082,0.048 0.171,0.084 0.269,0.109c0.098,0.024 0.2,0.036 0.306,0.036c0.186,0 0.327,-0.036 0.424,-0.11c0.097,-0.073 0.146,-0.179 0.146,-0.319c0,-0.129 -0.045,-0.23 -0.136,-0.302c-0.09,-0.073 -0.215,-0.109 -0.376,-0.109l-0.255,0l0,-0.244l0.266,0c0.146,0 0.257,-0.029 0.334,-0.087c0.077,-0.058 0.116,-0.142 0.116,-0.251c0,-0.112 -0.04,-0.198 -0.12,-0.258c-0.079,-0.061 -0.193,-0.091 -0.341,-0.091c-0.082,0 -0.169,0.009 -0.261,0.027c-0.093,0.017 -0.195,0.045 -0.307,0.081l0,-0.263c0.113,-0.031 0.218,-0.055 0.316,-0.07c0.098,-0.016 0.191,-0.024 0.278,-0.024c0.225,0 0.402,0.051 0.533,0.154c0.131,0.101 0.196,0.239 0.196,0.413c0,0.121 -0.034,0.224 -0.104,0.307c-0.069,0.083 -0.168,0.141 -0.296,0.173Z" style="fill-rule:nonzero;"/><path id="DejaVuSans.-31" d="M19.452,17.66l0.483,0l0,-1.669l-0.526,0.106l0,-0.27l0.523,-0.105l0.296,0l0,1.938l0.483,0l0,0.249l-1.259,0l0,-0.249Z" style="fill-rule:nonzero;"/><path id="DejaVuSans.-30" d="M21.942,15.917c-0.152,0 -0.267,0.075 -0.344,0.225c-0.076,0.149 -0.115,0.375 -0.115,0.676c0,0.299 0.039,0.524 0.115,0.674c0.077,0.15 0.192,0.225 0.344,0.225c0.153,0 0.268,-0.075 0.345,-0.225c0.077,-0.15 0.115,-0.375 0.115,-0.674c0,-0.301 -0.038,-0.527 -0.115,-0.676c-0.077,-0.15 -0.192,-0.225 -0.345,-0.225Zm0,-0.235c0.245,0 0.433,0.097 0.562,0.291c0.129,0.194 0.194,0.475 0.194,0.845c0,0.368 -0.065,0.649 -0.194,0.843c-0.129,0.194 -0.317,0.29 -0.562,0.29c-0.245,0 -0.432,-0.096 -0.562,-0.29c-0.129,-0.194 -0.194,-0.475 -0.194,-0.843c0,-0.37 0.065,-0.651 0.194,-0.845c0.13,-0.194 0.317,-0.291 0.562,-0.291Z" style="fill-rule:nonzero;"/><path id="DejaVuSans.-301" d="M23.851,15.917c-0.153,0 -0.267,0.075 -0.344,0.225c-0.077,0.149 -0.115,0.375 -0.115,0.676c0,0.299 0.038,0.524 0.115,0.674c0.077,0.15 0.191,0.225 0.344,0.225c0.153,0 0.268,-0.075 0.345,-0.225c0.076,-0.15 0.115,-0.375 0.115,-0.674c0,-0.301 -0.039,-0.527 -0.115,-0.676c-0.077,-0.15 -0.192,-0.225 -0.345,-0.225Zm0,-0.235c0.245,0 0.432,0.097 0.562,0.291c0.129,0.194 0.194,0.475 0.194,0.845c0,0.368 -0.065,0.649 -0.194,0.843c-0.13,0.194 -0.317,0.29 -0.562,0.29c-0.245,0 -0.433,-0.096 -0.562,-0.29c-0.129,-0.194 -0.194,-0.475 -0.194,-0.843c0,-0.37 0.065,-0.651 0.194,-0.845c0.129,-0.194 0.317,-0.291 0.562,-0.291Z" style="fill-rule:nonzero;"/></g><g id="text_6"><path id="DejaVuSans.-421" d="M28.044,16.864l0,0.802l0.475,0c0.159,0 0.277,-0.033 0.353,-0.099c0.077,-0.066 0.116,-0.167 0.116,-0.303c0,-0.137 -0.039,-0.237 -0.116,-0.302c-0.076,-0.065 -0.194,-0.098 -0.353,-0.098l-0.475,0Zm0,-0.899l0,0.659l0.438,0c0.145,0 0.252,-0.027 0.323,-0.081c0.071,-0.055 0.106,-0.137 0.106,-0.249c0,-0.11 -0.035,-0.192 -0.106,-0.247c-0.071,-0.055 -0.178,-0.082 -0.323,-0.082l-0.438,0Zm-0.296,-0.243l0.756,0c0.226,0 0.4,0.046 0.522,0.14c0.122,0.094 0.183,0.227 0.183,0.4c0,0.134 -0.031,0.241 -0.094,0.32c-0.062,0.079 -0.154,0.128 -0.275,0.147c0.145,0.032 0.258,0.097 0.339,0.196c0.081,0.099 0.121,0.223 0.121,0.372c0,0.195 -0.066,0.346 -0.199,0.452c-0.133,0.107 -0.322,0.16 -0.567,0.16l-0.786,0l0,-2.187Z" style="fill-rule:nonzero;"/><path id="DejaVuSans.-621" d="M30.973,17.09c0,-0.198 -0.041,-0.354 -0.123,-0.467c-0.081,-0.112 -0.193,-0.169 -0.336,-0.169c-0.143,0 -0.255,0.057 -0.336,0.169c-0.082,0.113 -0.123,0.269 -0.123,0.467c0,0.198 0.041,0.353 0.123,0.466c0.081,0.113 0.193,0.17 0.336,0.17c0.143,0 0.255,-0.057 0.336,-0.17c0.082,-0.113 0.123,-0.268 0.123,-0.466Zm-0.918,-0.573c0.057,-0.097 0.129,-0.17 0.215,-0.217c0.087,-0.047 0.19,-0.071 0.31,-0.071c0.199,0 0.361,0.079 0.486,0.237c0.124,0.158 0.187,0.366 0.187,0.624c0,0.258 -0.063,0.466 -0.187,0.624c-0.125,0.158 -0.287,0.237 -0.486,0.237c-0.12,0 -0.223,-0.023 -0.31,-0.071c-0.086,-0.047 -0.158,-0.12 -0.215,-0.217l0,0.246l-0.271,0l0,-2.28l0.271,0l0,0.888Z" style="fill-rule:nonzero;"/><path id="DejaVuSans.-611" d="M32.445,17.084c-0.218,0 -0.369,0.025 -0.453,0.075c-0.084,0.049 -0.126,0.134 -0.126,0.255c0,0.095 0.031,0.171 0.095,0.228c0.063,0.056 0.148,0.084 0.256,0.084c0.15,0 0.27,-0.053 0.36,-0.159c0.091,-0.106 0.136,-0.247 0.136,-0.423l0,-0.06l-0.268,0Zm0.537,-0.111l0,0.936l-0.269,0l0,-0.249c-0.062,0.099 -0.138,0.173 -0.23,0.22c-0.092,0.048 -0.204,0.071 -0.337,0.071c-0.168,0 -0.302,-0.047 -0.401,-0.141c-0.099,-0.094 -0.149,-0.221 -0.149,-0.379c0,-0.184 0.062,-0.323 0.186,-0.417c0.123,-0.094 0.308,-0.141 0.553,-0.141l0.378,0l0,-0.026c0,-0.124 -0.041,-0.22 -0.122,-0.288c-0.082,-0.068 -0.196,-0.102 -0.344,-0.102c-0.094,0 -0.185,0.011 -0.274,0.034c-0.089,0.022 -0.174,0.056 -0.256,0.101l0,-0.249c0.098,-0.038 0.194,-0.067 0.287,-0.086c0.093,-0.019 0.183,-0.028 0.271,-0.028c0.237,0 0.415,0.061 0.532,0.184c0.117,0.123 0.175,0.31 0.175,0.56Z" style="fill-rule:nonzero;"/><path id="DejaVuSans.-5f1" d="M34.784,18.407l0,0.209l-1.559,0l0,-0.209l1.559,0Z" style="fill-rule:nonzero;"/><path id="DejaVuSans.-422" d="M35.345,16.864l0,0.802l0.475,0c0.159,0 0.277,-0.033 0.353,-0.099c0.077,-0.066 0.116,-0.167 0.116,-0.303c0,-0.137 -0.039,-0.237 -0.116,-0.302c-0.076,-0.065 -0.194,-0.098 -0.353,-0.098l-0.475,0Zm0,-0.899l0,0.659l0.438,0c0.145,0 0.252,-0.027 0.323,-0.081c0.071,-0.055 0.106,-0.137 0.106,-0.249c0,-0.11 -0.035,-0.192 -0.106,-0.247c-0.071,-0.055 -0.178,-0.082 -0.323,-0.082l-0.438,0Zm-0.296,-0.243l0.756,0c0.226,0 0.4,0.046 0.521,0.14c0.123,0.094 0.184,0.227 0.184,0.4c0,0.134 -0.031,0.241 -0.094,0.32c-0.062,0.079 -0.154,0.128 -0.276,0.147c0.146,0.032 0.259,0.097 0.34,0.196c0.08,0.099 0.121,0.223 0.121,0.372c0,0.195 -0.067,0.346 -0.2,0.452c-0.132,0.107 -0.321,0.16 -0.567,0.16l-0.785,0l0,-2.187Z" style="fill-rule:nonzero;"/><path id="DejaVuSans.-302" d="M37.766,15.917c-0.152,0 -0.266,0.075 -0.343,0.225c-0.077,0.149 -0.115,0.375 -0.115,0.676c0,0.299 0.038,0.524 0.115,0.674c0.077,0.15 0.191,0.225 0.343,0.225c0.154,0 0.269,-0.075 0.345,-0.225c0.077,-0.15 0.116,-0.375 0.116,-0.674c0,-0.301 -0.039,-0.527 -0.116,-0.676c-0.076,-0.15 -0.191,-0.225 -0.345,-0.225Zm0,-0.235c0.246,0 0.433,0.097 0.562,0.291c0.13,0.194 0.194,0.475 0.194,0.845c0,0.368 -0.064,0.649 -0.194,0.843c-0.129,0.194 -0.316,0.29 -0.562,0.29c-0.245,0 -0.432,-0.096 -0.561,-0.29c-0.13,-0.194 -0.194,-0.475 -0.194,-0.843c0,-0.37 0.064,-0.651 0.194,-0.845c0.129,-0.194 0.316,-0.291 0.561,-0.291Z" style="fill-rule:nonzero;"/><path id="DejaVuSans.-303" d="M39.675,15.917c-0.152,0 -0.267,0.075 -0.344,0.225c-0.076,0.149 -0.114,0.375 -0.114,0.676c0,0.299 0.038,0.524 0.114,0.674c0.077,0.15 0.192,0.225 0.344,0.225c0.153,0 0.268,-0.075 0.345,-0.225c0.077,-0.15 0.115,-0.375 0.115,-0.674c0,-0.301 -0.038,-0.527 -0.115,-0.676c-0.077,-0.15 -0.192,-0.225 -0.345,-0.225Zm0,-0.235c0.245,0 0.433,0.097 0.562,0.291c0.129,0.194 0.194,0.475 0.194,0.845c0,0.368 -0.065,0.649 -0.194,0.843c-0.129,0.194 -0.317,0.29 -0.562,0.29c-0.245,0 -0.432,-0.096 -0.562,-0.29c-0.129,-0.194 -0.194,-0.475 -0.194,-0.843c0,-0.37 0.065,-0.651 0.194,-0.845c0.13,-0.194 0.317,-0.291 0.562,-0.291Z" style="fill-rule:nonzero;"/><path id="DejaVuSans.-331" d="M41.848,16.729c0.141,0.031 0.252,0.094 0.331,0.19c0.08,0.095 0.12,0.214 0.12,0.354c0,0.216 -0.075,0.383 -0.223,0.501c-0.149,0.118 -0.359,0.177 -0.633,0.177c-0.091,0 -0.186,-0.009 -0.283,-0.027c-0.097,-0.018 -0.198,-0.045 -0.301,-0.081l0,-0.286c0.082,0.048 0.172,0.084 0.269,0.109c0.098,0.024 0.2,0.036 0.307,0.036c0.185,0 0.326,-0.036 0.423,-0.11c0.098,-0.073 0.146,-0.179 0.146,-0.319c0,-0.129 -0.045,-0.23 -0.135,-0.302c-0.091,-0.073 -0.216,-0.109 -0.377,-0.109l-0.255,0l0,-0.244l0.267,0c0.145,0 0.256,-0.029 0.333,-0.087c0.077,-0.058 0.116,-0.142 0.116,-0.251c0,-0.112 -0.04,-0.198 -0.119,-0.258c-0.08,-0.061 -0.194,-0.091 -0.342,-0.091c-0.081,0 -0.168,0.009 -0.261,0.027c-0.093,0.017 -0.195,0.045 -0.306,0.081l0,-0.263c0.112,-0.031 0.217,-0.055 0.316,-0.07c0.098,-0.016 0.19,-0.024 0.277,-0.024c0.225,0 0.402,0.051 0.533,0.154c0.131,0.101 0.196,0.239 0.196,0.413c0,0.121 -0.034,0.224 -0.104,0.307c-0.069,0.083 -0.168,0.141 -0.295,0.173Z" style="fill-rule:nonzero;"/><path id="DejaVuSans.-34" d="M43.673,15.979l-0.747,1.168l0.747,0l0,-1.168Zm-0.078,-0.257l0.372,0l0,1.425l0.312,0l0,0.246l-0.312,0l0,0.516l-0.294,0l0,-0.516l-0.987,0l0,-0.285l0.909,-1.386Z" style="fill-rule:nonzero;"/></g><g id="text_7"><path id="DejaVuSans.-Oblique.-47" d="M64.467,14.533l0.152,-0.763l-0.649,0l0.061,-0.325l1.035,0l-0.252,1.284c-0.173,0.095 -0.362,0.168 -0.567,0.22c-0.204,0.051 -0.409,0.077 -0.617,0.077c-0.365,0 -0.651,-0.101 -0.858,-0.304c-0.206,-0.204 -0.309,-0.486 -0.309,-0.849c0,-0.3 0.063,-0.586 0.188,-0.858c0.126,-0.271 0.299,-0.498 0.521,-0.679c0.139,-0.113 0.291,-0.197 0.457,-0.253c0.165,-0.055 0.349,-0.083 0.55,-0.083c0.183,0 0.358,0.023 0.525,0.07c0.167,0.046 0.327,0.115 0.48,0.208l-0.08,0.42c-0.118,-0.123 -0.255,-0.216 -0.413,-0.281c-0.157,-0.064 -0.325,-0.097 -0.504,-0.097c-0.207,0 -0.389,0.04 -0.547,0.119c-0.157,0.079 -0.298,0.201 -0.421,0.366c-0.106,0.141 -0.189,0.306 -0.25,0.497c-0.06,0.191 -0.09,0.385 -0.09,0.583c0,0.272 0.069,0.477 0.208,0.615c0.14,0.137 0.348,0.205 0.623,0.205c0.139,0 0.272,-0.014 0.401,-0.043c0.129,-0.03 0.247,-0.073 0.356,-0.129Z" style="fill-rule:nonzero;"/><path id="DejaVuSans.-Oblique.-46" d="M66.058,12.053l1.672,0l-0.064,0.332l-1.28,0l-0.167,0.86l1.156,0l-0.065,0.332l-1.156,0l-0.271,1.392l-0.393,0l0.568,-2.916Z" style="fill-rule:nonzero;"/><path id="DejaVuSans.-Oblique.-50" d="M68.359,12.053l0.912,0c0.266,0 0.468,0.062 0.607,0.185c0.14,0.124 0.21,0.305 0.21,0.544c0,0.32 -0.103,0.569 -0.309,0.748c-0.206,0.178 -0.495,0.267 -0.867,0.267l-0.496,0l-0.229,1.172l-0.396,0l0.568,-2.916Zm0.332,0.324l-0.211,1.096l0.496,0c0.224,0 0.396,-0.057 0.515,-0.172c0.12,-0.115 0.18,-0.279 0.18,-0.492c0,-0.137 -0.04,-0.243 -0.121,-0.318c-0.082,-0.076 -0.196,-0.114 -0.343,-0.114l-0.516,0Z" style="fill-rule:nonzero;"/><path id="DejaVuSans.-Oblique.-31" d="M70.355,14.637l0.645,0l0.435,-2.244l-0.728,0.14l0.068,-0.34l0.725,-0.14l0.396,0l-0.504,2.584l0.643,0l-0.063,0.332l-1.681,0l0.064,-0.332Z" style="fill-rule:nonzero;"/><path id="DejaVuSans.-Oblique.-2d" d="M72.885,13.713l1.052,0l-0.06,0.32l-1.057,0l0.065,-0.32Z" style="fill-rule:nonzero;"/><path id="DejaVuSans.-Oblique.-39" d="M74.259,14.905l0.073,-0.36c0.075,0.05 0.161,0.088 0.257,0.114c0.097,0.026 0.201,0.039 0.311,0.039c0.27,0 0.487,-0.085 0.651,-0.256c0.165,-0.171 0.288,-0.436 0.369,-0.797c-0.097,0.111 -0.209,0.195 -0.336,0.253c-0.126,0.058 -0.263,0.087 -0.408,0.087c-0.237,0 -0.426,-0.069 -0.566,-0.206c-0.14,-0.137 -0.21,-0.322 -0.21,-0.554c0,-0.19 0.035,-0.367 0.104,-0.53c0.069,-0.164 0.17,-0.307 0.304,-0.429c0.091,-0.086 0.197,-0.151 0.316,-0.197c0.12,-0.046 0.248,-0.069 0.383,-0.069c0.27,0 0.483,0.086 0.639,0.257c0.156,0.171 0.235,0.405 0.235,0.7c0,0.275 -0.037,0.541 -0.109,0.798c-0.072,0.256 -0.172,0.478 -0.3,0.665c-0.135,0.198 -0.298,0.349 -0.488,0.452c-0.19,0.103 -0.401,0.154 -0.633,0.154c-0.1,0 -0.2,-0.01 -0.3,-0.031c-0.099,-0.02 -0.197,-0.05 -0.292,-0.09Zm0.532,-1.772c0,0.165 0.043,0.297 0.128,0.394c0.087,0.097 0.203,0.145 0.348,0.145c0.202,0 0.371,-0.077 0.508,-0.232c0.137,-0.155 0.205,-0.348 0.205,-0.578c0,-0.172 -0.042,-0.306 -0.127,-0.404c-0.084,-0.097 -0.201,-0.145 -0.349,-0.145c-0.202,0 -0.371,0.079 -0.508,0.237c-0.137,0.158 -0.205,0.352 -0.205,0.583Z" style="fill-rule:nonzero;"/></g></g></svg>