<?xml version="1.0" encoding="UTF-8" standalone="no"?><!DOCTYPE svg PUBLIC "-//W3C//DTD SVG 1.1//EN" "http://www.w3.org/Graphics/SVG/1.1/DTD/svg11.dtd"><svg width="100%" height="100%" viewBox="0 0 154 124" version="1.1" xmlns="http://www.w3.org/2000/svg" xmlns:xlink="http://www.w3.org/1999/xlink" xml:space="preserve" style="fill-rule:evenodd;clip-rule:evenodd;stroke-linejoin:round;stroke-miterlimit:1.41421;"><rect id="T.-.-Lund.-.-Megaphone" x="0" y="0.004" width="153.6" height="123.107" style="fill:none;"/><g><path d="M126.626,35.589c0,-0.573 -0.466,-1.039 -1.04,-1.039l-9.008,0c-0.574,0 -1.04,0.466 -1.04,1.039l0,2.079c0,0.574 0.466,1.04 1.04,1.04l9.008,0c0.574,0 1.04,-0.466 1.04,-1.04l0,-2.079Z" style="fill:#9fa7a7;"/><path d="M12.981,49.795l-6.136,0c-1.129,0 -2.045,0.916 -2.045,2.045l0,15.312c0,1.129 0.916,2.045 2.045,2.045l6.136,0l0,-19.402Z" style="fill:#ff806c;"/><path d="M115.538,81.671l-21.361,0l0,8.985l16.868,0c2.48,0 4.493,-2.013 4.493,-4.493l0,-4.492Z" style="fill:#e3ecec;"/><circle cx="126.626" cy="59.496" r="22.174" style="fill:#ff806c;"/><path d="M121.082,37.322l0,44.349l5.544,0c11.083,-16.618 11.126,-31.408 0,-44.349l-5.544,0Z" style="fill:#9fa7a7;"/><path d="M21.297,9.604c0,-3.06 -2.484,-5.544 -5.544,-5.544c-3.06,0 -5.544,2.484 -5.544,5.544l0,99.785c0,3.059 2.484,5.543 5.544,5.543c3.06,0 5.544,-2.484 5.544,-5.543l0,-99.785Z" style="fill:#9fa7a7;"/><path d="M21.297,106.617c0,0 28.695,-15.489 44.349,-19.403c16.631,-4.157 55.436,-5.543 55.436,-5.543c11.745,-15.666 11.168,-30.416 0,-44.349c0,0 -38.805,-1.386 -55.436,-5.544c-15.654,-3.913 -44.349,-19.403 -44.349,-19.403l0,94.242Z" style="fill:#e3ecec;"/><path d="M94.177,89.144c0.002,10.252 0.235,13.045 -8.968,20.926l5.979,7.474c10.78,-5.15 15.154,-16.383 14.947,-28.4l-11.958,0Z" style="fill:#e3ecec;"/><path d="M85.209,110.07l5.979,7.474l-2.279,1.512l-5.903,-7.491l2.203,-1.495Z" style="fill:#9fa7a7;"/></g></svg>