<?xml version="1.0" encoding="UTF-8" standalone="no"?><!DOCTYPE svg PUBLIC "-//W3C//DTD SVG 1.1//EN" "http://www.w3.org/Graphics/SVG/1.1/DTD/svg11.dtd"><svg width="100%" height="100%" viewBox="0 0 360 296" version="1.1" xmlns="http://www.w3.org/2000/svg" xmlns:xlink="http://www.w3.org/1999/xlink" xml:space="preserve" style="fill-rule:evenodd;clip-rule:evenodd;stroke-linejoin:round;stroke-miterlimit:1.41421;"><rect id="T.-.-Lund.-.-DescriptionFish" x="0" y="0" width="360" height="295.94" style="fill:none;"/><clipPath id="_clip1"><rect x="0" y="0" width="360" height="295.94"/></clipPath><g clip-path="url(#_clip1)"><g><path d="M101.627,116.468c0,2.813 -34.004,-2.737 -34.004,-5.55l30.408,-16.971c2.812,0 3.596,1.006 3.596,3.819l0,18.702Z" style="fill:#f6851f;fill-rule:nonzero;"/><path d="M135.632,166.236c0,0.622 -1.85,3.037 -4.648,1.954c-4.173,-2.611 -37.2,-22.049 -37.2,-23.238l38.251,-21.511c2.813,0 3.597,1.006 3.597,3.818l0,38.977Z" style="fill:#f6851f;fill-rule:nonzero;"/><path d="M95.968,172.972c-0.155,-2.677 -32.738,0.879 -32.583,3.556l29.404,17.41c2.634,0.115 3.313,-0.81 3.158,-3.488l0.021,-17.478Z" style="fill:#f6851f;fill-rule:nonzero;"/><path d="M71.013,146.867c0.757,0.895 0.663,2.22 -0.21,2.957c-0.872,0.737 -2.193,0.609 -2.95,-0.285l-24.388,-28.851c-0.757,-0.896 -0.664,-2.22 0.209,-2.957c0.873,-0.737 2.193,-0.61 2.95,0.285l24.389,28.851Z" style="fill:#f6851f;fill-rule:nonzero;"/><path d="M68.209,146.986c0.71,-0.797 1.923,-0.875 2.71,-0.175c0.787,0.7 0.85,1.914 0.141,2.712l-22.852,25.684c-0.709,0.797 -1.923,0.875 -2.71,0.175c-0.787,-0.7 -0.85,-1.915 -0.141,-2.712l22.852,-25.684Z" style="fill:#f6851f;fill-rule:nonzero;"/><path d="M121.957,145.852c0,19.592 -20.706,35.475 -46.249,35.475c-14.568,0 -27.687,-5.793 -27.516,-6.102c0.09,-0.163 6.199,-7.074 12.205,-13.817c5.42,-6.084 10.796,-12.02 10.875,-12.943c0.087,-1.015 -7.01,-9.288 -13.527,-17.028c-5.832,-6.928 -11.156,-13.462 -11.156,-13.462c0,0 14.445,-7.597 29.119,-7.597c25.543,-0.001 46.249,15.882 46.249,35.474Z" style="fill:#fcaf17;fill-rule:nonzero;"/><circle cx="62.755" cy="121.517" r="8.063"/><ellipse cx="60.409" cy="122.567" rx="3.595" ry="3.618" style="fill:#fff;"/></g><g><path d="M247.015,236.452c-0.04,-2.81 34.019,2.259 34.059,5.069l-30.149,17.386c-2.81,0.039 -3.608,-0.955 -3.648,-3.765l-0.262,-18.69Z" style="fill:#f6851f;fill-rule:nonzero;"/><path d="M212.336,187.195c-0.009,-0.621 1.806,-3.06 4.618,-2.017c4.206,2.551 37.483,21.512 37.499,22.7l-37.922,22.033c-2.811,0.039 -3.609,-0.955 -3.648,-3.766l-0.547,-38.95Z" style="fill:#f6851f;fill-rule:nonzero;"/><path d="M251.878,179.908c0.192,2.674 32.703,-1.337 32.511,-4.01l-29.628,-16.985c-2.634,-0.079 -3.299,0.855 -3.107,3.529l0.224,17.466Z" style="fill:#f6851f;fill-rule:nonzero;"/><path d="M277.115,207.464c-1.171,-0.062 -2.071,-1.036 -2.01,-2.176c0.06,-1.14 1.057,-2.015 2.227,-1.953l37.702,1.99c1.171,0.062 2.071,1.037 2.01,2.177c-0.06,1.14 -1.057,2.014 -2.227,1.953l-37.702,-1.991Z" style="fill:#f6851f;fill-rule:nonzero;"/><path d="M277.668,206.345c-1.063,0.085 -1.993,-0.698 -2.076,-1.748c-0.083,-1.049 0.712,-1.968 1.774,-2.054l34.251,-2.715c1.063,-0.085 1.992,0.699 2.076,1.748c0.083,1.05 -0.712,1.969 -1.774,2.053l-34.251,2.716Z" style="fill:#f6851f;fill-rule:nonzero;"/><path d="M226.287,207.374c-0.275,-19.578 20.195,-35.741 45.72,-36.099c22.185,-0.311 39.361,22.94 39.61,28.553c0.005,0.103 -10.758,0.865 -20.303,1.609c-7.626,0.596 -14.477,0.954 -14.413,2.615c0.103,2.666 12.053,3.663 22.308,4.363c7.802,0.533 14.599,1.059 14.599,1.059c0,0 -3.623,32.179 -40.806,32.701c-25.525,0.359 -46.44,-15.222 -46.715,-34.801Z" style="fill:#fcaf17;fill-rule:nonzero;"/><path d="M281.391,231.991c-0.446,0.339 -1.08,0.256 -1.414,-0.185c-0.335,-0.44 -0.244,-1.073 0.202,-1.412l14.387,-10.919c0.446,-0.339 1.08,-0.256 1.415,0.185c0.334,0.441 0.243,1.073 -0.203,1.412l-14.387,10.919Z" style="fill-rule:nonzero;"/><path d="M279.981,221.422c-0.462,-0.318 -0.58,-0.946 -0.265,-1.401c0.314,-0.455 0.943,-0.566 1.405,-0.248l14.856,10.271c0.461,0.318 0.58,0.946 0.265,1.402c-0.315,0.455 -0.944,0.565 -1.405,0.247l-14.856,-10.271Z" style="fill-rule:nonzero;"/></g><path d="M-2,17.514c0,0 92.925,-19.054 182,0c96.627,20.67 182,1.809 182,1.809l0,-21.878l-364,0l0,20.069Z" style="fill:#fff;"/></g></svg>