<?xml version="1.0" encoding="UTF-8" standalone="no"?><!DOCTYPE svg PUBLIC "-//W3C//DTD SVG 1.1//EN" "http://www.w3.org/Graphics/SVG/1.1/DTD/svg11.dtd"><svg width="100%" height="100%" viewBox="0 0 356 82" version="1.1" xmlns="http://www.w3.org/2000/svg" xmlns:xlink="http://www.w3.org/1999/xlink" xml:space="preserve" style="fill-rule:evenodd;clip-rule:evenodd;stroke-linejoin:round;stroke-miterlimit:1.5;"><rect id="Artboard3" x="0" y="0" width="355.2" height="81.6" style="fill:none;"/><clipPath id="_clip1"><rect x="0" y="0" width="355.2" height="81.6"/></clipPath><g clip-path="url(#_clip1)"><g id="T.-.-Lund.-.-HP.-.-ReEngineering"><path d="M81.6,40.8c0,22.534 -18.266,40.8 -40.8,40.8c-22.533,0 -40.8,-18.266 -40.8,-40.8c0,-22.533 18.267,-40.8 40.8,-40.8c22.534,0 40.8,18.267 40.8,40.8" style="fill:#fbeaae;fill-rule:nonzero;"/><g><g><path d="M28.088,17.206c-2.323,1.627 -2.888,4.833 -1.262,7.156l18.279,26.106l2.454,-2.531c0,0 -0.638,-0.655 -0.812,-1.051c-0.572,-1.304 -1.797,-5.475 -2.62,-6.774c-3.245,-5.122 -16.039,-22.906 -16.039,-22.906Z" style="fill:#8c9696;"/><path d="M54.708,50.21c0.312,0.005 0.623,0.026 0.933,0.069c0.703,0.098 1.39,0.302 2.033,0.603c0.843,0.394 1.605,0.956 2.231,1.645c0.544,0.599 0.986,1.291 1.298,2.038c0.268,0.641 0.441,1.321 0.511,2.012c0.076,0.763 0.029,1.537 -0.14,2.285c-0.17,0.75 -0.461,1.472 -0.861,2.129c-0.365,0.6 -0.821,1.144 -1.347,1.61c-0.628,0.555 -1.353,1 -2.135,1.304c-0.805,0.313 -1.666,0.476 -2.53,0.48c-0.794,0.004 -1.588,-0.126 -2.339,-0.383c-0.733,-0.251 -1.424,-0.622 -2.037,-1.096c-0.636,-0.492 -1.186,-1.093 -1.622,-1.769c-0.337,-0.523 -0.605,-1.09 -0.795,-1.683c-0.226,-0.71 -2.803,-8.986 -2.803,-8.986l2.454,-2.531c0,0 1.789,1.96 2.796,2.352c0.971,0.378 2.64,0.091 3.245,0c0.311,-0.047 0.624,-0.071 0.938,-0.078c0.085,-0.001 0.085,-0.001 0.17,-0.001Zm-0.129,2.475c-0.205,0.004 -0.408,0.02 -0.611,0.051c-0.448,0.067 -0.885,0.201 -1.294,0.397c-0.545,0.261 -1.04,0.63 -1.445,1.08c-0.376,0.418 -0.672,0.905 -0.874,1.43c-0.192,0.501 -0.295,1.035 -0.306,1.572c-0.01,0.484 0.058,0.97 0.2,1.433c0.112,0.367 0.27,0.72 0.47,1.047c0.254,0.416 0.573,0.793 0.943,1.111c0.328,0.28 0.695,0.513 1.088,0.691c0.59,0.268 1.236,0.41 1.884,0.414c0.56,0.005 1.121,-0.094 1.646,-0.291c0.512,-0.192 0.988,-0.476 1.402,-0.833c0.36,-0.311 0.671,-0.677 0.918,-1.083c0.261,-0.428 0.45,-0.899 0.561,-1.388c0.193,-0.854 0.141,-1.759 -0.157,-2.583c-0.193,-0.532 -0.484,-1.027 -0.853,-1.455c-0.396,-0.459 -0.883,-0.837 -1.426,-1.108c-0.414,-0.206 -0.86,-0.349 -1.317,-0.424c-0.183,-0.03 -0.367,-0.048 -0.552,-0.057c-0.092,-0.004 -0.185,-0.005 -0.277,-0.004Z" style="fill:#fc835c;"/></g><g><path d="M53.512,17.319c2.323,1.626 2.888,4.833 1.262,7.156l-18.28,26.105l-2.453,-2.531c0,0 0.638,-0.655 0.811,-1.05c0.572,-1.304 1.798,-5.475 2.621,-6.774c3.245,-5.122 16.039,-22.906 16.039,-22.906Z" style="fill:#9fa7a7;"/><path d="M26.892,50.323c-0.313,0.004 -0.624,0.025 -0.933,0.068c-0.703,0.099 -1.39,0.302 -2.033,0.603c-0.843,0.395 -1.605,0.957 -2.231,1.646c-0.544,0.599 -0.986,1.291 -1.298,2.037c-0.268,0.641 -0.441,1.322 -0.511,2.013c-0.077,0.762 -0.029,1.537 0.14,2.285c0.17,0.75 0.461,1.471 0.861,2.128c0.365,0.6 0.821,1.145 1.347,1.61c0.628,0.556 1.353,1.001 2.135,1.305c0.805,0.313 1.666,0.476 2.53,0.48c0.794,0.004 1.588,-0.127 2.339,-0.384c0.733,-0.25 1.424,-0.621 2.037,-1.095c0.636,-0.492 1.186,-1.094 1.622,-1.77c0.337,-0.523 0.605,-1.089 0.794,-1.682c0.227,-0.711 2.803,-8.987 2.803,-8.987l-2.453,-2.531c0,0 -1.789,1.961 -2.796,2.353c-0.971,0.378 -2.64,0.091 -3.245,0c-0.311,-0.047 -0.624,-0.071 -0.938,-0.078c-0.085,-0.001 -0.085,-0.001 -0.17,-0.001Zm0.129,2.474c0.205,0.005 0.408,0.021 0.611,0.051c0.448,0.068 0.885,0.202 1.294,0.398c0.545,0.261 1.04,0.63 1.445,1.079c0.376,0.418 0.672,0.905 0.874,1.43c0.192,0.501 0.295,1.036 0.306,1.572c0.009,0.485 -0.058,0.97 -0.2,1.434c-0.112,0.367 -0.27,0.719 -0.47,1.047c-0.254,0.416 -0.573,0.793 -0.943,1.11c-0.328,0.28 -0.695,0.514 -1.088,0.692c-0.59,0.268 -1.236,0.409 -1.884,0.414c-0.561,0.004 -1.121,-0.094 -1.646,-0.291c-0.512,-0.192 -0.988,-0.476 -1.402,-0.834c-0.36,-0.31 -0.671,-0.676 -0.918,-1.082c-0.261,-0.429 -0.45,-0.899 -0.561,-1.388c-0.194,-0.854 -0.141,-1.76 0.157,-2.583c0.193,-0.532 0.484,-1.027 0.853,-1.456c0.396,-0.459 0.883,-0.837 1.426,-1.107c0.414,-0.206 0.86,-0.35 1.317,-0.425c0.183,-0.03 0.367,-0.048 0.551,-0.057c0.093,-0.003 0.186,-0.005 0.278,-0.004Z" style="fill:#fc835c;"/></g><circle cx="41.015" cy="39.783" r="1.463" style="fill:#8c9696;"/></g></g><g id="T.-.-Lund.-.-HP.-.-ProactiveSolutions"><path d="M172.8,40.8c0,22.534 -18.266,40.8 -40.801,40.8c-22.532,0 -40.799,-18.266 -40.799,-40.8c0,-22.533 18.267,-40.8 40.799,-40.8c22.535,0 40.801,18.267 40.801,40.8" style="fill:#a5ddea;fill-rule:nonzero;"/><g><path d="M164.387,37.136c0,-0.081 -0.066,-0.147 -0.147,-0.147l-1.271,0c-0.081,0 -0.147,0.066 -0.147,0.147l0,0.293c0,0.081 0.066,0.147 0.147,0.147l1.271,0c0.081,0 0.147,-0.066 0.147,-0.147l0,-0.293Z" style="fill:#555a5a;"/><path d="M148.349,39.14l-0.866,0c-0.159,0 -0.288,0.13 -0.288,0.289l0,2.161c0,0.159 0.129,0.288 0.288,0.288l0.866,0l0,-2.738Z" style="fill:#ff806c;"/><path d="M162.822,43.639l-3.014,0l0,1.268l2.38,0c0.35,0 0.634,-0.284 0.634,-0.634l0,-0.634Z" style="fill:#e3ecec;"/><circle cx="164.387" cy="40.509" r="3.129" style="fill:#ff806c;"/><path d="M163.604,37.38l0,6.259l0.783,0c1.564,-2.346 1.57,-4.433 0,-6.259l-0.783,0Z" style="fill:#555a5a;"/><path d="M149.523,33.468c0,-0.431 -0.351,-0.782 -0.782,-0.782c-0.432,0 -0.783,0.351 -0.783,0.782l0,14.082c0,0.432 0.351,0.782 0.783,0.782c0.431,0 0.782,-0.35 0.782,-0.782l0,-14.082Z" style="fill:#555a5a;"/><path d="M149.523,47.159c0,0 4.049,-2.186 6.258,-2.738c2.347,-0.587 7.823,-0.782 7.823,-0.782c1.658,-2.211 1.577,-4.293 0,-6.259c0,0 -5.476,-0.196 -7.823,-0.782c-2.209,-0.553 -6.258,-2.738 -6.258,-2.738l0,13.299Z" style="fill:#e3ecec;"/><path d="M159.808,44.693c0,1.447 0.033,1.841 -1.266,2.953l0.844,1.055c1.521,-0.727 2.138,-2.312 2.109,-4.008l-1.687,0Z" style="fill:#e3ecec;"/><path d="M158.542,47.646l0.844,1.055l-0.322,0.213l-0.833,-1.057l0.311,-0.211Z" style="fill:#555a5a;"/></g><g><path d="M141.148,30.464c0,-1.027 -0.834,-1.861 -1.861,-1.861l-14.574,0c-1.027,0 -1.861,0.834 -1.861,1.861l0,20.672c0,1.027 0.834,1.861 1.861,1.861l14.574,0c1.027,0 1.861,-0.834 1.861,-1.861l0,-20.672Z" style="fill:#d0dada;"/><clipPath id="_clip2"><path d="M141.148,30.464c0,-1.027 -0.834,-1.861 -1.861,-1.861l-14.574,0c-1.027,0 -1.861,0.834 -1.861,1.861l0,20.672c0,1.027 0.834,1.861 1.861,1.861l14.574,0c1.027,0 1.861,-0.834 1.861,-1.861l0,-20.672Z"/></clipPath><g clip-path="url(#_clip2)"><rect x="122.852" y="52.387" width="18.295" height="0.61" style="fill:#b8c1c1;"/><rect x="122.852" y="32.872" width="18.295" height="0.61" style="fill:#b8c1c1;"/></g><circle cx="132" cy="42.935" r="6.708" style="fill:#b8c1c1;"/><circle cx="132" cy="42.325" r="6.098" style="fill:#95c4f3;"/><clipPath id="_clip3"><circle cx="132" cy="42.325" r="6.098"/></clipPath><g clip-path="url(#_clip3)"><path d="M125.901,42.325c0,0 2.626,-1.575 6.099,-0.915c3.473,0.66 2.596,1.148 6.098,0.915c3.502,-0.233 -0.914,5.488 -0.914,5.488c0,0 -12.776,6.832 -11.283,-5.488Z" style="fill:#56acf2;"/></g><circle cx="132" cy="42.325" r="6.098" style="fill:none;stroke:#535a5a;stroke-width:1.22px;"/><path d="M134.134,30.28c0,-0.252 -0.205,-0.457 -0.457,-0.457l-3.354,0c-0.253,0 -0.458,0.205 -0.458,0.457l0,0.915c0,0.253 0.205,0.458 0.458,0.458l3.354,0c0.252,0 0.457,-0.205 0.457,-0.458l0,-0.915Z" style="fill:#8ee9d4;"/><circle cx="139.013" cy="30.738" r="0.915" style="fill:#e3ecec;"/><circle cx="136.574" cy="30.738" r="0.915" style="fill:#e3ecec;"/></g><g><path d="M107.467,31.346c-0.059,0 -0.114,-0.002 -0.166,-0.004c-0.487,-0.019 -0.745,-0.084 -1.006,-0.187c-0.368,-0.114 -0.695,-0.26 -0.951,-0.391c-0.016,-0.005 -0.03,-0.01 -0.046,-0.016c-0.162,-0.057 -0.249,-0.126 -0.319,-0.181c-0.067,-0.038 -0.121,-0.069 -0.157,-0.089c-0.069,-0.016 -0.16,-0.006 -0.312,0.048c-0.716,0.255 -3.549,1.863 -3.725,2.341c-0.002,0.009 -0.005,0.017 -0.007,0.025c-0.036,0.198 0.013,0.484 0.11,0.805c0.242,0.766 0.774,1.746 1.052,2.259l0,0c0.033,0.061 0.063,0.115 0.087,0.161l-0.228,7.924l-0.038,0.265l-0.114,5.355l5.82,0l0,-18.315Z" style="fill:#18496e;fill-rule:nonzero;"/><path d="M113.917,33.119c0.006,-0.111 -0.002,-0.208 -0.031,-0.286c0.006,0.004 0.011,0.008 0.016,0.012c-0.005,-0.013 -0.009,-0.025 -0.016,-0.036c-0.374,-0.632 -3.214,-2.324 -3.745,-2.316c-0.021,0 -0.045,0.003 -0.071,0.006c-0.639,0.324 -1.66,0.817 -2.529,0.845c-0.024,0 -0.05,0.002 -0.075,0.002l0,18.315l5.457,0l-0.269,-13.544c0.076,-0.141 0.194,-0.355 0.327,-0.607c0.38,-0.745 0.868,-1.822 0.936,-2.391" style="fill:#1c354d;fill-rule:nonzero;"/><rect x="107.467" y="49.661" width="5.416" height="1.51" style="fill:#117cc1;fill-rule:nonzero;"/><rect x="101.647" y="49.661" width="5.82" height="1.51" style="fill:#3896d2;fill-rule:nonzero;"/><path d="M114.072,52.498l2.288,0c-0.004,-0.032 -0.382,-18.173 -2.458,-19.653c0.025,0.066 0.028,0.159 0.015,0.274c-0.038,0.612 -0.552,1.664 -0.936,2.391c-0.128,0.251 -0.244,0.464 -0.327,0.607l0.164,8.239l1.254,8.142Z" style="fill:#117cc1;fill-rule:nonzero;"/><path d="M113.917,33.119c0.013,-0.115 0.01,-0.208 -0.015,-0.274c-0.005,-0.004 -0.01,-0.008 -0.016,-0.012c0.029,0.078 0.037,0.175 0.031,0.286" style="fill:#3896d2;fill-rule:nonzero;"/><path d="M112.654,36.117c0.083,-0.143 0.199,-0.356 0.327,-0.607c-0.133,0.252 -0.251,0.466 -0.327,0.607" style="fill:#3896d2;fill-rule:nonzero;"/><path d="M101.94,35.956c-0.22,-0.34 -0.799,-1.417 -1.052,-2.259c-0.103,-0.324 -0.153,-0.61 -0.11,-0.805c0.001,0 0.001,0 0.001,0c0.001,-0.008 0.003,-0.016 0.006,-0.025c0.004,-0.011 0.006,-0.023 0.01,-0.033c-2.09,1.401 -2.47,19.632 -2.473,19.664l2.288,0l1.152,-8.192l0.178,-8.35l0,0" style="fill:#3896d2;fill-rule:nonzero;"/><path d="M100.778,32.892c0.002,-0.008 0.005,-0.017 0.007,-0.025c-0.003,0.008 -0.005,0.017 -0.007,0.025l0,0" style="fill:#3896d2;fill-rule:nonzero;"/><path d="M100.888,33.697c0.253,0.841 0.832,1.919 1.052,2.259c-0.278,-0.513 -0.81,-1.493 -1.052,-2.259" style="fill:#3896d2;fill-rule:nonzero;"/><path d="M102.027,36.117c-0.024,-0.046 -0.054,-0.1 -0.087,-0.16l-0.179,8.349l0.038,-0.265l0.228,-7.924Z" style="fill:#3896d2;fill-rule:nonzero;"/><path d="M107.541,31.344c0.643,-0.048 1.981,-0.775 2.53,-0.845c0.018,-0.009 0.036,-0.019 0.054,-0.027l0,-1.369c0,0.014 -0.291,0.075 -0.31,0.081c-0.464,0.121 -1.533,0.532 -2.348,0.532l0,1.63c0.024,0 0.049,-0.002 0.074,-0.002" style="fill:#117cc1;fill-rule:nonzero;"/><path d="M105.343,30.764c0.452,0.161 0.704,0.293 0.951,0.391c0.312,0.097 0.654,0.169 1.007,0.187c0.055,0.002 0.11,0.004 0.165,0.004l0,-1.63c-0.936,0 -1.986,-0.437 -2.658,-0.613l0,1.369c0.005,0.001 0.009,0.004 0.014,0.006c0.059,0.015 0.103,0.048 0.157,0.089c0.095,0.054 0.218,0.123 0.364,0.197" style="fill:#62a9dc;fill-rule:nonzero;"/><path d="M104.822,30.478c0.037,0.021 0.089,0.051 0.157,0.089c-0.054,-0.041 -0.098,-0.074 -0.157,-0.089" style="fill:#62a9dc;fill-rule:nonzero;"/><path d="M106.294,31.155c-0.247,-0.098 -0.499,-0.23 -0.951,-0.39c0.257,0.13 0.584,0.277 0.951,0.39" style="fill:#62a9dc;fill-rule:nonzero;"/><path d="M107.467,31.346c-0.056,0 -0.111,-0.001 -0.166,-0.004c0.052,0.002 0.107,0.004 0.166,0.004" style="fill:#62a9dc;fill-rule:nonzero;"/><path d="M110.071,30.499c-0.549,0.07 -1.887,0.797 -2.53,0.845c0.869,-0.028 1.89,-0.521 2.53,-0.845" style="fill:#117cc1;fill-rule:nonzero;"/></g></g><g id="T.-.-Lund.-.-HP.-.-Standardized"><path d="M264,40.8c0,22.533 -18.267,40.8 -40.801,40.8c-22.533,0 -40.799,-18.267 -40.799,-40.8c0,-22.533 18.266,-40.8 40.799,-40.8c22.534,0 40.801,18.267 40.801,40.8" style="fill:#dcd4f7;fill-rule:nonzero;"/><g id="Testing"><path d="M257.76,30.231c0,-1.055 -0.857,-1.911 -1.911,-1.911l-16.146,0c-1.055,0 -1.911,0.856 -1.911,1.911l0,21.138c0,1.055 0.856,1.911 1.911,1.911l16.146,0c1.054,0 1.911,-0.856 1.911,-1.911l0,-21.138Z" style="fill:#fff;"/><path d="M255.898,28.321l0.049,0.001l0.048,0.004l0.049,0.004l0.048,0.005l0.047,0.007l0.048,0.008l0.047,0.009l0.046,0.01l0.046,0.011l0.046,0.013l0.045,0.013l0.044,0.015l0.044,0.015l0.044,0.017l0.043,0.017l0.043,0.019l0.042,0.02l0.041,0.02l0.041,0.022l0.041,0.022l0.039,0.024l0.039,0.024l0.039,0.026l0.038,0.026l0.037,0.027l0.036,0.028l0.036,0.029l0.035,0.029l0.034,0.031l0.034,0.031l0.033,0.032l0.032,0.033l0.031,0.034l0.031,0.034l0.029,0.035l0.029,0.036l0.028,0.036l0.027,0.037l0.026,0.038l0.026,0.039l0.024,0.039l0.024,0.039l0.022,0.041l0.022,0.041l0.02,0.041l0.02,0.042l0.019,0.043l0.017,0.043l0.017,0.044l0.015,0.044l0.015,0.044l0.013,0.045l0.013,0.046l0.011,0.046l0.01,0.046l0.009,0.047l0.008,0.048l0.007,0.047l0.005,0.048l0.004,0.048l0.003,0.049l0.002,0.049l0.001,0.049l0,21.138l-0.001,0.049l-0.002,0.049l-0.003,0.049l-0.004,0.048l-0.005,0.048l-0.007,0.047l-0.008,0.048l-0.009,0.047l-0.01,0.046l-0.011,0.046l-0.013,0.046l-0.013,0.045l-0.015,0.044l-0.015,0.044l-0.017,0.044l-0.017,0.043l-0.019,0.043l-0.02,0.042l-0.02,0.041l-0.022,0.041l-0.022,0.041l-0.024,0.039l-0.024,0.039l-0.026,0.039l-0.026,0.038l-0.027,0.037l-0.028,0.036l-0.029,0.036l-0.029,0.035l-0.031,0.034l-0.031,0.034l-0.032,0.033l-0.033,0.032l-0.034,0.031l-0.034,0.031l-0.035,0.029l-0.036,0.029l-0.036,0.028l-0.037,0.027l-0.038,0.026l-0.039,0.026l-0.039,0.024l-0.039,0.024l-0.041,0.022l-0.041,0.022l-0.041,0.02l-0.042,0.02l-0.043,0.019l-0.043,0.017l-0.044,0.017l-0.044,0.015l-0.044,0.015l-0.045,0.013l-0.046,0.013l-0.046,0.011l-0.046,0.01l-0.047,0.009l-0.048,0.008l-0.047,0.007l-0.048,0.005l-0.049,0.004l-0.048,0.004l-0.049,0.001l-0.049,0.001l-16.146,0l-0.049,-0.001l-0.049,-0.001l-0.049,-0.004l-0.048,-0.004l-0.048,-0.005l-0.048,-0.007l-0.047,-0.008l-0.047,-0.009l-0.046,-0.01l-0.046,-0.011l-0.046,-0.013l-0.045,-0.013l-0.044,-0.015l-0.045,-0.015l-0.043,-0.017l-0.043,-0.017l-0.043,-0.019l-0.042,-0.02l-0.041,-0.02l-0.041,-0.022l-0.041,-0.022l-0.039,-0.024l-0.04,-0.024l-0.038,-0.026l-0.038,-0.026l-0.037,-0.027l-0.036,-0.028l-0.036,-0.029l-0.035,-0.029l-0.035,-0.031l-0.033,-0.031l-0.033,-0.032l-0.032,-0.033l-0.031,-0.034l-0.031,-0.034l-0.029,-0.035l-0.029,-0.036l-0.028,-0.036l-0.027,-0.037l-0.026,-0.038l-0.026,-0.039l-0.024,-0.039l-0.024,-0.039l-0.022,-0.041l-0.022,-0.041l-0.02,-0.041l-0.02,-0.042l-0.019,-0.043l-0.017,-0.043l-0.017,-0.044l-0.016,-0.044l-0.014,-0.044l-0.013,-0.045l-0.013,-0.046l-0.011,-0.046l-0.01,-0.046l-0.009,-0.047l-0.008,-0.048l-0.007,-0.047l-0.005,-0.048l-0.004,-0.048l-0.004,-0.049l-0.001,-0.049l-0.001,-0.049l0,-21.138l0.001,-0.049l0.001,-0.049l0.004,-0.049l0.004,-0.048l0.005,-0.048l0.007,-0.047l0.008,-0.048l0.009,-0.047l0.01,-0.046l0.011,-0.046l0.013,-0.046l0.013,-0.045l0.014,-0.044l0.016,-0.044l0.017,-0.044l0.017,-0.043l0.019,-0.043l0.02,-0.042l0.02,-0.041l0.022,-0.041l0.022,-0.041l0.024,-0.039l0.024,-0.039l0.026,-0.039l0.026,-0.038l0.027,-0.037l0.028,-0.036l0.029,-0.036l0.029,-0.035l0.031,-0.034l0.031,-0.034l0.032,-0.033l0.033,-0.032l0.033,-0.031l0.035,-0.031l0.035,-0.029l0.036,-0.029l0.036,-0.028l0.037,-0.027l0.038,-0.026l0.038,-0.026l0.04,-0.024l0.039,-0.024l0.041,-0.022l0.041,-0.022l0.041,-0.02l0.042,-0.02l0.043,-0.019l0.043,-0.017l0.043,-0.017l0.045,-0.015l0.044,-0.015l0.045,-0.013l0.046,-0.013l0.046,-0.011l0.046,-0.01l0.047,-0.009l0.047,-0.008l0.048,-0.007l0.048,-0.005l0.048,-0.004l0.049,-0.004l0.049,-0.001l0.049,-0.001l16.146,0l0.049,0.001Zm-16.185,1.497l-0.021,0l-0.011,0l-0.011,0.001l-0.01,0.001l-0.011,0.001l-0.01,0.002l-0.01,0.001l-0.01,0.002l-0.01,0.002l-0.009,0.003l-0.01,0.002l-0.01,0.003l-0.009,0.003l-0.009,0.003l-0.01,0.004l-0.009,0.004l-0.008,0.003l-0.009,0.005l-0.01,0.004l-0.008,0.005l-0.009,0.004l-0.008,0.005l-0.009,0.006l-0.009,0.006l-0.008,0.005l-0.008,0.006l-0.008,0.006l-0.008,0.007l-0.008,0.007l-0.007,0.006l-0.008,0.007l-0.007,0.007l-0.006,0.007l-0.008,0.008l-0.007,0.008l-0.006,0.007l-0.007,0.008l-0.006,0.008l-0.005,0.008l-0.007,0.009l-0.005,0.009l-0.005,0.007l-0.005,0.009l-0.005,0.009l-0.005,0.009l-0.005,0.009l-0.003,0.008l-0.004,0.009l-0.004,0.01l-0.004,0.008l-0.003,0.009l-0.003,0.01l-0.003,0.011l-0.003,0.009l-0.002,0.009l-0.002,0.01l-0.002,0.009l-0.001,0.011l-0.002,0.01l-0.001,0.01l-0.001,0.012l-0.001,0.011l0,0.01l0,0.021l0,21.118l0,0.021l0,0.01l0.001,0.011l0.001,0.012l0.001,0.01l0.002,0.01l0.001,0.011l0.002,0.009l0.002,0.01l0.002,0.009l0.003,0.009l0.003,0.011l0.003,0.01l0.003,0.009l0.004,0.008l0.004,0.01l0.004,0.009l0.003,0.008l0.005,0.009l0.005,0.009l0.005,0.009l0.005,0.009l0.005,0.007l0.005,0.009l0.007,0.009l0.005,0.008l0.006,0.008l0.007,0.008l0.006,0.007l0.007,0.008l0.007,0.008l0.007,0.007l0.007,0.007l0.008,0.007l0.007,0.006l0.008,0.007l0.008,0.007l0.008,0.006l0.008,0.006l0.008,0.005l0.009,0.006l0.009,0.006l0.008,0.005l0.009,0.004l0.008,0.005l0.01,0.004l0.009,0.005l0.008,0.003l0.009,0.004l0.01,0.004l0.009,0.003l0.009,0.003l0.01,0.003l0.01,0.002l0.009,0.003l0.01,0.002l0.01,0.002l0.01,0.001l0.01,0.002l0.011,0.001l0.01,0.001l0.011,0.001l0.011,0l0.021,0l16.126,0l0.021,0l0.011,0l0.011,-0.001l0.01,-0.001l0.011,-0.001l0.01,-0.002l0.01,-0.001l0.01,-0.002l0.01,-0.002l0.009,-0.003l0.01,-0.002l0.009,-0.003l0.01,-0.003l0.009,-0.003l0.01,-0.004l0.009,-0.004l0.009,-0.004l0.008,-0.004l0.009,-0.004l0.009,-0.005l0.009,-0.004l0.008,-0.006l0.009,-0.005l0.008,-0.005l0.008,-0.006l0.009,-0.006l0.008,-0.006l0.008,-0.007l0.008,-0.007l0.007,-0.006l0.007,-0.007l0.008,-0.007l0.007,-0.008l0.007,-0.007l0.006,-0.007l0.007,-0.008l0.007,-0.008l0.006,-0.008l0.005,-0.008l0.006,-0.009l0.006,-0.009l0.005,-0.007l0.005,-0.009l0.005,-0.009l0.005,-0.009l0.005,-0.009l0.003,-0.008l0.004,-0.009l0.004,-0.01l0.003,-0.008l0.004,-0.009l0.003,-0.011l0.003,-0.01l0.002,-0.008l0.003,-0.01l0.002,-0.01l0.002,-0.009l0.001,-0.011l0.002,-0.01l0.001,-0.01l0.001,-0.012l0.001,-0.011l0,-0.01l0,-0.021l0,-21.118l0,-0.021l0,-0.01l-0.001,-0.011l-0.001,-0.012l-0.001,-0.01l-0.002,-0.01l-0.001,-0.011l-0.002,-0.009l-0.002,-0.01l-0.003,-0.01l-0.002,-0.008l-0.003,-0.01l-0.003,-0.011l-0.004,-0.009l-0.003,-0.008l-0.004,-0.01l-0.004,-0.009l-0.003,-0.008l-0.005,-0.009l-0.005,-0.009l-0.005,-0.009l-0.005,-0.009l-0.005,-0.007l-0.006,-0.009l-0.006,-0.009l-0.005,-0.008l-0.006,-0.008l-0.007,-0.008l-0.006,-0.008l-0.007,-0.007l-0.007,-0.007l-0.007,-0.008l-0.008,-0.007l-0.007,-0.007l-0.007,-0.006l-0.008,-0.007l-0.008,-0.007l-0.008,-0.006l-0.009,-0.006l-0.008,-0.006l-0.008,-0.005l-0.009,-0.005l-0.008,-0.006l-0.009,-0.004l-0.009,-0.005l-0.009,-0.004l-0.008,-0.004l-0.009,-0.004l-0.009,-0.004l-0.01,-0.004l-0.009,-0.003l-0.01,-0.003l-0.009,-0.003l-0.01,-0.002l-0.009,-0.003l-0.01,-0.002l-0.01,-0.002l-0.01,-0.001l-0.01,-0.002l-0.011,-0.001l-0.01,-0.001l-0.011,-0.001l-0.011,0l-0.021,0l-16.126,0Z" style="fill:#707878;"/><g><path d="M245.28,39.677c0,-0.62 -0.503,-1.123 -1.123,-1.123l-2.247,0c-0.62,0 -1.123,0.503 -1.123,1.123l0,2.246c0,0.62 0.503,1.123 1.123,1.123l2.247,0c0.62,0 1.123,-0.503 1.123,-1.123l0,-2.246Z" style="fill:#fff;"/><path d="M244.186,38.554l0.029,0.001l0.028,0.002l0.029,0.002l0.028,0.004l0.028,0.004l0.027,0.004l0.028,0.005l0.027,0.006l0.027,0.007l0.027,0.007l0.027,0.008l0.026,0.009l0.026,0.009l0.025,0.01l0.026,0.01l0.025,0.011l0.025,0.011l0.024,0.013l0.024,0.012l0.024,0.014l0.023,0.013l0.023,0.015l0.023,0.015l0.022,0.015l0.022,0.016l0.021,0.016l0.021,0.017l0.021,0.018l0.02,0.018l0.02,0.018l0.019,0.019l0.019,0.019l0.018,0.02l0.018,0.02l0.017,0.021l0.017,0.021l0.017,0.021l0.016,0.022l0.015,0.022l0.015,0.023l0.014,0.023l0.014,0.023l0.013,0.024l0.013,0.024l0.012,0.024l0.012,0.025l0.011,0.025l0.01,0.025l0.01,0.026l0.009,0.026l0.008,0.026l0.008,0.026l0.008,0.027l0.006,0.027l0.006,0.028l0.005,0.027l0.005,0.028l0.004,0.028l0.003,0.028l0.003,0.028l0.002,0.029l0.001,0.029l0,0.029l0,2.246l0,0.029l-0.001,0.029l-0.002,0.029l-0.003,0.028l-0.003,0.028l-0.004,0.028l-0.005,0.028l-0.005,0.027l-0.006,0.028l-0.006,0.027l-0.008,0.027l-0.008,0.026l-0.008,0.026l-0.009,0.026l-0.01,0.026l-0.01,0.025l-0.011,0.025l-0.012,0.025l-0.012,0.024l-0.013,0.024l-0.013,0.024l-0.014,0.023l-0.014,0.023l-0.015,0.023l-0.015,0.022l-0.016,0.022l-0.017,0.021l-0.017,0.021l-0.017,0.021l-0.018,0.02l-0.018,0.02l-0.019,0.019l-0.019,0.019l-0.02,0.018l-0.02,0.018l-0.021,0.018l-0.021,0.017l-0.021,0.016l-0.022,0.016l-0.022,0.015l-0.023,0.015l-0.023,0.015l-0.023,0.013l-0.024,0.014l-0.024,0.012l-0.024,0.013l-0.025,0.011l-0.025,0.011l-0.026,0.01l-0.025,0.01l-0.026,0.009l-0.026,0.009l-0.027,0.008l-0.027,0.007l-0.027,0.007l-0.027,0.006l-0.028,0.005l-0.027,0.004l-0.028,0.004l-0.028,0.004l-0.029,0.002l-0.028,0.002l-0.029,0.001l-0.029,0l-2.247,0l-0.029,0l-0.028,-0.001l-0.029,-0.002l-0.028,-0.002l-0.029,-0.004l-0.028,-0.004l-0.027,-0.004l-0.028,-0.005l-0.027,-0.006l-0.027,-0.007l-0.027,-0.007l-0.026,-0.008l-0.027,-0.009l-0.026,-0.009l-0.025,-0.01l-0.026,-0.01l-0.025,-0.011l-0.024,-0.011l-0.025,-0.013l-0.024,-0.012l-0.024,-0.014l-0.023,-0.013l-0.023,-0.015l-0.022,-0.015l-0.023,-0.015l-0.021,-0.016l-0.022,-0.016l-0.021,-0.017l-0.021,-0.018l-0.02,-0.018l-0.019,-0.018l-0.02,-0.019l-0.019,-0.019l-0.018,-0.02l-0.018,-0.02l-0.017,-0.021l-0.017,-0.021l-0.017,-0.021l-0.015,-0.022l-0.016,-0.022l-0.015,-0.023l-0.014,-0.023l-0.014,-0.023l-0.013,-0.024l-0.013,-0.024l-0.012,-0.024l-0.012,-0.025l-0.011,-0.025l-0.01,-0.025l-0.01,-0.026l-0.009,-0.026l-0.008,-0.026l-0.008,-0.026l-0.007,-0.027l-0.007,-0.027l-0.006,-0.028l-0.005,-0.027l-0.005,-0.028l-0.004,-0.028l-0.003,-0.028l-0.003,-0.028l-0.001,-0.029l-0.001,-0.029l-0.001,-0.029l0,-2.246l0.001,-0.029l0.001,-0.029l0.001,-0.029l0.003,-0.028l0.003,-0.028l0.004,-0.028l0.005,-0.028l0.005,-0.027l0.006,-0.028l0.007,-0.027l0.007,-0.027l0.008,-0.026l0.008,-0.026l0.009,-0.026l0.01,-0.026l0.01,-0.025l0.011,-0.025l0.012,-0.025l0.012,-0.024l0.013,-0.024l0.013,-0.024l0.014,-0.023l0.014,-0.023l0.015,-0.023l0.016,-0.022l0.015,-0.022l0.017,-0.021l0.017,-0.021l0.017,-0.021l0.018,-0.02l0.018,-0.02l0.019,-0.019l0.02,-0.019l0.019,-0.018l0.02,-0.018l0.021,-0.018l0.021,-0.017l0.022,-0.016l0.021,-0.016l0.023,-0.015l0.022,-0.015l0.023,-0.015l0.023,-0.013l0.024,-0.014l0.024,-0.012l0.025,-0.013l0.024,-0.011l0.025,-0.011l0.026,-0.01l0.025,-0.01l0.026,-0.009l0.027,-0.009l0.026,-0.008l0.027,-0.007l0.027,-0.007l0.027,-0.006l0.028,-0.005l0.027,-0.004l0.028,-0.004l0.029,-0.004l0.028,-0.002l0.029,-0.002l0.028,-0.001l0.029,0l2.247,0l0.029,0Zm-2.27,0.998l-0.009,0l-0.004,0l-0.003,0.001l-0.004,0l-0.003,0l-0.002,0.001l-0.004,0l-0.002,0.001l-0.003,0l-0.003,0.001l-0.003,0.001l-0.003,0.001l-0.002,0l-0.003,0.001l-0.003,0.001l-0.003,0.002l-0.002,0.001l-0.002,0.001l-0.004,0.001l-0.002,0.002l-0.002,0.001l-0.003,0.001l-0.003,0.002l-0.002,0.001l-0.003,0.002l-0.002,0.002l-0.003,0.002l-0.003,0.003l-0.002,0.001l-0.002,0.003l-0.003,0.002l-0.001,0.001l-0.003,0.003l-0.002,0.003l-0.002,0.002l-0.002,0.002l-0.002,0.003l-0.002,0.002l-0.002,0.002l-0.001,0.003l-0.002,0.003l-0.002,0.002l-0.001,0.003l-0.002,0.002l-0.001,0.003l-0.002,0.003l-0.001,0.002l-0.001,0.002l-0.001,0.003l-0.001,0.004l-0.001,0.002l-0.001,0.002l-0.001,0.004l-0.001,0.003l0,0.002l-0.001,0.003l0,0.003l-0.001,0.003l0,0.003l-0.001,0.003l0,0.004l0,0.003l0,0.003l0,0.011l0,2.232l0,0.011l0,0.003l0,0.003l0,0.004l0.001,0.003l0,0.003l0.001,0.003l0,0.003l0.001,0.003l0,0.002l0.001,0.003l0.001,0.004l0.001,0.002l0.001,0.002l0.001,0.004l0.001,0.003l0.002,0.004l0.002,0.003l0.001,0.003l0.001,0.002l0.002,0.003l0.002,0.003l0.002,0.002l0.001,0.002l0.002,0.003l0.002,0.002l0.002,0.003l0.002,0.002l0.002,0.003l0.002,0.002l0.002,0.002l0.002,0.002l0.003,0.002l0.002,0.003l0.003,0.002l0.002,0.002l0.003,0.002l0.002,0.002l0.002,0.001l0.003,0.002l0.003,0.002l0.003,0.001l0.002,0.001l0.002,0.002l0.004,0.001l0.004,0.002l0.003,0.002l0.003,0.001l0.003,0.001l0.002,0l0.003,0.001l0.003,0.001l0.003,0.001l0.003,0l0.002,0.001l0.004,0l0.002,0.001l0.003,0l0.005,0.001l0.002,0l0.004,0l0.01,0l2.233,0l0.01,0l0.004,0l0.003,0l0.004,-0.001l0.003,0l0.003,-0.001l0.003,0l0.003,-0.001l0.002,0l0.003,-0.001l0.004,-0.001l0.002,-0.001l0.002,0l0.003,-0.001l0.003,-0.001l0.003,-0.002l0.002,-0.001l0.002,-0.001l0.003,-0.001l0.003,-0.002l0.003,-0.001l0.003,-0.002l0.002,-0.001l0.003,-0.002l0.002,-0.001l0.003,-0.002l0.002,-0.002l0.002,-0.002l0.003,-0.002l0.002,-0.002l0.003,-0.003l0.002,-0.002l0.002,-0.002l0.002,-0.002l0.002,-0.003l0.002,-0.002l0.003,-0.003l0.001,-0.002l0.002,-0.003l0.002,-0.003l0.001,-0.001l0.002,-0.003l0.002,-0.003l0.001,-0.002l0.001,-0.003l0.002,-0.002l0.001,-0.003l0.001,-0.003l0.001,-0.002l0.001,-0.004l0.001,-0.001l0.001,-0.003l0.001,-0.004l0.001,-0.003l0,-0.003l0.001,-0.002l0.001,-0.003l0,-0.002l0,-0.004l0.001,-0.004l0,-0.002l0,-0.004l0,-0.003l0.001,-0.01l0,-2.234l-0.001,-0.01l0,-0.003l0,-0.004l0,-0.002l-0.001,-0.004l0,-0.004l0,-0.002l-0.001,-0.003l-0.001,-0.002l0,-0.003l-0.001,-0.003l-0.001,-0.004l-0.001,-0.003l-0.001,-0.001l-0.001,-0.004l-0.001,-0.002l-0.001,-0.003l-0.001,-0.003l-0.001,-0.002l-0.002,-0.003l-0.001,-0.002l-0.002,-0.003l-0.002,-0.002l-0.001,-0.002l-0.002,-0.004l-0.002,-0.002l-0.001,-0.002l-0.003,-0.003l-0.002,-0.002l-0.001,-0.002l-0.003,-0.003l-0.002,-0.002l-0.002,-0.002l-0.003,-0.003l-0.002,-0.002l-0.002,-0.001l-0.003,-0.003l-0.002,-0.002l-0.003,-0.002l-0.003,-0.002l-0.002,-0.001l-0.002,-0.001l-0.003,-0.002l-0.003,-0.001l-0.003,-0.002l-0.003,-0.001l-0.002,-0.001l-0.002,-0.001l-0.003,-0.002l-0.003,-0.001l-0.003,-0.001l-0.002,0l-0.002,-0.001l-0.004,-0.001l-0.003,-0.001l-0.002,0l-0.003,-0.001l-0.003,0l-0.003,-0.001l-0.003,0l-0.003,0l-0.004,-0.001l-0.004,0l-0.009,0l-2.235,0Z" style="fill:#9fa7a7;"/><path d="M246.778,39.552l4.243,0" style="fill:none;stroke:#6f7878;stroke-width:1px;stroke-linecap:round;"/><path d="M246.653,41.299l7.737,0" style="fill:none;stroke:#9fa7a7;stroke-width:0.87px;stroke-linecap:round;"/></g><g><path d="M245.28,45.168c0,-0.62 -0.503,-1.123 -1.123,-1.123l-2.247,0c-0.62,0 -1.123,0.503 -1.123,1.123l0,2.246c0,0.62 0.503,1.124 1.123,1.124l2.247,0c0.62,0 1.123,-0.504 1.123,-1.124l0,-2.246Z" style="fill:#fff;"/><path d="M244.186,44.045l0.029,0.001l0.028,0.002l0.029,0.003l0.028,0.003l0.028,0.004l0.027,0.004l0.028,0.006l0.027,0.006l0.027,0.006l0.027,0.007l0.027,0.008l0.026,0.009l0.026,0.009l0.025,0.01l0.026,0.01l0.025,0.011l0.025,0.012l0.024,0.012l0.024,0.012l0.024,0.014l0.023,0.014l0.023,0.014l0.023,0.015l0.022,0.015l0.022,0.016l0.021,0.016l0.021,0.017l0.021,0.018l0.02,0.018l0.02,0.018l0.019,0.019l0.019,0.019l0.018,0.02l0.018,0.02l0.017,0.021l0.017,0.021l0.017,0.021l0.016,0.022l0.015,0.022l0.015,0.023l0.014,0.023l0.014,0.023l0.013,0.024l0.013,0.024l0.012,0.024l0.012,0.025l0.011,0.025l0.01,0.025l0.01,0.026l0.009,0.026l0.008,0.026l0.008,0.027l0.008,0.026l0.006,0.027l0.006,0.028l0.005,0.027l0.005,0.028l0.004,0.028l0.003,0.028l0.003,0.029l0.002,0.028l0.001,0.029l0,0.029l0,2.246l0,0.029l-0.001,0.029l-0.002,0.029l-0.003,0.028l-0.003,0.028l-0.004,0.028l-0.005,0.028l-0.005,0.028l-0.006,0.027l-0.006,0.027l-0.008,0.027l-0.008,0.026l-0.008,0.026l-0.009,0.026l-0.01,0.026l-0.01,0.025l-0.011,0.025l-0.012,0.025l-0.012,0.025l-0.013,0.024l-0.013,0.023l-0.014,0.024l-0.014,0.023l-0.015,0.022l-0.015,0.022l-0.016,0.022l-0.017,0.022l-0.017,0.021l-0.017,0.02l-0.018,0.02l-0.018,0.02l-0.019,0.019l-0.019,0.019l-0.02,0.019l-0.02,0.018l-0.021,0.017l-0.021,0.017l-0.021,0.016l-0.022,0.016l-0.022,0.016l-0.023,0.015l-0.023,0.014l-0.023,0.014l-0.024,0.013l-0.024,0.013l-0.024,0.012l-0.025,0.011l-0.025,0.011l-0.026,0.011l-0.025,0.009l-0.026,0.01l-0.026,0.008l-0.027,0.008l-0.027,0.007l-0.027,0.007l-0.027,0.006l-0.028,0.005l-0.027,0.005l-0.028,0.004l-0.028,0.003l-0.029,0.002l-0.028,0.002l-0.029,0.001l-0.029,0.001l-2.247,0l-0.029,-0.001l-0.028,-0.001l-0.029,-0.002l-0.028,-0.002l-0.029,-0.003l-0.028,-0.004l-0.027,-0.005l-0.028,-0.005l-0.027,-0.006l-0.027,-0.007l-0.027,-0.007l-0.026,-0.008l-0.027,-0.008l-0.026,-0.01l-0.025,-0.009l-0.026,-0.011l-0.025,-0.011l-0.024,-0.011l-0.025,-0.012l-0.024,-0.013l-0.024,-0.013l-0.023,-0.014l-0.023,-0.014l-0.022,-0.015l-0.023,-0.016l-0.021,-0.016l-0.022,-0.016l-0.021,-0.017l-0.021,-0.017l-0.02,-0.018l-0.019,-0.019l-0.02,-0.019l-0.019,-0.019l-0.018,-0.02l-0.018,-0.02l-0.017,-0.02l-0.017,-0.021l-0.017,-0.022l-0.015,-0.022l-0.016,-0.022l-0.015,-0.022l-0.014,-0.023l-0.014,-0.024l-0.013,-0.023l-0.013,-0.024l-0.012,-0.025l-0.012,-0.025l-0.011,-0.025l-0.01,-0.025l-0.01,-0.026l-0.009,-0.026l-0.008,-0.026l-0.008,-0.026l-0.007,-0.027l-0.007,-0.027l-0.006,-0.027l-0.005,-0.028l-0.005,-0.028l-0.004,-0.028l-0.003,-0.028l-0.003,-0.028l-0.001,-0.029l-0.001,-0.029l-0.001,-0.029l0,-2.246l0.001,-0.029l0.001,-0.029l0.001,-0.028l0.003,-0.029l0.003,-0.028l0.004,-0.028l0.005,-0.028l0.005,-0.027l0.006,-0.028l0.007,-0.027l0.007,-0.026l0.008,-0.027l0.008,-0.026l0.009,-0.026l0.01,-0.026l0.01,-0.025l0.011,-0.025l0.012,-0.025l0.012,-0.024l0.013,-0.024l0.013,-0.024l0.014,-0.023l0.014,-0.023l0.015,-0.023l0.016,-0.022l0.015,-0.022l0.017,-0.021l0.017,-0.021l0.017,-0.021l0.018,-0.02l0.018,-0.02l0.019,-0.019l0.02,-0.019l0.019,-0.018l0.02,-0.018l0.021,-0.018l0.021,-0.017l0.022,-0.016l0.021,-0.016l0.023,-0.015l0.022,-0.015l0.023,-0.014l0.023,-0.014l0.024,-0.014l0.024,-0.012l0.025,-0.012l0.024,-0.012l0.025,-0.011l0.026,-0.01l0.025,-0.01l0.026,-0.009l0.027,-0.009l0.026,-0.008l0.027,-0.007l0.027,-0.006l0.027,-0.006l0.028,-0.006l0.027,-0.004l0.028,-0.004l0.029,-0.003l0.028,-0.003l0.029,-0.002l0.028,-0.001l0.029,0l2.247,0l0.029,0Zm-2.269,0.998l-0.01,0l-0.004,0l-0.002,0.001l-0.005,0l-0.003,0l-0.002,0.001l-0.004,0l-0.002,0.001l-0.004,0.001l-0.002,0l-0.002,0.001l-0.004,0.001l-0.002,0l-0.003,0.001l-0.003,0.002l-0.003,0.001l-0.002,0.001l-0.002,0.001l-0.004,0.001l-0.002,0.002l-0.002,0.001l-0.003,0.002l-0.003,0.002l-0.003,0.001l-0.002,0.002l-0.002,0.002l-0.003,0.001l-0.002,0.002l-0.003,0.002l-0.002,0.003l-0.003,0.002l-0.002,0.002l-0.002,0.002l-0.002,0.002l-0.002,0.003l-0.002,0.003l-0.002,0.002l-0.002,0.002l-0.002,0.003l-0.001,0.002l-0.002,0.002l-0.002,0.003l-0.002,0.003l-0.001,0.002l-0.001,0.003l-0.002,0.003l-0.001,0.003l-0.001,0.002l-0.001,0.003l-0.001,0.003l-0.001,0.003l-0.001,0.002l-0.001,0.003l-0.001,0.003l0,0.002l-0.001,0.003l0,0.003l-0.001,0.003l0,0.003l-0.001,0.003l0,0.004l0,0.003l0,0.003l0,0.011l0,2.233l0,0.01l0,0.003l0,0.003l0,0.005l0.001,0.003l0,0.002l0.001,0.003l0,0.003l0.001,0.004l0,0.002l0.001,0.002l0.001,0.004l0.001,0.002l0.001,0.003l0.001,0.003l0.001,0.003l0.002,0.004l0.002,0.003l0.001,0.003l0.002,0.002l0.001,0.003l0.002,0.003l0.002,0.002l0.001,0.003l0.002,0.002l0.002,0.002l0.002,0.003l0.002,0.002l0.002,0.002l0.002,0.004l0.003,0.002l0.001,0.001l0.003,0.003l0.002,0.002l0.002,0.002l0.003,0.002l0.003,0.002l0.002,0.002l0.003,0.002l0.002,0.001l0.003,0.002l0.003,0.001l0.002,0.001l0.002,0.002l0.003,0.001l0.003,0.002l0.003,0.001l0.002,0.001l0.003,0.001l0.003,0.001l0.002,0.001l0.003,0l0.003,0.001l0.003,0.001l0.003,0.001l0.002,0l0.004,0.001l0.002,0l0.003,0l0.004,0.001l0.003,0l0.004,0l0.009,0l2.235,0l0.009,0l0.004,0l0.004,0l0.003,-0.001l0.003,0l0.003,0l0.003,-0.001l0.003,0l0.002,-0.001l0.003,-0.001l0.004,-0.001l0.002,0l0.002,-0.001l0.003,-0.001l0.003,-0.001l0.002,-0.001l0.003,-0.001l0.003,-0.002l0.002,-0.001l0.003,-0.001l0.003,-0.002l0.003,-0.002l0.002,-0.001l0.002,-0.001l0.003,-0.002l0.003,-0.002l0.002,-0.002l0.003,-0.002l0.002,-0.002l0.002,-0.002l0.003,-0.003l0.002,-0.002l0.002,-0.001l0.003,-0.004l0.001,-0.002l0.002,-0.002l0.003,-0.003l0.001,-0.002l0.002,-0.002l0.002,-0.003l0.001,-0.002l0.002,-0.003l0.002,-0.003l0.001,-0.002l0.002,-0.003l0.001,-0.002l0.001,-0.003l0.001,-0.003l0.001,-0.002l0.001,-0.003l0.001,-0.002l0.001,-0.003l0.001,-0.004l0.001,-0.002l0,-0.003l0.001,-0.003l0.001,-0.003l0,-0.002l0,-0.003l0.001,-0.004l0,-0.003l0,-0.004l0,-0.003l0.001,-0.009l0,-2.235l-0.001,-0.01l0,-0.003l0,-0.004l0,-0.002l-0.001,-0.004l0,-0.004l0,-0.002l-0.001,-0.003l-0.001,-0.002l0,-0.003l-0.001,-0.003l-0.001,-0.003l-0.001,-0.003l-0.001,-0.002l-0.001,-0.003l-0.001,-0.003l-0.001,-0.002l-0.001,-0.003l-0.002,-0.003l-0.001,-0.003l-0.001,-0.002l-0.002,-0.003l-0.002,-0.003l-0.001,-0.001l-0.002,-0.003l-0.002,-0.003l-0.001,-0.002l-0.003,-0.003l-0.002,-0.002l-0.002,-0.003l-0.002,-0.002l-0.002,-0.002l-0.002,-0.002l-0.003,-0.003l-0.002,-0.002l-0.003,-0.002l-0.002,-0.001l-0.002,-0.002l-0.003,-0.002l-0.002,-0.002l-0.003,-0.002l-0.002,-0.001l-0.003,-0.002l-0.003,-0.001l-0.003,-0.002l-0.003,-0.001l-0.002,-0.001l-0.002,-0.001l-0.003,-0.001l-0.003,-0.002l-0.003,-0.001l-0.002,0l-0.003,-0.001l-0.003,-0.001l-0.002,0l-0.003,-0.001l-0.003,-0.001l-0.003,0l-0.003,-0.001l-0.003,0l-0.004,0l-0.003,-0.001l-0.004,0l-0.01,0l-2.233,0Z" style="fill:#9fa7a7;"/><path d="M246.778,45.043l4.243,0" style="fill:none;stroke:#6f7878;stroke-width:1px;stroke-linecap:round;"/><path d="M246.653,46.79l7.737,0" style="fill:none;stroke:#9fa7a7;stroke-width:0.87px;stroke-linecap:round;"/></g><g><path d="M245.28,34.186c0,-0.62 -0.503,-1.124 -1.123,-1.124l-2.247,0c-0.62,0 -1.123,0.504 -1.123,1.124l0,2.246c0,0.62 0.503,1.123 1.123,1.123l2.247,0c0.62,0 1.123,-0.503 1.123,-1.123l0,-2.246Z" style="fill:#fff;"/><path d="M244.186,33.063l0.029,0.001l0.028,0.002l0.029,0.002l0.028,0.003l0.028,0.004l0.027,0.005l0.028,0.005l0.027,0.006l0.027,0.007l0.027,0.007l0.027,0.008l0.026,0.008l0.026,0.01l0.025,0.009l0.026,0.011l0.025,0.011l0.025,0.011l0.024,0.012l0.024,0.013l0.024,0.013l0.023,0.014l0.023,0.014l0.023,0.015l0.022,0.016l0.022,0.016l0.021,0.016l0.021,0.017l0.021,0.017l0.02,0.018l0.02,0.019l0.019,0.019l0.019,0.019l0.018,0.02l0.018,0.02l0.017,0.02l0.017,0.021l0.017,0.022l0.016,0.022l0.015,0.022l0.015,0.022l0.014,0.023l0.014,0.024l0.013,0.023l0.013,0.024l0.012,0.025l0.012,0.025l0.011,0.025l0.01,0.025l0.01,0.026l0.009,0.026l0.008,0.026l0.008,0.026l0.008,0.027l0.006,0.027l0.006,0.027l0.005,0.028l0.005,0.028l0.004,0.028l0.003,0.028l0.003,0.028l0.002,0.029l0.001,0.029l0,0.029l0,2.246l0,0.029l-0.001,0.029l-0.002,0.028l-0.003,0.029l-0.003,0.028l-0.004,0.028l-0.005,0.028l-0.005,0.027l-0.006,0.028l-0.006,0.027l-0.008,0.026l-0.008,0.027l-0.008,0.026l-0.009,0.026l-0.01,0.026l-0.01,0.025l-0.011,0.025l-0.012,0.025l-0.012,0.024l-0.013,0.024l-0.013,0.024l-0.014,0.023l-0.014,0.023l-0.015,0.023l-0.015,0.022l-0.016,0.022l-0.017,0.021l-0.017,0.021l-0.017,0.021l-0.018,0.02l-0.018,0.02l-0.019,0.019l-0.019,0.019l-0.02,0.018l-0.02,0.018l-0.021,0.018l-0.021,0.017l-0.021,0.016l-0.022,0.016l-0.022,0.015l-0.023,0.015l-0.023,0.014l-0.023,0.014l-0.024,0.014l-0.024,0.012l-0.024,0.012l-0.025,0.012l-0.025,0.011l-0.026,0.01l-0.025,0.01l-0.026,0.009l-0.026,0.009l-0.027,0.008l-0.027,0.007l-0.027,0.006l-0.027,0.006l-0.028,0.006l-0.027,0.004l-0.028,0.004l-0.028,0.003l-0.029,0.003l-0.028,0.002l-0.029,0.001l-0.029,0l-2.247,0l-0.029,0l-0.028,-0.001l-0.029,-0.002l-0.028,-0.003l-0.029,-0.003l-0.028,-0.004l-0.027,-0.004l-0.028,-0.006l-0.027,-0.006l-0.027,-0.006l-0.027,-0.007l-0.026,-0.008l-0.027,-0.009l-0.026,-0.009l-0.025,-0.01l-0.026,-0.01l-0.025,-0.011l-0.024,-0.012l-0.025,-0.012l-0.024,-0.012l-0.024,-0.014l-0.023,-0.014l-0.023,-0.014l-0.022,-0.015l-0.023,-0.015l-0.021,-0.016l-0.022,-0.016l-0.021,-0.017l-0.021,-0.018l-0.02,-0.018l-0.019,-0.018l-0.02,-0.019l-0.019,-0.019l-0.018,-0.02l-0.018,-0.02l-0.017,-0.021l-0.017,-0.021l-0.017,-0.021l-0.015,-0.022l-0.016,-0.022l-0.015,-0.023l-0.014,-0.023l-0.014,-0.023l-0.013,-0.024l-0.013,-0.024l-0.012,-0.024l-0.012,-0.025l-0.011,-0.025l-0.01,-0.025l-0.01,-0.026l-0.009,-0.026l-0.008,-0.026l-0.008,-0.027l-0.007,-0.026l-0.007,-0.027l-0.006,-0.028l-0.005,-0.027l-0.005,-0.028l-0.004,-0.028l-0.003,-0.028l-0.003,-0.029l-0.001,-0.028l-0.001,-0.029l-0.001,-0.029l0,-2.246l0.001,-0.029l0.001,-0.029l0.001,-0.029l0.003,-0.028l0.003,-0.028l0.004,-0.028l0.005,-0.028l0.005,-0.028l0.006,-0.027l0.007,-0.027l0.007,-0.027l0.008,-0.026l0.008,-0.026l0.009,-0.026l0.01,-0.026l0.01,-0.025l0.011,-0.025l0.012,-0.025l0.012,-0.025l0.013,-0.024l0.013,-0.023l0.014,-0.024l0.014,-0.023l0.015,-0.022l0.016,-0.022l0.015,-0.022l0.017,-0.022l0.017,-0.021l0.017,-0.02l0.018,-0.02l0.018,-0.02l0.019,-0.019l0.02,-0.019l0.019,-0.019l0.02,-0.018l0.021,-0.017l0.021,-0.017l0.022,-0.016l0.021,-0.016l0.023,-0.016l0.022,-0.015l0.023,-0.014l0.023,-0.014l0.024,-0.013l0.024,-0.013l0.025,-0.012l0.024,-0.011l0.025,-0.011l0.026,-0.011l0.025,-0.009l0.026,-0.01l0.027,-0.008l0.026,-0.008l0.027,-0.007l0.027,-0.007l0.027,-0.006l0.028,-0.005l0.027,-0.005l0.028,-0.004l0.029,-0.003l0.028,-0.002l0.029,-0.002l0.028,-0.001l0.029,-0.001l2.247,0l0.029,0.001Zm-2.27,0.998l-0.009,0l-0.004,0l-0.003,0l-0.003,0l-0.004,0.001l-0.003,0l-0.003,0.001l-0.002,0l-0.003,0.001l-0.003,0.001l-0.002,0l-0.004,0.001l-0.003,0.001l-0.002,0.001l-0.002,0.001l-0.003,0.001l-0.004,0.002l-0.002,0.001l-0.003,0.001l-0.002,0.002l-0.002,0.001l-0.003,0.001l-0.003,0.002l-0.002,0.001l-0.003,0.002l-0.002,0.002l-0.003,0.002l-0.003,0.002l-0.002,0.002l-0.002,0.002l-0.003,0.003l-0.001,0.001l-0.003,0.002l-0.002,0.003l-0.002,0.003l-0.002,0.002l-0.002,0.002l-0.002,0.003l-0.002,0.003l-0.001,0.002l-0.002,0.002l-0.002,0.003l-0.001,0.003l-0.002,0.002l-0.001,0.003l-0.002,0.003l-0.001,0.002l-0.001,0.002l-0.001,0.003l-0.001,0.003l-0.001,0.003l-0.001,0.002l-0.001,0.003l-0.001,0.003l0,0.002l-0.001,0.004l0,0.003l-0.001,0.003l0,0.002l-0.001,0.003l0,0.005l0,0.003l0,0.003l0,0.01l0,2.233l0,0.011l0,0.003l0,0.003l0,0.004l0.001,0.003l0,0.003l0.001,0.003l0,0.003l0.001,0.003l0,0.002l0.001,0.003l0.001,0.004l0.002,0.004l0.001,0.003l0.001,0.003l0.001,0.002l0.001,0.003l0.002,0.003l0.001,0.002l0.001,0.003l0.002,0.002l0.002,0.004l0.002,0.002l0.001,0.002l0.002,0.003l0.002,0.002l0.002,0.002l0.001,0.003l0.003,0.003l0.002,0.002l0.002,0.002l0.003,0.002l0.002,0.002l0.002,0.002l0.003,0.003l0.002,0.002l0.003,0.001l0.002,0.002l0.002,0.002l0.003,0.002l0.003,0.001l0.002,0.002l0.003,0.001l0.002,0.002l0.004,0.001l0.002,0.001l0.003,0.002l0.002,0l0.002,0.001l0.004,0.002l0.003,0.001l0.004,0.001l0.003,0l0.004,0.001l0.002,0.001l0.004,0l0.002,0.001l0.003,0l0.005,0l0.002,0.001l0.004,0l0.01,0l2.233,0l0.01,0l0.004,0l0.003,-0.001l0.004,0l0.003,0l0.003,-0.001l0.003,0l0.003,-0.001l0.003,-0.001l0.003,0l0.002,-0.001l0.002,0l0.003,-0.001l0.004,-0.002l0.002,-0.001l0.002,0l0.003,-0.002l0.002,-0.001l0.003,-0.001l0.003,-0.002l0.004,-0.002l0.002,-0.001l0.001,-0.001l0.004,-0.002l0.002,-0.002l0.003,-0.002l0.002,-0.002l0.002,-0.001l0.003,-0.003l0.002,-0.001l0.002,-0.003l0.003,-0.002l0.002,-0.002l0.002,-0.002l0.003,-0.003l0.001,-0.002l0.002,-0.003l0.002,-0.002l0.002,-0.003l0.002,-0.003l0.001,-0.001l0.002,-0.004l0.002,-0.002l0.001,-0.003l0.001,-0.002l0.001,-0.002l0.002,-0.004l0.001,-0.002l0.001,-0.003l0.001,-0.003l0.001,-0.001l0.001,-0.003l0.001,-0.004l0.001,-0.003l0,-0.003l0.001,-0.002l0.001,-0.003l0,-0.002l0,-0.004l0.001,-0.004l0,-0.002l0,-0.004l0,-0.003l0.001,-0.01l0,-2.235l-0.001,-0.009l0,-0.003l0,-0.004l0,-0.003l-0.001,-0.004l0,-0.003l0,-0.002l-0.001,-0.003l-0.001,-0.003l0,-0.003l-0.001,-0.002l-0.001,-0.004l-0.001,-0.003l-0.001,-0.002l-0.001,-0.003l-0.001,-0.002l-0.001,-0.003l-0.001,-0.003l-0.001,-0.002l-0.002,-0.003l-0.001,-0.002l-0.002,-0.003l-0.002,-0.003l-0.001,-0.002l-0.002,-0.002l-0.002,-0.003l-0.002,-0.003l-0.002,-0.002l-0.002,-0.002l-0.001,-0.003l-0.003,-0.003l-0.002,-0.001l-0.002,-0.002l-0.003,-0.003l-0.002,-0.002l-0.002,-0.002l-0.003,-0.002l-0.002,-0.002l-0.003,-0.002l-0.003,-0.002l-0.002,-0.001l-0.002,-0.001l-0.003,-0.002l-0.003,-0.002l-0.003,-0.001l-0.002,-0.001l-0.002,-0.001l-0.004,-0.002l-0.003,-0.001l-0.002,-0.001l-0.002,-0.001l-0.003,-0.001l-0.003,-0.001l-0.003,0l-0.003,-0.001l-0.002,-0.001l-0.003,0l-0.002,-0.001l-0.004,0l-0.004,0l-0.002,-0.001l-0.004,0l-0.004,0l-0.009,0l-2.235,0Z" style="fill:#9fa7a7;"/><path d="M246.778,34.061l4.243,0" style="fill:none;stroke:#6f7878;stroke-width:1px;stroke-linecap:round;"/><path d="M246.653,35.808l7.737,0" style="fill:none;stroke:#9fa7a7;stroke-width:0.87px;stroke-linecap:round;"/></g><path d="M242.285,34.81l0.998,0.998l2.496,-2.496" style="fill:none;stroke:#ff5c49;stroke-width:0.87px;stroke-linecap:round;"/></g><path d="M200.875,30.762c-1.32,-0.263 -2.679,-0.263 -3.999,0l-0.19,2.699c-0.503,0.15 -0.989,0.351 -1.451,0.601l-2.044,-1.774c-1.119,0.748 -2.08,1.708 -2.827,2.828l1.774,2.043c-0.25,0.462 -0.451,0.948 -0.601,1.451l-2.7,0.191c-0.262,1.32 -0.262,2.678 0,3.998l2.7,0.191c0.15,0.503 0.351,0.989 0.601,1.451l-1.774,2.043c0.747,1.12 1.708,2.08 2.827,2.828l2.044,-1.774c0.462,0.25 0.948,0.451 1.451,0.601l0.19,2.699c1.32,0.263 2.679,0.263 3.999,0l0.191,-2.699c0.503,-0.15 0.989,-0.351 1.451,-0.601l2.043,1.774c1.119,-0.748 2.08,-1.708 2.828,-2.828l-1.774,-2.043c0.249,-0.462 0.451,-0.948 0.601,-1.451l2.699,-0.191c0.263,-1.32 0.263,-2.678 0,-3.998l-2.699,-0.191c-0.15,-0.503 -0.352,-0.989 -0.601,-1.451l1.774,-2.043c-0.748,-1.12 -1.709,-2.08 -2.828,-2.828l-2.043,1.774c-0.462,-0.25 -0.948,-0.451 -1.451,-0.601l-0.191,-2.699Zm-1.999,6.403c2.006,0 3.634,1.629 3.634,3.635c0,2.006 -1.628,3.635 -3.634,3.635c-2.006,0 -3.635,-1.629 -3.635,-3.635c0,-2.006 1.629,-3.635 3.635,-3.635Z" style="fill:#8c9696;"/><clipPath id="_clip4"><path d="M200.875,30.762c-1.32,-0.263 -2.679,-0.263 -3.999,0l-0.19,2.699c-0.503,0.15 -0.989,0.351 -1.451,0.601l-2.044,-1.774c-1.119,0.748 -2.08,1.708 -2.827,2.828l1.774,2.043c-0.25,0.462 -0.451,0.948 -0.601,1.451l-2.7,0.191c-0.262,1.32 -0.262,2.678 0,3.998l2.7,0.191c0.15,0.503 0.351,0.989 0.601,1.451l-1.774,2.043c0.747,1.12 1.708,2.08 2.827,2.828l2.044,-1.774c0.462,0.25 0.948,0.451 1.451,0.601l0.19,2.699c1.32,0.263 2.679,0.263 3.999,0l0.191,-2.699c0.503,-0.15 0.989,-0.351 1.451,-0.601l2.043,1.774c1.119,-0.748 2.08,-1.708 2.828,-2.828l-1.774,-2.043c0.249,-0.462 0.451,-0.948 0.601,-1.451l2.699,-0.191c0.263,-1.32 0.263,-2.678 0,-3.998l-2.699,-0.191c-0.15,-0.503 -0.352,-0.989 -0.601,-1.451l1.774,-2.043c-0.748,-1.12 -1.709,-2.08 -2.828,-2.828l-2.043,1.774c-0.462,-0.25 -0.948,-0.451 -1.451,-0.601l-0.191,-2.699Zm-1.999,6.403c2.006,0 3.634,1.629 3.634,3.635c0,2.006 -1.628,3.635 -3.634,3.635c-2.006,0 -3.635,-1.629 -3.635,-3.635c0,-2.006 1.629,-3.635 3.635,-3.635Z"/></clipPath><g clip-path="url(#_clip4)"><rect x="198.876" y="28.32" width="12.311" height="24.96" style="fill:#707878;"/></g><path d="M213.925,44.522l0,-7.444l13.03,0l0,-3.718l7.44,7.44l-7.44,7.44l0,-3.718l-13.03,0Z" style="fill:#00aa5e;"/><clipPath id="_clip5"><path d="M213.925,44.522l0,-7.444l13.03,0l0,-3.718l7.44,7.44l-7.44,7.44l0,-3.718l-13.03,0Z"/></clipPath><g clip-path="url(#_clip5)"><rect x="213.042" y="32.4" width="22.603" height="8.4" style="fill:#34bc6e;"/></g></g><g id="T.-.-Lund.-.-HP.-.-Recycling"><path d="M355.2,40.8c0,22.534 -18.266,40.8 -40.8,40.8c-22.533,0 -40.8,-18.266 -40.8,-40.8c0,-22.533 18.267,-40.8 40.8,-40.8c22.534,0 40.8,18.267 40.8,40.8" style="fill:#caef9d;fill-rule:nonzero;"/><g><path d="M344.681,43.236l-4.062,7.036l-6.428,-11.133l6.093,-3.518l4.397,7.615Z" style="fill:#00884b;"/><path d="M338.591,39.724l-6.766,-2.344l8.119,-4.687l-1.353,7.031Z" style="fill:#00aa5e;stroke:#00aa5e;stroke-width:1.92px;stroke-linecap:round;"/><path d="M316.264,43.237l4.396,-7.616c2.031,1.173 4.063,2.345 6.094,3.518l-6.428,11.133l-4.062,-7.035Z" style="fill:#00aa5e;"/><path d="M333.181,28.006l-6.427,11.133l-6.094,-3.518l4.397,-7.615l8.124,0Z" style="fill:#00884b;"/><path d="M325.06,35.037l1.353,7.03l-8.118,-4.687l6.765,-2.343Z" style="fill:#00aa5e;stroke:#00aa5e;stroke-width:1.92px;stroke-linecap:round;"/><path d="M343.328,45.58l-4.062,7.036l-8.794,0l0,-7.036l12.856,0Z" style="fill:#00aa5e;"/><path d="M330.472,52.616l-8.793,0l-4.062,-7.036l12.855,0l0,7.036Z" style="fill:#00884b;"/><path d="M327.766,49.098l5.412,-4.687l0,9.374l-5.412,-4.687Z" style="fill:#00aa5e;stroke:#00aa5e;stroke-width:1.92px;stroke-linecap:round;"/><path d="M335.888,28.006l4.396,7.615l-6.093,3.518l-6.428,-11.133l8.125,0Z" style="fill:#00aa5e;"/></g><g><path d="M309.736,30.121l-24.271,0l1.989,29.125l20.367,0l1.915,-29.125Z" style="fill:#a0a6a6;"/><path d="M311.192,26.26c0,-0.548 -0.445,-0.993 -0.993,-0.993l-25.197,0c-0.548,0 -0.993,0.445 -0.993,0.993l0,2.868c0,0.548 0.445,0.993 0.993,0.993l25.197,0c0.548,0 0.993,-0.445 0.993,-0.993l0,-2.868Z" style="fill:#707878;"/><path d="M299.057,33.998c0,-0.8 -0.65,-1.45 -1.45,-1.45l-0.013,0c-0.8,0 -1.45,0.65 -1.45,1.45l0,21.371c0,0.8 0.65,1.45 1.45,1.45l0.013,0c0.8,0 1.45,-0.65 1.45,-1.45l0,-21.371Z" style="fill:#707878;"/><path d="M303.835,34.073c0.031,-0.8 -0.592,-1.474 -1.392,-1.506l-0.013,0c-0.799,-0.032 -1.474,0.592 -1.505,1.392l-0.839,21.354c-0.032,0.8 0.592,1.474 1.392,1.506l0.012,0c0.8,0.032 1.474,-0.592 1.506,-1.392l0.839,-21.354Z" style="fill:#707878;"/><path d="M308.609,34.183c0.063,-0.798 -0.534,-1.497 -1.331,-1.559l-0.013,-0.001c-0.798,-0.063 -1.496,0.533 -1.559,1.331l-1.677,21.305c-0.063,0.798 0.534,1.497 1.332,1.559l0.012,0.001c0.798,0.063 1.497,-0.534 1.56,-1.331l1.676,-21.305Z" style="fill:#707878;"/><path d="M294.276,33.959c-0.031,-0.8 -0.706,-1.424 -1.505,-1.392l-0.013,0c-0.8,0.032 -1.423,0.706 -1.392,1.506l0.839,21.354c0.032,0.8 0.706,1.424 1.506,1.392l0.012,0c0.8,-0.032 1.424,-0.706 1.392,-1.506l-0.839,-21.354Z" style="fill:#707878;"/><path d="M289.695,33.952c-0.056,-0.798 -0.75,-1.401 -1.548,-1.345l-0.012,0.001c-0.799,0.056 -1.402,0.749 -1.346,1.547l1.491,21.319c0.056,0.798 0.749,1.401 1.548,1.345l0.012,-0.001c0.798,-0.055 1.401,-0.749 1.345,-1.547l-1.49,-21.319Z" style="fill:#707878;"/><circle cx="297.601" cy="25.267" r="2.912" style="fill:none;stroke:#707878;stroke-width:1.92px;"/></g></g></g></svg>