<?xml version="1.0" encoding="UTF-8" standalone="no"?><!DOCTYPE svg PUBLIC "-//W3C//DTD SVG 1.1//EN" "http://www.w3.org/Graphics/SVG/1.1/DTD/svg11.dtd"><svg width="100%" height="100%" viewBox="0 0 200 201" version="1.1" xmlns="http://www.w3.org/2000/svg" xmlns:xlink="http://www.w3.org/1999/xlink" xml:space="preserve" style="fill-rule:evenodd;clip-rule:evenodd;"><rect id="T.-.-Lund.-.-Safety.-goggles" x="0" y="0.249" width="200" height="200" style="fill:none;"/><g><path d="M153.809,127.808c-2.271,4.646 -32.868,6.931 -41.033,0.438c-1.036,-0.825 -2.557,-21.939 -12.918,-21.926c-11.107,0.015 -11.578,19.564 -11.874,20.647c-4.132,6.788 -37.089,7.575 -41.713,0.688c-0.123,-0.636 -8.331,-27.655 -8.331,-27.655c0,0 15.253,-6.092 61.727,-6.033c41.752,0.053 61.725,5.612 61.725,5.612c0,0 -6.637,26.294 -7.583,28.229Z" style="fill:none;stroke:#000;stroke-width:0.82px;"/><path d="M161.393,99.579c-1.057,-0.528 -18.17,-5.444 -61.535,-5.773c-43.366,-0.328 -61.917,6.194 -61.917,6.194l-0.46,-5.423c0,0 20.195,-6.964 62.186,-6.964c41.991,0 61.998,5.501 62.568,6.353c0.57,0.853 0.401,4.853 -0.842,5.613Z" style="fill-rule:nonzero;stroke:#000;stroke-width:0.82px;"/><path d="M112.124,126.086c-0.065,-0.146 -6.522,-17.04 -8.399,-17.641c-0.799,-0.026 -5.851,0.026 -7.449,0.026c-2.526,1.288 -8.183,17.615 -8.183,17.615c0,0 -1.767,-0.289 -1.262,-4.643c0.308,-2.273 4.811,-13.732 7.306,-15.002c2.496,-1.269 11.238,-1.038 12.4,0c2.129,1.903 6.373,12.728 6.366,15.057c0.067,0.481 -0.367,3.436 -0.779,4.588Z" style="fill-rule:nonzero;stroke:#000;stroke-width:0.82px;"/><path d="M65.089,69.566c6.261,-0.184 5.832,12.339 5.832,12.339l3.928,-0.184c0,0 1.044,-15.102 -11.778,-13.567c-3.991,-0.735 -26.616,26.057 -25.591,26.423c1.026,0.367 11.052,-2.701 11.052,-2.701c0,0 14.469,-22.986 16.557,-22.31Z" style="fill:none;stroke:#000;stroke-width:0.82px;"/><path d="M134.939,69.566c-6.261,-0.184 -5.831,12.339 -5.831,12.339l-3.93,-0.184c0,0 -1.043,-15.102 11.779,-13.567c3.991,-0.735 26.009,26.161 25.59,26.423c-0.418,0.263 -11.051,-2.701 -11.051,-2.701c0,0 -14.469,-22.986 -16.557,-22.31Z" style="fill:none;stroke:#000;stroke-width:0.82px;"/></g><path d="M100.273,15.76l0.273,0.001l0.272,0.002l0.273,0.003l0.272,0.004l0.272,0.005l0.272,0.005l0.271,0.007l0.271,0.007l0.272,0.008l0.27,0.009l0.271,0.01l0.271,0.011l0.27,0.012l0.27,0.012l0.27,0.013l0.269,0.014l0.27,0.015l0.269,0.016l0.269,0.017l0.268,0.017l0.269,0.019l0.268,0.019l0.268,0.02l0.268,0.021l0.267,0.021l0.268,0.023l0.267,0.023l0.266,0.024l0.267,0.025l0.266,0.026l0.267,0.027l0.265,0.027l0.266,0.029l0.265,0.029l0.266,0.03l0.264,0.03l0.265,0.032l0.264,0.032l0.265,0.034l0.263,0.034l0.264,0.034l0.263,0.036l0.264,0.037l0.262,0.037l0.263,0.038l0.262,0.039l0.262,0.04l0.262,0.04l0.262,0.041l0.261,0.042l0.261,0.043l0.261,0.044l0.26,0.045l0.26,0.045l0.26,0.046l0.26,0.047l0.259,0.047l0.26,0.049l0.258,0.049l0.259,0.05l0.258,0.051l0.258,0.052l0.258,0.052l0.257,0.053l0.257,0.054l0.257,0.055l0.257,0.056l0.256,0.056l0.256,0.057l0.256,0.058l0.255,0.058l0.255,0.06l0.255,0.06l0.255,0.061l0.254,0.062l0.254,0.062l0.253,0.063l0.254,0.064l0.253,0.065l0.252,0.066l0.253,0.066l0.252,0.067l0.252,0.068l0.251,0.068l0.251,0.07l0.251,0.07l0.251,0.071l0.25,0.071l0.25,0.073l0.25,0.073l0.249,0.074l0.249,0.074l0.248,0.076l0.249,0.076l0.248,0.076l0.247,0.078l0.248,0.078l0.247,0.079l0.246,0.08l0.247,0.081l0.246,0.081l0.245,0.082l0.246,0.083l0.245,0.083l0.244,0.084l0.245,0.085l0.244,0.086l0.243,0.086l0.244,0.087l0.243,0.088l0.242,0.089l0.243,0.089l0.241,0.09l0.242,0.091l0.241,0.091l0.241,0.092l0.241,0.093l0.24,0.093l0.24,0.095l0.239,0.095l0.239,0.095l0.239,0.097l0.238,0.097l0.238,0.098l0.238,0.098l0.237,0.099l0.237,0.1l0.237,0.101l0.236,0.101l0.236,0.102l0.235,0.103l0.235,0.103l0.235,0.104l0.234,0.105l0.234,0.106l0.234,0.106l0.233,0.107l0.233,0.107l0.232,0.108l0.232,0.109l0.232,0.11l0.231,0.11l0.231,0.111l0.231,0.112l0.23,0.112l0.23,0.113l0.229,0.114l0.229,0.114l0.228,0.115l0.228,0.116l0.228,0.116l0.228,0.117l0.227,0.118l0.226,0.118l0.226,0.119l0.226,0.12l0.225,0.12l0.225,0.121l0.225,0.122l0.224,0.122l0.224,0.123l0.223,0.124l0.223,0.124l0.222,0.125l0.222,0.126l0.222,0.126l0.221,0.127l0.221,0.128l0.221,0.128l0.219,0.129l0.22,0.129l0.219,0.13l0.219,0.131l0.218,0.131l0.218,0.132l0.217,0.133l0.217,0.133l0.217,0.134l0.216,0.135l0.216,0.135l0.215,0.136l0.215,0.137l0.214,0.137l0.214,0.137l0.214,0.139l0.213,0.139l0.212,0.139l0.212,0.141l0.212,0.141l0.211,0.141l0.211,0.142l0.211,0.143l0.209,0.143l0.21,0.144l0.209,0.145l0.208,0.145l0.209,0.146l0.207,0.146l0.207,0.147l0.207,0.148l0.206,0.148l0.206,0.149l0.205,0.149l0.205,0.15l0.205,0.151l0.204,0.151l0.203,0.152l0.203,0.152l0.203,0.153l0.202,0.154l0.201,0.154l0.201,0.155l0.201,0.155l0.2,0.156l0.2,0.156l0.199,0.158l0.199,0.157l0.198,0.159l0.197,0.158l0.198,0.16l0.196,0.16l0.197,0.161l0.195,0.161l0.196,0.162l0.195,0.162l0.194,0.163l0.194,0.163l0.193,0.164l0.193,0.165l0.192,0.165l0.192,0.166l0.191,0.166l0.191,0.167l0.19,0.168l0.19,0.168l0.189,0.168l0.189,0.169l0.188,0.17l0.188,0.17l0.187,0.171l0.187,0.171l0.186,0.172l0.186,0.173l0.185,0.173l0.185,0.173l0.184,0.174l0.183,0.175l0.183,0.175l0.183,0.176l0.182,0.176l0.181,0.177l0.181,0.177l0.181,0.178l0.18,0.179l0.179,0.179l0.179,0.179l0.178,0.18l0.178,0.181l0.177,0.181l0.177,0.181l0.176,0.182l0.176,0.183l0.175,0.183l0.175,0.184l0.174,0.184l0.173,0.185l0.173,0.185l0.172,0.186l0.172,0.186l0.171,0.187l0.171,0.188l0.17,0.187l0.17,0.189l0.169,0.189l0.168,0.189l0.168,0.19l0.167,0.19l0.167,0.191l0.166,0.192l0.166,0.191l0.165,0.193l0.165,0.193l0.164,0.193l0.163,0.194l0.163,0.194l0.162,0.195l0.162,0.196l0.161,0.196l0.16,0.196l0.16,0.197l0.16,0.197l0.159,0.198l0.158,0.198l0.157,0.199l0.157,0.199l0.157,0.2l0.156,0.2l0.155,0.201l0.155,0.201l0.154,0.202l0.153,0.202l0.153,0.203l0.153,0.203l0.151,0.204l0.151,0.204l0.151,0.204l0.15,0.205l0.149,0.206l0.149,0.205l0.148,0.207l0.147,0.207l0.147,0.207l0.147,0.208l0.145,0.208l0.145,0.209l0.145,0.209l0.144,0.209l0.143,0.21l0.143,0.211l0.142,0.211l0.141,0.211l0.141,0.212l0.14,0.212l0.14,0.213l0.138,0.213l0.139,0.214l0.137,0.214l0.137,0.214l0.137,0.215l0.136,0.216l0.135,0.215l0.134,0.217l0.134,0.216l0.133,0.217l0.133,0.218l0.132,0.218l0.131,0.218l0.131,0.219l0.13,0.219l0.13,0.22l0.128,0.22l0.128,0.221l0.128,0.221l0.127,0.221l0.126,0.222l0.125,0.222l0.125,0.223l0.125,0.223l0.123,0.223l0.123,0.224l0.122,0.224l0.122,0.225l0.121,0.225l0.12,0.225l0.12,0.226l0.119,0.227l0.118,0.226l0.118,0.227l0.117,0.228l0.116,0.228l0.115,0.228l0.115,0.229l0.115,0.229l0.113,0.229l0.113,0.23l0.112,0.23l0.112,0.231l0.111,0.231l0.11,0.231l0.11,0.232l0.108,0.232l0.109,0.233l0.107,0.233l0.107,0.233l0.106,0.234l0.105,0.234l0.105,0.235l0.104,0.234l0.104,0.236l0.102,0.235l0.102,0.236l0.101,0.236l0.101,0.237l0.1,0.237l0.099,0.238l0.098,0.237l0.098,0.239l0.097,0.238l0.097,0.239l0.095,0.239l0.095,0.24l0.094,0.24l0.094,0.24l0.093,0.241l0.092,0.241l0.091,0.241l0.091,0.242l0.09,0.242l0.089,0.242l0.088,0.243l0.088,0.243l0.087,0.244l0.086,0.243l0.086,0.245l0.085,0.244l0.084,0.245l0.083,0.245l0.083,0.245l0.082,0.246l0.081,0.246l0.081,0.247l0.079,0.247l0.079,0.247l0.079,0.247l0.077,0.248l0.077,0.248l0.076,0.249l0.075,0.248l0.075,0.25l0.074,0.249l0.073,0.25l0.072,0.25l0.072,0.25l0.07,0.251l0.07,0.251l0.07,0.251l0.068,0.252l0.068,0.252l0.067,0.252l0.066,0.252l0.066,0.253l0.065,0.253l0.063,0.254l0.064,0.254l0.062,0.254l0.062,0.254l0.061,0.255l0.06,0.255l0.059,0.255l0.059,0.256l0.058,0.255l0.057,0.257l0.056,0.256l0.055,0.257l0.055,0.257l0.054,0.257l0.053,0.258l0.053,0.257l0.051,0.259l0.051,0.258l0.05,0.259l0.049,0.259l0.049,0.259l0.047,0.259l0.047,0.26l0.046,0.26l0.046,0.261l0.044,0.26l0.044,0.261l0.043,0.261l0.042,0.262l0.041,0.262l0.04,0.262l0.04,0.262l0.039,0.262l0.038,0.263l0.037,0.263l0.037,0.263l0.035,0.264l0.035,0.264l0.034,0.264l0.033,0.264l0.033,0.264l0.031,0.265l0.031,0.265l0.03,0.265l0.029,0.266l0.028,0.266l0.028,0.266l0.026,0.266l0.026,0.267l0.025,0.266l0.024,0.267l0.024,0.268l0.022,0.267l0.022,0.268l0.021,0.268l0.02,0.268l0.019,0.268l0.018,0.269l0.018,0.269l0.016,0.269l0.016,0.269l0.015,0.269l0.014,0.27l0.013,0.27l0.013,0.27l0.011,0.271l0.011,0.27l0.01,0.271l0.009,0.271l0.008,0.271l0.008,0.272l0.006,0.272l0.006,0.272l0.004,0.272l0.004,0.272l0.003,0.272l0.002,0.273l0.002,0.273l0,0.273l0,0.273l-0.002,0.273l-0.002,0.273l-0.003,0.273l-0.004,0.272l-0.004,0.272l-0.006,0.272l-0.006,0.272l-0.008,0.271l-0.008,0.271l-0.009,0.271l-0.01,0.271l-0.011,0.271l-0.011,0.27l-0.013,0.27l-0.013,0.27l-0.014,0.27l-0.015,0.27l-0.016,0.269l-0.016,0.269l-0.018,0.269l-0.018,0.268l-0.019,0.269l-0.02,0.268l-0.021,0.268l-0.022,0.268l-0.022,0.267l-0.024,0.267l-0.024,0.267l-0.025,0.267l-0.026,0.266l-0.026,0.267l-0.028,0.266l-0.028,0.266l-0.029,0.265l-0.03,0.265l-0.031,0.265l-0.031,0.265l-0.033,0.265l-0.033,0.264l-0.034,0.264l-0.035,0.264l-0.035,0.263l-0.037,0.264l-0.037,0.263l-0.038,0.262l-0.039,0.263l-0.04,0.262l-0.04,0.262l-0.041,0.262l-0.042,0.261l-0.043,0.261l-0.044,0.261l-0.044,0.261l-0.046,0.26l-0.046,0.26l-0.047,0.26l-0.047,0.26l-0.049,0.259l-0.049,0.259l-0.05,0.259l-0.051,0.258l-0.051,0.258l-0.053,0.258l-0.053,0.258l-0.054,0.257l-0.055,0.257l-0.055,0.257l-0.056,0.256l-0.057,0.256l-0.058,0.256l-0.059,0.256l-0.059,0.255l-0.06,0.255l-0.061,0.254l-0.062,0.255l-0.062,0.254l-0.064,0.254l-0.063,0.253l-0.065,0.253l-0.066,0.253l-0.066,0.253l-0.067,0.252l-0.068,0.252l-0.068,0.251l-0.07,0.252l-0.07,0.251l-0.07,0.25l-0.072,0.251l-0.072,0.25l-0.073,0.25l-0.074,0.249l-0.075,0.249l-0.075,0.249l-0.076,0.248l-0.077,0.248l-0.077,0.248l-0.079,0.248l-0.079,0.247l-0.079,0.247l-0.081,0.246l-0.081,0.246l-0.082,0.246l-0.083,0.246l-0.083,0.245l-0.084,0.245l-0.085,0.244l-0.086,0.244l-0.086,0.244l-0.087,0.243l-0.088,0.244l-0.088,0.242l-0.089,0.243l-0.09,0.242l-0.091,0.241l-0.091,0.242l-0.092,0.241l-0.093,0.241l-0.094,0.24l-0.094,0.24l-0.095,0.239l-0.095,0.24l-0.097,0.238l-0.097,0.239l-0.098,0.238l-0.098,0.238l-0.099,0.237l-0.1,0.237l-0.101,0.237l-0.101,0.236l-0.102,0.236l-0.102,0.236l-0.104,0.235l-0.104,0.235l-0.105,0.234l-0.105,0.235l-0.106,0.233l-0.107,0.234l-0.107,0.233l-0.109,0.232l-0.108,0.232l-0.11,0.232l-0.11,0.232l-0.111,0.231l-0.112,0.23l-0.112,0.23l-0.113,0.23l-0.113,0.23l-0.115,0.229l-0.115,0.229l-0.115,0.228l-0.116,0.228l-0.117,0.227l-0.118,0.227l-0.118,0.227l-0.119,0.226l-0.12,0.226l-0.12,0.226l-0.121,0.225l-0.122,0.224l-0.122,0.225l-0.123,0.223l-0.123,0.224l-0.125,0.223l-0.125,0.223l-0.125,0.222l-0.126,0.222l-0.127,0.221l-0.128,0.221l-0.128,0.22l-0.128,0.22l-0.13,0.22l-0.13,0.219l-0.131,0.219l-0.131,0.219l-0.132,0.218l-0.133,0.217l-0.133,0.217l-0.134,0.217l-0.134,0.216l-0.135,0.216l-0.136,0.215l-0.137,0.215l-0.137,0.215l-0.137,0.214l-0.139,0.213l-0.138,0.214l-0.14,0.212l-0.14,0.213l-0.141,0.211l-0.141,0.212l-0.142,0.211l-0.143,0.21l-0.143,0.21l-0.144,0.21l-0.145,0.209l-0.145,0.209l-0.145,0.208l-0.147,0.208l-0.147,0.207l-0.147,0.207l-0.148,0.206l-0.149,0.206l-0.149,0.205l-0.15,0.205l-0.151,0.205l-0.151,0.204l-0.151,0.204l-0.153,0.203l-0.153,0.202l-0.153,0.202l-0.154,0.202l-0.155,0.201l-0.155,0.201l-0.156,0.2l-0.157,0.2l-0.157,0.199l-0.157,0.199l-0.158,0.199l-0.159,0.197l-0.16,0.198l-0.16,0.197l-0.16,0.196l-0.161,0.196l-0.162,0.195l-0.162,0.195l-0.163,0.194l-0.163,0.194l-0.164,0.194l-0.165,0.193l-0.165,0.192l-0.166,0.192l-0.166,0.191l-0.167,0.191l-0.167,0.191l-0.168,0.19l-0.168,0.189l-0.169,0.189l-0.17,0.188l-0.17,0.188l-0.171,0.187l-0.171,0.187l-0.172,0.187l-0.172,0.185l-0.173,0.186l-0.173,0.184l-0.174,0.185l-0.175,0.183l-0.175,0.183l-0.176,0.183l-0.176,0.182l-0.177,0.182l-0.177,0.181l-0.178,0.181l-0.178,0.18l-0.179,0.179l-0.179,0.179l-0.18,0.178l-0.181,0.178l-0.181,0.178l-0.181,0.176l-0.182,0.177l-0.183,0.175l-0.183,0.176l-0.183,0.174l-0.184,0.174l-0.185,0.174l-0.185,0.173l-0.186,0.172l-0.186,0.172l-0.187,0.172l-0.187,0.17l-0.188,0.171l-0.188,0.169l-0.189,0.169l-0.189,0.169l-0.19,0.168l-0.19,0.167l-0.191,0.167l-0.191,0.167l-0.192,0.165l-0.192,0.166l-0.193,0.164l-0.193,0.164l-0.194,0.164l-0.194,0.163l-0.195,0.162l-0.196,0.162l-0.195,0.161l-0.197,0.161l-0.196,0.16l-0.198,0.159l-0.197,0.159l-0.198,0.158l-0.199,0.158l-0.199,0.157l-0.2,0.157l-0.2,0.156l-0.201,0.155l-0.201,0.155l-0.201,0.154l-0.202,0.154l-0.203,0.153l-0.203,0.152l-0.203,0.152l-0.204,0.151l-0.205,0.151l-0.205,0.15l-0.205,0.149l-0.206,0.149l-0.206,0.148l-0.207,0.148l-0.207,0.147l-0.207,0.146l-0.209,0.146l-0.208,0.145l-0.209,0.144l-0.21,0.144l-0.209,0.144l-0.211,0.142l-0.211,0.143l-0.211,0.141l-0.212,0.141l-0.212,0.14l-0.212,0.14l-0.213,0.139l-0.214,0.138l-0.214,0.138l-0.214,0.137l-0.215,0.136l-0.215,0.136l-0.216,0.136l-0.216,0.134l-0.217,0.134l-0.217,0.133l-0.217,0.133l-0.218,0.132l-0.218,0.132l-0.219,0.13l-0.219,0.13l-0.22,0.13l-0.219,0.129l-0.221,0.128l-0.221,0.128l-0.221,0.126l-0.222,0.127l-0.222,0.125l-0.222,0.125l-0.223,0.125l-0.223,0.123l-0.224,0.123l-0.224,0.123l-0.225,0.121l-0.225,0.121l-0.225,0.121l-0.226,0.119l-0.226,0.119l-0.226,0.119l-0.227,0.117l-0.228,0.117l-0.228,0.117l-0.228,0.115l-0.228,0.115l-0.229,0.115l-0.229,0.113l-0.23,0.113l-0.23,0.113l-0.231,0.111l-0.231,0.111l-0.231,0.111l-0.232,0.109l-0.232,0.109l-0.232,0.108l-0.233,0.108l-0.233,0.107l-0.234,0.106l-0.234,0.105l-0.234,0.105l-0.235,0.104l-0.235,0.104l-0.235,0.102l-0.236,0.102l-0.236,0.102l-0.237,0.1l-0.237,0.1l-0.237,0.099l-0.238,0.099l-0.238,0.098l-0.238,0.097l-0.239,0.096l-0.239,0.096l-0.239,0.095l-0.24,0.094l-0.24,0.094l-0.241,0.092l-0.241,0.093l-0.241,0.091l-0.242,0.091l-0.241,0.09l-0.243,0.089l-0.242,0.088l-0.243,0.088l-0.244,0.087l-0.243,0.087l-0.244,0.085l-0.245,0.085l-0.244,0.084l-0.245,0.084l-0.246,0.083l-0.245,0.082l-0.246,0.081l-0.247,0.08l-0.246,0.08l-0.247,0.079l-0.248,0.079l-0.247,0.077l-0.248,0.077l-0.249,0.076l-0.248,0.075l-0.249,0.075l-0.249,0.074l-0.25,0.073l-0.25,0.072l-0.25,0.072l-0.251,0.071l-0.251,0.07l-0.251,0.069l-0.251,0.069l-0.252,0.067l-0.252,0.068l-0.253,0.066l-0.252,0.065l-0.253,0.065l-0.254,0.064l-0.253,0.063l-0.254,0.063l-0.254,0.062l-0.255,0.061l-0.255,0.06l-0.255,0.059l-0.255,0.059l-0.256,0.058l-0.256,0.057l-0.256,0.056l-0.257,0.056l-0.257,0.054l-0.257,0.054l-0.257,0.053l-0.258,0.053l-0.258,0.051l-0.258,0.051l-0.259,0.05l-0.258,0.05l-0.26,0.048l-0.259,0.048l-0.26,0.047l-0.26,0.046l-0.26,0.045l-0.26,0.045l-0.261,0.043l-0.261,0.043l-0.261,0.042l-0.262,0.042l-0.262,0.04l-0.262,0.04l-0.262,0.039l-0.263,0.038l-0.262,0.037l-0.264,0.036l-0.263,0.036l-0.264,0.035l-0.263,0.034l-0.265,0.033l-0.264,0.033l-0.265,0.031l-0.264,0.031l-0.266,0.03l-0.265,0.029l-0.266,0.028l-0.265,0.028l-0.267,0.026l-0.266,0.026l-0.267,0.025l-0.266,0.024l-0.267,0.024l-0.268,0.022l-0.267,0.022l-0.268,0.021l-0.268,0.02l-0.268,0.019l-0.269,0.018l-0.268,0.018l-0.269,0.016l-0.269,0.016l-0.27,0.015l-0.269,0.014l-0.27,0.014l-0.27,0.012l-0.27,0.012l-0.271,0.01l-0.271,0.01l-0.27,0.009l-0.272,0.008l-0.271,0.008l-0.271,0.006l-0.272,0.006l-0.272,0.004l-0.272,0.004l-0.273,0.003l-0.272,0.003l-0.273,0.001l-0.273,0l-0.273,0l-0.273,-0.001l-0.272,-0.003l-0.273,-0.003l-0.272,-0.004l-0.272,-0.004l-0.271,-0.006l-0.272,-0.006l-0.271,-0.008l-0.271,-0.008l-0.271,-0.009l-0.271,-0.01l-0.27,-0.01l-0.271,-0.012l-0.27,-0.012l-0.27,-0.014l-0.269,-0.014l-0.269,-0.015l-0.27,-0.016l-0.269,-0.016l-0.268,-0.018l-0.269,-0.018l-0.268,-0.019l-0.268,-0.02l-0.268,-0.021l-0.267,-0.022l-0.267,-0.022l-0.268,-0.024l-0.266,-0.024l-0.267,-0.025l-0.266,-0.026l-0.266,-0.026l-0.266,-0.028l-0.266,-0.028l-0.265,-0.029l-0.265,-0.03l-0.265,-0.031l-0.265,-0.031l-0.264,-0.033l-0.264,-0.033l-0.264,-0.034l-0.264,-0.035l-0.263,-0.036l-0.263,-0.036l-0.263,-0.037l-0.263,-0.038l-0.262,-0.039l-0.262,-0.04l-0.262,-0.04l-0.262,-0.042l-0.261,-0.042l-0.261,-0.043l-0.261,-0.043l-0.26,-0.045l-0.26,-0.045l-0.26,-0.046l-0.26,-0.047l-0.259,-0.048l-0.259,-0.048l-0.259,-0.05l-0.259,-0.05l-0.258,-0.051l-0.258,-0.051l-0.258,-0.053l-0.257,-0.053l-0.257,-0.054l-0.257,-0.054l-0.257,-0.056l-0.256,-0.056l-0.256,-0.057l-0.256,-0.058l-0.255,-0.059l-0.255,-0.059l-0.255,-0.06l-0.255,-0.061l-0.254,-0.062l-0.254,-0.063l-0.253,-0.063l-0.254,-0.064l-0.253,-0.065l-0.252,-0.065l-0.253,-0.066l-0.252,-0.068l-0.252,-0.067l-0.251,-0.069l-0.251,-0.069l-0.251,-0.07l-0.251,-0.071l-0.25,-0.072l-0.25,-0.072l-0.249,-0.073l-0.25,-0.074l-0.249,-0.075l-0.248,-0.075l-0.249,-0.076l-0.248,-0.077l-0.247,-0.077l-0.248,-0.079l-0.247,-0.079l-0.246,-0.08l-0.247,-0.08l-0.246,-0.081l-0.245,-0.082l-0.246,-0.083l-0.245,-0.084l-0.244,-0.084l-0.245,-0.085l-0.244,-0.085l-0.243,-0.087l-0.244,-0.087l-0.242,-0.088l-0.243,-0.088l-0.242,-0.089l-0.242,-0.09l-0.242,-0.091l-0.241,-0.091l-0.241,-0.093l-0.24,-0.092l-0.241,-0.094l-0.239,-0.094l-0.24,-0.095l-0.239,-0.096l-0.239,-0.096l-0.238,-0.097l-0.238,-0.098l-0.238,-0.099l-0.237,-0.099l-0.237,-0.1l-0.237,-0.1l-0.236,-0.102l-0.236,-0.102l-0.235,-0.102l-0.235,-0.104l-0.235,-0.104l-0.234,-0.105l-0.234,-0.105l-0.234,-0.106l-0.233,-0.107l-0.233,-0.108l-0.232,-0.108l-0.232,-0.109l-0.232,-0.109l-0.231,-0.111l-0.231,-0.111l-0.231,-0.111l-0.23,-0.113l-0.229,-0.113l-0.23,-0.113l-0.229,-0.115l-0.228,-0.115l-0.228,-0.115l-0.228,-0.117l-0.227,-0.117l-0.227,-0.117l-0.227,-0.119l-0.226,-0.119l-0.226,-0.119l-0.225,-0.121l-0.225,-0.121l-0.225,-0.121l-0.224,-0.123l-0.224,-0.123l-0.223,-0.123l-0.223,-0.125l-0.222,-0.125l-0.222,-0.125l-0.222,-0.127l-0.221,-0.126l-0.221,-0.128l-0.22,-0.128l-0.22,-0.129l-0.22,-0.13l-0.219,-0.13l-0.219,-0.13l-0.218,-0.132l-0.218,-0.132l-0.217,-0.133l-0.217,-0.133l-0.217,-0.134l-0.216,-0.134l-0.216,-0.136l-0.215,-0.136l-0.215,-0.136l-0.214,-0.137l-0.214,-0.138l-0.213,-0.138l-0.213,-0.139l-0.213,-0.14l-0.212,-0.14l-0.212,-0.141l-0.211,-0.141l-0.211,-0.143l-0.21,-0.142l-0.21,-0.144l-0.21,-0.144l-0.209,-0.144l-0.208,-0.145l-0.208,-0.146l-0.208,-0.146l-0.207,-0.147l-0.207,-0.148l-0.206,-0.148l-0.206,-0.149l-0.205,-0.149l-0.205,-0.15l-0.205,-0.151l-0.204,-0.151l-0.203,-0.152l-0.203,-0.152l-0.202,-0.153l-0.202,-0.154l-0.202,-0.154l-0.201,-0.155l-0.201,-0.155l-0.2,-0.156l-0.2,-0.157l-0.199,-0.157l-0.198,-0.158l-0.199,-0.158l-0.197,-0.159l-0.198,-0.159l-0.196,-0.16l-0.197,-0.161l-0.195,-0.161l-0.196,-0.162l-0.194,-0.162l-0.195,-0.163l-0.193,-0.164l-0.194,-0.164l-0.193,-0.164l-0.192,-0.166l-0.192,-0.165l-0.191,-0.167l-0.191,-0.167l-0.19,-0.167l-0.19,-0.168l-0.189,-0.169l-0.189,-0.169l-0.188,-0.169l-0.188,-0.171l-0.187,-0.17l-0.187,-0.172l-0.186,-0.172l-0.186,-0.172l-0.185,-0.173l-0.184,-0.174l-0.185,-0.174l-0.183,-0.174l-0.183,-0.176l-0.183,-0.175l-0.182,-0.177l-0.181,-0.176l-0.181,-0.178l-0.181,-0.178l-0.18,-0.178l-0.179,-0.179l-0.179,-0.179l-0.178,-0.18l-0.178,-0.181l-0.177,-0.181l-0.177,-0.182l-0.176,-0.182l-0.176,-0.183l-0.175,-0.183l-0.174,-0.183l-0.174,-0.185l-0.174,-0.184l-0.173,-0.186l-0.172,-0.185l-0.172,-0.187l-0.171,-0.187l-0.171,-0.187l-0.17,-0.188l-0.17,-0.188l-0.169,-0.189l-0.168,-0.189l-0.168,-0.19l-0.167,-0.191l-0.167,-0.191l-0.166,-0.191l-0.166,-0.192l-0.165,-0.192l-0.165,-0.193l-0.164,-0.194l-0.163,-0.194l-0.163,-0.194l-0.162,-0.195l-0.162,-0.195l-0.161,-0.196l-0.16,-0.196l-0.16,-0.197l-0.16,-0.198l-0.158,-0.197l-0.159,-0.199l-0.157,-0.199l-0.157,-0.199l-0.157,-0.2l-0.156,-0.2l-0.155,-0.201l-0.155,-0.201l-0.154,-0.202l-0.153,-0.202l-0.153,-0.202l-0.152,-0.203l-0.152,-0.204l-0.151,-0.204l-0.151,-0.205l-0.15,-0.205l-0.149,-0.205l-0.149,-0.206l-0.148,-0.206l-0.147,-0.207l-0.147,-0.207l-0.147,-0.208l-0.145,-0.208l-0.145,-0.209l-0.145,-0.209l-0.144,-0.21l-0.143,-0.21l-0.143,-0.21l-0.142,-0.211l-0.141,-0.212l-0.141,-0.211l-0.14,-0.213l-0.139,-0.212l-0.139,-0.214l-0.139,-0.213l-0.137,-0.214l-0.137,-0.215l-0.137,-0.215l-0.136,-0.215l-0.135,-0.216l-0.134,-0.216l-0.134,-0.217l-0.133,-0.217l-0.133,-0.217l-0.132,-0.218l-0.131,-0.219l-0.131,-0.219l-0.13,-0.219l-0.129,-0.22l-0.129,-0.22l-0.128,-0.22l-0.128,-0.221l-0.127,-0.221l-0.126,-0.222l-0.125,-0.222l-0.125,-0.223l-0.124,-0.223l-0.124,-0.224l-0.123,-0.223l-0.122,-0.225l-0.122,-0.224l-0.121,-0.225l-0.12,-0.226l-0.12,-0.226l-0.119,-0.226l-0.118,-0.227l-0.117,-0.227l-0.117,-0.227l-0.117,-0.228l-0.115,-0.228l-0.115,-0.229l-0.115,-0.229l-0.113,-0.23l-0.113,-0.23l-0.112,-0.23l-0.112,-0.23l-0.111,-0.231l-0.11,-0.232l-0.11,-0.232l-0.108,-0.232l-0.109,-0.232l-0.107,-0.233l-0.107,-0.234l-0.106,-0.233l-0.105,-0.235l-0.105,-0.234l-0.104,-0.235l-0.103,-0.235l-0.103,-0.236l-0.102,-0.236l-0.101,-0.236l-0.101,-0.237l-0.1,-0.237l-0.099,-0.237l-0.098,-0.238l-0.098,-0.238l-0.097,-0.239l-0.096,-0.238l-0.096,-0.24l-0.095,-0.239l-0.094,-0.24l-0.094,-0.24l-0.092,-0.241l-0.093,-0.241l-0.091,-0.242l-0.091,-0.241l-0.089,-0.242l-0.09,-0.243l-0.088,-0.242l-0.088,-0.244l-0.087,-0.243l-0.086,-0.244l-0.086,-0.244l-0.085,-0.244l-0.084,-0.245l-0.083,-0.245l-0.083,-0.246l-0.082,-0.246l-0.081,-0.246l-0.081,-0.246l-0.079,-0.247l-0.079,-0.247l-0.079,-0.248l-0.077,-0.248l-0.077,-0.248l-0.076,-0.248l-0.075,-0.249l-0.075,-0.249l-0.073,-0.249l-0.074,-0.25l-0.072,-0.25l-0.071,-0.251l-0.071,-0.25l-0.07,-0.251l-0.07,-0.252l-0.068,-0.251l-0.068,-0.252l-0.067,-0.252l-0.066,-0.253l-0.066,-0.253l-0.064,-0.253l-0.064,-0.253l-0.064,-0.254l-0.062,-0.254l-0.062,-0.255l-0.061,-0.254l-0.06,-0.255l-0.059,-0.255l-0.059,-0.256l-0.058,-0.256l-0.057,-0.256l-0.056,-0.256l-0.055,-0.257l-0.055,-0.257l-0.054,-0.257l-0.053,-0.258l-0.053,-0.258l-0.051,-0.258l-0.051,-0.258l-0.05,-0.259l-0.049,-0.259l-0.049,-0.259l-0.047,-0.26l-0.047,-0.26l-0.046,-0.26l-0.045,-0.26l-0.045,-0.261l-0.044,-0.261l-0.042,-0.261l-0.043,-0.261l-0.041,-0.262l-0.04,-0.262l-0.04,-0.262l-0.039,-0.263l-0.038,-0.262l-0.037,-0.263l-0.037,-0.264l-0.035,-0.263l-0.035,-0.264l-0.034,-0.264l-0.033,-0.264l-0.033,-0.265l-0.031,-0.265l-0.031,-0.265l-0.03,-0.265l-0.029,-0.265l-0.028,-0.266l-0.028,-0.266l-0.026,-0.267l-0.026,-0.266l-0.025,-0.267l-0.024,-0.267l-0.024,-0.267l-0.022,-0.267l-0.022,-0.268l-0.021,-0.268l-0.02,-0.268l-0.019,-0.269l-0.018,-0.268l-0.018,-0.269l-0.016,-0.269l-0.016,-0.269l-0.015,-0.27l-0.014,-0.27l-0.013,-0.27l-0.013,-0.27l-0.011,-0.27l-0.011,-0.271l-0.01,-0.271l-0.009,-0.271l-0.008,-0.271l-0.007,-0.271l-0.007,-0.272l-0.005,-0.272l-0.005,-0.272l-0.004,-0.272l-0.003,-0.273l-0.002,-0.273l-0.002,-0.273l0,-0.273l0,-0.273l0.002,-0.273l0.002,-0.273l0.003,-0.272l0.004,-0.272l0.005,-0.272l0.005,-0.272l0.007,-0.272l0.007,-0.272l0.008,-0.271l0.009,-0.271l0.01,-0.271l0.011,-0.27l0.011,-0.271l0.013,-0.27l0.013,-0.27l0.014,-0.27l0.015,-0.269l0.016,-0.269l0.016,-0.269l0.018,-0.269l0.018,-0.269l0.019,-0.268l0.02,-0.268l0.021,-0.268l0.022,-0.268l0.022,-0.267l0.024,-0.268l0.024,-0.267l0.025,-0.266l0.026,-0.267l0.026,-0.266l0.028,-0.266l0.028,-0.266l0.029,-0.266l0.03,-0.265l0.031,-0.265l0.031,-0.265l0.033,-0.264l0.033,-0.264l0.034,-0.264l0.035,-0.264l0.035,-0.264l0.037,-0.263l0.037,-0.263l0.038,-0.263l0.039,-0.262l0.04,-0.262l0.04,-0.262l0.041,-0.262l0.043,-0.262l0.042,-0.261l0.044,-0.261l0.045,-0.26l0.045,-0.261l0.046,-0.26l0.047,-0.26l0.047,-0.259l0.049,-0.259l0.049,-0.259l0.05,-0.259l0.051,-0.258l0.051,-0.259l0.053,-0.257l0.053,-0.258l0.054,-0.257l0.055,-0.257l0.055,-0.257l0.056,-0.256l0.057,-0.257l0.058,-0.255l0.059,-0.256l0.059,-0.255l0.06,-0.255l0.061,-0.255l0.062,-0.254l0.062,-0.254l0.064,-0.254l0.064,-0.254l0.064,-0.253l0.066,-0.253l0.066,-0.252l0.067,-0.252l0.068,-0.252l0.068,-0.252l0.07,-0.251l0.07,-0.251l0.071,-0.251l0.071,-0.25l0.072,-0.25l0.074,-0.25l0.073,-0.249l0.075,-0.25l0.075,-0.248l0.076,-0.249l0.077,-0.248l0.077,-0.248l0.079,-0.247l0.079,-0.247l0.079,-0.247l0.081,-0.247l0.081,-0.246l0.082,-0.246l0.083,-0.245l0.083,-0.245l0.084,-0.245l0.085,-0.244l0.086,-0.245l0.086,-0.243l0.087,-0.244l0.088,-0.243l0.088,-0.243l0.09,-0.242l0.089,-0.242l0.091,-0.242l0.091,-0.241l0.093,-0.241l0.092,-0.241l0.094,-0.24l0.094,-0.24l0.095,-0.24l0.096,-0.239l0.096,-0.239l0.097,-0.238l0.098,-0.239l0.098,-0.237l0.099,-0.238l0.1,-0.237l0.101,-0.237l0.101,-0.236l0.102,-0.236l0.103,-0.235l0.103,-0.236l0.104,-0.234l0.105,-0.235l0.105,-0.234l0.106,-0.234l0.107,-0.233l0.107,-0.233l0.109,-0.233l0.108,-0.232l0.11,-0.232l0.11,-0.231l0.111,-0.231l0.112,-0.231l0.112,-0.23l0.113,-0.23l0.113,-0.229l0.115,-0.229l0.115,-0.229l0.115,-0.228l0.117,-0.228l0.117,-0.228l0.117,-0.227l0.118,-0.226l0.119,-0.227l0.12,-0.226l0.12,-0.225l0.121,-0.225l0.122,-0.225l0.122,-0.224l0.123,-0.224l0.124,-0.223l0.124,-0.223l0.125,-0.223l0.125,-0.222l0.126,-0.222l0.127,-0.221l0.128,-0.221l0.128,-0.221l0.129,-0.22l0.129,-0.22l0.13,-0.219l0.131,-0.219l0.131,-0.218l0.132,-0.218l0.133,-0.218l0.133,-0.217l0.134,-0.216l0.134,-0.217l0.135,-0.215l0.136,-0.216l0.137,-0.215l0.137,-0.214l0.137,-0.214l0.139,-0.214l0.139,-0.213l0.139,-0.213l0.14,-0.212l0.141,-0.212l0.141,-0.211l0.142,-0.211l0.143,-0.211l0.143,-0.21l0.144,-0.209l0.145,-0.209l0.145,-0.209l0.145,-0.208l0.147,-0.208l0.147,-0.207l0.147,-0.207l0.148,-0.207l0.149,-0.205l0.149,-0.206l0.15,-0.205l0.151,-0.204l0.151,-0.204l0.152,-0.204l0.152,-0.203l0.153,-0.203l0.153,-0.202l0.154,-0.202l0.155,-0.201l0.155,-0.201l0.156,-0.2l0.157,-0.2l0.157,-0.199l0.157,-0.199l0.159,-0.198l0.158,-0.198l0.16,-0.197l0.16,-0.197l0.16,-0.196l0.161,-0.196l0.162,-0.196l0.162,-0.195l0.163,-0.194l0.163,-0.194l0.164,-0.193l0.165,-0.193l0.165,-0.193l0.166,-0.191l0.166,-0.192l0.167,-0.191l0.167,-0.19l0.168,-0.19l0.168,-0.189l0.169,-0.189l0.17,-0.189l0.17,-0.187l0.171,-0.188l0.171,-0.187l0.172,-0.186l0.172,-0.186l0.173,-0.185l0.174,-0.185l0.174,-0.184l0.174,-0.184l0.175,-0.183l0.176,-0.183l0.176,-0.182l0.177,-0.181l0.177,-0.181l0.178,-0.181l0.178,-0.18l0.179,-0.179l0.179,-0.179l0.18,-0.179l0.181,-0.178l0.181,-0.177l0.181,-0.177l0.182,-0.176l0.183,-0.176l0.183,-0.175l0.183,-0.175l0.185,-0.174l0.184,-0.173l0.185,-0.173l0.186,-0.173l0.186,-0.172l0.187,-0.171l0.187,-0.171l0.188,-0.17l0.188,-0.17l0.189,-0.169l0.189,-0.168l0.19,-0.168l0.19,-0.168l0.191,-0.167l0.191,-0.166l0.192,-0.166l0.192,-0.165l0.193,-0.165l0.194,-0.164l0.193,-0.163l0.195,-0.163l0.194,-0.162l0.196,-0.162l0.195,-0.161l0.197,-0.161l0.196,-0.16l0.198,-0.16l0.197,-0.158l0.199,-0.159l0.198,-0.157l0.199,-0.158l0.2,-0.156l0.2,-0.156l0.201,-0.155l0.201,-0.155l0.202,-0.154l0.202,-0.154l0.202,-0.153l0.203,-0.152l0.203,-0.152l0.204,-0.151l0.205,-0.151l0.205,-0.15l0.205,-0.149l0.206,-0.149l0.206,-0.148l0.207,-0.148l0.207,-0.147l0.208,-0.146l0.208,-0.146l0.208,-0.145l0.209,-0.145l0.21,-0.144l0.21,-0.143l0.21,-0.143l0.211,-0.142l0.211,-0.141l0.212,-0.141l0.212,-0.141l0.213,-0.139l0.213,-0.139l0.213,-0.139l0.214,-0.137l0.214,-0.137l0.215,-0.137l0.215,-0.136l0.216,-0.135l0.216,-0.135l0.217,-0.134l0.217,-0.133l0.217,-0.133l0.218,-0.132l0.218,-0.131l0.219,-0.131l0.219,-0.13l0.22,-0.129l0.22,-0.129l0.22,-0.128l0.221,-0.128l0.221,-0.127l0.222,-0.126l0.222,-0.126l0.222,-0.125l0.223,-0.124l0.223,-0.124l0.224,-0.123l0.224,-0.122l0.225,-0.122l0.225,-0.121l0.225,-0.12l0.226,-0.12l0.226,-0.119l0.227,-0.118l0.227,-0.118l0.227,-0.117l0.228,-0.116l0.228,-0.116l0.228,-0.115l0.229,-0.114l0.23,-0.114l0.229,-0.113l0.23,-0.112l0.231,-0.112l0.231,-0.111l0.231,-0.11l0.232,-0.11l0.232,-0.109l0.232,-0.108l0.233,-0.107l0.233,-0.107l0.234,-0.106l0.234,-0.106l0.234,-0.105l0.235,-0.104l0.235,-0.103l0.235,-0.103l0.236,-0.102l0.236,-0.101l0.237,-0.101l0.237,-0.1l0.237,-0.099l0.238,-0.098l0.238,-0.098l0.238,-0.097l0.239,-0.097l0.239,-0.095l0.24,-0.095l0.239,-0.095l0.241,-0.093l0.24,-0.093l0.241,-0.092l0.241,-0.091l0.242,-0.091l0.242,-0.09l0.242,-0.089l0.243,-0.089l0.242,-0.088l0.244,-0.087l0.243,-0.086l0.244,-0.086l0.245,-0.085l0.244,-0.084l0.245,-0.083l0.246,-0.083l0.245,-0.082l0.246,-0.081l0.247,-0.081l0.246,-0.08l0.247,-0.079l0.248,-0.078l0.247,-0.078l0.248,-0.076l0.249,-0.076l0.248,-0.076l0.249,-0.074l0.25,-0.074l0.249,-0.073l0.25,-0.073l0.25,-0.071l0.251,-0.071l0.251,-0.07l0.251,-0.07l0.251,-0.068l0.252,-0.068l0.252,-0.067l0.253,-0.066l0.252,-0.066l0.253,-0.065l0.254,-0.064l0.253,-0.063l0.254,-0.062l0.254,-0.062l0.255,-0.061l0.255,-0.06l0.255,-0.06l0.255,-0.058l0.256,-0.058l0.256,-0.057l0.256,-0.056l0.257,-0.056l0.257,-0.055l0.257,-0.054l0.257,-0.053l0.258,-0.052l0.258,-0.052l0.258,-0.051l0.259,-0.05l0.259,-0.049l0.259,-0.049l0.259,-0.047l0.26,-0.047l0.26,-0.046l0.26,-0.045l0.26,-0.045l0.261,-0.044l0.261,-0.043l0.261,-0.042l0.262,-0.041l0.262,-0.04l0.262,-0.04l0.262,-0.039l0.263,-0.038l0.263,-0.037l0.263,-0.037l0.263,-0.036l0.264,-0.034l0.264,-0.034l0.264,-0.034l0.264,-0.032l0.265,-0.032l0.265,-0.03l0.265,-0.03l0.265,-0.029l0.266,-0.029l0.266,-0.027l0.266,-0.027l0.266,-0.026l0.267,-0.025l0.266,-0.024l0.268,-0.023l0.267,-0.023l0.267,-0.021l0.268,-0.021l0.268,-0.02l0.268,-0.019l0.269,-0.019l0.268,-0.017l0.269,-0.017l0.27,-0.016l0.269,-0.015l0.269,-0.014l0.27,-0.013l0.27,-0.012l0.271,-0.012l0.27,-0.011l0.271,-0.01l0.271,-0.009l0.271,-0.008l0.271,-0.007l0.272,-0.007l0.271,-0.005l0.272,-0.005l0.272,-0.004l0.273,-0.003l0.272,-0.002l0.273,-0.001l0.273,-0.001l0.273,0.001Zm-0.501,14l-0.229,0.001l-0.228,0.002l-0.228,0.002l-0.228,0.003l-0.227,0.004l-0.228,0.005l-0.227,0.005l-0.227,0.007l-0.226,0.006l-0.227,0.008l-0.226,0.008l-0.226,0.009l-0.226,0.01l-0.226,0.01l-0.225,0.011l-0.226,0.012l-0.225,0.013l-0.225,0.013l-0.224,0.014l-0.225,0.014l-0.224,0.016l-0.224,0.016l-0.224,0.016l-0.223,0.018l-0.224,0.018l-0.223,0.019l-0.223,0.019l-0.222,0.02l-0.223,0.021l-0.222,0.022l-0.222,0.022l-0.222,0.023l-0.222,0.023l-0.221,0.025l-0.221,0.025l-0.221,0.025l-0.221,0.027l-0.221,0.027l-0.22,0.027l-0.22,0.029l-0.22,0.029l-0.219,0.03l-0.22,0.03l-0.219,0.031l-0.219,0.032l-0.218,0.032l-0.219,0.033l-0.218,0.034l-0.218,0.035l-0.218,0.035l-0.218,0.035l-0.217,0.037l-0.217,0.037l-0.217,0.038l-0.216,0.038l-0.217,0.039l-0.216,0.04l-0.216,0.04l-0.215,0.041l-0.216,0.042l-0.215,0.042l-0.215,0.043l-0.215,0.044l-0.214,0.044l-0.214,0.045l-0.214,0.046l-0.214,0.046l-0.213,0.047l-0.214,0.048l-0.213,0.048l-0.212,0.049l-0.213,0.049l-0.212,0.05l-0.212,0.051l-0.212,0.051l-0.211,0.052l-0.211,0.053l-0.211,0.053l-0.211,0.054l-0.211,0.055l-0.21,0.055l-0.21,0.056l-0.209,0.056l-0.21,0.058l-0.209,0.057l-0.209,0.059l-0.208,0.059l-0.209,0.059l-0.208,0.061l-0.208,0.06l-0.207,0.062l-0.208,0.062l-0.207,0.063l-0.206,0.063l-0.207,0.064l-0.206,0.065l-0.206,0.065l-0.206,0.066l-0.205,0.066l-0.205,0.067l-0.205,0.068l-0.205,0.068l-0.204,0.069l-0.204,0.069l-0.204,0.071l-0.203,0.07l-0.204,0.072l-0.203,0.072l-0.202,0.072l-0.203,0.073l-0.202,0.074l-0.201,0.074l-0.202,0.075l-0.201,0.076l-0.201,0.076l-0.201,0.077l-0.2,0.077l-0.2,0.078l-0.2,0.078l-0.199,0.079l-0.199,0.08l-0.2,0.081l-0.198,0.08l-0.198,0.082l-0.198,0.082l-0.198,0.083l-0.197,0.083l-0.197,0.084l-0.197,0.084l-0.197,0.085l-0.196,0.086l-0.196,0.086l-0.195,0.086l-0.195,0.088l-0.196,0.088l-0.194,0.088l-0.194,0.089l-0.195,0.09l-0.193,0.09l-0.193,0.091l-0.194,0.091l-0.193,0.092l-0.192,0.093l-0.192,0.093l-0.192,0.093l-0.191,0.094l-0.191,0.095l-0.191,0.096l-0.191,0.095l-0.19,0.097l-0.19,0.097l-0.19,0.097l-0.189,0.098l-0.189,0.099l-0.188,0.1l-0.188,0.099l-0.188,0.1l-0.188,0.102l-0.187,0.101l-0.187,0.102l-0.186,0.102l-0.187,0.104l-0.186,0.103l-0.185,0.104l-0.185,0.105l-0.185,0.106l-0.185,0.105l-0.184,0.107l-0.184,0.107l-0.183,0.107l-0.184,0.108l-0.182,0.109l-0.183,0.109l-0.182,0.11l-0.182,0.11l-0.181,0.11l-0.181,0.112l-0.181,0.111l-0.18,0.113l-0.18,0.113l-0.18,0.113l-0.179,0.114l-0.179,0.114l-0.178,0.115l-0.178,0.116l-0.178,0.116l-0.178,0.116l-0.177,0.117l-0.176,0.118l-0.177,0.118l-0.176,0.118l-0.175,0.12l-0.176,0.119l-0.174,0.12l-0.175,0.121l-0.174,0.121l-0.174,0.122l-0.173,0.122l-0.173,0.123l-0.173,0.123l-0.172,0.124l-0.171,0.124l-0.172,0.125l-0.171,0.125l-0.171,0.126l-0.17,0.126l-0.17,0.127l-0.169,0.127l-0.17,0.128l-0.168,0.128l-0.168,0.129l-0.168,0.129l-0.168,0.13l-0.167,0.13l-0.167,0.131l-0.166,0.131l-0.166,0.132l-0.166,0.132l-0.165,0.133l-0.164,0.133l-0.165,0.133l-0.164,0.135l-0.163,0.134l-0.163,0.135l-0.163,0.136l-0.162,0.136l-0.162,0.137l-0.162,0.137l-0.161,0.137l-0.16,0.138l-0.16,0.138l-0.16,0.14l-0.16,0.139l-0.159,0.14l-0.158,0.14l-0.158,0.141l-0.158,0.141l-0.157,0.142l-0.157,0.142l-0.156,0.143l-0.157,0.143l-0.155,0.144l-0.155,0.144l-0.155,0.144l-0.154,0.145l-0.154,0.146l-0.153,0.146l-0.153,0.146l-0.153,0.147l-0.152,0.147l-0.152,0.148l-0.151,0.148l-0.151,0.149l-0.15,0.149l-0.15,0.149l-0.149,0.15l-0.149,0.151l-0.149,0.15l-0.148,0.151l-0.148,0.153l-0.147,0.152l-0.146,0.152l-0.147,0.153l-0.145,0.154l-0.146,0.154l-0.145,0.154l-0.144,0.155l-0.144,0.155l-0.144,0.156l-0.143,0.156l-0.142,0.156l-0.142,0.157l-0.142,0.157l-0.141,0.158l-0.141,0.159l-0.14,0.158l-0.14,0.159l-0.139,0.16l-0.139,0.16l-0.139,0.16l-0.138,0.161l-0.137,0.161l-0.137,0.161l-0.136,0.162l-0.136,0.163l-0.136,0.163l-0.135,0.163l-0.135,0.163l-0.134,0.164l-0.133,0.165l-0.133,0.165l-0.133,0.165l-0.132,0.166l-0.132,0.166l-0.131,0.166l-0.131,0.167l-0.13,0.167l-0.13,0.168l-0.129,0.168l-0.128,0.168l-0.129,0.169l-0.127,0.169l-0.127,0.17l-0.127,0.17l-0.127,0.17l-0.125,0.171l-0.125,0.171l-0.125,0.172l-0.124,0.172l-0.124,0.172l-0.123,0.173l-0.123,0.173l-0.122,0.173l-0.122,0.174l-0.121,0.174l-0.12,0.175l-0.12,0.175l-0.12,0.175l-0.119,0.176l-0.118,0.176l-0.119,0.177l-0.117,0.176l-0.117,0.177l-0.117,0.178l-0.115,0.178l-0.116,0.178l-0.115,0.179l-0.114,0.179l-0.114,0.179l-0.113,0.18l-0.113,0.18l-0.112,0.181l-0.112,0.181l-0.111,0.18l-0.111,0.182l-0.11,0.182l-0.11,0.182l-0.109,0.183l-0.108,0.183l-0.108,0.183l-0.108,0.184l-0.107,0.184l-0.106,0.184l-0.106,0.185l-0.105,0.185l-0.105,0.185l-0.104,0.186l-0.103,0.186l-0.103,0.186l-0.103,0.187l-0.102,0.187l-0.101,0.187l-0.101,0.188l-0.1,0.188l-0.1,0.188l-0.1,0.189l-0.098,0.189l-0.098,0.189l-0.098,0.19l-0.097,0.19l-0.096,0.191l-0.096,0.19l-0.095,0.191l-0.095,0.191l-0.094,0.192l-0.094,0.192l-0.093,0.192l-0.092,0.193l-0.092,0.193l-0.091,0.193l-0.091,0.194l-0.09,0.194l-0.09,0.194l-0.089,0.194l-0.088,0.195l-0.088,0.195l-0.088,0.196l-0.086,0.195l-0.086,0.196l-0.086,0.197l-0.085,0.196l-0.084,0.198l-0.084,0.197l-0.083,0.197l-0.083,0.198l-0.082,0.198l-0.081,0.198l-0.081,0.199l-0.08,0.199l-0.08,0.2l-0.079,0.199l-0.079,0.2l-0.078,0.201l-0.077,0.2l-0.077,0.201l-0.076,0.201l-0.075,0.201l-0.075,0.202l-0.075,0.202l-0.073,0.202l-0.073,0.203l-0.073,0.202l-0.072,0.204l-0.071,0.203l-0.071,0.204l-0.07,0.204l-0.069,0.204l-0.069,0.204l-0.068,0.205l-0.068,0.205l-0.067,0.205l-0.067,0.206l-0.065,0.206l-0.066,0.206l-0.064,0.206l-0.064,0.207l-0.063,0.207l-0.063,0.207l-0.062,0.207l-0.062,0.208l-0.061,0.209l-0.06,0.208l-0.059,0.208l-0.059,0.209l-0.059,0.209l-0.057,0.21l-0.058,0.209l-0.056,0.21l-0.056,0.21l-0.055,0.21l-0.055,0.211l-0.053,0.211l-0.054,0.211l-0.052,0.212l-0.052,0.211l-0.052,0.212l-0.051,0.212l-0.05,0.213l-0.049,0.212l-0.049,0.213l-0.048,0.214l-0.048,0.213l-0.047,0.213l-0.046,0.214l-0.045,0.214l-0.045,0.215l-0.045,0.215l-0.043,0.215l-0.043,0.214l-0.043,0.216l-0.041,0.216l-0.041,0.216l-0.041,0.216l-0.039,0.216l-0.04,0.217l-0.038,0.216l-0.038,0.217l-0.037,0.218l-0.036,0.217l-0.036,0.218l-0.035,0.218l-0.034,0.218l-0.034,0.219l-0.033,0.218l-0.033,0.219l-0.031,0.219l-0.031,0.22l-0.031,0.219l-0.029,0.22l-0.03,0.22l-0.028,0.22l-0.028,0.221l-0.027,0.22l-0.026,0.221l-0.026,0.222l-0.025,0.221l-0.024,0.221l-0.024,0.222l-0.022,0.222l-0.023,0.223l-0.021,0.222l-0.021,0.223l-0.02,0.223l-0.02,0.223l-0.018,0.223l-0.019,0.224l-0.017,0.223l-0.017,0.224l-0.016,0.225l-0.015,0.224l-0.015,0.225l-0.013,0.224l-0.014,0.226l-0.012,0.225l-0.012,0.225l-0.011,0.226l-0.01,0.226l-0.01,0.226l-0.009,0.226l-0.008,0.227l-0.008,0.227l-0.007,0.227l-0.006,0.227l-0.005,0.227l-0.005,0.228l-0.004,0.228l-0.003,0.228l-0.003,0.228l-0.002,0.228l-0.001,0.229l0,0.228l0,0.229l0.001,0.229l0.002,0.228l0.003,0.228l0.003,0.228l0.004,0.228l0.005,0.227l0.005,0.228l0.006,0.227l0.007,0.227l0.008,0.227l0.008,0.226l0.009,0.226l0.01,0.226l0.01,0.226l0.011,0.226l0.012,0.225l0.012,0.226l0.014,0.225l0.013,0.225l0.015,0.224l0.015,0.225l0.016,0.224l0.017,0.224l0.017,0.224l0.019,0.223l0.018,0.224l0.02,0.223l0.02,0.223l0.021,0.222l0.021,0.223l0.023,0.222l0.022,0.222l0.024,0.222l0.024,0.222l0.025,0.221l0.026,0.222l0.026,0.22l0.027,0.221l0.028,0.221l0.028,0.22l0.029,0.22l0.03,0.219l0.031,0.22l0.031,0.22l0.031,0.219l0.033,0.219l0.033,0.218l0.034,0.219l0.034,0.218l0.035,0.218l0.036,0.217l0.036,0.218l0.037,0.217l0.038,0.218l0.038,0.216l0.04,0.217l0.039,0.216l0.041,0.216l0.041,0.216l0.041,0.216l0.043,0.215l0.043,0.215l0.043,0.215l0.045,0.214l0.045,0.215l0.045,0.214l0.046,0.214l0.047,0.213l0.048,0.214l0.048,0.213l0.049,0.214l0.049,0.212l0.05,0.212l0.051,0.212l0.052,0.212l0.052,0.212l0.052,0.211l0.054,0.212l0.053,0.21l0.055,0.211l0.055,0.21l0.056,0.211l0.057,0.209l0.057,0.21l0.057,0.209l0.059,0.21l0.059,0.209l0.059,0.208l0.06,0.208l0.061,0.208l0.062,0.208l0.062,0.207l0.063,0.207l0.063,0.208l0.064,0.206l0.064,0.207l0.066,0.206l0.065,0.206l0.067,0.205l0.067,0.205l0.068,0.206l0.068,0.205l0.069,0.204l0.069,0.204l0.07,0.204l0.071,0.204l0.071,0.203l0.072,0.203l0.073,0.203l0.073,0.203l0.073,0.202l0.075,0.202l0.075,0.202l0.075,0.201l0.076,0.201l0.077,0.201l0.077,0.2l0.078,0.2l0.079,0.2l0.079,0.2l0.08,0.199l0.08,0.2l0.081,0.198l0.081,0.198l0.082,0.199l0.083,0.198l0.083,0.197l0.084,0.197l0.084,0.197l0.085,0.197l0.086,0.196l0.086,0.196l0.086,0.196l0.088,0.195l0.088,0.195l0.088,0.195l0.089,0.195l0.09,0.194l0.09,0.194l0.091,0.194l0.091,0.193l0.092,0.193l0.092,0.192l0.093,0.192l0.094,0.192l0.094,0.192l0.095,0.191l0.095,0.191l0.096,0.191l0.096,0.19l0.097,0.19l0.098,0.19l0.098,0.19l0.098,0.188l0.1,0.189l0.1,0.189l0.1,0.188l0.101,0.187l0.101,0.188l0.102,0.187l0.103,0.187l0.103,0.186l0.103,0.186l0.105,0.186l0.104,0.185l0.105,0.185l0.106,0.185l0.107,0.184l0.106,0.184l0.108,0.183l0.108,0.184l0.108,0.183l0.109,0.183l0.11,0.182l0.11,0.181l0.111,0.182l0.111,0.181l0.112,0.181l0.112,0.18l0.112,0.18l0.114,0.18l0.114,0.18l0.114,0.179l0.115,0.178l0.115,0.178l0.116,0.178l0.117,0.178l0.117,0.177l0.117,0.177l0.119,0.177l0.118,0.176l0.119,0.175l0.12,0.176l0.12,0.174l0.12,0.175l0.121,0.174l0.122,0.174l0.122,0.174l0.123,0.173l0.123,0.173l0.124,0.172l0.124,0.172l0.125,0.172l0.125,0.171l0.125,0.17l0.127,0.171l0.127,0.17l0.127,0.169l0.127,0.169l0.129,0.169l0.128,0.169l0.129,0.168l0.13,0.167l0.13,0.168l0.131,0.166l0.131,0.167l0.132,0.166l0.132,0.166l0.133,0.165l0.132,0.165l0.134,0.164l0.135,0.164l0.134,0.164l0.135,0.163l0.136,0.163l0.136,0.162l0.136,0.162l0.137,0.162l0.137,0.161l0.138,0.16l0.139,0.161l0.139,0.16l0.139,0.159l0.14,0.159l0.14,0.159l0.141,0.158l0.141,0.158l0.142,0.157l0.142,0.157l0.142,0.157l0.144,0.156l0.143,0.155l0.144,0.156l0.144,0.155l0.145,0.154l0.146,0.154l0.145,0.153l0.147,0.154l0.147,0.152l0.146,0.152l0.149,0.152l0.147,0.151l0.149,0.151l0.149,0.15l0.149,0.15l0.15,0.15l0.151,0.149l0.15,0.149l0.151,0.148l0.152,0.147l0.152,0.148l0.153,0.146l0.153,0.147l0.153,0.146l0.154,0.145l0.154,0.145l0.155,0.145l0.155,0.144l0.156,0.143l0.156,0.144l0.156,0.142l0.157,0.142l0.157,0.142l0.158,0.141l0.158,0.141l0.158,0.141l0.159,0.139l0.16,0.14l0.16,0.139l0.16,0.138l0.16,0.138l0.161,0.138l0.162,0.137l0.162,0.137l0.162,0.136l0.163,0.135l0.163,0.135l0.163,0.135l0.164,0.134l0.165,0.134l0.164,0.133l0.166,0.133l0.165,0.132l0.166,0.132l0.166,0.131l0.167,0.131l0.167,0.13l0.167,0.129l0.169,0.13l0.168,0.128l0.168,0.129l0.17,0.128l0.169,0.127l0.17,0.127l0.17,0.126l0.171,0.125l0.171,0.126l0.172,0.125l0.171,0.124l0.173,0.124l0.172,0.123l0.173,0.123l0.173,0.122l0.174,0.121l0.174,0.121l0.175,0.121l0.175,0.12l0.175,0.12l0.175,0.119l0.176,0.119l0.176,0.118l0.178,0.118l0.176,0.116l0.178,0.117l0.178,0.116l0.178,0.115l0.178,0.115l0.179,0.115l0.179,0.114l0.18,0.113l0.18,0.113l0.18,0.112l0.181,0.112l0.181,0.111l0.181,0.111l0.182,0.11l0.182,0.11l0.183,0.109l0.182,0.108l0.184,0.108l0.183,0.108l0.184,0.107l0.184,0.106l0.185,0.106l0.185,0.105l0.185,0.105l0.185,0.104l0.186,0.104l0.186,0.103l0.187,0.103l0.187,0.101l0.187,0.102l0.188,0.101l0.188,0.1l0.188,0.1l0.188,0.099l0.189,0.099l0.19,0.098l0.189,0.098l0.19,0.097l0.19,0.096l0.191,0.096l0.191,0.095l0.191,0.095l0.191,0.094l0.192,0.094l0.192,0.093l0.193,0.092l0.192,0.092l0.193,0.092l0.194,0.091l0.194,0.09l0.194,0.089l0.193,0.089l0.195,0.089l0.196,0.088l0.195,0.087l0.195,0.087l0.196,0.086l0.196,0.085l0.197,0.085l0.197,0.085l0.197,0.084l0.197,0.083l0.198,0.083l0.198,0.082l0.198,0.081l0.198,0.081l0.199,0.08l0.2,0.08l0.199,0.079l0.199,0.078l0.201,0.079l0.2,0.077l0.201,0.077l0.201,0.076l0.201,0.075l0.202,0.075l0.201,0.074l0.203,0.074l0.202,0.074l0.202,0.072l0.203,0.072l0.204,0.071l0.203,0.071l0.204,0.07l0.204,0.07l0.204,0.069l0.205,0.068l0.205,0.067l0.205,0.067l0.205,0.067l0.206,0.066l0.206,0.065l0.206,0.065l0.206,0.063l0.207,0.064l0.208,0.063l0.207,0.062l0.207,0.061l0.208,0.061l0.209,0.06l0.208,0.06l0.208,0.059l0.209,0.058l0.209,0.058l0.21,0.057l0.209,0.057l0.21,0.055l0.211,0.056l0.21,0.054l0.21,0.054l0.211,0.053l0.212,0.053l0.212,0.052l0.211,0.052l0.212,0.05l0.212,0.051l0.213,0.049l0.212,0.049l0.213,0.048l0.214,0.048l0.213,0.046l0.214,0.047l0.214,0.045l0.214,0.045l0.214,0.045l0.215,0.043l0.215,0.043l0.215,0.043l0.215,0.041l0.216,0.041l0.216,0.041l0.216,0.039l0.217,0.039l0.216,0.039l0.217,0.038l0.217,0.037l0.217,0.036l0.218,0.036l0.218,0.035l0.218,0.034l0.218,0.034l0.219,0.033l0.218,0.033l0.219,0.031l0.219,0.032l0.22,0.03l0.219,0.03l0.22,0.029l0.22,0.028l0.22,0.028l0.221,0.027l0.221,0.026l0.221,0.026l0.221,0.025l0.221,0.024l0.222,0.024l0.222,0.023l0.222,0.022l0.222,0.021l0.222,0.021l0.223,0.02l0.223,0.02l0.224,0.019l0.223,0.018l0.223,0.017l0.224,0.017l0.224,0.016l0.224,0.015l0.225,0.015l0.224,0.014l0.225,0.013l0.225,0.012l0.226,0.012l0.225,0.011l0.226,0.011l0.226,0.009l0.225,0.009l0.227,0.009l0.227,0.007l0.226,0.007l0.227,0.006l0.227,0.006l0.228,0.004l0.228,0.004l0.227,0.003l0.228,0.003l0.228,0.002l0.229,0.001l0.228,0l0.229,0l0.228,-0.001l0.228,-0.002l0.228,-0.003l0.227,-0.003l0.228,-0.004l0.228,-0.004l0.227,-0.006l0.227,-0.006l0.226,-0.007l0.227,-0.007l0.227,-0.009l0.225,-0.009l0.226,-0.009l0.226,-0.011l0.226,-0.011l0.225,-0.012l0.225,-0.012l0.225,-0.013l0.224,-0.014l0.225,-0.015l0.224,-0.015l0.224,-0.016l0.224,-0.017l0.223,-0.017l0.223,-0.018l0.224,-0.019l0.223,-0.02l0.223,-0.02l0.222,-0.021l0.222,-0.021l0.222,-0.022l0.222,-0.023l0.222,-0.024l0.221,-0.024l0.221,-0.025l0.221,-0.026l0.221,-0.026l0.221,-0.027l0.22,-0.028l0.22,-0.028l0.22,-0.029l0.22,-0.03l0.219,-0.03l0.219,-0.032l0.219,-0.031l0.219,-0.033l0.218,-0.033l0.218,-0.034l0.218,-0.034l0.218,-0.035l0.218,-0.036l0.217,-0.036l0.217,-0.037l0.217,-0.038l0.217,-0.039l0.216,-0.039l0.216,-0.039l0.216,-0.041l0.216,-0.041l0.215,-0.041l0.215,-0.043l0.215,-0.043l0.215,-0.043l0.214,-0.045l0.214,-0.045l0.214,-0.045l0.214,-0.047l0.214,-0.046l0.213,-0.048l0.213,-0.048l0.212,-0.049l0.213,-0.049l0.212,-0.051l0.212,-0.05l0.212,-0.052l0.211,-0.052l0.212,-0.053l0.211,-0.053l0.21,-0.054l0.211,-0.054l0.21,-0.056l0.21,-0.055l0.209,-0.057l0.21,-0.057l0.209,-0.058l0.209,-0.058l0.208,-0.059l0.209,-0.06l0.208,-0.06l0.208,-0.061l0.208,-0.061l0.207,-0.062l0.207,-0.063l0.207,-0.064l0.206,-0.063l0.206,-0.065l0.206,-0.065l0.206,-0.066l0.205,-0.067l0.206,-0.067l0.205,-0.067l0.204,-0.068l0.204,-0.069l0.205,-0.07l0.203,-0.07l0.204,-0.071l0.203,-0.071l0.203,-0.072l0.202,-0.072l0.202,-0.074l0.203,-0.074l0.202,-0.074l0.201,-0.075l0.201,-0.075l0.201,-0.076l0.201,-0.077l0.2,-0.077l0.2,-0.078l0.2,-0.079l0.199,-0.079l0.2,-0.08l0.199,-0.08l0.198,-0.081l0.198,-0.081l0.198,-0.082l0.198,-0.083l0.198,-0.083l0.196,-0.084l0.197,-0.085l0.197,-0.085l0.196,-0.085l0.196,-0.086l0.195,-0.087l0.195,-0.087l0.196,-0.088l0.195,-0.089l0.193,-0.089l0.194,-0.089l0.194,-0.09l0.194,-0.091l0.193,-0.092l0.193,-0.092l0.192,-0.092l0.192,-0.093l0.192,-0.094l0.191,-0.094l0.191,-0.095l0.191,-0.095l0.191,-0.096l0.19,-0.096l0.19,-0.097l0.19,-0.098l0.189,-0.098l0.189,-0.099l0.188,-0.099l0.188,-0.1l0.188,-0.1l0.188,-0.101l0.187,-0.101l0.187,-0.102l0.187,-0.103l0.186,-0.103l0.186,-0.104l0.185,-0.104l0.186,-0.105l0.184,-0.105l0.185,-0.106l0.184,-0.106l0.184,-0.107l0.183,-0.108l0.184,-0.108l0.183,-0.108l0.182,-0.109l0.182,-0.11l0.182,-0.11l0.181,-0.111l0.181,-0.111l0.181,-0.112l0.18,-0.112l0.18,-0.113l0.18,-0.113l0.179,-0.114l0.179,-0.115l0.178,-0.114l0.179,-0.116l0.177,-0.116l0.178,-0.117l0.177,-0.116l0.177,-0.118l0.176,-0.118l0.176,-0.119l0.175,-0.119l0.175,-0.12l0.176,-0.12l0.174,-0.121l0.174,-0.121l0.174,-0.121l0.173,-0.122l0.173,-0.123l0.173,-0.123l0.172,-0.124l0.172,-0.125l0.171,-0.124l0.171,-0.126l0.171,-0.125l0.17,-0.127l0.17,-0.126l0.169,-0.127l0.17,-0.128l0.168,-0.129l0.168,-0.128l0.168,-0.13l0.168,-0.129l0.167,-0.131l0.167,-0.13l0.166,-0.131l0.166,-0.132l0.165,-0.132l0.166,-0.133l0.164,-0.133l0.165,-0.134l0.164,-0.134l0.163,-0.135l0.164,-0.135l0.162,-0.135l0.162,-0.136l0.163,-0.137l0.161,-0.137l0.161,-0.138l0.161,-0.138l0.159,-0.138l0.16,-0.139l0.16,-0.14l0.159,-0.139l0.158,-0.141l0.158,-0.14l0.158,-0.141l0.157,-0.142l0.157,-0.143l0.157,-0.143l0.155,-0.142l0.156,-0.144l0.156,-0.145l0.154,-0.144l0.154,-0.144l0.154,-0.147l0.154,-0.145l0.152,-0.146l0.153,-0.147l0.152,-0.148l0.152,-0.147l0.151,-0.148l0.15,-0.149l0.151,-0.149l0.15,-0.15l0.149,-0.15l0.149,-0.15l0.149,-0.151l0.148,-0.151l0.147,-0.152l0.148,-0.152l0.147,-0.153l0.146,-0.153l0.145,-0.153l0.146,-0.154l0.145,-0.154l0.144,-0.155l0.144,-0.155l0.144,-0.156l0.143,-0.156l0.142,-0.157l0.143,-0.157l0.141,-0.157l0.141,-0.158l0.141,-0.158l0.14,-0.158l0.14,-0.16l0.14,-0.159l0.139,-0.16l0.138,-0.161l0.138,-0.16l0.137,-0.161l0.137,-0.162l0.137,-0.162l0.136,-0.162l0.135,-0.163l0.135,-0.163l0.135,-0.164l0.134,-0.164l0.134,-0.164l0.133,-0.165l0.132,-0.165l0.132,-0.166l0.132,-0.166l0.131,-0.167l0.131,-0.166l0.13,-0.167l0.129,-0.168l0.13,-0.168l0.129,-0.169l0.128,-0.169l0.127,-0.169l0.128,-0.169l0.126,-0.17l0.127,-0.171l0.125,-0.171l0.125,-0.17l0.125,-0.172l0.124,-0.172l0.124,-0.173l0.123,-0.172l0.123,-0.173l0.122,-0.174l0.122,-0.174l0.121,-0.173l0.12,-0.175l0.12,-0.175l0.12,-0.176l0.119,-0.176l0.119,-0.175l0.117,-0.176l0.118,-0.178l0.117,-0.177l0.117,-0.178l0.116,-0.178l0.115,-0.178l0.115,-0.178l0.114,-0.179l0.114,-0.18l0.114,-0.18l0.113,-0.18l0.111,-0.18l0.112,-0.181l0.112,-0.181l0.11,-0.181l0.11,-0.182l0.11,-0.183l0.109,-0.182l0.108,-0.183l0.108,-0.184l0.108,-0.183l0.106,-0.184l0.107,-0.184l0.106,-0.185l0.105,-0.185l0.105,-0.185l0.104,-0.186l0.104,-0.186l0.103,-0.187l0.102,-0.186l0.102,-0.187l0.102,-0.188l0.1,-0.187l0.101,-0.189l0.1,-0.188l0.099,-0.188l0.098,-0.189l0.099,-0.19l0.097,-0.19l0.097,-0.189l0.096,-0.191l0.096,-0.191l0.096,-0.191l0.094,-0.19l0.094,-0.192l0.094,-0.193l0.093,-0.192l0.092,-0.192l0.092,-0.193l0.092,-0.194l0.09,-0.193l0.09,-0.194l0.09,-0.195l0.089,-0.194l0.088,-0.195l0.088,-0.195l0.088,-0.195l0.086,-0.196l0.086,-0.196l0.086,-0.196l0.085,-0.197l0.084,-0.197l0.084,-0.197l0.083,-0.198l0.083,-0.198l0.082,-0.197l0.081,-0.199l0.082,-0.199l0.079,-0.198l0.08,-0.2l0.079,-0.2l0.079,-0.2l0.078,-0.2l0.077,-0.2l0.077,-0.201l0.076,-0.201l0.075,-0.202l0.076,-0.202l0.074,-0.201l0.073,-0.202l0.073,-0.203l0.073,-0.203l0.072,-0.203l0.071,-0.204l0.071,-0.203l0.07,-0.204l0.069,-0.204l0.069,-0.204l0.068,-0.205l0.068,-0.206l0.067,-0.205l0.067,-0.206l0.065,-0.205l0.066,-0.206l0.064,-0.207l0.064,-0.206l0.063,-0.207l0.063,-0.208l0.062,-0.207l0.062,-0.208l0.061,-0.208l0.06,-0.208l0.06,-0.209l0.059,-0.209l0.058,-0.209l0.057,-0.209l0.058,-0.209l0.056,-0.211l0.056,-0.21l0.055,-0.21l0.055,-0.21l0.054,-0.212l0.053,-0.211l0.052,-0.211l0.053,-0.212l0.051,-0.211l0.051,-0.213l0.05,-0.213l0.049,-0.211l0.049,-0.213l0.048,-0.214l0.048,-0.214l0.047,-0.212l0.046,-0.215l0.046,-0.214l0.045,-0.215l0.044,-0.215l0.043,-0.214l0.043,-0.215l0.043,-0.216l0.041,-0.215l0.041,-0.216l0.041,-0.217l0.04,-0.215l0.039,-0.217l0.038,-0.217l0.038,-0.217l0.037,-0.216l0.036,-0.218l0.036,-0.218l0.035,-0.219l0.034,-0.217l0.034,-0.219l0.033,-0.219l0.033,-0.219l0.031,-0.219l0.032,-0.219l0.03,-0.219l0.03,-0.221l0.029,-0.22l0.028,-0.219l0.028,-0.221l0.027,-0.22l0.026,-0.222l0.026,-0.221l0.025,-0.221l0.024,-0.222l0.024,-0.222l0.023,-0.222l0.022,-0.222l0.021,-0.223l0.021,-0.222l0.02,-0.224l0.02,-0.222l0.019,-0.223l0.018,-0.224l0.017,-0.224l0.017,-0.225l0.016,-0.224l0.015,-0.223l0.015,-0.225l0.014,-0.225l0.013,-0.225l0.012,-0.226l0.012,-0.225l0.011,-0.225l0.011,-0.227l0.009,-0.226l0.009,-0.226l0.008,-0.226l0.008,-0.227l0.007,-0.227l0.006,-0.227l0.005,-0.228l0.005,-0.228l0.004,-0.227l0.003,-0.228l0.003,-0.228l0.002,-0.229l0.001,-0.228l0,-0.229l0,-0.228l-0.001,-0.229l-0.002,-0.228l-0.003,-0.229l-0.003,-0.228l-0.004,-0.227l-0.005,-0.227l-0.005,-0.228l-0.006,-0.227l-0.007,-0.227l-0.008,-0.227l-0.008,-0.227l-0.009,-0.225l-0.009,-0.227l-0.011,-0.226l-0.011,-0.225l-0.012,-0.226l-0.012,-0.225l-0.013,-0.225l-0.014,-0.226l-0.015,-0.224l-0.015,-0.224l-0.016,-0.224l-0.017,-0.224l-0.017,-0.225l-0.018,-0.224l-0.019,-0.222l-0.02,-0.223l-0.02,-0.223l-0.021,-0.223l-0.021,-0.222l-0.022,-0.223l-0.023,-0.222l-0.024,-0.221l-0.024,-0.223l-0.025,-0.221l-0.026,-0.221l-0.026,-0.221l-0.027,-0.22l-0.028,-0.221l-0.028,-0.22l-0.029,-0.22l-0.03,-0.221l-0.03,-0.218l-0.032,-0.22l-0.031,-0.219l-0.033,-0.219l-0.033,-0.219l-0.034,-0.218l-0.034,-0.218l-0.035,-0.218l-0.036,-0.218l-0.036,-0.218l-0.037,-0.217l-0.038,-0.216l-0.038,-0.218l-0.039,-0.216l-0.04,-0.216l-0.041,-0.217l-0.041,-0.215l-0.041,-0.216l-0.043,-0.216l-0.043,-0.214l-0.043,-0.215l-0.044,-0.215l-0.045,-0.215l-0.046,-0.214l-0.046,-0.214l-0.047,-0.213l-0.048,-0.213l-0.048,-0.214l-0.049,-0.213l-0.049,-0.212l-0.05,-0.213l-0.051,-0.212l-0.051,-0.212l-0.053,-0.212l-0.052,-0.211l-0.053,-0.21l-0.054,-0.212l-0.055,-0.211l-0.055,-0.21l-0.056,-0.21l-0.056,-0.21l-0.058,-0.21l-0.057,-0.209l-0.058,-0.209l-0.059,-0.208l-0.06,-0.21l-0.06,-0.208l-0.061,-0.207l-0.062,-0.208l-0.062,-0.208l-0.063,-0.207l-0.063,-0.207l-0.064,-0.207l-0.064,-0.206l-0.066,-0.206l-0.065,-0.206l-0.067,-0.206l-0.067,-0.205l-0.068,-0.205l-0.068,-0.205l-0.069,-0.204l-0.069,-0.205l-0.07,-0.203l-0.071,-0.204l-0.071,-0.204l-0.072,-0.203l-0.073,-0.203l-0.073,-0.202l-0.073,-0.202l-0.075,-0.202l-0.075,-0.202l-0.075,-0.202l-0.076,-0.2l-0.077,-0.201l-0.077,-0.201l-0.078,-0.199l-0.078,-0.2l-0.08,-0.201l-0.08,-0.199l-0.079,-0.198l-0.082,-0.2l-0.081,-0.199l-0.082,-0.197l-0.083,-0.198l-0.083,-0.198l-0.084,-0.196l-0.084,-0.198l-0.085,-0.196l-0.086,-0.197l-0.086,-0.196l-0.086,-0.196l-0.088,-0.195l-0.088,-0.195l-0.088,-0.195l-0.089,-0.194l-0.09,-0.194l-0.09,-0.195l-0.09,-0.193l-0.092,-0.193l-0.092,-0.193l-0.092,-0.192l-0.093,-0.193l-0.094,-0.192l-0.094,-0.192l-0.094,-0.19l-0.096,-0.191l-0.096,-0.191l-0.096,-0.191l-0.097,-0.19l-0.097,-0.189l-0.099,-0.19l-0.098,-0.189l-0.099,-0.188l-0.1,-0.189l-0.101,-0.188l-0.1,-0.188l-0.102,-0.188l-0.102,-0.186l-0.102,-0.187l-0.103,-0.186l-0.104,-0.187l-0.104,-0.185l-0.105,-0.185l-0.105,-0.185l-0.106,-0.185l-0.107,-0.185l-0.106,-0.183l-0.108,-0.184l-0.108,-0.184l-0.108,-0.183l-0.109,-0.181l-0.11,-0.183l-0.11,-0.182l-0.11,-0.181l-0.112,-0.181l-0.112,-0.182l-0.112,-0.18l-0.112,-0.18l-0.114,-0.18l-0.114,-0.179l-0.114,-0.179l-0.115,-0.179l-0.115,-0.178l-0.116,-0.178l-0.117,-0.177l-0.117,-0.178l-0.118,-0.177l-0.117,-0.176l-0.119,-0.176l-0.119,-0.176l-0.12,-0.175l-0.12,-0.175l-0.12,-0.175l-0.121,-0.174l-0.122,-0.173l-0.122,-0.174l-0.123,-0.173l-0.123,-0.173l-0.124,-0.172l-0.124,-0.173l-0.125,-0.171l-0.125,-0.171l-0.125,-0.171l-0.127,-0.17l-0.126,-0.17l-0.128,-0.17l-0.127,-0.169l-0.128,-0.168l-0.129,-0.169l-0.13,-0.169l-0.129,-0.167l-0.13,-0.167l-0.131,-0.167l-0.131,-0.166l-0.132,-0.167l-0.132,-0.165l-0.132,-0.165l-0.133,-0.165l-0.134,-0.165l-0.134,-0.164l-0.135,-0.164l-0.135,-0.163l-0.135,-0.162l-0.136,-0.163l-0.137,-0.162l-0.137,-0.161l-0.137,-0.161l-0.138,-0.161l-0.138,-0.16l-0.139,-0.16l-0.14,-0.16l-0.14,-0.159l-0.14,-0.159l-0.141,-0.158l-0.141,-0.157l-0.141,-0.158l-0.143,-0.157l-0.142,-0.156l-0.143,-0.156l-0.144,-0.156l-0.144,-0.155l-0.144,-0.155l-0.145,-0.154l-0.146,-0.154l-0.145,-0.154l-0.146,-0.152l-0.147,-0.153l-0.148,-0.153l-0.147,-0.151l-0.148,-0.152l-0.149,-0.151l-0.149,-0.15l-0.149,-0.15l-0.15,-0.149l-0.151,-0.15l-0.15,-0.148l-0.151,-0.148l-0.152,-0.148l-0.152,-0.147l-0.153,-0.147l-0.152,-0.146l-0.153,-0.146l-0.155,-0.146l-0.154,-0.145l-0.154,-0.144l-0.156,-0.145l-0.155,-0.143l-0.156,-0.143l-0.157,-0.143l-0.157,-0.142l-0.157,-0.142l-0.158,-0.141l-0.158,-0.141l-0.158,-0.14l-0.159,-0.14l-0.16,-0.139l-0.16,-0.14l-0.159,-0.138l-0.161,-0.138l-0.161,-0.137l-0.161,-0.137l-0.163,-0.137l-0.162,-0.136l-0.162,-0.135l-0.164,-0.136l-0.163,-0.134l-0.164,-0.134l-0.165,-0.134l-0.164,-0.133l-0.165,-0.133l-0.166,-0.132l-0.166,-0.132l-0.166,-0.131l-0.167,-0.131l-0.167,-0.13l-0.168,-0.13l-0.168,-0.129l-0.168,-0.129l-0.168,-0.128l-0.17,-0.128l-0.169,-0.127l-0.17,-0.127l-0.17,-0.126l-0.171,-0.126l-0.171,-0.125l-0.171,-0.125l-0.172,-0.124l-0.172,-0.124l-0.173,-0.123l-0.173,-0.123l-0.173,-0.122l-0.174,-0.122l-0.174,-0.121l-0.174,-0.12l-0.175,-0.121l-0.176,-0.12l-0.175,-0.119l-0.176,-0.118l-0.176,-0.118l-0.177,-0.118l-0.177,-0.117l-0.178,-0.116l-0.177,-0.116l-0.179,-0.116l-0.178,-0.115l-0.179,-0.114l-0.179,-0.114l-0.18,-0.113l-0.18,-0.113l-0.18,-0.113l-0.181,-0.111l-0.181,-0.112l-0.181,-0.11l-0.182,-0.11l-0.182,-0.11l-0.182,-0.109l-0.184,-0.109l-0.183,-0.108l-0.183,-0.107l-0.184,-0.107l-0.184,-0.107l-0.184,-0.105l-0.185,-0.106l-0.186,-0.105l-0.185,-0.104l-0.186,-0.103l-0.186,-0.103l-0.187,-0.103l-0.187,-0.102l-0.187,-0.101l-0.188,-0.102l-0.187,-0.1l-0.189,-0.099l-0.188,-0.1l-0.189,-0.099l-0.189,-0.098l-0.19,-0.097l-0.19,-0.097l-0.19,-0.097l-0.19,-0.095l-0.192,-0.096l-0.191,-0.095l-0.191,-0.094l-0.192,-0.093l-0.192,-0.093l-0.192,-0.093l-0.193,-0.092l-0.193,-0.091l-0.194,-0.091l-0.193,-0.09l-0.195,-0.09l-0.194,-0.089l-0.194,-0.088l-0.196,-0.088l-0.195,-0.088l-0.195,-0.086l-0.196,-0.086l-0.196,-0.086l-0.197,-0.085l-0.196,-0.084l-0.198,-0.084l-0.197,-0.083l-0.198,-0.083l-0.198,-0.082l-0.198,-0.082l-0.198,-0.08l-0.199,-0.081l-0.2,-0.079l-0.199,-0.08l-0.2,-0.078l-0.2,-0.078l-0.2,-0.077l-0.201,-0.077l-0.201,-0.076l-0.201,-0.076l-0.201,-0.075l-0.202,-0.074l-0.202,-0.074l-0.203,-0.073l-0.202,-0.072l-0.203,-0.072l-0.203,-0.072l-0.204,-0.07l-0.204,-0.071l-0.204,-0.069l-0.204,-0.069l-0.205,-0.068l-0.204,-0.068l-0.206,-0.067l-0.205,-0.066l-0.206,-0.066l-0.206,-0.065l-0.206,-0.065l-0.207,-0.064l-0.206,-0.063l-0.207,-0.063l-0.208,-0.062l-0.207,-0.062l-0.208,-0.06l-0.208,-0.061l-0.208,-0.059l-0.209,-0.059l-0.209,-0.059l-0.209,-0.057l-0.209,-0.058l-0.21,-0.056l-0.21,-0.056l-0.21,-0.055l-0.211,-0.055l-0.211,-0.054l-0.21,-0.053l-0.212,-0.053l-0.211,-0.052l-0.212,-0.051l-0.212,-0.051l-0.212,-0.05l-0.213,-0.049l-0.212,-0.049l-0.213,-0.048l-0.214,-0.048l-0.213,-0.047l-0.214,-0.046l-0.214,-0.046l-0.214,-0.045l-0.214,-0.044l-0.215,-0.044l-0.215,-0.043l-0.215,-0.042l-0.216,-0.042l-0.215,-0.041l-0.216,-0.04l-0.216,-0.04l-0.216,-0.039l-0.217,-0.038l-0.217,-0.038l-0.217,-0.037l-0.217,-0.037l-0.218,-0.035l-0.218,-0.035l-0.218,-0.035l-0.218,-0.034l-0.218,-0.033l-0.219,-0.032l-0.219,-0.032l-0.219,-0.031l-0.22,-0.03l-0.219,-0.03l-0.22,-0.029l-0.22,-0.029l-0.22,-0.027l-0.221,-0.027l-0.221,-0.027l-0.221,-0.025l-0.221,-0.025l-0.221,-0.025l-0.222,-0.023l-0.222,-0.023l-0.222,-0.022l-0.222,-0.022l-0.222,-0.021l-0.223,-0.02l-0.223,-0.019l-0.223,-0.019l-0.224,-0.018l-0.223,-0.018l-0.224,-0.016l-0.224,-0.016l-0.224,-0.016l-0.225,-0.014l-0.224,-0.014l-0.225,-0.013l-0.225,-0.013l-0.226,-0.012l-0.225,-0.011l-0.226,-0.01l-0.226,-0.01l-0.226,-0.009l-0.226,-0.008l-0.227,-0.008l-0.226,-0.006l-0.227,-0.007l-0.227,-0.005l-0.228,-0.005l-0.227,-0.004l-0.228,-0.003l-0.228,-0.002l-0.228,-0.002l-0.228,-0.001l-0.229,-0.001l-0.228,0.001Z" style="fill:#648fff;"/></svg>