<svg id="Layer_1" data-name="Layer 1" xmlns="http://www.w3.org/2000/svg" viewBox="0 0 446.29999 490"><defs><style>.cls-1{fill:#fff;}.cls-2{fill:#f26c5a;}.cls-3{fill:#f16b59;}.cls-4{fill:none;stroke:#fff;stroke-linejoin:round;stroke-width:2px;stroke-dasharray:5 3;}</style></defs><title>T--Lund--integrated_chart</title><circle class="cls-1" cx="60" cy="60" r="60"/><circle class="cls-1" cx="386.29999" cy="252" r="60"/><circle class="cls-1" cx="108.3" cy="430" r="60"/><path class="cls-2" d="M442.5,223.5a19.34292,19.34292,0,0,0-5.8-2.2v-1.9a6.487,6.487,0,0,0-6.5-6.5H415.9a6.487,6.487,0,0,0-6.5,6.5v26h-1.3V214.2a1.32373,1.32373,0,0,0-1.3-1.3h-10.4a1.3237,1.3237,0,0,0-1.3,1.3v31.2h-2.6a17.22372,17.22372,0,0,0-3.9.4v-3a1.32373,1.32373,0,0,0-1.3-1.3h-7.8a1.32371,1.32371,0,0,0-1.3,1.3v9.6a18.14383,18.14383,0,0,0-3.9,11.2v26a1.3237,1.3237,0,0,0,1.3,1.3H425a1.3237,1.3237,0,0,0,1.3-1.3V279.2l3,1.9a6.35837,6.35837,0,0,0,7,0l8.2-5.3v13.8a1.3237,1.3237,0,0,0,1.3,1.3H451a1.3237,1.3237,0,0,0,1.3-1.3V240.4A19.52812,19.52812,0,0,0,442.5,223.5Zm-44.8-7.9h7.8v29.9h-7.8Zm-16.9,28.6H386v2.5a18.38614,18.38614,0,0,0-5.2,3.1Zm32.5,44.2H376.9V270.2h36.4Zm0-20.8H376.9V265h36.4Zm0-5.2H377a15.56942,15.56942,0,0,1,15.5-14.3h18.2a11.52983,11.52983,0,0,1,2.6.3v14Zm1.3-42.9v14a18.51085,18.51085,0,0,0-1.3,7v5.3a5.702,5.702,0,0,0-1.3-.1V219.6a3.84248,3.84248,0,0,1,3.9-3.9h14.3a3.84247,3.84247,0,0,1,3.9,3.9v1.5a11.30313,11.30313,0,0,0-2.6,0v-1.5a1.32373,1.32373,0,0,0-1.3-1.3H415.9A1.181,1.181,0,0,0,414.6,219.5Zm14.3,1.3v.6a19.07845,19.07845,0,0,0-11.7,7.4v-8Zm-10.4,67.6h-2.6V272.6l2.6,1.7Zm5.2,0h-2.6V275.9l2.6,1.7Zm26,0h-2.6V274.3l2.6-1.7Zm0-18.9L434.9,279a3.97506,3.97506,0,0,1-4.2,0l-14.8-9.5v-29a16.9,16.9,0,0,1,33.8,0Z" transform="translate(-27 -5)"/><path class="cls-2" d="M387.8,258.4h2.1a5.3351,5.3351,0,0,1,5.3-5.3V251A7.32062,7.32062,0,0,0,387.8,258.4Z" transform="translate(-27 -5)"/><path class="cls-2" d="M387.8,269h2.1v10.6h-2.1Z" transform="translate(-27 -5)"/><path class="cls-2" d="M440.9,251.5a3.07555,3.07555,0,0,0-2.6-2.6,9.59375,9.59375,0,0,0-5.9-5.9,3.15047,3.15047,0,0,0-3.6-2.6,3.07555,3.07555,0,0,0-2.6,2.6,9.59378,9.59378,0,0,0-5.9,5.9,3.15048,3.15048,0,0,0-2.6,3.6,3.07556,3.07556,0,0,0,2.6,2.6,9.59378,9.59378,0,0,0,5.9,5.9,3.15047,3.15047,0,0,0,3.6,2.6,3.07555,3.07555,0,0,0,2.6-2.6,9.59379,9.59379,0,0,0,5.9-5.9A3.09833,3.09833,0,0,0,440.9,251.5Zm-14.8,7.2a7.4306,7.4306,0,0,1-3.5-3.5h3.5Zm0-5.6h-5.3a1.1,1.1,0,0,1,0-2.2h5.3Zm0-4.3h-3.5a7.43056,7.43056,0,0,1,3.5-3.5Zm4.2,11.7a1.1,1.1,0,1,1-2.2,0v-5.3h2.1v5.3Zm0-7.4h-2.1V251h2.1Zm0-4.3h-2.1v-5.3a1.1,1.1,0,1,1,2.2,0v5.3Zm2.2-3.5a7.43056,7.43056,0,0,1,3.5,3.5h-3.5Zm0,13.4v-3.5H436A7.89764,7.89764,0,0,1,432.5,258.7Zm5.3-5.6h-5.3V251h5.3a1.10977,1.10977,0,0,1,1.1,1.1A1.02782,1.02782,0,0,1,437.8,253.1Z" transform="translate(-27 -5)"/><path class="cls-2" d="M408,252a3.2,3.2,0,1,0,3.2,3.2A3.15907,3.15907,0,0,0,408,252Zm0,4.3a1.1,1.1,0,1,1,1.1-1.1A1.10977,1.10977,0,0,1,408,256.3Z" transform="translate(-27 -5)"/><path class="cls-2" d="M56.9,43.2h-.3a.36737.36737,0,0,1-.3-.1c-.1,0-.2-.1-.3-.1-.1-.1-.2-.1-.2-.2l-.2-.2a.30971.30971,0,0,1-.1-.2c0-.1-.1-.2-.1-.3v-.6a.3674.3674,0,0,1,.1-.3c0-.1.1-.2.1-.3.1-.1.1-.2.2-.2l.2-.2a.36739.36739,0,0,1,.3-.1c.1,0,.2-.1.3-.1h.6a.36737.36737,0,0,1,.3.1c.1,0,.2.1.3.1.1.1.2.1.2.2l.2.2a.36735.36735,0,0,1,.1.3c0,.1.1.2.1.3v.6a.36737.36737,0,0,1-.1.3.34914.34914,0,0,1-.1.2c-.1.1-.1.2-.2.2l-.2.2a.36737.36737,0,0,1-.3.1c-.1,0-.2.1-.3.1Z" transform="translate(-27 -5)"/><path class="cls-2" d="M110.5,83.8H73a1.36707,1.36707,0,0,1-1.4-1.4V76.7A1.36707,1.36707,0,0,1,73,75.3h37.4a1.36707,1.36707,0,0,1,1.4,1.4v5.7A1.23628,1.23628,0,0,1,110.5,83.8Zm-36-2.9H109V78.1H74.5Z" transform="translate(-27 -5)"/><path class="cls-2" d="M110.5,89.2h-.3a.3674.3674,0,0,1-.3-.1c-.1,0-.2-.1-.3-.1-.1-.1-.2-.1-.2-.2l-.2-.2a.36738.36738,0,0,1-.1-.3c0-.1-.1-.2-.1-.3v-.6a.36739.36739,0,0,1,.1-.3c0-.1.1-.2.1-.3.1-.1.1-.2.2-.2l.2-.2a.36739.36739,0,0,1,.3-.1c.1,0,.2-.1.3-.1h.6a.36739.36739,0,0,1,.3.1.34915.34915,0,0,1,.2.1c.1.1.2.1.2.2a1.28383,1.28383,0,0,1,.4,1v.3a.36742.36742,0,0,1-.1.3c0,.1-.1.2-.1.3-.1.1-.1.2-.2.2l-.2.2a.3097.3097,0,0,1-.2.1c-.1,0-.2.1-.3.1A.77389.77389,0,0,1,110.5,89.2Z" transform="translate(-27 -5)"/><path class="cls-2" d="M104.2,89.2H73a1.4,1.4,0,0,1,0-2.8h31.2a1.4,1.4,0,0,1,0,2.8Z" transform="translate(-27 -5)"/><path class="cls-2" d="M121,36.7H99.8a8.82078,8.82078,0,0,0-4.2-6.6V24.4A1.36708,1.36708,0,0,0,94.2,23H87.8a1.36707,1.36707,0,0,0-1.4,1.4v5.7a8.82077,8.82077,0,0,0-4.2,6.6h-18a8.4207,8.4207,0,0,0-7.4-4.4,8.22468,8.22468,0,0,0-6,2.5,7.75591,7.75591,0,0,0-2.3,5.9V88.5a8.64062,8.64062,0,0,0,2.4,6,8.54,8.54,0,0,0,6.2,2.6h64.1a1.36708,1.36708,0,0,0,1.4-1.4V38.3A1.72064,1.72064,0,0,0,121,36.7ZM107.8,65.2a3.45773,3.45773,0,0,1-.7,1.2L96.3,44.7A13.65011,13.65011,0,0,0,98,43l9.6,19.3A4.16372,4.16372,0,0,1,107.8,65.2ZM91,51.6a3.9048,3.9048,0,0,0-3.9,3.9v.1H83.5L88.2,46a8.62743,8.62743,0,0,0,2.8.4,12.60617,12.60617,0,0,0,2.8-.4l4.7,9.6H94.9v-.1A3.9048,3.9048,0,0,0,91,51.6Zm1,3.9v3.1a1,1,0,0,1-2,0V55.5a1.00209,1.00209,0,0,1,1-1A.94477.94477,0,0,1,92,55.5ZM74.9,66.4a3.74551,3.74551,0,0,1-.7-1.2,3.41311,3.41311,0,0,1,.2-2.8L84,43a13.65011,13.65011,0,0,0,1.7,1.7ZM89.2,25.8h3.5v3.1a8.2,8.2,0,0,0-3.6,0V25.8ZM91,31.7a6,6,0,1,1-6,6A5.954,5.954,0,0,1,91,31.7ZM52.8,36.9a5.22031,5.22031,0,0,1,3.9-1.7,5.5908,5.5908,0,0,1,5.6,5.6V82.1a7.47731,7.47731,0,0,0-4-1.9V47.5a1.4,1.4,0,1,0-2.8,0V80.1A8.148,8.148,0,0,0,51.4,82V40.8h0A5.10927,5.10927,0,0,1,52.8,36.9Zm66.9,57.3H57a5.59781,5.59781,0,0,1-4.2-1.8,5.70179,5.70179,0,0,1-1.6-3.9h0V88a5.28856,5.28856,0,0,1,1.5-3.5,5.22031,5.22031,0,0,1,3.9-1.7,5.5908,5.5908,0,0,1,5.6,5.6,1.4,1.4,0,1,0,2.8,0V40.8a4.86864,4.86864,0,0,0-.1-1.2H82.1v.1L71.8,61.1a6.46209,6.46209,0,0,0-.3,5.1,7.11476,7.11476,0,0,0,2.1,3l-1.5,3a1.31788,1.31788,0,0,0,.7,1.9,1.2683,1.2683,0,0,0,.6.1,1.4414,1.4414,0,0,0,1.3-.8l7.4-15h5v.1a3.9,3.9,0,0,0,7.8,0v-.1h5l7.4,15a1.56056,1.56056,0,0,0,1.3.8,1.2683,1.2683,0,0,0,.6-.1,1.50635,1.50635,0,0,0,.7-1.9l-1.5-3a6.33558,6.33558,0,0,0,2.1-3,6.46209,6.46209,0,0,0-.3-5.1L99.6,39.7v-.1h20V94.2Z" transform="translate(-27 -5)"/><path class="cls-2" d="M89.3,39.1h.3v.3a1.4,1.4,0,1,0,2.8,0v-.3h.3a1.4,1.4,0,0,0,0-2.8h-.3V36a1.4,1.4,0,1,0-2.8,0v.3h-.3a1.4,1.4,0,1,0,0,2.8Z" transform="translate(-27 -5)"/><path class="cls-3" d="M134.6,480.4l-10.6-7c-8.1-.7-13.4-2.9-16.1-6.7-2.9-4.1-2.7-9.8.6-17.3l.3-.6,3.5,1.5-.3.6c-2.7,6.1-3,10.7-.9,13.6,1.9,2.7,6,4.3,12.4,5l12.2-6.1-.3,4.3c4.4-.2,8.9-.5,13.2-.8l1.8-.1.1.7c0,.4.1.9.1,1.4h0c7.5-.5,12.2-2.3,14-5.2,2.2-3.4.2-8.5-1.3-12.6h0c-.3-.8-.6-1.5-.8-2.2-1.8-5,.7-10.2,3-15.1,1.6-3.3,3.1-6.5,3-9-.1-2.1-.8-2.9-1-3-.4.2-1.7,1.6-1.8,6.2-.2,9.5-9.9,12-15.1,12h-.4c-.5-.1-1-.2-1.7-.3l-12.5,5,.5-3.8a80.4568,80.4568,0,0,0-18.1,3h-.1a89.43863,89.43863,0,0,1-14.6,2.7h-1l-.1-.6c0-.4-.1-.9-.1-1.4a25.28309,25.28309,0,0,1-2.8.1c-5.5,0-9.8-1.1-12.8-3.2a11.197,11.197,0,0,1-4.7-9.4h0v-.2c-.2-2.7,2.3-10.9,11.8-12,7.5-.9,14.3-7.3,15.1-8.2A49.84288,49.84288,0,0,1,123,399.8l8.3-10.1,1.9,4.9c12.4-.8,27.6,3.7,28.3,3.9l.6.2-.6,2.1c5.3,1.3,8.6,2.4,9.7,3.2l.5.4-2,2.7-.5-.4c-.7-.5-4-1.5-8.6-2.7l-.6,2.1-.7-.2c-2.2-.6-13.3-3.6-22.9-3.6h-.2l1.2,3.2-13.1-2.2a48.28581,48.28581,0,0,0-12.2,10.6l-.1.2c-.3.3-8.2,8.3-17.5,9.3a9.49063,9.49063,0,0,0-7,4,8.87733,8.87733,0,0,0-1.5,4v.4a7.79093,7.79093,0,0,0,3.4,6.6c2.3,1.5,5.7,2.3,10.3,2.3a22.60189,22.60189,0,0,0,2.6-.1v-2h1a87.49261,87.49261,0,0,0,13-2.5h.1c6.1-1.5,12.9-3.2,21.2-3.3l.7-5.2,10.2,8a15.52861,15.52861,0,0,1,2.1.4c1.4,0,11-.6,11.1-8.2.1-7.3,3.1-9.9,5.5-9.9h0c2.2,0,4.6,2.1,4.8,6.7.2,3.5-1.5,7-3.3,10.8-2,4.3-4.1,8.7-2.9,12.2h0c.2.6.5,1.3.8,2.1v.1c1.9,4.9,4.2,10.9,1,16-2.6,4-8.1,6.3-17,7h0c0,.5.1,1,.1,1.4v.7l-1.7.1c-4.8.4-9.7.7-14.4.9Zm-25.2-29.8c-2.8,6.7-3,11.8-.4,15.4,2.5,3.5,7.5,5.5,15.3,6.1h.2l9,5.9.2-3.6h.6c4.8-.1,10-.5,14.9-.9h.4c0-.4-.1-.9-.1-1.4l-.1-.7,1.4-.1c8.4-.6,13.6-2.7,15.9-6.3,2.8-4.5.6-10.2-1.1-14.8v-.1c-.3-.8-.6-1.5-.8-2.1h0c-1.4-4.1.8-8.8,2.9-13.3,1.7-3.6,3.3-7,3.2-10.2-.2-3.7-1.8-5.4-3.4-5.4h0c-2,0-4.1,2.7-4.2,8.6-.2,9.1-11.2,9.5-12.5,9.6h-.2c-.7-.1-1.5-.3-2.3-.4h-.2l-8.6-6.8-.6,4h-.6c-8.4,0-15.3,1.7-21.5,3.2h-.1a82.84139,82.84139,0,0,1-13,2.5v2h-.6c-1.1.1-2.3.1-3.4.1-4.8,0-8.5-.8-11-2.5a8.99739,8.99739,0,0,1-4.1-7.7v-.3a9.62183,9.62183,0,0,1,1.7-4.8,10.62524,10.62524,0,0,1,7.9-4.6c8.7-1,16.2-8.5,16.7-8.9l.1-.1a49.52889,49.52889,0,0,1,12.8-11.1l.2-.1,11.3,1.9-1.1-2.8h1c9.4-.2,20.5,2.6,23.8,3.5l.6-2.1.6.2a78.61271,78.61271,0,0,1,9.1,2.7l.4-.6a58.1811,58.1811,0,0,0-9.3-2.8l-.7-.2.6-2.2c-3.1-.9-16.8-4.4-27.6-3.6h-.5l-1.4-3.7-6.9,8.5-.1.1c-7.5,4-13.1,10.9-13.7,11.6l-.1.1c-.8.8-8,7.6-16,8.6-8.5,1-10.8,8.2-10.6,10.6v.3h0a9.78493,9.78493,0,0,0,4.2,8.3c2.7,1.9,6.8,2.9,12,2.9,1.1,0,2.2,0,3.3-.1l.7-.1v.7c0,.5.1,1,.1,1.4a83.59231,83.59231,0,0,0,14.1-2.7h.1c5.9-1.4,12-2.9,19.2-3.1h.8l-.4,3,10.7-4.3h.2c.7.1,1.3.2,1.9.3h.1c4.7,0,13.6-2.2,13.7-10.6.1-5.5,1.9-7.5,3.1-7.5h0c1.1,0,2.2,1.5,2.3,4.3.1,2.9-1.4,6.2-3.1,9.6-2.3,4.7-4.6,9.6-3,14.1.2.7.5,1.4.8,2.2h0c1.7,4.4,3.8,9.8,1.2,13.8-2.1,3.3-7.2,5.2-15.1,5.8l-1.4.1-.1-.7c0-.5-.1-.9-.1-1.4h-.5c-4.6.3-9.3.7-14,.8h-.7l.2-3.5-10.5,5.3h-.2c-7-.7-11.4-2.5-13.6-5.6-2.3-3.2-2.1-8,.5-14.3Zm58.1-29Zm0,0Z" transform="translate(-27 -5)"/><line class="cls-4" x1="108.3" y1="345.5" x2="386.29999" y2="345.5"/><line class="cls-4" x1="58.3" y1="166" x2="386.29999" y2="166"/><line class="cls-4" x1="58.7" y1="109" x2="58.7" y2="164.89999"/><line class="cls-4" x1="386.29999" y1="164.8" x2="386.29999" y2="193.60001"/><line class="cls-4" x1="386.29999" y1="310.20001" x2="386.29999" y2="346.5"/><line class="cls-4" x1="108.3" y1="344.5" x2="108.3" y2="380.79999"/></svg>