<?xml version="1.0" encoding="UTF-8" standalone="no"?><!DOCTYPE svg PUBLIC "-//W3C//DTD SVG 1.1//EN" "http://www.w3.org/Graphics/SVG/1.1/DTD/svg11.dtd"><svg width="100%" height="100%" viewBox="0 0 1200 1200" version="1.1" xmlns="http://www.w3.org/2000/svg" xmlns:xlink="http://www.w3.org/1999/xlink" xml:space="preserve" style="fill-rule:evenodd;clip-rule:evenodd;stroke-linejoin:round;stroke-miterlimit:1.41421;"><g id="g4551"><rect id="rect10" x="490" y="830" width="214.024" height="280" style="fill:#b8c1c1;"/><path d="M1150,93.749c0,-24.146 -19.603,-43.749 -43.749,-43.749l-1012.5,0c-24.146,0 -43.749,19.603 -43.749,43.749l0,712.502c0,24.146 19.603,43.749 43.749,43.749l1012.5,0c24.146,0 43.749,-19.603 43.749,-43.749l0,-712.502Z" style="fill:#d0dada;"/><path d="M1070,161.475c0,-17.371 -14.104,-31.475 -31.475,-31.475l-877.05,0c-17.371,0 -31.475,14.104 -31.475,31.475l0,577.05c0,17.371 14.104,31.475 31.475,31.475l877.05,0c17.371,0 31.475,-14.104 31.475,-31.475l0,-577.05Z" style="fill:#fff;"/><path id="line16" d="M451.07,196.903l1.065,0.115l1.053,0.19l1.038,0.265l1.016,0.338l0.989,0.41l0.958,0.479l0.921,0.546l0.879,0.611l0.834,0.672l0.784,0.73l0.729,0.783l0.672,0.834l0.611,0.88l0.546,0.92l0.479,0.958l0.41,0.989l0.338,1.016l0.265,1.038l0.19,1.053l0.115,1.065l0.038,1.07l0,200l-0.038,1.07l-0.115,1.065l-0.19,1.054l-0.265,1.037l-0.338,1.016l-0.41,0.989l-0.479,0.958l-0.546,0.921l-0.611,0.879l-0.672,0.834l-0.729,0.784l-0.784,0.729l-0.834,0.672l-0.879,0.611l-0.921,0.546l-0.958,0.48l-0.989,0.409l-1.016,0.339l-1.038,0.264l-1.053,0.19l-1.065,0.115l-1.07,0.038l-1.07,-0.038l-1.065,-0.115l-1.053,-0.19l-1.038,-0.264l-1.016,-0.339l-0.989,-0.409l-0.958,-0.48l-0.921,-0.546l-0.879,-0.611l-0.834,-0.672l-0.784,-0.729l-0.729,-0.784l-0.672,-0.834l-0.611,-0.879l-0.546,-0.921l-0.479,-0.958l-0.41,-0.989l-0.338,-1.016l-0.265,-1.037l-0.19,-1.054l-0.115,-1.065l-0.038,-1.07l0,-200l0.038,-1.07l0.115,-1.065l0.19,-1.053l0.265,-1.038l0.338,-1.016l0.41,-0.989l0.479,-0.958l0.546,-0.92l0.611,-0.88l0.672,-0.834l0.729,-0.783l0.784,-0.73l0.834,-0.672l0.879,-0.611l0.921,-0.546l0.958,-0.479l0.989,-0.41l1.016,-0.338l1.038,-0.265l1.053,-0.19l1.065,-0.115l1.07,-0.038l1.07,0.038Z"/><path id="line18" d="M292.498,456.392l1.153,0.13l1.14,0.215l1.121,0.301l1.095,0.383l1.064,0.464l1.026,0.542l0.982,0.617l0.934,0.69l0.88,0.756l0.82,0.821l0.757,0.879l0.689,0.934l0.618,0.983l0.542,1.026l0.464,1.063l0.383,1.095l0.3,1.121l0.216,1.14l0.13,1.154l0.043,1.159l0,220l-0.043,1.16l-0.13,1.153l-0.216,1.14l-0.3,1.121l-0.383,1.095l-0.464,1.064l-0.542,1.026l-0.618,0.982l-0.689,0.934l-0.757,0.879l-0.82,0.821l-0.88,0.757l-0.934,0.689l-0.982,0.617l-1.026,0.542l-1.064,0.464l-1.095,0.384l-1.121,0.3l-1.14,0.216l-1.153,0.13l-1.16,0.043l-1.159,-0.043l-1.153,-0.13l-1.14,-0.216l-1.121,-0.3l-1.096,-0.384l-1.063,-0.464l-1.026,-0.542l-0.983,-0.617l-0.933,-0.689l-0.88,-0.757l-0.82,-0.821l-0.757,-0.879l-0.689,-0.934l-0.618,-0.982l-0.542,-1.026l-0.464,-1.064l-0.383,-1.095l-0.3,-1.121l-0.216,-1.14l-0.13,-1.153l-0.044,-1.16l0,-220l0.044,-1.159l0.13,-1.154l0.216,-1.14l0.3,-1.121l0.383,-1.095l0.464,-1.063l0.542,-1.026l0.618,-0.983l0.689,-0.934l0.757,-0.879l0.82,-0.821l0.88,-0.756l0.933,-0.69l0.983,-0.617l1.026,-0.542l1.063,-0.464l1.096,-0.383l1.121,-0.301l1.14,-0.215l1.153,-0.13l1.159,-0.044l1.16,0.044Z"/><path id="line20" d="M412.667,456.908l1.114,0.127l1.102,0.209l1.083,0.291l1.059,0.372l1.028,0.449l0.991,0.525l0.949,0.598l0.902,0.667l0.85,0.732l0.792,0.794l0.731,0.851l0.665,0.903l0.596,0.951l0.524,0.992l0.447,1.028l0.37,1.059l0.289,1.084l0.208,1.103l0.124,1.114l0.041,1.121l-0.194,220l-0.043,1.121l-0.126,1.115l-0.21,1.102l-0.291,1.083l-0.371,1.059l-0.45,1.027l-0.525,0.992l-0.597,0.949l-0.667,0.902l-0.733,0.849l-0.794,0.793l-0.851,0.731l-0.903,0.665l-0.95,0.596l-0.992,0.523l-1.029,0.448l-1.059,0.37l-1.084,0.289l-1.102,0.208l-1.115,0.124l-1.121,0.041l-1.121,-0.043l-1.114,-0.126l-1.102,-0.21l-1.084,-0.291l-1.058,-0.372l-1.028,-0.449l-0.991,-0.525l-0.949,-0.598l-0.902,-0.667l-0.85,-0.732l-0.792,-0.794l-0.731,-0.851l-0.666,-0.903l-0.596,-0.95l-0.523,-0.993l-0.448,-1.028l-0.369,-1.059l-0.289,-1.084l-0.208,-1.102l-0.125,-1.115l-0.041,-1.121l0.194,-220l0.043,-1.121l0.127,-1.115l0.209,-1.102l0.292,-1.083l0.371,-1.058l0.45,-1.028l0.525,-0.991l0.597,-0.95l0.667,-0.902l0.733,-0.849l0.793,-0.793l0.851,-0.731l0.904,-0.665l0.95,-0.596l0.992,-0.523l1.029,-0.448l1.059,-0.369l1.083,-0.29l1.103,-0.207l1.115,-0.125l1.121,-0.041l1.121,0.043Z"/><path id="line22" d="M592.653,456.907l1.115,0.126l1.102,0.208l1.084,0.291l1.059,0.37l1.028,0.449l0.991,0.524l0.95,0.597l0.903,0.666l0.85,0.731l0.793,0.794l0.732,0.85l0.666,0.902l0.597,0.95l0.524,0.992l0.448,1.028l0.371,1.059l0.29,1.083l0.209,1.103l0.125,1.114l0.042,1.121l0,220l-0.042,1.121l-0.125,1.115l-0.209,1.102l-0.29,1.083l-0.371,1.059l-0.448,1.028l-0.524,0.992l-0.597,0.95l-0.666,0.902l-0.732,0.851l-0.793,0.793l-0.85,0.732l-0.903,0.666l-0.95,0.597l-0.991,0.524l-1.028,0.448l-1.059,0.371l-1.084,0.29l-1.102,0.209l-1.115,0.125l-1.121,0.042l-1.121,-0.042l-1.114,-0.125l-1.102,-0.209l-1.084,-0.29l-1.059,-0.371l-1.028,-0.448l-0.992,-0.524l-0.949,-0.597l-0.903,-0.666l-0.85,-0.732l-0.793,-0.793l-0.732,-0.851l-0.666,-0.902l-0.597,-0.95l-0.524,-0.992l-0.449,-1.028l-0.37,-1.059l-0.291,-1.083l-0.208,-1.102l-0.126,-1.115l-0.042,-1.121l0,-220l0.042,-1.121l0.126,-1.114l0.208,-1.103l0.291,-1.083l0.37,-1.059l0.449,-1.028l0.524,-0.992l0.597,-0.95l0.666,-0.902l0.732,-0.85l0.793,-0.794l0.85,-0.731l0.903,-0.666l0.949,-0.597l0.992,-0.524l1.028,-0.449l1.059,-0.37l1.084,-0.291l1.102,-0.208l1.114,-0.126l1.121,-0.042l1.121,0.042Z"/><path id="line24" d="M691.121,456.907l1.115,0.126l1.102,0.208l1.083,0.291l1.059,0.37l1.028,0.449l0.992,0.524l0.95,0.597l0.902,0.666l0.851,0.731l0.793,0.794l0.731,0.85l0.667,0.902l0.596,0.95l0.525,0.992l0.448,1.028l0.371,1.059l0.29,1.083l0.208,1.103l0.126,1.114l0.042,1.121l0,220l-0.042,1.121l-0.126,1.115l-0.208,1.102l-0.29,1.083l-0.371,1.059l-0.448,1.028l-0.525,0.992l-0.596,0.95l-0.667,0.902l-0.731,0.851l-0.793,0.793l-0.851,0.732l-0.902,0.666l-0.95,0.597l-0.992,0.524l-1.028,0.448l-1.059,0.371l-1.083,0.29l-1.102,0.209l-1.115,0.125l-1.121,0.042l-1.121,-0.042l-1.115,-0.125l-1.102,-0.209l-1.083,-0.29l-1.059,-0.371l-1.028,-0.448l-0.992,-0.524l-0.95,-0.597l-0.902,-0.666l-0.851,-0.732l-0.793,-0.793l-0.731,-0.851l-0.667,-0.902l-0.596,-0.95l-0.525,-0.992l-0.448,-1.028l-0.371,-1.059l-0.29,-1.083l-0.208,-1.102l-0.126,-1.115l-0.042,-1.121l0,-220l0.042,-1.121l0.126,-1.114l0.208,-1.103l0.29,-1.083l0.371,-1.059l0.448,-1.028l0.525,-0.992l0.596,-0.95l0.667,-0.902l0.731,-0.85l0.793,-0.794l0.851,-0.731l0.902,-0.666l0.95,-0.597l0.992,-0.524l1.028,-0.449l1.059,-0.37l1.083,-0.291l1.102,-0.208l1.115,-0.126l1.121,-0.042l1.121,0.042Z"/><path id="line26" d="M471.024,496.9l1.019,0.105l1.009,0.174l0.995,0.242l0.976,0.31l0.953,0.376l0.925,0.44l0.893,0.502l0.856,0.562l0.816,0.618l0.772,0.674l0.725,0.724l0.673,0.772l0.619,0.816l0.561,0.856l0.502,0.893l0.44,0.925l0.376,0.953l0.31,0.976l0.242,0.995l0.174,1.01l0.105,1.018l0.035,1.024l0,180l-0.035,1.024l-0.105,1.019l-0.174,1.009l-0.242,0.995l-0.31,0.976l-0.376,0.953l-0.44,0.925l-0.502,0.893l-0.561,0.856l-0.619,0.816l-0.673,0.772l-0.725,0.725l-0.772,0.673l-0.816,0.619l-0.856,0.561l-0.893,0.502l-0.925,0.44l-0.953,0.376l-0.976,0.31l-0.995,0.242l-1.009,0.174l-1.019,0.105l-1.024,0.035l-1.024,-0.035l-1.018,-0.105l-1.01,-0.174l-0.995,-0.242l-0.976,-0.31l-0.953,-0.376l-0.925,-0.44l-0.893,-0.502l-0.856,-0.561l-0.816,-0.619l-0.772,-0.673l-0.725,-0.725l-0.673,-0.772l-0.619,-0.816l-0.561,-0.856l-0.502,-0.893l-0.44,-0.925l-0.376,-0.953l-0.31,-0.976l-0.242,-0.995l-0.174,-1.009l-0.105,-1.019l-0.035,-1.024l0,-180l0.035,-1.024l0.105,-1.018l0.174,-1.01l0.242,-0.995l0.31,-0.976l0.376,-0.953l0.44,-0.925l0.502,-0.893l0.561,-0.856l0.619,-0.816l0.673,-0.772l0.725,-0.724l0.772,-0.674l0.816,-0.618l0.856,-0.562l0.893,-0.502l0.925,-0.44l0.953,-0.376l0.976,-0.31l0.995,-0.242l1.01,-0.174l1.018,-0.105l1.024,-0.035l1.024,0.035Z"/><path id="line28" d="M750.841,456.889l0.838,0.07l0.834,0.118l0.825,0.164l0.815,0.21l0.801,0.256l0.786,0.3l0.768,0.344l0.748,0.386l0.724,0.427l0.7,0.468l0.672,0.506l0.643,0.542l0.612,0.579l0.578,0.611l0.542,0.643l0.506,0.672l0.468,0.7l0.427,0.724l0.387,0.748l0.343,0.768l0.3,0.786l0.256,0.802l0.21,0.814l0.164,0.826l0.118,0.833l0.07,0.838l0.024,0.841l-0.024,0.841l-0.07,0.839l-0.118,0.833l-0.164,0.825l-0.21,0.815l-0.256,0.801l-0.3,0.786l-0.343,0.768l-0.387,0.748l-0.427,0.725l-0.468,0.699l-0.506,0.672l-0.542,0.643l-0.578,0.612l-0.612,0.578l-0.643,0.543l-0.672,0.506l-0.7,0.467l-0.724,0.427l-0.748,0.387l-0.768,0.343l-0.786,0.3l-0.801,0.256l-0.815,0.21l-0.825,0.164l-0.834,0.118l-0.838,0.071l-0.841,0.023l-120,0l-0.841,-0.023l-0.838,-0.071l-0.834,-0.118l-0.825,-0.164l-0.815,-0.21l-0.801,-0.256l-0.786,-0.3l-0.768,-0.343l-0.748,-0.387l-0.724,-0.427l-0.7,-0.467l-0.672,-0.506l-0.643,-0.543l-0.612,-0.578l-0.578,-0.612l-0.542,-0.643l-0.506,-0.672l-0.468,-0.699l-0.427,-0.725l-0.387,-0.748l-0.343,-0.768l-0.3,-0.786l-0.256,-0.801l-0.21,-0.815l-0.164,-0.825l-0.118,-0.833l-0.07,-0.839l-0.024,-0.841l0.024,-0.841l0.07,-0.838l0.118,-0.833l0.164,-0.826l0.21,-0.814l0.256,-0.802l0.3,-0.786l0.343,-0.768l0.387,-0.748l0.427,-0.724l0.468,-0.7l0.506,-0.672l0.542,-0.643l0.578,-0.611l0.612,-0.579l0.643,-0.542l0.672,-0.506l0.7,-0.468l0.724,-0.427l0.748,-0.386l0.768,-0.344l0.786,-0.3l0.801,-0.256l0.815,-0.21l0.825,-0.164l0.834,-0.118l0.838,-0.07l0.841,-0.024l120,0l0.841,0.024Z"/><path id="line30" d="M590.683,456.881l0.681,0.046l0.678,0.078l0.675,0.108l0.668,0.139l0.662,0.169l0.653,0.2l0.644,0.228l0.632,0.258l0.62,0.286l0.606,0.314l0.592,0.342l0.575,0.368l0.558,0.394l0.539,0.418l0.52,0.443l0.499,0.466l0.478,0.489l0.454,0.509l0.431,0.53l0.407,0.549l0.381,0.567l0.354,0.583l0.328,0.599l0.301,0.613l0.272,0.627l0.243,0.638l0.214,0.648l0.184,0.658l0.154,0.665l0.124,0.672l0.093,0.676l0.062,0.68l0.031,0.683l0,0.683l-0.031,0.682l-0.062,0.68l-0.093,0.676l-0.124,0.672l-0.154,0.665l-0.184,0.658l-0.214,0.648l-0.243,0.638l-0.272,0.627l-0.301,0.613l-0.328,0.599l-0.354,0.584l-0.381,0.566l-0.407,0.549l-0.431,0.53l-0.454,0.509l-0.478,0.489l-0.499,0.466l-0.52,0.443l-0.539,0.419l-0.558,0.393l-0.575,0.368l-0.592,0.342l-0.606,0.314l-0.62,0.286l-0.632,0.258l-0.644,0.229l-0.653,0.199l-0.662,0.169l-0.668,0.139l-0.675,0.108l-0.678,0.078l-0.681,0.047l-0.683,0.015l-80,0l-0.683,-0.015l-0.681,-0.047l-0.678,-0.078l-0.675,-0.108l-0.668,-0.139l-0.662,-0.169l-0.653,-0.199l-0.644,-0.229l-0.632,-0.258l-0.62,-0.286l-0.606,-0.314l-0.592,-0.342l-0.575,-0.368l-0.558,-0.393l-0.539,-0.419l-0.52,-0.443l-0.499,-0.466l-0.478,-0.489l-0.454,-0.509l-0.431,-0.53l-0.407,-0.549l-0.381,-0.566l-0.354,-0.584l-0.328,-0.599l-0.301,-0.613l-0.272,-0.627l-0.243,-0.638l-0.214,-0.648l-0.184,-0.658l-0.154,-0.665l-0.124,-0.672l-0.093,-0.676l-0.062,-0.68l-0.031,-0.682l0,-0.683l0.031,-0.683l0.062,-0.68l0.093,-0.676l0.124,-0.672l0.154,-0.665l0.184,-0.658l0.214,-0.648l0.243,-0.638l0.272,-0.627l0.301,-0.613l0.328,-0.599l0.354,-0.583l0.381,-0.567l0.407,-0.549l0.431,-0.53l0.454,-0.509l0.478,-0.489l0.499,-0.466l0.52,-0.443l0.539,-0.418l0.558,-0.394l0.575,-0.368l0.592,-0.342l0.606,-0.314l0.62,-0.286l0.632,-0.258l0.644,-0.228l0.653,-0.2l0.662,-0.169l0.668,-0.139l0.675,-0.108l0.678,-0.078l0.681,-0.046l0.683,-0.016l80,0l0.683,0.016Z"/><path id="line32" d="M510.328,456.869l0.485,0.018l0.485,0.034l0.483,0.05l0.481,0.066l0.479,0.081l0.477,0.096l0.472,0.112l0.469,0.127l0.465,0.143l0.459,0.157l0.455,0.172l0.448,0.186l0.442,0.201l0.436,0.216l0.428,0.229l0.421,0.243l0.412,0.256l0.404,0.27l0.395,0.283l0.386,0.295l0.376,0.308l0.366,0.319l0.355,0.332l0.345,0.343l0.333,0.353l0.321,0.364l0.31,0.375l0.297,0.384l0.284,0.394l0.272,0.403l0.259,0.411l0.245,0.419l0.231,0.427l0.217,0.435l0.203,0.441l0.189,0.448l0.175,0.453l0.159,0.459l0.144,0.464l0.13,0.468l0.114,0.472l0.099,0.476l0.083,0.479l0.068,0.481l0.052,0.483l0.037,0.484l0.021,0.485l0.005,0.486l-0.011,0.486l-0.026,0.485l-0.042,0.484l-0.058,0.482l-0.073,0.48l-0.089,0.478l-0.104,0.475l-0.12,0.47l-0.134,0.467l-0.15,0.462l-0.165,0.457l-0.179,0.452l-0.194,0.445l-0.208,0.439l-0.222,0.432l-0.237,0.425l-0.249,0.416l-0.264,0.409l-0.276,0.399l-0.289,0.391l-0.301,0.381l-0.314,0.371l-0.326,0.36l-0.337,0.35l-39.806,40l-0.348,0.339l-0.359,0.327l-0.369,0.315l-0.38,0.304l-0.389,0.291l-0.398,0.278l-0.407,0.265l-0.416,0.252l-0.423,0.238l-0.431,0.224l-0.438,0.211l-0.444,0.196l-0.451,0.181l-0.456,0.167l-0.461,0.152l-0.466,0.137l-0.471,0.122l-0.474,0.106l-0.477,0.092l-0.48,0.075l-0.482,0.06l-0.484,0.045l-0.485,0.028l-0.485,0.013l-0.486,-0.002l-0.485,-0.019l-0.485,-0.034l-0.483,-0.05l-0.482,-0.065l-0.479,-0.082l-0.476,-0.096l-0.472,-0.112l-0.469,-0.127l-0.465,-0.142l-0.459,-0.157l-0.455,-0.172l-0.448,-0.187l-0.442,-0.201l-0.436,-0.215l-0.428,-0.23l-0.421,-0.243l-0.412,-0.256l-0.404,-0.27l-0.396,-0.283l-0.385,-0.295l-0.376,-0.308l-0.366,-0.319l-0.355,-0.332l-0.345,-0.342l-0.333,-0.354l-0.321,-0.364l-0.31,-0.375l-0.297,-0.384l-0.284,-0.394l-0.272,-0.402l-0.259,-0.412l-0.245,-0.419l-0.231,-0.427l-0.217,-0.435l-0.204,-0.441l-0.188,-0.448l-0.175,-0.453l-0.159,-0.459l-0.145,-0.464l-0.129,-0.468l-0.114,-0.472l-0.099,-0.476l-0.083,-0.478l-0.068,-0.481l-0.052,-0.483l-0.037,-0.485l-0.021,-0.485l-0.005,-0.486l0.011,-0.486l0.026,-0.485l0.042,-0.484l0.058,-0.482l0.073,-0.48l0.089,-0.478l0.104,-0.474l0.12,-0.471l0.134,-0.467l0.15,-0.462l0.165,-0.457l0.179,-0.452l0.194,-0.445l0.208,-0.439l0.222,-0.432l0.237,-0.424l0.249,-0.417l0.264,-0.408l0.276,-0.4l0.289,-0.39l0.301,-0.381l0.314,-0.371l0.326,-0.361l0.337,-0.35l39.806,-40l0.348,-0.338l0.359,-0.328l0.369,-0.315l0.38,-0.304l0.389,-0.291l0.398,-0.278l0.407,-0.265l0.415,-0.252l0.424,-0.238l0.431,-0.224l0.438,-0.211l0.444,-0.196l0.451,-0.181l0.456,-0.167l0.461,-0.152l0.466,-0.137l0.471,-0.122l0.474,-0.106l0.477,-0.091l0.48,-0.076l0.482,-0.06l0.484,-0.044l0.484,-0.029l0.486,-0.013l0.486,0.003Z"/><path id="line34" d="M412.105,456.885l0.771,0.059l0.766,0.099l0.76,0.138l0.751,0.177l0.742,0.216l0.73,0.254l0.715,0.29l0.7,0.327l0.682,0.363l0.662,0.398l0.642,0.431l0.618,0.463l0.593,0.495l0.567,0.524l0.539,0.553l0.51,0.58l0.48,0.606l0.448,0.629l0.414,0.652l0.381,0.672l0.346,0.691l0.309,0.707l0.273,0.723l0.235,0.736l0.197,0.747l0.158,0.756l0.12,0.763l0.079,0.768l0.04,0.772l0.001,0.772l-0.04,0.772l-0.079,0.768l-0.119,0.763l-0.157,0.756l-0.197,0.747l-0.235,0.736l-0.272,0.723l-0.309,0.708l-0.345,0.691l-0.38,0.673l-60,100l-0.415,0.651l-0.447,0.63l-0.479,0.606l-0.51,0.58l-0.539,0.554l-0.566,0.525l-0.593,0.495l-0.618,0.464l-0.641,0.431l-0.662,0.398l-0.682,0.363l-0.699,0.328l-0.715,0.291l-0.73,0.254l-0.741,0.216l-0.752,0.178l-0.76,0.139l-0.766,0.099l-0.77,0.06l-0.772,0.02l-0.773,-0.02l-0.77,-0.059l-0.766,-0.099l-0.76,-0.138l-0.752,-0.177l-0.741,-0.216l-0.73,-0.253l-0.716,-0.291l-0.699,-0.327l-0.682,-0.363l-0.663,-0.397l-0.641,-0.431l-0.618,-0.464l-0.593,-0.494l-0.567,-0.525l-0.539,-0.553l-0.51,-0.58l-0.48,-0.606l-0.448,-0.629l-0.415,-0.652l-0.38,-0.672l-0.346,-0.69l-0.309,-0.708l-0.273,-0.723l-0.235,-0.736l-0.197,-0.747l-0.159,-0.756l-0.119,-0.763l-0.079,-0.768l-0.04,-0.771l-0.001,-0.773l0.04,-0.771l0.079,-0.769l0.119,-0.763l0.157,-0.756l0.197,-0.747l0.234,-0.736l0.273,-0.723l0.309,-0.708l0.345,-0.691l0.38,-0.672l60,-100l0.414,-0.652l0.448,-0.63l0.479,-0.606l0.51,-0.58l0.539,-0.554l0.566,-0.524l0.593,-0.495l0.618,-0.464l0.641,-0.432l0.662,-0.398l0.681,-0.363l0.7,-0.328l0.715,-0.291l0.73,-0.254l0.741,-0.216l0.752,-0.178l0.76,-0.138l0.766,-0.1l0.77,-0.06l0.772,-0.02l0.772,0.02Z"/><path id="line36" d="M292.137,456.886l0.77,0.061l0.766,0.101l0.76,0.14l0.751,0.178l0.741,0.218l0.73,0.255l0.715,0.292l0.699,0.329l0.681,0.364l0.661,0.399l0.64,0.432l0.617,0.465l0.593,0.496l0.566,0.525l0.538,0.555l0.509,0.581l0.478,0.606l0.446,0.631l0.414,0.652l59.806,100l0.379,0.673l0.344,0.692l0.308,0.708l0.272,0.723l0.233,0.736l0.196,0.748l0.156,0.756l0.118,0.764l0.078,0.768l0.038,0.771l-0.001,0.773l-0.041,0.771l-0.081,0.768l-0.12,0.763l-0.16,0.756l-0.198,0.747l-0.236,0.735l-0.274,0.723l-0.31,0.707l-0.347,0.69l-0.382,0.672l-0.415,0.651l-0.449,0.629l-0.48,0.604l-0.511,0.58l-0.54,0.552l-0.568,0.524l-0.594,0.493l-0.619,0.463l-0.642,0.43l-0.662,0.396l-0.683,0.362l-0.7,0.327l-0.716,0.289l-0.73,0.253l-0.742,0.214l-0.752,0.176l-0.76,0.138l-0.767,0.097l-0.77,0.059l-0.772,0.018l-0.772,-0.021l-0.77,-0.061l-0.766,-0.101l-0.76,-0.14l-0.751,-0.178l-0.742,-0.217l-0.729,-0.256l-0.715,-0.292l-0.699,-0.328l-0.681,-0.365l-0.661,-0.399l-0.64,-0.432l-0.617,-0.465l-0.593,-0.495l-0.566,-0.526l-0.538,-0.554l-0.509,-0.581l-0.478,-0.607l-0.446,-0.63l-0.414,-0.653l-59.806,-100l-0.379,-0.673l-0.344,-0.691l-0.308,-0.709l-0.272,-0.723l-0.233,-0.736l-0.196,-0.747l-0.156,-0.757l-0.118,-0.763l-0.078,-0.769l-0.038,-0.771l0.001,-0.773l0.041,-0.771l0.081,-0.768l0.12,-0.763l0.16,-0.756l0.198,-0.747l0.236,-0.735l0.274,-0.722l0.31,-0.708l0.347,-0.69l0.381,-0.672l0.416,-0.651l0.449,-0.628l0.48,-0.605l0.511,-0.579l0.54,-0.553l0.568,-0.523l0.594,-0.494l0.619,-0.463l0.641,-0.43l0.663,-0.396l0.683,-0.362l0.7,-0.326l0.716,-0.29l0.73,-0.252l0.742,-0.215l0.752,-0.176l0.76,-0.137l0.767,-0.098l0.77,-0.058l0.772,-0.019l0.772,0.021Z"/><path id="line38" d="M592.567,556.889l0.839,0.07l0.833,0.118l0.825,0.164l0.815,0.21l0.801,0.256l0.787,0.3l0.768,0.344l0.747,0.386l0.725,0.427l0.699,0.468l0.673,0.506l0.643,0.543l0.611,0.578l0.578,0.611l0.543,0.643l0.506,0.672l0.467,0.7l0.428,0.724l0.386,0.748l0.344,0.768l0.3,0.786l0.255,0.802l0.21,0.814l0.164,0.826l0.118,0.833l0.071,0.838l0.023,0.841l-0.023,0.841l-0.071,0.839l-0.118,0.833l-0.164,0.825l-0.21,0.815l-0.255,0.801l-0.3,0.786l-0.344,0.768l-0.386,0.748l-0.428,0.725l-0.467,0.699l-0.506,0.672l-0.543,0.643l-0.578,0.612l-0.611,0.578l-0.643,0.543l-0.673,0.506l-0.699,0.467l-0.725,0.427l-0.747,0.387l-0.768,0.343l-0.787,0.3l-0.801,0.256l-0.815,0.21l-0.825,0.164l-0.833,0.118l-0.839,0.071l-0.841,0.023l-121.726,0l-0.841,-0.023l-0.838,-0.071l-0.834,-0.118l-0.825,-0.164l-0.815,-0.21l-0.801,-0.256l-0.786,-0.3l-0.768,-0.343l-0.748,-0.387l-0.724,-0.427l-0.7,-0.467l-0.672,-0.506l-0.643,-0.543l-0.612,-0.578l-0.578,-0.612l-0.542,-0.643l-0.506,-0.672l-0.468,-0.699l-0.427,-0.725l-0.387,-0.748l-0.343,-0.768l-0.3,-0.786l-0.256,-0.801l-0.21,-0.815l-0.164,-0.825l-0.118,-0.833l-0.07,-0.839l-0.024,-0.841l0.024,-0.841l0.07,-0.838l0.118,-0.833l0.164,-0.826l0.21,-0.814l0.256,-0.802l0.3,-0.786l0.343,-0.768l0.387,-0.748l0.427,-0.724l0.468,-0.7l0.506,-0.672l0.542,-0.643l0.578,-0.611l0.612,-0.578l0.643,-0.543l0.672,-0.506l0.7,-0.468l0.724,-0.427l0.748,-0.386l0.768,-0.344l0.786,-0.3l0.801,-0.256l0.815,-0.21l0.825,-0.164l0.834,-0.118l0.838,-0.07l0.841,-0.024l121.726,0l0.841,0.024Z"/><path id="line42" d="M790.914,456.906l1.115,0.125l1.102,0.207l1.084,0.29l1.059,0.369l1.028,0.448l0.993,0.523l0.95,0.596l0.903,0.665l0.851,0.731l0.794,0.793l0.732,0.849l0.667,0.902l0.598,0.95l0.525,0.991l0.449,1.028l0.372,1.058l0.291,1.083l0.21,1.102l0.126,1.115l0.043,1.121l0.194,220l-0.041,1.121l-0.125,1.115l-0.207,1.102l-0.29,1.084l-0.369,1.059l-0.448,1.028l-0.523,0.993l-0.596,0.95l-0.665,0.903l-0.731,0.851l-0.793,0.794l-0.849,0.732l-0.902,0.667l-0.95,0.598l-0.991,0.525l-1.028,0.449l-1.058,0.372l-1.083,0.291l-1.102,0.21l-1.115,0.126l-1.121,0.043l-1.121,-0.041l-1.115,-0.124l-1.102,-0.208l-1.084,-0.289l-1.059,-0.37l-1.028,-0.448l-0.993,-0.523l-0.95,-0.596l-0.903,-0.665l-0.851,-0.731l-0.794,-0.793l-0.732,-0.849l-0.667,-0.902l-0.598,-0.949l-0.525,-0.992l-0.449,-1.027l-0.372,-1.059l-0.291,-1.083l-0.21,-1.102l-0.126,-1.115l-0.043,-1.121l-0.194,-220l0.041,-1.121l0.125,-1.114l0.207,-1.103l0.29,-1.084l0.369,-1.059l0.448,-1.028l0.523,-0.992l0.596,-0.951l0.665,-0.903l0.731,-0.851l0.793,-0.794l0.849,-0.732l0.902,-0.667l0.95,-0.598l0.991,-0.525l1.028,-0.449l1.058,-0.372l1.083,-0.291l1.102,-0.209l1.115,-0.127l1.121,-0.043l1.121,0.041Z"/><path id="line44" d="M890.581,456.907l1.115,0.126l1.102,0.208l1.083,0.291l1.059,0.37l1.028,0.449l0.992,0.524l0.95,0.597l0.902,0.666l0.851,0.731l0.793,0.794l0.732,0.85l0.666,0.902l0.596,0.95l0.525,0.992l0.448,1.028l0.371,1.059l0.29,1.083l0.209,1.103l0.125,1.114l0.042,1.121l0,220l-0.042,1.121l-0.125,1.115l-0.209,1.102l-0.29,1.083l-0.371,1.059l-0.448,1.028l-0.525,0.992l-0.596,0.95l-0.666,0.902l-0.732,0.851l-0.793,0.793l-0.851,0.732l-0.902,0.666l-0.95,0.597l-0.992,0.524l-1.028,0.448l-1.059,0.371l-1.083,0.29l-1.102,0.209l-1.115,0.125l-1.121,0.042l-1.121,-0.042l-1.115,-0.125l-1.102,-0.209l-1.083,-0.29l-1.059,-0.371l-1.028,-0.448l-0.992,-0.524l-0.95,-0.597l-0.902,-0.666l-0.851,-0.732l-0.793,-0.793l-0.731,-0.851l-0.666,-0.902l-0.597,-0.95l-0.524,-0.992l-0.449,-1.028l-0.371,-1.059l-0.29,-1.083l-0.208,-1.102l-0.126,-1.115l-0.042,-1.121l0,-220l0.042,-1.121l0.126,-1.114l0.208,-1.103l0.29,-1.083l0.371,-1.059l0.449,-1.028l0.524,-0.992l0.597,-0.95l0.666,-0.902l0.731,-0.85l0.793,-0.794l0.851,-0.731l0.902,-0.666l0.95,-0.597l0.992,-0.524l1.028,-0.449l1.059,-0.37l1.083,-0.291l1.102,-0.208l1.115,-0.126l1.121,-0.042l1.121,0.042Z"/><path id="line46" d="M890.76,556.884l0.758,0.058l0.753,0.096l0.748,0.134l0.741,0.172l0.73,0.209l0.72,0.246l0.705,0.282l0.691,0.317l0.674,0.352l0.654,0.385l0.635,0.419l0.613,0.449l0.589,0.481l0.563,0.509l0.538,0.538l0.509,0.564l0.481,0.589l0.449,0.612l0.419,0.635l0.385,0.655l0.352,0.673l0.317,0.691l0.282,0.706l0.246,0.719l0.209,0.73l0.172,0.741l0.134,0.748l0.096,0.754l0.058,0.757l0.019,0.76l-0.019,0.76l-0.058,0.758l-0.096,0.754l-0.134,0.748l-0.172,0.74l-0.209,0.731l-0.246,0.719l-0.282,0.705l-0.317,0.691l-0.352,0.674l-0.385,0.655l-0.419,0.634l-0.449,0.613l-0.481,0.589l-0.509,0.564l-0.538,0.537l-0.563,0.509l-0.589,0.481l-0.613,0.45l-0.635,0.418l-0.654,0.385l-0.674,0.352l-0.691,0.317l-0.705,0.282l-0.72,0.246l-0.73,0.209l-0.741,0.172l-0.748,0.134l-0.753,0.096l-0.758,0.058l-0.76,0.019l-98.814,0l-0.759,-0.019l-0.758,-0.058l-0.754,-0.096l-0.748,-0.134l-0.74,-0.172l-0.731,-0.209l-0.719,-0.246l-0.706,-0.282l-0.691,-0.317l-0.673,-0.352l-0.655,-0.385l-0.635,-0.418l-0.612,-0.45l-0.589,-0.481l-0.564,-0.509l-0.537,-0.537l-0.51,-0.564l-0.48,-0.589l-0.45,-0.613l-0.418,-0.634l-0.386,-0.655l-0.352,-0.674l-0.317,-0.691l-0.282,-0.705l-0.246,-0.719l-0.209,-0.731l-0.172,-0.74l-0.134,-0.748l-0.096,-0.754l-0.057,-0.758l-0.02,-0.76l0.02,-0.76l0.057,-0.757l0.096,-0.754l0.134,-0.748l0.172,-0.741l0.209,-0.73l0.246,-0.719l0.282,-0.706l0.317,-0.691l0.352,-0.673l0.386,-0.655l0.418,-0.635l0.45,-0.612l0.48,-0.589l0.51,-0.564l0.537,-0.538l0.564,-0.509l0.589,-0.481l0.612,-0.449l0.635,-0.419l0.655,-0.385l0.673,-0.352l0.691,-0.317l0.706,-0.282l0.719,-0.246l0.731,-0.209l0.74,-0.172l0.748,-0.134l0.754,-0.096l0.758,-0.058l0.759,-0.019l98.814,0l0.76,0.019Z"/><path d="M650,239.279c25.263,-47.414 75.789,-47.414 101.053,-23.707c25.264,23.707 25.264,71.12 0,118.534c-17.685,35.56 -63.158,71.12 -101.053,94.827c-37.895,-23.707 -83.368,-59.267 -101.053,-94.827c-25.263,-47.414 -25.263,-94.827 0,-118.534c25.264,-23.707 75.79,-23.707 101.053,23.707Z" style="fill:#ff5c49;"/><path d="M851.338,1104.66c0,-8.09 -6.568,-14.659 -14.659,-14.659l-470.681,0c-8.091,0 -14.66,6.569 -14.66,14.659l0,29.318c0,8.091 6.569,14.66 14.66,14.66l470.681,0c8.091,0 14.659,-6.569 14.659,-14.66l0,-29.318Z" style="fill:#d0dada;"/></g></svg>