<?xml version="1.0" encoding="UTF-8" standalone="no"?><!DOCTYPE svg PUBLIC "-//W3C//DTD SVG 1.1//EN" "http://www.w3.org/Graphics/SVG/1.1/DTD/svg11.dtd"><svg width="100%" height="100%" viewBox="0 0 640 640" version="1.1" xmlns="http://www.w3.org/2000/svg" xmlns:xlink="http://www.w3.org/1999/xlink" xml:space="preserve" style="fill-rule:evenodd;clip-rule:evenodd;stroke-linejoin:round;stroke-miterlimit:1.41421;"><path d="M426.918,158.315c0,0 4.02,83.498 39.566,82.523c58.068,-1.592 60.757,-83.677 60.757,-83.677c0,0 3.355,2.125 3.455,4.607c2.443,60.52 -28.532,92.384 -66.618,91.501c-27.721,-1.05 -43.155,-40.461 -49.57,-94.954l12.41,0Z" style="fill:#fff;"/><rect x="527.241" y="341.838" width="102.991" height="55.045" style="fill:#1c3458;"/><rect x="527.241" y="394.22" width="30.185" height="229.067" style="fill:#1c3458;"/><rect x="600.041" y="398.449" width="30.686" height="227.501" style="fill:#1c3458;"/><path d="M559.765,157.208l40.276,0l0,141.219c-11.878,8.753 -21.425,5.163 -22.99,6.637c1.058,5.701 0.692,10.726 1.034,14.845c0.196,-0.182 10.087,-0.476 21.956,-8.175l0,30.104l-40.276,0l0,-184.63Z" style="fill:#e52527;"/><rect x="568.081" y="96.79" width="21.31" height="60.37" style="fill:#ffd191;"/><ellipse cx="560.981" cy="63.677" rx="40.908" ry="48.039" style="fill:#ffd191;"/><path d="M608.358,26.042c0,8.634 -7.001,15.63 -15.631,15.63l-62.526,0c-8.63,0 -15.63,-6.996 -15.63,-15.63c0,-8.635 7,-15.631 15.63,-15.631l62.526,0c8.63,0 15.631,6.996 15.631,15.631Z" style="fill:#fdd501;fill-rule:nonzero;"/><rect x="568.081" y="26.073" width="40.276" height="91.506" style="fill:#fdd501;"/><rect x="527.241" y="157.166" width="33.74" height="262.599" style="fill:#fff;"/><rect x="598.512" y="157.166" width="33.74" height="262.599" style="fill:#fff;"/><rect x="414.508" y="150.364" width="12.409" height="7.951" style="fill:#ffd191;"/><rect x="410.911" y="132.201" width="19.608" height="23.383" style="fill:#ffd191;"/><rect x="426.918" y="114.446" width="3.597" height="17.755" style="fill:#ffd191;"/><path d="M578.407,354.45l-10.597,-24.656l0,-34.675l-9.674,0l0,34.67l-10.598,24.661l30.869,0Z" style="fill:#97ca40;fill-rule:nonzero;"/><rect x="569.444" y="306.541" width="7.946" height="12.409" style="fill:#ffd191;"/><rect x="551.276" y="302.944" width="23.383" height="19.608" style="fill:#ffd191;"/><path d="M598.512,298.427c5.336,-4.062 11.128,-10.764 16.873,-21.841c17.118,-33.01 16.277,-117.379 16.742,-117.812c-0.449,3.158 9.376,87.71 -10.353,125.742c-7.147,13.774 -15.618,22.142 -23.262,27.218l0,-13.307Z" style="fill:#fff;"/><path d="M598.512,298.427l0,13.307c-11.419,7.699 -20.934,7.993 -21.123,8.175c-0.328,-4.119 0.024,-9.144 -0.994,-14.845c1.506,-1.474 10.689,2.116 22.117,-6.637Z" style="fill:#fff;"/><rect x="83.495" y="345.476" width="102.991" height="55.045"/><rect x="83.495" y="397.859" width="30.185" height="229.067"/><rect x="155.799" y="397.643" width="30.686" height="231.946"/><path d="M181.847,160.805l-94.425,0.205l-3.927,184.466l102.991,0l-4.639,-184.671Z" style="fill:#a91f62;"/><rect x="124.34" y="100.434" width="21.31" height="60.37" style="fill:#ffd191;"/><ellipse cx="145.65" cy="67.315" rx="40.908" ry="48.039" style="fill:#ffd191;"/><path d="M192.541,29.68c0,8.635 -7,15.631 -15.63,15.631l-62.526,0c-8.63,0 -15.631,-6.996 -15.631,-15.631c0,-8.634 7.001,-15.63 15.631,-15.63l62.526,0c8.63,0 15.63,7.001 15.63,15.63Z" style="fill:#56261b;fill-rule:nonzero;"/><rect x="99.088" y="29.68" width="40.276" height="91.506" style="fill:#56261b;"/><path d="M78.514,352.399c10.175,-3.054 24.834,-25.518 35.166,-55.437c8.118,-23.503 5.544,-124.098 5.909,-135.964c0.021,-0.653 -36.131,0.099 -36.094,-0.193c0,0 -3.618,69.788 -4.365,102.583c-0.616,26.959 1.258,52.895 -0.616,89.011Z" style="fill:#594a42;fill-rule:nonzero;"/><path d="M198.2,352.399c-11.213,-3.561 -32.492,-26.536 -41.9,-56.455c-7.392,-23.503 -7.455,-127.684 -5.967,-135.139c0.115,-0.585 35.584,0.292 35.552,0c1.848,16.972 0.272,70.033 3.978,102.583c3.19,28.024 7.471,80.303 8.337,89.011Z" style="fill:#594a42;fill-rule:nonzero;"/><path d="M207.3,367.147l-20.36,-153.077l-1.055,-53.265l30.06,206.342l-8.645,0Z" style="fill:#594a42;fill-rule:nonzero;"/><path d="M6.781,239.246c0,26.176 43.257,37.186 64.844,44.881c2.636,0.935 6.056,2.511 8.671,2.25c0.152,-0.851 0.24,-9.188 -0.334,-9.344c-22.156,-6.088 -61.482,-19.087 -61.482,-37.364c0,-25.142 65.1,-68.123 65.1,-68.123c0.324,-0.793 0.439,-10.618 0.439,-10.618c-0.199,1.801 -77.238,46.311 -77.238,78.318Z" style="fill:#594a42;fill-rule:nonzero;"/><path d="M6.616,239.329c0,26.176 43.257,37.186 64.844,44.881c2.636,0.934 6.056,2.511 8.671,2.25c0.152,-0.851 0.24,-9.188 -0.334,-9.345c-22.156,-6.087 -61.482,-19.086 -61.482,-37.363c0,-25.143 65.1,-68.123 65.1,-68.123c0.324,-0.794 0.08,-10.824 0.08,-10.824c-0.199,1.801 -76.879,46.517 -76.879,78.524Z" style="fill:#594a42;fill-rule:nonzero;"/><rect x="79.477" y="273.227" width="7.946" height="12.409" style="fill:#ffd191;"/><rect x="79.312" y="273.309" width="7.946" height="12.409" style="fill:#ffd191;"/><rect x="82.207" y="269.625" width="23.383" height="19.608" style="fill:#ffd191;"/><rect x="82.042" y="269.707" width="23.383" height="19.608" style="fill:#ffd191;"/><rect x="205.914" y="367.147" width="12.409" height="7.946" style="fill:#ffd191;"/><rect x="202.317" y="369.877" width="19.608" height="23.383" style="fill:#ffd191;"/></svg>