<svg id="Layer_1" data-name="Layer 1" xmlns="http://www.w3.org/2000/svg" viewBox="0 0 468.19996 381.79997"><defs><style>.cls-1{fill:#fff;}</style></defs><title>T--Lund--speedometer_round</title><path class="cls-1" d="M163.2,435.2a30.54915,30.54915,0,0,1-16.6-58.8l-.4-1.5a32.00516,32.00516,0,0,0,17.4,61.6Z" transform="translate(-16.2 -59.2)"/><rect class="cls-1" x="147.49093" y="375.39431" width="1.19993" height="17.49909" transform="translate(-115.04005 -4.48371) rotate(-15.77224)"/><rect class="cls-1" x="154.37117" y="403.37894" width="1.19993" height="9.79948" transform="translate(-121.34119 -1.70488) rotate(-15.77224)"/><rect class="cls-1" x="161.08279" y="427.99475" width="1.19993" height="8.59956" transform="translate(-127.61634 1.02363) rotate(-15.77224)"/><rect class="cls-1" x="140.68899" y="393.23736" width="10.49946" height="1.19993" transform="translate(-117.7559 -4.70374) rotate(-15.77224)"/><rect class="cls-1" x="144.01588" y="404.88945" width="10.49946" height="1.19993" transform="translate(-120.79785 -3.36074) rotate(-15.77224)"/><rect class="cls-1" x="142.56857" y="394.8003" width="1.19993" height="12.69936" transform="translate(-119.84788 -5.18139) rotate(-15.77224)"/><path class="cls-1" d="M160.9,427.3c-.2.1-.4.1-.6.2a7.21837,7.21837,0,1,1-3.9-13.9,1.26825,1.26825,0,0,1,.6-.1l-.3-1.2c-.2,0-.4.1-.6.1a8.42021,8.42021,0,1,0,4.6,16.2c.2-.1.4-.1.6-.2Z" transform="translate(-16.2 -59.2)"/><path class="cls-1" d="M160.1,424.6a4.28216,4.28216,0,0,1-5.2-3,4.379,4.379,0,0,1,3-5.4l2.5-.7-.1-.3c-.4-.1-.7-.1-1.1-.2a4.40354,4.40354,0,0,0-1.6.2c-.1,0-.1,0-.2.1a5.31749,5.31749,0,0,0,3,10.2h.1a10.09128,10.09128,0,0,0,1.5-.7,2.6956,2.6956,0,0,0,.8-.7l.4-.4Z" transform="translate(-16.2 -59.2)"/><path class="cls-1" d="M161.7,424.1l.3,1,1-.3-.3-1Zm-6.6-23.4,4.3,15.1,1-.3-4.3-15.1Z" transform="translate(-16.2 -59.2)"/><path class="cls-1" d="M144.3,396.3l2.2,7.9,9.8-2.8-.3-1-8.9,2.5-1.7-5.9,15.6-4.4-.3-1Z" transform="translate(-16.2 -59.2)"/><rect class="cls-1" x="159.98445" y="423.29482" width="9.6995" height="0.99995" transform="translate(-125.18735 1.56022) rotate(-15.77224)"/><rect class="cls-1" x="157.37143" y="414.9004" width="2.79986" height="0.99995" transform="translate(-123.13389 -0.40379) rotate(-15.77224)"/><rect class="cls-1" x="164.28269" y="391.18945" width="0.99995" height="32.49832" transform="translate(-120.74344 0.9304) rotate(-15.77224)"/><path class="cls-1" d="M169.1,398.5l-7.8-17,10.8-4.9,7.8,17Zm-6.5-16.6,6.9,15.2,8.9-4.1-6.9-15.2Z" transform="translate(-16.2 -59.2)"/><path class="cls-1" d="M176.9,418.9a14.91776,14.91776,0,0,1-2.1-.2l-.5-.1,4.2-17.8.5.1a9.18373,9.18373,0,0,1,5.7,4.1,8.82081,8.82081,0,0,1,1.1,6.9A9.10724,9.10724,0,0,1,176.9,418.9Zm-1.3-1.1a8.21317,8.21317,0,0,0,9.3-6.2,8.125,8.125,0,0,0-5.6-9.7Z" transform="translate(-16.2 -59.2)"/><path class="cls-1" d="M311.8,380.2l2.2,5a6.49172,6.49172,0,0,0,4.4-6.2,6.6,6.6,0,1,0-13.2,0,6.49178,6.49178,0,0,0,4.4,6.2Z" transform="translate(-16.2 -59.2)"/><path class="cls-1" d="M309.8,385.7l-.4-.1a7,7,0,1,1,4.6,0l-.4.1-2-4.5Zm2-6.6,2.4,5.5a6.2,6.2,0,1,0-4.8,0Z" transform="translate(-16.2 -59.2)"/><path class="cls-1" d="M361.6,397.4l-5,2.2a6.49172,6.49172,0,0,0,6.2,4.4,6.6,6.6,0,0,0,0-13.2,6.49178,6.49178,0,0,0-6.2,4.4Z" transform="translate(-16.2 -59.2)"/><path class="cls-1" d="M362.8,404.5a7.00489,7.00489,0,0,1-6.6-4.7l-.1-.4,4.5-2-4.5-2,.1-.4a6.99337,6.99337,0,0,1,13.6,2.3A7.12973,7.12973,0,0,1,362.8,404.5Zm-5.7-4.6a6.2,6.2,0,1,0,0-4.8l5.5,2.4Z" transform="translate(-16.2 -59.2)"/><path class="cls-1" d="M308,424.4l6.4-2.8a8.39188,8.39188,0,1,0-7.9,11.2,8.23455,8.23455,0,0,0,7.9-5.6Z" transform="translate(-16.2 -59.2)"/><path class="cls-1" d="M306.5,433.3a8.8,8.8,0,1,1,8.3-11.7l.1.4-5.9,2.6,5.9,2.6-.1.4A8.94539,8.94539,0,0,1,306.5,433.3Zm0-16.9a8,8,0,1,0,7.4,11l-6.9-3,6.9-3A8.04992,8.04992,0,0,0,306.5,416.4Z" transform="translate(-16.2 -59.2)"/><path class="cls-1" d="M334.7,404.9l-2.8-6.4a8.39188,8.39188,0,1,0,11.2,7.9,8.23456,8.23456,0,0,0-5.6-7.9Z" transform="translate(-16.2 -59.2)"/><path class="cls-1" d="M334.7,415.2a8.79505,8.79505,0,0,1-2.9-17.1l.4-.1,2.6,5.9,2.6-5.9.4.1a8.84306,8.84306,0,0,1,5.9,8.3A8.98565,8.98565,0,0,1,334.7,415.2Zm-3-16.2a7.99348,7.99348,0,1,0,11,7.4,8.04992,8.04992,0,0,0-5-7.4l-3,6.9Z" transform="translate(-16.2 -59.2)"/><path class="cls-1" d="M350,428.1l5.3-2.3a6.99337,6.99337,0,0,0-13.6,2.3,6.99337,6.99337,0,0,0,13.6,2.3Z" transform="translate(-16.2 -59.2)"/><path class="cls-1" d="M348.8,435.5a7.4,7.4,0,1,1,0-14.8,7.569,7.569,0,0,1,7,4.9l.1.4-4.8,2.1,4.8,2.1-.1.4A7.42707,7.42707,0,0,1,348.8,435.5Zm0-13.9a6.5,6.5,0,1,0,6,9l-5.8-2.5,5.8-2.5A6.55008,6.55008,0,0,0,348.8,421.6Z" transform="translate(-16.2 -59.2)"/><path class="cls-1" d="M322.8,400.7H322v-.1a.76381.76381,0,0,0-.2-.5l.3-.7-.8.2c-.2-.1-.4-.3-.6-.4l-.1-1-.9.7h-.3l-.3-1.4-.8,1.4h-.2l-.7-1.2-.4,1.5c-.1,0-.1.1-.2.1l-1.7-.8.6,1.6-.2.2-1.3-.3.9,1a3.0911,3.0911,0,0,0-.2.8l-1,.9,1.1-.1a2.65132,2.65132,0,0,0,.5.6l-.1,1.5.9-1a.60116.60116,0,0,0,.4.1l.3,1.1.6-.9h.4l.5,1.4.2-1.5h.2l1,1v-1.3c.1,0,.1-.1.2-.1l1.3.6L321,403l.2-.2,1,.2-.5-.9a6.88651,6.88651,0,0,0,.3-.8Zm-1.1.6a.7638.7638,0,0,1-.2.5h0c-.1.1-.1.2-.2.3l.2.3.1.2h-.2l-.4-.1-.4.4.1.3.1.4-.4-.2-.4-.2a.7638.7638,0,0,1-.5.2v.9l-.3-.3-.3-.3h-.1c-.1,0-.3.1-.4.1l-.1.4v.3l-.1-.3-.1-.3h-.8l-.2.3-.2.3L317,404l-.1-.4a.36727.36727,0,0,1-.3-.1h-.1c-.1,0-.2-.1-.3-.1l-.2.2-.3.3v-.8l-.3-.3-.2-.2a.36739.36739,0,0,1-.1-.3h-.5l.1-.1.3-.3v-.4a.36729.36729,0,0,1,.1-.3h0c0-.1.1-.2.1-.3l-.2-.3-.2-.2.3.1.3.1c.1-.2.3-.3.4-.5l-.1-.3-.3-.8.9.4.4.2c.1-.1.2-.1.4-.2l.1-.4.2-.7.3.5.2.3c.1,0,.3-.1.4-.1l.2-.4.3-.6.1.6.1.3h.5l.4-.3.3-.2v.7c.1,0,.2.1.3.1l.1.1c.1.1.2.2.3.2l.4-.1h0l-.1.3c.1.1.1.2.2.3a.34913.34913,0,0,0,.1.2h0v.3h.3Z" transform="translate(-16.2 -59.2)"/><path class="cls-1" d="M339,392.7l-.8.1v-.1c-.1-.2-.2-.3-.3-.5l.2-.8-.7.4a1.4212,1.4212,0,0,0-.6-.2l-.3-.9-.8.9h-.3l-.6-1.3-.5,1.6c-.1,0-.1,0-.2.1l-.9-1-.1,1.6c-.1,0-.1.1-.2.1l-1.8-.4.9,1.4c-.1.1-.1.2-.2.3h-1.3l1.1.8a1.38734,1.38734,0,0,0,0,.9l-.8,1.1,1.1-.3a2.65157,2.65157,0,0,0,.6.5l.2,1.5.7-1.2a4.33015,4.33015,0,0,0,.5.1l.5,1,.4-1.1c.1,0,.3-.1.4-.1l.8,1.3-.1-1.5c.1,0,.1-.1.2-.1l1.1.8-.3-1.3c.1,0,.1-.1.2-.2l1.4.3-.7-1.1.2-.2h1l-.6-.8a2.20174,2.20174,0,0,0,.1-.8Zm-1,.7v.5h0c0,.1-.1.2-.1.3l.2.3.1.1h-.6c-.1.2-.2.3-.3.5l.2.3.2.4-.5-.1-.4-.1c-.1.1-.3.2-.4.3l.1.4.1.4-.4-.3-.3-.2h-.1c-.1.1-.3.1-.4.2v.7l-.2-.2-.2-.3c-.1,0-.2.1-.3.1h-.1a.36728.36728,0,0,0-.3.1l-.1.4-.1.3-.1-.3-.2-.3h-.4a.3673.3673,0,0,1-.3-.1l-.2.3-.2.3-.1-.4v-.4c-.1-.1-.2-.1-.3-.2l-.2-.2c-.1-.1-.1-.2-.2-.3l-.3.1h-.1l.1-.1.2-.3c0-.1-.1-.3-.1-.4v-.3h0a.36727.36727,0,0,1,.1-.3l-.3-.2-.2-.2h.7a2.187,2.187,0,0,1,.3-.5l-.2-.3-.4-.7.9.2.4.1c.1-.1.2-.2.3-.2v-1.1l.4.4.3.3c.1-.1.3-.1.4-.2l.1-.4.2-.6.3.5.2.3a4.33022,4.33022,0,0,0,.5-.1l.3-.3.2-.3.1.3.1.3a.36728.36728,0,0,1,.3.1h.2c.1,0,.2.1.4.2l.3-.2h0l-.1.4c.1.1.2.2.2.3s.1.1.1.2h0c0,.1.1.2.1.3l.3-.1h0Z" transform="translate(-16.2 -59.2)"/><path class="cls-1" d="M354.6,409.5l-.8.1v-.1c-.1-.2-.2-.3-.3-.5l.2-.8-.7.4a1.42122,1.42122,0,0,0-.6-.2l-.3-.9-.8.9h-.3l-.6-1.3-.5,1.6c-.1,0-.1,0-.2.1l-.9-1-.1,1.6c-.1,0-.1.1-.2.1l-1.8-.4.9,1.4c-.1.1-.1.2-.2.3h-1.3l1.1.8a1.38747,1.38747,0,0,0,0,.9l-.8,1.1,1.1-.3a2.65114,2.65114,0,0,0,.6.5l.2,1.5.7-1.2a4.33105,4.33105,0,0,0,.5.1l.5,1,.4-1.1c.1,0,.3-.1.4-.1l.8,1.3-.1-1.5c.1,0,.1-.1.2-.1l1.1.8-.3-1.3c.1,0,.1-.1.2-.2l1.4.3-.7-1.1.2-.2h1l-.6-.8a2.20159,2.20159,0,0,0,.1-.8Zm-1,.8v.5h0c0,.1-.1.2-.1.3l.2.3.1.1h-.6c-.1.2-.2.3-.3.5l.2.3.2.4-.5-.1-.4-.1c-.1.1-.3.2-.4.3l.1.4.1.4-.4-.3-.3-.2h-.1c-.1.1-.3.1-.4.2v.7l-.2-.2-.2-.3c-.1,0-.2.1-.3.1h-.1a.36727.36727,0,0,0-.3.1l-.1.4-.1.3-.1-.3-.2-.3h-.4a.36729.36729,0,0,1-.3-.1l-.2.3-.2.3-.1-.4v-.4c-.1-.1-.2-.1-.3-.2l-.2-.2c-.1-.1-.1-.2-.2-.3l-.3.1h-.1l.1-.1.2-.3c0-.1-.1-.3-.1-.4v-.3h0a.36731.36731,0,0,1,.1-.3l-.3-.2-.2-.2h.7a2.187,2.187,0,0,1,.3-.5l-.2-.3-.4-.7.9.2.4.1c.1-.1.2-.2.3-.2v-1.1l.4.4.3.3c.1-.1.3-.1.4-.2l.1-.4.2-.6.3.5.2.3a4.33105,4.33105,0,0,0,.5-.1l.3-.3.2-.3.1.3.1.3a.36732.36732,0,0,1,.3.1h.2c.1,0,.2.1.4.2l.3-.2h0l-.1.4c.1.1.2.2.2.3s.1.1.1.2h0c0,.1.1.2.1.3l.3-.1h0Z" transform="translate(-16.2 -59.2)"/><path class="cls-1" d="M371.8,410.8l-.8.1v-.1c-.1-.2-.2-.3-.3-.5l.2-.8-.7.4a1.42134,1.42134,0,0,0-.6-.2l-.3-.9-.8.9h-.3l-.6-1.3-.5,1.6c-.1,0-.1,0-.2.1l-.9-1-.1,1.6c-.1,0-.1.1-.2.1l-1.8-.4.9,1.4c-.1.1-.1.2-.2.3h-1.3l1.1.8a1.3875,1.3875,0,0,0,0,.9l-.8,1.1,1.1-.3a2.65135,2.65135,0,0,0,.6.5l.2,1.5.7-1.2a4.33067,4.33067,0,0,0,.5.1l.5,1,.4-1.1c.1,0,.3-.1.4-.1l.8,1.3-.1-1.5c.1,0,.1-.1.2-.1l1.1.8-.3-1.3c.1,0,.1-.1.2-.2l1.4.3-.7-1.1.2-.2h1l-.6-.8a2.20159,2.20159,0,0,0,.1-.8Zm-1,.8v.5h0c0,.1-.1.2-.1.3l.2.3.1.1h-.6c-.1.2-.2.3-.3.5l.2.3.2.4-.5-.1-.4-.1c-.1.1-.3.2-.4.3l.1.4.1.4-.4-.3-.3-.2h-.1c-.1.1-.3.1-.4.2v.7l-.2-.2-.2-.3c-.1,0-.2.1-.3.1h-.1a.36727.36727,0,0,0-.3.1l-.1.4-.1.3-.1-.3-.2-.3h-.4a.3673.3673,0,0,1-.3-.1l-.2.3-.2.3-.1-.4v-.4c-.1-.1-.2-.1-.3-.2l-.2-.2c-.1-.1-.1-.2-.2-.3l-.3.1h-.1l.1-.1.2-.3c0-.1-.1-.3-.1-.4v-.3h0a.36728.36728,0,0,1,.1-.3l-.3-.2-.2-.2h.7a2.18662,2.18662,0,0,1,.3-.5l-.2-.3-.4-.7.9.2.4.1c.1-.1.2-.2.3-.2v-1.1l.4.4.3.3c.1-.1.3-.1.4-.2l.1-.4.2-.6.3.5.2.3a4.33067,4.33067,0,0,0,.5-.1l.3-.3.2-.3.1.3.1.3a.36729.36729,0,0,1,.3.1h.2c.1,0,.2.1.4.2l.3-.2h0l-.1.4c.1.1.2.2.2.3s.1.1.1.2h0c0,.1.1.2.1.3l.3-.1h0Z" transform="translate(-16.2 -59.2)"/><path class="cls-1" d="M339.1,423.3h-.8v-.1a2.187,2.187,0,0,0-.3-.5l.3-.8-.8.3-.6-.3-.2-1-.9.8h-.3l-.5-1.3-.6,1.5c-.1,0-.1,0-.2.1l-.8-1.1-.3,1.5c-.1,0-.1.1-.2.1l-1.7-.6.7,1.5c-.1.1-.1.2-.2.3l-1.3-.2,1,.9a2.76856,2.76856,0,0,0-.1.9l-.9,1,1.1-.2a2.65132,2.65132,0,0,0,.5.6v1.5l.8-1.1a4.3306,4.3306,0,0,0,.5.1l.4,1.1.6-1h.4l.6,1.3.1-1.5c.1,0,.1,0,.2-.1l1,.9-.2-1.3c.1,0,.1-.1.2-.1l1.3.5-.5-1.1.2-.2,1,.1-.5-.8a2.35346,2.35346,0,0,0,.2-.8Zm-1.1.7a.7493.7493,0,0,1-.1.5h0c0,.1-.1.2-.1.3l.2.3.1.1h-.2l-.4-.1a.78084.78084,0,0,1-.4.4l.1.3.2.4-.5-.2-.4-.1c-.1.1-.3.2-.4.3v.4l.1.4-.4-.3-.3-.3h-.1c-.1,0-.3.1-.4.1v.7l-.1-.3-.2-.3h-.8l-.2.3-.2.3-.1-.3-.1-.4a.36729.36729,0,0,1-.3-.1h-.1c-.1,0-.2-.1-.3-.1l-.2.3-.2.3v-.8c-.1-.1-.2-.1-.3-.2l-.2-.2c-.1-.1-.1-.2-.2-.3l-.3.1H331l.1-.1.3-.3v-.7h0c0-.1.1-.2.1-.3l-.3-.2-.2-.2h.3l.3.1a1.75578,1.75578,0,0,1,.4-.5l-.2-.3-.4-.8.9.3.4.1c.1-.1.2-.1.3-.2l.1-.4.1-.7.4.5.2.3a.6012.6012,0,0,1,.4-.1l.2-.4.3-.6.2.6.1.3h.5l.3-.3.3-.2.1.3.1.4c.1,0,.2.1.3.1a.09794.09794,0,0,1,.1.1c.1.1.2.1.3.2l.4-.1h0l-.1.3c.1.1.2.2.2.3s.1.1.1.2h0c0,.1.1.2.1.3h.3Z" transform="translate(-16.2 -59.2)"/><path class="cls-1" d="M323.5,435.7h-.8v-.1a2.18618,2.18618,0,0,0-.3-.5l.3-.8-.8.3-.6-.3-.2-1-.9.8h-.3l-.5-1.3-.6,1.5c-.1,0-.1,0-.2.1l-.8-1.1-.3,1.5c-.1,0-.1.1-.2.1l-1.7-.6.7,1.5c-.1.1-.1.2-.2.3l-1.3-.2,1,.9a2.76824,2.76824,0,0,0-.1.9l-.9,1,1.1-.2a2.65157,2.65157,0,0,0,.5.6v1.5l.8-1.1a4.33067,4.33067,0,0,0,.5.1l.4,1.1.6-1h.4l.6,1.3.1-1.5c.1,0,.1,0,.2-.1l1,.9-.2-1.3c.1,0,.1-.1.2-.1l1.3.5-.5-1.1.2-.2,1,.1-.5-.8a2.35318,2.35318,0,0,0,.2-.8Zm-1.1.7a.74933.74933,0,0,1-.1.5h0c0,.1-.1.2-.1.3l.2.3.1.1h-.2l-.4-.1a.78076.78076,0,0,1-.4.4l.1.3.2.4-.5-.2-.4-.1c-.1.1-.3.2-.4.3v.4l.1.4-.4-.3L320,439h-.1c-.1,0-.3.1-.4.1v.7l-.1-.3-.2-.3h-.8l-.2.3-.2.3-.1-.3-.1-.4a.36729.36729,0,0,1-.3-.1h-.1c-.1,0-.2-.1-.3-.1l-.2.3-.2.3v-.8c-.1-.1-.2-.1-.3-.2l-.2-.2c-.1-.1-.1-.2-.2-.3l-.3.1h-.2l.1-.1.3-.3V437h0c0-.1.1-.2.1-.3l-.3-.2-.2-.2h.3l.3.1a1.75627,1.75627,0,0,1,.4-.5l-.2-.3-.4-.8.9.3.4.1c.1-.1.2-.1.3-.2l.1-.4.1-.7.4.5.2.3a.60119.60119,0,0,1,.4-.1l.2-.4.3-.6.2.6.1.3h.5l.3-.3.3-.2.1.3.1.4c.1,0,.2.1.3.1a.098.098,0,0,1,.1.1c.1.1.2.1.3.2l.4-.1h0l-.1.3c.1.1.2.2.2.3s.1.1.1.2h0c0,.1.1.2.1.3h.3Z" transform="translate(-16.2 -59.2)"/><path class="cls-1" d="M331.9,431.8l-.7.2v-.1c-.1-.1-.2-.3-.3-.4l.1-.6-.6.4a1.0872,1.0872,0,0,0-.5-.1l-.3-.7-.6.8c-.1,0-.2,0-.2.1l-.6-1-.2,1.3a.098.098,0,0,0-.1.1l-.9-.7.1,1.3-.1.1-1.5-.2.8,1.1a.34917.34917,0,0,1-.1.2l-1.1.1.9.6a1.70167,1.70167,0,0,0,.1.7l-.5.9.9-.4a2.18107,2.18107,0,0,0,.5.4l.3,1.2.4-1h.4l.5.8.3-.9c.1,0,.2-.1.3-.1l.8,1-.2-1.2c.1,0,.1-.1.2-.1l1,.5-.4-1a.098.098,0,0,0,.1-.1l1.1.2-.6-.8c0-.1.1-.1.1-.2l.8-.1-.6-.6c0-.2.1-.5,0-.7Zm-.7.8v.5h0a.3673.3673,0,0,1-.1.3l.2.2.1.1H331c-.1.1-.1.3-.2.4l.2.2.2.3-.4-.1h-.3l-.3.3.1.3.1.3-.3-.2-.3-.2h-.1c-.1.1-.2.1-.3.2v.5l-.1-.2-.2-.2c-.1,0-.1.1-.2.1h-.1c-.1,0-.2.1-.3.1l-.1.3-.1.3-.1-.2-.2-.3h-.7l-.1.3-.1.3-.1-.3-.1-.3c-.1,0-.2-.1-.3-.1s-.1-.1-.2-.1l-.2-.2-.2.1-.1.1.1-.1.2-.3c0-.1-.1-.2-.1-.3v-.2h0v-.3l-.2-.1-.2-.1h.5c0-.2.1-.3.2-.5l-.2-.2-.4-.6.8.1h.3l.2-.2v-.9l.4.3.2.2c.1-.1.2-.1.3-.2l.1-.3.1-.5.3.4.2.2c.1,0,.3-.1.4-.1l.2-.3.2-.2.1.2.1.3h.4c.1,0,.2.1.3.1l.3-.2h0v.3c.1.1.2.1.2.2a.34917.34917,0,0,1,.1.2h0c0,.1.1.1.1.2l.3-.1h0Z" transform="translate(-16.2 -59.2)"/><path class="cls-1" d="M307.9,408l-.3.4h0c-.1,0-.2-.1-.3-.1l-.3-.4-.2.5c-.1,0-.2.1-.4.2l-.5-.3v.7l-.1.1-.8-.3.4.8v.1h-.8l.6.7v.1l-.9.6,1,.2c0,.1,0,.1.1.2l-.6.5.8-.1c.1.1.2.3.4.4l.1.8.3-.6h.5l.7.5-.2-.8c.1,0,.1-.1.2-.2l.6.2-.3-.6c0-.1.1-.1.1-.2l.8.2-.7-.6a.098.098,0,0,1,.1-.1l.8-.1-.7-.4v-.1l.7-.4-.7-.2v-.2l.4-.4-.6-.1c-.1-.1-.2-.3-.3-.4Zm-.1.7c.1.1.1.2.2.2h0c0,.1.1.1.1.2h.3l-.1.1-.2.2a.36731.36731,0,0,0,.1.3l.2.1.2.1-.2.1-.2.1v.3l.2.1.2.1h-.5v.1a.34917.34917,0,0,1-.1.2l.2.1.1.1h-.4a.09794.09794,0,0,1-.1.1h0c0,.1-.1.1-.1.2l.1.2.1.2-.2-.1-.2-.1-.1.1h-.1c-.1,0-.1.1-.2.1v.2l.1.2-.2-.2-.2-.1h-.6l-.1.2v-.2c-.1,0-.1-.1-.2-.1l-.1-.1h0a.34913.34913,0,0,1-.1-.2h-.4l.1-.1.2-.1c0-.1-.1-.2-.1-.4h-.2l-.5-.1.5-.3.2-.1v-.2l-.2-.2-.3-.3h.5a.34918.34918,0,0,1,.1-.2l-.1-.2-.2-.4.3.1.2.1c.1-.1.1-.2.2-.2v-.5l.2.1.2.1c.1,0,.1-.1.2-.1h.1c.1,0,.1-.1.2-.1l.1-.2h0l.1.2h.3c.1,0,.1,0,.2.1l.1-.2h0Z" transform="translate(-16.2 -59.2)"/><path class="cls-1" d="M312.9,384.4l-.3.4h0c-.1,0-.2-.1-.3-.1l-.3-.4-.2.5c-.1,0-.2.1-.4.2l-.5-.3v.7l-.1.1-.8-.3.4.8v.1h-.8l.6.7v.1l-.9.6,1,.2c0,.1,0,.1.1.2l-.6.5.8-.1c.1.1.2.3.4.4l.1.8.3-.6h.5l.7.5-.2-.8c.1,0,.1-.1.2-.2l.6.2-.3-.6c0-.1.1-.1.1-.2l.8.2-.7-.6a.09794.09794,0,0,1,.1-.1l.8-.1-.7-.4v-.1l.7-.4-.7-.2v-.2l.4-.4-.6-.1c-.1-.1-.2-.3-.3-.4Zm-.1.8c.1.1.1.2.2.2h0c0,.1.1.1.1.2h.3l-.1.1-.2.2a.36731.36731,0,0,0,.1.3l.2.1.2.1-.2.1-.2.1v.3l.2.1.2.1h-.5v.1a.34917.34917,0,0,1-.1.2l.2.1.1.1h-.4a.09794.09794,0,0,1-.1.1h0c0,.1-.1.1-.1.2l.1.2.1.2-.2-.1-.2-.1-.1.1h-.1c-.1,0-.1.1-.2.1v.2l.1.2-.2-.2-.2-.1h-.6l-.1.2v-.2c-.1,0-.1-.1-.2-.1l-.1-.1h0a.34913.34913,0,0,1-.1-.2h-.4l.1-.1.2-.1c0-.1-.1-.2-.1-.4h-.2l-.5-.1.5-.3.2-.1v-.2l-.2-.2-.3-.3h.5a.34918.34918,0,0,1,.1-.2l-.1-.2-.2-.4.3.1.2.1c.1-.1.1-.2.2-.2v-.5l.2.1.2.1c.1,0,.1-.1.2-.1h.1c.1,0,.1-.1.2-.1l.1-.2h0l.1.2h.3c.1,0,.1,0,.2.1l.1-.2h0Z" transform="translate(-16.2 -59.2)"/><path class="cls-1" d="M321.5,414.1l-.3.4h0c-.1,0-.2-.1-.3-.1l-.3-.4-.2.5c-.1,0-.2.1-.4.2l-.5-.3v.7l-.1.1-.8-.3.4.8v.1h-.8l.6.7v.1l-.9.6,1,.2c0,.1,0,.1.1.2l-.6.5.8-.1c.1.1.2.3.4.4l.1.8.3-.6h.5l.7.5-.2-.8c.1,0,.1-.1.2-.2l.6.2-.3-.6c0-.1.1-.1.1-.2l.8.2-.7-.6a.098.098,0,0,1,.1-.1l.8-.1-.7-.4v-.1l.7-.4-.7-.2v-.2l.4-.4-.6-.1c-.1-.1-.2-.3-.3-.4Zm-.1.7c.1.1.1.2.2.2h0c0,.1.1.1.1.2h.3l-.1.1-.2.2a.36729.36729,0,0,0,.1.3l.2.1.2.1-.2.1-.2.1v.3l.2.1.2.1h-.5v.1a.34918.34918,0,0,1-.1.2l.2.1.1.1h-.4a.098.098,0,0,1-.1.1h0c0,.1-.1.1-.1.2l.1.2.1.2-.2-.1L321,418l-.1.1h-.1c-.1,0-.1.1-.2.1v.2l.1.2-.2-.2-.2-.1h-.6l-.1.2v-.2c-.1,0-.1-.1-.2-.1l-.1-.1h0a.34917.34917,0,0,1-.1-.2h-.4l.1-.1.2-.1c0-.1-.1-.2-.1-.4h-.2l-.5-.1.5-.3.2-.1v-.2l-.2-.2-.3-.3h.5a.34918.34918,0,0,1,.1-.2l-.1-.2-.2-.4.3.1.2.1c.1-.1.1-.2.2-.2v-.5l.2.1.2.1c.1,0,.1-.1.2-.1h.1c.1,0,.1-.1.2-.1l.1-.2h0l.1.2h.3c.1,0,.1,0,.2.1l.1-.2h0Z" transform="translate(-16.2 -59.2)"/><path class="cls-1" d="M362,421.3l-.3.4h0c-.1,0-.2-.1-.3-.1l-.3-.4-.2.5c-.1,0-.2.1-.4.2l-.5-.3v.7l-.1.1-.8-.3.4.8v.1h-.8l.6.7v.1l-.9.6,1,.2c0,.1,0,.1.1.2l-.6.5.8-.1c.1.1.2.3.4.4l.1.8.3-.6h.5l.7.5-.2-.8c.1,0,.1-.1.2-.2l.6.2L362,425c0-.1.1-.1.1-.2l.8.2-.7-.6a.09794.09794,0,0,1,.1-.1l.8-.1-.7-.4v-.1l.7-.4-.7-.2v-.2l.4-.4-.6-.1c-.1-.1-.2-.3-.3-.4Zm-.1.8c.1.1.1.2.2.2h0c0,.1.1.1.1.2h.3l-.1.1-.2.2a.3673.3673,0,0,0,.1.3l.2.1.2.1-.2.1-.2.1v.3l.2.1.2.1h-.5v.1a.34918.34918,0,0,1-.1.2l.2.1.1.1H362a.098.098,0,0,1-.1.1h0c0,.1-.1.1-.1.2l.1.2.1.2-.2-.1-.2-.1-.1.1h-.1c-.1,0-.1.1-.2.1v.2l.1.2-.2-.2-.2-.1h-.6l-.1.2v-.2c-.1,0-.1-.1-.2-.1l-.1-.1h0a.34918.34918,0,0,1-.1-.2h-.4l.1-.1.2-.1c0-.1-.1-.2-.1-.4h-.2l-.5-.1.5-.3.2-.1v-.2l-.2-.2-.3-.3h.5a.34913.34913,0,0,1,.1-.2l-.1-.2-.2-.4.3.1.2.1c.1-.1.1-.2.2-.2v-.5l.2.1.2.1c.1,0,.1-.1.2-.1h.1c.1,0,.1-.1.2-.1l.1-.2h0l.1.2h.3c.1,0,.1,0,.2.1l.1-.2h0Z" transform="translate(-16.2 -59.2)"/><path class="cls-1" d="M350.4,388.3l-.3.4h0c-.1,0-.2-.1-.3-.1l-.3-.4-.2.5c-.1,0-.2.1-.4.2l-.5-.3v.7l-.1.1-.8-.3.4.8v.1h-.8l.6.7v.1l-.9.6,1,.2c0,.1,0,.1.1.2l-.6.5.8-.1c.1.1.2.3.4.4l.1.8.3-.6h.5l.7.5-.2-.8c.1,0,.1-.1.2-.2l.6.2-.3-.6c0-.1.1-.1.1-.2l.8.2-.7-.6a.098.098,0,0,1,.1-.1l.8-.1-.7-.4v-.1l.7-.4-.5-.2v-.2l.4-.4-.6-.1c-.1-.1-.2-.3-.3-.4Zm0,.8c.1.1.1.2.2.2h0c0,.1.1.1.1.2h.3l-.1.1-.2.2a.3673.3673,0,0,0,.1.3l.2.1.2.1-.2.1-.2.1v.3l.2.1.2.1h-.5v.1a.34918.34918,0,0,1-.1.2l.2.1.1.1h-.4a.098.098,0,0,1-.1.1h0c0,.1-.1.1-.1.2l.1.2.1.2-.2-.1-.2-.1-.1.1h-.1c-.1,0-.1.1-.2.1v.2l.1.2-.2-.2-.2-.1h-.6l-.1.2v-.2c-.1,0-.1-.1-.2-.1l-.1-.1h0a.34918.34918,0,0,1-.1-.2h-.4l.1-.1.2-.1c0-.1-.1-.2-.1-.4h-.2l-.5-.1.5-.3.2-.1v-.2l-.2-.2-.3-.3h.5a.34913.34913,0,0,1,.1-.2l-.1-.2-.2-.4.3.1.2.1c.1-.1.1-.2.2-.2v-.5l.2.1.2.1c.1,0,.1-.1.2-.1h.1c.1,0,.1-.1.2-.1l.1-.2h0l.1.2h.3c.1,0,.1,0,.2.1l.1-.2h0Z" transform="translate(-16.2 -59.2)"/><path class="cls-1" d="M366.3,428.9l-.3.4h0c-.1,0-.2-.1-.3-.1l-.3-.4-.2.5c-.1,0-.2.1-.4.2l-.5-.3v.7l-.1.1-.8-.3.4.8v.1H363l.6.7v.1l-.9.6,1,.2c0,.1,0,.1.1.2l-.6.5.8-.1c.1.1.2.3.4.4l.1.8.3-.6h.5l.7.5-.2-.8c.1,0,.1-.1.2-.2l.6.2-.3-.6c0-.1.1-.1.1-.2l.8.2-.7-.6a.09794.09794,0,0,1,.1-.1l.8-.1-.7-.4v-.1l.7-.4-.7-.2v-.2l.4-.4-.6-.1c-.1-.1-.2-.3-.3-.4Zm-.1.7c.1.1.1.2.2.2h0c0,.1.1.1.1.2h.3l-.1.1-.2.2a.3673.3673,0,0,0,.1.3l.2.1.2.1-.2.1-.2.1v.3l.2.1.2.1h-.5v.1a.34917.34917,0,0,1-.1.2l.2.1.1.1h-.4a.098.098,0,0,1-.1.1h0c0,.1-.1.1-.1.2l.1.2.1.2-.2-.1-.2-.1-.1.1h-.1c-.1,0-.1.1-.2.1v.2l.1.2-.2-.2-.2-.1h-.6l-.1.2v-.2c-.1,0-.1-.1-.2-.1l-.1-.1h0a.34917.34917,0,0,1-.1-.2h-.4l.1-.1.2-.1c0-.1-.1-.2-.1-.4h-.2l-.5-.1.5-.3.2-.1v-.2l-.2-.2-.3-.3h.5a.34913.34913,0,0,1,.1-.2l-.1-.2-.2-.4.3.1.2.1c.1-.1.1-.2.2-.2v-.5l.2.1.2.1c.1,0,.1-.1.2-.1h.1c.1,0,.1-.1.2-.1l.1-.2h0l.1.2h.3c.1,0,.1,0,.2.1l.1-.2h0Z" transform="translate(-16.2 -59.2)"/><path class="cls-1" d="M335.5,372.7l-.3.4h0c-.1,0-.2-.1-.3-.1l-.3-.4-.2.5c-.1,0-.2.1-.4.2l-.5-.3v.7l-.1.1-.8-.3.4.8v.1h-.8l.6.7v.1l-.9.6,1,.2c0,.1,0,.1.1.2l-.6.5.8-.1c.1.1.2.3.4.4l.1.8.3-.6h.5l.7.5-.2-.8c.1,0,.1-.1.2-.2l.6.2-.3-.6c0-.1.1-.1.1-.2l.8.2-.7-.6a.09794.09794,0,0,1,.1-.1l.8-.1-.7-.4v-.1l.7-.4-.7-.2v-.2l.4-.4-.6-.1c-.1-.1-.2-.3-.3-.4Zm-.1.7c.1.1.1.2.2.2h0c0,.1.1.1.1.2h.3l-.1.1-.2.2a.36727.36727,0,0,0,.1.3l.2.1.2.1-.2.1-.2.1v.3l.2.1.2.1h-.5v.1a.34918.34918,0,0,1-.1.2l.2.1.1.1h-.4a.098.098,0,0,1-.1.1h0c0,.1-.1.1-.1.2l.1.2.1.2-.2-.1-.2-.1-.1.1h-.1c-.1,0-.1.1-.2.1v.2l.1.2-.2-.2-.2-.1h-.6l-.1.2v-.2c-.1,0-.1-.1-.2-.1l-.1-.1h0a.34918.34918,0,0,1-.1-.2h-.4l.1-.1.2-.1c0-.1-.1-.2-.1-.4h-.2l-.5-.1.5-.3.2-.1v-.2l-.2-.2-.3-.3h.5a.34917.34917,0,0,1,.1-.2l-.1-.2-.2-.4.3.1.2.1c.1-.1.1-.2.2-.2v-.5l.2.1.2.1c.1,0,.1-.1.2-.1h.1c.1,0,.1-.1.2-.1l.1-.2h0l.1.2h.3c.1,0,.1,0,.2.1l.1-.2h0Z" transform="translate(-16.2 -59.2)"/><path class="cls-1" d="M359.4,378l-.8-.1v-.1a1.42126,1.42126,0,0,0-.2-.6l.4-.7-.8.1a1.75544,1.75544,0,0,0-.5-.4v-1l-1,.6a.36729.36729,0,0,1-.3-.1l-.2-1.4-.9,1.3h-.2l-.6-1.2-.5,1.5c-.1,0-.1,0-.2.1l-1.6-.9.4,1.6c-.1.1-.2.1-.2.2l-1.3-.4.8,1.1c-.1.3-.2.5-.3.8l-1,.8h1.2a2.507,2.507,0,0,0,.4.7l-.3,1.5,1-.9c.1.1.3.1.4.2l.2,1.1.7-.9h.4l.4,1.4.4-1.5h.2l.9,1.1.1-1.3a.34917.34917,0,0,0,.2-.1l1.2.7-.3-1.2c.1-.1.2-.1.2-.2l.9.3-.4-.9a2.50654,2.50654,0,0,0,.4-.7Zm-1.1.5c0,.2-.1.3-.2.5h0c-.1.1-.1.2-.2.3l.1.3.1.2-.2-.1-.4-.1a2.18485,2.18485,0,0,1-.5.3l.1.3.1.4-.4-.3-.3-.2c-.2.1-.3.1-.5.2v.9l-.3-.4-.2-.3H355l-.1.3-.1.3-.1-.3-.1-.3h-.8l-.3.3-.2.2v-.3l-.1-.4c-.1,0-.2-.1-.3-.1h-.1c-.1,0-.2-.1-.3-.1l-.2.2-.3.3.1-.4.1-.4c-.1-.1-.2-.2-.2-.3a.30973.30973,0,0,1-.1-.2c0-.1-.1-.2-.1-.3h-.5l.1-.1.3-.2a.60116.60116,0,0,1,.1-.4.34914.34914,0,0,1,.1-.2h0c0-.1.1-.2.2-.3l-.2-.3-.2-.2.3.1.3.1a.99826.99826,0,0,1,.5-.4l-.1-.3-.2-.8.8.5.4.2c.1-.1.2-.1.4-.1l.1-.4.2-.6.3.5.2.3h.5l.2-.4.4-.6.1.6.1.3a4.3306,4.3306,0,0,1,.5.1l.4-.2.3-.2v.7c.1,0,.2.1.3.2l.1.1.3.3.4-.1h0l-.2.3c.1.1.1.2.2.3a.34918.34918,0,0,0,.1.2h0v.3h.3Z" transform="translate(-16.2 -59.2)"/><path class="cls-1" d="M357.1,397.2l-.6-.1V397c0-.1-.1-.3-.1-.4l.3-.5-.6.1a1.38052,1.38052,0,0,0-.4-.3v-.7l-.7.4h-.2l-.2-1-.6.9h-.1l-.4-.9-.4,1a.098.098,0,0,0-.1.1l-1.1-.6.3,1.1c-.1,0-.1.1-.2.2l-.9-.3.5.8a1.42142,1.42142,0,0,0-.2.6l-.7.5h.8c.1.2.2.3.3.5l-.2,1,.7-.6a.36733.36733,0,0,0,.3.1l.1.8.5-.6h.3l.3,1,.3-1h.2l.6.8.1-.9c.1,0,.1,0,.2-.1l.8.5-.2-.9c.1,0,.1-.1.2-.1l.7.2-.3-.6c.1-.2.2-.3.3-.5Zm-.8.3c0,.1-.1.2-.1.4h0c0,.1-.1.1-.1.2l.1.2v.1h-.1l-.3-.1c-.1.1-.2.2-.3.2l.1.2.1.3-.3-.2-.2-.2c-.1,0-.2.1-.3.1v.6l-.2-.3-.2-.2h-.4l-.1.2v.2l-.1-.2-.1-.2h-.5l-.2.2-.1.2v-.5c-.1,0-.1,0-.2-.1h-.1c-.1,0-.1-.1-.2-.1l-.2.2-.2.2.1-.3v-.3l-.2-.2c0-.1-.1-.1-.1-.2s-.1-.1-.1-.2h-.3l.1-.1.2-.2v-.3c0-.1,0-.1.1-.2h0c0-.1.1-.1.1-.2l-.1-.2-.1-.2.2.1.2.1.3-.3-.1-.2-.1-.6.6.3.3.1c.1,0,.2-.1.3-.1l.1-.3.2-.4.2.4.1.2h.3l.2-.2.3-.4.1.4v.2a.6012.6012,0,0,1,.4.1l.3-.2.2-.1v.5c.1,0,.1.1.2.1a.098.098,0,0,1,.1.1l.2.2h.3l-.1.2c0,.1.1.1.1.2v.2h0v.2h.2Z" transform="translate(-16.2 -59.2)"/><path class="cls-1" d="M307.5,398h-.8v-.1a.7638.7638,0,0,0-.2-.5l.3-.7-.8.2c-.2-.1-.4-.3-.6-.4l-.1-1-.9.7h-.3l-.3-1.4-.8,1.4h-.2L302,395l-.4,1.5c-.1,0-.1.1-.2.1l-1.7-.8.6,1.6-.2.2-1.3-.3.9,1a3.09134,3.09134,0,0,0-.2.8l-1,.9,1.1-.1a2.65061,2.65061,0,0,0,.5.6L300,402l.9-1a.60118.60118,0,0,0,.4.1l.3,1.1.6-.9h.4l.5,1.4.2-1.5h.2l1,1v-1.3c.1,0,.1-.1.2-.1l1.3.6-.4-1.2.2-.2,1,.2-.5-.9a6.88764,6.88764,0,0,0,.3-.8Zm-1.1.5a.7638.7638,0,0,1-.2.5h0c-.1.1-.1.2-.2.3l.2.3.1.2h-.2l-.4-.1-.4.4.1.3.1.4-.4-.2-.4-.2a.76379.76379,0,0,1-.5.2v.9l-.3-.3-.3-.3h-.1c-.1,0-.3.1-.4.1l-.1.4v.3l-.1-.3-.1-.3H302l-.2.3-.2.3-.1-.3-.1-.4a.36727.36727,0,0,1-.3-.1H301c-.1,0-.2-.1-.3-.1l-.2.2-.3.3v-.8l-.3-.3-.2-.2a.36738.36738,0,0,1-.1-.3h-.5l.1-.1.3-.3v-.4a.36727.36727,0,0,1,.1-.3h0c0-.1.1-.2.1-.3l-.2-.3-.2-.2.3.1.3.1c.1-.2.3-.3.4-.5l-.1-.3-.3-.8.9.4.4.2c.1-.1.2-.1.4-.2l.1-.4.2-.7.3.5.2.3c.1,0,.3-.1.4-.1l.2-.4.3-.6.1.6.1.3h.5l.4-.3.3-.2v.7c.1,0,.2.1.3.1l.1.1c.1.1.2.2.3.2l.4-.1h0l-.1.3c.1.1.1.2.2.3a.34917.34917,0,0,0,.1.2h0v.3h.3Z" transform="translate(-16.2 -59.2)"/><path class="cls-1" d="M320.4,423.8h-.7v-.1a.758.758,0,0,0-.2-.4l.3-.5-.7.2a.7638.7638,0,0,0-.5-.2v-.7l-.8.5h-.2l-.3-1-.7,1.1h-.2l-.6-.8-.3,1.1c-.1,0-.1,0-.2.1l-1.4-.5.4,1.1-.2.2-1-.2.7.7a1.42131,1.42131,0,0,0-.2.6l-.8.7.9-.1a.78084.78084,0,0,0,.4.4l-.1,1.1.8-.8c.1,0,.2.1.4.1l.2.8.5-.7h.4l.4,1,.2-1.1h.2l.8.7v-1c.1,0,.1-.1.2-.1l1,.4-.3-.9c.1,0,.1-.1.2-.1l.8.1-.4-.6.3-.6Zm-1,.5c0,.1-.1.3-.1.4h0c0,.1-.1.1-.1.2l.1.2.1.1h-.1l-.3-.1a1.38027,1.38027,0,0,1-.4.3l.1.2.1.3-.4-.1-.3-.1c-.1.1-.2.1-.4.2v.6l-.3-.2-.2-.2h-.1c-.1,0-.2.1-.3.1l-.1.3v.2l-.1-.2-.1-.2h-.6l-.2.2-.2.2-.1-.2-.1-.3a.36732.36732,0,0,1-.3-.1h-.1a.34917.34917,0,0,1-.2-.1l-.2.2-.2.2v-.6c-.1-.1-.2-.1-.2-.2s-.1-.1-.1-.2-.1-.1-.1-.2h-.4l.1-.1.2-.2v-.3c0-.1,0-.1.1-.2h0c0-.1.1-.1.1-.2l-.2-.2-.1-.1h.2l.3.1.4-.4-.1-.2-.2-.6.7.3.3.1a.36733.36733,0,0,1,.3-.1l.1-.3.2-.5.2.4.2.2c.1,0,.2-.1.4-.1l.2-.3.3-.4.1.4.1.2h.4l.3-.2.2-.2v.5a.34918.34918,0,0,1,.2.1.098.098,0,0,1,.1.1c.1,0,.2.1.3.2l.3-.1h0l-.1.2c.1.1.1.1.1.2s0,.1.1.2h0v.2h.3Z" transform="translate(-16.2 -59.2)"/><path class="cls-1" d="M332.7,381.7l-.8.2v-.1a1.381,1.381,0,0,0-.3-.4l.1-.7-.7.4c-.2-.1-.4-.1-.6-.2l-.4-.9-.7.8H329l-.6-1.1-.3,1.5c-.1,0-.1.1-.2.1l-.9-.9v1.5c-.1,0-.1.1-.2.1l-1.7-.3.9,1.3a.36735.36735,0,0,0-.1.3h-1.2l1,.7a2.20159,2.20159,0,0,0,.1.8l-.6,1,1-.4a1.27484,1.27484,0,0,0,.6.4l.3,1.4.6-1.1h.4l.5.9.3-1c.1,0,.3-.1.4-.1l.8,1.1-.2-1.4c.1,0,.1-.1.2-.1l1.1.7-.4-1.2c.1,0,.1-.1.2-.2l1.3.2-.7-1c.1-.1.1-.1.1-.2h.9l-.6-.7a1.95229,1.95229,0,0,0,.1-.7Zm-.9.8v.5h0a.36729.36729,0,0,1-.1.3l.2.2.1.1h-.5c-.1.2-.2.3-.3.5l.2.3.2.3-.4-.1-.4-.1a1.38021,1.38021,0,0,1-.4.3l.1.3.1.4-.4-.2-.3-.2h-.1c-.1.1-.2.1-.4.2v.6l-.2-.2-.2-.3c-.1,0-.2.1-.3.1h-.1c-.1,0-.2.1-.3.1l-.1.3-.1.3-.1-.3-.2-.3h-.7l-.1.3-.2.3L327,386l-.1-.3c-.1,0-.2-.1-.3-.2-.1,0-.1-.1-.2-.2l-.2-.2-.3.1h-.1l.1-.1.2-.3c0-.1-.1-.3-.1-.4v-.2h0v-.3l-.3-.2-.2-.1h.5c.1-.2.1-.4.3-.5l-.2-.3-.5-.7.9.1.4.1c.1-.1.2-.2.3-.2v-1l.4.4.3.2c.1-.1.3-.1.4-.2l.1-.4.1-.6.3.5.2.3c.2,0,.3-.1.5-.1l.3-.3.2-.3.1.3.1.3h.4c.1,0,.2.1.3.1l.3-.2h0v.3c.1.1.2.1.2.2s.1.1.1.2h0a.34917.34917,0,0,0,.1.2l.3-.1h0Z" transform="translate(-16.2 -59.2)"/><polygon class="cls-1" points="132.1 18.1 132.1 18.1 132.1 18.1 132.1 18.1"/><path class="cls-1" d="M183,76.9l2.7-1.4a37.42673,37.42673,0,0,0-65.6,35l2.6-1.4A34.45162,34.45162,0,0,1,183,76.9Zm6.8,6.3-2.7,1.4a34.48479,34.48479,0,0,1-60.3,32.3l-2.6,1.4a37.44744,37.44744,0,0,0,65.6-35.1Z" transform="translate(-16.2 -59.2)"/><polygon class="cls-1" points="122 56.9 109.9 56.9 107.3 56.9 107.3 59.5 107.3 71.6 109.9 71.6 109.9 59.5 122 59.5 122 56.9"/><polygon class="cls-1" points="155.9 18.1 168 18.1 170.6 18.1 170.6 15.5 170.6 3.4 168 3.4 168 15.5 155.9 15.5 155.9 18.1"/><path class="cls-1" d="M149.1,105.3h-.6a6.11543,6.11543,0,0,0,5.9,5.9v-.6A5.471,5.471,0,0,1,149.1,105.3Z" transform="translate(-16.2 -59.2)"/><path class="cls-1" d="M155.5,112.3h-1a7.26331,7.26331,0,0,1-6.9-6.9v-1h2.5v.9a4.57787,4.57787,0,0,0,4.4,4.4h.9v2.6Z" transform="translate(-16.2 -59.2)"/><path class="cls-1" d="M168.6,100.7a14.76171,14.76171,0,0,0-1.3-3.5c-.1-.2-.3-.5-.4-.7l-12-20.7-12,20.7c-.1.2-.3.5-.4.7a14.76171,14.76171,0,0,0-1.3,3.5,15.45881,15.45881,0,0,0-.4,3.1,13.40211,13.40211,0,0,0,.1,2c0,.2.1.4.1.6a14.05264,14.05264,0,0,0,27.6,0c0-.2.1-.4.1-.6a12.74848,12.74848,0,0,0,.1-2A8.13414,8.13414,0,0,0,168.6,100.7Zm-.4,5.1c0,.2-.1.4-.1.6a13.34491,13.34491,0,0,1-26.2,0c0-.2-.1-.4-.1-.6a12.74968,12.74968,0,0,1-.1-2,13.79023,13.79023,0,0,1,1.6-6.4l.3-.6,1.9-3.3L155,77l9.5,16.5,1.9,3.3.3.6a13.79023,13.79023,0,0,1,1.6,6.4A12.7462,12.7462,0,0,1,168.2,105.8Z" transform="translate(-16.2 -59.2)"/><path class="cls-1" d="M154.9,118.9a15.09477,15.09477,0,0,1-14.8-12.2c0-.2-.1-.4-.1-.7a14.91893,14.91893,0,0,1-.2-2.1,11.94343,11.94343,0,0,1,.4-3.3,17.35484,17.35484,0,0,1,1.4-3.8,4.34819,4.34819,0,0,1,.4-.7l12.8-22.2,13,22.1c.1.2.3.5.4.7a17.354,17.354,0,0,1,1.4,3.8,12.42266,12.42266,0,0,1,.4,3.3,14.92042,14.92042,0,0,1-.2,2.1c0,.2-.1.5-.1.7A15.02284,15.02284,0,0,1,154.9,118.9Zm0-39.9L144.3,97.3l-.3.6a12.03828,12.03828,0,0,0-1.5,5.9,10.86781,10.86781,0,0,0,.1,1.8c0,.2.1.4.1.6a12.442,12.442,0,0,0,24.4,0c0-.2.1-.4.1-.6h0a10.86876,10.86876,0,0,0,.1-1.8,12.32,12.32,0,0,0-1.5-5.9c-.1-.2-.2-.3-.3-.5Z" transform="translate(-16.2 -59.2)"/><path class="cls-1" d="M72.9,262.5a10.92622,10.92622,0,0,1-.5,1.7,20.36388,20.36388,0,0,1-39.5-7,12.74968,12.74968,0,0,1,.1-2c.1-.6.1-1.2.2-1.7l-1.7-.4c-.1.6-.2,1.1-.3,1.7a19.26864,19.26864,0,0,0-.1,2.4,22.107,22.107,0,0,0,22.1,22.1,22.357,22.357,0,0,0,20.9-14.7,8.44684,8.44684,0,0,0,.5-1.7Z" transform="translate(-16.2 -59.2)"/><path class="cls-1" d="M80.9,254.8a11.01914,11.01914,0,0,0-.2-1.8c-.6.2-1.1.4-1.6.6.1.6.1,1.2.2,1.8,0,.6.1,1.3.1,1.9a26.11876,26.11876,0,0,1-26.1,26.1,25.46619,25.46619,0,0,1-11.4-2.6c-.6-.3-1.1-.6-1.7-.9L38.7,281c.5.3,1.1.6,1.6.9a27.2,27.2,0,0,0,13,3.2,27.86881,27.86881,0,0,0,27.8-27.8A21.05373,21.05373,0,0,1,80.9,254.8Z" transform="translate(-16.2 -59.2)"/><path class="cls-1" d="M71.1,255.5l-8.3-11.6-5.4-1.5-7,3.2-3.7-6.9.5-5.8-1.7.1-1.7-2.3,5.5-11.9,6,3.9h5.5l5.2,5,3.9-.6,4.7,6-.2,6.4,7.4,9.6ZM57.3,240.6l6.6,1.8,7.7,10.8,7.6-4.6L72.6,240l.2-6.4-3.7-4.7-3.8.5L60,224.3H54.7L50,221.2l-4.2,9.1.5.7,2.7-.1-.6,7.3,2.7,5Z" transform="translate(-16.2 -59.2)"/><rect class="cls-1" x="48.10229" y="230.99955" width="4.99996" height="1.79999" transform="translate(-27.46053 -56.4532) rotate(-2.79818)"/><path class="cls-1" d="M75.1,258.1l-2.9-4.7,6.7-4.2,2.9,4.7Zm-.6-4.2,1.1,1.7,3.7-2.3-1.1-1.7Z" transform="translate(-16.2 -59.2)"/><polygon class="cls-1" points="43.8 186.7 43.8 188.5 41.5 187.8 41 187.7 38.4 188.9 37.4 189.3 36.8 189.6 36.2 188.7 35.9 188.2 35.9 188.2 37.4 187.5 40.9 185.9 43.8 186.7"/><polygon class="cls-1" points="49.4 193.3 48 194.2 43.9 188.5 41.5 187.8 41.5 187.8 43.8 188.5 43.8 186.7 44.9 187 46.9 189.8 48.5 192 49.4 193.3"/><polygon class="cls-1" points="43.8 186.7 43.8 188.5 41.5 187.8 41.5 186.1 43.8 186.7"/><polygon class="cls-1" points="51.3 195.9 46.4 199 46.3 199.1 44.9 198.7 44.6 198.1 46 197.3 50.3 194.6 51.3 195.9"/><polygon class="cls-1" points="46.4 199 46.4 197.4 46 197.3 44 196.7 38.4 188.9 37.8 188 37.5 187.6 37.4 187.5 35.9 188.2 35.9 188.2 36.2 188.7 36.8 189.6 37.9 191 43 198.2 44.9 198.7 46.3 199.1 46.4 199"/><path class="cls-1" d="M46,230.2l-4.3-2.9H27.3v-8.6H42.9l6.6,4Zm-17-4.6H42.2l3,2,1.9-4.2-4.8-3H29Z" transform="translate(-16.2 -59.2)"/><path class="cls-1" d="M37.5,277.9c0,.1-.1.2-.2.3a10.296,10.296,0,0,1-9.2,5.9c-6.6,0-11.4-5.7-11.9-6.2h0l1.3-1s.4.4,1,1.1c1.7,1.6,5.3,4.6,9.6,4.6a8.35277,8.35277,0,0,0,7.5-4.6,4.7676,4.7676,0,0,1,.4-.8l1.3.5C37.4,277.7,37.4,277.8,37.5,277.9Z" transform="translate(-16.2 -59.2)"/><path class="cls-1" d="M37.5,277.9c0,.1-.1.2-.2.3l-1.3.5a1.79272,1.79272,0,0,0-.4-.8,8.40579,8.40579,0,0,0-7.5-4.7c-4.4,0-8,3-9.6,4.7a5.82936,5.82936,0,0,0-1,1.1l-1.3-1h0c.5-.6,5.3-6.3,11.9-6.3,5.7,0,8.4,4.4,9.2,6C37.4,277.7,37.4,277.8,37.5,277.9Z" transform="translate(-16.2 -59.2)"/><path class="cls-1" d="M32.8,270.2c-4,0-7.1-1-9.5-3.1a12.121,12.121,0,0,1-3.8-8.7,16.97624,16.97624,0,0,1,5-13.7,20.97869,20.97869,0,0,0,5.8-12.9v-1.7l1.4,1c8.8,6.5,13.8,13.7,14.8,21.2a20.80849,20.80849,0,0,1-3.9,15.1l-1.4-1.1a20.15949,20.15949,0,0,0,3.5-13.8c-.9-6.7-5.2-13.1-12.9-19.1a22.77906,22.77906,0,0,1-6.2,12.4A15.4284,15.4284,0,0,0,21.1,258v.2a11.07654,11.07654,0,0,0,3.3,7.5c2.5,2.3,6.4,3.1,11.4,2.5l.2,1.7A18.16262,18.16262,0,0,1,32.8,270.2Z" transform="translate(-16.2 -59.2)"/><path class="cls-1" d="M220.2,314.7a8.28613,8.28613,0,1,1-5-15.8c.2-.1.4-.1.6-.2.1,0,.2-.1.4-.1s.5-.1.7-.1a8.22794,8.22794,0,0,1,8.7,5.7,8.3238,8.3238,0,0,1-3.8,9.7l-.6.3a.36734.36734,0,0,1-.3.1A1.71907,1.71907,0,0,1,220.2,314.7Z" transform="translate(-16.2 -59.2)"/><path class="cls-1" d="M235.3,289.6l-1.2.2L218,292.2l-.7.1-.6.1a1.26829,1.26829,0,0,0-.6.1,5.01947,5.01947,0,0,0-1.2.2c-.2,0-.4.1-.6.1-.4.1-.7.2-1.1.3a15.04832,15.04832,0,0,0-5.5,3.2l-.5.5a14.75055,14.75055,0,0,0-4.1,9.8v.7a14.02247,14.02247,0,0,0,.7,4,13.67089,13.67089,0,0,0,3.3,5.6l.5.5a14.60168,14.60168,0,0,0,9.7,4h.7a14.64441,14.64441,0,0,0,4-.7,4.18,4.18,0,0,0,1-.4l.6-.3a10.90681,10.90681,0,0,0,1.1-.6l.6-.3,2.8-1.4.7-.3,19.9-10.1,1.4-.7,53.3-27.1Zm-6.5,17.7a11.83173,11.83173,0,0,1-2.9,7.2l-.5.5a18.393,18.393,0,0,1-2.2,1.7,3.55217,3.55217,0,0,1-.9.4c-.1.1-.3.1-.5.2-.3.1-.5.2-.8.3a10.4742,10.4742,0,0,1-3,.5h-.7a11.67987,11.67987,0,0,1-7.4-3l-.5-.5a10.85032,10.85032,0,0,1-2.5-4.3,10.47351,10.47351,0,0,1-.5-3v-.7a11.06078,11.06078,0,0,1,3.1-7.4l.5-.5a10.97666,10.97666,0,0,1,4.2-2.4,2.35329,2.35329,0,0,1,.8-.2c.2,0,.3-.1.5-.1a3.08257,3.08257,0,0,1,1-.1c.3,0,.6-.1.9-.1h.7a11.15622,11.15622,0,0,1,7.2,3l.5.5a10.71961,10.71961,0,0,1,3,7.3Z" transform="translate(-16.2 -59.2)"/><path class="cls-1" d="M362.2,254a115.27458,115.27458,0,0,0-36.3-53.9l-42.3,42.3A86.40154,86.40154,0,0,1,308,306.6v.3l2.2-.3,57.1-8.5A113.60094,113.60094,0,0,0,362.2,254Z" transform="translate(-16.2 -59.2)"/><path class="cls-1" d="M220,177.5v38.9a86.9654,86.9654,0,0,1,61.8,24.1l42.1-42.1A116.205,116.205,0,0,0,220,177.5Z" transform="translate(-16.2 -59.2)"/><path class="cls-1" d="M146.6,239.1a117.21511,117.21511,0,0,0-11,61.5,86.069,86.069,0,0,1,19.7-52.7Z" transform="translate(-16.2 -59.2)"/><path class="cls-1" d="M217.3,216.5V178.3c-.4.1-.9.3-1.3.4a115.83991,115.83991,0,0,0-68.1,57.8h0l9.2,9.2h0a86.88152,86.88152,0,0,1,60.2-29.2h0Z" transform="translate(-16.2 -59.2)"/><path class="cls-1" d="M347.2,111.4a4.2,4.2,0,1,0,4.2,4.2A4.22536,4.22536,0,0,0,347.2,111.4Z" transform="translate(-16.2 -59.2)"/><path class="cls-1" d="M329.1,102.4H325V98.3a1.4,1.4,0,1,0-2.8,0v4.1h-4.1a1.4,1.4,0,1,0,0,2.8h4.1v4.1a1.4,1.4,0,1,0,2.8,0v-4.1h4.1a1.4,1.4,0,0,0,0-2.8Z" transform="translate(-16.2 -59.2)"/><path class="cls-1" d="M366.5,103.6a10.99516,10.99516,0,0,0-15.1-4l-5.6,3.2v-12a6.56057,6.56057,0,0,0-1.4-4.1l-6.9-9.2V73.6a4.21726,4.21726,0,0,0,2.8-3.9V63.3a4.11833,4.11833,0,0,0-4.1-4.1H311.3a4.11834,4.11834,0,0,0-4.1,4.1v6.4a4.2173,4.2173,0,0,0,2.8,3.9v3.9l-6.9,9.2a6.99762,6.99762,0,0,0-1.4,4.1v26.8a6.91384,6.91384,0,0,0,6.9,6.9h22.2a11.0465,11.0465,0,0,0,15,3.9l16.8-9.7A11.20884,11.20884,0,0,0,366.5,103.6ZM309.8,63.2a1.36707,1.36707,0,0,1,1.4-1.4h24.9a1.36708,1.36708,0,0,1,1.4,1.4v6.4a1.36708,1.36708,0,0,1-1.4,1.4H311.2a1.36707,1.36707,0,0,1-1.4-1.4V63.2Zm-4.7,25.1,7.2-9.6a1.13543,1.13543,0,0,0,.3-.8V73.8h22.1v2.8H322.3a1.4,1.4,0,1,0,0,2.8h13.1l6.8,9a4.95813,4.95813,0,0,1,.8,2H304.3A3.86548,3.86548,0,0,1,305.1,88.3Zm3.3,33.4a4.11834,4.11834,0,0,1-4.1-4.1v-1.4h25.1a11.37805,11.37805,0,0,0,.1,5.5Zm22.1-8.3H304.3V93.1H343v11.3l-8.4,4.8A10.99375,10.99375,0,0,0,330.5,113.4ZM344.3,126a8.2671,8.2671,0,0,1-8.3-14.3l7.5-4.3,8.3,14.4Zm16.7-9.7-6.9,4-8.3-14.4,6.9-4a8.29286,8.29286,0,0,1,11.3,3A8.19191,8.19191,0,0,1,361,116.3Z" transform="translate(-16.2 -59.2)"/><path class="cls-1" d="M464.8,265.9h-.2c-.1,0-.2,0-.2-.1s-.1-.1-.2-.1-.1-.1-.2-.2a1.26751,1.26751,0,0,1-.4-.9v-.2c0-.1,0-.2.1-.2,0-.1.1-.1.1-.2s.1-.1.2-.2l.2-.2c.1,0,.1-.1.2-.1a.34917.34917,0,0,0,.2-.1h.5c.1,0,.2,0,.2.1.1,0,.1.1.2.1s.1.1.2.2l.2.2c0,.1.1.1.1.2a.34913.34913,0,0,0,.1.2v.4s0,.2-.1.2c0,.1-.1.1-.1.2s-.1.1-.2.2l-.2.2c-.1,0-.1.1-.2.1a.34913.34913,0,0,0-.2.1C465,265.8,464.9,265.9,464.8,265.9Z" transform="translate(-16.2 -59.2)"/><path class="cls-1" d="M482.6,263h-8.1v-2.4c.3,0,.7.1,1.1.1a6.4843,6.4843,0,0,0,4.8-1.7c2.4-2.4,1.5-6.7,1.4-7.2a1.18216,1.18216,0,0,0-.9-.9c-.4-.1-4-.8-6.4.8v-1.8c.3,0,.7.1,1.1.1a6.48441,6.48441,0,0,0,4.8-1.7c2.4-2.4,1.5-6.7,1.4-7.2a1.18216,1.18216,0,0,0-.9-.9c-.5-.1-4.8-1-7.2,1.4a1.75539,1.75539,0,0,0-.4.5c-.1-.2-.3-.3-.4-.5-2.4-2.4-6.7-1.5-7.2-1.4a1.18217,1.18217,0,0,0-.9.9c-.1.5-1,4.8,1.4,7.2A6.923,6.923,0,0,0,471,250a3.74934,3.74934,0,0,0,1.1-.1v1.8c-2.5-1.6-6-.9-6.4-.8a1.18218,1.18218,0,0,0-.9.9c-.1.5-1,4.8,1.4,7.2a1.79374,1.79374,0,0,0,.7.5,17.01882,17.01882,0,0,0-5.9-1h-.5c1.6-2.5.9-6,.8-6.4a1.18218,1.18218,0,0,0-.9-.9c-.4-.1-4-.8-6.4.8v-2c.3,0,.7.1,1.1.1a6.48441,6.48441,0,0,0,4.8-1.7c2.4-2.4,1.5-6.7,1.4-7.2a1.18216,1.18216,0,0,0-.9-.9c-.5-.1-4.8-1-7.2,1.4a1.75553,1.75553,0,0,0-.4.5c-.1-.2-.3-.3-.4-.5-2.4-2.4-6.7-1.5-7.2-1.4a1.18217,1.18217,0,0,0-.9.9c-.1.5-1,4.8,1.4,7.2a6.923,6.923,0,0,0,4.8,1.7,3.74934,3.74934,0,0,0,1.1-.1v1.8c-2.5-1.6-6-.9-6.4-.8a1.18218,1.18218,0,0,0-.9.9c-.1.4-.8,4,.8,6.4H440c1.6-2.5.9-6,.8-6.4a1.18216,1.18216,0,0,0-.9-.9c-.4-.1-4-.8-6.4.8V250c.3,0,.7.1,1.1.1a6.48441,6.48441,0,0,0,4.8-1.7c2.4-2.4,1.5-6.7,1.4-7.2a1.18216,1.18216,0,0,0-.9-.9c-.5-.1-4.8-1-7.2,1.4a1.75553,1.75553,0,0,0-.4.5c-.1-.2-.3-.3-.4-.5-2.4-2.4-6.7-1.5-7.2-1.4a1.18217,1.18217,0,0,0-.9.9c-.1.5-1,4.8,1.4,7.2a6.923,6.923,0,0,0,4.8,1.7,3.74934,3.74934,0,0,0,1.1-.1v1.8c-2.5-1.6-6-.9-6.4-.8a1.18218,1.18218,0,0,0-.9.9c-.1.4-.8,4,.8,6.4h-1.6a1.15537,1.15537,0,0,0-1.2,1.2v16.2a1.15537,1.15537,0,0,0,1.2,1.2h60.2a1.15537,1.15537,0,0,0,1.2-1.2V264A3.29129,3.29129,0,0,0,482.6,263Zm-3.1-10c.1,1.2.1,3.2-.9,4.2s-2.9,1-4.2.9v-1.3a4.76367,4.76367,0,0,1,.9-2.9C476.3,252.9,478.3,252.9,479.5,253Zm0-10.8c.1,1.2.1,3.2-.9,4.2s-2.9,1-4.2.9V246a4.76364,4.76364,0,0,1,.9-2.9C476.3,242.1,478.3,242.1,479.5,242.2Zm-11.7,4.2c-1-1-1-2.9-.9-4.2,1.2-.1,3.2-.1,4.2.9a3.9437,3.9437,0,0,1,.9,2.8v1.4C470.7,247.4,468.7,247.4,467.8,246.4Zm-.9,6.6c1.2-.1,3.2-.1,4.2.9a3.9437,3.9437,0,0,1,.9,2.8v1.4c-1.2.1-3.2.1-4.2-.9S466.7,254.3,466.9,253Zm4,7.6a3.74931,3.74931,0,0,0,1.1-.1v2c-.3-.2-.6-.5-.9-.7a12.74907,12.74907,0,0,0-2.5-1.5A9.692,9.692,0,0,0,470.9,260.6Zm-38,2.8v-2.5h18.3v2.5Zm25.9-10c.1,1.2.1,3.2-.9,4.2s-2.9,1-4.2.9v-1.3a4.76362,4.76362,0,0,1,.9-2.9C455.6,253.3,457.5,253.2,458.8,253.4Zm0-10.9c.1,1.2.1,3.2-.9,4.2s-2.9,1-4.2.9v-1.3a4.76367,4.76367,0,0,1,.9-2.9C455.6,242.4,457.5,242.4,458.8,242.5ZM447,246.7c-1-1-1-2.9-.9-4.2,1.2-.1,3.2-.1,4.2.9a3.94372,3.94372,0,0,1,.9,2.8v1.4C449.9,247.7,448,247.7,447,246.7Zm-.9,6.7c1.2-.1,3.2-.1,4.2.9a3.94366,3.94366,0,0,1,.9,2.8v1.4c-1.2.1-3.2.1-4.2-.9C446,256.5,446,254.6,446.1,253.4Zm-8.1,0c.1,1.2.1,3.2-.9,4.2s-2.9,1-4.2.9v-1.3a4.27706,4.27706,0,0,1,.9-2.8C434.8,253.3,436.8,253.2,438,253.4Zm0-10.9c.1,1.2.1,3.2-.9,4.2s-2.9,1-4.2.9v-1.3a4.76367,4.76367,0,0,1,.9-2.9C434.8,242.4,436.8,242.4,438,242.5Zm-11.7,4.2c-1-1-1-2.9-.9-4.2,1.2-.1,3.2-.1,4.2.9a3.94372,3.94372,0,0,1,.9,2.8v1.4C429.2,247.7,427.2,247.7,426.3,246.7Zm-.9,6.7c1.2-.1,3.2-.1,4.2.9a3.94366,3.94366,0,0,1,.9,2.8v1.4c-1.2.1-3.2.1-4.2-.9C425.3,256.5,425.3,254.6,425.4,253.4Zm5.1,7.5v2.5h-6.9v-2.5Zm-6.9,13.7v-8.8H460a1.2,1.2,0,0,0,0-2.4h-6.3v-2.5h7.1a14.96264,14.96264,0,0,1,13.6,8.8H447.9a1.2,1.2,0,0,0,0,2.4h27.3a18.66354,18.66354,0,0,1,.4,2.5Zm57.7,0h-3.2a18.60743,18.60743,0,0,0-.8-4.1h0a17.53089,17.53089,0,0,0-2.6-5.1h6.7v9.2Z" transform="translate(-16.2 -59.2)"/><path class="cls-1" d="M448.4,220.9a12.31143,12.31143,0,0,0-2,.2,10.15548,10.15548,0,0,0-7.5-3.4,12.171,12.171,0,0,0-3.8.7,7.32387,7.32387,0,0,0-13.9,3.2,7.09456,7.09456,0,0,0,2.2,5.2,7.82993,7.82993,0,0,0-.7,3.1,1.15536,1.15536,0,0,0,1.2,1.2h31.6a1.27828,1.27828,0,0,0,1.2-1.1c0-.3.1-.6.1-.9A8.54891,8.54891,0,0,0,448.4,220.9Zm-24.8.8a4.908,4.908,0,0,1,4.9-4.9,4.98435,4.98435,0,0,1,4.5,2.9,8.42138,8.42138,0,0,0-2.5,2.8h-.2a7.56382,7.56382,0,0,0-5.5,2.4A4.717,4.717,0,0,1,423.6,221.7Zm1.6,7.2a5.13246,5.13246,0,0,1,4.9-3.9,1.70167,1.70167,0,0,1,.7.1,1.28013,1.28013,0,0,0,1.3-.7,7.30922,7.30922,0,0,1,6.7-4.1,7.48365,7.48365,0,0,1,6,3.1,1.23665,1.23665,0,0,0,1.4.4,6.46562,6.46562,0,0,1,2-.4,5.90468,5.90468,0,0,1,5.9,5.5H425.2Z" transform="translate(-16.2 -59.2)"/></svg>