<?xml version="1.0" encoding="UTF-8" standalone="no"?><!DOCTYPE svg PUBLIC "-//W3C//DTD SVG 1.1//EN" "http://www.w3.org/Graphics/SVG/1.1/DTD/svg11.dtd"><svg width="100%" height="100%" viewBox="0 0 81 24" version="1.1" xmlns="http://www.w3.org/2000/svg" xmlns:xlink="http://www.w3.org/1999/xlink" xml:space="preserve" style="fill-rule:evenodd;clip-rule:evenodd;stroke-linecap:square;"><g id="T.-.-Lund.-.-BBa_K2266001"><path id="line2d_4" d="M2.447,12.2l76.315,0" style="fill:none;stroke:#000;stroke-width:1px;"/><g id="patch_5"><path d="M12.684,6.616l0,11.168l48.395,0l0,3.723l7.446,-9.307l-7.446,-9.307l0,3.723l-48.395,0Z" style="fill:#5392ff;fill-rule:nonzero;stroke:#000;stroke-width:1px;stroke-linecap:butt;"/><g id="text_4"><path id="DejaVuSans.-Oblique.-47" d="M23.929,13.333l0.152,-0.763l-0.649,0l0.061,-0.325l1.035,0l-0.252,1.284c-0.173,0.095 -0.362,0.168 -0.567,0.22c-0.204,0.051 -0.41,0.077 -0.617,0.077c-0.365,0 -0.652,-0.101 -0.858,-0.304c-0.206,-0.204 -0.309,-0.486 -0.309,-0.849c0,-0.3 0.063,-0.586 0.188,-0.858c0.126,-0.271 0.299,-0.498 0.521,-0.679c0.139,-0.113 0.291,-0.197 0.456,-0.253c0.166,-0.055 0.349,-0.083 0.551,-0.083c0.183,0 0.357,0.023 0.524,0.07c0.168,0.046 0.328,0.115 0.48,0.208l-0.08,0.42c-0.117,-0.123 -0.255,-0.216 -0.412,-0.281c-0.158,-0.064 -0.325,-0.097 -0.504,-0.097c-0.207,0 -0.389,0.04 -0.547,0.119c-0.157,0.079 -0.298,0.201 -0.422,0.366c-0.105,0.141 -0.188,0.306 -0.249,0.497c-0.06,0.191 -0.091,0.385 -0.091,0.583c0,0.272 0.07,0.477 0.209,0.615c0.14,0.137 0.348,0.205 0.623,0.205c0.139,0 0.272,-0.014 0.401,-0.043c0.129,-0.03 0.247,-0.073 0.356,-0.129Z" style="fill-rule:nonzero;"/><path id="DejaVuSans.-Oblique.-46" d="M25.52,10.853l1.672,0l-0.064,0.332l-1.28,0l-0.167,0.86l1.156,0l-0.065,0.332l-1.156,0l-0.272,1.392l-0.392,0l0.568,-2.916Z" style="fill-rule:nonzero;"/><path id="DejaVuSans.-Oblique.-50" d="M27.821,10.853l0.912,0c0.266,0 0.468,0.062 0.607,0.185c0.14,0.124 0.21,0.305 0.21,0.544c0,0.32 -0.103,0.569 -0.309,0.748c-0.206,0.178 -0.495,0.267 -0.867,0.267l-0.496,0l-0.229,1.172l-0.396,0l0.568,-2.916Zm0.332,0.324l-0.211,1.096l0.496,0c0.224,0 0.396,-0.057 0.515,-0.172c0.12,-0.115 0.18,-0.279 0.18,-0.492c0,-0.137 -0.04,-0.243 -0.122,-0.318c-0.081,-0.076 -0.195,-0.114 -0.342,-0.114l-0.516,0Z" style="fill-rule:nonzero;"/><path id="DejaVuSans.-Oblique.-31" d="M29.817,13.437l0.645,0l0.435,-2.244l-0.728,0.14l0.068,-0.34l0.725,-0.14l0.396,0l-0.504,2.584l0.643,0l-0.063,0.332l-1.681,0l0.064,-0.332Z" style="fill-rule:nonzero;"/><path id="DejaVuSans.-Oblique.-30" d="M33.63,10.8c0.264,0 0.466,0.088 0.606,0.264c0.14,0.176 0.21,0.428 0.21,0.758c0,0.25 -0.033,0.498 -0.099,0.745c-0.066,0.247 -0.158,0.468 -0.276,0.663c-0.121,0.195 -0.264,0.343 -0.427,0.445c-0.163,0.101 -0.344,0.151 -0.542,0.151c-0.255,0 -0.452,-0.089 -0.592,-0.266c-0.139,-0.177 -0.208,-0.429 -0.208,-0.756c0,-0.247 0.033,-0.495 0.1,-0.743c0.067,-0.248 0.161,-0.469 0.28,-0.663c0.12,-0.196 0.261,-0.344 0.422,-0.445c0.16,-0.102 0.336,-0.153 0.526,-0.153Zm-0.024,0.313c-0.099,0 -0.193,0.026 -0.282,0.079c-0.089,0.053 -0.169,0.13 -0.241,0.233c-0.12,0.172 -0.216,0.387 -0.286,0.644c-0.071,0.257 -0.107,0.521 -0.107,0.792c0,0.215 0.038,0.377 0.114,0.487c0.076,0.11 0.189,0.165 0.338,0.165c0.104,0 0.2,-0.026 0.288,-0.079c0.089,-0.053 0.169,-0.131 0.24,-0.233c0.119,-0.171 0.213,-0.385 0.283,-0.642c0.069,-0.257 0.104,-0.522 0.104,-0.794c0,-0.215 -0.038,-0.377 -0.114,-0.487c-0.076,-0.11 -0.188,-0.165 -0.337,-0.165Z" style="fill-rule:nonzero;"/><path id="DejaVuSans.-Oblique.-2d" d="M34.892,12.513l1.052,0l-0.061,0.32l-1.056,0l0.065,-0.32Z" style="fill-rule:nonzero;"/><path id="DejaVuSans.-Oblique.-45" d="M36.766,10.853l1.844,0l-0.064,0.332l-1.452,0l-0.167,0.863l1.392,0l-0.064,0.332l-1.393,0l-0.203,1.057l1.484,0l-0.064,0.332l-1.881,0l0.568,-2.916Z" style="fill-rule:nonzero;"/><path id="DejaVuSans.-Oblique.-52" d="M39.626,11.177l-0.199,1.035l0.507,0c0.199,0 0.36,-0.055 0.483,-0.165c0.124,-0.11 0.185,-0.253 0.185,-0.43c0,-0.142 -0.041,-0.251 -0.124,-0.326c-0.083,-0.076 -0.201,-0.114 -0.356,-0.114l-0.496,0Zm0.724,1.191c0.084,0.02 0.153,0.068 0.209,0.145c0.055,0.077 0.119,0.23 0.192,0.459l0.248,0.797l-0.416,0l-0.229,-0.748c-0.058,-0.193 -0.126,-0.321 -0.203,-0.386c-0.077,-0.066 -0.194,-0.098 -0.353,-0.098l-0.436,0l-0.24,1.232l-0.397,0l0.569,-2.916l0.888,0c0.27,0 0.477,0.061 0.62,0.183c0.144,0.122 0.217,0.297 0.217,0.526c0,0.203 -0.062,0.379 -0.184,0.528c-0.123,0.148 -0.284,0.241 -0.485,0.278Z" style="fill-rule:nonzero;"/><path id="DejaVuSans.-Oblique.-2d1" d="M41.642,12.513l1.052,0l-0.061,0.32l-1.056,0l0.065,-0.32Z" style="fill-rule:nonzero;"/><path id="DejaVuSans.-Oblique.-471" d="M45.024,13.333l0.153,-0.763l-0.649,0l0.061,-0.325l1.035,0l-0.252,1.284c-0.174,0.095 -0.362,0.168 -0.567,0.22c-0.204,0.051 -0.41,0.077 -0.617,0.077c-0.366,0 -0.652,-0.101 -0.858,-0.304c-0.206,-0.204 -0.309,-0.486 -0.309,-0.849c0,-0.3 0.062,-0.586 0.188,-0.858c0.126,-0.271 0.299,-0.498 0.52,-0.679c0.139,-0.113 0.292,-0.197 0.457,-0.253c0.166,-0.055 0.349,-0.083 0.551,-0.083c0.182,0 0.357,0.023 0.524,0.07c0.168,0.046 0.328,0.115 0.48,0.208l-0.08,0.42c-0.117,-0.123 -0.255,-0.216 -0.412,-0.281c-0.158,-0.064 -0.326,-0.097 -0.504,-0.097c-0.207,0 -0.389,0.04 -0.547,0.119c-0.157,0.079 -0.298,0.201 -0.422,0.366c-0.105,0.141 -0.188,0.306 -0.249,0.497c-0.061,0.191 -0.091,0.385 -0.091,0.583c0,0.272 0.07,0.477 0.209,0.615c0.14,0.137 0.347,0.205 0.623,0.205c0.138,0 0.272,-0.014 0.401,-0.043c0.128,-0.03 0.247,-0.073 0.355,-0.129Z" style="fill-rule:nonzero;"/><path id="DejaVuSans.-Oblique.-461" d="M46.616,10.853l1.672,0l-0.065,0.332l-1.279,0l-0.168,0.86l1.157,0l-0.065,0.332l-1.157,0l-0.271,1.392l-0.392,0l0.568,-2.916Z" style="fill-rule:nonzero;"/><path id="DejaVuSans.-Oblique.-501" d="M48.917,10.853l0.912,0c0.265,0 0.468,0.062 0.607,0.185c0.14,0.124 0.209,0.305 0.209,0.544c0,0.32 -0.103,0.569 -0.308,0.748c-0.206,0.178 -0.495,0.267 -0.867,0.267l-0.497,0l-0.228,1.172l-0.397,0l0.569,-2.916Zm0.332,0.324l-0.211,1.096l0.496,0c0.224,0 0.395,-0.057 0.515,-0.172c0.12,-0.115 0.18,-0.279 0.18,-0.492c0,-0.137 -0.041,-0.243 -0.122,-0.318c-0.081,-0.076 -0.195,-0.114 -0.342,-0.114l-0.516,0Z" style="fill-rule:nonzero;"/><path id="DejaVuSans.-Oblique.-311" d="M50.913,13.437l0.644,0l0.436,-2.244l-0.729,0.14l0.069,-0.34l0.724,-0.14l0.397,0l-0.504,2.584l0.642,0l-0.062,0.332l-1.681,0l0.064,-0.332Z" style="fill-rule:nonzero;"/><path id="DejaVuSans.-Oblique.-312" d="M53.458,13.437l0.644,0l0.436,-2.244l-0.729,0.14l0.069,-0.34l0.724,-0.14l0.397,0l-0.504,2.584l0.642,0l-0.062,0.332l-1.681,0l0.064,-0.332Z" style="fill-rule:nonzero;"/></g></g></g></svg>