<?xml version="1.0" encoding="UTF-8" standalone="no"?><!DOCTYPE svg PUBLIC "-//W3C//DTD SVG 1.1//EN" "http://www.w3.org/Graphics/SVG/1.1/DTD/svg11.dtd"><svg width="100%" height="100%" viewBox="0 0 82 82" version="1.1" xmlns="http://www.w3.org/2000/svg" xmlns:xlink="http://www.w3.org/1999/xlink" xml:space="preserve" style="fill-rule:evenodd;clip-rule:evenodd;stroke-linejoin:round;stroke-miterlimit:1.41421;"><g id="T.-.-Lund.-.-HP.-.-ReEngineering"><path d="M81.6,40.8c0,22.533 -18.266,40.8 -40.8,40.8c-22.533,0 -40.8,-18.267 -40.8,-40.8c0,-22.533 18.267,-40.8 40.8,-40.8c22.534,0 40.8,18.267 40.8,40.8" style="fill:#fbeaae;fill-rule:nonzero;"/><g><g><path d="M28.088,17.206c-2.323,1.626 -2.888,4.833 -1.262,7.156l18.279,26.106l2.454,-2.532c0,0 -0.638,-0.654 -0.812,-1.05c-0.572,-1.304 -1.797,-5.475 -2.62,-6.774c-3.245,-5.122 -16.039,-22.906 -16.039,-22.906Z" style="fill:#8c9696;"/><path d="M54.708,50.21c0.312,0.004 0.623,0.025 0.933,0.069c0.703,0.098 1.39,0.301 2.033,0.602c0.843,0.395 1.605,0.957 2.231,1.646c0.544,0.599 0.986,1.291 1.298,2.038c0.268,0.64 0.441,1.321 0.51,2.012c0.077,0.763 0.03,1.537 -0.139,2.285c-0.17,0.75 -0.461,1.472 -0.861,2.129c-0.365,0.599 -0.821,1.144 -1.347,1.609c-0.628,0.556 -1.353,1.001 -2.135,1.305c-0.805,0.313 -1.667,0.476 -2.53,0.48c-0.794,0.004 -1.588,-0.126 -2.339,-0.383c-0.733,-0.251 -1.424,-0.622 -2.037,-1.096c-0.636,-0.492 -1.186,-1.094 -1.622,-1.77c-0.337,-0.522 -0.605,-1.089 -0.795,-1.682c-0.226,-0.711 -2.803,-8.986 -2.803,-8.986l2.454,-2.532c0,0 1.789,1.961 2.796,2.353c0.97,0.378 2.64,0.091 3.245,0c0.311,-0.047 0.624,-0.071 0.938,-0.078c0.085,-0.001 0.085,-0.001 0.17,-0.001Zm-0.129,2.475c-0.205,0.004 -0.408,0.02 -0.611,0.05c-0.448,0.068 -0.885,0.202 -1.294,0.398c-0.545,0.261 -1.04,0.63 -1.445,1.079c-0.376,0.419 -0.672,0.905 -0.874,1.43c-0.192,0.502 -0.295,1.036 -0.306,1.572c-0.01,0.485 0.058,0.971 0.2,1.434c0.112,0.367 0.27,0.719 0.47,1.047c0.254,0.416 0.573,0.793 0.943,1.11c0.328,0.281 0.695,0.514 1.087,0.692c0.591,0.268 1.237,0.409 1.885,0.414c0.56,0.004 1.121,-0.094 1.646,-0.291c0.512,-0.192 0.988,-0.476 1.402,-0.833c0.36,-0.311 0.671,-0.677 0.918,-1.083c0.261,-0.429 0.45,-0.899 0.561,-1.388c0.193,-0.854 0.141,-1.76 -0.157,-2.583c-0.193,-0.532 -0.484,-1.027 -0.853,-1.456c-0.396,-0.459 -0.883,-0.836 -1.426,-1.107c-0.414,-0.206 -0.86,-0.35 -1.317,-0.425c-0.183,-0.03 -0.367,-0.048 -0.552,-0.057c-0.092,-0.003 -0.185,-0.004 -0.277,-0.003Z" style="fill:#fc835c;fill-rule:nonzero;"/></g><g><path d="M53.512,17.318c2.323,1.627 2.888,4.834 1.262,7.157l-18.28,26.105l-2.453,-2.531c0,0 0.638,-0.655 0.811,-1.051c0.572,-1.304 1.798,-5.474 2.621,-6.774c3.245,-5.121 16.039,-22.906 16.039,-22.906Z" style="fill:#9fa7a7;"/><path d="M26.892,50.323c-0.313,0.004 -0.624,0.025 -0.933,0.068c-0.703,0.098 -1.391,0.302 -2.033,0.603c-0.843,0.395 -1.605,0.956 -2.231,1.645c-0.544,0.599 -0.986,1.292 -1.298,2.038c-0.268,0.641 -0.441,1.321 -0.511,2.013c-0.077,0.762 -0.029,1.537 0.14,2.284c0.17,0.751 0.461,1.472 0.861,2.129c0.365,0.6 0.821,1.144 1.347,1.61c0.628,0.556 1.353,1 2.135,1.304c0.805,0.314 1.666,0.477 2.53,0.481c0.794,0.003 1.588,-0.127 2.339,-0.384c0.733,-0.251 1.424,-0.622 2.037,-1.096c0.636,-0.492 1.186,-1.093 1.622,-1.769c0.337,-0.523 0.605,-1.09 0.794,-1.682c0.227,-0.711 2.803,-8.987 2.803,-8.987l-2.453,-2.531c0,0 -1.79,1.96 -2.796,2.353c-0.971,0.377 -2.64,0.091 -3.245,0c-0.311,-0.047 -0.624,-0.071 -0.938,-0.078c-0.085,-0.001 -0.085,-0.001 -0.17,-0.001Zm0.129,2.474c0.205,0.005 0.408,0.02 0.61,0.051c0.449,0.067 0.886,0.202 1.295,0.397c0.545,0.261 1.04,0.63 1.444,1.08c0.377,0.418 0.673,0.905 0.875,1.43c0.192,0.501 0.295,1.036 0.306,1.572c0.009,0.485 -0.058,0.97 -0.2,1.434c-0.112,0.366 -0.27,0.719 -0.47,1.046c-0.254,0.417 -0.573,0.794 -0.944,1.111c-0.327,0.28 -0.694,0.513 -1.087,0.691c-0.59,0.268 -1.236,0.41 -1.884,0.415c-0.561,0.004 -1.121,-0.095 -1.646,-0.292c-0.512,-0.192 -0.988,-0.476 -1.402,-0.833c-0.36,-0.31 -0.671,-0.677 -0.918,-1.082c-0.261,-0.429 -0.451,-0.899 -0.561,-1.389c-0.194,-0.853 -0.141,-1.759 0.157,-2.582c0.192,-0.533 0.483,-1.028 0.853,-1.456c0.396,-0.459 0.883,-0.837 1.426,-1.107c0.414,-0.207 0.86,-0.35 1.317,-0.425c0.182,-0.03 0.367,-0.048 0.551,-0.057c0.093,-0.004 0.185,-0.005 0.278,-0.004Z" style="fill:#fc835c;fill-rule:nonzero;"/></g><circle cx="41.015" cy="39.782" r="1.463" style="fill:#8c9696;"/></g></g></svg>