<?xml version="1.0" encoding="UTF-8" standalone="no"?><!DOCTYPE svg PUBLIC "-//W3C//DTD SVG 1.1//EN" "http://www.w3.org/Graphics/SVG/1.1/DTD/svg11.dtd"><svg width="100%" height="100%" viewBox="0 0 82 82" version="1.1" xmlns="http://www.w3.org/2000/svg" xmlns:xlink="http://www.w3.org/1999/xlink" xml:space="preserve" style="fill-rule:evenodd;clip-rule:evenodd;stroke-linecap:round;stroke-linejoin:round;stroke-miterlimit:1.5;"><g id="T.-.-Lund.-.-HP.-.-Recycling"><path d="M81.6,40.8c0,22.533 -18.267,40.8 -40.8,40.8c-22.533,0 -40.8,-18.267 -40.8,-40.8c0,-22.533 18.267,-40.8 40.8,-40.8c22.533,0 40.8,18.267 40.8,40.8" style="fill:#caef9d;fill-rule:nonzero;"/><g><path d="M71.081,43.236l-4.062,7.036l-6.428,-11.133l6.093,-3.518l4.397,7.615Z" style="fill:#00884b;"/><path d="M64.99,39.724l-6.765,-2.344l8.119,-4.687l-1.354,7.031Z" style="fill:#00aa5e;stroke:#00aa5e;stroke-width:1.92px;"/><path d="M42.663,43.236l4.397,-7.615c2.031,1.173 4.062,2.345 6.093,3.518l-6.427,11.133l-4.063,-7.036Z" style="fill:#00aa5e;"/><path d="M59.581,28.006l-6.428,11.133l-6.093,-3.518l4.397,-7.615l8.124,0Z" style="fill:#00884b;"/><path d="M51.46,35.036l1.353,7.031l-8.119,-4.687l6.766,-2.344Z" style="fill:#00aa5e;stroke:#00aa5e;stroke-width:1.92px;"/><path d="M69.728,45.58l-4.063,7.036l-8.793,0l0,-7.036l12.856,0Z" style="fill:#00aa5e;"/><path d="M56.872,52.616l-8.793,0l-4.063,-7.036l12.856,0l0,7.036Z" style="fill:#00884b;"/><path d="M54.166,49.098l5.412,-4.687l0,9.374l-5.412,-4.687Z" style="fill:#00aa5e;stroke:#00aa5e;stroke-width:1.92px;"/><path d="M62.287,28.006l4.397,7.615l-6.093,3.518l-6.428,-11.133l8.124,0Z" style="fill:#00aa5e;"/></g><g><path d="M36.136,30.121l-24.271,0l1.989,29.125l20.367,0l1.915,-29.125Z" style="fill:#a0a6a6;"/><path d="M37.592,26.26c0,-0.548 -0.445,-0.993 -0.993,-0.993l-25.198,0c-0.547,0 -0.992,0.445 -0.992,0.993l0,2.868c0,0.548 0.445,0.993 0.992,0.993l25.198,0c0.548,0 0.993,-0.445 0.993,-0.993l0,-2.868Z" style="fill:#707878;"/><path d="M25.457,33.998c0,-0.8 -0.65,-1.45 -1.45,-1.45l-0.013,0c-0.8,0 -1.45,0.65 -1.45,1.45l0,21.371c0,0.8 0.65,1.45 1.45,1.45l0.013,0c0.8,0 1.45,-0.65 1.45,-1.45l0,-21.371Z" style="fill:#707878;"/><path d="M30.235,34.073c0.031,-0.8 -0.593,-1.475 -1.392,-1.506l-0.013,-0.001c-0.799,-0.031 -1.474,0.593 -1.506,1.392l-0.839,21.355c-0.031,0.799 0.593,1.474 1.392,1.505l0.013,0.001c0.8,0.031 1.474,-0.592 1.506,-1.392l0.839,-21.354Z" style="fill:#707878;"/><path d="M35.009,34.183c0.063,-0.798 -0.534,-1.497 -1.332,-1.56l-0.012,-0.001c-0.798,-0.062 -1.497,0.534 -1.559,1.332l-1.677,21.305c-0.063,0.798 0.534,1.496 1.332,1.559l0.012,0.001c0.798,0.063 1.497,-0.534 1.559,-1.332l1.677,-21.304Z" style="fill:#707878;"/><path d="M20.676,33.958c-0.031,-0.799 -0.706,-1.423 -1.506,-1.392l-0.012,0.001c-0.8,0.031 -1.423,0.706 -1.392,1.506l0.839,21.354c0.031,0.8 0.706,1.423 1.506,1.392l0.012,-0.001c0.8,-0.031 1.424,-0.706 1.392,-1.505l-0.839,-21.355Z" style="fill:#707878;"/><path d="M16.095,33.952c-0.056,-0.798 -0.75,-1.401 -1.548,-1.345l-0.013,0.001c-0.798,0.055 -1.401,0.749 -1.345,1.547l1.491,21.319c0.056,0.798 0.749,1.401 1.547,1.345l0.013,-0.001c0.798,-0.056 1.401,-0.749 1.345,-1.547l-1.49,-21.319Z" style="fill:#707878;"/><circle cx="24" cy="25.267" r="2.912" style="fill:none;stroke:#707878;stroke-width:1.92px;stroke-linecap:butt;"/></g></g></svg>