<?xml version="1.0" encoding="UTF-8" standalone="no"?><!DOCTYPE svg PUBLIC "-//W3C//DTD SVG 1.1//EN" "http://www.w3.org/Graphics/SVG/1.1/DTD/svg11.dtd"><svg width="100%" height="100%" viewBox="0 0 360 181" version="1.1" xmlns="http://www.w3.org/2000/svg" xmlns:xlink="http://www.w3.org/1999/xlink" xml:space="preserve" style="fill-rule:evenodd;clip-rule:evenodd;stroke-linejoin:round;stroke-miterlimit:1.41421;"><rect id="T.-.-Lund.-.-DescriptionLaw" x="0" y="0" width="360" height="181" style="fill:none;"/><g><path d="M164.014,92.963c0.044,0.466 9.578,2.28 9.505,3.7c-0.073,1.42 -8.146,2.735 -7.616,2.962c4.444,1.896 5.926,18.874 -2.361,25.207c-0.397,0.304 3.572,0.405 3.841,2.022c0.202,3.167 -9.635,0.27 -7.748,17.315c0.062,0.561 9.836,2.224 9.7,4.718c-0.034,0.619 -75.056,18.662 -75.056,18.662c0,0 -50.675,-15.717 -51.594,-16.366c-10.106,-7.134 -6.216,-24.838 -2.944,-26.833c0.38,-0.232 -3.352,-0.704 -3.431,-1.657c-0.079,-0.953 6.669,-3.731 9.765,-4.128c1.746,-15.957 -7.542,-15.242 -7.542,-17.227c0,-1.985 7.78,-3.049 7.126,-3.241c-5.459,-1.602 -8.555,-23.593 1.435,-27.26c1.031,-0.154 76.903,-11.478 76.903,-11.478c0,0 47.496,13.998 47.428,16.019c-0.144,4.323 -9.028,0.135 -7.411,17.585Z" style="fill:#aa231f;fill-rule:nonzero;"/><path d="M98.073,108.781c0,0 -49.197,-13.399 -50.222,-13.859c-3.435,-1.54 -5.606,-19.325 1.421,-18.596c1.667,0.173 48.942,16.04 48.942,16.04l-0.141,16.415Z" style="fill:#fff;fill-rule:nonzero;"/><path d="M161.323,93.856c0.189,0.752 -60.29,14.925 -60.29,14.925l0,-16.238c0,0 62.298,-13.065 61.711,-12.664c-2.25,1.54 -1.75,12.663 -1.421,13.977Z" style="fill:#fff;fill-rule:nonzero;"/><path d="M93.992,160.17c0,0 -49.197,-13.399 -50.222,-13.859c-3.435,-1.54 -5.606,-19.325 1.421,-18.596c1.666,0.173 48.941,16.04 48.941,16.04l-0.14,16.415Z" style="fill:#fff;fill-rule:nonzero;"/><path d="M157.147,145.245c0.189,0.752 -60.29,14.925 -60.29,14.925l0,-16.239c0,0 62.298,-13.064 61.712,-12.663c-2.251,1.54 -1.751,12.663 -1.422,13.977Z" style="fill:#fff;fill-rule:nonzero;"/><path d="M48.638,119.684c-0.188,0.752 60.29,14.924 60.29,14.924l0,-16.238c0,0 -62.298,-13.065 -61.711,-12.663c2.25,1.54 1.751,12.663 1.421,13.977Z" style="fill:#fff;fill-rule:nonzero;"/><path d="M111.955,134.608c0,0 49.196,-13.398 50.222,-13.858c3.435,-1.54 5.606,-19.325 -1.422,-18.597c-1.666,0.173 -48.941,16.041 -48.941,16.041l0.141,16.414Z" style="fill:#fff;fill-rule:nonzero;"/></g><g><path d="M242.527,17.823l-40.027,40.039l28.905,28.897l40.027,-40.038l-28.905,-28.898Z" style="fill:#74521b;"/><path d="M276.92,48.563c2.438,-2.221 1.326,-6.33 0.163,-7.476l-28.965,-29.339c-1.163,-1.146 -5.441,-1.638 -7.513,0.908c-2.072,2.546 -1.296,6.083 -0.133,7.229l28.904,28.899c1.163,1.145 5.431,1.567 7.544,-0.221Z" style="fill:#74521b;fill-rule:nonzero;"/><path d="M233.901,91.739c-2.333,2.317 -6.437,2.202 -7.56,1.074l-29.786,-29.871c-1.123,-1.128 -1.2,-5.099 0.943,-7.371c2.142,-2.271 6.171,-1.129 7.294,-0.001l28.904,28.9c1.123,1.128 1.592,5.891 0.205,7.269Z" style="fill:#74521b;fill-rule:nonzero;"/><path d="M325.007,139.9c-3.859,3.435 -9.358,1.276 -9.991,0.639c-0.633,-0.638 -72.489,-73.049 -72.489,-73.049l10.63,-9.628c0,0 70.736,71.16 72.029,72.585c1.293,1.424 3.68,6.018 -0.179,9.453Z" style="fill:#74521b;fill-rule:nonzero;"/></g></svg>