<?xml version="1.0" encoding="UTF-8" standalone="no"?><!DOCTYPE svg PUBLIC "-//W3C//DTD SVG 1.1//EN" "http://www.w3.org/Graphics/SVG/1.1/DTD/svg11.dtd"><svg width="100%" height="100%" viewBox="0 0 210 26" version="1.1" xmlns="http://www.w3.org/2000/svg" xmlns:xlink="http://www.w3.org/1999/xlink" xml:space="preserve" style="fill-rule:evenodd;clip-rule:evenodd;"><g id="T.-.-Lund.-.-BBa_K2266004"><path d="M23.853,2.632l3.722,1.861l-3.722,1.862l0,-3.723Z" style="fill-rule:nonzero;stroke:#000;stroke-width:1px;"/><path d="M121.573,2.632l3.723,1.861l-3.723,1.862l0,-3.723Z" style="fill-rule:nonzero;stroke:#000;stroke-width:1px;"/><path id="patch_12" d="M49.911,13.8c0,-1.234 -0.49,-2.418 -1.363,-3.29c-0.872,-0.873 -2.056,-1.363 -3.29,-1.363c-1.234,0 -2.418,0.49 -3.29,1.363c-0.873,0.872 -1.363,2.056 -1.363,3.29l9.306,0Z" style="fill:#b2b2b2;fill-rule:nonzero;stroke:#000;stroke-width:1px;"/><path id="patch_13" d="M147.632,13.8c0,-1.234 -0.491,-2.418 -1.363,-3.29c-0.872,-0.873 -2.057,-1.363 -3.29,-1.363c-1.234,0 -2.419,0.49 -3.291,1.363c-0.872,0.872 -1.363,2.056 -1.363,3.29l9.307,0Z" style="fill:#b2b2b2;fill-rule:nonzero;stroke:#000;stroke-width:1px;"/><path id="line2d_9" d="M13.615,13.8l0,-9.307" style="fill:none;stroke:#000;stroke-width:1px;stroke-linecap:square;"/><path id="line2d_10" d="M111.336,13.8l0,-9.307" style="fill:none;stroke:#000;stroke-width:1px;stroke-linecap:square;"/><path id="line2d_11" d="M13.615,4.493l12.099,0" style="fill:none;stroke:#000;stroke-width:1px;stroke-linecap:square;"/><path id="line2d_12" d="M111.336,4.493l12.098,0" style="fill:none;stroke:#000;stroke-width:1px;stroke-linecap:square;"/><path id="line2d_13" d="M2.447,13.8l204.748,0" style="fill:none;stroke:#000;stroke-width:1px;stroke-linecap:square;"/><path d="M62.01,8.216l0,11.168l29.782,0l0,3.723l7.445,-9.307l-7.445,-9.307l0,3.723l-29.782,0Z" style="fill:#5392ff;fill-rule:nonzero;stroke:#000;stroke-width:1px;"/><path d="M159.731,8.216l0,11.168l29.781,0l0,3.723l7.446,-9.307l-7.446,-9.307l0,3.723l-29.781,0Z" style="fill:#5392ff;fill-rule:nonzero;stroke:#000;stroke-width:1px;"/><g id="text_9"><path id="DejaVuSans.-42" d="M7.667,17.264l0,0.802l0.475,0c0.159,0 0.277,-0.033 0.353,-0.099c0.077,-0.066 0.116,-0.167 0.116,-0.303c0,-0.137 -0.039,-0.237 -0.116,-0.302c-0.076,-0.065 -0.194,-0.098 -0.353,-0.098l-0.475,0Zm0,-0.899l0,0.659l0.438,0c0.145,0 0.252,-0.027 0.323,-0.081c0.071,-0.055 0.106,-0.137 0.106,-0.249c0,-0.11 -0.035,-0.192 -0.106,-0.247c-0.071,-0.055 -0.178,-0.082 -0.323,-0.082l-0.438,0Zm-0.296,-0.243l0.756,0c0.226,0 0.4,0.046 0.522,0.14c0.122,0.094 0.183,0.227 0.183,0.4c0,0.134 -0.031,0.241 -0.094,0.32c-0.062,0.079 -0.154,0.128 -0.276,0.147c0.146,0.032 0.259,0.097 0.34,0.196c0.08,0.099 0.121,0.223 0.121,0.372c0,0.195 -0.067,0.346 -0.199,0.452c-0.133,0.107 -0.322,0.16 -0.568,0.16l-0.785,0l0,-2.187Z" style="fill-rule:nonzero;"/><path id="DejaVuSans.-62" d="M10.596,17.49c0,-0.198 -0.041,-0.354 -0.123,-0.467c-0.081,-0.112 -0.193,-0.169 -0.336,-0.169c-0.143,0 -0.255,0.057 -0.336,0.169c-0.082,0.113 -0.123,0.269 -0.123,0.467c0,0.198 0.041,0.353 0.123,0.466c0.081,0.113 0.193,0.17 0.336,0.17c0.143,0 0.255,-0.057 0.336,-0.17c0.082,-0.113 0.123,-0.268 0.123,-0.466Zm-0.918,-0.573c0.057,-0.097 0.129,-0.17 0.215,-0.217c0.086,-0.047 0.19,-0.071 0.31,-0.071c0.199,0 0.361,0.079 0.485,0.237c0.125,0.158 0.187,0.366 0.187,0.624c0,0.258 -0.062,0.466 -0.187,0.624c-0.124,0.158 -0.286,0.237 -0.485,0.237c-0.12,0 -0.224,-0.023 -0.31,-0.071c-0.086,-0.047 -0.158,-0.12 -0.215,-0.217l0,0.246l-0.271,0l0,-2.28l0.271,0l0,0.888Z" style="fill-rule:nonzero;"/><path id="DejaVuSans.-61" d="M12.068,17.484c-0.218,0 -0.369,0.025 -0.453,0.075c-0.084,0.049 -0.126,0.134 -0.126,0.255c0,0.095 0.031,0.171 0.094,0.228c0.064,0.056 0.149,0.084 0.257,0.084c0.15,0 0.27,-0.053 0.36,-0.159c0.091,-0.106 0.136,-0.247 0.136,-0.423l0,-0.06l-0.268,0Zm0.537,-0.111l0,0.936l-0.269,0l0,-0.249c-0.062,0.099 -0.139,0.173 -0.23,0.22c-0.092,0.048 -0.205,0.071 -0.337,0.071c-0.168,0 -0.302,-0.047 -0.401,-0.141c-0.099,-0.094 -0.149,-0.221 -0.149,-0.379c0,-0.184 0.062,-0.323 0.185,-0.417c0.124,-0.094 0.308,-0.141 0.553,-0.141l0.379,0l0,-0.026c0,-0.124 -0.041,-0.22 -0.123,-0.288c-0.081,-0.068 -0.196,-0.102 -0.343,-0.102c-0.094,0 -0.185,0.011 -0.274,0.034c-0.089,0.022 -0.174,0.056 -0.256,0.101l0,-0.249c0.098,-0.038 0.194,-0.067 0.287,-0.086c0.092,-0.019 0.183,-0.028 0.27,-0.028c0.238,0 0.415,0.061 0.533,0.184c0.117,0.123 0.175,0.31 0.175,0.56Z" style="fill-rule:nonzero;"/><path id="DejaVuSans.-5f" d="M14.407,18.807l0,0.209l-1.559,0l0,-0.209l1.559,0Z" style="fill-rule:nonzero;"/><path id="DejaVuSans.-4a" d="M14.672,16.122l0.296,0l0,2.034c0,0.264 -0.05,0.456 -0.15,0.575c-0.1,0.119 -0.261,0.178 -0.483,0.178l-0.113,0l0,-0.249l0.093,0c0.13,0 0.223,-0.036 0.276,-0.11c0.054,-0.073 0.081,-0.204 0.081,-0.394l0,-2.034Z" style="fill-rule:nonzero;"/><path id="DejaVuSans.-32" d="M15.838,18.06l1.033,0l0,0.249l-1.389,0l0,-0.249c0.112,-0.116 0.265,-0.272 0.459,-0.468c0.194,-0.196 0.316,-0.322 0.366,-0.379c0.094,-0.106 0.161,-0.196 0.198,-0.27c0.038,-0.074 0.057,-0.146 0.057,-0.218c0,-0.116 -0.041,-0.211 -0.123,-0.284c-0.081,-0.073 -0.187,-0.11 -0.318,-0.11c-0.093,0 -0.191,0.016 -0.294,0.048c-0.103,0.033 -0.213,0.082 -0.33,0.147l0,-0.299c0.119,-0.048 0.23,-0.084 0.333,-0.108c0.104,-0.025 0.199,-0.037 0.285,-0.037c0.227,0 0.407,0.057 0.542,0.17c0.135,0.114 0.202,0.265 0.202,0.454c0,0.09 -0.017,0.175 -0.051,0.256c-0.033,0.08 -0.094,0.175 -0.183,0.285c-0.025,0.028 -0.102,0.11 -0.233,0.245c-0.131,0.136 -0.316,0.325 -0.554,0.568Z" style="fill-rule:nonzero;"/><path id="DejaVuSans.-33" d="M18.388,17.129c0.142,0.031 0.252,0.094 0.332,0.19c0.079,0.095 0.119,0.214 0.119,0.354c0,0.216 -0.074,0.383 -0.222,0.501c-0.149,0.118 -0.36,0.177 -0.633,0.177c-0.092,0 -0.186,-0.009 -0.283,-0.027c-0.097,-0.018 -0.198,-0.045 -0.301,-0.081l0,-0.286c0.082,0.048 0.171,0.084 0.269,0.109c0.098,0.024 0.2,0.036 0.306,0.036c0.186,0 0.327,-0.036 0.424,-0.11c0.097,-0.073 0.146,-0.179 0.146,-0.319c0,-0.129 -0.045,-0.23 -0.136,-0.302c-0.09,-0.073 -0.215,-0.109 -0.376,-0.109l-0.255,0l0,-0.244l0.266,0c0.146,0 0.257,-0.029 0.334,-0.087c0.077,-0.058 0.116,-0.142 0.116,-0.251c0,-0.112 -0.04,-0.198 -0.12,-0.258c-0.079,-0.061 -0.193,-0.091 -0.341,-0.091c-0.082,0 -0.169,0.009 -0.261,0.027c-0.093,0.017 -0.195,0.045 -0.307,0.081l0,-0.263c0.113,-0.031 0.218,-0.055 0.316,-0.07c0.098,-0.016 0.191,-0.024 0.278,-0.024c0.225,0 0.402,0.051 0.533,0.154c0.131,0.101 0.196,0.239 0.196,0.413c0,0.121 -0.034,0.224 -0.104,0.307c-0.069,0.083 -0.168,0.141 -0.296,0.173Z" style="fill-rule:nonzero;"/><path id="DejaVuSans.-31" d="M19.452,18.06l0.483,0l0,-1.669l-0.526,0.106l0,-0.27l0.523,-0.105l0.296,0l0,1.938l0.483,0l0,0.249l-1.259,0l0,-0.249Z" style="fill-rule:nonzero;"/><path id="DejaVuSans.-30" d="M21.942,16.317c-0.152,0 -0.267,0.075 -0.344,0.225c-0.076,0.149 -0.115,0.375 -0.115,0.676c0,0.299 0.039,0.524 0.115,0.674c0.077,0.15 0.192,0.225 0.344,0.225c0.153,0 0.268,-0.075 0.345,-0.225c0.077,-0.15 0.115,-0.375 0.115,-0.674c0,-0.301 -0.038,-0.527 -0.115,-0.676c-0.077,-0.15 -0.192,-0.225 -0.345,-0.225Zm0,-0.235c0.245,0 0.433,0.097 0.562,0.291c0.129,0.194 0.194,0.475 0.194,0.845c0,0.368 -0.065,0.649 -0.194,0.843c-0.129,0.194 -0.317,0.29 -0.562,0.29c-0.245,0 -0.432,-0.096 -0.562,-0.29c-0.129,-0.194 -0.194,-0.475 -0.194,-0.843c0,-0.37 0.065,-0.651 0.194,-0.845c0.13,-0.194 0.317,-0.291 0.562,-0.291Z" style="fill-rule:nonzero;"/><path id="DejaVuSans.-301" d="M23.851,16.317c-0.153,0 -0.267,0.075 -0.344,0.225c-0.077,0.149 -0.115,0.375 -0.115,0.676c0,0.299 0.038,0.524 0.115,0.674c0.077,0.15 0.191,0.225 0.344,0.225c0.153,0 0.268,-0.075 0.345,-0.225c0.076,-0.15 0.115,-0.375 0.115,-0.674c0,-0.301 -0.039,-0.527 -0.115,-0.676c-0.077,-0.15 -0.192,-0.225 -0.345,-0.225Zm0,-0.235c0.245,0 0.432,0.097 0.562,0.291c0.129,0.194 0.194,0.475 0.194,0.845c0,0.368 -0.065,0.649 -0.194,0.843c-0.13,0.194 -0.317,0.29 -0.562,0.29c-0.245,0 -0.433,-0.096 -0.562,-0.29c-0.129,-0.194 -0.194,-0.475 -0.194,-0.843c0,-0.37 0.065,-0.651 0.194,-0.845c0.129,-0.194 0.317,-0.291 0.562,-0.291Z" style="fill-rule:nonzero;"/></g><g id="text_10"><path id="DejaVuSans.-421" d="M37.351,17.264l0,0.802l0.475,0c0.159,0 0.277,-0.033 0.353,-0.099c0.077,-0.066 0.115,-0.167 0.115,-0.303c0,-0.137 -0.038,-0.237 -0.115,-0.302c-0.076,-0.065 -0.194,-0.098 -0.353,-0.098l-0.475,0Zm0,-0.899l0,0.659l0.438,0c0.145,0 0.252,-0.027 0.323,-0.081c0.071,-0.055 0.106,-0.137 0.106,-0.249c0,-0.11 -0.035,-0.192 -0.106,-0.247c-0.071,-0.055 -0.178,-0.082 -0.323,-0.082l-0.438,0Zm-0.296,-0.243l0.756,0c0.226,0 0.4,0.046 0.521,0.14c0.123,0.094 0.184,0.227 0.184,0.4c0,0.134 -0.032,0.241 -0.094,0.32c-0.063,0.079 -0.154,0.128 -0.276,0.147c0.146,0.032 0.259,0.097 0.34,0.196c0.08,0.099 0.121,0.223 0.121,0.372c0,0.195 -0.067,0.346 -0.2,0.452c-0.132,0.107 -0.321,0.16 -0.567,0.16l-0.785,0l0,-2.187Z" style="fill-rule:nonzero;"/><path id="DejaVuSans.-621" d="M40.279,17.49c0,-0.198 -0.04,-0.354 -0.122,-0.467c-0.081,-0.112 -0.193,-0.169 -0.336,-0.169c-0.143,0 -0.255,0.057 -0.337,0.169c-0.081,0.113 -0.122,0.269 -0.122,0.467c0,0.198 0.041,0.353 0.122,0.466c0.082,0.113 0.194,0.17 0.337,0.17c0.143,0 0.255,-0.057 0.336,-0.17c0.082,-0.113 0.122,-0.268 0.122,-0.466Zm-0.917,-0.573c0.057,-0.097 0.129,-0.17 0.215,-0.217c0.086,-0.047 0.19,-0.071 0.31,-0.071c0.199,0 0.361,0.079 0.485,0.237c0.125,0.158 0.187,0.366 0.187,0.624c0,0.258 -0.062,0.466 -0.187,0.624c-0.124,0.158 -0.286,0.237 -0.485,0.237c-0.12,0 -0.224,-0.023 -0.31,-0.071c-0.086,-0.047 -0.158,-0.12 -0.215,-0.217l0,0.246l-0.271,0l0,-2.28l0.271,0l0,0.888Z" style="fill-rule:nonzero;"/><path id="DejaVuSans.-611" d="M41.752,17.484c-0.218,0 -0.369,0.025 -0.453,0.075c-0.084,0.049 -0.126,0.134 -0.126,0.255c0,0.095 0.031,0.171 0.094,0.228c0.063,0.056 0.149,0.084 0.257,0.084c0.15,0 0.27,-0.053 0.36,-0.159c0.091,-0.106 0.136,-0.247 0.136,-0.423l0,-0.06l-0.268,0Zm0.537,-0.111l0,0.936l-0.269,0l0,-0.249c-0.062,0.099 -0.139,0.173 -0.23,0.22c-0.092,0.048 -0.205,0.071 -0.338,0.071c-0.167,0 -0.301,-0.047 -0.4,-0.141c-0.099,-0.094 -0.149,-0.221 -0.149,-0.379c0,-0.184 0.062,-0.323 0.185,-0.417c0.124,-0.094 0.308,-0.141 0.553,-0.141l0.379,0l0,-0.026c0,-0.124 -0.041,-0.22 -0.123,-0.288c-0.081,-0.068 -0.196,-0.102 -0.343,-0.102c-0.094,0 -0.185,0.011 -0.274,0.034c-0.089,0.022 -0.175,0.056 -0.256,0.101l0,-0.249c0.098,-0.038 0.194,-0.067 0.286,-0.086c0.093,-0.019 0.184,-0.028 0.271,-0.028c0.238,0 0.415,0.061 0.532,0.184c0.118,0.123 0.176,0.31 0.176,0.56Z" style="fill-rule:nonzero;"/><path id="DejaVuSans.-5f1" d="M44.091,18.807l0,0.209l-1.559,0l0,-0.209l1.559,0Z" style="fill-rule:nonzero;"/><path id="DejaVuSans.-422" d="M44.652,17.264l0,0.802l0.474,0c0.16,0 0.277,-0.033 0.354,-0.099c0.077,-0.066 0.115,-0.167 0.115,-0.303c0,-0.137 -0.038,-0.237 -0.115,-0.302c-0.077,-0.065 -0.194,-0.098 -0.354,-0.098l-0.474,0Zm0,-0.899l0,0.659l0.438,0c0.144,0 0.252,-0.027 0.322,-0.081c0.071,-0.055 0.107,-0.137 0.107,-0.249c0,-0.11 -0.036,-0.192 -0.107,-0.247c-0.07,-0.055 -0.178,-0.082 -0.322,-0.082l-0.438,0Zm-0.296,-0.243l0.756,0c0.226,0 0.399,0.046 0.521,0.14c0.122,0.094 0.183,0.227 0.183,0.4c0,0.134 -0.031,0.241 -0.093,0.32c-0.063,0.079 -0.155,0.128 -0.276,0.147c0.146,0.032 0.259,0.097 0.339,0.196c0.081,0.099 0.121,0.223 0.121,0.372c0,0.195 -0.066,0.346 -0.199,0.452c-0.133,0.107 -0.322,0.16 -0.567,0.16l-0.785,0l0,-2.187Z" style="fill-rule:nonzero;"/><path id="DejaVuSans.-302" d="M47.073,16.317c-0.152,0 -0.267,0.075 -0.344,0.225c-0.076,0.149 -0.114,0.375 -0.114,0.676c0,0.299 0.038,0.524 0.114,0.674c0.077,0.15 0.192,0.225 0.344,0.225c0.153,0 0.268,-0.075 0.345,-0.225c0.077,-0.15 0.115,-0.375 0.115,-0.674c0,-0.301 -0.038,-0.527 -0.115,-0.676c-0.077,-0.15 -0.192,-0.225 -0.345,-0.225Zm0,-0.235c0.245,0 0.433,0.097 0.562,0.291c0.129,0.194 0.194,0.475 0.194,0.845c0,0.368 -0.065,0.649 -0.194,0.843c-0.129,0.194 -0.317,0.29 -0.562,0.29c-0.245,0 -0.432,-0.096 -0.562,-0.29c-0.129,-0.194 -0.194,-0.475 -0.194,-0.843c0,-0.37 0.065,-0.651 0.194,-0.845c0.13,-0.194 0.317,-0.291 0.562,-0.291Z" style="fill-rule:nonzero;"/><path id="DejaVuSans.-303" d="M48.982,16.317c-0.152,0 -0.267,0.075 -0.344,0.225c-0.076,0.149 -0.115,0.375 -0.115,0.676c0,0.299 0.039,0.524 0.115,0.674c0.077,0.15 0.192,0.225 0.344,0.225c0.153,0 0.268,-0.075 0.345,-0.225c0.077,-0.15 0.115,-0.375 0.115,-0.674c0,-0.301 -0.038,-0.527 -0.115,-0.676c-0.077,-0.15 -0.192,-0.225 -0.345,-0.225Zm0,-0.235c0.245,0 0.432,0.097 0.562,0.291c0.129,0.194 0.194,0.475 0.194,0.845c0,0.368 -0.065,0.649 -0.194,0.843c-0.13,0.194 -0.317,0.29 -0.562,0.29c-0.245,0 -0.432,-0.096 -0.562,-0.29c-0.129,-0.194 -0.194,-0.475 -0.194,-0.843c0,-0.37 0.065,-0.651 0.194,-0.845c0.13,-0.194 0.317,-0.291 0.562,-0.291Z" style="fill-rule:nonzero;"/><path id="DejaVuSans.-331" d="M51.154,17.129c0.142,0.031 0.252,0.094 0.332,0.19c0.079,0.095 0.119,0.214 0.119,0.354c0,0.216 -0.074,0.383 -0.222,0.501c-0.149,0.118 -0.36,0.177 -0.633,0.177c-0.092,0 -0.186,-0.009 -0.283,-0.027c-0.098,-0.018 -0.198,-0.045 -0.301,-0.081l0,-0.286c0.082,0.048 0.171,0.084 0.269,0.109c0.098,0.024 0.2,0.036 0.306,0.036c0.186,0 0.327,-0.036 0.424,-0.11c0.097,-0.073 0.146,-0.179 0.146,-0.319c0,-0.129 -0.045,-0.23 -0.136,-0.302c-0.09,-0.073 -0.216,-0.109 -0.376,-0.109l-0.255,0l0,-0.244l0.266,0c0.146,0 0.257,-0.029 0.334,-0.087c0.077,-0.058 0.116,-0.142 0.116,-0.251c0,-0.112 -0.04,-0.198 -0.12,-0.258c-0.079,-0.061 -0.193,-0.091 -0.341,-0.091c-0.082,0 -0.169,0.009 -0.262,0.027c-0.092,0.017 -0.194,0.045 -0.306,0.081l0,-0.263c0.113,-0.031 0.218,-0.055 0.316,-0.07c0.098,-0.016 0.191,-0.024 0.278,-0.024c0.224,0 0.402,0.051 0.533,0.154c0.131,0.101 0.196,0.239 0.196,0.413c0,0.121 -0.035,0.224 -0.104,0.307c-0.069,0.083 -0.168,0.141 -0.296,0.173Z" style="fill-rule:nonzero;"/><path id="DejaVuSans.-34" d="M52.98,16.379l-0.748,1.168l0.748,0l0,-1.168Zm-0.078,-0.257l0.372,0l0,1.425l0.312,0l0,0.246l-0.312,0l0,0.516l-0.294,0l0,-0.516l-0.988,0l0,-0.285l0.91,-1.386Z" style="fill-rule:nonzero;"/></g><g id="text_11"><path id="DejaVuSans.-Oblique.-6e" d="M75.841,14.048l-0.257,1.321l-0.361,0l0.256,-1.307c0.012,-0.061 0.021,-0.115 0.027,-0.162c0.007,-0.047 0.01,-0.084 0.01,-0.111c0,-0.109 -0.034,-0.195 -0.104,-0.256c-0.068,-0.061 -0.165,-0.091 -0.288,-0.091c-0.193,0 -0.359,0.064 -0.498,0.192c-0.14,0.128 -0.231,0.302 -0.274,0.522l-0.24,1.213l-0.36,0l0.424,-2.187l0.36,0l-0.072,0.343c0.1,-0.126 0.22,-0.223 0.36,-0.292c0.141,-0.069 0.289,-0.104 0.444,-0.104c0.193,0 0.342,0.052 0.448,0.156c0.106,0.105 0.16,0.251 0.16,0.44c0,0.046 -0.003,0.096 -0.009,0.15c-0.006,0.053 -0.015,0.111 -0.026,0.173Z" style="fill-rule:nonzero;"/><path id="DejaVuSans.-Oblique.-61" d="M78.296,14.121l-0.245,1.248l-0.359,0l0.066,-0.332c-0.105,0.13 -0.225,0.228 -0.36,0.292c-0.135,0.065 -0.285,0.097 -0.45,0.097c-0.187,0 -0.339,-0.057 -0.458,-0.171c-0.119,-0.114 -0.179,-0.26 -0.179,-0.438c0,-0.256 0.102,-0.458 0.306,-0.606c0.204,-0.148 0.485,-0.223 0.843,-0.223l0.5,0l0.019,-0.096c0.003,-0.01 0.005,-0.021 0.006,-0.034c0.001,-0.012 0.002,-0.031 0.002,-0.057c0,-0.116 -0.047,-0.206 -0.142,-0.271c-0.094,-0.064 -0.227,-0.097 -0.397,-0.097c-0.117,0 -0.238,0.015 -0.361,0.045c-0.123,0.03 -0.249,0.075 -0.379,0.135l0.062,-0.332c0.136,-0.051 0.268,-0.089 0.398,-0.114c0.129,-0.025 0.254,-0.038 0.375,-0.038c0.258,0 0.454,0.056 0.589,0.168c0.135,0.112 0.203,0.275 0.203,0.488c0,0.043 -0.004,0.094 -0.01,0.152c-0.007,0.058 -0.016,0.119 -0.029,0.184Zm-0.389,0.149l-0.359,0c-0.295,0 -0.513,0.039 -0.654,0.118c-0.141,0.079 -0.212,0.201 -0.212,0.366c0,0.115 0.036,0.204 0.108,0.269c0.073,0.065 0.173,0.098 0.3,0.098c0.196,0 0.366,-0.07 0.512,-0.21c0.146,-0.14 0.242,-0.327 0.289,-0.561l0.016,-0.08Z" style="fill-rule:nonzero;"/><path id="DejaVuSans.-Oblique.-68" d="M80.827,14.048l-0.256,1.321l-0.362,0l0.257,-1.307c0.011,-0.061 0.02,-0.115 0.027,-0.162c0.006,-0.047 0.01,-0.084 0.01,-0.111c0,-0.109 -0.035,-0.195 -0.104,-0.256c-0.069,-0.061 -0.165,-0.091 -0.289,-0.091c-0.193,0 -0.36,0.065 -0.501,0.195c-0.141,0.13 -0.233,0.303 -0.275,0.519l-0.236,1.213l-0.359,0l0.592,-3.039l0.359,0l-0.232,1.195c0.091,-0.122 0.207,-0.219 0.349,-0.29c0.142,-0.07 0.291,-0.106 0.447,-0.106c0.193,0 0.343,0.052 0.449,0.156c0.106,0.105 0.159,0.251 0.159,0.44c0,0.046 -0.003,0.096 -0.009,0.15c-0.006,0.053 -0.014,0.111 -0.026,0.173Z" style="fill-rule:nonzero;"/><path id="DejaVuSans.-Oblique.-52" d="M82.141,12.777l-0.199,1.035l0.508,0c0.199,0 0.36,-0.055 0.483,-0.165c0.123,-0.11 0.185,-0.253 0.185,-0.43c0,-0.142 -0.042,-0.251 -0.125,-0.326c-0.082,-0.076 -0.201,-0.114 -0.356,-0.114l-0.496,0Zm0.725,1.191c0.083,0.02 0.153,0.068 0.208,0.145c0.055,0.077 0.12,0.23 0.192,0.459l0.248,0.797l-0.416,0l-0.228,-0.748c-0.059,-0.193 -0.126,-0.321 -0.204,-0.386c-0.076,-0.066 -0.194,-0.098 -0.353,-0.098l-0.435,0l-0.241,1.232l-0.396,0l0.568,-2.916l0.889,0c0.269,0 0.476,0.061 0.62,0.183c0.144,0.122 0.216,0.297 0.216,0.526c0,0.203 -0.061,0.379 -0.184,0.528c-0.122,0.148 -0.284,0.241 -0.484,0.278Z" style="fill-rule:nonzero;"/></g><g id="text_12"><path id="DejaVuSans.-423" d="M105.388,17.264l0,0.802l0.474,0c0.159,0 0.277,-0.033 0.354,-0.099c0.077,-0.066 0.115,-0.167 0.115,-0.303c0,-0.137 -0.038,-0.237 -0.115,-0.302c-0.077,-0.065 -0.195,-0.098 -0.354,-0.098l-0.474,0Zm0,-0.899l0,0.659l0.438,0c0.144,0 0.252,-0.027 0.322,-0.081c0.071,-0.055 0.107,-0.137 0.107,-0.249c0,-0.11 -0.036,-0.192 -0.107,-0.247c-0.07,-0.055 -0.178,-0.082 -0.322,-0.082l-0.438,0Zm-0.296,-0.243l0.756,0c0.225,0 0.399,0.046 0.521,0.14c0.122,0.094 0.183,0.227 0.183,0.4c0,0.134 -0.031,0.241 -0.093,0.32c-0.063,0.079 -0.155,0.128 -0.276,0.147c0.146,0.032 0.259,0.097 0.339,0.196c0.081,0.099 0.121,0.223 0.121,0.372c0,0.195 -0.066,0.346 -0.199,0.452c-0.133,0.107 -0.322,0.16 -0.567,0.16l-0.785,0l0,-2.187Z" style="fill-rule:nonzero;"/><path id="DejaVuSans.-622" d="M108.316,17.49c0,-0.198 -0.041,-0.354 -0.122,-0.467c-0.082,-0.112 -0.194,-0.169 -0.336,-0.169c-0.143,0 -0.255,0.057 -0.337,0.169c-0.081,0.113 -0.122,0.269 -0.122,0.467c0,0.198 0.041,0.353 0.122,0.466c0.082,0.113 0.194,0.17 0.337,0.17c0.142,0 0.254,-0.057 0.336,-0.17c0.081,-0.113 0.122,-0.268 0.122,-0.466Zm-0.917,-0.573c0.057,-0.097 0.128,-0.17 0.214,-0.217c0.087,-0.047 0.19,-0.071 0.31,-0.071c0.2,0 0.362,0.079 0.486,0.237c0.125,0.158 0.187,0.366 0.187,0.624c0,0.258 -0.062,0.466 -0.187,0.624c-0.124,0.158 -0.286,0.237 -0.486,0.237c-0.12,0 -0.223,-0.023 -0.31,-0.071c-0.086,-0.047 -0.157,-0.12 -0.214,-0.217l0,0.246l-0.271,0l0,-2.28l0.271,0l0,0.888Z" style="fill-rule:nonzero;"/><path id="DejaVuSans.-612" d="M109.788,17.484c-0.218,0 -0.369,0.025 -0.453,0.075c-0.084,0.049 -0.126,0.134 -0.126,0.255c0,0.095 0.032,0.171 0.095,0.228c0.063,0.056 0.149,0.084 0.257,0.084c0.15,0 0.27,-0.053 0.36,-0.159c0.09,-0.106 0.135,-0.247 0.135,-0.423l0,-0.06l-0.268,0Zm0.538,-0.111l0,0.936l-0.27,0l0,-0.249c-0.061,0.099 -0.138,0.173 -0.23,0.22c-0.092,0.048 -0.204,0.071 -0.337,0.071c-0.168,0 -0.301,-0.047 -0.401,-0.141c-0.099,-0.094 -0.148,-0.221 -0.148,-0.379c0,-0.184 0.062,-0.323 0.185,-0.417c0.124,-0.094 0.308,-0.141 0.553,-0.141l0.378,0l0,-0.026c0,-0.124 -0.04,-0.22 -0.122,-0.288c-0.082,-0.068 -0.196,-0.102 -0.344,-0.102c-0.093,0 -0.185,0.011 -0.274,0.034c-0.089,0.022 -0.174,0.056 -0.256,0.101l0,-0.249c0.099,-0.038 0.194,-0.067 0.287,-0.086c0.093,-0.019 0.183,-0.028 0.271,-0.028c0.238,0 0.415,0.061 0.532,0.184c0.117,0.123 0.176,0.31 0.176,0.56Z" style="fill-rule:nonzero;"/><path id="DejaVuSans.-5f2" d="M112.128,18.807l0,0.209l-1.559,0l0,-0.209l1.559,0Z" style="fill-rule:nonzero;"/><path id="DejaVuSans.-4a1" d="M112.393,16.122l0.295,0l0,2.034c0,0.264 -0.05,0.456 -0.15,0.575c-0.1,0.119 -0.261,0.178 -0.482,0.178l-0.113,0l0,-0.249l0.092,0c0.131,0 0.223,-0.036 0.277,-0.11c0.054,-0.073 0.081,-0.204 0.081,-0.394l0,-2.034Z" style="fill-rule:nonzero;"/><path id="DejaVuSans.-36" d="M113.973,17.098c-0.132,0 -0.238,0.045 -0.316,0.136c-0.077,0.091 -0.116,0.215 -0.116,0.373c0,0.157 0.039,0.282 0.116,0.373c0.078,0.091 0.184,0.137 0.316,0.137c0.133,0 0.238,-0.046 0.316,-0.137c0.077,-0.091 0.116,-0.216 0.116,-0.373c0,-0.158 -0.039,-0.282 -0.116,-0.373c-0.078,-0.091 -0.183,-0.136 -0.316,-0.136Zm0.588,-0.928l0,0.269c-0.075,-0.035 -0.15,-0.061 -0.225,-0.08c-0.076,-0.018 -0.151,-0.028 -0.225,-0.028c-0.196,0 -0.345,0.066 -0.448,0.198c-0.103,0.132 -0.161,0.331 -0.176,0.598c0.057,-0.085 0.13,-0.151 0.216,-0.196c0.088,-0.045 0.183,-0.068 0.288,-0.068c0.219,0 0.393,0.067 0.521,0.2c0.127,0.133 0.191,0.315 0.191,0.544c0,0.225 -0.067,0.405 -0.199,0.541c-0.133,0.136 -0.31,0.203 -0.531,0.203c-0.253,0 -0.446,-0.096 -0.58,-0.29c-0.134,-0.194 -0.201,-0.475 -0.201,-0.843c0,-0.346 0.083,-0.622 0.247,-0.827c0.164,-0.206 0.384,-0.309 0.66,-0.309c0.074,0 0.149,0.008 0.225,0.022c0.076,0.015 0.155,0.037 0.237,0.066Z" style="fill-rule:nonzero;"/><path id="DejaVuSans.-311" d="M115.264,18.06l0.483,0l0,-1.669l-0.526,0.106l0,-0.27l0.523,-0.105l0.296,0l0,1.938l0.483,0l0,0.249l-1.259,0l0,-0.249Z" style="fill-rule:nonzero;"/><path id="DejaVuSans.-304" d="M117.754,16.317c-0.152,0 -0.267,0.075 -0.344,0.225c-0.076,0.149 -0.115,0.375 -0.115,0.676c0,0.299 0.039,0.524 0.115,0.674c0.077,0.15 0.192,0.225 0.344,0.225c0.153,0 0.268,-0.075 0.345,-0.225c0.077,-0.15 0.115,-0.375 0.115,-0.674c0,-0.301 -0.038,-0.527 -0.115,-0.676c-0.077,-0.15 -0.192,-0.225 -0.345,-0.225Zm0,-0.235c0.245,0 0.432,0.097 0.562,0.291c0.129,0.194 0.194,0.475 0.194,0.845c0,0.368 -0.065,0.649 -0.194,0.843c-0.13,0.194 -0.317,0.29 -0.562,0.29c-0.245,0 -0.432,-0.096 -0.562,-0.29c-0.129,-0.194 -0.194,-0.475 -0.194,-0.843c0,-0.37 0.065,-0.651 0.194,-0.845c0.13,-0.194 0.317,-0.291 0.562,-0.291Z" style="fill-rule:nonzero;"/><path id="DejaVuSans.-35" d="M119.033,16.122l1.161,0l0,0.249l-0.89,0l0,0.536c0.043,-0.015 0.085,-0.026 0.128,-0.033c0.043,-0.007 0.087,-0.011 0.13,-0.011c0.244,0 0.437,0.067 0.58,0.201c0.142,0.134 0.214,0.315 0.214,0.543c0,0.235 -0.074,0.418 -0.22,0.549c-0.147,0.13 -0.353,0.195 -0.62,0.195c-0.092,0 -0.185,-0.007 -0.281,-0.023c-0.095,-0.016 -0.193,-0.039 -0.294,-0.07l0,-0.298c0.087,0.048 0.178,0.083 0.272,0.107c0.094,0.023 0.193,0.035 0.297,0.035c0.169,0 0.303,-0.044 0.401,-0.133c0.099,-0.089 0.148,-0.209 0.148,-0.362c0,-0.152 -0.049,-0.273 -0.148,-0.361c-0.098,-0.089 -0.232,-0.134 -0.401,-0.134c-0.079,0 -0.158,0.009 -0.237,0.026c-0.078,0.018 -0.158,0.045 -0.24,0.082l0,-1.098Z" style="fill-rule:nonzero;"/><path id="DejaVuSans.-312" d="M120.99,18.06l0.483,0l0,-1.669l-0.526,0.106l0,-0.27l0.523,-0.105l0.296,0l0,1.938l0.483,0l0,0.249l-1.259,0l0,-0.249Z" style="fill-rule:nonzero;"/></g><g id="text_13"><path id="DejaVuSans.-424" d="M135.071,17.264l0,0.802l0.475,0c0.159,0 0.277,-0.033 0.354,-0.099c0.077,-0.066 0.115,-0.167 0.115,-0.303c0,-0.137 -0.038,-0.237 -0.115,-0.302c-0.077,-0.065 -0.195,-0.098 -0.354,-0.098l-0.475,0Zm0,-0.899l0,0.659l0.439,0c0.144,0 0.252,-0.027 0.322,-0.081c0.071,-0.055 0.107,-0.137 0.107,-0.249c0,-0.11 -0.036,-0.192 -0.107,-0.247c-0.07,-0.055 -0.178,-0.082 -0.322,-0.082l-0.439,0Zm-0.295,-0.243l0.756,0c0.225,0 0.399,0.046 0.521,0.14c0.122,0.094 0.183,0.227 0.183,0.4c0,0.134 -0.031,0.241 -0.093,0.32c-0.063,0.079 -0.155,0.128 -0.276,0.147c0.146,0.032 0.259,0.097 0.339,0.196c0.081,0.099 0.121,0.223 0.121,0.372c0,0.195 -0.066,0.346 -0.199,0.452c-0.133,0.107 -0.322,0.16 -0.567,0.16l-0.785,0l0,-2.187Z" style="fill-rule:nonzero;"/><path id="DejaVuSans.-623" d="M138,17.49c0,-0.198 -0.041,-0.354 -0.122,-0.467c-0.082,-0.112 -0.194,-0.169 -0.336,-0.169c-0.143,0 -0.255,0.057 -0.337,0.169c-0.082,0.113 -0.122,0.269 -0.122,0.467c0,0.198 0.04,0.353 0.122,0.466c0.082,0.113 0.194,0.17 0.337,0.17c0.142,0 0.254,-0.057 0.336,-0.17c0.081,-0.113 0.122,-0.268 0.122,-0.466Zm-0.917,-0.573c0.057,-0.097 0.128,-0.17 0.214,-0.217c0.087,-0.047 0.19,-0.071 0.31,-0.071c0.2,0 0.361,0.079 0.486,0.237c0.125,0.158 0.187,0.366 0.187,0.624c0,0.258 -0.062,0.466 -0.187,0.624c-0.125,0.158 -0.286,0.237 -0.486,0.237c-0.12,0 -0.223,-0.023 -0.31,-0.071c-0.086,-0.047 -0.157,-0.12 -0.214,-0.217l0,0.246l-0.271,0l0,-2.28l0.271,0l0,0.888Z" style="fill-rule:nonzero;"/><path id="DejaVuSans.-613" d="M139.472,17.484c-0.218,0 -0.369,0.025 -0.453,0.075c-0.084,0.049 -0.126,0.134 -0.126,0.255c0,0.095 0.032,0.171 0.095,0.228c0.063,0.056 0.149,0.084 0.257,0.084c0.149,0 0.269,-0.053 0.36,-0.159c0.09,-0.106 0.135,-0.247 0.135,-0.423l0,-0.06l-0.268,0Zm0.538,-0.111l0,0.936l-0.27,0l0,-0.249c-0.061,0.099 -0.138,0.173 -0.23,0.22c-0.092,0.048 -0.204,0.071 -0.337,0.071c-0.168,0 -0.301,-0.047 -0.401,-0.141c-0.099,-0.094 -0.148,-0.221 -0.148,-0.379c0,-0.184 0.061,-0.323 0.185,-0.417c0.124,-0.094 0.308,-0.141 0.553,-0.141l0.378,0l0,-0.026c0,-0.124 -0.041,-0.22 -0.122,-0.288c-0.082,-0.068 -0.196,-0.102 -0.344,-0.102c-0.093,0 -0.185,0.011 -0.274,0.034c-0.089,0.022 -0.174,0.056 -0.256,0.101l0,-0.249c0.099,-0.038 0.194,-0.067 0.287,-0.086c0.093,-0.019 0.183,-0.028 0.271,-0.028c0.237,0 0.415,0.061 0.532,0.184c0.117,0.123 0.176,0.31 0.176,0.56Z" style="fill-rule:nonzero;"/><path id="DejaVuSans.-5f3" d="M141.812,18.807l0,0.209l-1.559,0l0,-0.209l1.559,0Z" style="fill-rule:nonzero;"/><path id="DejaVuSans.-425" d="M142.372,17.264l0,0.802l0.475,0c0.159,0 0.277,-0.033 0.354,-0.099c0.076,-0.066 0.115,-0.167 0.115,-0.303c0,-0.137 -0.039,-0.237 -0.115,-0.302c-0.077,-0.065 -0.195,-0.098 -0.354,-0.098l-0.475,0Zm0,-0.899l0,0.659l0.439,0c0.144,0 0.251,-0.027 0.322,-0.081c0.071,-0.055 0.106,-0.137 0.106,-0.249c0,-0.11 -0.035,-0.192 -0.106,-0.247c-0.071,-0.055 -0.178,-0.082 -0.322,-0.082l-0.439,0Zm-0.296,-0.243l0.757,0c0.225,0 0.399,0.046 0.521,0.14c0.122,0.094 0.183,0.227 0.183,0.4c0,0.134 -0.031,0.241 -0.094,0.32c-0.062,0.079 -0.154,0.128 -0.275,0.147c0.145,0.032 0.258,0.097 0.339,0.196c0.081,0.099 0.121,0.223 0.121,0.372c0,0.195 -0.066,0.346 -0.199,0.452c-0.133,0.107 -0.322,0.16 -0.567,0.16l-0.786,0l0,-2.187Z" style="fill-rule:nonzero;"/><path id="DejaVuSans.-305" d="M144.794,16.317c-0.153,0 -0.267,0.075 -0.344,0.225c-0.077,0.149 -0.115,0.375 -0.115,0.676c0,0.299 0.038,0.524 0.115,0.674c0.077,0.15 0.191,0.225 0.344,0.225c0.153,0 0.268,-0.075 0.345,-0.225c0.077,-0.15 0.115,-0.375 0.115,-0.674c0,-0.301 -0.038,-0.527 -0.115,-0.676c-0.077,-0.15 -0.192,-0.225 -0.345,-0.225Zm0,-0.235c0.245,0 0.432,0.097 0.562,0.291c0.129,0.194 0.194,0.475 0.194,0.845c0,0.368 -0.065,0.649 -0.194,0.843c-0.13,0.194 -0.317,0.29 -0.562,0.29c-0.245,0 -0.433,-0.096 -0.562,-0.29c-0.129,-0.194 -0.194,-0.475 -0.194,-0.843c0,-0.37 0.065,-0.651 0.194,-0.845c0.129,-0.194 0.317,-0.291 0.562,-0.291Z" style="fill-rule:nonzero;"/><path id="DejaVuSans.-306" d="M146.702,16.317c-0.152,0 -0.266,0.075 -0.343,0.225c-0.077,0.149 -0.115,0.375 -0.115,0.676c0,0.299 0.038,0.524 0.115,0.674c0.077,0.15 0.191,0.225 0.343,0.225c0.154,0 0.269,-0.075 0.345,-0.225c0.077,-0.15 0.116,-0.375 0.116,-0.674c0,-0.301 -0.039,-0.527 -0.116,-0.676c-0.076,-0.15 -0.191,-0.225 -0.345,-0.225Zm0,-0.235c0.246,0 0.433,0.097 0.562,0.291c0.13,0.194 0.194,0.475 0.194,0.845c0,0.368 -0.064,0.649 -0.194,0.843c-0.129,0.194 -0.316,0.29 -0.562,0.29c-0.245,0 -0.432,-0.096 -0.561,-0.29c-0.13,-0.194 -0.194,-0.475 -0.194,-0.843c0,-0.37 0.064,-0.651 0.194,-0.845c0.129,-0.194 0.316,-0.291 0.561,-0.291Z" style="fill-rule:nonzero;"/><path id="DejaVuSans.-332" d="M148.875,17.129c0.141,0.031 0.252,0.094 0.331,0.19c0.08,0.095 0.12,0.214 0.12,0.354c0,0.216 -0.074,0.383 -0.223,0.501c-0.148,0.118 -0.359,0.177 -0.633,0.177c-0.091,0 -0.186,-0.009 -0.283,-0.027c-0.097,-0.018 -0.197,-0.045 -0.301,-0.081l0,-0.286c0.082,0.048 0.172,0.084 0.269,0.109c0.098,0.024 0.2,0.036 0.307,0.036c0.185,0 0.327,-0.036 0.424,-0.11c0.097,-0.073 0.145,-0.179 0.145,-0.319c0,-0.129 -0.045,-0.23 -0.135,-0.302c-0.09,-0.073 -0.216,-0.109 -0.377,-0.109l-0.255,0l0,-0.244l0.267,0c0.145,0 0.256,-0.029 0.334,-0.087c0.077,-0.058 0.115,-0.142 0.115,-0.251c0,-0.112 -0.039,-0.198 -0.119,-0.258c-0.08,-0.061 -0.193,-0.091 -0.342,-0.091c-0.081,0 -0.168,0.009 -0.261,0.027c-0.093,0.017 -0.195,0.045 -0.306,0.081l0,-0.263c0.112,-0.031 0.218,-0.055 0.316,-0.07c0.098,-0.016 0.191,-0.024 0.277,-0.024c0.225,0 0.403,0.051 0.533,0.154c0.131,0.101 0.197,0.239 0.197,0.413c0,0.121 -0.035,0.224 -0.104,0.307c-0.07,0.083 -0.168,0.141 -0.296,0.173Z" style="fill-rule:nonzero;"/><path id="DejaVuSans.-341" d="M150.7,16.379l-0.747,1.168l0.747,0l0,-1.168Zm-0.078,-0.257l0.373,0l0,1.425l0.312,0l0,0.246l-0.312,0l0,0.516l-0.295,0l0,-0.516l-0.987,0l0,-0.285l0.909,-1.386Z" style="fill-rule:nonzero;"/></g><g id="text_14"><path id="DejaVuSans.-Oblique.-47" d="M171.494,14.933l0.153,-0.763l-0.649,0l0.06,-0.325l1.035,0l-0.251,1.284c-0.174,0.095 -0.363,0.168 -0.567,0.22c-0.205,0.051 -0.41,0.077 -0.617,0.077c-0.366,0 -0.652,-0.101 -0.858,-0.304c-0.207,-0.204 -0.31,-0.486 -0.31,-0.849c0,-0.3 0.063,-0.586 0.188,-0.858c0.126,-0.271 0.3,-0.498 0.521,-0.679c0.139,-0.113 0.291,-0.197 0.457,-0.253c0.165,-0.055 0.349,-0.083 0.551,-0.083c0.182,0 0.357,0.023 0.524,0.07c0.167,0.046 0.327,0.115 0.48,0.208l-0.08,0.42c-0.118,-0.123 -0.255,-0.216 -0.413,-0.281c-0.157,-0.064 -0.325,-0.097 -0.503,-0.097c-0.207,0 -0.39,0.04 -0.547,0.119c-0.158,0.079 -0.298,0.201 -0.422,0.366c-0.106,0.141 -0.189,0.306 -0.249,0.497c-0.061,0.191 -0.091,0.385 -0.091,0.583c0,0.272 0.069,0.477 0.209,0.615c0.139,0.137 0.347,0.205 0.623,0.205c0.138,0 0.272,-0.014 0.4,-0.043c0.129,-0.03 0.248,-0.073 0.356,-0.129Z" style="fill-rule:nonzero;"/><path id="DejaVuSans.-Oblique.-46" d="M173.086,12.453l1.671,0l-0.064,0.332l-1.279,0l-0.168,0.86l1.156,0l-0.065,0.332l-1.156,0l-0.271,1.392l-0.393,0l0.569,-2.916Z" style="fill-rule:nonzero;"/><path id="DejaVuSans.-Oblique.-50" d="M175.386,12.453l0.913,0c0.265,0 0.467,0.062 0.607,0.185c0.139,0.124 0.209,0.305 0.209,0.544c0,0.32 -0.103,0.569 -0.309,0.748c-0.206,0.178 -0.495,0.267 -0.867,0.267l-0.496,0l-0.229,1.172l-0.396,0l0.568,-2.916Zm0.333,0.324l-0.211,1.096l0.496,0c0.224,0 0.395,-0.057 0.515,-0.172c0.12,-0.115 0.18,-0.279 0.18,-0.492c0,-0.137 -0.041,-0.243 -0.122,-0.318c-0.081,-0.076 -0.196,-0.114 -0.343,-0.114l-0.515,0Z" style="fill-rule:nonzero;"/><path id="DejaVuSans.-Oblique.-31" d="M177.383,15.037l0.644,0l0.436,-2.244l-0.729,0.14l0.069,-0.34l0.724,-0.14l0.396,0l-0.503,2.584l0.642,0l-0.062,0.332l-1.682,0l0.065,-0.332Z" style="fill-rule:nonzero;"/><path id="DejaVuSans.-Oblique.-2d" d="M179.912,14.113l1.053,0l-0.061,0.32l-1.056,0l0.064,-0.32Z" style="fill-rule:nonzero;"/><path id="DejaVuSans.-Oblique.-39" d="M181.287,15.305l0.072,-0.36c0.076,0.05 0.161,0.088 0.258,0.114c0.096,0.026 0.2,0.039 0.31,0.039c0.27,0 0.487,-0.085 0.652,-0.256c0.165,-0.171 0.287,-0.436 0.368,-0.797c-0.096,0.111 -0.208,0.195 -0.335,0.253c-0.127,0.058 -0.263,0.087 -0.409,0.087c-0.237,0 -0.426,-0.069 -0.566,-0.206c-0.14,-0.137 -0.21,-0.322 -0.21,-0.554c0,-0.19 0.035,-0.367 0.104,-0.53c0.069,-0.164 0.171,-0.307 0.304,-0.429c0.092,-0.086 0.197,-0.151 0.317,-0.197c0.12,-0.046 0.247,-0.069 0.383,-0.069c0.269,0 0.482,0.086 0.639,0.257c0.156,0.171 0.234,0.405 0.234,0.7c0,0.275 -0.036,0.541 -0.109,0.798c-0.072,0.256 -0.172,0.478 -0.299,0.665c-0.136,0.198 -0.299,0.349 -0.489,0.452c-0.19,0.103 -0.401,0.154 -0.632,0.154c-0.1,0 -0.2,-0.01 -0.3,-0.031c-0.1,-0.02 -0.197,-0.05 -0.292,-0.09Zm0.531,-1.772c0,0.165 0.043,0.297 0.129,0.394c0.086,0.097 0.202,0.145 0.348,0.145c0.201,0 0.371,-0.077 0.507,-0.232c0.137,-0.155 0.205,-0.348 0.205,-0.578c0,-0.172 -0.042,-0.306 -0.127,-0.404c-0.084,-0.097 -0.201,-0.145 -0.349,-0.145c-0.202,0 -0.371,0.079 -0.508,0.237c-0.137,0.158 -0.205,0.352 -0.205,0.583Z" style="fill-rule:nonzero;"/></g></g></svg>