<?xml version="1.0" encoding="UTF-8" standalone="no"?><!DOCTYPE svg PUBLIC "-//W3C//DTD SVG 1.1//EN" "http://www.w3.org/Graphics/SVG/1.1/DTD/svg11.dtd"><svg width="100%" height="100%" viewBox="0 0 200 200" version="1.1" xmlns="http://www.w3.org/2000/svg" xmlns:xlink="http://www.w3.org/1999/xlink" xml:space="preserve" style="fill-rule:evenodd;clip-rule:evenodd;stroke-linejoin:round;stroke-miterlimit:10;"><rect id="T.-.-Lund.-.-Safety.-food" x="0" y="0" width="200" height="200" style="fill:none;"/><g><path d="M114.339,47.075c0.365,-5.175 3.621,-8.294 4.436,-8.507c0.402,0 -1.895,4.874 -1.629,8.507c-0.184,2.381 2.031,4.537 1.629,6.806c-0.406,2.269 -3.668,6.805 -4.076,6.805c-0.406,0 1.689,-4.537 1.631,-6.805c-0.058,-2.268 -2.446,-4.325 -1.991,-6.806" style="fill:#808080;fill-opacity:0.498039;"/><path d="M121.98,48.524c0.366,-5.187 3.45,-7.384 4.254,-7.597c0.401,0 -2.895,3.952 -2.635,7.597c-0.178,2.381 0.401,4.118 0.809,5.961c0.402,1.849 1.885,4.968 1.619,5.11c-0.271,0.142 -2.564,-2.41 -3.237,-4.259c-0.674,-1.844 -1.259,-4.33 -0.81,-6.812" style="fill:#808080;fill-opacity:0.498039;"/><path d="M121.108,40.651c0.621,-1.424 0.916,-6.292 0.816,-5.134c0.1,0.307 1.051,3.981 0.814,5.99c-0.236,2.008 -1.73,4.484 -2.238,6.067c-0.508,1.583 -0.543,3.42 -0.814,3.42c-0.273,0 -1.059,-1.695 -0.816,-3.42c0.236,-1.725 1.785,-4.431 2.238,-6.923" style="fill:#808080;fill-opacity:0.498039;"/><path d="M50.697,129.383c0,-3.545 12.252,-6.428 27.363,-6.428c15.116,0 27.362,2.883 27.362,6.428c0,3.55 -12.246,6.427 -27.362,6.427c-15.111,0 -27.363,-2.877 -27.363,-6.427Z" style="fill:#c0bfbf;"/><path d="M60.763,97.606l55.706,31.883l-1.022,1.79l-55.199,-32.781l0.515,-0.892l0,0Z" style="fill:#010101;"/><path d="M60.657,97.541c0.029,-0.059 0.106,-0.083 0.171,-0.047l55.706,31.889c0.06,0.029 0.077,0.105 0.041,0.171l-1.021,1.784c-0.018,0.029 -0.041,0.053 -0.076,0.059c-0.03,0.012 -0.065,0.006 -0.095,-0.012l-55.193,-32.781c-0.059,-0.035 -0.083,-0.112 -0.047,-0.171l0.514,-0.892l0,0Zm-0.296,1.022l-0.047,-0.171l55.198,32.775l-0.178,0.047l1.022,-1.783l0.047,0.171l-55.705,-31.89l0.178,-0.047l-0.515,0.898l0,0Z" style="fill:#010101;fill-rule:nonzero;stroke:#010101;stroke-width:0.06px;"/><path d="M61.868,95.556l57.75,28.014l-0.899,1.848l-57.301,-28.934l0.45,-0.928l0,0Z" style="fill:#010101;"/><path d="M61.755,95.503c0.029,-0.059 0.101,-0.088 0.165,-0.059l57.75,28.014c0.065,0.029 0.089,0.106 0.06,0.166l-0.897,1.854c-0.012,0.03 -0.042,0.054 -0.071,0.066c-0.036,0.006 -0.071,0.006 -0.101,-0.013l-57.301,-28.935c-0.06,-0.03 -0.089,-0.106 -0.054,-0.166l0.449,-0.927l0,0Zm-0.224,1.04l-0.059,-0.171l57.301,28.936l-0.165,0.059l0.897,-1.85l0.06,0.166l-57.757,-28.009l0.172,-0.059l-0.449,0.928l0,0Z" style="fill:#010101;fill-rule:nonzero;stroke:#010101;stroke-width:0.06px;"/><path d="M63.953,96.566c0.532,-1.164 2.729,-0.892 3.255,0c0.106,0.815 0.267,0.898 0,1.075c-1.193,-0.419 -1.087,0 -1.63,0c0.277,1.388 0.591,4.708 0.543,6.51c-0.047,1.802 -0.809,2.865 -0.809,4.3c0,1.436 0.945,2.931 0.809,4.301c-0.012,1.696 -0.969,3.096 -0.809,4.301c0.39,2.493 0.856,2.174 0.809,4.301c-0.047,2.127 -1.075,6.51 -1.081,8.454l-1.63,-1.075c0.012,-2.015 1.223,-4.762 1.087,-7.379c0.106,-1.654 -0.49,-1.606 -0.815,-4.301c-0.153,-1.293 0.886,-2.504 0.815,-4.301c0.106,-1.098 -0.68,-1.612 -0.815,-4.301c-0.165,-1.453 0.768,-2.32 0.815,-4.3c0.046,-1.978 -1.07,-6.421 -0.544,-7.585l0,0Z" style="fill:#fff;"/><path d="M63.823,96.525c0,-0.012 0.006,-0.018 0.012,-0.03l0.118,-0.201c0.006,-0.006 0.012,-0.012 0.018,-0.024l0.154,-0.171c0.006,-0.006 0.018,-0.018 0.029,-0.023l0.39,-0.242c0.012,-0.006 0.023,-0.012 0.035,-0.018l0.461,-0.13c0.012,0 0.018,0 0.03,0l0.508,-0.029c0.012,-0.006 0.018,-0.006 0.029,0l0.502,0.077c0.006,0 0.018,0 0.023,0.006l0.467,0.16c0.012,0 0.023,0.006 0.03,0.012l0.384,0.236c0.006,0.006 0.018,0.012 0.023,0.018l0.153,0.142c0.006,0.006 0.012,0.012 0.018,0.018l0.118,0.16c0.012,0.018 0.024,0.042 0.024,0.065l0.041,0.271l0.041,0.207l0.036,0.159l0.023,0.136c0,0.012 0.006,0.023 0,0.035l-0.012,0.166c0,0.03 -0.006,0.053 -0.024,0.077l-0.047,0.064c-0.006,0.006 -0.018,0.018 -0.029,0.024l-0.083,0.065c-0.035,0.029 -0.083,0.042 -0.124,0.023l-0.39,-0.118l-0.277,-0.053l0.023,0l-0.219,-0.005l0.023,0l-0.159,0.023l0.029,-0.006l-0.254,0.1l-0.153,0.047c-0.006,0 -0.018,0 -0.024,0l-0.177,0.018l0.124,-0.165l0.053,0.283l0.054,0.325l0.101,0.744l0.101,0.856l0.088,0.904l0.071,0.927l0.053,0.903l0.023,0.851l0.007,0.385l-0.007,0.36l-0.047,0.649l-0.099,0.604l-0.13,0.549l-0.142,0.52l-0.153,0.496l-0.118,0.49l-0.083,0.484l-0.035,0.515l0,-0.018l0.041,0.543l0.106,0.526l0.142,0.531l0.16,0.537l0.159,0.55l0.13,0.544l0.077,0.537c0,0.006 0,0.012 0,0.023l-0.007,0.52l-0.047,0.627l-0.106,0.614l-0.147,0.579l-0.171,0.549l-0.16,0.525l-0.118,0.497l-0.07,0.467l0,-0.024l0.012,0.461l0,-0.023l0.076,0.438l0.071,0.378l0.077,0.319l0.07,0.283l0.136,0.467l0.13,0.384l0.112,0.384l0.083,0.432l0.029,0.254l0.019,0.289l0.012,0.325l-0.007,0.378l-0.018,0.426l-0.041,0.479l-0.06,0.514l-0.07,0.543l-0.171,1.152l-0.195,1.199l-0.195,1.193l-0.165,1.123l-0.065,0.52l-0.053,0.484l-0.035,0.438l-0.012,0.384c0,0.054 -0.03,0.101 -0.071,0.124c-0.047,0.023 -0.101,0.018 -0.147,-0.012l-1.631,-1.075c-0.041,-0.023 -0.064,-0.077 -0.059,-0.124l0.053,-0.785l0.142,-0.863l0.189,-0.904l0.213,-0.933l0.206,-0.963l0.172,-0.976l0.106,-0.975l0,-0.975l0.012,-0.295l-0.006,-0.248l-0.036,-0.432l-0.088,-0.366l-0.118,-0.372l-0.136,-0.432l-0.077,-0.248l-0.083,-0.289l-0.07,-0.324l-0.077,-0.373l-0.065,-0.426l-0.064,-0.473l-0.012,-0.502c0,-0.012 0.006,-0.018 0.006,-0.023l0.076,-0.479l0.137,-0.508l0.177,-0.514l0.172,-0.531l0.142,-0.557l0.094,-0.578l0.019,-0.633l0,-0.389l0.006,0.029l-0.065,-0.367l-0.112,-0.365l-0.136,-0.414l-0.153,-0.502l-0.147,-0.603l-0.065,-0.36l-0.059,-0.396l-0.042,-0.437l-0.035,-0.484l-0.018,-0.526c0,-0.006 0.006,-0.012 0.006,-0.023l0.064,-0.484l0.118,-0.484l0.166,-0.49l0.159,-0.496l0.147,-0.543l0.118,-0.598l0.054,-0.673l-0.012,-0.384l-0.024,-0.443l-0.041,-0.484l-0.064,-0.521l-0.153,-1.104l-0.159,-1.135l-0.142,-1.093l-0.048,-0.52l-0.035,-0.484l-0.018,-0.443l0.018,-0.396l0.047,-0.337c0,-0.006 0,-0.018 0.007,-0.023l0.082,-0.254l0,0Zm0.183,0.342l0.006,-0.029l-0.042,0.319l-0.018,0.372l0.012,0.432l0.036,0.472l0.047,0.508l0.142,1.093l0.16,1.134l0.147,1.11l0.064,0.525l0.048,0.496l0.023,0.456l0.006,0.407l-0.053,0.709l-0.118,0.62l-0.16,0.555l-0.159,0.497l-0.153,0.467l-0.118,0.46l-0.065,0.484l0,-0.023l0.012,0.515l0.036,0.472l0.041,0.426l0.059,0.385l0.065,0.348l0.142,0.591l0.147,0.491l0.143,0.425l0.117,0.39l0.065,0.366l0,0.419l-0.023,0.668l-0.095,0.615l-0.153,0.566l-0.172,0.531l-0.165,0.502l-0.136,0.473l-0.077,0.479l0,-0.023l0.006,0.467l0.065,0.473l0.064,0.414l0.077,0.36l0.071,0.313l0.07,0.277l0.077,0.248l0.136,0.431l0.13,0.396l0.089,0.402l0.041,0.455l0.006,0.266l-0.012,0.289l-0.006,0.998l-0.106,0.999l-0.171,0.981l-0.207,0.969l-0.213,0.927l-0.188,0.886l-0.143,0.84l-0.053,0.785l-0.06,-0.13l1.631,1.075l-0.225,0.118l0.018,-0.396l0.036,-0.449l0.053,-0.484l0.065,-0.531l0.165,-1.123l0.194,-1.193l0.195,-1.199l0.172,-1.152l0.07,-0.531l0.06,-0.514l0.035,-0.461l0.018,-0.42l0.006,-0.366l-0.006,-0.313l-0.018,-0.277l-0.029,-0.23l-0.077,-0.407l-0.106,-0.372l-0.136,-0.396l-0.142,-0.479l-0.071,-0.283l-0.076,-0.33l-0.071,-0.379l-0.077,-0.438c0,-0.012 0,-0.018 -0.006,-0.023l-0.012,-0.461c0,-0.006 0.006,-0.018 0.006,-0.023l0.071,-0.49l0.124,-0.514l0.165,-0.525l0.16,-0.537l0.147,-0.563l0.106,-0.578l0.041,-0.615l0.006,-0.52l0.006,0.023l-0.076,-0.514l-0.124,-0.531l-0.154,-0.544l-0.171,-0.544l-0.142,-0.555l-0.106,-0.561l-0.042,-0.544c-0.006,-0.006 -0.006,-0.013 0,-0.018l0.036,-0.538l0.082,-0.508l0.124,-0.502l0.148,-0.496l0.142,-0.508l0.13,-0.539l0.101,-0.566l0.041,-0.638l0.006,-0.349l-0.006,-0.385l-0.018,-0.839l-0.053,-0.903l-0.071,-0.916l-0.089,-0.904l-0.101,-0.845l-0.1,-0.744l-0.054,-0.313l-0.053,-0.283c-0.006,-0.042 0,-0.083 0.023,-0.112c0.023,-0.03 0.059,-0.053 0.101,-0.053l0.177,-0.018l-0.02,0l0.13,-0.035l0.254,-0.101c0.006,-0.006 0.018,-0.006 0.029,-0.006l0.16,-0.023c0.006,0 0.018,-0.006 0.023,-0.006l0.219,0.006c0.012,0.006 0.018,0.006 0.023,0.006l0.301,0.059l0.391,0.118l-0.124,0.029l0.082,-0.065l-0.029,0.024l0.048,-0.065l-0.024,0.077l0.012,-0.166l0,0.036l-0.023,-0.13l-0.035,-0.166l-0.041,-0.219l-0.042,-0.272l0.023,0.065l-0.118,-0.16l0.019,0.018l-0.154,-0.142l0.024,0.018l-0.385,-0.236l0.03,0.012l-0.467,-0.159l0.023,0.006l-0.502,-0.077l0.029,0l-0.508,0.029l0.029,0l-0.461,0.13l0.035,-0.018l-0.39,0.242l0.029,-0.029l-0.153,0.171l0.018,-0.018l-0.118,0.201l0.012,-0.029l-0.082,0.252l0,0Z" style="fill:#010101;fill-rule:nonzero;stroke:#010101;stroke-width:0.06px;"/><path d="M65.831,97.511c0.531,-1.164 2.741,-0.892 3.261,0c0.112,0.815 0.271,0.898 0,1.075c-1.193,-0.414 -1.087,0 -1.63,0c0.277,1.388 0.59,4.713 0.543,6.515c-0.041,1.803 -0.815,2.871 -0.815,4.301c0,1.436 0.951,2.931 0.815,4.307c-0.012,1.695 -0.969,3.096 -0.815,4.301c0.396,2.494 0.815,2.512 0.815,4.307c0,1.791 -0.804,4.508 -0.815,6.451l-1.63,0c0.012,-2.014 0.951,-3.834 0.814,-6.451c0.112,-1.654 -0.484,-1.606 -0.814,-4.307c-0.154,-1.287 0.886,-2.504 0.814,-4.301c0.112,-1.104 -0.679,-1.612 -0.814,-4.307c-0.166,-1.453 0.773,-2.32 0.814,-4.301c0.048,-1.983 -1.075,-6.426 -0.543,-7.59Z" style="fill:#fff;"/><path d="M65.702,97.47c0,-0.012 0.006,-0.018 0.012,-0.029l0.118,-0.201c0.006,-0.006 0.012,-0.012 0.018,-0.023l0.153,-0.171c0.006,-0.006 0.019,-0.018 0.03,-0.023l0.39,-0.242c0.012,-0.006 0.023,-0.012 0.035,-0.018l0.467,-0.13c0.012,0 0.018,0 0.029,0l0.509,-0.029c0.012,-0.006 0.018,-0.006 0.029,0l0.502,0.077c0.006,0 0.018,0 0.023,0.006l0.467,0.16c0.012,0 0.018,0.006 0.029,0.012l0.39,0.236c0.007,0.006 0.019,0.012 0.024,0.018l0.147,0.142c0.006,0.006 0.012,0.012 0.018,0.018l0.118,0.16c0.012,0.018 0.023,0.041 0.023,0.065l0.042,0.271l0.041,0.207l0.035,0.159l0.023,0.136c0,0.012 0.006,0.023 0,0.035l-0.012,0.166c0,0.029 -0.006,0.053 -0.023,0.077l-0.046,0.061c-0.006,0.006 -0.018,0.018 -0.03,0.024l-0.082,0.065c-0.035,0.029 -0.083,0.041 -0.124,0.023l-0.391,-0.118l-0.277,-0.053l0.023,0l-0.218,-0.006l0.029,0l-0.159,0.03l0.023,-0.006l-0.254,0.094l-0.154,0.047c-0.006,0 -0.018,0 -0.023,0l-0.177,0.018l0.124,-0.166l0.053,0.284l0.053,0.325l0.101,0.75l0.101,0.851l0.089,0.904l0.071,0.934l0.053,0.904l0.023,0.85l0.006,0.385l-0.006,0.36l-0.047,0.649l-0.101,0.604l-0.13,0.555l-0.147,0.52l-0.143,0.496l-0.124,0.484l-0.088,0.496l-0.036,0.503l0,-0.019l0.042,0.545l0.106,0.525l0.147,0.531l0.159,0.537l0.159,0.55l0.131,0.544l0.076,0.543c0,0.006 0,0.012 0,0.023l-0.006,0.52l-0.047,0.627l-0.106,0.614l-0.147,0.579l-0.172,0.549l-0.159,0.525l-0.124,0.497l-0.071,0.467l0,-0.024l0.012,0.461l0,-0.023l0.077,0.438l0.071,0.39l0.076,0.337l0.071,0.301l0.136,0.509l0.124,0.431l0.106,0.396l0.083,0.426l0.053,0.496l0.012,0.283l0.006,0.324l-0.035,0.721l-0.089,0.786l-0.13,0.833l-0.147,0.856l-0.147,0.862l-0.136,0.84l-0.089,0.809l-0.042,0.756c0,0.071 -0.064,0.131 -0.142,0.131l-1.63,0c-0.036,0 -0.071,-0.012 -0.101,-0.042c-0.023,-0.029 -0.042,-0.065 -0.035,-0.106l0.041,-0.75l0.112,-0.75l0.147,-0.756l0.159,-0.763l0.16,-0.792l0.124,-0.82l0.076,-0.881l-0.012,-0.928l0.012,-0.301l0,-0.254l-0.041,-0.426l-0.089,-0.366l-0.112,-0.372l-0.142,-0.432l-0.076,-0.26l-0.077,-0.283l-0.077,-0.325l-0.07,-0.372l-0.071,-0.426l-0.064,-0.473l-0.013,-0.496c0,-0.012 0.006,-0.018 0.006,-0.023l0.077,-0.484l0.136,-0.508l0.178,-0.514l0.171,-0.531l0.142,-0.557l0.095,-0.578l0.018,-0.633l0,-0.389l0.006,0.023l-0.059,-0.373l-0.112,-0.359l-0.136,-0.414l-0.153,-0.49l-0.154,-0.615l-0.064,-0.354l-0.06,-0.396l-0.042,-0.443l-0.035,-0.484l-0.019,-0.526c0,-0.006 0.006,-0.012 0.006,-0.023l0.065,-0.484l0.124,-0.49l0.159,-0.484l0.166,-0.496l0.147,-0.543l0.112,-0.598l0.053,-0.674l-0.012,-0.389l-0.023,-0.443l-0.041,-0.479l-0.065,-0.526l-0.147,-1.099l-0.165,-1.14l-0.137,-1.099l-0.053,-0.514l-0.029,-0.485l-0.018,-0.443l0.012,-0.39l0.053,-0.343c0,-0.006 0,-0.018 0.006,-0.024l0.084,-0.254l0,0Zm0.182,0.343l0.006,-0.023l-0.047,0.307l-0.012,0.378l0.012,0.431l0.029,0.473l0.054,0.514l0.136,1.087l0.165,1.14l0.147,1.11l0.065,0.526l0.047,0.49l0.024,0.455l0.006,0.413l-0.054,0.708l-0.112,0.621l-0.159,0.555l-0.165,0.496l-0.148,0.473l-0.124,0.455l-0.064,0.484l0,-0.023l0.012,0.514l0.035,0.473l0.042,0.432l0.059,0.385l0.065,0.342l0.142,0.591l0.153,0.49l0.142,0.425l0.118,0.396l0.06,0.372l0,0.414l-0.024,0.668l-0.094,0.615l-0.154,0.566l-0.171,0.531l-0.165,0.502l-0.137,0.473l-0.076,0.484l0,-0.023l0.006,0.461l0.064,0.467l0.071,0.42l0.071,0.359l0.076,0.313l0.077,0.284l0.064,0.248l0.143,0.432l0.124,0.395l0.088,0.402l0.048,0.455l0,0.266l-0.012,0.283l0.006,0.963l-0.077,0.893l-0.124,0.833l-0.159,0.792l-0.16,0.762l-0.147,0.744l-0.112,0.727l-0.041,0.75l-0.142,-0.153l1.63,0l-0.142,0.136l0.047,-0.768l0.089,-0.821l0.136,-0.851l0.148,-0.863l0.147,-0.844l0.13,-0.822l0.083,-0.773l0.035,-0.697l-0.006,-0.318l-0.006,-0.266l-0.054,-0.473l-0.082,-0.402l-0.106,-0.396l-0.124,-0.431l-0.136,-0.521l-0.071,-0.302l-0.077,-0.348l-0.07,-0.391l-0.077,-0.438c0,-0.012 0,-0.018 -0.006,-0.023l-0.012,-0.461c0,-0.006 0.006,-0.018 0.006,-0.023l0.071,-0.496l0.13,-0.508l0.165,-0.525l0.159,-0.538l0.148,-0.562l0.106,-0.578l0.041,-0.615l0.006,-0.52l0.006,0.023l-0.077,-0.52l-0.13,-0.531l-0.147,-0.544l-0.171,-0.544l-0.148,-0.555l-0.106,-0.561l-0.041,-0.544c-0.006,-0.007 -0.006,-0.013 0,-0.019l0.035,-0.537l0.089,-0.508l0.124,-0.496l0.142,-0.496l0.148,-0.508l0.13,-0.544l0.101,-0.567l0.041,-0.639l0.006,-0.348l-0.006,-0.385l-0.018,-0.838l-0.054,-0.904l-0.07,-0.921l-0.089,-0.904l-0.101,-0.839l-0.101,-0.75l-0.053,-0.312l-0.054,-0.284c-0.006,-0.041 0,-0.083 0.024,-0.112c0.023,-0.029 0.059,-0.053 0.1,-0.053l0.178,-0.018l-0.023,0l0.13,-0.035l0.254,-0.095c0.006,-0.006 0.018,-0.006 0.023,-0.006l0.159,-0.029c0.013,0 0.018,-0.006 0.03,-0.006l0.218,0.006c0.013,0.005 0.019,0.005 0.024,0.005l0.301,0.06l0.39,0.118l-0.124,0.029l0.083,-0.065l-0.029,0.023l0.047,-0.065l-0.023,0.077l0.012,-0.166l0,0.035l-0.023,-0.13l-0.035,-0.165l-0.042,-0.219l-0.041,-0.272l0.023,0.065l-0.118,-0.16l0.018,0.018l-0.147,-0.142l0.023,0.018l-0.39,-0.236l0.029,0.012l-0.467,-0.159l0.024,0.006l-0.503,-0.077l0.03,0l-0.509,0.03l0.03,0l-0.467,0.13l0.035,-0.018l-0.39,0.242l0.029,-0.03l-0.153,0.171l0.018,-0.018l-0.118,0.201l0.012,-0.029l-0.083,0.256l0,0Z" style="fill:#010101;fill-rule:nonzero;stroke:#010101;stroke-width:0.06px;"/><path d="M53.739,133.175c-2.144,-1.253 8.536,-4.921 14.745,-5.901c3.769,-1.088 4.826,0.177 8.04,0c3.22,-0.184 8.312,-1.436 11.259,-1.076c2.948,0.361 4.023,2.145 6.434,3.221c2.416,1.074 7.101,1.789 8.04,3.219l-2.41,4.295c-6.746,0.443 -28.414,0.531 -33.772,0c-3.888,-0.538 -12.271,-2.724 -12.336,-3.758l0,0Z" style="fill:#fff;"/><path d="M53.603,133.217l0.054,0.076l-0.166,-0.124c-0.012,-0.012 -0.023,-0.023 -0.035,-0.035l-0.089,-0.136c-0.012,-0.018 -0.018,-0.042 -0.018,-0.06l-0.023,-0.153c-0.006,-0.018 -0.006,-0.035 0,-0.059l0.041,-0.16c0.006,-0.012 0.012,-0.023 0.018,-0.035l0.106,-0.172c0.006,-0.006 0.012,-0.012 0.012,-0.018l0.16,-0.184c0.006,-0.006 0.012,-0.012 0.018,-0.018l0.225,-0.189l0.277,-0.2l0.337,-0.212l0.372,-0.207l0.413,-0.225l0.461,-0.213l0.49,-0.225l0.532,-0.23l1.146,-0.449l1.235,-0.443l1.316,-0.437l1.354,-0.413l1.388,-0.402l1.371,-0.354l1.353,-0.32l1.3,-0.271l1.211,-0.213l0.661,-0.177l0.633,-0.13l0.578,-0.082l0.538,-0.042l0.969,-0.006l0.892,0.095l0.856,0.136l0.881,0.13l0.461,0.047l0.496,0.036l0.525,0.006l0.573,-0.019l0.62,-0.041l0.655,-0.064l1.412,-0.184l1.495,-0.219l1.529,-0.23l1.519,-0.195l1.465,-0.146l0.703,-0.041l0.661,-0.019l0.627,0.019l0.585,0.053l0.543,0.082l0.502,0.112l0.898,0.313l0.803,0.396l0.738,0.455l0.703,0.49l0.709,0.49l0.757,0.467l0.833,0.425l0.472,0.189l0.515,0.195l0.555,0.184l0.585,0.183l1.205,0.354l1.217,0.36l1.151,0.384l0.532,0.201l0.49,0.207l0.432,0.225l0.384,0.242l0.313,0.254c0.006,0.006 0.012,0.012 0.018,0.018l0.219,0.26c0.036,0.047 0.042,0.105 0.012,0.159l-2.41,4.295c-0.023,0.042 -0.064,0.071 -0.111,0.071l-0.674,0.041l-0.756,0.035l-0.839,0.035l-0.904,0.036l-0.969,0.035l-1.027,0.029l-1.081,0.024l-1.128,0.023l-1.164,0.023l-1.205,0.018l-2.499,0.035l-2.569,0.018l-2.6,0.012l-2.587,0l-2.522,-0.018l-1.224,-0.012l-1.188,-0.012l-1.151,-0.018l-1.11,-0.023l-1.058,-0.023l-1.004,-0.023l-0.939,-0.036l-0.875,-0.029l-0.809,-0.042l-0.721,-0.041l-0.639,-0.041l-0.555,-0.047l-0.786,-0.119l-0.868,-0.153l-0.934,-0.183l-0.986,-0.213l-2.038,-0.484l-1.021,-0.266l-0.993,-0.277l-0.944,-0.284l-0.887,-0.284l-0.797,-0.277l-0.709,-0.277l-0.585,-0.266l-0.248,-0.137l-0.207,-0.117l-0.171,-0.125l-0.137,-0.123c-0.006,-0.006 -0.012,-0.012 -0.018,-0.018l-0.076,-0.107c-0.012,-0.018 -0.018,-0.029 -0.024,-0.047l-0.032,-0.099l0,0Zm0.302,0.023l-0.018,-0.048l0.076,0.106l-0.018,-0.018l0.101,0.1l0.159,0.113l0.195,0.111l0.225,0.131l0.572,0.254l0.697,0.277l0.798,0.277l0.874,0.278l0.945,0.277l0.992,0.278l1.011,0.266l2.038,0.484l0.975,0.213l0.934,0.183l0.856,0.153l0.773,0.118l0.544,0.048l0.638,0.035l0.721,0.041l0.798,0.041l0.874,0.029l0.939,0.036l1.004,0.024l1.058,0.023l1.11,0.023l1.152,0.018l1.187,0.012l1.224,0.012l2.517,0.018l2.581,0l2.6,-0.012l2.569,-0.018l2.499,-0.035l1.205,-0.018l1.163,-0.023l1.129,-0.024l1.081,-0.023l1.027,-0.029l0.969,-0.036l0.898,-0.035l0.833,-0.035l0.756,-0.029l0.674,-0.042l-0.113,0.071l2.41,-4.295l0.012,0.16l-0.218,-0.261l0.018,0.019l-0.278,-0.23l-0.365,-0.23l-0.414,-0.213l-0.479,-0.207l-0.52,-0.201l-1.14,-0.378l-1.217,-0.36l-1.218,-0.36l-0.584,-0.183l-0.567,-0.184l-0.525,-0.195l-0.485,-0.201l-0.856,-0.437l-0.768,-0.479l-0.709,-0.49l-0.691,-0.479l-0.715,-0.442l-0.768,-0.385l-0.874,-0.301l-0.479,-0.113l-0.521,-0.082l-0.572,-0.047l-0.614,-0.018l-0.65,0.012l-0.691,0.041l-1.453,0.147l-1.518,0.194l-1.53,0.23l-1.494,0.219l-1.424,0.184l-0.668,0.064l-0.632,0.048l-0.585,0.018l-0.537,-0.012l-0.509,-0.036l-0.473,-0.047l-0.88,-0.129l-0.845,-0.137l-0.862,-0.089l-0.951,0l-0.514,0.042l-0.567,0.082l-0.608,0.131l-0.686,0.177l-1.211,0.212l-1.288,0.272l-1.347,0.319l-1.364,0.354l-1.383,0.391l-1.347,0.414l-1.306,0.437l-1.234,0.442l-1.134,0.449l-0.526,0.219l-0.484,0.225l-0.448,0.213l-0.414,0.213l-0.36,0.207l-0.319,0.2l-0.26,0.188l-0.225,0.189l0.019,-0.018l-0.16,0.184l0.012,-0.018l-0.106,0.171l0.019,-0.042l-0.042,0.16l0,-0.053l0.023,0.152l-0.018,-0.059l0.089,0.137l-0.035,-0.036l0.165,0.124c0.023,0.018 0.041,0.047 0.048,0.077l0.028,0.105Z" style="fill:#010101;fill-rule:nonzero;stroke:#010101;stroke-width:0.06px;"/><path d="M50.708,129.383c-0.484,10.326 6.558,30.518 27.398,31.096c21.515,-0.69 28.071,-21.515 27.397,-31.096c-0.212,3.148 -9.546,5.795 -22.636,6.338c-1.571,0.065 -3.167,0.101 -4.762,0.101c-1.595,0 -3.19,-0.035 -4.762,-0.101c-13.088,-0.543 -22.635,-3.213 -22.635,-6.338" style="fill:#010101;"/><path d="M56.988,134.781l1.348,-0.744l1.305,-0.738l1.271,-0.709l1.24,-0.645l1.211,-0.555l0.603,-0.23l0.585,-0.207l0.585,-0.165l0.579,-0.124l0.573,-0.076l0.572,-0.036l0.573,0.036l0.597,0.111l0.608,0.178l0.614,0.23l0.608,0.283l0.603,0.313l1.164,0.702l1.075,0.715l0.49,0.344l0.455,0.313l0.407,0.283l0.349,0.242l0.302,0.184l0.236,0.118c0.047,0.023 0.064,0.083 0.041,0.13c-0.023,0.047 -0.083,0.064 -0.13,0.041l-0.248,-0.129l-0.308,-0.184l-0.354,-0.242l-0.407,-0.283l-0.455,-0.314l-0.479,-0.342l-1.075,-0.715l-1.151,-0.691l-0.591,-0.313l-0.597,-0.278l-0.603,-0.224l-0.585,-0.178l-0.579,-0.106l-0.555,-0.036l-0.55,0.03l-0.562,0.077l-0.566,0.123l-0.573,0.166l-0.585,0.195l-0.591,0.23l-1.199,0.555l-1.24,0.639l-1.271,0.703l-1.306,0.744l-1.347,0.744c-0.047,0.029 -0.101,0.012 -0.13,-0.035c-0.022,-0.046 -0.004,-0.1 0.043,-0.13l0,0Z" style="fill:#010101;fill-rule:nonzero;stroke:#010101;stroke-width:0.06px;"/><path d="M58.69,137.145l1.382,-0.697l1.395,-0.603l1.382,-0.537l1.335,-0.491l1.259,-0.466l1.163,-0.461l0.538,-0.242l0.496,-0.248l0.467,-0.26l0.419,-0.267l0.372,-0.271l0.319,-0.283l0.266,-0.271l0.23,-0.277l0.366,-0.557l0.284,-0.566l0.242,-0.585l0.254,-0.597l0.313,-0.62l0.201,-0.325l0.23,-0.324c0.035,-0.042 0.095,-0.054 0.136,-0.023c0.041,0.035 0.053,0.094 0.018,0.135l-0.225,0.313l-0.188,0.313l-0.313,0.607l-0.254,0.598l-0.242,0.596l-0.295,0.58l-0.379,0.578l-0.242,0.289l-0.277,0.284l-0.331,0.284l-0.384,0.283l-0.431,0.271l-0.467,0.266l-0.509,0.248l-0.549,0.242l-1.164,0.467l-1.258,0.467l-1.335,0.484l-1.371,0.537l-1.382,0.604l-1.383,0.697c-0.047,0.023 -0.106,0.006 -0.13,-0.042c-0.024,-0.047 -0.006,-0.107 0.042,-0.13l0,0Z" style="fill:#010101;fill-rule:nonzero;stroke:#010101;stroke-width:0.06px;"/><path d="M74.875,129.246l0.207,-0.041l0.242,-0.059l0.277,-0.078l0.319,-0.088l0.715,-0.195l0.797,-0.207l0.839,-0.183l0.851,-0.142l0.821,-0.059l0.763,0.029l0.372,0.07l0.378,0.101l0.762,0.284l0.774,0.365l0.762,0.408l0.721,0.42l0.662,0.389l0.572,0.326l0.473,0.224c0.048,0.024 0.071,0.077 0.048,0.124c-0.024,0.047 -0.083,0.071 -0.124,0.047l-0.485,-0.236l-0.584,-0.324l-0.65,-0.391l-0.721,-0.406l-0.75,-0.408l-0.762,-0.36l-0.751,-0.278l-0.354,-0.1l-0.348,-0.065l-0.739,-0.035l-0.809,0.06l-0.839,0.141l-0.833,0.184l-0.792,0.207l-0.715,0.195l-0.318,0.088l-0.29,0.077l-0.242,0.06l-0.207,0.041c-0.053,0.012 -0.1,-0.023 -0.111,-0.071c-0.014,-0.055 0.023,-0.102 0.069,-0.114l0,0Z" style="fill:#010101;fill-rule:nonzero;stroke:#010101;stroke-width:0.06px;"/><path d="M77.215,135.733l0.649,-0.372l0.567,-0.372l0.508,-0.366l0.455,-0.349l0.401,-0.348l0.36,-0.332l0.626,-0.619l0.544,-0.544l0.525,-0.443c0.006,0 0.012,-0.006 0.012,-0.006l0.556,-0.325c0.006,-0.006 0.012,-0.006 0.018,-0.012l0.308,-0.112c0.006,0 0.006,0 0.012,0l0.337,-0.071c0.005,0 0.012,0 0.012,-0.006l0.36,-0.023c0.006,0 0.012,0 0.018,0.006l0.372,0.035l0.39,0.084l0.396,0.129l0.396,0.166l0.39,0.195l0.768,0.449l0.727,0.472l0.674,0.461l0.579,0.384l0.254,0.148l0.213,0.1c0.047,0.024 0.07,0.077 0.047,0.125c-0.023,0.047 -0.077,0.07 -0.124,0.047l-0.236,-0.112l-0.254,-0.147l-0.591,-0.385l-0.662,-0.461l-0.727,-0.473l-0.756,-0.437l-0.378,-0.194l-0.384,-0.154l-0.372,-0.13l-0.366,-0.083l-0.372,-0.035l0.018,0l-0.36,0.023l0.012,0l-0.337,0.071l0.012,-0.006l-0.307,0.112l0.018,-0.006l-0.556,0.324l0.012,-0.006l-0.514,0.432l-0.544,0.543l-0.638,0.621l-0.36,0.342l-0.413,0.349l-0.455,0.354l-0.52,0.373l-0.579,0.371l-0.65,0.373c-0.041,0.029 -0.101,0.012 -0.124,-0.036c-0.032,-0.041 -0.015,-0.101 0.033,-0.124l0,0Z" style="fill:#010101;fill-rule:nonzero;stroke:#010101;stroke-width:0.06px;"/><path d="M85.343,135.727l1.358,-0.744l1.342,-0.721l1.317,-0.686l1.281,-0.62l1.234,-0.544l1.17,-0.442l1.099,-0.325l0.515,-0.112l0.496,-0.071l0.479,-0.029l0.461,0.041l0.437,0.084l0.426,0.129l0.407,0.166l0.39,0.195l0.715,0.449l0.65,0.479l0.578,0.461l0.514,0.383l0.225,0.143l0.207,0.1c0.047,0.024 0.07,0.083 0.047,0.125c-0.023,0.047 -0.082,0.07 -0.129,0.047l-0.225,-0.112l-0.236,-0.153l-0.52,-0.385l-0.574,-0.461l-0.637,-0.467l-0.703,-0.437l-0.366,-0.194l-0.396,-0.154l-0.407,-0.13l-0.42,-0.083l-0.437,-0.035l-0.455,0.023l-0.484,0.071l-0.502,0.112l-1.087,0.318l-1.158,0.438l-1.229,0.543l-1.276,0.621l-1.317,0.686l-1.341,0.715l-1.358,0.744c-0.047,0.029 -0.101,0.012 -0.13,-0.036c-0.025,-0.049 -0.008,-0.103 0.039,-0.132l0,0Z" style="fill:#010101;fill-rule:nonzero;stroke:#010101;stroke-width:0.06px;"/><path d="M63.569,128.159l0.147,0.024l0.219,0.029l0.271,0.041l0.319,0.041l0.378,0.053l0.408,0.06l0.909,0.13l0.975,0.16l0.999,0.171l0.969,0.188l0.448,0.102l0.42,0.1l0.827,0.236l0.856,0.283l1.707,0.639l0.833,0.324l0.804,0.284l0.744,0.242l0.686,0.177l0.603,0.125l0.514,0.1l0.455,0.065l0.425,0.036l0.42,-0.019l0.454,-0.047l0.515,-0.101l0.603,-0.16l0.337,-0.117l0.359,-0.148l0.78,-0.401l0.845,-0.473l0.868,-0.515l0.893,-0.496l0.88,-0.419l0.432,-0.165l0.419,-0.137l0.413,-0.088l0.396,-0.041l0.39,0.006l0.401,0.07l0.396,0.101l0.396,0.142l0.779,0.366l0.763,0.443l0.709,0.454l0.649,0.438l0.567,0.373l0.242,0.141l0.219,0.102c0.047,0.023 0.07,0.076 0.047,0.123c-0.023,0.048 -0.077,0.071 -0.124,0.048l-0.23,-0.112l-0.254,-0.142l-0.567,-0.372l-0.649,-0.438l-0.709,-0.455l-0.738,-0.432l-0.769,-0.359l-0.384,-0.137l-0.372,-0.1l-0.378,-0.064l-0.366,-0.013l-0.372,0.042l-0.401,0.088l-0.408,0.124l-0.419,0.165l-0.869,0.414l-0.88,0.49l-0.88,0.514l-0.845,0.484l-0.792,0.402l-0.372,0.159l-0.349,0.118l-0.62,0.16l-0.531,0.1l-0.467,0.053l-0.443,0.012l-0.438,-0.035l-0.466,-0.064l-0.515,-0.101l-0.608,-0.124l-0.691,-0.178l-0.756,-0.242l-0.804,-0.295l-0.833,-0.318l-1.707,-0.633l-0.845,-0.283l-0.815,-0.236l-0.419,-0.101l-0.449,-0.101l-0.957,-0.189l-0.998,-0.171l-0.975,-0.159l-0.91,-0.131l-0.407,-0.059l-0.372,-0.053l-0.325,-0.041l-0.271,-0.042l-0.219,-0.029l-0.147,-0.024c-0.054,-0.006 -0.089,-0.053 -0.077,-0.105c0.003,-0.052 0.051,-0.088 0.104,-0.077l0,0Z" style="fill:#010101;fill-rule:nonzero;stroke:#010101;stroke-width:0.06px;"/><path d="M57.16,130.352l0.325,0.117l0.359,0.119l0.821,0.254l0.939,0.266l1.034,0.277l1.11,0.277l1.17,0.277l1.217,0.272l1.24,0.26l2.481,0.467l1.211,0.195l1.164,0.165l1.087,0.13l1.016,0.089l0.91,0.041l0.785,-0.006l0.697,-0.076l-0.018,0l0.644,-0.172l0.585,-0.242l0.543,-0.307l0.491,-0.35l0.454,-0.383l0.414,-0.402l0.384,-0.408l0.673,-0.797l0.296,-0.354l0.283,-0.302l0.254,-0.248c0.007,-0.006 0.013,-0.006 0.013,-0.012l0.236,-0.165c0.012,-0.006 0.018,-0.006 0.029,-0.013l0.225,-0.07c0.012,-0.006 0.023,-0.006 0.041,0l0.213,0.029c0.047,0.006 0.089,0.054 0.076,0.107c-0.006,0.047 -0.053,0.088 -0.105,0.076l-0.213,-0.029l0.041,0l-0.225,0.07l0.029,-0.012l-0.235,0.166l0.012,-0.012l-0.255,0.236l-0.271,0.301l-0.295,0.354l-0.686,0.798l-0.384,0.42l-0.426,0.412l-0.467,0.396l-0.514,0.354l-0.555,0.313l-0.608,0.254l-0.645,0.171c-0.006,0 -0.012,0 -0.018,0l-0.709,0.083l-0.797,0.006l-0.922,-0.047l-1.017,-0.09l-1.099,-0.129l-1.163,-0.166l-1.211,-0.195l-2.493,-0.467l-1.24,-0.26l-1.218,-0.271l-1.169,-0.277l-1.123,-0.277l-1.033,-0.277l-0.939,-0.267l-0.821,-0.254l-0.372,-0.124l-0.325,-0.118c-0.047,-0.018 -0.076,-0.071 -0.059,-0.118c0.017,-0.047 0.08,-0.073 0.128,-0.055l0,0Z" style="fill:#010101;fill-rule:nonzero;stroke:#010101;stroke-width:0.06px;"/><path d="M134.046,98.18l-26.699,-0.368l-3.782,-32.618l34.47,0l-3.989,32.986Z" style="fill-rule:nonzero;stroke:#000;stroke-width:1px;stroke-linejoin:miter;stroke-miterlimit:4;"/><ellipse cx="120.793" cy="65.106" rx="17.241" ry="3.052" style="fill:#6b7674;stroke:#000;stroke-width:1px;stroke-linejoin:miter;stroke-miterlimit:4;"/><path d="M134.046,98.18c0,1.316 -5.964,2.382 -13.319,2.382c-7.357,0 -13.38,-1.434 -13.38,-2.75c0,-1.314 6.022,-2.014 13.38,-2.014c7.355,0 13.319,1.066 13.319,2.382l0,0Z" style="fill-rule:nonzero;stroke:#000;stroke-width:1px;stroke-linejoin:miter;stroke-miterlimit:4;"/><path d="M100.273,15.51l0.273,0.002l0.272,0.002l0.273,0.003l0.272,0.004l0.272,0.005l0.272,0.005l0.271,0.007l0.271,0.007l0.271,0.008l0.271,0.009l0.271,0.01l0.271,0.011l0.27,0.011l0.27,0.013l0.27,0.013l0.269,0.014l0.27,0.015l0.269,0.016l0.269,0.017l0.268,0.017l0.269,0.018l0.268,0.02l0.268,0.02l0.268,0.02l0.267,0.022l0.268,0.023l0.267,0.023l0.266,0.024l0.267,0.025l0.266,0.026l0.266,0.027l0.266,0.027l0.266,0.028l0.265,0.029l0.265,0.03l0.265,0.031l0.265,0.032l0.264,0.032l0.264,0.033l0.264,0.034l0.264,0.035l0.263,0.036l0.263,0.036l0.263,0.038l0.263,0.038l0.262,0.039l0.262,0.039l0.262,0.041l0.262,0.041l0.261,0.042l0.261,0.043l0.261,0.044l0.26,0.044l0.26,0.046l0.26,0.046l0.26,0.047l0.259,0.047l0.259,0.049l0.259,0.049l0.259,0.05l0.258,0.051l0.258,0.051l0.258,0.053l0.257,0.053l0.257,0.054l0.257,0.055l0.257,0.055l0.256,0.057l0.256,0.057l0.256,0.057l0.255,0.059l0.255,0.06l0.255,0.06l0.255,0.061l0.254,0.061l0.254,0.063l0.253,0.063l0.254,0.064l0.253,0.065l0.252,0.065l0.253,0.067l0.252,0.067l0.252,0.068l0.251,0.068l0.251,0.07l0.251,0.07l0.251,0.07l0.25,0.072l0.25,0.072l0.249,0.074l0.25,0.073l0.249,0.075l0.248,0.075l0.249,0.076l0.248,0.077l0.247,0.078l0.248,0.078l0.247,0.079l0.246,0.08l0.247,0.08l0.246,0.082l0.245,0.082l0.246,0.082l0.245,0.084l0.244,0.084l0.245,0.085l0.244,0.086l0.243,0.086l0.244,0.087l0.243,0.088l0.242,0.088l0.242,0.09l0.242,0.09l0.242,0.09l0.241,0.092l0.241,0.092l0.241,0.093l0.24,0.093l0.24,0.094l0.239,0.095l0.239,0.096l0.239,0.097l0.238,0.097l0.238,0.097l0.238,0.099l0.237,0.099l0.237,0.1l0.237,0.101l0.236,0.101l0.236,0.102l0.235,0.103l0.235,0.103l0.235,0.104l0.234,0.105l0.234,0.105l0.234,0.107l0.233,0.106l0.233,0.108l0.232,0.108l0.232,0.109l0.232,0.11l0.231,0.11l0.231,0.111l0.231,0.112l0.23,0.112l0.229,0.113l0.23,0.114l0.229,0.114l0.228,0.115l0.228,0.116l0.228,0.116l0.228,0.117l0.226,0.118l0.227,0.118l0.226,0.119l0.226,0.12l0.225,0.12l0.225,0.121l0.225,0.122l0.224,0.122l0.224,0.123l0.223,0.124l0.223,0.124l0.222,0.125l0.222,0.126l0.222,0.126l0.221,0.127l0.221,0.127l0.22,0.128l0.22,0.129l0.22,0.13l0.219,0.13l0.219,0.131l0.218,0.131l0.218,0.132l0.217,0.133l0.217,0.133l0.217,0.134l0.216,0.135l0.216,0.135l0.215,0.136l0.215,0.136l0.214,0.137l0.214,0.138l0.213,0.139l0.214,0.139l0.212,0.139l0.212,0.14l0.212,0.141l0.211,0.142l0.211,0.142l0.21,0.143l0.21,0.143l0.21,0.144l0.209,0.144l0.208,0.146l0.208,0.145l0.208,0.147l0.207,0.147l0.207,0.147l0.206,0.148l0.206,0.149l0.205,0.15l0.205,0.15l0.205,0.15l0.204,0.152l0.203,0.151l0.203,0.153l0.203,0.153l0.202,0.153l0.201,0.155l0.201,0.154l0.201,0.156l0.2,0.156l0.2,0.156l0.199,0.157l0.198,0.158l0.199,0.158l0.197,0.159l0.198,0.16l0.196,0.16l0.197,0.16l0.195,0.161l0.196,0.162l0.194,0.163l0.195,0.163l0.194,0.163l0.193,0.164l0.193,0.165l0.192,0.165l0.192,0.166l0.191,0.166l0.191,0.167l0.19,0.167l0.19,0.168l0.189,0.169l0.189,0.169l0.188,0.17l0.188,0.17l0.187,0.171l0.187,0.171l0.186,0.172l0.186,0.172l0.185,0.173l0.185,0.174l0.184,0.174l0.183,0.175l0.183,0.175l0.183,0.176l0.182,0.176l0.181,0.177l0.181,0.177l0.181,0.178l0.18,0.178l0.179,0.179l0.179,0.18l0.178,0.18l0.178,0.18l0.177,0.181l0.177,0.182l0.176,0.182l0.176,0.183l0.175,0.183l0.174,0.184l0.174,0.184l0.174,0.185l0.173,0.185l0.172,0.186l0.172,0.186l0.171,0.187l0.171,0.187l0.17,0.188l0.17,0.188l0.169,0.189l0.168,0.19l0.168,0.19l0.167,0.19l0.167,0.191l0.166,0.191l0.166,0.192l0.165,0.193l0.165,0.193l0.164,0.193l0.163,0.194l0.163,0.194l0.162,0.195l0.162,0.195l0.161,0.196l0.16,0.197l0.16,0.197l0.16,0.197l0.158,0.198l0.159,0.198l0.157,0.199l0.157,0.199l0.157,0.2l0.156,0.2l0.155,0.201l0.155,0.201l0.154,0.202l0.153,0.202l0.153,0.203l0.152,0.203l0.152,0.203l0.151,0.204l0.151,0.205l0.15,0.205l0.149,0.205l0.149,0.206l0.148,0.207l0.147,0.206l0.147,0.208l0.147,0.207l0.145,0.209l0.145,0.208l0.145,0.209l0.144,0.21l0.143,0.21l0.143,0.211l0.142,0.211l0.141,0.211l0.141,0.212l0.14,0.212l0.14,0.213l0.138,0.213l0.139,0.214l0.137,0.214l0.137,0.214l0.137,0.215l0.136,0.215l0.135,0.216l0.134,0.216l0.134,0.217l0.133,0.217l0.133,0.218l0.132,0.218l0.131,0.218l0.131,0.219l0.13,0.219l0.129,0.22l0.129,0.22l0.128,0.22l0.128,0.221l0.127,0.222l0.126,0.222l0.125,0.222l0.125,0.222l0.124,0.223l0.124,0.224l0.123,0.224l0.122,0.224l0.122,0.225l0.121,0.225l0.12,0.225l0.12,0.226l0.119,0.226l0.118,0.227l0.117,0.227l0.117,0.228l0.117,0.227l0.115,0.229l0.115,0.228l0.115,0.229l0.113,0.23l0.113,0.23l0.112,0.23l0.112,0.231l0.111,0.231l0.11,0.231l0.11,0.232l0.108,0.232l0.109,0.233l0.107,0.233l0.107,0.233l0.106,0.234l0.105,0.234l0.105,0.234l0.104,0.235l0.103,0.235l0.103,0.236l0.102,0.236l0.101,0.236l0.101,0.237l0.1,0.237l0.099,0.237l0.098,0.238l0.098,0.238l0.097,0.239l0.096,0.239l0.096,0.239l0.095,0.24l0.094,0.239l0.094,0.241l0.093,0.24l0.092,0.241l0.091,0.242l0.091,0.242l0.089,0.242l0.09,0.242l0.088,0.243l0.088,0.243l0.087,0.243l0.086,0.244l0.086,0.244l0.085,0.245l0.084,0.245l0.083,0.245l0.083,0.245l0.082,0.246l0.081,0.246l0.081,0.247l0.079,0.246l0.079,0.248l0.079,0.247l0.077,0.248l0.077,0.248l0.076,0.248l0.075,0.249l0.075,0.249l0.074,0.25l0.073,0.249l0.072,0.251l0.071,0.25l0.071,0.251l0.07,0.251l0.07,0.251l0.068,0.251l0.068,0.252l0.067,0.253l0.066,0.252l0.066,0.253l0.064,0.253l0.064,0.254l0.064,0.253l0.062,0.255l0.062,0.254l0.061,0.255l0.06,0.254l0.059,0.256l0.059,0.255l0.058,0.256l0.057,0.256l0.056,0.257l0.055,0.256l0.055,0.257l0.054,0.258l0.053,0.257l0.053,0.258l0.051,0.258l0.051,0.259l0.05,0.258l0.049,0.259l0.049,0.26l0.047,0.259l0.047,0.26l0.046,0.26l0.046,0.26l0.044,0.261l0.044,0.261l0.043,0.261l0.042,0.262l0.041,0.261l0.04,0.262l0.04,0.262l0.039,0.263l0.038,0.263l0.037,0.263l0.037,0.263l0.035,0.263l0.035,0.264l0.034,0.264l0.033,0.265l0.033,0.264l0.031,0.265l0.031,0.265l0.03,0.265l0.029,0.266l0.028,0.266l0.028,0.266l0.026,0.266l0.026,0.266l0.025,0.267l0.024,0.267l0.024,0.267l0.022,0.268l0.022,0.267l0.021,0.268l0.02,0.268l0.019,0.269l0.018,0.268l0.018,0.269l0.016,0.269l0.016,0.27l0.015,0.269l0.014,0.27l0.013,0.27l0.013,0.27l0.011,0.27l0.011,0.271l0.01,0.271l0.009,0.271l0.008,0.271l0.007,0.272l0.007,0.271l0.006,0.272l0.004,0.272l0.004,0.273l0.003,0.272l0.002,0.273l0.002,0.273l0,0.273l0,0.273l-0.002,0.273l-0.002,0.273l-0.003,0.272l-0.004,0.273l-0.004,0.272l-0.006,0.272l-0.007,0.271l-0.007,0.272l-0.008,0.271l-0.009,0.271l-0.01,0.271l-0.011,0.271l-0.011,0.27l-0.013,0.27l-0.013,0.27l-0.014,0.27l-0.015,0.269l-0.016,0.27l-0.016,0.269l-0.018,0.269l-0.018,0.268l-0.019,0.269l-0.02,0.268l-0.021,0.268l-0.022,0.267l-0.022,0.268l-0.024,0.267l-0.024,0.267l-0.025,0.267l-0.026,0.266l-0.026,0.266l-0.028,0.266l-0.028,0.266l-0.029,0.266l-0.03,0.265l-0.031,0.265l-0.031,0.265l-0.033,0.264l-0.033,0.265l-0.034,0.264l-0.035,0.264l-0.035,0.263l-0.037,0.263l-0.037,0.263l-0.038,0.263l-0.039,0.263l-0.04,0.262l-0.04,0.262l-0.041,0.261l-0.042,0.262l-0.043,0.261l-0.044,0.261l-0.044,0.261l-0.046,0.26l-0.046,0.26l-0.047,0.26l-0.047,0.259l-0.049,0.26l-0.049,0.259l-0.05,0.258l-0.051,0.259l-0.051,0.258l-0.053,0.258l-0.053,0.257l-0.054,0.258l-0.055,0.257l-0.055,0.256l-0.056,0.257l-0.057,0.256l-0.058,0.256l-0.059,0.255l-0.059,0.256l-0.06,0.254l-0.061,0.255l-0.062,0.254l-0.062,0.255l-0.064,0.253l-0.064,0.254l-0.064,0.253l-0.066,0.253l-0.066,0.252l-0.067,0.253l-0.068,0.252l-0.068,0.251l-0.07,0.251l-0.07,0.251l-0.071,0.251l-0.071,0.25l-0.072,0.251l-0.073,0.249l-0.074,0.25l-0.075,0.249l-0.075,0.249l-0.076,0.248l-0.077,0.248l-0.077,0.248l-0.079,0.247l-0.079,0.248l-0.079,0.246l-0.081,0.247l-0.081,0.246l-0.082,0.246l-0.083,0.245l-0.083,0.245l-0.084,0.245l-0.085,0.245l-0.086,0.244l-0.086,0.244l-0.087,0.243l-0.088,0.243l-0.088,0.243l-0.09,0.242l-0.089,0.242l-0.091,0.242l-0.091,0.242l-0.092,0.241l-0.093,0.24l-0.094,0.241l-0.094,0.239l-0.095,0.24l-0.096,0.239l-0.096,0.239l-0.097,0.239l-0.098,0.238l-0.098,0.238l-0.099,0.237l-0.1,0.237l-0.101,0.237l-0.101,0.236l-0.102,0.236l-0.103,0.236l-0.103,0.235l-0.104,0.235l-0.105,0.234l-0.105,0.234l-0.106,0.234l-0.107,0.233l-0.107,0.233l-0.109,0.233l-0.108,0.232l-0.11,0.232l-0.11,0.231l-0.111,0.231l-0.112,0.231l-0.112,0.23l-0.113,0.23l-0.113,0.23l-0.115,0.229l-0.115,0.228l-0.115,0.229l-0.117,0.227l-0.117,0.228l-0.117,0.227l-0.118,0.227l-0.119,0.226l-0.12,0.226l-0.12,0.225l-0.121,0.225l-0.122,0.225l-0.122,0.224l-0.123,0.224l-0.124,0.224l-0.124,0.223l-0.125,0.222l-0.125,0.222l-0.126,0.222l-0.127,0.222l-0.128,0.221l-0.128,0.22l-0.129,0.22l-0.129,0.22l-0.13,0.219l-0.131,0.219l-0.131,0.218l-0.132,0.218l-0.133,0.218l-0.133,0.217l-0.134,0.217l-0.134,0.216l-0.135,0.216l-0.136,0.215l-0.137,0.215l-0.137,0.214l-0.137,0.214l-0.139,0.214l-0.138,0.213l-0.14,0.213l-0.14,0.212l-0.141,0.212l-0.141,0.211l-0.142,0.211l-0.143,0.211l-0.143,0.21l-0.144,0.21l-0.145,0.209l-0.145,0.208l-0.145,0.209l-0.147,0.207l-0.147,0.208l-0.147,0.206l-0.148,0.207l-0.149,0.206l-0.149,0.205l-0.15,0.205l-0.151,0.205l-0.151,0.204l-0.152,0.203l-0.152,0.203l-0.153,0.203l-0.153,0.202l-0.154,0.202l-0.155,0.201l-0.155,0.201l-0.156,0.2l-0.157,0.2l-0.157,0.199l-0.157,0.199l-0.159,0.198l-0.158,0.198l-0.16,0.197l-0.16,0.197l-0.16,0.197l-0.161,0.196l-0.162,0.195l-0.162,0.195l-0.163,0.194l-0.163,0.194l-0.164,0.193l-0.165,0.193l-0.165,0.193l-0.166,0.192l-0.166,0.191l-0.167,0.191l-0.167,0.19l-0.168,0.19l-0.168,0.19l-0.169,0.189l-0.17,0.188l-0.17,0.188l-0.171,0.187l-0.171,0.187l-0.172,0.186l-0.172,0.186l-0.173,0.185l-0.174,0.185l-0.174,0.184l-0.174,0.184l-0.175,0.183l-0.176,0.183l-0.176,0.182l-0.177,0.182l-0.177,0.181l-0.178,0.18l-0.178,0.18l-0.179,0.18l-0.179,0.179l-0.18,0.178l-0.181,0.178l-0.181,0.177l-0.181,0.177l-0.182,0.176l-0.183,0.176l-0.183,0.175l-0.183,0.175l-0.184,0.174l-0.185,0.174l-0.185,0.173l-0.186,0.172l-0.186,0.172l-0.187,0.171l-0.187,0.171l-0.188,0.17l-0.188,0.17l-0.189,0.169l-0.189,0.169l-0.19,0.168l-0.19,0.167l-0.191,0.167l-0.191,0.166l-0.192,0.166l-0.192,0.165l-0.193,0.165l-0.193,0.164l-0.194,0.163l-0.195,0.163l-0.194,0.163l-0.196,0.162l-0.195,0.161l-0.197,0.16l-0.196,0.16l-0.198,0.16l-0.197,0.159l-0.199,0.158l-0.198,0.158l-0.199,0.157l-0.2,0.156l-0.2,0.156l-0.201,0.156l-0.201,0.154l-0.201,0.155l-0.202,0.153l-0.203,0.153l-0.203,0.153l-0.203,0.151l-0.204,0.152l-0.205,0.15l-0.205,0.15l-0.205,0.15l-0.206,0.149l-0.206,0.148l-0.207,0.147l-0.207,0.147l-0.208,0.147l-0.208,0.145l-0.208,0.146l-0.209,0.144l-0.21,0.144l-0.21,0.143l-0.21,0.143l-0.211,0.142l-0.211,0.142l-0.212,0.141l-0.212,0.14l-0.212,0.139l-0.214,0.139l-0.213,0.139l-0.214,0.138l-0.214,0.137l-0.215,0.136l-0.215,0.136l-0.216,0.135l-0.216,0.135l-0.217,0.134l-0.217,0.133l-0.217,0.133l-0.218,0.132l-0.218,0.131l-0.219,0.131l-0.219,0.13l-0.22,0.13l-0.22,0.129l-0.22,0.128l-0.221,0.127l-0.221,0.127l-0.222,0.126l-0.222,0.126l-0.222,0.125l-0.223,0.124l-0.223,0.124l-0.224,0.123l-0.224,0.122l-0.225,0.122l-0.225,0.121l-0.225,0.12l-0.226,0.12l-0.226,0.119l-0.227,0.118l-0.226,0.118l-0.228,0.117l-0.228,0.116l-0.228,0.116l-0.228,0.115l-0.229,0.114l-0.23,0.114l-0.229,0.113l-0.23,0.112l-0.231,0.112l-0.231,0.111l-0.231,0.11l-0.232,0.11l-0.232,0.109l-0.232,0.108l-0.233,0.108l-0.233,0.106l-0.234,0.107l-0.234,0.105l-0.234,0.105l-0.235,0.104l-0.235,0.103l-0.235,0.103l-0.236,0.102l-0.236,0.101l-0.237,0.101l-0.237,0.1l-0.237,0.099l-0.238,0.099l-0.238,0.097l-0.238,0.097l-0.239,0.097l-0.239,0.096l-0.239,0.095l-0.24,0.094l-0.24,0.093l-0.241,0.093l-0.241,0.092l-0.241,0.092l-0.242,0.09l-0.242,0.09l-0.242,0.09l-0.242,0.088l-0.243,0.088l-0.244,0.087l-0.243,0.086l-0.244,0.086l-0.245,0.085l-0.244,0.084l-0.245,0.084l-0.246,0.082l-0.245,0.082l-0.246,0.082l-0.247,0.08l-0.246,0.08l-0.247,0.079l-0.248,0.078l-0.247,0.078l-0.248,0.077l-0.249,0.076l-0.248,0.075l-0.249,0.075l-0.25,0.073l-0.249,0.074l-0.25,0.072l-0.25,0.072l-0.251,0.07l-0.251,0.07l-0.251,0.07l-0.251,0.068l-0.252,0.068l-0.252,0.067l-0.253,0.067l-0.252,0.065l-0.253,0.065l-0.254,0.064l-0.253,0.063l-0.254,0.063l-0.254,0.061l-0.255,0.061l-0.255,0.06l-0.255,0.06l-0.255,0.059l-0.256,0.057l-0.256,0.057l-0.256,0.057l-0.257,0.055l-0.257,0.055l-0.257,0.054l-0.257,0.053l-0.258,0.053l-0.258,0.051l-0.258,0.051l-0.259,0.05l-0.259,0.049l-0.259,0.049l-0.259,0.047l-0.26,0.047l-0.26,0.046l-0.26,0.046l-0.26,0.044l-0.261,0.044l-0.261,0.043l-0.261,0.042l-0.262,0.041l-0.262,0.041l-0.262,0.039l-0.262,0.039l-0.263,0.038l-0.263,0.038l-0.263,0.036l-0.263,0.036l-0.264,0.035l-0.264,0.034l-0.264,0.033l-0.264,0.032l-0.265,0.032l-0.265,0.031l-0.265,0.03l-0.265,0.029l-0.266,0.028l-0.266,0.027l-0.266,0.027l-0.266,0.026l-0.267,0.025l-0.266,0.024l-0.267,0.023l-0.268,0.023l-0.267,0.022l-0.268,0.02l-0.268,0.02l-0.268,0.02l-0.269,0.018l-0.268,0.017l-0.269,0.017l-0.269,0.016l-0.27,0.015l-0.269,0.014l-0.27,0.013l-0.27,0.013l-0.27,0.011l-0.271,0.011l-0.271,0.01l-0.271,0.009l-0.271,0.008l-0.271,0.007l-0.271,0.007l-0.272,0.005l-0.272,0.005l-0.272,0.004l-0.273,0.003l-0.272,0.002l-0.273,0.002l-0.273,0l-0.273,0l-0.273,-0.002l-0.272,-0.002l-0.273,-0.003l-0.272,-0.004l-0.272,-0.005l-0.272,-0.005l-0.271,-0.007l-0.271,-0.007l-0.271,-0.008l-0.271,-0.009l-0.271,-0.01l-0.271,-0.011l-0.27,-0.011l-0.27,-0.013l-0.27,-0.013l-0.269,-0.014l-0.27,-0.015l-0.269,-0.016l-0.269,-0.017l-0.268,-0.017l-0.269,-0.018l-0.268,-0.02l-0.268,-0.02l-0.268,-0.02l-0.267,-0.022l-0.268,-0.023l-0.267,-0.023l-0.266,-0.024l-0.267,-0.025l-0.266,-0.026l-0.266,-0.027l-0.266,-0.027l-0.266,-0.028l-0.265,-0.029l-0.265,-0.03l-0.265,-0.031l-0.265,-0.032l-0.264,-0.032l-0.264,-0.033l-0.264,-0.034l-0.264,-0.035l-0.263,-0.036l-0.263,-0.036l-0.263,-0.038l-0.263,-0.038l-0.262,-0.039l-0.262,-0.039l-0.262,-0.041l-0.262,-0.041l-0.261,-0.042l-0.261,-0.043l-0.261,-0.044l-0.26,-0.044l-0.26,-0.046l-0.26,-0.046l-0.26,-0.047l-0.259,-0.047l-0.259,-0.049l-0.259,-0.049l-0.259,-0.05l-0.258,-0.051l-0.258,-0.051l-0.258,-0.053l-0.257,-0.053l-0.257,-0.054l-0.257,-0.055l-0.257,-0.055l-0.256,-0.057l-0.256,-0.057l-0.256,-0.057l-0.255,-0.059l-0.255,-0.06l-0.255,-0.06l-0.255,-0.061l-0.254,-0.061l-0.254,-0.063l-0.253,-0.063l-0.254,-0.064l-0.253,-0.065l-0.252,-0.065l-0.253,-0.067l-0.252,-0.067l-0.252,-0.068l-0.251,-0.068l-0.251,-0.07l-0.251,-0.07l-0.251,-0.07l-0.25,-0.072l-0.25,-0.072l-0.249,-0.074l-0.25,-0.073l-0.249,-0.075l-0.248,-0.075l-0.249,-0.076l-0.248,-0.077l-0.247,-0.078l-0.248,-0.078l-0.247,-0.079l-0.246,-0.08l-0.247,-0.08l-0.246,-0.082l-0.245,-0.082l-0.246,-0.082l-0.245,-0.084l-0.244,-0.084l-0.245,-0.085l-0.244,-0.086l-0.243,-0.086l-0.244,-0.087l-0.243,-0.088l-0.242,-0.088l-0.242,-0.09l-0.242,-0.09l-0.242,-0.09l-0.241,-0.092l-0.241,-0.092l-0.241,-0.093l-0.24,-0.093l-0.24,-0.094l-0.239,-0.095l-0.239,-0.096l-0.239,-0.097l-0.238,-0.097l-0.238,-0.097l-0.238,-0.099l-0.237,-0.099l-0.237,-0.1l-0.237,-0.101l-0.236,-0.101l-0.236,-0.102l-0.235,-0.103l-0.235,-0.103l-0.235,-0.104l-0.234,-0.105l-0.234,-0.105l-0.234,-0.107l-0.233,-0.106l-0.233,-0.108l-0.232,-0.108l-0.232,-0.109l-0.232,-0.11l-0.231,-0.11l-0.231,-0.111l-0.231,-0.112l-0.23,-0.112l-0.229,-0.113l-0.23,-0.114l-0.229,-0.114l-0.228,-0.115l-0.228,-0.116l-0.228,-0.116l-0.228,-0.117l-0.226,-0.118l-0.227,-0.118l-0.226,-0.119l-0.226,-0.12l-0.225,-0.12l-0.225,-0.121l-0.225,-0.122l-0.224,-0.122l-0.224,-0.123l-0.223,-0.124l-0.223,-0.124l-0.222,-0.125l-0.222,-0.126l-0.222,-0.126l-0.221,-0.127l-0.221,-0.127l-0.22,-0.128l-0.22,-0.129l-0.22,-0.13l-0.219,-0.13l-0.219,-0.131l-0.218,-0.131l-0.218,-0.132l-0.217,-0.133l-0.217,-0.133l-0.217,-0.134l-0.216,-0.135l-0.216,-0.135l-0.215,-0.136l-0.215,-0.136l-0.214,-0.137l-0.214,-0.138l-0.213,-0.139l-0.214,-0.139l-0.212,-0.139l-0.212,-0.14l-0.212,-0.141l-0.211,-0.142l-0.211,-0.142l-0.21,-0.143l-0.21,-0.143l-0.21,-0.144l-0.209,-0.144l-0.208,-0.146l-0.208,-0.145l-0.208,-0.147l-0.207,-0.147l-0.207,-0.147l-0.206,-0.148l-0.206,-0.149l-0.205,-0.15l-0.205,-0.15l-0.205,-0.15l-0.204,-0.152l-0.203,-0.151l-0.203,-0.153l-0.203,-0.153l-0.202,-0.153l-0.201,-0.155l-0.201,-0.154l-0.201,-0.156l-0.2,-0.156l-0.2,-0.156l-0.199,-0.157l-0.198,-0.158l-0.199,-0.158l-0.197,-0.159l-0.198,-0.16l-0.196,-0.16l-0.197,-0.16l-0.195,-0.161l-0.196,-0.162l-0.194,-0.163l-0.195,-0.163l-0.194,-0.163l-0.193,-0.164l-0.193,-0.165l-0.192,-0.165l-0.192,-0.166l-0.191,-0.166l-0.191,-0.167l-0.19,-0.167l-0.19,-0.168l-0.189,-0.169l-0.189,-0.169l-0.188,-0.17l-0.188,-0.17l-0.187,-0.171l-0.187,-0.171l-0.186,-0.172l-0.186,-0.172l-0.185,-0.173l-0.185,-0.174l-0.184,-0.174l-0.183,-0.175l-0.183,-0.175l-0.183,-0.176l-0.182,-0.176l-0.181,-0.177l-0.181,-0.177l-0.181,-0.178l-0.18,-0.178l-0.179,-0.179l-0.179,-0.18l-0.178,-0.18l-0.178,-0.18l-0.177,-0.181l-0.177,-0.182l-0.176,-0.182l-0.176,-0.183l-0.175,-0.183l-0.174,-0.184l-0.174,-0.184l-0.174,-0.185l-0.173,-0.185l-0.172,-0.186l-0.172,-0.186l-0.171,-0.187l-0.171,-0.187l-0.17,-0.188l-0.17,-0.188l-0.169,-0.189l-0.168,-0.19l-0.168,-0.19l-0.167,-0.19l-0.167,-0.191l-0.166,-0.191l-0.166,-0.192l-0.165,-0.193l-0.165,-0.193l-0.164,-0.193l-0.163,-0.194l-0.163,-0.194l-0.162,-0.195l-0.162,-0.195l-0.161,-0.196l-0.16,-0.197l-0.16,-0.197l-0.16,-0.197l-0.158,-0.198l-0.159,-0.198l-0.157,-0.199l-0.157,-0.199l-0.157,-0.2l-0.156,-0.2l-0.155,-0.201l-0.155,-0.201l-0.154,-0.202l-0.153,-0.202l-0.153,-0.203l-0.152,-0.203l-0.152,-0.203l-0.151,-0.204l-0.151,-0.205l-0.15,-0.205l-0.149,-0.205l-0.149,-0.206l-0.148,-0.207l-0.147,-0.206l-0.147,-0.208l-0.147,-0.207l-0.145,-0.209l-0.145,-0.208l-0.145,-0.209l-0.144,-0.21l-0.143,-0.21l-0.143,-0.211l-0.142,-0.211l-0.141,-0.211l-0.141,-0.212l-0.14,-0.212l-0.14,-0.213l-0.138,-0.213l-0.139,-0.214l-0.137,-0.214l-0.137,-0.214l-0.137,-0.215l-0.136,-0.215l-0.135,-0.216l-0.134,-0.216l-0.134,-0.217l-0.133,-0.217l-0.133,-0.218l-0.132,-0.218l-0.131,-0.218l-0.131,-0.219l-0.13,-0.219l-0.129,-0.22l-0.129,-0.22l-0.128,-0.22l-0.128,-0.221l-0.127,-0.222l-0.126,-0.222l-0.125,-0.222l-0.125,-0.222l-0.124,-0.223l-0.124,-0.224l-0.123,-0.224l-0.122,-0.224l-0.122,-0.225l-0.121,-0.225l-0.12,-0.225l-0.12,-0.226l-0.119,-0.226l-0.118,-0.227l-0.117,-0.227l-0.117,-0.228l-0.117,-0.227l-0.115,-0.229l-0.115,-0.228l-0.115,-0.229l-0.113,-0.23l-0.113,-0.23l-0.112,-0.23l-0.112,-0.231l-0.111,-0.231l-0.11,-0.231l-0.11,-0.232l-0.108,-0.232l-0.109,-0.233l-0.107,-0.233l-0.107,-0.233l-0.106,-0.234l-0.105,-0.234l-0.105,-0.234l-0.104,-0.235l-0.103,-0.235l-0.103,-0.236l-0.102,-0.236l-0.101,-0.236l-0.101,-0.237l-0.1,-0.237l-0.099,-0.237l-0.098,-0.238l-0.098,-0.238l-0.097,-0.239l-0.096,-0.239l-0.096,-0.239l-0.095,-0.24l-0.094,-0.239l-0.094,-0.241l-0.093,-0.24l-0.092,-0.241l-0.091,-0.242l-0.091,-0.242l-0.089,-0.242l-0.09,-0.242l-0.088,-0.243l-0.088,-0.243l-0.087,-0.243l-0.086,-0.244l-0.086,-0.244l-0.085,-0.245l-0.084,-0.245l-0.083,-0.245l-0.083,-0.245l-0.082,-0.246l-0.081,-0.246l-0.081,-0.247l-0.079,-0.246l-0.079,-0.248l-0.079,-0.247l-0.077,-0.248l-0.077,-0.248l-0.076,-0.248l-0.075,-0.249l-0.075,-0.249l-0.074,-0.25l-0.073,-0.249l-0.072,-0.251l-0.071,-0.25l-0.071,-0.251l-0.07,-0.251l-0.07,-0.251l-0.068,-0.251l-0.068,-0.252l-0.067,-0.253l-0.066,-0.252l-0.066,-0.253l-0.064,-0.253l-0.064,-0.254l-0.064,-0.253l-0.062,-0.255l-0.062,-0.254l-0.061,-0.255l-0.06,-0.254l-0.059,-0.256l-0.059,-0.255l-0.058,-0.256l-0.057,-0.256l-0.056,-0.257l-0.055,-0.256l-0.055,-0.257l-0.054,-0.258l-0.053,-0.257l-0.053,-0.258l-0.051,-0.258l-0.051,-0.259l-0.05,-0.258l-0.049,-0.259l-0.049,-0.26l-0.047,-0.259l-0.047,-0.26l-0.046,-0.26l-0.046,-0.26l-0.044,-0.261l-0.044,-0.261l-0.043,-0.261l-0.042,-0.262l-0.041,-0.261l-0.04,-0.262l-0.04,-0.262l-0.039,-0.263l-0.038,-0.263l-0.037,-0.263l-0.037,-0.263l-0.035,-0.263l-0.035,-0.264l-0.034,-0.264l-0.033,-0.265l-0.033,-0.264l-0.031,-0.265l-0.031,-0.265l-0.03,-0.265l-0.029,-0.266l-0.028,-0.266l-0.028,-0.266l-0.026,-0.266l-0.026,-0.266l-0.025,-0.267l-0.024,-0.267l-0.024,-0.267l-0.022,-0.268l-0.022,-0.267l-0.021,-0.268l-0.02,-0.268l-0.019,-0.269l-0.018,-0.268l-0.018,-0.269l-0.016,-0.269l-0.016,-0.27l-0.015,-0.269l-0.014,-0.27l-0.013,-0.27l-0.013,-0.27l-0.011,-0.27l-0.011,-0.271l-0.01,-0.271l-0.009,-0.271l-0.008,-0.271l-0.007,-0.272l-0.007,-0.271l-0.006,-0.272l-0.004,-0.272l-0.004,-0.273l-0.003,-0.272l-0.002,-0.273l-0.002,-0.273l0,-0.273l0,-0.273l0.002,-0.273l0.002,-0.273l0.003,-0.272l0.004,-0.273l0.004,-0.272l0.006,-0.272l0.007,-0.271l0.007,-0.272l0.008,-0.271l0.009,-0.271l0.01,-0.271l0.011,-0.271l0.011,-0.27l0.013,-0.27l0.013,-0.27l0.014,-0.27l0.015,-0.269l0.016,-0.27l0.016,-0.269l0.018,-0.269l0.018,-0.268l0.019,-0.269l0.02,-0.268l0.021,-0.268l0.022,-0.267l0.022,-0.268l0.024,-0.267l0.024,-0.267l0.025,-0.267l0.026,-0.266l0.026,-0.266l0.028,-0.266l0.028,-0.266l0.029,-0.266l0.03,-0.265l0.031,-0.265l0.031,-0.265l0.033,-0.264l0.033,-0.265l0.034,-0.264l0.035,-0.264l0.035,-0.263l0.037,-0.263l0.037,-0.263l0.038,-0.263l0.039,-0.263l0.04,-0.262l0.04,-0.262l0.041,-0.261l0.042,-0.262l0.043,-0.261l0.044,-0.261l0.044,-0.261l0.046,-0.26l0.046,-0.26l0.047,-0.26l0.047,-0.259l0.049,-0.26l0.049,-0.259l0.05,-0.258l0.051,-0.259l0.051,-0.258l0.053,-0.258l0.053,-0.257l0.054,-0.258l0.055,-0.257l0.055,-0.256l0.056,-0.257l0.057,-0.256l0.058,-0.256l0.059,-0.255l0.059,-0.256l0.06,-0.254l0.061,-0.255l0.062,-0.254l0.062,-0.255l0.064,-0.253l0.064,-0.254l0.064,-0.253l0.066,-0.253l0.066,-0.252l0.067,-0.253l0.068,-0.252l0.068,-0.251l0.07,-0.251l0.07,-0.251l0.071,-0.251l0.071,-0.25l0.072,-0.251l0.073,-0.249l0.074,-0.25l0.075,-0.249l0.075,-0.249l0.076,-0.248l0.077,-0.248l0.077,-0.248l0.079,-0.247l0.079,-0.248l0.079,-0.246l0.081,-0.247l0.081,-0.246l0.082,-0.246l0.083,-0.245l0.083,-0.245l0.084,-0.245l0.085,-0.245l0.086,-0.244l0.086,-0.244l0.087,-0.243l0.088,-0.243l0.088,-0.243l0.09,-0.242l0.089,-0.242l0.091,-0.242l0.091,-0.242l0.092,-0.241l0.093,-0.24l0.094,-0.241l0.094,-0.239l0.095,-0.24l0.096,-0.239l0.096,-0.239l0.097,-0.239l0.098,-0.238l0.098,-0.238l0.099,-0.237l0.1,-0.237l0.101,-0.237l0.101,-0.236l0.102,-0.236l0.103,-0.236l0.103,-0.235l0.104,-0.235l0.105,-0.234l0.105,-0.234l0.106,-0.234l0.107,-0.233l0.107,-0.233l0.109,-0.233l0.108,-0.232l0.11,-0.232l0.11,-0.231l0.111,-0.231l0.112,-0.231l0.112,-0.23l0.113,-0.23l0.113,-0.23l0.115,-0.229l0.115,-0.228l0.115,-0.229l0.117,-0.227l0.117,-0.228l0.117,-0.227l0.118,-0.227l0.119,-0.226l0.12,-0.226l0.12,-0.225l0.121,-0.225l0.122,-0.225l0.122,-0.224l0.123,-0.224l0.124,-0.224l0.124,-0.223l0.125,-0.222l0.125,-0.222l0.126,-0.222l0.127,-0.222l0.128,-0.221l0.128,-0.22l0.129,-0.22l0.129,-0.22l0.13,-0.219l0.131,-0.219l0.131,-0.218l0.132,-0.218l0.133,-0.218l0.133,-0.217l0.134,-0.217l0.134,-0.216l0.135,-0.216l0.136,-0.215l0.137,-0.215l0.137,-0.214l0.137,-0.214l0.139,-0.214l0.138,-0.213l0.14,-0.213l0.14,-0.212l0.141,-0.212l0.141,-0.211l0.142,-0.211l0.143,-0.211l0.143,-0.21l0.144,-0.21l0.145,-0.209l0.145,-0.208l0.145,-0.209l0.147,-0.207l0.147,-0.208l0.147,-0.206l0.148,-0.207l0.149,-0.206l0.149,-0.205l0.15,-0.205l0.151,-0.205l0.151,-0.204l0.152,-0.203l0.152,-0.203l0.153,-0.203l0.153,-0.202l0.154,-0.202l0.155,-0.201l0.155,-0.201l0.156,-0.2l0.157,-0.2l0.157,-0.199l0.157,-0.199l0.159,-0.198l0.158,-0.198l0.16,-0.197l0.16,-0.197l0.16,-0.197l0.161,-0.196l0.162,-0.195l0.162,-0.195l0.163,-0.194l0.163,-0.194l0.164,-0.193l0.165,-0.193l0.165,-0.193l0.166,-0.192l0.166,-0.191l0.167,-0.191l0.167,-0.19l0.168,-0.19l0.168,-0.19l0.169,-0.189l0.17,-0.188l0.17,-0.188l0.171,-0.187l0.171,-0.187l0.172,-0.186l0.172,-0.186l0.173,-0.185l0.174,-0.185l0.174,-0.184l0.174,-0.184l0.175,-0.183l0.176,-0.183l0.176,-0.182l0.177,-0.182l0.177,-0.181l0.178,-0.18l0.178,-0.18l0.179,-0.18l0.179,-0.179l0.18,-0.178l0.181,-0.178l0.181,-0.177l0.181,-0.177l0.182,-0.176l0.183,-0.176l0.183,-0.175l0.183,-0.175l0.184,-0.174l0.185,-0.174l0.185,-0.173l0.186,-0.172l0.186,-0.172l0.187,-0.171l0.187,-0.171l0.188,-0.17l0.188,-0.17l0.189,-0.169l0.189,-0.169l0.19,-0.168l0.19,-0.167l0.191,-0.167l0.191,-0.166l0.192,-0.166l0.192,-0.165l0.193,-0.165l0.193,-0.164l0.194,-0.163l0.195,-0.163l0.194,-0.163l0.196,-0.162l0.195,-0.161l0.197,-0.16l0.196,-0.16l0.198,-0.16l0.197,-0.159l0.199,-0.158l0.198,-0.158l0.199,-0.157l0.2,-0.156l0.2,-0.156l0.201,-0.156l0.201,-0.154l0.201,-0.155l0.202,-0.153l0.203,-0.153l0.203,-0.153l0.203,-0.151l0.204,-0.152l0.205,-0.15l0.205,-0.15l0.205,-0.15l0.206,-0.149l0.206,-0.148l0.207,-0.147l0.207,-0.147l0.208,-0.147l0.208,-0.145l0.208,-0.146l0.209,-0.144l0.21,-0.144l0.21,-0.143l0.21,-0.143l0.211,-0.142l0.211,-0.142l0.212,-0.141l0.212,-0.14l0.212,-0.139l0.214,-0.139l0.213,-0.139l0.214,-0.138l0.214,-0.137l0.215,-0.136l0.215,-0.136l0.216,-0.135l0.216,-0.135l0.217,-0.134l0.217,-0.133l0.217,-0.133l0.218,-0.132l0.218,-0.131l0.219,-0.131l0.219,-0.13l0.22,-0.13l0.22,-0.129l0.22,-0.128l0.221,-0.127l0.221,-0.127l0.222,-0.126l0.222,-0.126l0.222,-0.125l0.223,-0.124l0.223,-0.124l0.224,-0.123l0.224,-0.122l0.225,-0.122l0.225,-0.121l0.225,-0.12l0.226,-0.12l0.226,-0.119l0.227,-0.118l0.226,-0.118l0.228,-0.117l0.228,-0.116l0.228,-0.116l0.228,-0.115l0.229,-0.114l0.23,-0.114l0.229,-0.113l0.23,-0.112l0.231,-0.112l0.231,-0.111l0.231,-0.11l0.232,-0.11l0.232,-0.109l0.232,-0.108l0.233,-0.108l0.233,-0.106l0.234,-0.107l0.234,-0.105l0.234,-0.105l0.235,-0.104l0.235,-0.103l0.235,-0.103l0.236,-0.102l0.236,-0.101l0.237,-0.101l0.237,-0.1l0.237,-0.099l0.238,-0.099l0.238,-0.097l0.238,-0.097l0.239,-0.097l0.239,-0.096l0.239,-0.095l0.24,-0.094l0.24,-0.093l0.241,-0.093l0.241,-0.092l0.241,-0.092l0.242,-0.09l0.242,-0.09l0.242,-0.09l0.242,-0.088l0.243,-0.088l0.244,-0.087l0.243,-0.086l0.244,-0.086l0.245,-0.085l0.244,-0.084l0.245,-0.084l0.246,-0.082l0.245,-0.082l0.246,-0.082l0.247,-0.08l0.246,-0.08l0.247,-0.079l0.248,-0.078l0.247,-0.078l0.248,-0.077l0.249,-0.076l0.248,-0.075l0.249,-0.075l0.25,-0.073l0.249,-0.074l0.25,-0.072l0.25,-0.072l0.251,-0.07l0.251,-0.07l0.251,-0.07l0.251,-0.068l0.252,-0.068l0.252,-0.067l0.253,-0.067l0.252,-0.065l0.253,-0.065l0.254,-0.064l0.253,-0.063l0.254,-0.063l0.254,-0.061l0.255,-0.061l0.255,-0.06l0.255,-0.06l0.255,-0.059l0.256,-0.057l0.256,-0.057l0.256,-0.057l0.257,-0.055l0.257,-0.055l0.257,-0.054l0.257,-0.053l0.258,-0.053l0.258,-0.051l0.258,-0.051l0.259,-0.05l0.259,-0.049l0.259,-0.049l0.259,-0.047l0.26,-0.047l0.26,-0.046l0.26,-0.046l0.26,-0.044l0.261,-0.044l0.261,-0.043l0.261,-0.042l0.262,-0.041l0.262,-0.041l0.262,-0.039l0.262,-0.039l0.263,-0.038l0.263,-0.038l0.263,-0.036l0.263,-0.036l0.264,-0.035l0.264,-0.034l0.264,-0.033l0.264,-0.032l0.265,-0.032l0.265,-0.031l0.265,-0.03l0.265,-0.029l0.266,-0.028l0.266,-0.027l0.266,-0.027l0.266,-0.026l0.267,-0.025l0.266,-0.024l0.267,-0.023l0.268,-0.023l0.267,-0.022l0.268,-0.02l0.268,-0.02l0.268,-0.02l0.269,-0.018l0.268,-0.017l0.269,-0.017l0.269,-0.016l0.27,-0.015l0.269,-0.014l0.27,-0.013l0.27,-0.013l0.27,-0.011l0.271,-0.011l0.271,-0.01l0.271,-0.009l0.271,-0.008l0.271,-0.007l0.271,-0.007l0.272,-0.005l0.272,-0.005l0.272,-0.004l0.273,-0.003l0.272,-0.002l0.273,-0.002l0.273,0l0.273,0Zm-0.502,14l-0.228,0.001l-0.228,0.002l-0.228,0.003l-0.228,0.003l-0.227,0.004l-0.228,0.005l-0.227,0.005l-0.227,0.006l-0.226,0.007l-0.227,0.008l-0.226,0.008l-0.226,0.009l-0.226,0.01l-0.226,0.01l-0.225,0.011l-0.226,0.012l-0.225,0.012l-0.225,0.014l-0.224,0.013l-0.225,0.015l-0.224,0.015l-0.224,0.016l-0.224,0.017l-0.223,0.017l-0.224,0.019l-0.223,0.018l-0.223,0.02l-0.223,0.02l-0.222,0.021l-0.222,0.021l-0.222,0.023l-0.222,0.023l-0.222,0.023l-0.221,0.025l-0.221,0.024l-0.221,0.026l-0.221,0.026l-0.221,0.028l-0.22,0.027l-0.22,0.029l-0.22,0.029l-0.219,0.029l-0.22,0.031l-0.219,0.031l-0.219,0.032l-0.219,0.032l-0.218,0.033l-0.218,0.034l-0.218,0.034l-0.218,0.035l-0.218,0.036l-0.217,0.037l-0.217,0.037l-0.217,0.037l-0.216,0.039l-0.217,0.039l-0.216,0.04l-0.216,0.04l-0.215,0.041l-0.216,0.042l-0.215,0.042l-0.215,0.043l-0.215,0.044l-0.214,0.044l-0.214,0.045l-0.214,0.046l-0.214,0.046l-0.213,0.047l-0.214,0.047l-0.213,0.048l-0.212,0.049l-0.213,0.05l-0.212,0.05l-0.212,0.051l-0.212,0.051l-0.211,0.052l-0.211,0.053l-0.211,0.053l-0.211,0.054l-0.211,0.055l-0.21,0.055l-0.21,0.056l-0.209,0.056l-0.21,0.057l-0.209,0.058l-0.209,0.058l-0.208,0.059l-0.209,0.06l-0.208,0.06l-0.208,0.061l-0.207,0.062l-0.208,0.062l-0.207,0.062l-0.207,0.064l-0.206,0.064l-0.206,0.064l-0.206,0.066l-0.206,0.065l-0.205,0.067l-0.205,0.067l-0.205,0.068l-0.205,0.068l-0.204,0.069l-0.204,0.069l-0.204,0.07l-0.203,0.071l-0.204,0.071l-0.203,0.072l-0.202,0.073l-0.203,0.073l-0.202,0.074l-0.201,0.074l-0.202,0.075l-0.201,0.075l-0.201,0.077l-0.201,0.076l-0.2,0.078l-0.2,0.078l-0.2,0.078l-0.199,0.079l-0.2,0.08l-0.198,0.08l-0.199,0.081l-0.198,0.082l-0.198,0.082l-0.198,0.082l-0.197,0.084l-0.197,0.083l-0.197,0.085l-0.197,0.085l-0.196,0.085l-0.196,0.087l-0.195,0.086l-0.196,0.088l-0.195,0.087l-0.194,0.089l-0.195,0.089l-0.194,0.09l-0.193,0.09l-0.194,0.091l-0.193,0.091l-0.192,0.092l-0.193,0.092l-0.192,0.093l-0.192,0.094l-0.191,0.094l-0.192,0.095l-0.19,0.095l-0.191,0.096l-0.19,0.097l-0.19,0.097l-0.19,0.097l-0.189,0.098l-0.189,0.099l-0.188,0.099l-0.188,0.1l-0.188,0.1l-0.188,0.101l-0.187,0.102l-0.187,0.102l-0.187,0.102l-0.186,0.103l-0.186,0.104l-0.185,0.104l-0.186,0.105l-0.184,0.105l-0.185,0.106l-0.184,0.107l-0.184,0.106l-0.183,0.108l-0.184,0.108l-0.182,0.109l-0.183,0.109l-0.182,0.109l-0.182,0.11l-0.181,0.111l-0.181,0.111l-0.181,0.112l-0.18,0.112l-0.18,0.113l-0.18,0.114l-0.179,0.113l-0.179,0.115l-0.178,0.115l-0.178,0.115l-0.178,0.116l-0.178,0.117l-0.177,0.117l-0.176,0.117l-0.177,0.119l-0.176,0.118l-0.175,0.119l-0.176,0.12l-0.174,0.12l-0.175,0.121l-0.174,0.121l-0.174,0.122l-0.173,0.122l-0.173,0.123l-0.173,0.123l-0.172,0.124l-0.172,0.124l-0.171,0.124l-0.171,0.126l-0.171,0.125l-0.17,0.127l-0.17,0.127l-0.169,0.127l-0.169,0.128l-0.169,0.128l-0.168,0.129l-0.168,0.129l-0.168,0.13l-0.167,0.13l-0.167,0.131l-0.166,0.131l-0.166,0.131l-0.166,0.133l-0.165,0.132l-0.165,0.134l-0.164,0.133l-0.164,0.134l-0.163,0.135l-0.163,0.135l-0.163,0.136l-0.162,0.136l-0.162,0.136l-0.162,0.137l-0.161,0.138l-0.16,0.138l-0.161,0.138l-0.159,0.139l-0.16,0.14l-0.159,0.14l-0.158,0.14l-0.158,0.141l-0.158,0.141l-0.157,0.142l-0.157,0.142l-0.157,0.143l-0.156,0.143l-0.155,0.143l-0.155,0.145l-0.155,0.144l-0.154,0.145l-0.154,0.145l-0.153,0.146l-0.153,0.147l-0.153,0.147l-0.152,0.147l-0.152,0.148l-0.151,0.148l-0.151,0.148l-0.15,0.149l-0.15,0.15l-0.149,0.15l-0.149,0.15l-0.149,0.151l-0.148,0.151l-0.147,0.152l-0.148,0.152l-0.146,0.153l-0.147,0.153l-0.145,0.153l-0.146,0.154l-0.145,0.155l-0.144,0.155l-0.144,0.155l-0.144,0.155l-0.143,0.156l-0.142,0.157l-0.142,0.157l-0.142,0.157l-0.141,0.158l-0.141,0.158l-0.14,0.159l-0.14,0.159l-0.14,0.159l-0.138,0.16l-0.139,0.161l-0.138,0.16l-0.137,0.162l-0.137,0.161l-0.137,0.162l-0.136,0.162l-0.135,0.163l-0.135,0.164l-0.135,0.163l-0.134,0.164l-0.133,0.165l-0.134,0.164l-0.132,0.166l-0.132,0.165l-0.132,0.166l-0.131,0.167l-0.131,0.167l-0.13,0.167l-0.13,0.168l-0.129,0.168l-0.129,0.168l-0.128,0.169l-0.127,0.169l-0.128,0.17l-0.126,0.17l-0.127,0.17l-0.125,0.171l-0.125,0.171l-0.125,0.171l-0.124,0.172l-0.124,0.173l-0.123,0.172l-0.123,0.173l-0.122,0.174l-0.122,0.174l-0.121,0.174l-0.12,0.175l-0.12,0.175l-0.12,0.175l-0.119,0.176l-0.119,0.176l-0.118,0.176l-0.117,0.177l-0.117,0.177l-0.117,0.178l-0.116,0.178l-0.115,0.178l-0.115,0.179l-0.114,0.179l-0.114,0.179l-0.113,0.18l-0.113,0.18l-0.112,0.18l-0.112,0.181l-0.111,0.181l-0.111,0.182l-0.11,0.182l-0.11,0.182l-0.109,0.183l-0.108,0.182l-0.108,0.184l-0.108,0.183l-0.107,0.184l-0.106,0.185l-0.106,0.184l-0.105,0.185l-0.105,0.186l-0.104,0.185l-0.103,0.186l-0.104,0.187l-0.102,0.186l-0.102,0.187l-0.101,0.188l-0.101,0.188l-0.101,0.188l-0.099,0.188l-0.1,0.189l-0.098,0.189l-0.098,0.189l-0.098,0.19l-0.097,0.19l-0.096,0.19l-0.096,0.191l-0.095,0.191l-0.095,0.191l-0.094,0.192l-0.094,0.192l-0.093,0.192l-0.092,0.193l-0.092,0.193l-0.091,0.193l-0.091,0.193l-0.09,0.194l-0.09,0.194l-0.089,0.195l-0.088,0.195l-0.088,0.195l-0.088,0.195l-0.086,0.196l-0.086,0.196l-0.086,0.196l-0.085,0.197l-0.084,0.197l-0.084,0.197l-0.083,0.198l-0.083,0.198l-0.082,0.198l-0.081,0.198l-0.081,0.199l-0.081,0.199l-0.079,0.199l-0.079,0.2l-0.079,0.2l-0.078,0.2l-0.077,0.201l-0.077,0.2l-0.076,0.202l-0.075,0.201l-0.075,0.202l-0.075,0.202l-0.073,0.202l-0.073,0.202l-0.073,0.203l-0.072,0.203l-0.071,0.204l-0.071,0.203l-0.07,0.204l-0.069,0.204l-0.069,0.205l-0.069,0.205l-0.067,0.205l-0.067,0.205l-0.067,0.206l-0.065,0.206l-0.066,0.206l-0.064,0.206l-0.064,0.207l-0.063,0.207l-0.063,0.207l-0.062,0.207l-0.062,0.208l-0.061,0.208l-0.06,0.209l-0.059,0.208l-0.059,0.209l-0.059,0.209l-0.057,0.209l-0.058,0.21l-0.056,0.21l-0.056,0.21l-0.055,0.21l-0.055,0.211l-0.054,0.211l-0.053,0.211l-0.053,0.211l-0.052,0.212l-0.051,0.212l-0.051,0.212l-0.05,0.212l-0.049,0.213l-0.049,0.213l-0.048,0.213l-0.048,0.214l-0.047,0.213l-0.046,0.214l-0.045,0.214l-0.045,0.215l-0.045,0.214l-0.043,0.215l-0.043,0.215l-0.043,0.216l-0.041,0.215l-0.041,0.216l-0.041,0.216l-0.039,0.217l-0.04,0.216l-0.038,0.217l-0.038,0.217l-0.037,0.217l-0.036,0.218l-0.036,0.217l-0.035,0.218l-0.034,0.219l-0.034,0.218l-0.033,0.219l-0.033,0.219l-0.031,0.219l-0.031,0.219l-0.031,0.22l-0.03,0.22l-0.029,0.22l-0.028,0.22l-0.028,0.22l-0.027,0.221l-0.026,0.221l-0.026,0.221l-0.025,0.222l-0.024,0.221l-0.024,0.222l-0.022,0.222l-0.023,0.222l-0.021,0.223l-0.021,0.222l-0.02,0.223l-0.02,0.224l-0.019,0.223l-0.018,0.223l-0.017,0.224l-0.017,0.224l-0.016,0.224l-0.015,0.225l-0.015,0.225l-0.014,0.224l-0.013,0.225l-0.012,0.226l-0.012,0.225l-0.011,0.226l-0.011,0.226l-0.009,0.226l-0.009,0.226l-0.008,0.227l-0.008,0.226l-0.007,0.227l-0.006,0.228l-0.005,0.227l-0.005,0.227l-0.004,0.228l-0.003,0.228l-0.003,0.228l-0.002,0.229l-0.001,0.228l0,0.229l0,0.229l0.001,0.228l0.002,0.229l0.003,0.228l0.003,0.228l0.004,0.228l0.005,0.227l0.005,0.227l0.006,0.228l0.007,0.226l0.008,0.227l0.008,0.227l0.009,0.226l0.009,0.226l0.011,0.226l0.011,0.226l0.012,0.225l0.012,0.226l0.013,0.225l0.014,0.224l0.015,0.225l0.015,0.225l0.016,0.224l0.017,0.224l0.017,0.224l0.018,0.223l0.019,0.223l0.02,0.224l0.02,0.223l0.021,0.222l0.021,0.223l0.023,0.222l0.022,0.222l0.024,0.222l0.024,0.221l0.025,0.222l0.026,0.221l0.026,0.221l0.027,0.221l0.028,0.22l0.028,0.22l0.029,0.22l0.03,0.22l0.031,0.22l0.031,0.219l0.031,0.219l0.033,0.219l0.033,0.219l0.034,0.218l0.034,0.219l0.035,0.218l0.036,0.217l0.036,0.218l0.037,0.217l0.038,0.217l0.038,0.217l0.04,0.216l0.039,0.217l0.041,0.216l0.041,0.216l0.041,0.215l0.043,0.216l0.043,0.215l0.043,0.215l0.045,0.214l0.045,0.215l0.045,0.214l0.046,0.214l0.047,0.213l0.048,0.214l0.048,0.213l0.049,0.213l0.049,0.213l0.05,0.212l0.051,0.212l0.051,0.212l0.052,0.212l0.053,0.211l0.053,0.211l0.054,0.211l0.055,0.211l0.055,0.21l0.056,0.21l0.056,0.21l0.058,0.21l0.057,0.209l0.059,0.209l0.059,0.209l0.059,0.209l0.06,0.208l0.061,0.208l0.062,0.208l0.062,0.207l0.063,0.207l0.063,0.207l0.064,0.207l0.064,0.206l0.066,0.206l0.065,0.206l0.067,0.206l0.067,0.205l0.067,0.205l0.069,0.205l0.069,0.205l0.069,0.204l0.07,0.204l0.071,0.203l0.071,0.204l0.072,0.203l0.073,0.203l0.073,0.202l0.073,0.202l0.075,0.202l0.075,0.202l0.075,0.201l0.076,0.202l0.077,0.2l0.077,0.201l0.078,0.2l0.079,0.2l0.079,0.2l0.079,0.199l0.081,0.199l0.081,0.199l0.081,0.198l0.082,0.198l0.083,0.198l0.083,0.198l0.084,0.197l0.084,0.197l0.085,0.197l0.086,0.196l0.086,0.196l0.086,0.196l0.088,0.195l0.088,0.195l0.088,0.195l0.089,0.194l0.09,0.195l0.09,0.194l0.091,0.193l0.091,0.193l0.092,0.193l0.092,0.193l0.093,0.192l0.094,0.192l0.094,0.192l0.095,0.191l0.095,0.191l0.096,0.191l0.096,0.19l0.097,0.19l0.098,0.19l0.098,0.189l0.098,0.189l0.1,0.189l0.099,0.188l0.101,0.188l0.101,0.188l0.101,0.187l0.102,0.187l0.102,0.187l0.104,0.187l0.103,0.186l0.104,0.185l0.105,0.186l0.105,0.185l0.106,0.184l0.106,0.185l0.107,0.183l0.108,0.184l0.108,0.184l0.108,0.183l0.109,0.182l0.11,0.182l0.11,0.182l0.111,0.182l0.111,0.181l0.112,0.181l0.112,0.18l0.113,0.18l0.113,0.18l0.114,0.179l0.114,0.179l0.115,0.179l0.115,0.178l0.116,0.178l0.117,0.178l0.117,0.177l0.117,0.177l0.118,0.176l0.119,0.176l0.119,0.176l0.12,0.175l0.12,0.175l0.12,0.175l0.121,0.174l0.122,0.174l0.122,0.174l0.123,0.173l0.123,0.172l0.124,0.173l0.124,0.172l0.125,0.171l0.125,0.171l0.125,0.171l0.127,0.17l0.126,0.17l0.128,0.17l0.127,0.169l0.128,0.169l0.129,0.168l0.129,0.169l0.13,0.167l0.13,0.167l0.131,0.167l0.131,0.166l0.132,0.167l0.132,0.166l0.133,0.165l0.132,0.164l0.134,0.165l0.134,0.164l0.135,0.163l0.135,0.164l0.135,0.163l0.136,0.162l0.137,0.162l0.137,0.161l0.137,0.162l0.138,0.16l0.139,0.161l0.138,0.16l0.14,0.159l0.14,0.159l0.14,0.159l0.141,0.158l0.141,0.158l0.142,0.157l0.142,0.157l0.142,0.157l0.143,0.156l0.144,0.155l0.144,0.155l0.144,0.155l0.145,0.155l0.146,0.154l0.145,0.153l0.147,0.153l0.147,0.153l0.146,0.152l0.148,0.152l0.148,0.151l0.149,0.151l0.149,0.15l0.149,0.15l0.15,0.15l0.15,0.149l0.151,0.148l0.151,0.148l0.152,0.148l0.152,0.147l0.153,0.147l0.153,0.147l0.153,0.146l0.154,0.145l0.154,0.145l0.155,0.144l0.155,0.145l0.156,0.143l0.156,0.143l0.156,0.143l0.157,0.142l0.157,0.142l0.158,0.141l0.158,0.141l0.158,0.14l0.159,0.14l0.16,0.14l0.159,0.139l0.161,0.138l0.16,0.138l0.161,0.138l0.162,0.137l0.162,0.136l0.162,0.136l0.163,0.136l0.163,0.135l0.163,0.135l0.164,0.134l0.164,0.133l0.165,0.134l0.166,0.133l0.165,0.132l0.166,0.131l0.166,0.131l0.167,0.131l0.167,0.13l0.167,0.13l0.169,0.13l0.168,0.128l0.168,0.128l0.17,0.128l0.169,0.127l0.17,0.127l0.17,0.127l0.171,0.125l0.171,0.125l0.171,0.125l0.172,0.125l0.173,0.123l0.172,0.124l0.173,0.122l0.173,0.122l0.174,0.122l0.174,0.121l0.175,0.121l0.175,0.12l0.175,0.12l0.175,0.119l0.176,0.118l0.176,0.118l0.177,0.118l0.177,0.117l0.178,0.117l0.178,0.116l0.178,0.115l0.178,0.115l0.179,0.115l0.179,0.113l0.18,0.114l0.18,0.113l0.18,0.112l0.181,0.112l0.181,0.111l0.181,0.111l0.182,0.11l0.182,0.109l0.183,0.109l0.182,0.109l0.184,0.108l0.183,0.107l0.184,0.107l0.184,0.107l0.184,0.106l0.185,0.105l0.186,0.105l0.185,0.104l0.186,0.104l0.186,0.103l0.187,0.102l0.187,0.102l0.187,0.102l0.188,0.101l0.188,0.1l0.188,0.1l0.188,0.099l0.189,0.099l0.19,0.098l0.189,0.098l0.19,0.096l0.19,0.097l0.191,0.096l0.19,0.095l0.192,0.095l0.191,0.094l0.192,0.094l0.192,0.093l0.193,0.092l0.192,0.092l0.193,0.091l0.194,0.091l0.194,0.09l0.193,0.09l0.195,0.089l0.194,0.088l0.196,0.088l0.195,0.088l0.195,0.086l0.196,0.087l0.196,0.085l0.197,0.085l0.197,0.085l0.196,0.083l0.198,0.084l0.198,0.082l0.198,0.083l0.198,0.081l0.198,0.081l0.199,0.08l0.2,0.08l0.199,0.079l0.2,0.078l0.2,0.078l0.2,0.078l0.201,0.076l0.201,0.076l0.201,0.076l0.201,0.075l0.202,0.074l0.203,0.074l0.202,0.073l0.202,0.073l0.203,0.072l0.204,0.071l0.203,0.071l0.204,0.07l0.204,0.069l0.204,0.069l0.205,0.068l0.204,0.068l0.206,0.067l0.205,0.067l0.206,0.065l0.206,0.066l0.206,0.064l0.207,0.064l0.206,0.063l0.208,0.063l0.207,0.062l0.207,0.062l0.208,0.061l0.208,0.06l0.208,0.06l0.209,0.059l0.209,0.058l0.209,0.058l0.21,0.057l0.209,0.056l0.21,0.056l0.211,0.055l0.21,0.055l0.21,0.054l0.211,0.053l0.212,0.053l0.211,0.052l0.212,0.051l0.212,0.051l0.212,0.05l0.213,0.05l0.212,0.049l0.213,0.048l0.213,0.047l0.214,0.047l0.214,0.046l0.214,0.046l0.214,0.045l0.214,0.044l0.215,0.044l0.215,0.043l0.215,0.042l0.215,0.042l0.216,0.041l0.216,0.04l0.216,0.04l0.217,0.039l0.216,0.039l0.217,0.037l0.217,0.037l0.217,0.037l0.218,0.036l0.218,0.035l0.218,0.034l0.218,0.034l0.218,0.033l0.219,0.032l0.219,0.032l0.219,0.031l0.22,0.031l0.219,0.029l0.22,0.029l0.22,0.029l0.22,0.028l0.221,0.027l0.221,0.026l0.22,0.025l0.222,0.025l0.221,0.025l0.222,0.023l0.222,0.023l0.222,0.023l0.222,0.021l0.222,0.021l0.223,0.02l0.223,0.02l0.224,0.018l0.223,0.019l0.223,0.017l0.224,0.017l0.224,0.016l0.224,0.015l0.225,0.015l0.224,0.013l0.225,0.014l0.225,0.012l0.226,0.012l0.225,0.011l0.226,0.01l0.226,0.01l0.225,0.009l0.227,0.008l0.227,0.008l0.226,0.007l0.227,0.006l0.227,0.005l0.228,0.005l0.228,0.004l0.227,0.003l0.228,0.003l0.228,0.002l0.228,0.001l0.229,0l0.229,0l0.228,-0.001l0.228,-0.002l0.228,-0.003l0.227,-0.003l0.228,-0.004l0.228,-0.005l0.227,-0.005l0.227,-0.006l0.226,-0.007l0.227,-0.008l0.227,-0.008l0.225,-0.009l0.226,-0.01l0.226,-0.01l0.225,-0.011l0.226,-0.012l0.225,-0.012l0.225,-0.014l0.224,-0.013l0.225,-0.015l0.224,-0.015l0.224,-0.016l0.224,-0.017l0.223,-0.017l0.223,-0.019l0.224,-0.018l0.223,-0.02l0.223,-0.02l0.222,-0.021l0.222,-0.021l0.222,-0.023l0.222,-0.023l0.222,-0.023l0.221,-0.025l0.222,-0.025l0.22,-0.025l0.221,-0.026l0.221,-0.027l0.22,-0.028l0.22,-0.029l0.22,-0.029l0.219,-0.029l0.22,-0.031l0.219,-0.031l0.219,-0.032l0.219,-0.032l0.218,-0.033l0.218,-0.034l0.218,-0.034l0.218,-0.035l0.218,-0.036l0.217,-0.037l0.217,-0.037l0.217,-0.037l0.216,-0.039l0.217,-0.039l0.216,-0.04l0.216,-0.04l0.216,-0.041l0.215,-0.042l0.215,-0.042l0.215,-0.043l0.215,-0.044l0.214,-0.044l0.214,-0.045l0.214,-0.046l0.214,-0.046l0.214,-0.047l0.213,-0.047l0.213,-0.048l0.212,-0.049l0.213,-0.05l0.212,-0.05l0.212,-0.051l0.212,-0.051l0.211,-0.052l0.212,-0.053l0.211,-0.053l0.21,-0.054l0.21,-0.055l0.211,-0.055l0.21,-0.056l0.209,-0.056l0.21,-0.057l0.209,-0.058l0.209,-0.058l0.209,-0.059l0.208,-0.06l0.208,-0.06l0.208,-0.061l0.207,-0.062l0.207,-0.062l0.208,-0.063l0.206,-0.063l0.207,-0.064l0.206,-0.064l0.206,-0.066l0.206,-0.065l0.205,-0.067l0.206,-0.067l0.204,-0.068l0.205,-0.068l0.204,-0.069l0.204,-0.069l0.204,-0.07l0.203,-0.071l0.204,-0.071l0.203,-0.072l0.202,-0.073l0.202,-0.073l0.203,-0.074l0.202,-0.074l0.201,-0.075l0.201,-0.076l0.201,-0.076l0.201,-0.076l0.2,-0.078l0.2,-0.078l0.2,-0.078l0.199,-0.079l0.2,-0.08l0.199,-0.08l0.198,-0.081l0.198,-0.081l0.198,-0.083l0.198,-0.082l0.198,-0.084l0.196,-0.083l0.197,-0.085l0.197,-0.085l0.196,-0.085l0.196,-0.087l0.195,-0.086l0.195,-0.088l0.196,-0.088l0.195,-0.088l0.194,-0.089l0.193,-0.09l0.194,-0.09l0.194,-0.091l0.193,-0.091l0.192,-0.092l0.193,-0.092l0.192,-0.093l0.192,-0.094l0.192,-0.094l0.191,-0.095l0.19,-0.095l0.191,-0.096l0.19,-0.097l0.19,-0.096l0.189,-0.098l0.19,-0.098l0.189,-0.099l0.188,-0.099l0.188,-0.1l0.188,-0.1l0.188,-0.101l0.187,-0.102l0.187,-0.102l0.187,-0.102l0.186,-0.103l0.186,-0.104l0.185,-0.104l0.185,-0.105l0.186,-0.105l0.184,-0.106l0.184,-0.107l0.184,-0.107l0.183,-0.107l0.184,-0.108l0.182,-0.109l0.183,-0.109l0.182,-0.109l0.182,-0.11l0.181,-0.111l0.181,-0.111l0.181,-0.112l0.18,-0.112l0.18,-0.113l0.18,-0.114l0.179,-0.113l0.179,-0.115l0.178,-0.115l0.178,-0.115l0.178,-0.116l0.178,-0.117l0.177,-0.117l0.177,-0.118l0.176,-0.118l0.176,-0.118l0.175,-0.119l0.175,-0.12l0.175,-0.12l0.175,-0.121l0.174,-0.121l0.174,-0.122l0.173,-0.122l0.173,-0.122l0.172,-0.124l0.173,-0.123l0.172,-0.125l0.171,-0.125l0.171,-0.125l0.171,-0.125l0.17,-0.127l0.17,-0.127l0.169,-0.127l0.169,-0.128l0.169,-0.128l0.169,-0.129l0.168,-0.129l0.167,-0.129l0.167,-0.131l0.167,-0.131l0.166,-0.131l0.166,-0.131l0.166,-0.133l0.165,-0.132l0.164,-0.133l0.165,-0.134l0.164,-0.134l0.163,-0.135l0.164,-0.135l0.162,-0.136l0.162,-0.136l0.162,-0.136l0.162,-0.138l0.161,-0.137l0.16,-0.138l0.161,-0.139l0.159,-0.138l0.16,-0.14l0.159,-0.14l0.158,-0.14l0.158,-0.141l0.158,-0.141l0.157,-0.142l0.157,-0.142l0.157,-0.143l0.155,-0.143l0.156,-0.144l0.155,-0.144l0.155,-0.144l0.154,-0.145l0.154,-0.145l0.153,-0.146l0.153,-0.147l0.153,-0.147l0.152,-0.147l0.152,-0.148l0.151,-0.148l0.151,-0.148l0.15,-0.149l0.15,-0.15l0.149,-0.15l0.149,-0.15l0.149,-0.151l0.148,-0.151l0.148,-0.152l0.146,-0.152l0.147,-0.153l0.147,-0.153l0.145,-0.153l0.146,-0.154l0.145,-0.155l0.144,-0.155l0.144,-0.155l0.143,-0.155l0.144,-0.156l0.142,-0.157l0.142,-0.157l0.142,-0.157l0.141,-0.158l0.141,-0.158l0.14,-0.159l0.14,-0.159l0.14,-0.159l0.138,-0.16l0.139,-0.161l0.137,-0.16l0.138,-0.162l0.137,-0.161l0.137,-0.162l0.136,-0.162l0.135,-0.163l0.135,-0.164l0.135,-0.163l0.134,-0.164l0.134,-0.165l0.132,-0.164l0.133,-0.165l0.132,-0.166l0.132,-0.167l0.131,-0.166l0.131,-0.167l0.13,-0.167l0.13,-0.168l0.129,-0.168l0.128,-0.168l0.129,-0.169l0.128,-0.169l0.127,-0.17l0.126,-0.17l0.127,-0.17l0.125,-0.171l0.125,-0.171l0.125,-0.172l0.124,-0.172l0.124,-0.172l0.123,-0.172l0.123,-0.173l0.122,-0.174l0.122,-0.174l0.121,-0.174l0.12,-0.175l0.12,-0.175l0.12,-0.175l0.119,-0.176l0.119,-0.176l0.118,-0.176l0.117,-0.177l0.117,-0.177l0.117,-0.178l0.116,-0.178l0.115,-0.178l0.115,-0.178l0.114,-0.18l0.114,-0.179l0.114,-0.18l0.112,-0.18l0.112,-0.18l0.112,-0.181l0.111,-0.181l0.111,-0.182l0.11,-0.182l0.11,-0.182l0.109,-0.182l0.108,-0.183l0.108,-0.184l0.108,-0.183l0.107,-0.184l0.106,-0.185l0.106,-0.184l0.105,-0.185l0.105,-0.186l0.104,-0.185l0.103,-0.186l0.104,-0.187l0.102,-0.187l0.102,-0.187l0.101,-0.187l0.101,-0.187l0.101,-0.189l0.099,-0.188l0.1,-0.189l0.098,-0.189l0.098,-0.189l0.098,-0.19l0.097,-0.19l0.096,-0.19l0.096,-0.191l0.095,-0.191l0.095,-0.191l0.094,-0.192l0.094,-0.192l0.093,-0.192l0.092,-0.193l0.092,-0.193l0.092,-0.193l0.09,-0.194l0.09,-0.193l0.09,-0.194l0.089,-0.195l0.088,-0.195l0.088,-0.195l0.088,-0.195l0.086,-0.196l0.086,-0.196l0.086,-0.196l0.085,-0.197l0.084,-0.197l0.084,-0.197l0.083,-0.198l0.083,-0.198l0.082,-0.198l0.081,-0.198l0.081,-0.199l0.081,-0.199l0.079,-0.199l0.079,-0.2l0.079,-0.2l0.078,-0.2l0.077,-0.201l0.077,-0.2l0.076,-0.202l0.075,-0.201l0.075,-0.202l0.075,-0.202l0.073,-0.202l0.073,-0.202l0.073,-0.203l0.072,-0.203l0.071,-0.204l0.071,-0.203l0.07,-0.204l0.069,-0.204l0.069,-0.205l0.069,-0.205l0.067,-0.204l0.067,-0.206l0.067,-0.206l0.065,-0.206l0.066,-0.206l0.064,-0.206l0.064,-0.207l0.063,-0.207l0.063,-0.207l0.062,-0.208l0.062,-0.207l0.061,-0.208l0.06,-0.209l0.059,-0.208l0.059,-0.209l0.059,-0.209l0.058,-0.209l0.057,-0.21l0.056,-0.21l0.056,-0.21l0.055,-0.21l0.055,-0.211l0.054,-0.211l0.053,-0.211l0.053,-0.211l0.052,-0.212l0.051,-0.212l0.051,-0.212l0.05,-0.212l0.049,-0.213l0.049,-0.213l0.048,-0.213l0.048,-0.213l0.047,-0.214l0.046,-0.214l0.046,-0.215l0.044,-0.214l0.045,-0.214l0.043,-0.215l0.043,-0.215l0.043,-0.215l0.041,-0.216l0.041,-0.216l0.041,-0.216l0.04,-0.217l0.039,-0.216l0.038,-0.217l0.038,-0.217l0.037,-0.217l0.036,-0.218l0.036,-0.217l0.035,-0.218l0.034,-0.219l0.034,-0.218l0.033,-0.219l0.033,-0.219l0.031,-0.219l0.031,-0.219l0.031,-0.22l0.03,-0.22l0.029,-0.22l0.028,-0.22l0.028,-0.22l0.027,-0.221l0.026,-0.221l0.026,-0.221l0.025,-0.222l0.024,-0.221l0.024,-0.222l0.022,-0.222l0.023,-0.222l0.021,-0.223l0.021,-0.222l0.02,-0.223l0.02,-0.224l0.019,-0.223l0.018,-0.224l0.017,-0.223l0.017,-0.224l0.016,-0.224l0.015,-0.225l0.015,-0.225l0.014,-0.225l0.013,-0.224l0.012,-0.226l0.012,-0.226l0.011,-0.225l0.011,-0.226l0.009,-0.226l0.009,-0.226l0.008,-0.227l0.008,-0.226l0.007,-0.228l0.006,-0.227l0.005,-0.227l0.005,-0.228l0.004,-0.227l0.003,-0.228l0.003,-0.228l0.002,-0.229l0.001,-0.228l0,-0.229l0,-0.229l-0.001,-0.228l-0.002,-0.229l-0.003,-0.228l-0.003,-0.228l-0.004,-0.227l-0.005,-0.228l-0.005,-0.227l-0.006,-0.227l-0.007,-0.228l-0.008,-0.226l-0.008,-0.227l-0.009,-0.226l-0.009,-0.226l-0.011,-0.226l-0.011,-0.225l-0.012,-0.226l-0.012,-0.226l-0.013,-0.224l-0.014,-0.225l-0.015,-0.225l-0.015,-0.225l-0.016,-0.224l-0.017,-0.224l-0.017,-0.223l-0.018,-0.224l-0.019,-0.223l-0.02,-0.224l-0.02,-0.223l-0.021,-0.222l-0.021,-0.223l-0.023,-0.222l-0.022,-0.222l-0.024,-0.222l-0.024,-0.221l-0.025,-0.222l-0.026,-0.221l-0.026,-0.221l-0.027,-0.221l-0.028,-0.22l-0.028,-0.22l-0.029,-0.22l-0.03,-0.22l-0.031,-0.22l-0.031,-0.219l-0.031,-0.219l-0.033,-0.219l-0.033,-0.219l-0.034,-0.218l-0.034,-0.219l-0.035,-0.218l-0.036,-0.217l-0.036,-0.218l-0.037,-0.217l-0.038,-0.217l-0.038,-0.217l-0.039,-0.216l-0.04,-0.217l-0.041,-0.216l-0.041,-0.216l-0.041,-0.216l-0.043,-0.215l-0.043,-0.215l-0.043,-0.215l-0.045,-0.214l-0.044,-0.214l-0.046,-0.215l-0.046,-0.214l-0.047,-0.214l-0.048,-0.213l-0.048,-0.213l-0.049,-0.213l-0.049,-0.213l-0.05,-0.212l-0.051,-0.212l-0.051,-0.212l-0.052,-0.212l-0.053,-0.211l-0.053,-0.211l-0.054,-0.211l-0.055,-0.211l-0.055,-0.21l-0.056,-0.21l-0.056,-0.21l-0.057,-0.21l-0.058,-0.209l-0.059,-0.209l-0.059,-0.209l-0.059,-0.208l-0.06,-0.209l-0.061,-0.208l-0.062,-0.207l-0.062,-0.208l-0.063,-0.207l-0.063,-0.207l-0.064,-0.207l-0.064,-0.206l-0.066,-0.206l-0.065,-0.206l-0.067,-0.206l-0.067,-0.206l-0.067,-0.204l-0.069,-0.205l-0.069,-0.205l-0.069,-0.204l-0.07,-0.204l-0.071,-0.203l-0.071,-0.204l-0.072,-0.203l-0.073,-0.203l-0.073,-0.202l-0.073,-0.202l-0.075,-0.202l-0.075,-0.202l-0.075,-0.201l-0.076,-0.202l-0.077,-0.2l-0.077,-0.201l-0.078,-0.2l-0.079,-0.2l-0.079,-0.2l-0.079,-0.199l-0.081,-0.199l-0.081,-0.199l-0.081,-0.198l-0.082,-0.198l-0.083,-0.198l-0.083,-0.198l-0.084,-0.197l-0.084,-0.197l-0.085,-0.197l-0.086,-0.196l-0.086,-0.196l-0.086,-0.196l-0.088,-0.195l-0.088,-0.195l-0.088,-0.195l-0.089,-0.195l-0.09,-0.194l-0.09,-0.193l-0.09,-0.194l-0.092,-0.193l-0.092,-0.193l-0.092,-0.193l-0.093,-0.192l-0.094,-0.192l-0.094,-0.192l-0.095,-0.191l-0.095,-0.191l-0.096,-0.191l-0.096,-0.19l-0.097,-0.19l-0.098,-0.19l-0.098,-0.189l-0.098,-0.189l-0.1,-0.189l-0.099,-0.188l-0.101,-0.189l-0.101,-0.187l-0.101,-0.187l-0.102,-0.188l-0.102,-0.186l-0.104,-0.187l-0.103,-0.186l-0.104,-0.185l-0.105,-0.186l-0.105,-0.185l-0.106,-0.184l-0.106,-0.185l-0.107,-0.184l-0.108,-0.183l-0.108,-0.184l-0.108,-0.182l-0.109,-0.183l-0.11,-0.182l-0.11,-0.182l-0.111,-0.182l-0.111,-0.181l-0.112,-0.181l-0.112,-0.18l-0.113,-0.18l-0.113,-0.18l-0.114,-0.179l-0.114,-0.18l-0.115,-0.178l-0.115,-0.178l-0.116,-0.178l-0.117,-0.178l-0.117,-0.177l-0.117,-0.177l-0.118,-0.176l-0.119,-0.176l-0.119,-0.176l-0.12,-0.176l-0.12,-0.174l-0.12,-0.175l-0.121,-0.174l-0.122,-0.174l-0.122,-0.174l-0.123,-0.173l-0.123,-0.172l-0.124,-0.172l-0.124,-0.172l-0.125,-0.172l-0.125,-0.171l-0.125,-0.171l-0.127,-0.17l-0.126,-0.17l-0.127,-0.17l-0.128,-0.169l-0.129,-0.169l-0.128,-0.168l-0.129,-0.168l-0.13,-0.168l-0.13,-0.167l-0.131,-0.167l-0.131,-0.167l-0.132,-0.166l-0.132,-0.165l-0.133,-0.166l-0.133,-0.164l-0.133,-0.165l-0.134,-0.164l-0.135,-0.163l-0.135,-0.164l-0.135,-0.162l-0.136,-0.163l-0.137,-0.162l-0.137,-0.161l-0.137,-0.162l-0.138,-0.16l-0.139,-0.161l-0.139,-0.16l-0.139,-0.159l-0.139,-0.159l-0.141,-0.159l-0.141,-0.158l-0.141,-0.158l-0.142,-0.157l-0.142,-0.157l-0.142,-0.157l-0.143,-0.156l-0.144,-0.155l-0.144,-0.155l-0.144,-0.155l-0.145,-0.155l-0.146,-0.154l-0.145,-0.153l-0.147,-0.153l-0.146,-0.153l-0.147,-0.152l-0.148,-0.152l-0.148,-0.151l-0.149,-0.151l-0.149,-0.15l-0.149,-0.15l-0.15,-0.15l-0.15,-0.149l-0.151,-0.148l-0.151,-0.148l-0.152,-0.148l-0.152,-0.147l-0.153,-0.147l-0.153,-0.147l-0.153,-0.146l-0.154,-0.145l-0.154,-0.145l-0.155,-0.144l-0.155,-0.144l-0.155,-0.144l-0.156,-0.143l-0.157,-0.143l-0.157,-0.142l-0.157,-0.142l-0.158,-0.141l-0.158,-0.141l-0.158,-0.141l-0.159,-0.139l-0.16,-0.14l-0.159,-0.139l-0.161,-0.138l-0.16,-0.138l-0.161,-0.138l-0.162,-0.137l-0.162,-0.136l-0.162,-0.136l-0.163,-0.136l-0.163,-0.135l-0.163,-0.135l-0.164,-0.134l-0.165,-0.134l-0.164,-0.133l-0.165,-0.132l-0.166,-0.133l-0.166,-0.131l-0.166,-0.131l-0.167,-0.131l-0.167,-0.131l-0.167,-0.129l-0.168,-0.129l-0.169,-0.129l-0.169,-0.129l-0.169,-0.127l-0.169,-0.127l-0.17,-0.127l-0.17,-0.126l-0.171,-0.126l-0.171,-0.126l-0.171,-0.124l-0.172,-0.125l-0.173,-0.123l-0.172,-0.123l-0.173,-0.123l-0.173,-0.122l-0.174,-0.122l-0.174,-0.121l-0.175,-0.121l-0.174,-0.12l-0.176,-0.12l-0.175,-0.119l-0.176,-0.118l-0.177,-0.119l-0.176,-0.117l-0.177,-0.117l-0.178,-0.117l-0.177,-0.116l-0.179,-0.115l-0.178,-0.115l-0.179,-0.115l-0.179,-0.113l-0.18,-0.114l-0.18,-0.113l-0.18,-0.112l-0.181,-0.112l-0.181,-0.111l-0.181,-0.111l-0.182,-0.11l-0.182,-0.109l-0.183,-0.11l-0.183,-0.108l-0.183,-0.108l-0.183,-0.107l-0.184,-0.107l-0.184,-0.107l-0.185,-0.106l-0.185,-0.105l-0.185,-0.105l-0.185,-0.104l-0.186,-0.104l-0.186,-0.103l-0.187,-0.102l-0.187,-0.102l-0.187,-0.102l-0.188,-0.101l-0.188,-0.1l-0.188,-0.1l-0.188,-0.099l-0.189,-0.099l-0.189,-0.098l-0.19,-0.097l-0.19,-0.097l-0.19,-0.097l-0.191,-0.096l-0.19,-0.095l-0.192,-0.095l-0.191,-0.094l-0.192,-0.094l-0.192,-0.093l-0.193,-0.092l-0.192,-0.092l-0.193,-0.091l-0.194,-0.091l-0.193,-0.09l-0.194,-0.09l-0.195,-0.089l-0.194,-0.089l-0.195,-0.087l-0.196,-0.088l-0.195,-0.086l-0.196,-0.087l-0.196,-0.085l-0.197,-0.085l-0.197,-0.085l-0.197,-0.083l-0.197,-0.084l-0.198,-0.082l-0.198,-0.082l-0.198,-0.082l-0.199,-0.081l-0.198,-0.08l-0.2,-0.08l-0.199,-0.079l-0.2,-0.078l-0.2,-0.078l-0.2,-0.078l-0.201,-0.076l-0.201,-0.077l-0.201,-0.075l-0.202,-0.075l-0.201,-0.074l-0.202,-0.074l-0.203,-0.073l-0.202,-0.073l-0.203,-0.072l-0.204,-0.071l-0.203,-0.071l-0.204,-0.07l-0.204,-0.069l-0.204,-0.069l-0.205,-0.068l-0.205,-0.068l-0.205,-0.067l-0.205,-0.067l-0.206,-0.065l-0.206,-0.066l-0.206,-0.064l-0.206,-0.064l-0.207,-0.064l-0.207,-0.062l-0.208,-0.062l-0.207,-0.062l-0.208,-0.061l-0.208,-0.06l-0.209,-0.06l-0.208,-0.059l-0.209,-0.058l-0.209,-0.058l-0.21,-0.057l-0.209,-0.056l-0.21,-0.056l-0.21,-0.055l-0.211,-0.055l-0.211,-0.054l-0.211,-0.053l-0.211,-0.053l-0.211,-0.052l-0.212,-0.051l-0.212,-0.051l-0.212,-0.05l-0.213,-0.05l-0.212,-0.049l-0.213,-0.048l-0.214,-0.047l-0.213,-0.047l-0.214,-0.046l-0.214,-0.046l-0.214,-0.045l-0.214,-0.044l-0.215,-0.044l-0.215,-0.043l-0.215,-0.042l-0.216,-0.042l-0.215,-0.041l-0.216,-0.04l-0.216,-0.04l-0.217,-0.039l-0.216,-0.039l-0.217,-0.037l-0.217,-0.037l-0.217,-0.037l-0.218,-0.036l-0.218,-0.035l-0.218,-0.034l-0.218,-0.034l-0.218,-0.033l-0.219,-0.032l-0.219,-0.032l-0.219,-0.031l-0.22,-0.031l-0.219,-0.029l-0.22,-0.029l-0.22,-0.029l-0.22,-0.027l-0.221,-0.028l-0.221,-0.026l-0.221,-0.026l-0.221,-0.024l-0.221,-0.025l-0.222,-0.023l-0.222,-0.023l-0.222,-0.023l-0.222,-0.021l-0.222,-0.021l-0.223,-0.02l-0.223,-0.02l-0.223,-0.018l-0.224,-0.019l-0.223,-0.017l-0.224,-0.017l-0.224,-0.016l-0.224,-0.015l-0.225,-0.015l-0.224,-0.013l-0.225,-0.014l-0.225,-0.012l-0.226,-0.012l-0.225,-0.011l-0.226,-0.01l-0.226,-0.01l-0.226,-0.009l-0.226,-0.008l-0.227,-0.008l-0.226,-0.007l-0.227,-0.006l-0.227,-0.005l-0.228,-0.005l-0.227,-0.004l-0.228,-0.003l-0.228,-0.003l-0.228,-0.002l-0.228,-0.001l-0.229,0l-0.229,0Z" style="fill:#ff5c49;"/><path d="M39.082,54.23l121.836,87.9" style="fill:none;stroke:#ff5c49;stroke-width:14px;stroke-linecap:round;stroke-miterlimit:1.5;"/></g></svg>