<?xml version="1.0" encoding="UTF-8" standalone="no"?><!DOCTYPE svg PUBLIC "-//W3C//DTD SVG 1.1//EN" "http://www.w3.org/Graphics/SVG/1.1/DTD/svg11.dtd"><svg width="100%" height="100%" viewBox="0 0 818 201" version="1.1" xmlns="http://www.w3.org/2000/svg" xmlns:xlink="http://www.w3.org/1999/xlink" xml:space="preserve" style="fill-rule:evenodd;clip-rule:evenodd;stroke-linejoin:round;stroke-miterlimit:1.41421;"><g><circle cx="15.65" cy="15.816" r="15.107"/><circle cx="802.33" cy="15.811" r="15.102"/><path d="M802.325,15.811c0,2.937 -2.373,5.315 -5.305,5.315l-776.05,0c-2.937,0 -5.315,-2.378 -5.315,-5.315c0,-2.937 2.378,-5.314 5.315,-5.314l776.05,0c2.932,0 5.305,2.377 5.305,5.314Z" style="fill:#9f4c23;fill-rule:nonzero;"/><path d="M37.433,48.728l0,142.318c0,5.339 7.504,9.663 16.768,9.663l0,-161.638c-9.257,-0.006 -16.768,4.318 -16.768,9.657Z" style="fill:#98c3e8;fill-rule:nonzero;"/><path d="M54.201,39.065l0,161.638c9.257,0 16.768,-4.318 16.768,-9.663l0,-142.319c0,-5.332 -7.511,-9.656 -16.768,-9.656Z" style="fill:#63a8dc;fill-rule:nonzero;"/><path d="M57.101,44.265c0,2.411 -1.956,4.367 -4.367,4.367c-2.411,0 -4.368,-1.956 -4.368,-4.367l0,-35.4c0,-2.411 1.957,-4.367 4.368,-4.367c2.411,0 4.367,1.956 4.367,4.367l0,35.4Z" style="fill-rule:nonzero;"/><path d="M90.884,44.265c0,2.411 -1.957,4.367 -4.363,4.367c-2.416,0 -4.372,-1.956 -4.372,-4.367l0,-35.4c0,-2.411 1.956,-4.367 4.372,-4.367c2.406,0 4.363,1.956 4.363,4.367l0,35.4Z" style="fill-rule:nonzero;"/><path d="M124.676,44.265c0,2.411 -1.952,4.367 -4.363,4.367c-2.411,0 -4.368,-1.956 -4.368,-4.367l0,-35.4c0,-2.411 1.957,-4.367 4.368,-4.367c2.411,0 4.363,1.956 4.363,4.367l0,35.4Z" style="fill-rule:nonzero;"/><path d="M158.468,44.265c0,2.411 -1.957,4.367 -4.363,4.367c-2.416,0 -4.372,-1.956 -4.372,-4.367l0,-35.4c0,-2.411 1.956,-4.367 4.372,-4.367c2.406,0 4.363,1.956 4.363,4.367l0,35.4Z" style="fill-rule:nonzero;"/><path d="M192.255,44.265c0,2.411 -1.957,4.367 -4.363,4.367c-2.416,0 -4.372,-1.956 -4.372,-4.367l0,-35.4c0,-2.411 1.956,-4.367 4.372,-4.367c2.406,0 4.363,1.956 4.363,4.367l0,35.4Z" style="fill-rule:nonzero;"/><path d="M226.047,44.265c0,2.411 -1.956,4.367 -4.363,4.367c-2.415,0 -4.372,-1.956 -4.372,-4.367l0,-35.4c0,-2.411 1.957,-4.367 4.372,-4.367c2.407,0 4.363,1.956 4.363,4.367l0,35.4Z" style="fill-rule:nonzero;"/><path d="M259.839,44.265c0,2.411 -1.952,4.367 -4.367,4.367c-2.411,0 -4.363,-1.956 -4.363,-4.367l0,-35.4c0,-2.411 1.952,-4.367 4.363,-4.367c2.415,0 4.367,1.956 4.367,4.367l0,35.4Z" style="fill-rule:nonzero;"/><path d="M293.622,44.265c0,2.411 -1.947,4.367 -4.358,4.367c-2.416,0 -4.368,-1.956 -4.368,-4.367l0,-35.4c0,-2.411 1.952,-4.367 4.368,-4.367c2.411,0 4.358,1.956 4.358,4.367l0,35.4Z" style="fill-rule:nonzero;"/><path d="M327.418,44.265c0,2.411 -1.956,4.367 -4.362,4.367c-2.416,0 -4.373,-1.956 -4.373,-4.367l0,-35.4c0,-2.411 1.957,-4.367 4.373,-4.367c2.406,0 4.362,1.956 4.362,4.367l0,35.4Z" style="fill-rule:nonzero;"/><path d="M361.206,44.265c0,2.411 -1.957,4.367 -4.363,4.367c-2.416,0 -4.372,-1.956 -4.372,-4.367l0,-35.4c0,-2.411 1.956,-4.367 4.372,-4.367c2.406,0 4.363,1.956 4.363,4.367l0,35.4Z" style="fill-rule:nonzero;"/><path d="M394.993,44.265c0,2.411 -1.952,4.367 -4.363,4.367c-2.416,0 -4.372,-1.956 -4.372,-4.367l0,-35.4c0,-2.411 1.956,-4.367 4.372,-4.367c2.411,0 4.363,1.956 4.363,4.367l0,35.4Z" style="fill-rule:nonzero;"/><path d="M428.785,44.265c0,2.411 -1.952,4.367 -4.363,4.367c-2.42,0 -4.372,-1.956 -4.372,-4.367l0,-35.4c0,-2.411 1.952,-4.367 4.372,-4.367c2.411,0 4.363,1.956 4.363,4.367l0,35.4Z" style="fill-rule:nonzero;"/><path d="M462.572,44.265c0,2.411 -1.952,4.367 -4.363,4.367c-2.411,0 -4.362,-1.956 -4.362,-4.367l0,-35.4c0,-2.411 1.951,-4.367 4.362,-4.367c2.411,0 4.363,1.956 4.363,4.367l0,35.4Z" style="fill-rule:nonzero;"/><path d="M496.364,44.265c0,2.411 -1.961,4.367 -4.362,4.367c-2.421,0 -4.373,-1.956 -4.373,-4.367l0,-35.4c0,-2.411 1.952,-4.367 4.373,-4.367c2.401,0 4.362,1.956 4.362,4.367l0,35.4Z" style="fill-rule:nonzero;"/><path d="M530.151,44.265c0,2.411 -1.951,4.367 -4.362,4.367c-2.411,0 -4.373,-1.956 -4.373,-4.367l0,-35.4c0,-2.411 1.962,-4.367 4.373,-4.367c2.411,0 4.362,1.956 4.362,4.367l0,35.4Z" style="fill-rule:nonzero;"/><path d="M563.944,44.265c0,2.411 -1.952,4.367 -4.363,4.367c-2.421,0 -4.372,-1.956 -4.372,-4.367l0,-35.4c0,-2.411 1.951,-4.367 4.372,-4.367c2.411,0 4.363,1.956 4.363,4.367l0,35.4Z" style="fill-rule:nonzero;"/><path d="M597.74,44.265c0,2.411 -1.961,4.367 -4.372,4.367c-2.411,0 -4.363,-1.956 -4.363,-4.367l0,-35.4c0,-2.411 1.952,-4.367 4.363,-4.367c2.411,0 4.372,1.956 4.372,4.367l0,35.4Z" style="fill-rule:nonzero;"/><path d="M631.523,44.265c0,2.411 -1.952,4.367 -4.363,4.367c-2.411,0 -4.372,-1.956 -4.372,-4.367l0,-35.4c0,-2.411 1.961,-4.367 4.372,-4.367c2.411,0 4.363,1.956 4.363,4.367l0,35.4Z" style="fill-rule:nonzero;"/><path d="M665.31,44.265c0,2.411 -1.952,4.367 -4.363,4.367c-2.411,0 -4.362,-1.956 -4.362,-4.367l0,-35.4c0,-2.411 1.951,-4.367 4.362,-4.367c2.411,0 4.363,1.956 4.363,4.367l0,35.4Z" style="fill-rule:nonzero;"/><path d="M699.102,44.265c0,2.411 -1.952,4.367 -4.363,4.367c-2.42,0 -4.372,-1.956 -4.372,-4.367l0,-35.4c0,-2.411 1.952,-4.367 4.372,-4.367c2.411,0 4.363,1.956 4.363,4.367l0,35.4Z" style="fill-rule:nonzero;"/><path d="M732.899,44.265c0,2.411 -1.961,4.367 -4.363,4.367c-2.42,0 -4.372,-1.956 -4.372,-4.367l0,-35.4c0,-2.411 1.952,-4.367 4.372,-4.367c2.402,0 4.363,1.956 4.363,4.367l0,35.4Z" style="fill-rule:nonzero;"/><path d="M766.681,44.265c0,2.411 -1.951,4.367 -4.362,4.367c-2.411,0 -4.373,-1.956 -4.373,-4.367l0,-35.4c0,-2.411 1.962,-4.367 4.373,-4.367c2.411,0 4.362,1.956 4.362,4.367l0,35.4Z" style="fill-rule:nonzero;"/><path d="M37.433,48.728l0,142.318c0,5.339 7.504,9.663 16.768,9.663l0,-161.638c-9.257,-0.006 -16.768,4.318 -16.768,9.657Z" style="fill:#98c3e8;fill-rule:nonzero;"/><path d="M54.201,39.065l0,161.638c9.257,0 16.768,-4.318 16.768,-9.663l0,-142.319c0,-5.332 -7.511,-9.656 -16.768,-9.656Z" style="fill:#63a8dc;fill-rule:nonzero;"/><path d="M240.171,48.728l0,142.318c0,5.339 7.504,9.663 16.767,9.663l0,-161.638c-9.257,-0.006 -16.767,4.318 -16.767,9.657Z" style="fill:#98c3e8;fill-rule:nonzero;"/><path d="M256.938,39.065l0,161.638c9.258,0 16.768,-4.318 16.768,-9.663l0,-142.319c0,-5.332 -7.51,-9.656 -16.768,-9.656Z" style="fill:#63a8dc;fill-rule:nonzero;"/><path d="M105.015,48.728l0,142.318c0,5.339 7.504,9.663 16.767,9.663l0,-161.638c-9.257,-0.006 -16.767,4.318 -16.767,9.657Z" style="fill:#98c3e8;fill-rule:nonzero;"/><path d="M121.782,39.065l0,161.638c9.257,0 16.768,-4.318 16.768,-9.663l0,-142.319c0,-5.332 -7.511,-9.656 -16.768,-9.656Z" style="fill:#63a8dc;fill-rule:nonzero;"/><path d="M71.218,48.728l0,142.318c0,5.339 7.504,9.663 16.768,9.663l0,-161.638c-9.257,-0.006 -16.768,4.318 -16.768,9.657Z" style="fill:#98c3e8;fill-rule:nonzero;"/><path d="M87.986,39.065l0,161.638c9.257,0 16.768,-4.318 16.768,-9.663l0,-142.319c0,-5.332 -7.511,-9.656 -16.768,-9.656Z" style="fill:#63a8dc;fill-rule:nonzero;"/><path d="M138.8,48.728l0,142.318c0,5.339 7.503,9.663 16.767,9.663l0,-161.638c-9.257,-0.006 -16.767,4.318 -16.767,9.657Z" style="fill:#98c3e8;fill-rule:nonzero;"/><path d="M155.567,39.065l0,161.638c9.257,0 16.768,-4.318 16.768,-9.663l0,-142.319c0,-5.332 -7.511,-9.656 -16.768,-9.656Z" style="fill:#63a8dc;fill-rule:nonzero;"/><path d="M138.8,48.728l0,142.318c0,5.339 7.503,9.663 16.767,9.663l0,-161.638c-9.257,-0.006 -16.767,4.318 -16.767,9.657Z" style="fill:#98c3e8;fill-rule:nonzero;"/><path d="M155.567,39.065l0,161.638c9.257,0 16.768,-4.318 16.768,-9.663l0,-142.319c0,-5.332 -7.511,-9.656 -16.768,-9.656Z" style="fill:#63a8dc;fill-rule:nonzero;"/><path d="M206.386,48.728l0,142.318c0,5.339 7.504,9.663 16.768,9.663l0,-161.638c-9.258,-0.006 -16.768,4.318 -16.768,9.657Z" style="fill:#98c3e8;fill-rule:nonzero;"/><path d="M223.154,39.065l0,161.638c9.257,0 16.767,-4.318 16.767,-9.663l0,-142.319c0,-5.332 -7.51,-9.656 -16.767,-9.656Z" style="fill:#63a8dc;fill-rule:nonzero;"/><path d="M172.592,48.728l0,142.318c0,5.339 7.503,9.663 16.767,9.663l0,-161.638c-9.257,-0.006 -16.767,4.318 -16.767,9.657Z" style="fill:#98c3e8;fill-rule:nonzero;"/><path d="M189.359,39.065l0,161.638c9.257,0 16.768,-4.318 16.768,-9.663l0,-142.319c0,-5.332 -7.511,-9.656 -16.768,-9.656Z" style="fill:#63a8dc;fill-rule:nonzero;"/><path d="M273.965,48.728l0,142.318c0,5.339 7.504,9.663 16.767,9.663l0,-161.638c-9.257,-0.006 -16.767,4.318 -16.767,9.657Z" style="fill:#98c3e8;fill-rule:nonzero;"/><path d="M290.732,39.065l0,161.638c9.258,0 16.768,-4.318 16.768,-9.663l0,-142.319c0,-5.332 -7.51,-9.656 -16.768,-9.656Z" style="fill:#63a8dc;fill-rule:nonzero;"/><path d="M273.965,48.728l0,142.318c0,5.339 7.504,9.663 16.767,9.663l0,-161.638c-9.257,-0.006 -16.767,4.318 -16.767,9.657Z" style="fill:#98c3e8;fill-rule:nonzero;"/><path d="M290.732,39.065l0,161.638c9.258,0 16.768,-4.318 16.768,-9.663l0,-142.319c0,-5.332 -7.51,-9.656 -16.768,-9.656Z" style="fill:#63a8dc;fill-rule:nonzero;"/><path d="M476.705,48.728l0,142.318c0,5.339 7.504,9.663 16.767,9.663l0,-161.638c-9.257,-0.006 -16.767,4.318 -16.767,9.657Z" style="fill:#98c3e8;fill-rule:nonzero;"/><path d="M493.472,39.065l0,161.638c9.257,0 16.768,-4.318 16.768,-9.663l0,-142.319c0,-5.332 -7.511,-9.656 -16.768,-9.656Z" style="fill:#63a8dc;fill-rule:nonzero;"/><path d="M341.539,48.728l0,142.318c0,5.339 7.504,9.663 16.768,9.663l0,-161.638c-9.257,-0.006 -16.768,4.318 -16.768,9.657Z" style="fill:#98c3e8;fill-rule:nonzero;"/><path d="M358.307,39.065l0,161.638c9.257,0 16.768,-4.318 16.768,-9.663l0,-142.319c0,-5.332 -7.511,-9.656 -16.768,-9.656Z" style="fill:#63a8dc;fill-rule:nonzero;"/><path d="M307.75,48.728l0,142.318c0,5.339 7.504,9.663 16.767,9.663l0,-161.638c-9.257,-0.006 -16.767,4.318 -16.767,9.657Z" style="fill:#98c3e8;fill-rule:nonzero;"/><path d="M324.517,39.065l0,161.638c9.257,0 16.768,-4.318 16.768,-9.663l0,-142.319c0,-5.332 -7.511,-9.656 -16.768,-9.656Z" style="fill:#63a8dc;fill-rule:nonzero;"/><path d="M375.324,48.728l0,142.318c0,5.339 7.504,9.663 16.768,9.663l0,-161.638c-9.257,-0.006 -16.768,4.318 -16.768,9.657Z" style="fill:#98c3e8;fill-rule:nonzero;"/><path d="M392.092,39.065l0,161.638c9.257,0 16.767,-4.318 16.767,-9.663l0,-142.319c0,-5.332 -7.51,-9.656 -16.767,-9.656Z" style="fill:#63a8dc;fill-rule:nonzero;"/><path d="M375.324,48.728l0,142.318c0,5.339 7.504,9.663 16.768,9.663l0,-161.638c-9.257,-0.006 -16.768,4.318 -16.768,9.657Z" style="fill:#98c3e8;fill-rule:nonzero;"/><path d="M392.092,39.065l0,161.638c9.257,0 16.767,-4.318 16.767,-9.663l0,-142.319c0,-5.332 -7.51,-9.656 -16.767,-9.656Z" style="fill:#63a8dc;fill-rule:nonzero;"/><path d="M442.91,48.728l0,142.318c0,5.339 7.504,9.663 16.768,9.663l0,-161.638c-9.257,-0.006 -16.768,4.318 -16.768,9.657Z" style="fill:#98c3e8;fill-rule:nonzero;"/><path d="M459.678,39.065l0,161.638c9.257,0 16.767,-4.318 16.767,-9.663l0,-142.319c0,-5.332 -7.51,-9.656 -16.767,-9.656Z" style="fill:#63a8dc;fill-rule:nonzero;"/><path d="M409.116,48.728l0,142.318c0,5.339 7.504,9.663 16.768,9.663l0,-161.638c-9.257,-0.006 -16.768,4.318 -16.768,9.657Z" style="fill:#98c3e8;fill-rule:nonzero;"/><path d="M425.884,39.065l0,161.638c9.257,0 16.767,-4.318 16.767,-9.663l0,-142.319c0,-5.332 -7.51,-9.656 -16.767,-9.656Z" style="fill:#63a8dc;fill-rule:nonzero;"/><path d="M510.489,48.728l0,142.318c0,5.339 7.504,9.663 16.768,9.663l0,-161.638c-9.257,-0.006 -16.768,4.318 -16.768,9.657Z" style="fill:#98c3e8;fill-rule:nonzero;"/><path d="M527.257,39.065l0,161.638c9.257,0 16.768,-4.318 16.768,-9.663l0,-142.319c0,-5.332 -7.511,-9.656 -16.768,-9.656Z" style="fill:#63a8dc;fill-rule:nonzero;"/><path d="M510.489,48.728l0,142.318c0,5.339 7.504,9.663 16.768,9.663l0,-161.638c-9.257,-0.006 -16.768,4.318 -16.768,9.657Z" style="fill:#98c3e8;fill-rule:nonzero;"/><path d="M527.257,39.065l0,161.638c9.257,0 16.768,-4.318 16.768,-9.663l0,-142.319c0,-5.332 -7.511,-9.656 -16.768,-9.656Z" style="fill:#63a8dc;fill-rule:nonzero;"/><path d="M713.236,48.728l0,142.318c0,5.339 7.504,9.663 16.768,9.663l0,-161.638c-9.258,-0.006 -16.768,4.318 -16.768,9.657Z" style="fill:#98c3e8;fill-rule:nonzero;"/><path d="M730.004,39.065l0,161.638c9.257,0 16.767,-4.318 16.767,-9.663l0,-142.319c0,-5.332 -7.51,-9.656 -16.767,-9.656Z" style="fill:#63a8dc;fill-rule:nonzero;"/><path d="M578.068,48.728l0,142.318c0,5.339 7.504,9.663 16.768,9.663l0,-161.638c-9.257,-0.006 -16.768,4.318 -16.768,9.657Z" style="fill:#98c3e8;fill-rule:nonzero;"/><path d="M594.836,39.065l0,161.638c9.257,0 16.768,-4.318 16.768,-9.663l0,-142.319c0,-5.332 -7.511,-9.656 -16.768,-9.656Z" style="fill:#63a8dc;fill-rule:nonzero;"/><path d="M544.274,48.728l0,142.318c0,5.339 7.504,9.663 16.768,9.663l0,-161.638c-9.257,-0.006 -16.768,4.318 -16.768,9.657Z" style="fill:#98c3e8;fill-rule:nonzero;"/><path d="M561.042,39.065l0,161.638c9.257,0 16.768,-4.318 16.768,-9.663l0,-142.319c0,-5.332 -7.511,-9.656 -16.768,-9.656Z" style="fill:#63a8dc;fill-rule:nonzero;"/><path d="M611.853,48.728l0,142.318c0,5.339 7.504,9.663 16.768,9.663l0,-161.638c-9.257,-0.006 -16.768,4.318 -16.768,9.657Z" style="fill:#98c3e8;fill-rule:nonzero;"/><path d="M628.621,39.065l0,161.638c9.257,0 16.767,-4.318 16.767,-9.663l0,-142.319c0,-5.332 -7.51,-9.656 -16.767,-9.656Z" style="fill:#63a8dc;fill-rule:nonzero;"/><path d="M611.853,48.728l0,142.318c0,5.339 7.504,9.663 16.768,9.663l0,-161.638c-9.257,-0.006 -16.768,4.318 -16.768,9.657Z" style="fill:#98c3e8;fill-rule:nonzero;"/><path d="M628.621,39.065l0,161.638c9.257,0 16.767,-4.318 16.767,-9.663l0,-142.319c0,-5.332 -7.51,-9.656 -16.767,-9.656Z" style="fill:#63a8dc;fill-rule:nonzero;"/><path d="M679.442,48.728l0,142.318c0,5.339 7.503,9.663 16.767,9.663l0,-161.638c-9.257,-0.006 -16.767,4.318 -16.767,9.657Z" style="fill:#98c3e8;fill-rule:nonzero;"/><path d="M696.209,39.065l0,161.638c9.257,0 16.768,-4.318 16.768,-9.663l0,-142.319c0,-5.332 -7.511,-9.656 -16.768,-9.656Z" style="fill:#63a8dc;fill-rule:nonzero;"/><path d="M645.648,48.728l0,142.318c0,5.339 7.504,9.663 16.767,9.663l0,-161.638c-9.257,-0.006 -16.767,4.318 -16.767,9.657Z" style="fill:#98c3e8;fill-rule:nonzero;"/><path d="M662.415,39.065l0,161.638c9.257,0 16.768,-4.318 16.768,-9.663l0,-142.319c0,-5.332 -7.511,-9.656 -16.768,-9.656Z" style="fill:#63a8dc;fill-rule:nonzero;"/><path d="M747.011,48.728l0,142.318c0,5.339 7.504,9.663 16.768,9.663l0,-161.638c-9.257,-0.006 -16.768,4.318 -16.768,9.657Z" style="fill:#98c3e8;fill-rule:nonzero;"/><path d="M763.779,39.065l0,161.638c9.257,0 16.768,-4.318 16.768,-9.663l0,-142.319c0,-5.332 -7.511,-9.656 -16.768,-9.656Z" style="fill:#63a8dc;fill-rule:nonzero;"/></g></svg>